<?xml version="1.0" encoding="UTF-8"?>
<svg xmlns="http://www.w3.org/2000/svg" xmlns:xlink="http://www.w3.org/1999/xlink" width="48pt" height="48pt" viewBox="0 0 48 48" version="1.1">
<g id="surface1">
<path style=" stroke:none;fill-rule:nonzero;fill:rgb(0%,0%,0%);fill-opacity:1;" d="M 28.089844 18.121094 L 30 25 L 32 25 L 30.019531 17.597656 C 29.277344 14.890625 26.804688 13 24 13 C 21.195312 13 18.722656 14.890625 17.984375 17.597656 L 16 25 L 18 25 L 19.910156 18.121094 C 20.179688 17.148438 20.78125 16.339844 21.566406 15.785156 L 19 27 L 21 27 L 23.789062 15.019531 C 23.859375 15.015625 23.929688 15 24 15 C 24.070312 15 24.140625 15.015625 24.210938 15.019531 L 27 27 L 29 27 L 26.433594 15.785156 C 27.21875 16.339844 27.820312 17.148438 28.089844 18.121094 M 25 40 L 27 40 L 27 27 L 25 27 Z M 23 27 L 21 27 L 21 40 L 23 40 Z M 22 10 C 22 8.894531 22.894531 8 24 8 C 25.105469 8 26 8.894531 26 10 C 26 11.105469 25.105469 12 24 12 C 22.894531 12 22 11.105469 22 10 "/>
</g>
</svg>
