<?xml version="1.0" encoding="UTF-8"?>
<svg xmlns="http://www.w3.org/2000/svg" xmlns:xlink="http://www.w3.org/1999/xlink" width="48pt" height="48pt" viewBox="0 0 48 48" version="1.1">
<g id="surface1">
<path style=" stroke:none;fill-rule:nonzero;fill:rgb(0%,0%,0%);fill-opacity:1;" d="M 25 8 L 23 8 L 23 40 L 25 40 Z M 40.089844 18.121094 L 42 25 L 44 25 L 42.019531 17.597656 C 41.277344 14.890625 38.804688 13 36 13 C 33.195312 13 30.722656 14.890625 29.980469 17.597656 L 28 25 L 30 25 L 31.910156 18.121094 C 32.179688 17.148438 32.78125 16.339844 33.566406 15.785156 L 31 27 L 33 27 L 35.789062 15.019531 C 35.859375 15.015625 35.929688 15 36 15 C 36.070312 15 36.140625 15.015625 36.210938 15.019531 L 39 27 L 41 27 L 38.433594 15.785156 C 39.21875 16.339844 39.820312 17.148438 40.089844 18.121094 M 37 40 L 39 40 L 39 27 L 37 27 Z M 35 27 L 33 27 L 33 40 L 35 40 Z M 34 10 C 34 8.894531 34.894531 8 36 8 C 37.105469 8 38 8.894531 38 10 C 38 11.105469 37.105469 12 36 12 C 34.894531 12 34 11.105469 34 10 M 12 13 C 8.140625 13 5 16.140625 5 20 L 5 26 L 7 26 L 7 20 C 7 18.371094 7.792969 16.9375 9 16.023438 L 9 40 L 11 40 L 11 15.101562 C 11.324219 15.035156 11.65625 15 12 15 C 12.34375 15 12.675781 15.035156 13 15.101562 L 13 40 L 15 40 L 15 16.023438 C 16.207031 16.9375 17 18.371094 17 20 L 17 26 L 19 26 L 19 20 C 19 16.140625 15.859375 13 12 13 M 10 10 C 10 8.894531 10.894531 8 12 8 C 13.105469 8 14 8.894531 14 10 C 14 11.105469 13.105469 12 12 12 C 10.894531 12 10 11.105469 10 10 "/>
</g>
</svg>
