<?xml version="1.0" encoding="UTF-8"?>
<svg xmlns="http://www.w3.org/2000/svg" xmlns:xlink="http://www.w3.org/1999/xlink" width="48pt" height="48pt" viewBox="0 0 48 48" version="1.1">
<g id="surface1">
<path style=" stroke:none;fill-rule:nonzero;fill:rgb(0%,0%,0%);fill-opacity:1;" d="M 28.449219 30.722656 C 27.351562 33.324219 24.820312 35 22 35 C 18.140625 35 15 31.859375 15 28 C 15 24.894531 17.046875 22.1875 20 21.308594 L 20 19.238281 C 19.917969 19.253906 19.832031 19.261719 19.753906 19.285156 C 15.777344 20.304688 13 23.890625 13 28 C 13 32.960938 17.039062 37 22 37 C 25.625 37 28.878906 34.84375 30.292969 31.503906 Z M 37 35 L 34.820312 35 L 32.820312 25 L 24 25 L 24 17 C 24 16.449219 24.449219 16 25 16 C 25.550781 16 26 16.449219 26 17 L 26 18 C 26 19.609375 27.066406 22 30 22 L 34 22 L 34 20 L 30 20 C 28.175781 20 28.007812 18.464844 28 18 L 28 17 C 28 15.34375 26.652344 14 25 14 C 23.347656 14 22 15.34375 22 17 L 22 27 L 31.179688 27 L 33.179688 37 L 37 37 Z M 25 9 C 23.894531 9 23 9.894531 23 11 C 23 12.105469 23.894531 13 25 13 C 26.105469 13 27 12.105469 27 11 C 27 9.894531 26.105469 9 25 9 "/>
</g>
</svg>
