<?xml version="1.0" encoding="UTF-8"?>
<svg xmlns="http://www.w3.org/2000/svg" xmlns:xlink="http://www.w3.org/1999/xlink" width="48pt" height="48pt" viewBox="0 0 48 48" version="1.1">
<g id="surface1">
<path style=" stroke:none;fill-rule:nonzero;fill:rgb(0%,0%,0%);fill-opacity:1;" d="M 34 14 C 32.347656 14 31 15.347656 31 17 L 26.429688 17 L 24.269531 14.730469 C 23.324219 13.785156 21.691406 13.769531 20.714844 14.75 L 18.277344 17.308594 L 14 21.585938 L 14 37 L 16 37 L 16 22.414062 L 18 20.414062 L 18 37 L 20 37 L 20 18.398438 L 22.144531 16.144531 C 22.273438 16.019531 22.421875 16 22.5 16 C 22.578125 16 22.726562 16.019531 22.835938 16.128906 L 25.570312 19 L 31 19 L 31 37 L 33 37 L 33 17 C 33 16.449219 33.449219 16 34 16 C 34.550781 16 35 16.449219 35 17 L 37 17 C 37 15.347656 35.652344 14 34 14 M 24 12 C 24 10.894531 24.894531 10 26 10 C 27.105469 10 28 10.894531 28 12 C 28 13.105469 27.105469 14 26 14 C 24.894531 14 24 13.105469 24 12 "/>
</g>
</svg>
