<?xml version="1.0" encoding="UTF-8"?>
<svg xmlns="http://www.w3.org/2000/svg" xmlns:xlink="http://www.w3.org/1999/xlink" width="48pt" height="48pt" viewBox="0 0 48 48" version="1.1">
<g id="surface1">
<path style=" stroke:none;fill-rule:nonzero;fill:rgb(0%,0%,0%);fill-opacity:1;" d="M 26 16.074219 L 26 15.5 C 26 14.121094 24.878906 13 23.5 13 C 22.121094 13 21 14.121094 21 15.5 L 21 26 L 23 26 L 23 15.5 C 23 15.222656 23.226562 15 23.5 15 C 23.777344 15 24 15.222656 24 15.5 L 24 18 L 25 18 C 25.203125 18 30 18.054688 30 23 L 30 27 C 30 27.550781 29.550781 28 29 28 L 23 28 L 23 40 L 25 40 L 25 30 L 29 30 C 30.652344 30 32 28.652344 32 27 L 32 23 C 32 18.15625 28.496094 16.429688 26 16.074219 M 22 10 C 22 8.894531 22.894531 8 24 8 C 25.105469 8 26 8.894531 26 10 C 26 11.105469 25.105469 12 24 12 C 22.894531 12 22 11.105469 22 10 "/>
</g>
</svg>
