<?xml version="1.0" encoding="UTF-8"?>
<svg xmlns="http://www.w3.org/2000/svg" xmlns:xlink="http://www.w3.org/1999/xlink" width="48pt" height="48pt" viewBox="0 0 48 48" version="1.1">
<g id="surface1">
<path style=" stroke:none;fill-rule:nonzero;fill:rgb(0%,0%,0%);fill-opacity:1;" d="M 41 34 L 38 34 L 38 37 L 36 37 L 36 34 L 33 34 L 33 32 L 36 32 L 36 29 L 38 29 L 38 32 L 41 32 Z M 39.5 26.460938 C 38.730469 26.160156 37.878906 26 37 26 C 36.199219 26 35.441406 26.128906 34.730469 26.378906 C 33.371094 26.839844 32.199219 27.710938 31.371094 28.851562 C 30.691406 29.761719 30.238281 30.828125 30.078125 32 C 30.019531 32.320312 30 32.660156 30 33 C 30 36.871094 33.128906 40 37 40 C 40.871094 40 44 36.871094 44 33 C 44 30.011719 42.128906 27.460938 39.5 26.460938 M 24 13 C 20.140625 13 17 16.140625 17 20 L 17 26 L 19 26 L 19 20 C 19 18.371094 19.792969 16.9375 21 16.023438 L 21 40 L 23 40 L 23 15.101562 C 23.324219 15.035156 23.65625 15 24 15 C 24.34375 15 24.675781 15.035156 25 15.101562 L 25 40 L 27 40 L 27 16.023438 C 28.207031 16.9375 29 18.371094 29 20 L 29 26 L 31 26 L 31 20 C 31 16.140625 27.859375 13 24 13 M 22 10 C 22 8.894531 22.894531 8 24 8 C 25.105469 8 26 8.894531 26 10 C 26 11.105469 25.105469 12 24 12 C 22.894531 12 22 11.105469 22 10 "/>
</g>
</svg>
