<?xml version="1.0" encoding="UTF-8"?>
<svg xmlns="http://www.w3.org/2000/svg" xmlns:xlink="http://www.w3.org/1999/xlink" width="48pt" height="48pt" viewBox="0 0 48 48" version="1.1">
<g id="surface1">
<path style=" stroke:none;fill-rule:nonzero;fill:rgb(0%,0%,0%);fill-opacity:1;" d="M 40.707031 35.292969 L 39.292969 36.707031 L 37 34.414062 L 34.707031 36.707031 L 33.292969 35.292969 L 35.585938 33 L 33.292969 30.707031 L 34.707031 29.292969 L 37 31.585938 L 39.292969 29.292969 L 40.707031 30.707031 L 38.414062 33 Z M 37 26 C 33.132812 26 30 29.132812 30 33 C 30 36.867188 33.132812 40 37 40 C 40.867188 40 44 36.867188 44 33 C 44 29.132812 40.867188 26 37 26 M 24 13 C 20.140625 13 17 16.140625 17 20 L 17 26 L 19 26 L 19 20 C 19 18.371094 19.792969 16.9375 21 16.023438 L 21 40 L 23 40 L 23 15.101562 C 23.324219 15.035156 23.65625 15 24 15 C 24.34375 15 24.675781 15.035156 25 15.101562 L 25 40 L 27 40 L 27 16.023438 C 28.207031 16.9375 29 18.371094 29 20 L 29 26 L 31 26 L 31 20 C 31 16.140625 27.859375 13 24 13 M 22 10 C 22 8.894531 22.894531 8 24 8 C 25.105469 8 26 8.894531 26 10 C 26 11.105469 25.105469 12 24 12 C 22.894531 12 22 11.105469 22 10 "/>
</g>
</svg>
