<?xml version="1.0" encoding="UTF-8"?>
<svg xmlns="http://www.w3.org/2000/svg" xmlns:xlink="http://www.w3.org/1999/xlink" width="48pt" height="48pt" viewBox="0 0 48 48" version="1.1">
<g id="surface1">
<path style=" stroke:none;fill-rule:nonzero;fill:rgb(0%,0%,0%);fill-opacity:1;" d="M 24 12 C 25.105469 12 26 11.105469 26 10 C 26 8.894531 25.105469 8 24 8 C 22.894531 8 22 8.894531 22 10 C 22 11.105469 22.894531 12 24 12 "/>
<path style=" stroke:none;fill-rule:nonzero;fill:rgb(0%,0%,0%);fill-opacity:1;" d="M 27 21.585938 L 27 16.027344 C 28.105469 16.867188 28.867188 18.140625 28.984375 19.601562 Z M 21 21.585938 L 19.015625 19.601562 C 19.132812 18.140625 19.894531 16.867188 21 16.027344 Z M 31 20 C 31 16.140625 27.859375 13 24 13 C 20.140625 13 17 16.140625 17 20 L 17 20.414062 L 21 24.414062 L 21 40 L 23 40 L 23 15.105469 C 23.324219 15.039062 23.65625 15 24 15 C 24.34375 15 24.675781 15.039062 25 15.105469 L 25 40 L 27 40 L 27 24.414062 L 31 20.414062 Z M 31 20 "/>
</g>
</svg>
