<?xml version="1.0" encoding="UTF-8"?>
<svg xmlns="http://www.w3.org/2000/svg" xmlns:xlink="http://www.w3.org/1999/xlink" width="48pt" height="48pt" viewBox="0 0 48 48" version="1.1">
<g id="surface1">
<path style=" stroke:none;fill-rule:nonzero;fill:rgb(0%,0%,0%);fill-opacity:1;" d="M 23.546875 23.238281 L 27.421875 15 L 25.636719 15 L 22.089844 22.53125 Z M 30 21 L 30 16 C 30 15.65625 29.8125 15.367188 29.546875 15.183594 L 25.347656 24.113281 L 29.785156 26.269531 L 33.929688 36.628906 L 32.070312 37.371094 L 28.214844 27.730469 L 19.4375 23.46875 L 23.421875 15 L 21.632812 15 L 16.726562 25.425781 L 14.917969 24.574219 L 20.367188 13 L 29 13 C 30.65625 13 32 14.34375 32 16 L 32 19 L 39 19 L 39 21 Z M 20.253906 30.238281 L 11.59375 34.085938 L 12.40625 35.914062 L 21.746094 31.761719 L 23.484375 28.074219 L 21.671875 27.21875 Z M 26 10 C 26 8.894531 26.894531 8 28 8 C 29.105469 8 30 8.894531 30 10 C 30 11.105469 29.105469 12 28 12 C 26.894531 12 26 11.105469 26 10 "/>
</g>
</svg>
