<?xml version="1.0" encoding="UTF-8"?>
<svg xmlns="http://www.w3.org/2000/svg" xmlns:xlink="http://www.w3.org/1999/xlink" width="48pt" height="48pt" viewBox="0 0 48 48" version="1.1">
<g id="surface1">
<path style=" stroke:none;fill-rule:nonzero;fill:rgb(0%,0%,0%);fill-opacity:1;" d="M 33.863281 25 L 33.863281 22.019531 C 33.898438 20.101562 33.167969 18.300781 31.8125 16.941406 C 29.085938 14.214844 24.644531 14.214844 21.914062 16.941406 L 14.929688 23.929688 L 16.34375 25.34375 L 23.328125 18.355469 C 24.496094 17.191406 26.101562 16.738281 27.617188 16.96875 L 9.292969 35.292969 L 10.707031 36.707031 L 29.660156 17.753906 C 29.917969 17.929688 30.167969 18.128906 30.398438 18.355469 C 30.539062 18.496094 30.652344 18.660156 30.773438 18.8125 L 24.226562 25.359375 L 27.179688 30 L 20 30 L 20 32 L 30.820312 32 L 26.773438 25.640625 L 31.703125 20.710938 C 31.804688 21.128906 31.871094 21.554688 31.863281 22 L 31.863281 27 L 40 27 L 40 25 Z M 32.585938 15.414062 C 31.804688 14.632812 31.804688 13.367188 32.585938 12.585938 C 33.367188 11.804688 34.632812 11.804688 35.414062 12.585938 C 36.195312 13.367188 36.195312 14.632812 35.414062 15.414062 C 34.632812 16.195312 33.367188 16.195312 32.585938 15.414062 "/>
</g>
</svg>
