<?xml version="1.0" encoding="UTF-8"?>
<svg xmlns="http://www.w3.org/2000/svg" xmlns:xlink="http://www.w3.org/1999/xlink" width="48pt" height="48pt" viewBox="0 0 48 48" version="1.1">
<g id="surface1">
<path style=" stroke:none;fill-rule:nonzero;fill:rgb(0%,0%,0%);fill-opacity:1;" d="M 27.605469 25.25 L 26.46875 23.203125 C 26.351562 22.988281 26.148438 22.988281 26.03125 23.203125 L 21.710938 30.980469 C 21.832031 30.988281 21.957031 31 22.078125 31 L 24.414062 31 Z M 40 31 L 40 33 L 36.914062 33 L 31.46875 23.203125 C 31.351562 22.988281 31.148438 22.988281 31.03125 23.203125 L 29.894531 25.25 L 33.085938 31 L 35 31 L 35 33 L 31.914062 33 L 28.75 27.308594 L 25.585938 33 L 22.078125 33 C 19.75 33 17.554688 32.050781 16.0625 30.394531 C 14.71875 28.898438 14.089844 27.003906 14.292969 25.050781 C 14.578125 22.316406 16.660156 19.929688 19.597656 18.972656 C 19.835938 18.890625 25.808594 16.714844 25.808594 16.714844 C 25.898438 16.671875 26 16.539062 26 16.398438 C 26 16.183594 25.753906 16 25.464844 16 L 22.984375 16 L 22.984375 14 L 25.464844 14 C 26.863281 14 28 15.078125 28 16.398438 C 28 17.316406 27.4375 18.167969 26.570312 18.5625 C 25.058594 19.117188 20.367188 20.824219 20.21875 20.871094 C 18.03125 21.585938 16.488281 23.308594 16.28125 25.257812 C 16.136719 26.640625 16.585938 27.988281 17.550781 29.054688 C 18.132812 29.699219 18.859375 30.195312 19.671875 30.527344 L 24.285156 22.230469 C 24.679688 21.519531 25.433594 21.074219 26.25 21.074219 C 27.066406 21.074219 27.820312 21.519531 28.214844 22.230469 L 28.75 23.191406 L 29.285156 22.230469 C 29.679688 21.519531 30.433594 21.074219 31.25 21.074219 C 32.066406 21.074219 32.820312 21.519531 33.214844 22.230469 L 38.085938 31 Z M 15.507812 18.671875 L 12.34375 16.792969 L 12.25 16.746094 C 12.085938 16.671875 11.984375 16.539062 11.984375 16.398438 C 11.984375 16.183594 12.230469 16 12.519531 16 L 15 16 L 15 14 L 12.519531 14 C 11.121094 14 9.984375 15.078125 9.984375 16.398438 C 9.984375 17.296875 10.523438 18.132812 11.363281 18.539062 L 14.492188 20.394531 Z M 17 15 C 17 13.894531 17.894531 13 19 13 C 20.105469 13 21 13.894531 21 15 C 21 16.105469 20.105469 17 19 17 C 17.894531 17 17 16.105469 17 15 "/>
</g>
</svg>
