<?xml version="1.0" encoding="UTF-8"?>
<svg xmlns="http://www.w3.org/2000/svg" xmlns:xlink="http://www.w3.org/1999/xlink" width="48pt" height="48pt" viewBox="0 0 48 48" version="1.1">
<g id="surface1">
<path style=" stroke:none;fill-rule:nonzero;fill:rgb(0%,0%,0%);fill-opacity:1;" d="M 36 20.441406 C 36 19.539062 35.601562 18.691406 34.902344 18.121094 C 34.203125 17.546875 33.296875 17.316406 32.480469 17.488281 L 20.6875 19.03125 L 7 26.402344 L 7 30 L 9 30 L 9 27.597656 L 10 27.058594 L 10 30 L 12 30 L 12 26 L 11.96875 26 L 21.3125 20.96875 L 30 19.828125 L 30 31 L 33 31 L 33 29 L 32 29 L 32 19.566406 L 32.804688 19.460938 C 33.097656 19.402344 33.398438 19.472656 33.632812 19.667969 C 33.867188 19.855469 34 20.136719 34 20.441406 L 34 31 L 37 31 L 37 29 L 36 29 Z M 41 18 C 41 19.105469 40.105469 20 39 20 C 37.894531 20 37 19.105469 37 18 C 37 16.894531 37.894531 16 39 16 C 40.105469 16 41 16.894531 41 18 "/>
</g>
</svg>
