<?xml version="1.0" encoding="UTF-8"?>
<svg xmlns="http://www.w3.org/2000/svg" xmlns:xlink="http://www.w3.org/1999/xlink" width="48pt" height="48pt" viewBox="0 0 48 48" version="1.1">
<g id="surface1">
<path style=" stroke:none;fill-rule:nonzero;fill:rgb(0%,0%,0%);fill-opacity:1;" d="M 24 28 C 24.339844 28 24.675781 28.027344 25 28.078125 L 25 22.222656 L 17.3125 29.910156 C 18.402344 30.074219 19.609375 29.847656 20.363281 29.226562 C 21.328125 28.4375 22.617188 28 24 28 M 42 30 L 42 32 C 40.617188 32 39.328125 31.5625 38.363281 30.773438 C 37.171875 29.789062 34.828125 29.789062 33.636719 30.773438 C 32.671875 31.5625 31.382812 32 30 32 C 28.617188 32 27.328125 31.5625 26.363281 30.773438 C 25.171875 29.789062 22.828125 29.789062 21.636719 30.773438 C 20.671875 31.5625 19.382812 32 18 32 C 16.617188 32 15.328125 31.5625 14.363281 30.773438 C 13.171875 29.789062 10.828125 29.789062 9.636719 30.773438 C 8.671875 31.5625 7.382812 32 6 32 L 6 30 C 6.90625 30 7.769531 29.71875 8.363281 29.226562 C 9.328125 28.4375 10.617188 28 12 28 C 13.257812 28 14.425781 28.378906 15.355469 29.039062 L 27.292969 17.101562 C 27.300781 17.097656 27.304688 17.09375 27.308594 17.089844 C 28.710938 15.742188 30.554688 15 32.5 15 L 39 15 L 39 17 L 32.5 17 C 31.074219 17 29.722656 17.542969 28.691406 18.53125 C 27.601562 19.578125 27 20.988281 27 22.5 L 27 28.800781 C 27.222656 28.929688 27.4375 29.066406 27.636719 29.226562 C 28.828125 30.210938 31.171875 30.210938 32.363281 29.226562 C 33.328125 28.4375 34.617188 28 36 28 C 37.382812 28 38.671875 28.4375 39.636719 29.226562 C 40.230469 29.71875 41.09375 30 42 30 M 33.414062 20.585938 C 34.195312 21.367188 34.195312 22.632812 33.414062 23.414062 C 32.632812 24.195312 31.367188 24.195312 30.585938 23.414062 C 29.804688 22.632812 29.804688 21.367188 30.585938 20.585938 C 31.367188 19.804688 32.632812 19.804688 33.414062 20.585938 "/>
</g>
</svg>
