<?xml version="1.0" encoding="UTF-8"?>
<svg xmlns="http://www.w3.org/2000/svg" xmlns:xlink="http://www.w3.org/1999/xlink" width="48pt" height="48pt" viewBox="0 0 48 48" version="1.1">
<g id="surface1">
<path style=" stroke:none;fill-rule:nonzero;fill:rgb(0%,0%,0%);fill-opacity:1;" d="M 17 31 C 17 28.792969 15.203125 27 13 27 C 10.796875 27 9 28.792969 9 31 C 9 33.207031 10.796875 35 13 35 C 15.203125 35 17 33.207031 17 31 M 19 31 C 19 34.308594 16.308594 37 13 37 C 9.691406 37 7 34.308594 7 31 C 7 27.691406 9.691406 25 13 25 C 16.308594 25 19 27.691406 19 31 M 39 31 C 39 28.792969 37.203125 27 35 27 C 34.261719 27 33.574219 27.214844 32.980469 27.566406 L 35.707031 30.292969 L 34.292969 31.707031 L 31.566406 28.980469 C 31.214844 29.574219 31 30.261719 31 31 C 31 33.207031 32.796875 35 35 35 C 37.203125 35 39 33.207031 39 31 M 22.5 15 C 22.433594 14.671875 22.382812 14.339844 22.355469 14 L 20.667969 14 L 16.433594 18.019531 L 17.957031 19.542969 Z M 41 31 C 41 34.308594 38.308594 37 35 37 C 31.691406 37 29 34.308594 29 31 C 29 29.707031 29.414062 28.511719 30.113281 27.527344 L 29 26.414062 L 29 20.929688 C 27.394531 20.722656 25.894531 20.03125 24.707031 18.921875 C 24.117188 18.371094 23.640625 17.742188 23.265625 17.066406 L 19.371094 20.957031 L 23 24.585938 L 23 33 L 21 33 L 21 25.414062 L 13.566406 17.980469 L 19.867188 12 L 24.34375 12 L 24.34375 13.5 C 24.34375 15.007812 24.957031 16.414062 26.074219 17.460938 C 27.132812 18.453125 28.527344 19 30 19 L 33 19 L 33 21 L 31 21 L 31 25.585938 L 31.527344 26.113281 C 32.511719 25.414062 33.707031 25 35 25 C 38.308594 25 41 27.691406 41 31 M 27.585938 13.414062 C 26.804688 12.632812 26.804688 11.367188 27.585938 10.585938 C 28.367188 9.804688 29.632812 9.804688 30.414062 10.585938 C 31.195312 11.367188 31.195312 12.632812 30.414062 13.414062 C 29.632812 14.195312 28.367188 14.195312 27.585938 13.414062 "/>
</g>
</svg>
