<?xml version="1.0" encoding="UTF-8"?>
<svg xmlns="http://www.w3.org/2000/svg" xmlns:xlink="http://www.w3.org/1999/xlink" width="48pt" height="48pt" viewBox="0 0 48 48" version="1.1">
<g id="surface1">
<path style=" stroke:none;fill-rule:nonzero;fill:rgb(0%,0%,0%);fill-opacity:1;" d="M 18.683594 20.097656 L 25 26.414062 L 31.414062 20 L 39 20 L 39 18 L 30.585938 18 L 25 23.585938 L 20.019531 18.605469 L 22 16.378906 L 22 9 L 20 9 L 20 15.621094 L 16.050781 20.050781 C 14.734375 21.371094 14.046875 23.097656 14.121094 24.917969 C 14.195312 26.679688 14.964844 28.378906 16.292969 29.707031 L 21.292969 34.707031 L 22.707031 33.292969 L 17.707031 28.292969 C 16.734375 27.320312 16.171875 26.09375 16.121094 24.835938 C 16.105469 24.4375 16.160156 24.046875 16.25 23.664062 L 22.585938 30 L 30.585938 30 L 36.292969 35.707031 L 37.707031 34.292969 L 31.414062 28 L 23.414062 28 L 17.203125 21.789062 C 17.304688 21.667969 17.386719 21.539062 17.503906 21.421875 Z M 15.414062 18.414062 C 14.632812 19.195312 13.367188 19.195312 12.585938 18.414062 C 11.804688 17.632812 11.804688 16.367188 12.585938 15.585938 C 13.367188 14.804688 14.632812 14.804688 15.414062 15.585938 C 16.195312 16.367188 16.195312 17.632812 15.414062 18.414062 "/>
</g>
</svg>
