<?xml version="1.0" encoding="UTF-8"?>
<svg xmlns="http://www.w3.org/2000/svg" xmlns:xlink="http://www.w3.org/1999/xlink" width="48pt" height="48pt" viewBox="0 0 48 48" version="1.1">
<g id="surface1">
<path style=" stroke:none;fill-rule:nonzero;fill:rgb(0%,0%,0%);fill-opacity:1;" d="M 38 29 L 36 29 L 36 34 L 38 34 Z M 38 35 L 36 35 L 36 37 L 38 37 Z M 44 33 C 44 36.871094 40.871094 40 37 40 C 33.128906 40 30 36.871094 30 33 C 30 31.949219 30.230469 30.949219 30.648438 30.058594 L 30.589844 30 L 22.589844 30 L 16.25 23.660156 C 16.160156 24.050781 16.101562 24.441406 16.121094 24.839844 C 16.171875 26.089844 16.738281 27.320312 17.710938 28.289062 L 22.710938 33.289062 L 21.289062 34.710938 L 16.289062 29.710938 C 14.96875 28.378906 14.191406 26.679688 14.121094 24.921875 C 14.050781 23.101562 14.730469 21.371094 16.050781 20.050781 L 20 15.621094 L 20 9 L 22 9 L 22 16.378906 L 20.019531 18.601562 L 25 23.589844 L 30.589844 18 L 39 18 L 39 20 L 31.410156 20 L 25 26.410156 L 18.679688 20.101562 L 17.5 21.421875 C 17.390625 21.539062 17.300781 21.671875 17.199219 21.789062 L 23.410156 28 L 31.410156 28 L 31.769531 28.359375 C 33.039062 26.910156 34.910156 26 37 26 C 40.871094 26 44 29.128906 44 33 M 15.410156 18.410156 C 14.628906 19.199219 13.371094 19.199219 12.589844 18.410156 C 11.800781 17.628906 11.800781 16.371094 12.589844 15.589844 C 13.371094 14.800781 14.628906 14.800781 15.410156 15.589844 C 16.199219 16.371094 16.199219 17.628906 15.410156 18.410156 "/>
</g>
</svg>
