<?xml version="1.0" encoding="UTF-8"?>
<svg xmlns="http://www.w3.org/2000/svg" xmlns:xlink="http://www.w3.org/1999/xlink" width="48pt" height="48pt" viewBox="0 0 48 48" version="1.1">
<g id="surface1">
<path style=" stroke:none;fill-rule:nonzero;fill:rgb(0%,0%,0%);fill-opacity:1;" d="M 20.097656 29.316406 L 26.414062 23 L 20 16.585938 L 20 9 L 18 9 L 18 17.414062 L 23.585938 23 L 18.605469 27.980469 L 16.382812 26 L 9 26 L 9 28 L 15.617188 28 L 20.050781 31.949219 C 21.367188 33.265625 23.097656 33.953125 24.921875 33.878906 C 26.679688 33.804688 28.378906 33.035156 29.707031 31.707031 L 34.707031 26.707031 L 33.292969 25.292969 L 28.292969 30.292969 C 27.320312 31.265625 26.09375 31.828125 24.839844 31.878906 C 24.4375 31.894531 24.046875 31.839844 23.664062 31.75 L 30 25.414062 L 30 17.414062 L 35.707031 11.707031 L 34.292969 10.292969 L 28 16.585938 L 28 24.585938 L 21.789062 30.796875 C 21.667969 30.695312 21.539062 30.613281 21.425781 30.496094 Z M 18.414062 32.585938 C 19.195312 33.367188 19.195312 34.632812 18.414062 35.414062 C 17.632812 36.195312 16.367188 36.195312 15.585938 35.414062 C 14.804688 34.632812 14.804688 33.367188 15.585938 32.585938 C 16.367188 31.804688 17.632812 31.804688 18.414062 32.585938 "/>
</g>
</svg>
