<?xml version="1.0" encoding="UTF-8"?>
<svg xmlns="http://www.w3.org/2000/svg" xmlns:xlink="http://www.w3.org/1999/xlink" width="48pt" height="48pt" viewBox="0 0 48 48" version="1.1">
<g id="surface1">
<path style=" stroke:none;fill-rule:nonzero;fill:rgb(0%,0%,0%);fill-opacity:1;" d="M 23 36 L 21 36 L 21 40 L 23 40 Z M 27 36 L 25 36 L 25 40 L 27 40 Z M 25 15.101562 C 24.675781 15.035156 24.34375 15 24 15 C 23.65625 15 23.324219 15.035156 23 15.101562 L 23 33 L 25 33 Z M 15 29 L 15 31 C 15 32.824219 16.535156 32.992188 17 33 L 21 33 L 21 16.023438 C 19.792969 16.9375 19 18.371094 19 20 L 19 26 L 17 26 L 17 20 C 17 16.140625 20.140625 13 24 13 C 27.859375 13 31 16.140625 31 20 L 31 26 L 29 26 L 29 20 C 29 18.371094 28.207031 16.9375 27 16.023438 L 27 33 L 31 33 C 31.335938 33 33 32.902344 33 31 L 33 30.035156 L 30.960938 30.035156 L 34 27 L 37.035156 30.035156 L 35 30.035156 L 35 31 C 35 33.933594 32.609375 35 31 35 L 17 35 C 15.390625 35 13 33.933594 13 31 L 13 29 Z M 24 12 C 22.894531 12 22 11.105469 22 10 C 22 8.894531 22.894531 8 24 8 C 25.105469 8 26 8.894531 26 10 C 26 11.105469 25.105469 12 24 12 "/>
</g>
</svg>
