<?xml version="1.0" encoding="UTF-8"?>
<svg xmlns="http://www.w3.org/2000/svg" xmlns:xlink="http://www.w3.org/1999/xlink" width="48pt" height="48pt" viewBox="0 0 48 48" version="1.1">
<g id="surface1">
<path style=" stroke:none;fill-rule:nonzero;fill:rgb(0%,0%,0%);fill-opacity:1;" d="M 37.039062 30.035156 L 34 27 L 30.960938 30.035156 L 33 30.035156 L 33 31 C 33 32.824219 31.464844 32.992188 31 33 L 26 33 L 26 15.5 C 26 14.121094 24.878906 13 23.5 13 C 22.121094 13 21 14.121094 21 15.5 L 21 26 L 23 26 L 23 15.5 C 23 15.222656 23.222656 15 23.5 15 C 23.777344 15 24 15.222656 24 15.5 L 24 33 L 14 33 L 14 35 L 31 35 C 32.609375 35 35 33.933594 35 31 L 35 30.035156 Z M 24 40 L 26 40 L 26 36 L 24 36 Z M 22 10 C 22 8.894531 22.894531 8 24 8 C 25.105469 8 26 8.894531 26 10 C 26 11.105469 25.105469 12 24 12 C 22.894531 12 22 11.105469 22 10 "/>
</g>
</svg>
