<?xml version="1.0" encoding="UTF-8"?>
<svg xmlns="http://www.w3.org/2000/svg" xmlns:xlink="http://www.w3.org/1999/xlink" width="48pt" height="48pt" viewBox="0 0 48 48" version="1.1">
<g id="surface1">
<path style=" stroke:none;fill-rule:nonzero;fill:rgb(0%,0%,0%);fill-opacity:1;" d="M 24 33 L 24 15.5 C 24 15.226562 24.222656 15 24.5 15 C 24.777344 15 25 15.226562 25 15.5 L 25 26 L 27 26 L 27 15.5 C 27 14.121094 25.878906 13 24.5 13 C 23.121094 13 22 14.121094 22 15.5 L 22 33 L 17 33 C 16.664062 33 15 32.902344 15 31 L 15 30.035156 L 17.035156 30.035156 L 14 27 L 10.960938 30.035156 L 13 30.035156 L 13 31 C 13 33.933594 15.390625 35 17 35 L 34 35 L 34 33 Z M 22 40 L 24 40 L 24 36 L 22 36 Z M 22 10 C 22 8.894531 22.894531 8 24 8 C 25.105469 8 26 8.894531 26 10 C 26 11.105469 25.105469 12 24 12 C 22.894531 12 22 11.105469 22 10 "/>
</g>
</svg>
