<?xml version="1.0" encoding="UTF-8"?>
<svg xmlns="http://www.w3.org/2000/svg" xmlns:xlink="http://www.w3.org/1999/xlink" width="48pt" height="48pt" viewBox="0 0 48 48" version="1.1">
<g id="surface1">
<path style=" stroke:none;fill-rule:nonzero;fill:rgb(0%,0%,0%);fill-opacity:1;" d="M 24 12 C 25.105469 12 26 11.105469 26 10 C 26 8.894531 25.105469 8 24 8 C 22.894531 8 22 8.894531 22 10 C 22 11.105469 22.894531 12 24 12 "/>
<path style=" stroke:none;fill-rule:nonzero;fill:rgb(0%,0%,0%);fill-opacity:1;" d="M 24 13 L 12 13 L 12 15 L 21 15 L 21 40 L 23 40 L 23 15 L 24 15 C 24.34375 15 24.675781 15.035156 25 15.101562 L 25 40 L 27 40 L 27 16.023438 C 28.207031 16.9375 29 18.371094 29 20 L 29 26 L 31 26 L 31 20 C 31 16.140625 27.859375 13 24 13 "/>
</g>
</svg>
