<?xml version="1.0" encoding="UTF-8"?>
<svg xmlns="http://www.w3.org/2000/svg" xmlns:xlink="http://www.w3.org/1999/xlink" width="48pt" height="48pt" viewBox="0 0 48 48" version="1.1">
<g id="surface1">
<path style=" stroke:none;fill-rule:nonzero;fill:rgb(0%,0%,0%);fill-opacity:1;" d="M 31 20 C 31 18.128906 30.269531 16.371094 28.949219 15.050781 L 27.535156 16.464844 C 28.480469 17.410156 29 18.664062 29 20 C 29 21.335938 28.480469 22.589844 27.535156 23.535156 C 27.371094 23.699219 27.183594 23.835938 27 23.976562 L 27 19 L 25 19 L 25 24.898438 C 24.339844 25.035156 23.660156 25.019531 23 24.886719 L 23 19 L 21 19 L 21 23.964844 C 20.816406 23.824219 20.628906 23.699219 20.464844 23.535156 C 19.519531 22.589844 19 21.335938 19 20 C 19 18.664062 19.519531 17.410156 20.464844 16.464844 L 19.050781 15.050781 C 17.730469 16.371094 17 18.128906 17 20 C 17 21.871094 17.730469 23.628906 19.050781 24.949219 C 19.621094 25.523438 20.277344 25.980469 21 26.324219 L 21 36 L 23 36 L 23 26.914062 C 23.332031 26.964844 23.664062 27 24 27 C 24.335938 27 24.667969 26.96875 25 26.921875 L 25 36 L 27 36 L 27 26.316406 C 27.722656 25.976562 28.378906 25.519531 28.949219 24.949219 C 30.269531 23.628906 31 21.871094 31 20 M 22 14 C 22 12.894531 22.894531 12 24 12 C 25.105469 12 26 12.894531 26 14 C 26 15.105469 25.105469 16 24 16 C 22.894531 16 22 15.105469 22 14 "/>
</g>
</svg>
