<?xml version="1.0" encoding="UTF-8"?>
<svg xmlns="http://www.w3.org/2000/svg" xmlns:xlink="http://www.w3.org/1999/xlink" width="48pt" height="48pt" viewBox="0 0 48 48" version="1.1">
<g id="surface1">
<path style=" stroke:none;fill-rule:nonzero;fill:rgb(0%,0%,0%);fill-opacity:1;" d="M 31 10 L 31.003906 14.722656 L 24.484375 13.089844 C 24.167969 13.011719 23.832031 13.011719 23.515625 13.089844 L 17 14.722656 L 17 10 L 15 10 L 15 14.722656 C 15 15.34375 15.277344 15.914062 15.769531 16.296875 C 16.257812 16.679688 16.878906 16.8125 17.480469 16.660156 L 21 15.78125 L 21 40 L 23 40 L 23 15.28125 L 24 15.03125 L 25 15.28125 L 25 40 L 27 40 L 27 15.78125 L 30.519531 16.660156 C 30.683594 16.699219 30.847656 16.722656 31.007812 16.722656 C 31.445312 16.722656 31.875 16.574219 32.230469 16.296875 C 32.722656 15.914062 33 15.34375 33 14.722656 L 33 10 Z M 22 10 C 22 8.894531 22.894531 8 24 8 C 25.105469 8 26 8.894531 26 10 C 26 11.105469 25.105469 12 24 12 C 22.894531 12 22 11.105469 22 10 "/>
</g>
</svg>
