<?xml version="1.0" encoding="UTF-8"?>
<svg xmlns="http://www.w3.org/2000/svg" xmlns:xlink="http://www.w3.org/1999/xlink" width="48pt" height="48pt" viewBox="0 0 48 48" version="1.1">
<g id="surface1">
<path style=" stroke:none;fill-rule:nonzero;fill:rgb(0%,0%,0%);fill-opacity:1;" d="M 29 20 C 29 18.371094 28.207031 16.9375 27 16.023438 L 27 23.996094 C 28.234375 23.070312 29 21.597656 29 20 M 21 16.023438 C 19.792969 16.9375 19 18.371094 19 20 C 19 21.597656 19.765625 23.070312 21 23.996094 Z M 27.160156 26.234375 L 29 40 L 27 40 L 25 25 L 25 15.101562 C 24.675781 15.035156 24.34375 15 24 15 C 23.65625 15 23.320312 15.035156 23 15.101562 L 22.992188 25.125 L 21 40 L 19 40 L 20.839844 26.234375 C 18.515625 25.054688 17 22.65625 17 20 C 17 16.140625 20.140625 13 24 13 C 27.859375 13 31 16.140625 31 20 C 31 22.65625 29.484375 25.054688 27.160156 26.234375 M 22 10 C 22 8.894531 22.894531 8 24 8 C 25.105469 8 26 8.894531 26 10 C 26 11.105469 25.105469 12 24 12 C 22.894531 12 22 11.105469 22 10 "/>
</g>
</svg>
