<?xml version="1.0" encoding="UTF-8"?>
<svg xmlns="http://www.w3.org/2000/svg" xmlns:xlink="http://www.w3.org/1999/xlink" width="48pt" height="48pt" viewBox="0 0 48 48" version="1.1">
<g id="surface1">
<path style=" stroke:none;fill-rule:nonzero;fill:rgb(0%,0%,0%);fill-opacity:1;" d="M 25.964844 20.449219 L 24.171875 22.246094 C 23.949219 22.46875 23.789062 22.726562 23.664062 23 L 27.59375 23 C 27.816406 23 28 22.816406 28 22.59375 C 28 22.484375 27.957031 22.378906 27.878906 22.304688 Z M 33.703125 6.710938 L 26.863281 13.550781 C 26.3125 14.25 26 15.097656 26 16.003906 C 26 17.070312 26.417969 18.078125 27.171875 18.832031 L 29.269531 20.867188 C 29.734375 21.316406 30 21.945312 30 22.59375 C 30 23.921875 28.921875 25 27.59375 25 L 23.5625 25 C 23.679688 25.371094 23.863281 25.726562 24.128906 26.042969 L 28 30.636719 L 28 40 L 26 40 L 26 31.363281 L 22.597656 27.332031 C 20.984375 25.417969 21.039062 22.574219 22.722656 20.863281 L 24.722656 18.859375 C 24.3125 18.105469 24.074219 17.265625 24.019531 16.394531 L 21.246094 19.167969 C 19.796875 20.617188 19 22.542969 19 24.589844 L 19 40 L 17 40 L 17 24.589844 C 17 22.007812 18.003906 19.582031 19.832031 17.753906 L 25.28125 12.304688 C 25.429688 12.117188 25.585938 11.933594 25.757812 11.761719 L 32.296875 5.289062 L 33 6 L 33.707031 6.707031 Z M 31.414062 14.585938 C 32.195312 15.367188 32.195312 16.632812 31.414062 17.414062 C 30.632812 18.195312 29.367188 18.195312 28.585938 17.414062 C 27.804688 16.632812 27.804688 15.367188 28.585938 14.585938 C 29.367188 13.804688 30.632812 13.804688 31.414062 14.585938 "/>
</g>
</svg>
