<?xml version="1.0" encoding="UTF-8"?>
<svg xmlns="http://www.w3.org/2000/svg" xmlns:xlink="http://www.w3.org/1999/xlink" width="48pt" height="48pt" viewBox="0 0 48 48" version="1.1">
<g id="surface1">
<path style=" stroke:none;fill-rule:nonzero;fill:rgb(0%,0%,0%);fill-opacity:1;" d="M 30.601562 21.335938 C 30.867188 20.585938 31 19.800781 31 19 C 31 15.140625 27.859375 12 24 12 C 20.140625 12 17 15.140625 17 19 C 17 19.800781 17.132812 20.585938 17.414062 21.378906 L 18.007812 22.839844 L 17 38 L 19 38 L 19.730469 27.074219 L 21.074219 30.378906 L 22.925781 29.621094 L 19.285156 20.667969 C 19.097656 20.132812 19 19.570312 19 19 C 19 16.242188 21.242188 14 24 14 C 26.757812 14 29 16.242188 29 19 C 29 19.570312 28.902344 20.132812 28.730469 20.625 L 25.074219 29.621094 L 26.925781 30.378906 L 28.269531 27.070312 L 29 38 L 31 38 L 29.992188 22.835938 Z M 24 21 C 22.894531 21 22 20.105469 22 19 C 22 17.894531 22.894531 17 24 17 C 25.105469 17 26 17.894531 26 19 C 26 20.105469 25.105469 21 24 21 "/>
</g>
</svg>
