<?xml version="1.0" encoding="UTF-8"?>
<svg xmlns="http://www.w3.org/2000/svg" xmlns:xlink="http://www.w3.org/1999/xlink" width="48pt" height="48pt" viewBox="0 0 48 48" version="1.1">
<g id="surface1">
<path style=" stroke:none;fill-rule:nonzero;fill:rgb(0%,0%,0%);fill-opacity:1;" d="M 21 16.027344 C 19.792969 16.9375 19 18.375 19 20 C 19 21.589844 19.769531 23.0625 21 23.992188 Z M 27 15 L 27 24.761719 L 30 30.761719 L 30 40 L 28 40 L 28 31.238281 L 25 25.238281 L 25 15 L 24 15 C 23.65625 15 23.324219 15.035156 23 15.101562 L 22.992188 25.132812 L 22.886719 25.875 L 19 40 L 17 40 L 20.730469 26.179688 C 18.472656 24.980469 17 22.605469 17 20 C 17 16.140625 20.140625 13 24 13 L 37 13 L 37 15 Z M 22 10 C 22 8.894531 22.894531 8 24 8 C 25.105469 8 26 8.894531 26 10 C 26 11.105469 25.105469 12 24 12 C 22.894531 12 22 11.105469 22 10 "/>
</g>
</svg>
