<?xml version="1.0" encoding="UTF-8"?>
<svg xmlns="http://www.w3.org/2000/svg" xmlns:xlink="http://www.w3.org/1999/xlink" width="48pt" height="48pt" viewBox="0 0 48 48" version="1.1">
<g id="surface1">
<path style=" stroke:none;fill-rule:nonzero;fill:rgb(0%,0%,0%);fill-opacity:1;" d="M 27 15.265625 C 28.160156 14.667969 29.160156 13.71875 29.894531 12.449219 L 32.894531 6.449219 L 31.105469 5.550781 L 28.132812 11.5 C 27.199219 13.113281 25.734375 14 24 14 C 21.558594 14 19.421875 15.277344 18.132812 17.5 L 15.082031 24.605469 L 16.917969 25.394531 L 19.894531 18.453125 C 20.207031 17.921875 20.582031 17.484375 21 17.121094 L 21 25.808594 L 15 40 L 17 40 L 23 26.191406 L 23 16.113281 C 23.324219 16.042969 23.652344 16 24 16 C 24.339844 16 24.671875 15.96875 25 15.921875 L 25 26.414062 L 30 31.414062 L 30 40 L 32 40 L 32 30.585938 L 27 25.585938 Z M 22 11 C 22 9.894531 22.894531 9 24 9 C 25.105469 9 26 9.894531 26 11 C 26 12.105469 25.105469 13 24 13 C 22.894531 13 22 12.105469 22 11 "/>
</g>
</svg>
