<?xml version="1.0" encoding="UTF-8"?>
<svg xmlns="http://www.w3.org/2000/svg" xmlns:xlink="http://www.w3.org/1999/xlink" width="48pt" height="48pt" viewBox="0 0 48 48" version="1.1">
<g id="surface1">
<path style=" stroke:none;fill-rule:nonzero;fill:rgb(0%,0%,0%);fill-opacity:1;" d="M 27 27.820312 L 27 18.3125 C 29.359375 17.1875 31 14.785156 31 12 L 31 6 L 29 6 L 29 12 C 29 14.757812 26.757812 17 24 17 C 21.242188 17 19 14.757812 19 12 L 19 6 L 17 6 L 17 12 C 17 14.785156 18.640625 17.1875 21 18.3125 L 21 27.820312 L 15.683594 40 L 17.816406 40 L 23 28.179688 L 23 18.921875 C 23.328125 18.964844 23.660156 19 24 19 C 24.339844 19 24.671875 18.964844 25 18.921875 L 25 28.179688 L 30.183594 40 L 32.316406 40 Z M 22 14 C 22 12.894531 22.894531 12 24 12 C 25.105469 12 26 12.894531 26 14 C 26 15.105469 25.105469 16 24 16 C 22.894531 16 22 15.105469 22 14 "/>
</g>
</svg>
