<?xml version="1.0" encoding="UTF-8"?>
<svg xmlns="http://www.w3.org/2000/svg" xmlns:xlink="http://www.w3.org/1999/xlink" width="48pt" height="48pt" viewBox="0 0 48 48" version="1.1">
<g id="surface1">
<path style=" stroke:none;fill-rule:nonzero;fill:rgb(0%,0%,0%);fill-opacity:1;" d="M 29 20 C 29 18.371094 28.207031 16.9375 27 16.023438 L 27 23.976562 C 28.207031 23.0625 29 21.628906 29 20 M 25 24.898438 L 25 15.101562 C 24.675781 15.035156 24.34375 15 24 15 C 23.65625 15 23.324219 15.035156 23 15.101562 L 23 24.898438 C 23.324219 24.964844 23.65625 25 24 25 C 24.34375 25 24.675781 24.964844 25 24.898438 M 21 23.976562 L 21 16.023438 C 19.792969 16.9375 19 18.371094 19 20 C 19 21.628906 19.792969 23.0625 21 23.976562 M 27 26.3125 L 27 40 L 25 40 L 25 26.921875 C 24.671875 26.96875 24.339844 27 24 27 C 23.660156 27 23.328125 26.96875 23 26.921875 L 23 40 L 21 40 L 21 26.3125 C 18.640625 25.1875 17 22.785156 17 20 C 17 16.140625 20.140625 13 24 13 C 27.859375 13 31 16.140625 31 20 C 31 22.785156 29.359375 25.1875 27 26.3125 M 22 10 C 22 8.894531 22.894531 8 24 8 C 25.105469 8 26 8.894531 26 10 C 26 11.105469 25.105469 12 24 12 C 22.894531 12 22 11.105469 22 10 "/>
</g>
</svg>
