<?xml version="1.0" encoding="UTF-8"?>
<svg xmlns="http://www.w3.org/2000/svg" xmlns:xlink="http://www.w3.org/1999/xlink" width="48pt" height="48pt" viewBox="0 0 48 48" version="1.1">
<g id="surface1">
<path style=" stroke:none;fill-rule:nonzero;fill:rgb(0%,0%,0%);fill-opacity:1;" d="M 21 17 L 27 17 L 24 19 Z M 24 20 C 18.054688 20 11.808594 21.410156 9.726562 24.050781 C 9.296875 23.304688 9 22.453125 9 21.5 C 9 16.894531 15.867188 13 24 13 C 32.132812 13 39 16.894531 39 21.5 C 39 22.453125 38.703125 23.304688 38.273438 24.050781 C 36.191406 21.410156 29.945312 20 24 20 M 11.050781 25.722656 C 11.574219 24.113281 16.503906 22 24 22 C 31.496094 22 36.425781 24.113281 36.949219 25.722656 C 36.8125 25.855469 36.679688 25.984375 36.542969 26.101562 C 33.675781 24.675781 28.726562 24 24 24 C 19.273438 24 14.324219 24.675781 11.457031 26.101562 C 11.320312 25.984375 11.1875 25.855469 11.050781 25.722656 M 24 32 C 15.421875 32 11 29.898438 11 29 C 11 28.886719 11.179688 28.566406 11.863281 28.152344 L 12.140625 27.984375 C 13.957031 27.050781 17.933594 26 24 26 C 30.066406 26 34.042969 27.050781 35.859375 27.984375 L 36.136719 28.152344 C 36.820312 28.566406 37 28.886719 37 29 C 37 29.898438 32.578125 32 24 32 M 38.867188 28.277344 C 38.824219 28.152344 38.769531 28.035156 38.703125 27.914062 C 38.671875 27.855469 38.640625 27.792969 38.605469 27.738281 C 38.523438 27.613281 38.425781 27.492188 38.320312 27.371094 C 38.289062 27.335938 38.269531 27.300781 38.238281 27.265625 C 40.050781 25.5625 41 23.585938 41 21.5 C 41 15.613281 33.53125 11 24 11 C 14.46875 11 7 15.613281 7 21.5 C 7 23.585938 7.949219 25.5625 9.761719 27.265625 C 9.730469 27.300781 9.710938 27.335938 9.679688 27.371094 C 9.574219 27.492188 9.476562 27.613281 9.394531 27.738281 C 9.359375 27.792969 9.328125 27.855469 9.296875 27.914062 C 9.230469 28.035156 9.175781 28.152344 9.132812 28.277344 C 9.113281 28.332031 9.09375 28.386719 9.078125 28.445312 C 9.03125 28.625 9 28.8125 9 29 C 9 32.4375 16.773438 34 24 34 C 31.226562 34 39 32.4375 39 29 C 39 28.8125 38.96875 28.625 38.921875 28.445312 C 38.90625 28.386719 38.886719 28.332031 38.867188 28.277344 "/>
</g>
</svg>
