<?xml version="1.0" encoding="UTF-8"?>
<svg xmlns="http://www.w3.org/2000/svg" xmlns:xlink="http://www.w3.org/1999/xlink" width="48pt" height="48pt" viewBox="0 0 48 48" version="1.1">
<g id="surface1">
<path style=" stroke:none;fill-rule:nonzero;fill:rgb(0%,0%,0%);fill-opacity:1;" d="M 37.992188 21.308594 C 37.730469 17.28125 31.4375 14.007812 23.953125 14 C 19.921875 14.007812 12.652344 14.949219 8.867188 21.148438 C 7.109375 24.023438 6.378906 27.964844 8.707031 30.292969 C 10.976562 32.566406 15.46875 31.777344 19.394531 28.417969 C 19.734375 28.132812 20.0625 27.828125 20.371094 27.515625 C 21.433594 26.453125 22.320312 24.898438 23.0625 23.523438 L 23.347656 23 L 28 23 L 28 25 L 24.535156 25 C 24.167969 25.660156 23.769531 26.34375 23.332031 27 L 36.539062 27 L 37.953125 21.617188 C 37.984375 21.496094 37.996094 21.390625 37.992188 21.308594 M 36.03125 29 L 21.710938 29 C 21.382812 29.328125 21.035156 29.648438 20.6875 29.941406 C 20.222656 30.339844 19.746094 30.695312 19.265625 31.03125 L 36 31.03125 Z M 39.988281 21.179688 C 40.007812 21.476562 39.972656 21.796875 39.886719 22.125 L 38 29.304688 L 38 33.03125 L 15.308594 33.03125 C 14.210938 33.378906 13.136719 33.5625 12.117188 33.566406 C 10.230469 33.566406 8.539062 32.957031 7.292969 31.707031 C 4.195312 28.609375 4.996094 23.648438 7.160156 20.105469 C 10.339844 14.894531 16.296875 12.019531 23.929688 12 C 23.9375 12 23.949219 12 23.960938 12 C 23.972656 12 23.988281 12 24 12 L 24 12.003906 C 32.640625 12.023438 39.65625 16.046875 39.988281 21.179688 M 31 23 L 35 23 L 35 25 L 31 25 Z M 31 23 "/>
</g>
</svg>
