<?xml version="1.0" encoding="UTF-8"?>
<svg xmlns="http://www.w3.org/2000/svg" xmlns:xlink="http://www.w3.org/1999/xlink" width="48pt" height="48pt" viewBox="0 0 48 48" version="1.1">
<g id="surface1">
<path style=" stroke:none;fill-rule:nonzero;fill:rgb(0%,0%,0%);fill-opacity:1;" d="M 33 26 L 28 26 L 28 24 L 33 24 Z M 9.355469 34 L 9.980469 32 L 38.019531 32 L 38.640625 34 Z M 33.238281 19.992188 C 33.488281 19.898438 33.761719 19.921875 34 20.050781 C 34.265625 20.195312 34.453125 20.460938 34.546875 20.859375 L 37.394531 30 L 10.597656 30 L 11.277344 27.816406 Z M 13.460938 20.777344 C 13.53125 20.460938 13.722656 20.195312 13.988281 20.050781 C 14.128906 19.976562 14.28125 19.9375 14.433594 19.9375 C 14.539062 19.9375 14.644531 19.953125 14.75 19.992188 L 20.933594 22.253906 L 12.019531 25.429688 Z M 22.429688 13 L 23 13 L 23 19 L 25 19 L 25 13 L 25.570312 13 L 30.984375 18.671875 L 23.882812 21.199219 L 17 18.6875 Z M 36.476562 20.34375 C 36.285156 19.46875 35.730469 18.722656 34.960938 18.300781 C 34.386719 17.980469 33.726562 17.878906 33.089844 17.980469 L 26.429688 11 L 21.570312 11 L 14.90625 17.984375 C 14.265625 17.878906 13.605469 17.980469 13.023438 18.300781 C 12.253906 18.722656 11.703125 19.46875 11.53125 20.265625 L 6.640625 36 L 41.359375 36 Z M 36.476562 20.34375 "/>
</g>
</svg>
