<?xml version="1.0" encoding="UTF-8"?>
<svg xmlns="http://www.w3.org/2000/svg" xmlns:xlink="http://www.w3.org/1999/xlink" width="48pt" height="48pt" viewBox="0 0 48 48" version="1.1">
<g id="surface1">
<path style=" stroke:none;fill-rule:nonzero;fill:rgb(0%,0%,0%);fill-opacity:1;" d="M 33.371094 34 L 25.273438 27.0625 L 33.191406 20.726562 C 33.460938 20.511719 33.804688 20.449219 34.136719 20.5625 C 34.464844 20.671875 34.703125 20.929688 34.796875 21.3125 L 38.652344 34 Z M 9.347656 34 L 9.957031 32 L 27.960938 32 L 30.296875 34 Z M 13.214844 21.265625 C 13.296875 20.929688 13.535156 20.671875 13.863281 20.5625 C 14.191406 20.449219 14.539062 20.511719 14.78125 20.707031 L 25.628906 30 L 10.5625 30 Z M 22.707031 12.707031 C 22.796875 12.617188 22.898438 12.539062 23 12.46875 L 23 22 L 25 22 L 25 12.464844 C 25.097656 12.53125 25.191406 12.605469 25.277344 12.691406 L 31.667969 19.386719 L 23.726562 25.738281 L 16.324219 19.394531 Z M 36.726562 20.78125 C 36.476562 19.785156 35.746094 18.996094 34.773438 18.664062 C 34.394531 18.539062 34.003906 18.511719 33.621094 18.535156 L 26.707031 11.292969 C 25.214844 9.800781 22.785156 9.800781 21.277344 11.308594 L 14.378906 18.535156 C 13.996094 18.511719 13.605469 18.539062 13.222656 18.664062 C 12.253906 18.996094 11.523438 19.785156 11.285156 20.734375 L 6.652344 36 L 41.347656 36 Z M 36.726562 20.78125 "/>
</g>
</svg>
