<?xml version="1.0" encoding="UTF-8"?>
<svg xmlns="http://www.w3.org/2000/svg" xmlns:xlink="http://www.w3.org/1999/xlink" width="48pt" height="48pt" viewBox="0 0 48 48" version="1.1">
<g id="surface1">
<path style=" stroke:none;fill-rule:nonzero;fill:rgb(0%,0%,0%);fill-opacity:1;" d="M 23 29 L 25 29 L 25 34 L 23 34 Z M 31 33.71875 L 31 30.585938 L 28.925781 28.511719 C 30.839844 28.140625 32.792969 27.527344 34.726562 26.699219 L 35.328125 26.429688 C 35.480469 26.359375 35.636719 26.285156 35.796875 26.210938 L 35.835938 26.253906 L 33.246094 33.15625 Z M 29 35.277344 L 24 36.945312 L 19 35.277344 L 19 31.414062 L 21.875 28.539062 L 22.722656 26 L 25.277344 26 L 26.125 28.539062 L 29 31.414062 Z M 14.753906 33.15625 L 12.164062 26.253906 L 12.203125 26.210938 C 12.363281 26.285156 12.519531 26.359375 12.671875 26.429688 L 13.273438 26.699219 C 15.210938 27.53125 17.160156 28.140625 19.070312 28.511719 C 19.070312 28.511719 19.074219 28.511719 19.074219 28.511719 L 17 30.585938 L 17 33.71875 Z M 24 12 C 27.03125 12 29.800781 13.339844 31.660156 15.5625 C 26.566406 13.507812 21.433594 13.507812 16.339844 15.5625 C 18.199219 13.339844 20.96875 12 24 12 M 27.382812 25.90625 L 26.949219 24.683594 L 26.707031 24 L 25 24 L 25 20 L 23 20 L 23 24 L 21.292969 24 L 21.050781 24.683594 L 21.050781 24.6875 L 20.617188 25.90625 C 20.453125 26.375 19.960938 26.652344 19.460938 26.546875 C 17.882812 26.242188 16.273438 25.761719 14.671875 25.113281 L 14.050781 24.84375 C 13.726562 24.710938 13.386719 24.558594 13 24.375 L 13 19.542969 C 13.414062 19.277344 13.839844 19.019531 14.28125 18.769531 C 20.820312 15.0625 27.175781 15.0625 33.71875 18.769531 C 34.160156 19.019531 34.585938 19.277344 35 19.542969 L 35 24.375 C 34.613281 24.558594 34.273438 24.710938 33.949219 24.84375 L 33.328125 25.109375 L 33.328125 25.113281 C 31.726562 25.761719 30.117188 26.242188 28.53125 26.550781 C 28.039062 26.652344 27.546875 26.375 27.382812 25.90625 M 38.164062 25.746094 L 37 24.585938 L 37 18.464844 L 36.554688 18.167969 C 36.046875 17.828125 35.527344 17.511719 34.992188 17.199219 C 33.089844 12.816406 28.816406 10 24 10 C 19.183594 10 14.910156 12.816406 13.007812 17.199219 C 12.472656 17.511719 11.953125 17.828125 11.445312 18.167969 L 11 18.464844 L 11 24.585938 L 9.835938 25.746094 L 13.246094 34.84375 L 17 35.78125 L 17 36.722656 L 24 39.054688 L 31 36.722656 L 31 35.78125 L 34.753906 34.84375 Z M 38.164062 25.746094 "/>
</g>
</svg>
