<?xml version="1.0" encoding="UTF-8"?>
<svg xmlns="http://www.w3.org/2000/svg" xmlns:xlink="http://www.w3.org/1999/xlink" width="48pt" height="48pt" viewBox="0 0 48 48" version="1.1">
<g id="surface1">
<path style=" stroke:none;fill-rule:nonzero;fill:rgb(0%,0%,0%);fill-opacity:1;" d="M 12.5 26 L 35.5 26 C 35.777344 26 36 25.777344 36 25.5 C 36 25.222656 35.777344 25 35.5 25 L 12.5 25 C 12.222656 25 12 25.222656 12 25.5 C 12 25.777344 12.222656 26 12.5 26 M 14 23 L 34 23 C 34 19.359375 32.078125 16.101562 29 14.335938 L 29 16 L 27 16 L 27 12.46875 C 25.027344 11.847656 22.972656 11.847656 21 12.46875 L 21 16 L 19 16 L 19 14.335938 C 15.921875 16.101562 14 19.359375 14 23 M 35.644531 35 L 33.476562 28 L 30.539062 28 L 33.648438 35 Z M 19.648438 28 L 16.539062 35 L 31.460938 35 L 28.351562 28 Z M 14.523438 28 L 12.355469 35 L 14.351562 35 L 17.460938 28 Z M 9.644531 37 L 12.433594 27.992188 C 11.085938 27.957031 10 26.855469 10 25.5 C 10 24.292969 10.859375 23.28125 12 23.050781 L 12 23 C 12 18.25 14.726562 14.046875 19 12.09375 L 19 11.074219 L 19.640625 10.828125 C 22.476562 9.730469 25.523438 9.730469 28.359375 10.828125 L 29 11.074219 L 29 12.09375 C 33.273438 14.046875 36 18.25 36 23 L 36 23.050781 C 37.140625 23.28125 38 24.292969 38 25.5 C 38 26.855469 36.914062 27.957031 35.566406 27.992188 L 38.355469 37 Z M 21 18 L 27 18 L 27 20 L 21 20 Z M 21 18 "/>
</g>
</svg>
