<?xml version="1.0" encoding="UTF-8"?>
<svg xmlns="http://www.w3.org/2000/svg" xmlns:xlink="http://www.w3.org/1999/xlink" width="48pt" height="48pt" viewBox="0 0 48 48" version="1.1">
<g id="surface1">
<path style=" stroke:none;fill-rule:nonzero;fill:rgb(0%,0%,0%);fill-opacity:1;" d="M 38 33 L 10 33 C 9.449219 33 9 32.550781 9 32 C 9 31.449219 9.449219 31 10 31 L 38 31 C 38.550781 31 39 31.449219 39 32 C 39 32.550781 38.550781 33 38 33 M 24 12 C 29.003906 12 33.347656 14.847656 35.519531 19 L 34.179688 19 C 27.425781 16.347656 20.574219 16.347656 13.820312 19 L 12.480469 19 C 14.652344 14.847656 18.996094 12 24 12 M 35 21 L 36.363281 21 C 36.574219 21.644531 36.722656 22.316406 36.828125 23 L 35 23 Z M 15 23.226562 L 15 20.6875 C 20.976562 18.453125 27.023438 18.453125 33 20.6875 L 33 23.226562 L 26.625 24.863281 L 25.605469 23.488281 C 25.226562 22.976562 24.640625 22.679688 24 22.679688 C 23.359375 22.679688 22.773438 22.976562 22.394531 23.488281 L 21.375 24.863281 Z M 13.871094 25 L 22.179688 27.136719 L 24 24.679688 L 25.820312 27.136719 L 34.128906 25 L 37 25 L 37 29 L 11 29 L 11 25 Z M 13 23 L 11.171875 23 C 11.277344 22.316406 11.425781 21.644531 11.636719 21 L 13 21 Z M 39 29.183594 L 39 25 C 39 16.730469 32.269531 10 24 10 C 15.730469 10 9 16.730469 9 25 L 9 29.183594 C 7.839844 29.597656 7 30.699219 7 32 C 7 33.652344 8.347656 35 10 35 L 38 35 C 39.652344 35 41 33.652344 41 32 C 41 30.699219 40.160156 29.597656 39 29.183594 "/>
</g>
</svg>
