<?xml version="1.0" encoding="UTF-8"?>
<svg xmlns="http://www.w3.org/2000/svg" xmlns:xlink="http://www.w3.org/1999/xlink" width="48pt" height="48pt" viewBox="0 0 48 48" version="1.1">
<g id="surface1">
<path style=" stroke:none;fill-rule:nonzero;fill:rgb(0%,0%,0%);fill-opacity:1;" d="M 27 25 L 21 25 L 21 23 L 27 23 Z M 15 27 L 13 27 L 13 25 L 15 25 Z M 38 33 L 10 33 C 9.449219 33 9 32.550781 9 32 C 9 31.449219 9.449219 31 10 31 L 38 31 C 38.550781 31 39 31.449219 39 32 C 39 32.550781 38.550781 33 38 33 M 11.636719 21 L 13 21 L 13 23 L 15 23 L 15 19 L 12.480469 19 C 14.652344 14.847656 18.996094 12 24 12 C 25.035156 12 26.035156 12.132812 27 12.363281 L 27 16 L 29 16 L 29 13.003906 C 33.691406 14.964844 37 19.601562 37 25 L 37 29 L 33 29 L 33 27 L 35 27 L 35 25 L 31 25 L 31 29 L 11 29 L 11 25 C 11 23.605469 11.226562 22.261719 11.636719 21 M 39 29.183594 L 39 25 C 39 16.730469 32.269531 10 24 10 C 15.730469 10 9 16.730469 9 25 L 9 29.183594 C 7.839844 29.597656 7 30.699219 7 32 C 7 33.652344 8.347656 35 10 35 L 38 35 C 39.652344 35 41 33.652344 41 32 C 41 30.699219 40.160156 29.597656 39 29.183594 "/>
</g>
</svg>
