<?xml version="1.0" encoding="UTF-8"?>
<svg xmlns="http://www.w3.org/2000/svg" xmlns:xlink="http://www.w3.org/1999/xlink" width="48pt" height="48pt" viewBox="0 0 48 48" version="1.1">
<g id="surface1">
<path style=" stroke:none;fill-rule:nonzero;fill:rgb(0%,0%,0%);fill-opacity:1;" d="M 38 33 L 10 33 C 9.449219 33 9 32.550781 9 32 C 9 31.449219 9.449219 31 10 31 L 38 31 C 38.550781 31 39 31.449219 39 32 C 39 32.550781 38.550781 33 38 33 M 16 14.761719 L 16 22 L 18 22 L 18 12.480469 C 19.550781 11.664062 21.261719 11.214844 23 11.082031 L 23 20 L 25 20 L 25 11.082031 C 26.738281 11.214844 28.449219 11.664062 30 12.480469 L 30 22 L 32 22 L 32 14.761719 C 35.121094 17.203125 37 20.980469 37 25 L 37 29 L 11 29 L 11 25 C 11 20.980469 12.878906 17.203125 16 14.761719 M 39 29.183594 L 39 25 C 39 19.859375 36.328125 15.058594 32 12.324219 L 32 11.316406 L 31.503906 11.027344 C 26.953125 8.375 21.046875 8.375 16.496094 11.027344 L 16 11.316406 L 16 12.324219 C 11.671875 15.058594 9 19.859375 9 25 L 9 29.183594 C 7.839844 29.597656 7 30.699219 7 32 C 7 33.652344 8.347656 35 10 35 L 38 35 C 39.652344 35 41 33.652344 41 32 C 41 30.699219 40.160156 29.597656 39 29.183594 "/>
</g>
</svg>
