<?xml version="1.0" encoding="UTF-8"?>
<svg xmlns="http://www.w3.org/2000/svg" xmlns:xlink="http://www.w3.org/1999/xlink" width="48pt" height="48pt" viewBox="0 0 48 48" version="1.1">
<g id="surface1">
<path style=" stroke:none;fill-rule:nonzero;fill:rgb(0%,0%,0%);fill-opacity:1;" d="M 38 33 L 10 33 C 9.449219 33 9 32.550781 9 32 C 9 31.449219 9.449219 31 10 31 L 38 31 C 38.550781 31 39 31.449219 39 32 C 39 32.550781 38.550781 33 38 33 M 24 12 C 29.769531 12 34.671875 15.785156 36.363281 21 L 29 21 L 29 23 L 36.828125 23 C 36.933594 23.652344 37 24.316406 37 25 L 29 25 L 29 27 L 37 27 L 37 29 L 11 29 L 11 27 L 19 27 L 19 25 L 11 25 C 11 24.316406 11.066406 23.652344 11.171875 23 L 19 23 L 19 21 L 11.636719 21 C 13.328125 15.785156 18.230469 12 24 12 M 39 29.183594 L 39 25 C 39 16.730469 32.269531 10 24 10 C 15.730469 10 9 16.730469 9 25 L 9 29.183594 C 7.839844 29.597656 7 30.699219 7 32 C 7 33.652344 8.347656 35 10 35 L 38 35 C 39.652344 35 41 33.652344 41 32 C 41 30.699219 40.160156 29.597656 39 29.183594 "/>
</g>
</svg>
