<?xml version="1.0" encoding="UTF-8"?>
<svg xmlns="http://www.w3.org/2000/svg" xmlns:xlink="http://www.w3.org/1999/xlink" width="48pt" height="48pt" viewBox="0 0 48 48" version="1.1">
<g id="surface1">
<path style=" stroke:none;fill-rule:nonzero;fill:rgb(0%,0%,0%);fill-opacity:1;" d="M 36 33.996094 L 36 30.972656 L 28.667969 28.152344 C 25.65625 26.996094 22.34375 26.992188 19.332031 28.152344 L 12 30.972656 L 12 33.996094 C 12 34.332031 12.15625 34.632812 12.433594 34.820312 C 12.710938 35.011719 13.046875 35.050781 13.359375 34.933594 L 20.050781 32.355469 C 22.597656 31.378906 25.402344 31.378906 27.949219 32.359375 L 34.640625 34.929688 C 34.953125 35.050781 35.289062 35.011719 35.566406 34.820312 C 35.84375 34.632812 36 34.332031 36 33.996094 M 12 24 L 12 28.828125 L 18.613281 26.285156 C 22.089844 24.949219 25.910156 24.949219 29.386719 26.285156 L 36 28.828125 L 36 24 C 36 17.382812 30.617188 12 24 12 C 17.382812 12 12 17.382812 12 24 M 38 24 L 38 33.996094 C 38 34.988281 37.515625 35.910156 36.699219 36.472656 C 35.882812 37.03125 34.847656 37.152344 33.921875 36.796875 L 27.230469 34.226562 C 25.148438 33.421875 22.851562 33.421875 20.769531 34.222656 L 14.078125 36.796875 C 13.726562 36.933594 13.363281 36.996094 13 36.996094 C 12.402344 36.996094 11.808594 36.820312 11.300781 36.472656 C 10.484375 35.910156 10 34.988281 10 33.996094 L 10 24 C 10 16.28125 16.28125 10 24 10 C 31.71875 10 38 16.28125 38 24 M 27 22 L 21 22 L 21 20 L 27 20 Z M 27 22 "/>
</g>
</svg>
