<?xml version="1.0" encoding="UTF-8"?>
<svg xmlns="http://www.w3.org/2000/svg" xmlns:xlink="http://www.w3.org/1999/xlink" width="48pt" height="48pt" viewBox="0 0 48 48" version="1.1">
<g id="surface1">
<path style=" stroke:none;fill-rule:nonzero;fill:rgb(0%,0%,0%);fill-opacity:1;" d="M 39 32 L 39 25 L 38 25 L 38 32 Z M 36 33.996094 L 36 30.972656 L 28.667969 28.152344 C 25.65625 26.996094 22.34375 26.992188 19.332031 28.152344 L 12 30.972656 L 12 33.996094 C 12 34.332031 12.160156 34.632812 12.433594 34.820312 C 12.710938 35.011719 13.046875 35.050781 13.359375 34.933594 L 20.050781 32.355469 C 22.597656 31.378906 25.402344 31.378906 27.949219 32.359375 L 34.640625 34.929688 C 34.953125 35.050781 35.289062 35.011719 35.566406 34.820312 C 35.839844 34.632812 36 34.332031 36 33.996094 M 9 32 L 10 32 L 10 25 L 9 25 Z M 12 24 L 12 28.828125 L 18.617188 26.285156 C 22.085938 24.949219 25.914062 24.949219 29.382812 26.285156 L 36 28.828125 L 36 24 C 36 17.382812 30.617188 12 24 12 C 17.382812 12 12 17.382812 12 24 M 41 25 L 41 32 C 41 33.101562 40.101562 34 39 34 L 38 34 C 38 34.988281 37.511719 35.910156 36.699219 36.472656 C 35.882812 37.03125 34.84375 37.152344 33.921875 36.796875 L 32.695312 36.324219 C 32.292969 37.210938 31.460938 38 30 38 L 24 38 L 24 36 L 30 36 C 30.441406 36 30.691406 35.832031 30.832031 35.609375 L 27.230469 34.226562 C 25.148438 33.421875 22.851562 33.421875 20.769531 34.222656 L 14.078125 36.796875 C 13.726562 36.933594 13.363281 36.996094 13 36.996094 C 12.402344 36.996094 11.808594 36.820312 11.300781 36.472656 C 10.488281 35.910156 10 34.988281 10 34 L 9 34 C 7.898438 34 7 33.101562 7 32 L 7 25 C 7 23.898438 7.898438 23 9 23 L 10.050781 23 C 10.566406 15.746094 16.617188 10 24 10 C 31.382812 10 37.433594 15.746094 37.949219 23 L 39 23 C 40.101562 23 41 23.898438 41 25 M 27 22 L 21 22 L 21 20 L 27 20 Z M 27 22 "/>
</g>
</svg>
