<?xml version="1.0" encoding="UTF-8"?>
<svg xmlns="http://www.w3.org/2000/svg" xmlns:xlink="http://www.w3.org/1999/xlink" width="48pt" height="48pt" viewBox="0 0 48 48" version="1.1">
<g id="surface1">
<path style=" stroke:none;fill-rule:nonzero;fill:rgb(0%,0%,0%);fill-opacity:1;" d="M 35.152344 36 L 12.847656 36 L 10.289062 20.652344 C 10.253906 20.429688 10.351562 20.273438 10.414062 20.199219 C 10.476562 20.125 10.617188 20 10.84375 20 C 11.09375 20 11.308594 20.160156 11.382812 20.398438 L 15.261719 33 L 32.738281 33 L 36.617188 20.398438 C 36.691406 20.160156 36.90625 20 37.15625 20 C 37.382812 20 37.523438 20.125 37.585938 20.199219 C 37.648438 20.273438 37.746094 20.429688 37.710938 20.652344 Z M 24 12 C 27.273438 12 30.171875 13.585938 32 16.023438 C 29.890625 14.765625 27.105469 14 24 14 C 20.894531 14 18.109375 14.765625 16 16.023438 C 17.824219 13.585938 20.726562 12 24 12 M 33.726562 23 L 31.261719 31 L 16.738281 31 L 14.277344 23 Z M 33.820312 21 L 14.179688 21 C 15.054688 18.199219 19.191406 16 24 16 C 28.808594 16 32.945312 18.199219 33.820312 21 M 39.109375 18.90625 C 38.621094 18.328125 37.910156 18 37.15625 18 C 36.53125 18 35.953125 18.226562 35.503906 18.609375 C 34.035156 13.640625 29.4375 10 24 10 C 18.5625 10 13.964844 13.640625 12.496094 18.609375 C 12.046875 18.226562 11.46875 18 10.84375 18 C 10.089844 18 9.375 18.328125 8.890625 18.90625 C 8.402344 19.480469 8.191406 20.238281 8.316406 20.984375 L 11.152344 38 L 36.847656 38 L 39.683594 20.984375 C 39.808594 20.238281 39.597656 19.480469 39.109375 18.90625 "/>
</g>
</svg>
