<?xml version="1.0" encoding="UTF-8"?>
<svg xmlns="http://www.w3.org/2000/svg" xmlns:xlink="http://www.w3.org/1999/xlink" width="48pt" height="48pt" viewBox="0 0 48 48" version="1.1">
<g id="surface1">
<path style=" stroke:none;fill-rule:nonzero;fill:rgb(0%,0%,0%);fill-opacity:1;" d="M 36 36 L 12 36 L 12 24 C 12 22.648438 12.972656 21.578125 13.785156 20.917969 L 13.792969 20.914062 C 13.855469 20.863281 13.933594 20.816406 14 20.765625 L 14 34 L 34 34 L 34 20.765625 C 34.066406 20.816406 34.144531 20.863281 34.207031 20.914062 L 34.214844 20.917969 C 35.027344 21.578125 36 22.648438 36 24 Z M 24 12 C 28.03125 12 31.550781 14.367188 33.125 17.894531 C 30.632812 16.6875 27.402344 16 24 16 C 20.597656 16 17.367188 16.6875 14.875 17.894531 C 16.449219 14.367188 19.96875 12 24 12 M 32 28 L 16 28 L 16 19.578125 C 18.175781 18.574219 20.992188 18 24 18 C 27.007812 18 29.824219 18.574219 32 19.578125 Z M 16 30 L 32 30 L 32 32 L 16 32 Z M 35.746094 19.605469 C 34.621094 14.019531 29.746094 10 24 10 C 18.253906 10 13.378906 14.019531 12.253906 19.605469 C 10.785156 20.894531 10 22.40625 10 24 L 10 38 L 38 38 L 38 24 C 38 22.40625 37.214844 20.894531 35.746094 19.605469 "/>
</g>
</svg>
