<?xml version="1.0" encoding="UTF-8"?>
<svg xmlns="http://www.w3.org/2000/svg" xmlns:xlink="http://www.w3.org/1999/xlink" width="48pt" height="48pt" viewBox="0 0 48 48" version="1.1">
<g id="surface1">
<path style=" stroke:none;fill-rule:nonzero;fill:rgb(0%,0%,0%);fill-opacity:1;" d="M 37 32 L 35 32 L 35 27 L 13 27 L 13 32 L 11 32 L 11 26 C 11 25.316406 11.066406 24.652344 11.171875 24 L 36.828125 24 C 36.933594 24.652344 37 25.316406 37 26 Z M 33 32.308594 C 30.34375 33.300781 27.671875 33.851562 25 33.964844 L 25 31 L 23 31 L 23 33.964844 C 20.328125 33.851562 17.65625 33.300781 15 32.308594 L 15 29 L 33 29 Z M 24 13 C 29.773438 13 34.671875 16.785156 36.363281 22 L 11.636719 22 C 13.328125 16.785156 18.226562 13 24 13 M 39 26 C 39 17.730469 32.269531 11 24 11 C 15.730469 11 9 17.730469 9 26 L 9 34 L 13.820312 34 C 17.195312 35.324219 20.597656 35.992188 24 35.992188 C 27.402344 35.992188 30.804688 35.324219 34.179688 34 L 39 34 Z M 39 26 "/>
</g>
</svg>
