<?xml version="1.0" encoding="UTF-8"?>
<svg xmlns="http://www.w3.org/2000/svg" xmlns:xlink="http://www.w3.org/1999/xlink" width="48pt" height="48pt" viewBox="0 0 48 48" version="1.1">
<g id="surface1">
<path style=" stroke:none;fill-rule:nonzero;fill:rgb(0%,0%,0%);fill-opacity:1;" d="M 34 26 L 14 26 L 14 24 L 34 24 Z M 35.089844 33.332031 C 27.730469 36.863281 20.269531 36.863281 12.910156 33.332031 L 11.164062 22 L 36.835938 22 Z M 24 12 C 28.945312 12 33.253906 15.355469 34.570312 20 L 13.429688 20 C 14.746094 15.355469 19.054688 12 24 12 M 36.644531 20 C 35.28125 14.226562 30.035156 10 24 10 C 17.964844 10 12.71875 14.226562 11.355469 20 L 8.835938 20 L 11.089844 34.664062 L 11.554688 34.894531 C 15.683594 36.960938 19.839844 37.992188 24 37.992188 C 28.160156 37.992188 32.316406 36.960938 36.445312 34.894531 L 36.910156 34.664062 L 39.164062 20 Z M 36.644531 20 "/>
</g>
</svg>
