<?xml version="1.0" encoding="UTF-8"?>
<svg xmlns="http://www.w3.org/2000/svg" xmlns:xlink="http://www.w3.org/1999/xlink" width="48pt" height="48pt" viewBox="0 0 48 48" version="1.1">
<g id="surface1">
<path style=" stroke:none;fill-rule:nonzero;fill:rgb(0%,0%,0%);fill-opacity:1;" d="M 18.5 18 L 29.5 18 C 30.878906 18 32 19.121094 32 20.5 C 32 21.878906 30.878906 23 29.5 23 L 26.679688 23 L 26.320312 22.109375 C 25.9375 21.15625 25.027344 20.539062 24 20.539062 C 22.972656 20.539062 22.0625 21.15625 21.679688 22.109375 L 21.324219 23 L 18.5 23 C 17.121094 23 16 21.878906 16 20.5 C 16 19.121094 17.121094 18 18.5 18 M 18.5 25 L 21.324219 25 C 22.144531 25 22.875 24.507812 23.179688 23.742188 L 23.535156 22.855469 C 23.648438 22.570312 23.898438 22.539062 24 22.539062 C 24.101562 22.539062 24.351562 22.570312 24.464844 22.855469 L 24.820312 23.742188 C 25.125 24.507812 25.855469 25 26.675781 25 L 29.5 25 C 31.980469 25 34 22.980469 34 20.5 C 34 18.019531 31.980469 16 29.5 16 L 18.5 16 C 16.019531 16 14 18.019531 14 20.5 C 14 22.980469 16.019531 25 18.5 25 M 36.878906 30.707031 L 32.707031 34.878906 C 32.316406 35.269531 31.683594 35.269531 31.292969 34.878906 L 30.414062 34 L 36 28.414062 L 36.878906 29.292969 C 37.066406 29.480469 37.171875 29.734375 37.171875 30 C 37.171875 30.265625 37.066406 30.519531 36.878906 30.707031 M 24 38 C 22.347656 38 21 36.652344 21 35 C 21 33.347656 22.347656 32 24 32 C 25.652344 32 27 33.347656 27 35 C 27 36.652344 25.652344 38 24 38 M 16.707031 34.878906 C 16.316406 35.269531 15.683594 35.269531 15.292969 34.878906 L 11.121094 30.707031 C 10.933594 30.519531 10.828125 30.265625 10.828125 30 C 10.828125 29.734375 10.933594 29.480469 11.121094 29.292969 L 12 28.414062 L 17.585938 34 Z M 23 11.058594 L 23 13 L 25 13 L 25 11.046875 C 27.507812 11.265625 29.875 12.351562 31.707031 14.148438 C 33.828125 16.234375 35 19.023438 35 22 L 35 26.585938 L 29 32.585938 L 29 28 L 27 28 L 27 31.023438 C 26.160156 30.390625 25.128906 30 24 30 C 22.871094 30 21.839844 30.390625 21 31.023438 L 21 28 L 19 28 L 19 32.585938 L 13 26.585938 L 13 22.398438 C 13 16.5 17.417969 11.585938 23 11.058594 M 38.292969 27.878906 L 37 26.585938 L 37 22 C 37 18.480469 35.617188 15.1875 33.105469 12.722656 C 30.597656 10.257812 27.289062 8.941406 23.757812 9.003906 C 16.722656 9.132812 11 15.140625 11 22.398438 L 11 26.585938 L 9.707031 27.878906 C 9.140625 28.445312 8.828125 29.199219 8.828125 30 C 8.828125 30.800781 9.140625 31.554688 9.707031 32.121094 L 13.878906 36.292969 C 14.464844 36.878906 15.230469 37.171875 16 37.171875 C 16.769531 37.171875 17.535156 36.878906 18.121094 36.292969 L 19 35.414062 L 19.046875 35.460938 C 19.28125 38 21.398438 40 24 40 C 26.601562 40 28.71875 38 28.953125 35.460938 L 29 35.414062 L 29.878906 36.292969 C 30.464844 36.878906 31.230469 37.171875 32 37.171875 C 32.769531 37.171875 33.535156 36.878906 34.121094 36.292969 L 38.292969 32.121094 C 38.859375 31.554688 39.171875 30.800781 39.171875 30 C 39.171875 29.199219 38.859375 28.445312 38.292969 27.878906 "/>
</g>
</svg>
