<?xml version="1.0" encoding="UTF-8"?>
<svg xmlns="http://www.w3.org/2000/svg" xmlns:xlink="http://www.w3.org/1999/xlink" width="48pt" height="48pt" viewBox="0 0 48 48" version="1.1">
<g id="surface1">
<path style=" stroke:none;fill-rule:nonzero;fill:rgb(0%,0%,0%);fill-opacity:1;" d="M 26.320312 22.109375 C 25.9375 21.15625 25.027344 20.539062 24 20.539062 C 22.972656 20.539062 22.058594 21.15625 21.679688 22.109375 L 21.324219 23 L 18.5 23 C 17.121094 23 16 21.878906 16 20.5 C 16 19.121094 17.121094 18 18.5 18 L 29.5 18 C 30.878906 18 32 19.121094 32 20.5 C 32 21.878906 30.878906 23 29.5 23 L 26.675781 23 Z M 34 20.5 C 34 18.019531 31.980469 16 29.5 16 L 18.5 16 C 16.019531 16 14 18.019531 14 20.5 C 14 22.980469 16.019531 25 18.5 25 L 21.324219 25 C 22.144531 25 22.875 24.507812 23.179688 23.742188 L 23.535156 22.851562 C 23.648438 22.570312 23.898438 22.539062 24 22.539062 C 24.101562 22.539062 24.351562 22.570312 24.464844 22.855469 L 24.820312 23.742188 C 25.125 24.507812 25.851562 25 26.675781 25 L 29.5 25 C 31.980469 25 34 22.980469 34 20.5 "/>
<path style=" stroke:none;fill-rule:nonzero;fill:rgb(0%,0%,0%);fill-opacity:1;" d="M 36 36.410156 L 33.589844 34 L 32.789062 33.210938 L 34.210938 31.789062 L 35 32.589844 L 36 33.589844 L 39.128906 30.449219 L 40.289062 29.289062 L 41.710938 30.710938 Z M 29 32.589844 L 29 28 L 27 28 L 27 31.03125 C 26.160156 30.390625 25.128906 30 24 30 C 22.871094 30 21.839844 30.390625 21 31.03125 L 21 28 L 19 28 L 19 32.589844 L 13 26.589844 L 13 22.398438 C 13 16.5 17.421875 11.578125 23 11.058594 L 23 13 L 25 13 L 25 11.039062 C 27.519531 11.257812 29.871094 12.351562 31.710938 14.148438 C 33.828125 16.238281 35 19.019531 35 22 L 35 26.289062 C 32.609375 27 30.75 28.949219 30.1875 31.398438 Z M 24 38 C 22.351562 38 21 36.648438 21 35 C 21 33.351562 22.351562 32 24 32 C 25.648438 32 27 33.351562 27 35 C 27 36.648438 25.648438 38 24 38 M 16.710938 34.878906 C 16.320312 35.269531 15.679688 35.269531 15.289062 34.878906 L 11.121094 30.710938 C 10.929688 30.519531 10.828125 30.269531 10.828125 30 C 10.828125 29.730469 10.929688 29.480469 11.121094 29.289062 L 12 28.410156 L 17.589844 34 Z M 37 26 L 37 22 C 37 18.480469 35.621094 15.191406 33.109375 12.71875 C 30.601562 10.257812 27.269531 8.941406 23.761719 9 C 16.71875 9.128906 11 15.140625 11 22.398438 L 11 26.589844 L 9.710938 27.878906 C 9.140625 28.449219 8.828125 29.199219 8.828125 30 C 8.828125 30.800781 9.140625 31.550781 9.710938 32.121094 L 13.878906 36.289062 C 14.460938 36.878906 15.230469 37.167969 16 37.167969 C 16.769531 37.167969 17.539062 36.878906 18.121094 36.289062 L 19 35.410156 L 19.050781 35.460938 C 19.28125 38 21.398438 40 24 40 C 26.601562 40 28.71875 38 28.949219 35.460938 L 29 35.410156 L 29.878906 36.289062 C 30.289062 36.710938 30.789062 36.96875 31.328125 37.101562 C 32.601562 38.859375 34.660156 40 37 40 C 40.871094 40 44 36.871094 44 33 C 44 29.128906 40.871094 26 37 26 "/>
</g>
</svg>
