<?xml version="1.0" encoding="UTF-8"?>
<svg xmlns="http://www.w3.org/2000/svg" xmlns:xlink="http://www.w3.org/1999/xlink" width="48pt" height="48pt" viewBox="0 0 48 48" version="1.1">
<g id="surface1">
<path style=" stroke:none;fill-rule:nonzero;fill:rgb(0%,0%,0%);fill-opacity:1;" d="M 16.929688 18.34375 L 13.394531 14.808594 L 14.808594 13.394531 L 18.34375 16.929688 Z M 31.070312 29.65625 L 34.605469 33.191406 L 33.191406 34.605469 L 29.65625 31.070312 Z M 16.929688 29.65625 L 18.34375 31.070312 L 14.808594 34.605469 L 13.394531 33.191406 Z M 31.070312 18.34375 L 29.65625 16.929688 L 33.191406 13.394531 L 34.605469 14.808594 Z M 15 25 L 10 25 L 10 23 L 15 23 Z M 38 25 L 33 25 L 33 23 L 38 23 Z M 23 33 L 25 33 L 25 38 L 23 38 Z M 25 15 L 23 15 L 23 10 L 25 10 Z M 24 28 C 21.792969 28 20 26.207031 20 24 C 20 21.792969 21.792969 20 24 20 C 26.203125 20 28 21.792969 28 24 C 28 26.207031 26.203125 28 24 28 M 24 18 C 20.691406 18 18 20.691406 18 24 C 18 27.308594 20.691406 30 24 30 C 27.308594 30 30 27.308594 30 24 C 30 20.691406 27.308594 18 24 18 "/>
</g>
</svg>
