<?xml version="1.0" encoding="UTF-8"?>
<svg xmlns="http://www.w3.org/2000/svg" xmlns:xlink="http://www.w3.org/1999/xlink" width="48pt" height="48pt" viewBox="0 0 48 48" version="1.1">
<g id="surface1">
<path style=" stroke:none;fill-rule:nonzero;fill:rgb(0%,0%,0%);fill-opacity:1;" d="M 38 29 L 36 29 L 36 34 L 38 34 Z M 38 35 L 36 35 L 36 37 L 38 37 Z M 44 33 C 44 36.867188 40.867188 40 37 40 C 33.132812 40 30 36.867188 30 33 C 30 32.507812 30.050781 32.027344 30.148438 31.5625 L 29.65625 31.070312 L 30.640625 30.085938 C 31.746094 27.675781 34.175781 26 37 26 C 40.867188 26 44 29.132812 44 33 M 23 38 L 25 38 L 25 33 L 23 33 Z M 15 23 L 10 23 L 10 25 L 15 25 Z M 28 24 C 28 21.792969 26.203125 20 24 20 C 21.796875 20 20 21.792969 20 24 C 20 26.207031 21.796875 28 24 28 C 26.203125 28 28 26.207031 28 24 M 30 24 C 30 27.308594 27.308594 30 24 30 C 20.691406 30 18 27.308594 18 24 C 18 20.691406 20.691406 18 24 18 C 27.308594 18 30 20.691406 30 24 M 13.394531 33.191406 L 14.808594 34.605469 L 18.34375 31.070312 L 16.929688 29.65625 Z M 34.605469 14.808594 L 33.191406 13.394531 L 29.65625 16.929688 L 31.070312 18.34375 Z M 33 25 L 38 25 L 38 23 L 33 23 Z M 18.34375 16.929688 L 14.808594 13.394531 L 13.394531 14.808594 L 16.929688 18.34375 Z M 25 15 L 23 15 L 23 10 L 25 10 Z M 25 15 "/>
</g>
</svg>
