<?xml version="1.0" encoding="UTF-8"?>
<svg xmlns="http://www.w3.org/2000/svg" xmlns:xlink="http://www.w3.org/1999/xlink" width="48pt" height="48pt" viewBox="0 0 48 48" version="1.1">
<g id="surface1">
<path style=" stroke:none;fill-rule:nonzero;fill:rgb(0%,0%,0%);fill-opacity:1;" d="M 15 36 L 33 36 L 33 34 L 15 34 Z M 10 31 L 38 31 L 38 29 L 10 29 Z M 18.34375 16.929688 L 14.808594 13.394531 L 13.394531 14.808594 L 16.929688 18.34375 Z M 15 25 L 15 23 L 10 23 L 10 25 Z M 33 25 L 38 25 L 38 23 L 33 23 Z M 34.605469 14.808594 L 33.191406 13.394531 L 29.65625 16.929688 L 31.070312 18.34375 Z M 25 10 L 23 10 L 23 15 L 25 15 Z M 18 24 C 18 20.691406 20.691406 18 24 18 C 27.308594 18 30 20.691406 30 24 C 30 24.339844 29.964844 24.675781 29.910156 25 L 27.859375 25 C 27.941406 24.679688 28 24.347656 28 24 C 28 21.792969 26.203125 20 24 20 C 21.796875 20 20 21.792969 20 24 C 20 24.347656 20.058594 24.679688 20.140625 25 L 18.089844 25 C 18.035156 24.675781 18 24.339844 18 24 "/>
</g>
</svg>
