<?xml version="1.0" encoding="UTF-8"?>
<svg xmlns="http://www.w3.org/2000/svg" xmlns:xlink="http://www.w3.org/1999/xlink" width="48pt" height="48pt" viewBox="0 0 48 48" version="1.1">
<g id="surface1">
<path style=" stroke:none;fill-rule:nonzero;fill:rgb(0%,0%,0%);fill-opacity:1;" d="M 41 32 L 38 32 L 38 29 L 36 29 L 36 34 L 41 34 Z M 44 33 C 44 36.871094 40.871094 40 37 40 C 34.199219 40 31.800781 38.371094 30.679688 36 L 15 36 L 15 34 L 30.078125 34 C 30.019531 33.679688 30 33.339844 30 33 C 30 32.300781 30.101562 31.628906 30.289062 31 L 10 31 L 10 29 L 31.261719 29 C 32.519531 27.179688 34.621094 26 37 26 C 40.871094 26 44 29.128906 44 33 M 18.089844 25 L 20.140625 25 C 20.058594 24.679688 20 24.351562 20 24 C 20 21.789062 21.789062 20 24 20 C 26.210938 20 28 21.789062 28 24 C 28 24.351562 27.941406 24.679688 27.859375 25 L 29.910156 25 C 29.960938 24.671875 30 24.339844 30 24 C 30 20.691406 27.308594 18 24 18 C 20.691406 18 18 20.691406 18 24 C 18 24.339844 18.039062 24.671875 18.089844 25 M 18.339844 16.929688 L 14.808594 13.390625 L 13.390625 14.808594 L 16.929688 18.339844 Z M 15 23 L 10 23 L 10 25 L 15 25 Z M 34.609375 14.808594 L 33.191406 13.390625 L 29.660156 16.929688 L 31.070312 18.339844 Z M 33 25 L 38 25 L 38 23 L 33 23 Z M 25 15 L 23 15 L 23 10 L 25 10 Z M 25 15 "/>
</g>
</svg>
