<?xml version="1.0" encoding="UTF-8"?>
<svg xmlns="http://www.w3.org/2000/svg" xmlns:xlink="http://www.w3.org/1999/xlink" width="48pt" height="48pt" viewBox="0 0 48 48" version="1.1">
<g id="surface1">
<path style=" stroke:none;fill-rule:nonzero;fill:rgb(0%,0%,0%);fill-opacity:1;" d="M 23 33 L 25 33 L 25 38 L 23 38 Z M 16.929688 29.65625 L 18.34375 31.070312 L 14.808594 34.605469 L 13.394531 33.191406 Z M 15 25 L 10 25 L 10 23 L 15 23 Z M 25 15 L 23 15 L 23 10 L 25 10 Z M 16.929688 18.34375 L 13.394531 14.808594 L 14.808594 13.394531 L 18.34375 16.929688 Z M 30 28 C 29.53125 28 29.089844 27.921875 28.671875 27.769531 C 28.011719 27.539062 27.441406 27.148438 27 26.640625 C 26.378906 25.929688 26 25.011719 26 24 C 26 22.988281 26.378906 22.070312 27 21.359375 C 27.441406 20.851562 28.011719 20.460938 28.671875 20.230469 C 29.089844 20.078125 29.53125 20 30 20 C 32.210938 20 34 21.789062 34 24 C 34 26.210938 32.210938 28 30 28 M 24 28 C 21.789062 28 20 26.210938 20 24 C 20 21.789062 21.789062 20 24 20 C 24.46875 20 24.910156 20.078125 25.328125 20.230469 C 24.5 21.261719 24 22.570312 24 24 C 24 25.429688 24.5 26.738281 25.328125 27.769531 C 24.910156 27.921875 24.46875 28 24 28 M 30 18 C 28.898438 18 27.878906 18.289062 27 18.808594 C 26.121094 18.289062 25.101562 18 24 18 C 20.691406 18 18 20.691406 18 24 C 18 27.308594 20.691406 30 24 30 C 25.101562 30 26.121094 29.710938 27 29.191406 C 27.878906 29.710938 28.898438 30 30 30 C 33.308594 30 36 27.308594 36 24 C 36 20.691406 33.308594 18 30 18 "/>
</g>
</svg>
