<?xml version="1.0" encoding="UTF-8"?>
<svg xmlns="http://www.w3.org/2000/svg" xmlns:xlink="http://www.w3.org/1999/xlink" width="48pt" height="48pt" viewBox="0 0 48 48" version="1.1">
<g id="surface1">
<path style=" stroke:none;fill-rule:nonzero;fill:rgb(0%,0%,0%);fill-opacity:1;" d="M 29 9 L 27 9 L 27 13 L 29 13 Z M 29 9 "/>
<path style=" stroke:none;fill-rule:nonzero;fill:rgb(0%,0%,0%);fill-opacity:1;" d="M 37.191406 13.222656 L 35.777344 11.808594 L 32.949219 14.636719 L 34.363281 16.050781 Z M 37.191406 13.222656 "/>
<path style=" stroke:none;fill-rule:nonzero;fill:rgb(0%,0%,0%);fill-opacity:1;" d="M 36 22 L 40 22 L 40 20 L 36 20 Z M 36 22 "/>
<path style=" stroke:none;fill-rule:nonzero;fill:rgb(0%,0%,0%);fill-opacity:1;" d="M 31 32 L 15 32 C 12.792969 32 11 30.207031 11 28 C 11 25.792969 12.792969 24 15 24 C 17.207031 24 19 25.792969 19 28 L 21 28 C 21 25.59375 19.574219 23.523438 17.53125 22.566406 C 18.484375 20.414062 20.59375 19 23 19 C 25.390625 19 27.527344 20.429688 28.480469 22.5625 C 26.429688 23.515625 25 25.59375 25 28 L 27 28 C 27 25.792969 28.792969 24 31 24 C 33.207031 24 35 25.792969 35 28 C 35 30.207031 33.207031 32 31 32 M 28 17 C 30.207031 17 32 18.792969 32 21 C 32 21.367188 31.933594 21.71875 31.839844 22.066406 C 31.5625 22.027344 31.285156 22 31 22 C 30.804688 22 30.613281 22.011719 30.421875 22.027344 C 29.601562 19.972656 27.964844 18.375 25.953125 17.574219 C 26.5625 17.207031 27.265625 17 28 17 M 33.757812 22.675781 C 33.917969 22.136719 34 21.574219 34 21 C 34 17.691406 31.308594 15 28 15 C 26.269531 15 24.644531 15.746094 23.511719 17.019531 C 23.34375 17.011719 23.171875 17 23 17 C 19.691406 17 16.808594 19.003906 15.597656 22.03125 C 15.398438 22.011719 15.203125 22 15 22 C 11.691406 22 9 24.691406 9 28 C 9 31.308594 11.691406 34 15 34 L 31 34 C 34.308594 34 37 31.308594 37 28 C 37 25.6875 35.683594 23.675781 33.757812 22.675781 "/>
<path style=" stroke:none;fill-rule:nonzero;fill:rgb(0%,0%,0%);fill-opacity:1;" d="M 23.050781 14.636719 L 20.222656 11.808594 L 18.808594 13.222656 L 21.636719 16.050781 Z M 23.050781 14.636719 "/>
</g>
</svg>
