<?xml version="1.0" encoding="UTF-8"?>
<svg xmlns="http://www.w3.org/2000/svg" xmlns:xlink="http://www.w3.org/1999/xlink" width="48pt" height="48pt" viewBox="0 0 48 48" version="1.1">
<g id="surface1">
<path style=" stroke:none;fill-rule:nonzero;fill:rgb(0%,0%,0%);fill-opacity:1;" d="M 38 29 L 36 29 L 36 34 L 38 34 Z M 38 35 L 36 35 L 36 37 L 38 37 Z M 23 27 L 32 27 C 34.207031 27 36 25.207031 36 23 C 36 20.792969 34.207031 19 32 19 C 29.792969 19 28 20.792969 28 23 L 26 23 C 26 20.59375 27.429688 18.519531 29.480469 17.5625 C 28.527344 15.429688 26.390625 14 24 14 C 21.59375 14 19.480469 15.414062 18.527344 17.566406 C 20.574219 18.523438 22 20.597656 22 23 L 20 23 C 20 20.792969 18.207031 19 16 19 C 13.792969 19 12 20.792969 12 23 C 12 25.207031 13.792969 27 16 27 Z M 44 33 C 44 36.867188 40.867188 40 37 40 C 33.132812 40 30 36.867188 30 33 C 30 31.511719 30.46875 30.132812 31.261719 29 L 16 29 C 12.691406 29 10 26.308594 10 23 C 10 19.691406 12.691406 17 16 17 C 16.199219 17 16.398438 17.011719 16.597656 17.03125 C 17.808594 14.003906 20.691406 12 24 12 C 27.292969 12 30.222656 14.027344 31.425781 17.027344 C 31.613281 17.011719 31.804688 17 32 17 C 35.308594 17 38 19.691406 38 23 C 38 24.097656 37.699219 25.125 37.183594 26.007812 C 40.964844 26.105469 44 29.195312 44 33 M 12 33 L 14 33 L 14 31 L 12 31 Z M 27 33 L 29 33 L 29 31 L 27 31 Z M 19 33 L 21 33 L 21 31 L 19 31 Z M 16 36 L 18 36 L 18 34 L 16 34 Z M 23 34 L 25 34 L 25 36 L 23 36 Z M 23 34 "/>
</g>
</svg>
