<?xml version="1.0" encoding="UTF-8"?>
<svg xmlns="http://www.w3.org/2000/svg" xmlns:xlink="http://www.w3.org/1999/xlink" width="48pt" height="48pt" viewBox="0 0 48 48" version="1.1">
<g id="surface1">
<path style=" stroke:none;fill-rule:nonzero;fill:rgb(0%,0%,0%);fill-opacity:1;" d="M 13 37 L 11 37 L 11 35 L 13 35 Z M 14.707031 34.707031 L 13.292969 33.292969 L 16.292969 30.292969 L 17.707031 31.707031 Z M 21 37 L 19 37 L 19 35 L 21 35 Z M 22.707031 34.707031 L 21.292969 33.292969 L 24.292969 30.292969 L 25.707031 31.707031 Z M 29 37 L 27 37 L 27 35 L 29 35 Z M 30.707031 34.707031 L 29.292969 33.292969 L 32.292969 30.292969 L 33.707031 31.707031 Z M 32 27 L 16 27 C 13.792969 27 12 25.207031 12 23 C 12 20.792969 13.792969 19 16 19 C 18.207031 19 20 20.792969 20 23 L 22 23 C 22 20.597656 20.574219 18.523438 18.527344 17.566406 C 19.480469 15.414062 21.59375 14 24 14 C 26.390625 14 28.527344 15.429688 29.480469 17.5625 C 27.429688 18.519531 26 20.59375 26 23 L 28 23 C 28 20.792969 29.792969 19 32 19 C 34.207031 19 36 20.792969 36 23 C 36 25.207031 34.207031 27 32 27 M 32 17 C 31.804688 17 31.613281 17.011719 31.425781 17.027344 C 30.222656 14.027344 27.292969 12 24 12 C 20.691406 12 17.808594 14.003906 16.597656 17.03125 C 16.398438 17.011719 16.199219 17 16 17 C 12.691406 17 10 19.691406 10 23 C 10 26.308594 12.691406 29 16 29 L 32 29 C 35.308594 29 38 26.308594 38 23 C 38 19.691406 35.308594 17 32 17 "/>
</g>
</svg>
