<?xml version="1.0" encoding="UTF-8"?>
<svg xmlns="http://www.w3.org/2000/svg" xmlns:xlink="http://www.w3.org/1999/xlink" width="48pt" height="48pt" viewBox="0 0 48 48" version="1.1">
<g id="surface1">
<path style=" stroke:none;fill-rule:nonzero;fill:rgb(0%,0%,0%);fill-opacity:1;" d="M 33 32 L 15 32 C 12.242188 32 10 29.757812 10 27 C 10 24.242188 12.242188 22 15 22 C 17.757812 22 20 24.242188 20 27 L 22 27 C 22 23.808594 19.851562 21.113281 16.925781 20.273438 C 17.847656 17.171875 20.6875 15 24 15 C 27.3125 15 30.152344 17.171875 31.074219 20.273438 C 28.148438 21.113281 26 23.808594 26 27 L 28 27 C 28 24.242188 30.242188 22 33 22 C 35.757812 22 38 24.242188 38 27 C 38 29.757812 35.757812 32 33 32 M 33.082031 20.003906 C 32.011719 15.898438 28.316406 13 24 13 C 19.683594 13 15.988281 15.898438 14.917969 20.003906 C 11.097656 20.050781 8 23.167969 8 27 C 8 30.859375 11.140625 34 15 34 L 33 34 C 36.859375 34 40 30.859375 40 27 C 40 23.167969 36.902344 20.050781 33.082031 20.003906 "/>
</g>
</svg>
