<?xml version="1.0" encoding="UTF-8"?>
<svg xmlns="http://www.w3.org/2000/svg" xmlns:xlink="http://www.w3.org/1999/xlink" width="48pt" height="48pt" viewBox="0 0 48 48" version="1.1">
<g id="surface1">
<path style=" stroke:none;fill-rule:nonzero;fill:rgb(0%,0%,0%);fill-opacity:1;" d="M 37 33 L 24 33 C 22.347656 33 21 31.652344 21 30 C 21 28.347656 22.347656 27 24 27 C 24.15625 27 24.308594 27.019531 24.480469 27.050781 C 24.613281 27.074219 24.742188 27.109375 24.871094 27.148438 L 25.882812 27.457031 L 26.136719 26.429688 C 26.628906 24.410156 28.425781 23 30.5 23 C 32.296875 23 33.875 24.054688 34.59375 25.644531 C 33.054688 26.5 32 28.121094 32 30 L 34 30 C 34 28.765625 34.753906 27.699219 35.820312 27.242188 L 36.128906 27.148438 C 36.257812 27.109375 36.386719 27.074219 36.542969 27.046875 C 36.691406 27.019531 36.84375 27 37 27 C 38.652344 27 40 28.347656 40 30 C 40 31.652344 38.652344 33 37 33 M 14 26 C 11.796875 26 10 24.207031 10 22 C 10 19.800781 11.785156 18.011719 13.984375 18.003906 C 14.007812 18.003906 14.03125 18.003906 14.058594 18.007812 C 14.179688 18.007812 14.296875 18.027344 14.414062 18.042969 C 14.46875 18.050781 14.519531 18.054688 14.582031 18.066406 C 14.761719 18.097656 14.929688 18.144531 15.097656 18.195312 L 15.652344 18.367188 C 17.03125 19 18 20.386719 18 22 L 20 22 C 20 19.640625 18.628906 17.605469 16.648438 16.625 C 17.53125 14.453125 19.621094 13 22 13 C 24.679688 13 26.996094 14.839844 27.636719 17.476562 L 27.886719 18.511719 L 28.902344 18.195312 C 29.070312 18.144531 29.238281 18.097656 29.4375 18.0625 C 29.671875 18.019531 29.863281 18 30.046875 18 C 32.226562 18 34 19.792969 34 22 C 34 22.011719 33.996094 22.019531 33.996094 22.027344 C 32.980469 21.378906 31.777344 21 30.5 21 C 27.828125 21 25.476562 22.617188 24.492188 25.03125 C 24.320312 25.011719 24.160156 25 24 25 C 22.890625 25 21.882812 25.386719 21.054688 26 Z M 37 25 C 36.839844 25 36.675781 25.011719 36.507812 25.03125 C 36.3125 24.550781 36.050781 24.109375 35.753906 23.699219 C 35.914062 23.152344 36 22.582031 36 22 C 36 18.691406 33.328125 16 30.046875 16 C 29.804688 16 29.550781 16.019531 29.289062 16.058594 C 28.148438 13.035156 25.273438 11 22 11 C 18.730469 11 15.863281 13.03125 14.71875 16.046875 C 14.480469 16.019531 14.242188 16 14 16 C 13.988281 16 13.980469 16 13.972656 16 C 13.964844 16 13.957031 16 13.953125 16 C 10.671875 16 8 18.691406 8 22 C 8 25.308594 10.671875 28 13.953125 28 L 19.425781 28 C 19.152344 28.613281 19 29.289062 19 30 C 19 32.757812 21.242188 35 24 35 L 37 35 C 39.757812 35 42 32.757812 42 30 C 42 27.242188 39.757812 25 37 25 "/>
</g>
</svg>
