<?xml version="1.0" encoding="UTF-8"?>
<svg xmlns="http://www.w3.org/2000/svg" xmlns:xlink="http://www.w3.org/1999/xlink" width="48pt" height="48pt" viewBox="0 0 48 48" version="1.1">
<g id="surface1">
<path style=" stroke:none;fill-rule:nonzero;fill:rgb(0%,0%,0%);fill-opacity:1;" d="M 20.761719 12.445312 C 15.710938 13.859375 12 18.503906 12 24 C 12 30.617188 17.382812 36 24 36 C 29.496094 36 34.140625 32.285156 35.558594 27.238281 C 33.621094 29.558594 30.710938 31 27.5 31 C 21.710938 31 17 26.289062 17 20.5 C 17 17.289062 18.441406 14.378906 20.761719 12.445312 M 24 38 C 16.28125 38 10 31.71875 10 24 C 10 16.28125 16.28125 10 24 10 C 24.617188 10 25.257812 10.050781 26.011719 10.160156 L 26.039062 12.136719 C 21.960938 12.84375 19 16.359375 19 20.5 C 19 25.1875 22.8125 29 27.5 29 C 31.640625 29 35.15625 26.039062 35.867188 21.960938 L 37.839844 21.988281 C 37.949219 22.746094 38 23.386719 38 24 C 38 31.71875 31.71875 38 24 38 "/>
</g>
</svg>
