<?xml version="1.0" encoding="UTF-8"?>
<svg xmlns="http://www.w3.org/2000/svg" xmlns:xlink="http://www.w3.org/1999/xlink" width="48pt" height="48pt" viewBox="0 0 48 48" version="1.1">
<g id="surface1">
<path style=" stroke:none;fill-rule:nonzero;fill:rgb(0%,0%,0%);fill-opacity:1;" d="M 24 12 C 17.382812 12 12 17.382812 12 24 C 12 30.617188 17.382812 36 24 36 C 30.617188 36 36 30.617188 36 24 C 36 17.382812 30.617188 12 24 12 M 24 38 C 16.28125 38 10 31.71875 10 24 C 10 16.28125 16.28125 10 24 10 C 31.71875 10 38 16.28125 38 24 C 38 31.71875 31.71875 38 24 38 M 26.007812 18 L 26.007812 20 L 27.507812 20 C 27.785156 20 28.007812 20.222656 28.007812 20.5 L 28.007812 22 L 30.007812 22 L 30.007812 20 C 30.007812 18.894531 29.113281 18 28.007812 18 Z M 19.746094 28.25 C 18.605469 27.117188 17.972656 25.609375 17.964844 24 L 15.964844 24.011719 C 15.976562 26.15625 16.820312 28.167969 18.339844 29.679688 C 19.855469 31.1875 21.871094 32.011719 24.007812 32 L 23.996094 29.992188 C 22.394531 30 20.882812 29.382812 19.746094 28.25 M 28.007812 26 L 30.007812 26 L 30.007812 24 L 28.007812 24 Z M 22.007812 18 L 24.007812 18 L 24.007812 20 L 22.007812 20 Z M 22.007812 18 "/>
</g>
</svg>
