<?xml version="1.0" encoding="UTF-8"?>
<svg xmlns="http://www.w3.org/2000/svg" xmlns:xlink="http://www.w3.org/1999/xlink" width="48pt" height="48pt" viewBox="0 0 48 48" version="1.1">
<g id="surface1">
<path style=" stroke:none;fill-rule:nonzero;fill:rgb(0%,0%,0%);fill-opacity:1;" d="M 25.363281 35.921875 L 25.589844 37.910156 C 26.632812 37.789062 27.660156 37.554688 28.644531 37.210938 L 27.984375 35.320312 C 27.136719 35.617188 26.257812 35.820312 25.363281 35.921875 M 33.890625 14.09375 C 33.148438 13.351562 32.324219 12.691406 31.441406 12.140625 L 30.378906 13.832031 C 31.132812 14.308594 31.839844 14.871094 32.480469 15.507812 Z M 30.402344 34.152344 L 31.46875 35.84375 C 32.34375 35.289062 33.164062 34.636719 33.859375 33.9375 L 33.914062 33.886719 L 32.484375 32.484375 C 31.851562 33.117188 31.152344 33.679688 30.402344 34.152344 M 37.910156 22.417969 L 35.925781 22.644531 C 35.976562 23.089844 36 23.546875 36 24 C 36 24.445312 35.976562 24.894531 35.925781 25.328125 L 37.914062 25.554688 C 37.972656 25.042969 38 24.519531 38 24 C 38 23.472656 37.96875 22.9375 37.910156 22.417969 M 37.214844 19.363281 C 36.867188 18.375 36.410156 17.425781 35.847656 16.539062 L 34.160156 17.605469 C 34.636719 18.363281 35.03125 19.179688 35.324219 20.023438 Z M 28.621094 10.78125 C 27.632812 10.4375 26.605469 10.203125 25.5625 10.085938 L 25.339844 12.074219 C 26.234375 12.175781 27.117188 12.375 27.960938 12.667969 Z M 34.171875 30.371094 L 35.867188 31.433594 C 36.421875 30.546875 36.878906 29.597656 37.222656 28.609375 L 35.335938 27.949219 C 35.039062 28.796875 34.648438 29.613281 34.171875 30.371094 M 12 24 C 12 23.558594 12.023438 23.117188 12.070312 22.6875 L 10.082031 22.46875 C 10.027344 22.972656 10 23.488281 10 24 C 10 24.535156 10.03125 25.074219 10.089844 25.601562 L 12.078125 25.375 C 12.023438 24.921875 12 24.457031 12 24 M 13.816406 17.644531 L 12.121094 16.582031 C 11.566406 17.46875 11.109375 18.421875 10.769531 19.414062 L 12.660156 20.066406 C 12.953125 19.21875 13.34375 18.402344 13.816406 17.644531 M 10.792969 28.65625 C 11.140625 29.648438 11.601562 30.597656 12.164062 31.480469 L 13.851562 30.410156 C 13.375 29.652344 12.976562 28.839844 12.679688 27.992188 Z M 19.402344 37.226562 C 20.386719 37.570312 21.417969 37.800781 22.460938 37.914062 L 22.675781 35.925781 C 21.785156 35.828125 20.902344 35.632812 20.058594 35.335938 Z M 17.613281 13.835938 L 16.550781 12.144531 C 15.667969 12.699219 14.84375 13.359375 14.082031 14.117188 L 15.515625 15.515625 C 16.152344 14.878906 16.859375 14.3125 17.613281 13.835938 M 22.652344 12.074219 L 22.429688 10.089844 C 21.386719 10.203125 20.359375 10.4375 19.375 10.78125 L 20.035156 12.671875 C 20.878906 12.375 21.761719 12.175781 22.652344 12.074219 M 15.535156 32.503906 C 16.171875 33.140625 16.878906 33.703125 17.636719 34.179688 L 16.574219 35.871094 C 15.691406 35.320312 14.867188 34.664062 14.121094 33.921875 Z M 15.535156 32.503906 "/>
</g>
</svg>
