<?xml version="1.0" encoding="UTF-8"?>
<svg xmlns="http://www.w3.org/2000/svg" xmlns:xlink="http://www.w3.org/1999/xlink" width="48pt" height="48pt" viewBox="0 0 48 48" version="1.1">
<g id="surface1">
<path style=" stroke:none;fill-rule:nonzero;fill:rgb(0%,0%,0%);fill-opacity:1;" d="M 31 28 C 31 24.140625 27.859375 21 24 21 C 20.140625 21 17 24.140625 17 28 C 17 31.859375 20.140625 35 24 35 C 27.859375 35 31 31.859375 31 28 M 20.5 15.5 C 20.5 16.496094 20.925781 17.445312 21.667969 18.109375 C 22.949219 19.257812 25.050781 19.257812 26.332031 18.109375 C 27.074219 17.445312 27.5 16.492188 27.5 15.5 C 27.5 13.570312 25.929688 12 24 12 C 22.070312 12 20.5 13.570312 20.5 15.5 M 32.457031 24.957031 C 32.804688 25.90625 33 26.929688 33 28 C 33 32.960938 28.964844 37 24 37 C 19.035156 37 15 32.960938 15 28 C 15 26.929688 15.195312 25.90625 15.542969 24.957031 L 10.292969 19.707031 L 11.707031 18.292969 L 13 19.585938 L 14.292969 18.292969 L 15.707031 19.707031 L 14.414062 21 L 16.480469 23.066406 C 17.453125 21.589844 18.84375 20.414062 20.488281 19.714844 C 20.4375 19.671875 20.382812 19.644531 20.332031 19.597656 C 19.167969 18.558594 18.5 17.0625 18.5 15.5 C 18.5 12.46875 20.96875 10 24 10 C 27.03125 10 29.5 12.46875 29.5 15.5 C 29.5 17.0625 28.832031 18.558594 27.667969 19.597656 C 27.617188 19.644531 27.5625 19.671875 27.511719 19.714844 C 29.15625 20.414062 30.546875 21.589844 31.519531 23.066406 L 33.585938 21 L 32.292969 19.707031 L 33.707031 18.292969 L 35 19.585938 L 36.292969 18.292969 L 37.707031 19.707031 Z M 23 31 L 25 31 L 25 29 L 23 29 Z M 23 25 L 25 25 L 25 27 L 23 27 Z M 23 25 "/>
</g>
</svg>
