<?xml version="1.0" encoding="UTF-8"?>
<svg xmlns="http://www.w3.org/2000/svg" xmlns:xlink="http://www.w3.org/1999/xlink" width="48pt" height="48pt" viewBox="0 0 48 48" version="1.1">
<g id="surface1">
<path style=" stroke:none;fill-rule:nonzero;fill:rgb(0%,0%,0%);fill-opacity:1;" d="M 22.402344 23.078125 L 24 22.15625 L 25.597656 23.078125 L 25.597656 24.921875 L 24 25.84375 L 22.402344 24.921875 Z M 35.285156 27.867188 L 34.769531 25.9375 L 31.070312 26.925781 L 27.597656 24.921875 L 27.597656 23.078125 L 31.070312 21.074219 L 34.769531 22.0625 L 35.285156 20.132812 L 33.519531 19.660156 L 36.625 17.867188 L 35.625 16.132812 L 32.519531 17.925781 L 32.992188 16.160156 L 31.0625 15.644531 L 30.070312 19.339844 L 26.597656 21.34375 L 25 20.421875 L 25 16.414062 L 27.707031 13.707031 L 26.292969 12.292969 L 25 13.585938 L 25 10 L 23 10 L 23 13.585938 L 21.707031 12.292969 L 20.292969 13.707031 L 23 16.414062 L 23 20.421875 L 21.402344 21.34375 L 17.929688 19.339844 L 16.941406 15.644531 L 15.007812 16.160156 L 15.480469 17.925781 L 12.375 16.132812 L 11.375 17.867188 L 14.480469 19.660156 L 12.714844 20.132812 L 13.234375 22.0625 L 16.929688 21.074219 L 20.402344 23.078125 L 20.402344 24.921875 L 16.929688 26.925781 L 13.234375 25.9375 L 12.714844 27.867188 L 14.480469 28.339844 L 11.375 30.132812 L 12.375 31.867188 L 15.480469 30.074219 L 15.007812 31.839844 L 16.941406 32.355469 L 17.929688 28.660156 L 21.402344 26.65625 L 23 27.578125 L 23 31.585938 L 20.292969 34.292969 L 21.707031 35.707031 L 23 34.414062 L 23 38 L 25 38 L 25 34.414062 L 26.292969 35.707031 L 27.707031 34.292969 L 25 31.585938 L 25 27.578125 L 26.597656 26.65625 L 30.070312 28.660156 L 31.0625 32.355469 L 32.992188 31.839844 L 32.519531 30.074219 L 35.625 31.867188 L 36.625 30.132812 L 33.519531 28.339844 Z M 35.285156 27.867188 "/>
</g>
</svg>
