<?xml version="1.0" encoding="UTF-8"?>
<svg xmlns="http://www.w3.org/2000/svg" xmlns:xlink="http://www.w3.org/1999/xlink" width="48pt" height="48pt" viewBox="0 0 48 48" version="1.1">
<g id="surface1">
<path style=" stroke:none;fill-rule:nonzero;fill:rgb(0%,0%,0%);fill-opacity:1;" d="M 38 34 L 36 34 L 36 29 L 38 29 Z M 38 37 L 36 37 L 36 35 L 38 35 Z M 25.601562 24.921875 L 24 25.851562 L 22.398438 24.921875 L 22.398438 23.078125 L 24 22.148438 L 25.601562 23.078125 Z M 37 26 C 36.25 26 35.539062 26.121094 34.871094 26.328125 L 34.769531 25.941406 L 31.070312 26.929688 L 27.601562 24.921875 L 27.601562 23.078125 L 31.070312 21.070312 L 34.769531 22.058594 L 35.289062 20.128906 L 33.519531 19.660156 L 36.621094 17.871094 L 35.621094 16.128906 L 32.519531 17.929688 L 32.988281 16.160156 L 31.058594 15.640625 L 30.070312 19.339844 L 26.601562 21.351562 L 25 20.421875 L 25 16.410156 L 27.710938 13.710938 L 26.289062 12.289062 L 25 13.589844 L 25 10 L 23 10 L 23 13.589844 L 21.710938 12.289062 L 20.289062 13.710938 L 23 16.410156 L 23 20.421875 L 21.398438 21.351562 L 17.929688 19.339844 L 16.941406 15.640625 L 15.011719 16.160156 L 15.480469 17.929688 L 12.378906 16.128906 L 11.378906 17.871094 L 14.480469 19.660156 L 12.710938 20.128906 L 13.230469 22.058594 L 16.929688 21.070312 L 20.398438 23.078125 L 20.398438 24.921875 L 16.929688 26.929688 L 13.230469 25.941406 L 12.710938 27.871094 L 14.480469 28.339844 L 11.378906 30.128906 L 12.378906 31.871094 L 15.480469 30.070312 L 15.011719 31.839844 L 16.941406 32.359375 L 17.929688 28.660156 L 21.398438 26.648438 L 23 27.578125 L 23 31.589844 L 20.289062 34.289062 L 21.710938 35.710938 L 23 34.410156 L 23 38 L 25 38 L 25 34.410156 L 26.289062 35.710938 L 27.710938 34.289062 L 25 31.589844 L 25 27.578125 L 26.601562 26.648438 L 30.070312 28.660156 L 30.519531 30.351562 C 30.179688 31.171875 30 32.058594 30 33 C 30 36.871094 33.128906 40 37 40 C 40.871094 40 44 36.871094 44 33 C 44 29.128906 40.871094 26 37 26 "/>
</g>
</svg>
