<?xml version="1.0" encoding="UTF-8"?>
<svg xmlns="http://www.w3.org/2000/svg" xmlns:xlink="http://www.w3.org/1999/xlink" width="48pt" height="48pt" viewBox="0 0 48 48" version="1.1">
<g id="surface1">
<path style=" stroke:none;fill-rule:nonzero;fill:rgb(0%,0%,0%);fill-opacity:1;" d="M 28 27 L 26 27 C 26 28.101562 25.105469 29 24 29 C 22.894531 29 22 28.101562 22 27 L 20 27 C 20 29.207031 21.796875 31 24 31 C 26.203125 31 28 29.207031 28 27 M 23.429688 14 C 22.160156 15.367188 17 21.273438 17 27 C 17 30.859375 20.140625 34 24 34 C 27.859375 34 31 30.859375 31 27 C 31 22.527344 25.816406 15.648438 24.519531 14 Z M 24 36 C 19.035156 36 15 31.960938 15 27 C 15 19.671875 21.996094 12.589844 22.292969 12.292969 L 22.585938 12 L 25.472656 12 L 25.769531 12.363281 C 26.066406 12.722656 33 21.195312 33 27 C 33 31.960938 28.964844 36 24 36 "/>
</g>
</svg>
