<?xml version="1.0" encoding="UTF-8"?>
<svg xmlns="http://www.w3.org/2000/svg" xmlns:xlink="http://www.w3.org/1999/xlink" width="48pt" height="48pt" viewBox="0 0 48 48" version="1.1">
<g id="surface1">
<path style=" stroke:none;fill-rule:nonzero;fill:rgb(0%,0%,0%);fill-opacity:1;" d="M 41.707031 33.292969 L 37 28.585938 L 32.292969 33.292969 L 33.707031 34.707031 L 36 32.414062 L 36 37 L 38 37 L 38 32.414062 L 40.292969 34.707031 Z M 31 27 C 31 22.527344 25.816406 15.648438 24.519531 14 L 23.429688 14 C 22.160156 15.367188 17 21.273438 17 27 C 17 30.859375 20.140625 34 24 34 C 27.859375 34 31 30.859375 31 27 M 44 33 C 44 36.867188 40.867188 40 37 40 C 33.355469 40 30.363281 37.214844 30.03125 33.660156 C 28.4375 35.109375 26.320312 36 24 36 C 19.035156 36 15 31.960938 15 27 C 15 19.671875 21.996094 12.589844 22.292969 12.292969 L 22.585938 12 L 25.472656 12 L 25.769531 12.363281 C 26.066406 12.722656 33 21.195312 33 27 C 33 27.089844 32.988281 27.179688 32.984375 27.269531 C 34.121094 26.472656 35.507812 26 37 26 C 40.867188 26 44 29.132812 44 33 M 26 27 L 28 27 C 28 29.207031 26.203125 31 24 31 C 21.796875 31 20 29.207031 20 27 L 22 27 C 22 28.101562 22.894531 29 24 29 C 25.101562 29 26 28.101562 26 27 "/>
</g>
</svg>
