<?xml version="1.0" encoding="UTF-8"?>
<svg xmlns="http://www.w3.org/2000/svg" xmlns:xlink="http://www.w3.org/1999/xlink" width="48pt" height="48pt" viewBox="0 0 48 48" version="1.1">
<g id="surface1">
<path style=" stroke:none;fill-rule:nonzero;fill:rgb(0%,0%,0%);fill-opacity:1;" d="M 19.894531 14.894531 C 18.921875 16.515625 18.128906 19.046875 18.015625 23 L 14.050781 23 C 14.410156 19.382812 16.710938 16.335938 19.894531 14.894531 M 33.949219 23 L 29.984375 23 C 29.871094 19.046875 29.078125 16.515625 28.105469 14.894531 C 31.289062 16.335938 33.589844 19.382812 33.949219 23 M 12 24 L 12 25 L 22 25 L 22 33 C 22 34.207031 22.796875 36 25 36 C 27.203125 36 28 34.207031 28 33 L 26 32.988281 C 25.988281 33.449219 25.804688 34 25 34 C 24.195312 34 24.011719 33.449219 24 33 L 24 23 L 20.027344 23 C 20.289062 14.554688 23.769531 14.027344 24 14.003906 C 24.234375 14.027344 27.710938 14.554688 27.972656 23 L 26 23 L 26 25 L 36 25 L 36 24 C 36 17.71875 31.152344 12.5625 25 12.050781 L 25 11 L 23 11 L 23 12.050781 C 16.847656 12.5625 12 17.71875 12 24 "/>
</g>
</svg>
