<?xml version="1.0" encoding="UTF-8"?>
<svg xmlns="http://www.w3.org/2000/svg" xmlns:xlink="http://www.w3.org/1999/xlink" width="48pt" height="48pt" viewBox="0 0 48 48" version="1.1">
<g id="surface1">
<path style=" stroke:none;fill-rule:nonzero;fill:rgb(0%,0%,0%);fill-opacity:1;" d="M 21.242188 18.828125 L 23.363281 20.949219 L 21.949219 22.363281 L 19.828125 20.242188 Z M 12.757812 13.171875 L 10.636719 11.050781 L 12.050781 9.636719 L 14.171875 11.757812 Z M 12.757812 18.828125 L 14.171875 20.242188 L 12.050781 22.363281 L 10.636719 20.949219 Z M 21.242188 13.171875 L 19.828125 11.757812 L 21.949219 9.636719 L 23.363281 11.050781 Z M 25 17 L 22 17 L 22 15 L 25 15 Z M 12 17 L 9 17 L 9 15 L 12 15 Z M 16 21 L 18 21 L 18 24 L 16 24 Z M 18 11 L 16 11 L 16 8 L 18 8 Z M 17 17 C 16.449219 17 16 16.550781 16 16 C 16 15.449219 16.449219 15 17 15 C 17.550781 15 18 15.449219 18 16 C 18 16.550781 17.550781 17 17 17 M 17 13 C 15.34375 13 14 14.34375 14 16 C 14 17.65625 15.34375 19 17 19 C 18.65625 19 20 17.65625 20 16 C 20 14.34375 18.65625 13 17 13 M 32.863281 34.351562 C 32.132812 34.933594 31.207031 35.132812 30.265625 34.914062 C 29.222656 34.671875 28.347656 33.808594 28.09375 32.765625 C 27.824219 31.667969 28.152344 30.5625 28.964844 29.8125 C 29.632812 29.203125 30 28.398438 30 27.554688 L 30 17 L 32 17 L 32 27.550781 C 32 28.394531 32.371094 29.199219 33.042969 29.820312 C 33.660156 30.394531 34 31.167969 34 32 C 34 32.917969 33.585938 33.777344 32.863281 34.351562 M 30.351562 11.238281 C 30.535156 11.082031 30.761719 11 31 11 C 31.058594 11 31.117188 11.003906 31.175781 11.011719 C 31.636719 11.089844 32 11.570312 32 12.105469 L 32 15 L 30 15 L 30 12 C 30 11.707031 30.128906 11.425781 30.351562 11.238281 M 34.398438 28.351562 C 34.25 28.214844 34 27.925781 34 27.550781 L 34 12.105469 C 34 10.589844 32.921875 9.273438 31.496094 9.039062 C 30.617188 8.894531 29.730469 9.144531 29.058594 9.714844 C 28.386719 10.285156 28 11.117188 28 12 L 28 27.554688 C 28 27.929688 27.757812 28.207031 27.613281 28.339844 C 26.253906 29.589844 25.707031 31.421875 26.152344 33.242188 C 26.585938 35.027344 28.027344 36.445312 29.8125 36.863281 C 30.207031 36.953125 30.605469 36.996094 30.996094 36.996094 C 32.121094 36.996094 33.214844 36.625 34.109375 35.917969 C 35.3125 34.960938 36 33.535156 36 32 C 36 30.601562 35.433594 29.308594 34.398438 28.351562 "/>
</g>
</svg>
