<?xml version="1.0" encoding="UTF-8"?>
<svg xmlns="http://www.w3.org/2000/svg" xmlns:xlink="http://www.w3.org/1999/xlink" width="48pt" height="48pt" viewBox="0 0 48 48" version="1.1">
<g id="surface1">
<path style=" stroke:none;fill-rule:nonzero;fill:rgb(0%,0%,0%);fill-opacity:1;" d="M 32.863281 34.351562 C 32.132812 34.933594 31.207031 35.136719 30.265625 34.914062 C 29.222656 34.671875 28.347656 33.808594 28.09375 32.765625 C 27.824219 31.667969 28.152344 30.566406 28.96875 29.816406 C 29.632812 29.203125 30 28.402344 30 27.554688 L 30 17 L 32 17 L 32 27.554688 C 32 28.394531 32.371094 29.203125 33.042969 29.824219 C 33.660156 30.394531 34 31.167969 34 32 C 34 32.921875 33.585938 33.777344 32.863281 34.351562 M 30.351562 11.238281 C 30.535156 11.082031 30.761719 11 31 11 C 31.058594 11 31.117188 11.007812 31.175781 11.015625 C 31.636719 11.089844 32 11.570312 32 12.109375 L 32 15 L 30 15 L 30 12 C 30 11.707031 30.128906 11.429688 30.351562 11.238281 M 34.398438 28.355469 C 34.25 28.214844 34 27.929688 34 27.554688 L 34 12.109375 C 34 10.59375 32.925781 9.273438 31.496094 9.042969 C 30.617188 8.898438 29.726562 9.144531 29.058594 9.714844 C 28.386719 10.289062 28 11.121094 28 12 L 28 27.554688 C 28 27.929688 27.757812 28.210938 27.613281 28.34375 C 26.253906 29.59375 25.707031 31.425781 26.152344 33.242188 C 26.589844 35.027344 28.027344 36.449219 29.8125 36.863281 C 30.207031 36.957031 30.601562 37 30.996094 37 C 32.125 37 33.214844 36.628906 34.109375 35.917969 C 35.308594 34.964844 36 33.535156 36 32 C 36 30.605469 35.429688 29.308594 34.398438 28.355469 M 19.003906 16 C 19.003906 16.550781 18.550781 17.003906 18 17.003906 C 17.730469 17.003906 17.484375 16.898438 17.292969 16.707031 C 17.101562 16.515625 16.996094 16.269531 16.996094 16 C 17.003906 15.722656 17.109375 15.476562 17.292969 15.292969 C 17.476562 15.109375 17.722656 15.003906 18 14.996094 C 18.269531 14.996094 18.515625 15.101562 18.707031 15.292969 C 18.898438 15.484375 19.003906 15.730469 19.003906 16 M 20.828125 10.34375 L 19.414062 8.929688 L 18 10.34375 L 16.585938 8.929688 L 15.171875 10.34375 L 17.003906 12.175781 L 16.996094 13.183594 C 16.15625 13.488281 15.488281 14.15625 15.183594 14.996094 L 14.175781 15.003906 L 12.34375 13.171875 L 10.929688 14.585938 L 12.34375 16 L 10.929688 17.414062 L 12.34375 18.828125 L 14.175781 16.996094 L 15.179688 16.996094 C 15.328125 17.414062 15.558594 17.804688 15.878906 18.121094 C 16.199219 18.441406 16.585938 18.671875 17.003906 18.820312 L 17.003906 19.824219 L 15.171875 21.65625 L 16.585938 23.070312 L 18 21.65625 L 19.414062 23.070312 L 20.828125 21.65625 L 18.996094 19.824219 L 19.003906 18.816406 C 19.421875 18.664062 19.808594 18.433594 20.121094 18.121094 C 20.433594 17.808594 20.667969 17.421875 20.8125 17.003906 L 21.824219 16.996094 L 23.65625 18.828125 L 25.070312 17.414062 L 23.65625 16 L 25.070312 14.585938 L 23.65625 13.171875 L 21.824219 15.003906 L 20.820312 15.003906 C 20.671875 14.585938 20.4375 14.195312 20.121094 13.878906 C 19.804688 13.558594 19.414062 13.328125 18.996094 13.179688 L 18.996094 12.175781 Z M 20.828125 10.34375 "/>
</g>
</svg>
