<?xml version="1.0" encoding="UTF-8"?>
<svg xmlns="http://www.w3.org/2000/svg" xmlns:xlink="http://www.w3.org/1999/xlink" width="48pt" height="48pt" viewBox="0 0 48 48" version="1.1">
<g id="surface1">
<path style=" stroke:none;fill-rule:nonzero;fill:rgb(0%,0%,0%);fill-opacity:1;" d="M 32.5 34 C 31.671875 34 31 33.328125 31 32.5 L 29 32.5 C 29 34.429688 30.570312 36 32.5 36 C 34.429688 36 36 34.429688 36 32.5 C 36 30.570312 34.429688 29 32.5 29 L 12 29 L 12 31 L 32.5 31 C 33.328125 31 34 31.671875 34 32.5 C 34 33.328125 33.328125 34 32.5 34 M 32.5 12 C 30.570312 12 29 13.570312 29 15.5 L 31 15.5 C 31 14.671875 31.671875 14 32.5 14 C 33.328125 14 34 14.671875 34 15.5 C 34 16.328125 33.328125 17 32.5 17 L 12 17 L 12 19 L 32.5 19 C 34.429688 19 36 17.429688 36 15.5 C 36 13.570312 34.429688 12 32.5 12 M 24 25 L 33 25 L 33 23 L 24 23 Z M 21 25 L 12 25 L 12 23 L 21 23 Z M 21 25 "/>
</g>
</svg>
