<?xml version="1.0" encoding="UTF-8"?>
<svg xmlns="http://www.w3.org/2000/svg" xmlns:xlink="http://www.w3.org/1999/xlink" width="48pt" height="48pt" viewBox="0 0 48 48" version="1.1">
<g id="surface1">
<path style=" stroke:none;fill-rule:nonzero;fill:rgb(0%,0%,0%);fill-opacity:1;" d="M 23.5 33 C 22.671875 33 22 33.671875 22 34.5 C 22 35.328125 22.671875 36 23.5 36 C 24.328125 36 25 35.328125 25 34.5 C 25 33.671875 24.328125 33 23.5 33 M 23.5 12 C 22.671875 12 22 12.671875 22 13.5 C 22 14.328125 22.671875 15 23.5 15 C 24.328125 15 25 14.328125 25 13.5 C 25 12.671875 24.328125 12 23.5 12 M 34.5 22.5 C 33.671875 22.5 33 23.171875 33 24 C 33 24.828125 33.671875 25.5 34.5 25.5 C 35.328125 25.5 36 24.828125 36 24 C 36 23.171875 35.328125 22.5 34.5 22.5 M 32.5 34 C 31.671875 34 31 33.328125 31 32.5 L 29 32.5 C 29 34.429688 30.570312 36 32.5 36 C 34.429688 36 36 34.429688 36 32.5 C 36 30.570312 34.429688 29 32.5 29 L 12 29 L 12 31 L 32.5 31 C 33.328125 31 34 31.671875 34 32.5 C 34 33.328125 33.328125 34 32.5 34 M 32.5 12 C 30.570312 12 29 13.570312 29 15.5 L 31 15.5 C 31 14.671875 31.671875 14 32.5 14 C 33.328125 14 34 14.671875 34 15.5 C 34 16.328125 33.328125 17 32.5 17 L 12 17 L 12 19 L 32.5 19 C 34.429688 19 36 17.429688 36 15.5 C 36 13.570312 34.429688 12 32.5 12 M 28 25 L 12 25 L 12 23 L 28 23 Z M 28 25 "/>
</g>
</svg>
