<?xml version="1.0" encoding="UTF-8"?>
<svg xmlns="http://www.w3.org/2000/svg" xmlns:xlink="http://www.w3.org/1999/xlink" width="48pt" height="48pt" viewBox="0 0 48 48" version="1.1">
<g id="surface1">
<path style=" stroke:none;fill-rule:nonzero;fill:rgb(0%,0%,0%);fill-opacity:1;" d="M 15.292969 16.707031 C 15.480469 16.894531 15.730469 17 16 17 C 16.550781 17 17 16.550781 17 16 C 17 15.730469 16.894531 15.480469 16.707031 15.292969 C 16.519531 15.105469 16.269531 15 16 15 C 15.722656 15 15.472656 15.113281 15.292969 15.292969 C 15.113281 15.472656 15 15.722656 15 16 C 15 16.269531 15.105469 16.519531 15.292969 16.707031 M 17 19.828125 L 18.828125 21.65625 L 17.414062 23.070312 L 16 21.65625 L 14.585938 23.070312 L 13.171875 21.65625 L 15 19.828125 L 15 18.816406 C 14.585938 18.671875 14.199219 18.441406 13.878906 18.121094 C 13.558594 17.800781 13.328125 17.414062 13.183594 17 L 12.171875 17 L 10.34375 18.828125 L 8.929688 17.414062 L 10.34375 16 L 8.929688 14.585938 L 10.34375 13.171875 L 12.171875 15 L 13.183594 15 C 13.488281 14.152344 14.152344 13.488281 15 13.183594 L 15 12.171875 L 13.171875 10.34375 L 14.585938 8.929688 L 16 10.34375 L 17.414062 8.929688 L 18.828125 10.34375 L 17 12.171875 L 17 13.183594 C 17.414062 13.328125 17.800781 13.558594 18.121094 13.878906 C 18.441406 14.199219 18.671875 14.585938 18.816406 15 L 19.828125 15 L 21.65625 13.171875 L 23.070312 14.585938 L 21.65625 16 L 23.070312 17.414062 L 21.65625 18.828125 L 19.828125 17 L 18.816406 17 C 18.664062 17.421875 18.433594 17.808594 18.121094 18.121094 C 17.808594 18.433594 17.421875 18.664062 17 18.816406 Z M 30 26 L 15 26 L 15 28 L 30 28 Z M 35.5 30 L 22 30 L 22 32 L 35.5 32 C 36.328125 32 37 32.671875 37 33.5 C 37 34.328125 36.328125 35 35.5 35 C 34.671875 35 34 34.328125 34 33.5 L 32 33.5 C 32 35.429688 33.570312 37 35.5 37 C 37.429688 37 39 35.429688 39 33.5 C 39 31.570312 37.429688 30 35.5 30 M 34 20.5 L 32 20.5 C 32 18.570312 33.570312 17 35.5 17 C 37.429688 17 39 18.570312 39 20.5 C 39 22.429688 37.429688 24 35.5 24 L 22 24 L 22 22 L 35.5 22 C 36.328125 22 37 21.328125 37 20.5 C 37 19.671875 36.328125 19 35.5 19 C 34.671875 19 34 19.671875 34 20.5 "/>
</g>
</svg>
