<?xml version="1.0" encoding="UTF-8"?>
<svg xmlns="http://www.w3.org/2000/svg" xmlns:xlink="http://www.w3.org/1999/xlink" width="48pt" height="48pt" viewBox="0 0 48 48" version="1.1">
<g id="surface1">
<path style=" stroke:none;fill-rule:nonzero;fill:rgb(0%,0%,0%);fill-opacity:1;" d="M 14 33 L 28 33 L 28 31 L 14 31 Z M 30 33 L 32 33 L 32 31 L 30 31 Z M 37 27 L 19 27 L 19 29 L 37 29 Z M 12 24 L 14 24 L 14 22 L 12 22 Z M 30 22 L 16 22 L 16 24 L 30 24 Z M 37 17 L 19 17 L 19 19 L 37 19 Z M 14 15 L 28 15 L 28 13 L 14 13 Z M 32 15 L 30 15 L 30 13 L 32 13 Z M 32 15 "/>
</g>
</svg>
