<?xml version="1.0" encoding="UTF-8"?>
<svg xmlns="http://www.w3.org/2000/svg" xmlns:xlink="http://www.w3.org/1999/xlink" width="48pt" height="48pt" viewBox="0 0 48 48" version="1.1">
<g id="surface1">
<path style=" stroke:none;fill-rule:nonzero;fill:rgb(0%,0%,0%);fill-opacity:1;" d="M 27.164062 38 L 27.527344 36 L 24.515625 36 L 24.847656 38 Z M 28.804688 19 L 27.894531 14 L 24.179688 14 L 23.320312 19.167969 L 24 19 Z M 24.847656 10 L 24.515625 12 L 27.527344 12 L 27.164062 10 Z M 9 21 L 12.382812 21 L 10.382812 17 L 9 17 Z M 40 24.5 C 40 26.429688 38.429688 28 36.5 28 L 31.015625 28 L 28.835938 40 L 23.152344 40 L 20.835938 26 L 22.847656 26 L 24.179688 34 L 27.894531 34 L 28.984375 28 L 25 28 L 25 26 L 36.5 26 C 37.328125 26 38 25.328125 38 24.5 C 38 23.671875 37.328125 23 36.5 23 L 31.585938 23 L 29.585938 21 L 24.121094 21 L 16 23 L 9 23 L 9 24.277344 L 14.160156 26 L 19 26 L 19 28 L 13.839844 28 L 7 25.722656 L 7 15 L 11.617188 15 L 14.617188 21 L 15.878906 21 L 21.203125 19.6875 L 23.152344 8 L 28.835938 8 L 30.929688 19.511719 L 32.414062 21 L 36.5 21 C 38.429688 21 40 22.570312 40 24.5 M 42 19 L 42 29 L 40 29 L 40 19 Z M 42 19 "/>
</g>
</svg>
