<?xml version="1.0" encoding="UTF-8"?>
<svg xmlns="http://www.w3.org/2000/svg" xmlns:xlink="http://www.w3.org/1999/xlink" width="48pt" height="48pt" viewBox="0 0 48 48" version="1.1">
<g id="surface1">
<path style=" stroke:none;fill-rule:nonzero;fill:rgb(0%,0%,0%);fill-opacity:1;" d="M 42 19 L 42 29 L 40 29 L 40 19 Z M 24.847656 38 L 24.515625 36 L 27.527344 36 L 27.164062 38 Z M 24 19 L 23.320312 19.167969 L 24.179688 14 L 27.894531 14 L 28.804688 19 Z M 24.847656 10 L 27.164062 10 L 27.527344 12 L 24.515625 12 Z M 9 21 L 9 17 L 10.53125 17 L 13.863281 21 Z M 36.5 21 L 32.414062 21 L 30.929688 19.511719 L 28.835938 8 L 23.152344 8 L 21.203125 19.6875 L 16.367188 20.878906 L 11.46875 15 L 7 15 L 7 25.722656 L 13.839844 28 L 19 28 L 19 26 L 14.160156 26 L 9 24.277344 L 9 23 L 16 23 L 24.121094 21 L 29.585938 21 L 31.585938 23 L 36.5 23 C 37.328125 23 38 23.671875 38 24.5 C 38 25.328125 37.328125 26 36.5 26 L 25 26 L 25 28 L 28.984375 28 L 27.894531 34 L 24.179688 34 L 22.847656 26 L 20.835938 26 L 23.152344 40 L 28.835938 40 L 31.015625 28 L 36.5 28 C 38.429688 28 40 26.429688 40 24.5 C 40 22.570312 38.429688 21 36.5 21 "/>
</g>
</svg>
