<?xml version="1.0" encoding="UTF-8"?>
<svg xmlns="http://www.w3.org/2000/svg" xmlns:xlink="http://www.w3.org/1999/xlink" width="48pt" height="48pt" viewBox="0 0 48 48" version="1.1">
<g id="surface1">
<path style=" stroke:none;fill-rule:nonzero;fill:rgb(0%,0%,0%);fill-opacity:1;" d="M 36.972656 18.023438 C 36.402344 17.375 35.582031 17 34.714844 17 L 29 17 L 29 12.363281 C 29 10.507812 27.492188 9 25.636719 9 C 24.242188 9 22.980469 9.878906 22.488281 11.179688 L 20.167969 17.375 L 16.398438 20.199219 L 17.601562 21.800781 L 21.832031 18.625 L 24.363281 11.882812 C 24.558594 11.355469 25.074219 11 25.636719 11 C 26.390625 11 27 11.613281 27 12.363281 L 27 19 L 34.714844 19 C 35.007812 19 35.277344 19.121094 35.46875 19.339844 C 35.660156 19.5625 35.746094 19.84375 35.707031 20.132812 L 35.457031 22 L 31 22 L 31 24 L 35.191406 24 L 34.792969 27 L 31 27 L 31 29 L 34.523438 29 L 34.125 32 L 16 32 L 16 34 L 35.875 34 L 37.691406 20.394531 C 37.804688 19.539062 37.542969 18.671875 36.972656 18.023438 M 12 19 L 14 19 L 14 34 L 12 34 Z M 12 19 "/>
</g>
</svg>
