<?xml version="1.0" encoding="UTF-8"?>
<svg xmlns="http://www.w3.org/2000/svg" xmlns:xlink="http://www.w3.org/1999/xlink" width="48pt" height="48pt" viewBox="0 0 48 48" version="1.1">
<g id="surface1">
<path style=" stroke:none;fill-rule:nonzero;fill:rgb(0%,0%,0%);fill-opacity:1;" d="M 37.691406 26.601562 L 35.875 13 L 16 13 L 16 15 L 34.125 15 L 34.523438 18 L 31 18 L 31 20 L 34.792969 20 L 35.191406 23 L 31 23 L 31 25 L 35.457031 25 L 35.707031 26.867188 C 35.746094 27.15625 35.660156 27.4375 35.46875 27.660156 C 35.277344 27.878906 35.007812 28 34.714844 28 L 27 28 L 27 34.636719 C 27 35.386719 26.386719 36 25.636719 36 C 25.074219 36 24.558594 35.644531 24.363281 35.117188 L 21.832031 28.375 L 17.601562 25.199219 L 16.398438 26.800781 L 20.167969 29.625 L 22.488281 35.820312 C 22.976562 37.125 24.242188 38 25.636719 38 C 27.492188 38 29 36.492188 29 34.636719 L 29 30 L 34.714844 30 C 35.582031 30 36.402344 29.625 36.972656 28.976562 C 37.542969 28.328125 37.804688 27.460938 37.691406 26.601562 M 12 13 L 14 13 L 14 28 L 12 28 Z M 12 13 "/>
</g>
</svg>
