<?xml version="1.0" encoding="UTF-8"?>
<svg xmlns="http://www.w3.org/2000/svg" xmlns:xlink="http://www.w3.org/1999/xlink" width="48pt" height="48pt" viewBox="0 0 48 48" version="1.1">
<g id="surface1">
<path style=" stroke:none;fill-rule:nonzero;fill:rgb(0%,0%,0%);fill-opacity:1;" d="M 24 33.15625 L 34.605469 22.550781 C 36.554688 20.597656 36.554688 17.425781 34.605469 15.476562 C 32.65625 13.527344 29.484375 13.527344 27.535156 15.476562 L 24 19.011719 L 20.464844 15.476562 C 18.515625 13.527344 15.34375 13.527344 13.394531 15.476562 C 11.445312 17.425781 11.445312 20.597656 13.394531 22.550781 Z M 36.019531 23.964844 L 24 35.984375 L 11.980469 23.964844 C 9.25 21.234375 9.25 16.792969 11.980469 14.0625 C 14.707031 11.335938 19.148438 11.335938 21.878906 14.0625 L 24 16.183594 L 26.121094 14.0625 C 28.851562 11.335938 33.292969 11.335938 36.019531 14.0625 C 38.75 16.792969 38.75 21.234375 36.019531 23.964844 "/>
</g>
</svg>
