<?xml version="1.0" encoding="UTF-8"?>
<svg xmlns="http://www.w3.org/2000/svg" xmlns:xlink="http://www.w3.org/1999/xlink" width="48pt" height="48pt" viewBox="0 0 48 48" version="1.1">
<g id="surface1">
<path style=" stroke:none;fill-rule:nonzero;fill:rgb(0%,0%,0%);fill-opacity:1;" d="M 33.234375 29.980469 L 34.914062 31.066406 C 35.363281 30.375 35.75 29.628906 36.058594 28.859375 L 34.207031 28.113281 C 33.941406 28.761719 33.617188 29.390625 33.234375 29.980469 M 35 24 C 35 24.703125 34.933594 25.410156 34.800781 26.09375 L 36.765625 26.472656 C 36.921875 25.664062 37 24.828125 37 24 Z M 30.328125 33 L 31.476562 34.632812 C 32.15625 34.15625 32.792969 33.613281 33.367188 33.015625 L 31.925781 31.628906 C 31.4375 32.132812 30.902344 32.59375 30.328125 33 M 26.503906 34.710938 L 26.960938 36.660156 C 27.765625 36.472656 28.558594 36.207031 29.316406 35.867188 L 28.5 34.042969 C 27.859375 34.328125 27.1875 34.554688 26.503906 34.710938 M 24.417969 34.992188 L 24.496094 36.992188 C 24.332031 36.996094 24.167969 37 24 37 C 16.832031 37 11 31.167969 11 24 C 11 16.941406 16.660156 11.1875 23.679688 11.015625 L 23.679688 9.511719 L 28 12 L 23.6875 14.5 L 23.683594 13.015625 C 17.765625 13.183594 13 18.042969 13 24 C 13 30.066406 17.933594 35 24 35 C 24.140625 35 24.28125 34.996094 24.417969 34.992188 "/>
</g>
</svg>
