<?xml version="1.0" encoding="UTF-8"?>
<svg xmlns="http://www.w3.org/2000/svg" xmlns:xlink="http://www.w3.org/1999/xlink" width="48pt" height="48pt" viewBox="0 0 48 48" version="1.1">
<g id="surface1">
<path style=" stroke:none;fill-rule:nonzero;fill:rgb(0%,0%,0%);fill-opacity:1;" d="M 27.113281 24 L 22 27.195312 L 22 20.804688 Z M 22.296875 29.367188 L 28.851562 25.273438 C 29.292969 24.996094 29.554688 24.519531 29.554688 24 C 29.554688 23.480469 29.292969 23.003906 28.851562 22.730469 L 22.296875 18.632812 C 21.835938 18.339844 21.25 18.324219 20.773438 18.589844 C 20.296875 18.855469 20 19.355469 20 19.902344 L 20 28.097656 C 20 28.644531 20.296875 29.144531 20.773438 29.410156 C 21 29.535156 21.25 29.597656 21.5 29.597656 C 21.777344 29.597656 22.050781 29.519531 22.296875 29.367188 M 37 37 L 11 37 L 11 11 L 37 11 L 37 13 L 13 13 L 13 35 L 35 35 L 35 15 L 37 15 Z M 37 37 "/>
</g>
</svg>
