<?xml version="1.0" encoding="UTF-8"?>
<svg xmlns="http://www.w3.org/2000/svg" xmlns:xlink="http://www.w3.org/1999/xlink" width="48pt" height="48pt" viewBox="0 0 48 48" version="1.1">
<g id="surface1">
<path style=" stroke:none;fill-rule:nonzero;fill:rgb(0%,0%,0%);fill-opacity:1;" d="M 22 25.5 L 22 28 L 27 28 L 27 25.5 C 27 24.117188 25.882812 23 24.5 23 C 23.117188 23 22 24.117188 22 25.5 M 26 20.5 C 26 19.671875 25.328125 19 24.5 19 C 23.671875 19 23 19.671875 23 20.5 C 23 21.328125 23.671875 22 24.5 22 C 25.328125 22 26 21.328125 26 20.5 M 13 11 L 13 17 L 15 17 L 15 13 L 33 13 L 33 35 L 15 35 L 15 31 L 13 31 L 13 37 L 35 37 L 35 11 Z M 16 27 L 12 27 L 12 29 L 16 29 Z M 16 19 L 12 19 L 12 21 L 16 21 Z M 16 25 L 12 25 L 12 23 L 16 23 Z M 16 25 "/>
</g>
</svg>
