<?xml version="1.0" encoding="UTF-8"?>
<svg xmlns="http://www.w3.org/2000/svg" xmlns:xlink="http://www.w3.org/1999/xlink" width="48pt" height="48pt" viewBox="0 0 48 48" version="1.1">
<g id="surface1">
<path style=" stroke:none;fill-rule:nonzero;fill:rgb(0%,0%,0%);fill-opacity:1;" d="M 40.710938 35.289062 L 39.289062 36.710938 L 37 34.410156 L 34.710938 36.710938 L 33.289062 35.289062 L 35.589844 33 L 33.578125 31 L 33.289062 30.710938 L 34.710938 29.289062 L 36 30.589844 L 37 31.589844 L 38 30.589844 L 39.289062 29.289062 L 40.710938 30.710938 L 38.410156 33 Z M 38 26.078125 L 38 16 L 36 16 L 36 26.078125 C 33.269531 26.460938 31.0625 28.421875 30.289062 31 L 23.589844 31 L 19 35.589844 L 19 31 L 12 31 L 12 14 L 38 14 L 38 12 L 10 12 L 10 33 L 17 33 L 17 38 L 19.410156 38 L 24.410156 33 L 30 33 C 30 36.871094 33.128906 40 37 40 C 40.871094 40 44 36.871094 44 33 C 44 29.46875 41.398438 26.5625 38 26.078125 "/>
</g>
</svg>
