<?xml version="1.0" encoding="UTF-8"?>
<svg xmlns="http://www.w3.org/2000/svg" xmlns:xlink="http://www.w3.org/1999/xlink" width="48pt" height="48pt" viewBox="0 0 48 48" version="1.1">
<g id="surface1">
<path style=" stroke:none;fill-rule:nonzero;fill:rgb(0%,0%,0%);fill-opacity:1;" d="M 30.5 12.765625 L 29.5 14.496094 C 32.894531 16.457031 35 20.101562 35 24 C 35 30.066406 30.066406 35 24 35 C 17.933594 35 13 30.066406 13 24 C 13 20.101562 15.105469 16.457031 18.5 14.496094 L 17.5 12.765625 C 13.488281 15.085938 11 19.390625 11 24 C 11 31.167969 16.832031 37 24 37 C 31.167969 37 37 31.167969 37 24 C 37 19.390625 34.511719 15.085938 30.5 12.765625 M 25 24 L 23 24 L 23 10 L 25 10 Z M 25 24 "/>
</g>
</svg>
