<?xml version="1.0" encoding="UTF-8"?>
<svg xmlns="http://www.w3.org/2000/svg" xmlns:xlink="http://www.w3.org/1999/xlink" width="48pt" height="48pt" viewBox="0 0 48 48" version="1.1">
<g id="surface1">
<path style=" stroke:none;fill-rule:nonzero;fill:rgb(0%,0%,0%);fill-opacity:1;" d="M 24 12 C 17.382812 12 12 17.382812 12 24 C 12 30.617188 17.382812 36 24 36 C 30.617188 36 36 30.617188 36 24 C 36 17.382812 30.617188 12 24 12 M 24 38 C 16.28125 38 10 31.71875 10 24 C 10 16.28125 16.28125 10 24 10 C 31.71875 10 38 16.28125 38 24 C 38 31.71875 31.71875 38 24 38 M 23 31 L 25 31 L 25 29 L 23 29 Z M 25 27 L 23 27 L 23 25.582031 C 23 24.363281 23.691406 23.292969 24.765625 22.851562 C 25.636719 22.488281 26.132812 21.574219 25.96875 20.628906 C 25.828125 19.84375 25.15625 19.171875 24.371094 19.03125 C 23.765625 18.921875 23.175781 19.078125 22.714844 19.46875 C 22.261719 19.847656 22 20.40625 22 21 L 20 21 C 20 19.816406 20.519531 18.699219 21.429688 17.9375 C 22.335938 17.171875 23.527344 16.855469 24.71875 17.0625 C 26.328125 17.347656 27.652344 18.671875 27.9375 20.28125 C 28.265625 22.160156 27.273438 23.976562 25.527344 24.695312 C 25.214844 24.828125 25 25.183594 25 25.582031 Z M 25 27 "/>
</g>
</svg>
