<?xml version="1.0" encoding="UTF-8"?>
<svg xmlns="http://www.w3.org/2000/svg" xmlns:xlink="http://www.w3.org/1999/xlink" width="48pt" height="48pt" viewBox="0 0 48 48" version="1.1">
<g id="surface1">
<path style=" stroke:none;fill-rule:nonzero;fill:rgb(0%,0%,0%);fill-opacity:1;" d="M 23 36 L 25 36 L 25 22 L 23 22 Z M 18 34 L 20 34 L 20 29 L 18 29 Z M 24 16 C 20.691406 16 18 18.691406 18 22 L 18 26 L 20 26 L 20 22 C 20 19.792969 21.792969 18 24 18 C 25.269531 18 26.4375 18.582031 27.199219 19.601562 L 28.800781 18.398438 C 27.65625 16.875 25.90625 16 24 16 M 28 34 L 30 34 L 30 22 L 28 22 Z M 13 22 L 13 32 L 15 32 L 15 22 C 15 20.03125 15.621094 18.167969 16.800781 16.601562 L 15.199219 15.398438 C 13.761719 17.3125 13 19.597656 13 22 M 35 22 L 35 32 L 33 32 L 33 22 C 33 17.035156 28.960938 13 24 13 C 22.035156 13 20.167969 13.621094 18.601562 14.800781 L 17.398438 13.199219 C 19.316406 11.761719 21.597656 11 24 11 C 30.066406 11 35 15.933594 35 22 "/>
</g>
</svg>
