<?xml version="1.0" encoding="UTF-8"?>
<svg xmlns="http://www.w3.org/2000/svg" xmlns:xlink="http://www.w3.org/1999/xlink" width="48pt" height="48pt" viewBox="0 0 48 48" version="1.1">
<g id="surface1">
<path style=" stroke:none;fill-rule:nonzero;fill:rgb(0%,0%,0%);fill-opacity:1;" d="M 38.140625 17.859375 C 34.363281 14.082031 29.34375 12 24 12 C 18.65625 12 13.636719 14.082031 9.859375 17.859375 L 11.273438 19.273438 C 14.671875 15.871094 19.191406 14 24 14 C 28.808594 14 33.328125 15.871094 36.726562 19.273438 Z M 33.898438 22.101562 C 31.253906 19.457031 27.738281 18 24 18 C 20.261719 18 16.746094 19.457031 14.101562 22.101562 L 15.515625 23.515625 C 17.78125 21.25 20.792969 20 24 20 C 27.207031 20 30.21875 21.25 32.484375 23.515625 Z M 29.65625 26.34375 C 26.539062 23.222656 21.460938 23.222656 18.34375 26.34375 L 19.757812 27.757812 C 22.097656 25.417969 25.902344 25.417969 28.242188 27.757812 Z M 26 32 C 26 33.105469 25.105469 34 24 34 C 22.894531 34 22 33.105469 22 32 C 22 30.894531 22.894531 30 24 30 C 25.105469 30 26 30.894531 26 32 "/>
</g>
</svg>
