<?xml version="1.0" encoding="UTF-8"?>
<svg xmlns="http://www.w3.org/2000/svg" xmlns:xlink="http://www.w3.org/1999/xlink" width="48pt" height="48pt" viewBox="0 0 48 48" version="1.1">
<g id="surface1">
<path style=" stroke:none;fill-rule:nonzero;fill:rgb(0%,0%,0%);fill-opacity:1;" d="M 33 20 L 32 20 L 32 23.515625 L 25 28.515625 L 25 34.277344 C 25.59375 34.625 26 35.261719 26 36 C 26 37.105469 25.105469 38 24 38 C 22.894531 38 22 37.105469 22 36 C 22 35.261719 22.40625 34.625 23 34.277344 L 23 31.515625 L 16 26.515625 L 16 22.722656 C 15.40625 22.375 15 21.738281 15 21 C 15 19.894531 15.894531 19 17 19 C 18.105469 19 19 19.894531 19 21 C 19 21.738281 18.59375 22.375 18 22.722656 L 18 25.484375 L 23 29.058594 L 23 15.316406 L 21.507812 15.316406 L 24 11 L 26.492188 15.316406 L 25 15.316406 L 25 26.058594 L 30 22.484375 L 30 20 L 29 20 L 29 16 L 33 16 Z M 33 20 "/>
</g>
</svg>
