<?xml version="1.0" encoding="UTF-8"?>
<svg xmlns="http://www.w3.org/2000/svg" xmlns:xlink="http://www.w3.org/1999/xlink" width="48pt" height="48pt" viewBox="0 0 48 48" version="1.1">
<g id="surface1">
<path style=" stroke:none;fill-rule:nonzero;fill:rgb(0%,0%,0%);fill-opacity:1;" d="M 31 25 L 33 25 L 33 36 L 31 36 Z M 32 21 C 31.449219 21 31 20.550781 31 20 C 31 19.449219 31.449219 19 32 19 C 32.550781 19 33 19.449219 33 20 C 33 20.550781 32.550781 21 32 21 M 33 17.183594 L 33 12 L 31 12 L 31 17.183594 C 29.839844 17.597656 29 18.699219 29 20 C 29 21.652344 30.347656 23 32 23 C 33.652344 23 35 21.652344 35 20 C 35 18.699219 34.160156 17.597656 33 17.183594 M 15 28 L 17 28 L 17 36 L 15 36 Z M 16 24 C 15.449219 24 15 23.550781 15 23 C 15 22.449219 15.449219 22 16 22 C 16.550781 22 17 22.449219 17 23 C 17 23.550781 16.550781 24 16 24 M 17 20.183594 L 17 12 L 15 12 L 15 20.183594 C 13.839844 20.597656 13 21.699219 13 23 C 13 24.652344 14.347656 26 16 26 C 17.652344 26 19 24.652344 19 23 C 19 21.699219 18.160156 20.597656 17 20.183594 M 24 29 C 23.449219 29 23 28.550781 23 28 C 23 27.449219 23.449219 27 24 27 C 24.550781 27 25 27.449219 25 28 C 25 28.550781 24.550781 29 24 29 M 25 25.179688 L 25 12 L 23 12 L 23 25.179688 C 21.839844 25.601562 21 26.699219 21 28 C 21 29.300781 21.839844 30.398438 23 30.820312 L 23 36 L 25 36 L 25 30.820312 C 26.160156 30.398438 27 29.300781 27 28 C 27 26.699219 26.160156 25.601562 25 25.179688 "/>
</g>
</svg>
