<?xml version="1.0" encoding="UTF-8"?>
<svg xmlns="http://www.w3.org/2000/svg" xmlns:xlink="http://www.w3.org/1999/xlink" width="48pt" height="48pt" viewBox="0 0 48 48" version="1.1">
<g id="surface1">
<path style=" stroke:none;fill-rule:nonzero;fill:rgb(0%,0%,0%);fill-opacity:1;" d="M 31.851562 33.265625 L 31.148438 33.96875 L 35 35 L 33.96875 31.148438 L 33.265625 31.851562 L 27.707031 26.292969 L 26.292969 27.707031 Z M 16.851562 33.96875 L 16.148438 33.265625 L 21.707031 27.707031 L 20.292969 26.292969 L 14.734375 31.851562 L 14.03125 31.148438 L 13 35 Z M 27.707031 21.707031 L 33.265625 16.148438 L 33.96875 16.851562 L 35 13 L 31.148438 14.03125 L 31.851562 14.734375 L 26.292969 20.292969 Z M 16.851562 14.03125 L 16.148438 14.734375 L 21.707031 20.292969 L 20.292969 21.707031 L 14.734375 16.148438 L 14.03125 16.851562 L 13 13 Z M 16.851562 14.03125 "/>
</g>
</svg>
