<?xml version="1.0" encoding="UTF-8"?>
<svg xmlns="http://www.w3.org/2000/svg" xmlns:xlink="http://www.w3.org/1999/xlink" width="48pt" height="48pt" viewBox="0 0 48 48" version="1.1">
<g id="surface1">
<path style=" stroke:none;fill-rule:nonzero;fill:rgb(0%,0%,0%);fill-opacity:1;" d="M 30.148438 28.734375 L 30.851562 28.03125 L 27 27 L 28.03125 30.851562 L 28.734375 30.148438 L 34.292969 35.707031 L 35.707031 34.292969 Z M 13.707031 35.707031 L 19.265625 30.148438 L 19.96875 30.851562 L 21 27 L 17.148438 28.03125 L 17.851562 28.734375 L 12.292969 34.292969 Z M 34.292969 12.292969 L 28.734375 17.851562 L 28.03125 17.148438 L 27 21 L 30.851562 19.96875 L 30.148438 19.265625 L 35.707031 13.707031 Z M 17.148438 19.96875 L 17.851562 19.265625 L 12.292969 13.707031 L 13.707031 12.292969 L 19.265625 17.851562 L 19.96875 17.148438 L 21 21 Z M 17.148438 19.96875 "/>
</g>
</svg>
