<?xml version="1.0" encoding="UTF-8"?>
<svg xmlns="http://www.w3.org/2000/svg" xmlns:xlink="http://www.w3.org/1999/xlink" width="48pt" height="48pt" viewBox="0 0 48 48" version="1.1">
<g id="surface1">
<path style=" stroke:none;fill-rule:nonzero;fill:rgb(0%,0%,0%);fill-opacity:1;" d="M 30.5 31.5 C 29.671875 31.5 29 30.828125 29 30 C 29 29.171875 29.671875 28.5 30.5 28.5 C 31.328125 28.5 32 29.171875 32 30 C 32 30.828125 31.328125 31.5 30.5 31.5 M 16.5 33 C 15.671875 33 15 32.328125 15 31.5 C 15 30.671875 15.671875 30 16.5 30 C 17.328125 30 18 30.671875 18 31.5 C 18 32.328125 17.328125 33 16.5 33 M 18 13.632812 L 18 28.351562 C 17.542969 28.132812 17.039062 28 16.5 28 C 14.570312 28 13 29.570312 13 31.5 C 13 33.429688 14.570312 35 16.5 35 C 18.429688 35 20 33.429688 20 31.5 L 20 15.367188 L 32 13.652344 L 32 15.132812 L 22 16.5625 L 22 18.582031 L 32 17.152344 L 32 26.851562 C 31.542969 26.632812 31.039062 26.5 30.5 26.5 C 28.570312 26.5 27 28.070312 27 30 C 27 31.929688 28.570312 33.5 30.5 33.5 C 32.429688 33.5 34 31.929688 34 30 L 34 11.347656 Z M 18 13.632812 "/>
</g>
</svg>
