<?xml version="1.0" encoding="UTF-8"?>
<svg xmlns="http://www.w3.org/2000/svg" xmlns:xlink="http://www.w3.org/1999/xlink" width="48pt" height="48pt" viewBox="0 0 48 48" version="1.1">
<g id="surface1">
<path style=" stroke:none;fill-rule:nonzero;fill:rgb(0%,0%,0%);fill-opacity:1;" d="M 33.117188 19.816406 L 31.703125 21.230469 C 32.394531 21.921875 32.792969 22.929688 32.792969 24 C 32.792969 25.070312 32.394531 26.078125 31.703125 26.769531 L 33.117188 28.183594 C 34.183594 27.121094 34.792969 25.59375 34.792969 24 C 34.792969 22.40625 34.183594 20.878906 33.117188 19.816406 M 26 15.179688 L 19 19.554688 L 19 23 L 17 23 L 17 20 L 15 20 L 15 28 L 17 28 L 17 25 L 19 25 L 19 28.445312 L 26 32.820312 Z M 25.714844 13 L 28 13 L 28 35 L 25.714844 35 L 17.714844 30 L 13 30 L 13 18 L 17.714844 18 Z M 36.128906 31.195312 L 34.714844 29.78125 C 37.738281 26.753906 37.738281 21.246094 34.714844 18.21875 L 36.128906 16.804688 C 39.960938 20.636719 39.960938 27.363281 36.128906 31.195312 "/>
</g>
</svg>
