<?xml version="1.0" encoding="UTF-8"?>
<svg xmlns="http://www.w3.org/2000/svg" xmlns:xlink="http://www.w3.org/1999/xlink" width="48pt" height="48pt" viewBox="0 0 48 48" version="1.1">
<g id="surface1">
<path style=" stroke:none;fill-rule:nonzero;fill:rgb(0%,0%,0%);fill-opacity:1;" d="M 37 37.410156 L 32.289062 32.710938 L 33.710938 31.289062 L 36 33.589844 L 36 29 L 38 29 L 38 33.589844 L 40.289062 31.289062 L 41.710938 32.710938 Z M 38.769531 26.230469 C 39.46875 22.921875 38.589844 19.269531 36.128906 16.808594 L 34.710938 18.21875 C 36.710938 20.21875 37.390625 23.289062 36.738281 26.011719 C 35.839844 26.039062 35 26.238281 34.21875 26.570312 C 34.589844 25.789062 34.789062 24.910156 34.789062 24 C 34.789062 22.410156 34.179688 20.878906 33.121094 19.820312 L 31.699219 21.230469 C 32.398438 21.921875 32.789062 22.929688 32.789062 24 C 32.789062 25.070312 32.398438 26.082031 31.699219 26.769531 L 32.539062 27.609375 C 30.988281 28.890625 30 30.832031 30 33 C 30 36.871094 33.128906 40 37 40 C 40.871094 40 44 36.871094 44 33 C 44 29.738281 41.78125 27.011719 38.769531 26.230469 M 26 32.820312 L 19 28.449219 L 19 25 L 17 25 L 17 28 L 15 28 L 15 20 L 17 20 L 17 23 L 19 23 L 19 19.550781 L 26 15.179688 Z M 17.710938 18 L 13 18 L 13 30 L 17.710938 30 L 25.710938 35 L 28 35 L 28 13 L 25.710938 13 Z M 17.710938 18 "/>
</g>
</svg>
