<?xml version="1.0" encoding="UTF-8"?>
<svg xmlns="http://www.w3.org/2000/svg" xmlns:xlink="http://www.w3.org/1999/xlink" width="48pt" height="48pt" viewBox="0 0 48 48" version="1.1">
<g id="surface1">
<path style=" stroke:none;fill-rule:nonzero;fill:rgb(0%,0%,0%);fill-opacity:1;" d="M 40.707031 20.707031 L 39.292969 19.292969 L 36 22.585938 L 32.707031 19.292969 L 31.292969 20.707031 L 34.585938 24 L 31.292969 27.292969 L 32.707031 28.707031 L 36 25.414062 L 39.292969 28.707031 L 40.707031 27.292969 L 37.414062 24 Z M 26 15.179688 L 19 19.554688 L 19 23 L 17 23 L 17 20 L 15 20 L 15 28 L 17 28 L 17 25 L 19 25 L 19 28.445312 L 26 32.820312 Z M 25.714844 13 L 28 13 L 28 35 L 25.714844 35 L 17.714844 30 L 13 30 L 13 18 L 17.714844 18 Z M 25.714844 13 "/>
</g>
</svg>
