<?xml version="1.0" encoding="UTF-8"?>
<svg xmlns="http://www.w3.org/2000/svg" xmlns:xlink="http://www.w3.org/1999/xlink" width="48pt" height="48pt" viewBox="0 0 48 48" version="1.1">
<g id="surface1">
<path style=" stroke:none;fill-rule:nonzero;fill:rgb(0%,0%,0%);fill-opacity:1;" d="M 36 24.734375 C 36 25.3125 35.527344 25.785156 34.949219 25.785156 C 33.882812 25.785156 32.945312 26.421875 32.558594 27.402344 L 32.453125 27.65625 C 32.039062 28.621094 32.253906 29.730469 33.003906 30.480469 C 33.414062 30.890625 33.414062 31.554688 33.003906 31.964844 L 31.964844 33.003906 C 31.554688 33.414062 30.890625 33.414062 30.480469 33.003906 C 29.730469 32.253906 28.617188 32.039062 27.660156 32.453125 L 27.402344 32.558594 C 26.421875 32.945312 25.785156 33.882812 25.785156 34.949219 C 25.785156 35.527344 25.3125 36 24.734375 36 L 23.265625 36 C 22.6875 36 22.214844 35.527344 22.214844 34.949219 C 22.214844 33.882812 21.578125 32.945312 20.597656 32.558594 L 20.347656 32.453125 C 20.019531 32.3125 19.675781 32.246094 19.335938 32.246094 C 18.671875 32.246094 18.015625 32.507812 17.519531 33.003906 C 17.109375 33.414062 16.445312 33.414062 16.035156 33.003906 L 14.996094 31.964844 C 14.585938 31.554688 14.585938 30.890625 14.996094 30.480469 C 15.746094 29.730469 15.960938 28.621094 15.546875 27.652344 L 15.441406 27.402344 C 15.054688 26.421875 14.117188 25.785156 13.050781 25.785156 C 12.472656 25.785156 12 25.3125 12 24.734375 L 12 23.265625 C 12 22.683594 12.472656 22.214844 13.050781 22.214844 C 14.117188 22.214844 15.054688 21.578125 15.441406 20.597656 L 15.546875 20.34375 C 15.960938 19.378906 15.746094 18.269531 14.996094 17.519531 C 14.585938 17.109375 14.585938 16.445312 14.996094 16.035156 L 16.035156 14.996094 C 16.445312 14.585938 17.109375 14.585938 17.519531 14.996094 C 18.269531 15.746094 19.378906 15.960938 20.339844 15.546875 L 20.597656 15.441406 C 21.578125 15.054688 22.214844 14.117188 22.214844 13.050781 C 22.214844 12.472656 22.6875 12 23.265625 12 L 24.734375 12 C 25.3125 12 25.785156 12.472656 25.785156 13.050781 C 25.785156 14.117188 26.421875 15.054688 27.402344 15.441406 L 27.652344 15.546875 C 28.621094 15.960938 29.730469 15.746094 30.480469 14.996094 C 30.890625 14.585938 31.554688 14.585938 31.964844 14.996094 L 33.003906 16.035156 C 33.414062 16.445312 33.414062 17.109375 33.003906 17.519531 C 32.253906 18.269531 32.039062 19.378906 32.453125 20.347656 L 32.558594 20.597656 C 32.945312 21.578125 33.882812 22.214844 34.949219 22.214844 C 35.527344 22.214844 36 22.683594 36 23.265625 Z M 34.949219 20.214844 C 34.714844 20.214844 34.5 20.074219 34.417969 19.863281 L 34.292969 19.558594 C 34.199219 19.347656 34.25 19.101562 34.417969 18.933594 C 35.609375 17.746094 35.609375 15.808594 34.417969 14.621094 L 33.378906 13.582031 C 32.191406 12.390625 30.253906 12.390625 29.066406 13.582031 C 28.898438 13.75 28.652344 13.796875 28.4375 13.707031 L 28.136719 13.582031 C 27.925781 13.5 27.785156 13.289062 27.785156 13.050781 C 27.785156 11.367188 26.417969 10 24.734375 10 L 23.265625 10 C 21.582031 10 20.214844 11.371094 20.214844 13.050781 C 20.214844 13.285156 20.074219 13.5 19.859375 13.585938 L 19.558594 13.707031 C 19.34375 13.800781 19.101562 13.75 18.933594 13.582031 C 17.746094 12.390625 15.808594 12.390625 14.621094 13.582031 L 13.582031 14.621094 C 12.390625 15.808594 12.390625 17.746094 13.582031 18.933594 C 13.75 19.101562 13.800781 19.347656 13.710938 19.554688 L 13.582031 19.863281 C 13.496094 20.078125 13.289062 20.214844 13.050781 20.214844 C 11.367188 20.214844 10 21.582031 10 23.265625 L 10 24.734375 C 10 26.417969 11.367188 27.785156 13.050781 27.785156 C 13.285156 27.785156 13.5 27.925781 13.582031 28.136719 L 13.707031 28.441406 C 13.800781 28.652344 13.75 28.898438 13.582031 29.066406 C 12.390625 30.253906 12.390625 32.191406 13.582031 33.378906 L 14.621094 34.417969 C 15.808594 35.609375 17.746094 35.609375 18.933594 34.417969 C 19.101562 34.253906 19.347656 34.203125 19.5625 34.292969 L 19.863281 34.417969 C 20.074219 34.503906 20.214844 34.710938 20.214844 34.949219 C 20.214844 36.632812 21.582031 38 23.265625 38 L 24.734375 38 C 26.417969 38 27.785156 36.628906 27.785156 34.949219 C 27.785156 34.714844 27.925781 34.5 28.140625 34.417969 L 28.441406 34.292969 C 28.652344 34.199219 28.898438 34.25 29.066406 34.417969 C 30.253906 35.609375 32.191406 35.609375 33.378906 34.417969 L 34.417969 33.378906 C 35.609375 32.191406 35.609375 30.253906 34.417969 29.066406 C 34.25 28.898438 34.199219 28.652344 34.289062 28.445312 L 34.417969 28.136719 C 34.503906 27.921875 34.710938 27.785156 34.949219 27.785156 C 36.632812 27.785156 38 26.417969 38 24.734375 L 38 23.265625 C 38 21.582031 36.632812 20.214844 34.949219 20.214844 M 24 29 C 21.242188 29 19 26.757812 19 24 C 19 21.242188 21.242188 19 24 19 C 26.757812 19 29 21.242188 29 24 C 29 26.757812 26.757812 29 24 29 M 24 17 C 20.140625 17 17 20.140625 17 24 C 17 27.859375 20.140625 31 24 31 C 27.859375 31 31 27.859375 31 24 C 31 20.140625 27.859375 17 24 17 "/>
</g>
</svg>
