<?xml version="1.0" encoding="UTF-8"?>
<svg xmlns="http://www.w3.org/2000/svg" xmlns:xlink="http://www.w3.org/1999/xlink" width="48pt" height="48pt" viewBox="0 0 48 48" version="1.1">
<g id="surface1">
<path style=" stroke:none;fill-rule:nonzero;fill:rgb(0%,0%,0%);fill-opacity:1;" d="M 32 17 C 31.96875 17 31.9375 17.003906 31.910156 17.003906 C 31.355469 13.617188 28.023438 11 24 11 C 19.976562 11 16.644531 13.617188 16.089844 17.003906 C 16.0625 17.003906 16.03125 17 16 17 C 12.691406 17 10 19.691406 10 23 C 10 26.308594 12.691406 29 16 29 L 20 29 L 20 27 L 16 27 C 13.792969 27 12 25.207031 12 23 C 12 20.792969 13.792969 19 16 19 C 18.207031 19 20 20.792969 20 23 L 22 23 C 22 20.414062 20.351562 18.210938 18.054688 17.367188 C 18.425781 14.910156 20.949219 13 24 13 C 27.050781 13 29.574219 14.910156 29.945312 17.367188 C 27.648438 18.210938 26 20.414062 26 23 L 28 23 C 28 20.792969 29.792969 19 32 19 C 34.207031 19 36 20.792969 36 23 C 36 25.207031 34.207031 27 32 27 L 28 27 L 28 29 L 32 29 C 35.308594 29 38 26.308594 38 23 C 38 19.691406 35.308594 17 32 17 M 25 34.546875 L 25.992188 34.546875 L 24 38 L 22.007812 34.546875 L 23 34.546875 L 23 27 L 25 27 Z M 25 34.546875 "/>
</g>
</svg>
