<?xml version="1.0" encoding="UTF-8"?>
<svg xmlns="http://www.w3.org/2000/svg" xmlns:xlink="http://www.w3.org/1999/xlink" width="48pt" height="48pt" viewBox="0 0 48 48" version="1.1">
<g id="surface1">
<path style=" stroke:none;fill-rule:nonzero;fill:rgb(0%,0%,0%);fill-opacity:1;" d="M 15.292969 24.707031 C 14.902344 24.316406 14.902344 23.683594 15.292969 23.292969 C 15.488281 23.097656 15.742188 23 16 23 C 16.257812 23 16.511719 23.097656 16.707031 23.292969 C 17.097656 23.683594 17.097656 24.316406 16.707031 24.707031 C 16.316406 25.097656 15.683594 25.097656 15.292969 24.707031 M 25.445312 16.167969 L 17.542969 21.4375 C 16.390625 20.746094 14.871094 20.886719 13.878906 21.878906 C 12.710938 23.050781 12.710938 24.949219 13.878906 26.121094 C 14.464844 26.707031 15.230469 26.996094 16 26.996094 C 16.535156 26.996094 17.066406 26.847656 17.539062 26.5625 L 25.445312 31.832031 L 26.554688 30.167969 L 18.816406 25.007812 C 19.046875 24.355469 19.046875 23.644531 18.816406 22.992188 L 26.554688 17.832031 Z M 30.707031 33.707031 C 30.316406 34.097656 29.683594 34.097656 29.292969 33.707031 C 28.902344 33.316406 28.902344 32.683594 29.292969 32.292969 C 29.488281 32.097656 29.742188 32 30 32 C 30.257812 32 30.511719 32.097656 30.707031 32.292969 C 31.097656 32.683594 31.097656 33.316406 30.707031 33.707031 M 27.878906 30.878906 C 26.710938 32.050781 26.710938 33.949219 27.878906 35.121094 C 28.464844 35.707031 29.230469 35.996094 30 35.996094 C 30.769531 35.996094 31.535156 35.707031 32.121094 35.121094 C 33.289062 33.949219 33.289062 32.050781 32.121094 30.878906 C 30.949219 29.710938 29.050781 29.710938 27.878906 30.878906 M 30.707031 15.707031 C 30.316406 16.097656 29.683594 16.097656 29.292969 15.707031 C 28.902344 15.316406 28.902344 14.683594 29.292969 14.292969 C 29.488281 14.097656 29.742188 14 30 14 C 30.257812 14 30.511719 14.097656 30.707031 14.292969 C 31.097656 14.683594 31.097656 15.316406 30.707031 15.707031 M 32.121094 12.878906 C 30.949219 11.710938 29.050781 11.710938 27.878906 12.878906 C 26.710938 14.050781 26.710938 15.949219 27.878906 17.121094 C 28.464844 17.707031 29.230469 17.996094 30 17.996094 C 30.769531 17.996094 31.535156 17.707031 32.121094 17.121094 C 33.289062 15.949219 33.289062 14.050781 32.121094 12.878906 "/>
</g>
</svg>
