<?xml version="1.0" encoding="UTF-8"?>
<svg xmlns="http://www.w3.org/2000/svg" xmlns:xlink="http://www.w3.org/1999/xlink" width="48pt" height="48pt" viewBox="0 0 48 48" version="1.1">
<g id="surface1">
<path style=" stroke:none;fill-rule:nonzero;fill:rgb(0%,0%,0%);fill-opacity:1;" d="M 24 13 C 25.105469 13 26 13.898438 26 15 C 26 16.101562 25.105469 17 24 17 C 22.894531 17 22 16.101562 22 15 C 22 13.898438 22.894531 13 24 13 M 24 19 C 26.203125 19 28 17.207031 28 15 C 28 12.792969 26.203125 11 24 11 C 21.796875 11 20 12.792969 20 15 C 20 17.207031 21.796875 19 24 19 M 33 33 L 15 33 L 15 27.003906 C 15 24.796875 16.796875 23 19.003906 23 L 28.996094 23 C 31.203125 23 33 24.796875 33 27.003906 Z M 28.996094 21 L 19.003906 21 C 15.691406 21 13 23.691406 13 27.003906 L 13 35 L 35 35 L 35 27.003906 C 35 23.691406 32.308594 21 28.996094 21 "/>
</g>
</svg>
