<?xml version="1.0" encoding="UTF-8"?>
<svg xmlns="http://www.w3.org/2000/svg" xmlns:xlink="http://www.w3.org/1999/xlink" width="48pt" height="48pt" viewBox="0 0 48 48" version="1.1">
<g id="surface1">
<path style=" stroke:none;fill-rule:nonzero;fill:rgb(0%,0%,0%);fill-opacity:1;" d="M 22 24 C 22 25.101562 22.894531 26 24 26 C 25.105469 26 26 25.101562 26 24 L 26 14 C 26 12.898438 25.105469 12 24 12 C 22.894531 12 22 12.898438 22 14 Z M 20 24 L 20 14 C 20 11.792969 21.796875 10 24 10 C 26.203125 10 28 11.792969 28 14 L 28 24 C 28 26.207031 26.203125 28 24 28 C 21.796875 28 20 26.207031 20 24 M 25 31.929688 L 25 34 L 28 34 L 28 36 L 20 36 L 20 34 L 23 34 L 23 31.929688 C 19.0625 31.4375 16 28.070312 16 24 L 18 24 C 18 27.308594 20.691406 30 24 30 C 27.308594 30 30 27.308594 30 24 L 32 24 C 32 28.070312 28.9375 31.4375 25 31.929688 "/>
</g>
</svg>
