<?xml version="1.0" encoding="UTF-8"?>
<svg xmlns="http://www.w3.org/2000/svg" xmlns:xlink="http://www.w3.org/1999/xlink" width="48pt" height="48pt" viewBox="0 0 48 48" version="1.1">
<g id="surface1">
<path style=" stroke:none;fill-rule:nonzero;fill:rgb(0%,0%,0%);fill-opacity:1;" d="M 24 11 C 19.035156 11 15 15.035156 15 20 C 15 26.300781 21.808594 33.476562 24 35.621094 C 26.1875 33.472656 33 26.289062 33 20 C 33 15.035156 28.964844 11 24 11 M 24 38.347656 L 23.332031 37.742188 C 22.910156 37.363281 13 28.351562 13 20 C 13 13.933594 17.933594 9 24 9 C 30.066406 9 35 13.933594 35 20 C 35 28.351562 25.089844 37.363281 24.667969 37.742188 Z M 24 16 C 21.792969 16 20 17.792969 20 20 C 20 22.207031 21.792969 24 24 24 C 26.207031 24 28 22.207031 28 20 C 28 17.792969 26.207031 16 24 16 M 24 26 C 20.691406 26 18 23.308594 18 20 C 18 16.691406 20.691406 14 24 14 C 27.308594 14 30 16.691406 30 20 C 30 23.308594 27.308594 26 24 26 "/>
</g>
</svg>
