<?xml version="1.0" encoding="UTF-8"?>
<svg xmlns="http://www.w3.org/2000/svg" xmlns:xlink="http://www.w3.org/1999/xlink" width="48pt" height="48pt" viewBox="0 0 48 48" version="1.1">
<g id="surface1">
<path style=" stroke:none;fill-rule:nonzero;fill:rgb(0%,0%,0%);fill-opacity:1;" d="M 25.5 12 C 26.878906 12 28 13.121094 28 14.5 C 28 15.878906 26.878906 17 25.5 17 C 24.121094 17 23 15.878906 23 14.5 C 23 13.121094 24.121094 12 25.5 12 M 25.5 19 C 27.980469 19 30 16.980469 30 14.5 C 30 12.019531 27.980469 10 25.5 10 C 23.019531 10 21 12.019531 21 14.5 C 21 16.980469 23.019531 19 25.5 19 M 16.5 17 C 15.121094 17 14 15.878906 14 14.5 C 14 13.121094 15.121094 12 16.5 12 C 17.878906 12 19 13.121094 19 14.5 C 19 15.878906 17.878906 17 16.5 17 M 21 14.5 C 21 12.019531 18.980469 10 16.5 10 C 14.019531 10 12 12.019531 12 14.5 C 12 16.980469 14.019531 19 16.5 19 C 18.980469 19 21 16.980469 21 14.5 M 38 34.132812 L 34 31.464844 L 34 24.535156 L 38 21.867188 Z M 32.003906 35 L 12 35 L 12 29 L 26 29 L 26 27 L 12 27 L 12 21 L 32 21 L 32 32.535156 Z M 38.945312 20.105469 C 38.292969 19.757812 37.507812 19.792969 36.890625 20.203125 L 34 22.132812 L 34 21 C 34 19.898438 33.105469 19 32 19 L 10 19 L 10 37 L 32 37 C 33.105469 37 34 36.101562 34 35 L 34 33.867188 L 36.890625 35.796875 C 37.226562 36.019531 37.613281 36.132812 38 36.132812 C 38.324219 36.132812 38.648438 36.054688 38.945312 35.894531 C 39.597656 35.546875 40 34.871094 40 34.132812 L 40 21.867188 C 40 21.128906 39.597656 20.453125 38.945312 20.105469 "/>
</g>
</svg>
