<?xml version="1.0" encoding="UTF-8"?>
<svg xmlns="http://www.w3.org/2000/svg" xmlns:xlink="http://www.w3.org/1999/xlink" width="48pt" height="48pt" viewBox="0 0 48 48" version="1.1">
<g id="surface1">
<path style=" stroke:none;fill-rule:nonzero;fill:rgb(0%,0%,0%);fill-opacity:1;" d="M 35 22 L 32 22 L 32 20 L 35 20 Z M 24 30 C 21.792969 30 20 28.207031 20 26 C 20 23.792969 21.792969 22 24 22 C 26.207031 22 28 23.792969 28 26 C 28 28.207031 26.207031 30 24 30 M 24 20 C 20.691406 20 18 22.691406 18 26 C 18 29.308594 20.691406 32 24 32 C 27.308594 32 30 29.308594 30 26 C 30 22.691406 27.308594 20 24 20 M 37 35 L 11 35 L 11 17 L 37 17 Z M 20.617188 13 L 27.382812 13 L 28.382812 15 L 19.617188 15 Z M 30.617188 15 L 28.617188 11 L 19.382812 11 L 17.382812 15 L 9 15 L 9 37 L 39 37 L 39 15 Z M 30.617188 15 "/>
</g>
</svg>
