<?xml version="1.0" encoding="UTF-8"?>
<svg xmlns="http://www.w3.org/2000/svg" xmlns:xlink="http://www.w3.org/1999/xlink" width="48pt" height="48pt" viewBox="0 0 48 48" version="1.1">
<g id="surface1">
<path style=" stroke:none;fill-rule:nonzero;fill:rgb(0%,0%,0%);fill-opacity:1;" d="M 26.335938 26.382812 L 26.382812 26.335938 Z M 20 27 C 16.140625 27 13 23.859375 13 20 C 13 16.140625 16.140625 13 20 13 C 23.859375 13 27 16.140625 27 20 C 27 23.859375 23.859375 27 20 27 M 27.03125 25.609375 C 27.023438 25.621094 27.011719 25.628906 27.003906 25.640625 C 28.25 24.09375 29 22.136719 29 20 C 29 15.035156 24.960938 11 20 11 C 15.039062 11 11 15.035156 11 20 C 11 24.960938 15.039062 29 20 29 C 22.136719 29 24.09375 28.25 25.640625 27.003906 C 25.628906 27.011719 25.621094 27.023438 25.609375 27.03125 L 35.289062 36.710938 L 36.710938 35.289062 Z M 27.03125 25.609375 "/>
</g>
</svg>
