<?xml version="1.0" encoding="UTF-8"?>
<svg xmlns="http://www.w3.org/2000/svg" xmlns:xlink="http://www.w3.org/1999/xlink" width="48pt" height="48pt" viewBox="0 0 48 48" version="1.1">
<g id="surface1">
<path style=" stroke:none;fill-rule:nonzero;fill:rgb(0%,0%,0%);fill-opacity:1;" d="M 36.527344 30.160156 C 36.527344 31.765625 35.902344 33.269531 34.769531 34.402344 C 33.636719 35.539062 32.128906 36.160156 30.527344 36.160156 C 28.925781 36.160156 27.417969 35.539062 26.285156 34.402344 L 12.496094 20.617188 C 11.132812 19.253906 11.132812 17.03125 12.496094 15.667969 C 13.863281 14.304688 16.082031 14.300781 17.445312 15.667969 L 31.234375 29.457031 L 29.820312 30.867188 L 16.03125 17.082031 C 15.445312 16.496094 14.496094 16.496094 13.910156 17.082031 C 13.628906 17.363281 13.472656 17.738281 13.472656 18.140625 C 13.472656 18.542969 13.628906 18.917969 13.910156 19.203125 L 27.699219 32.988281 C 29.210938 34.503906 31.847656 34.503906 33.355469 32.988281 C 34.113281 32.234375 34.527344 31.230469 34.527344 30.160156 C 34.527344 29.09375 34.113281 28.089844 33.355469 27.335938 L 19.566406 13.546875 L 20.980469 12.132812 L 34.769531 25.921875 C 35.902344 27.054688 36.527344 28.558594 36.527344 30.160156 "/>
</g>
</svg>
