<?xml version="1.0" encoding="UTF-8"?>
<svg xmlns="http://www.w3.org/2000/svg" xmlns:xlink="http://www.w3.org/1999/xlink" width="48pt" height="48pt" viewBox="0 0 48 48" version="1.1">
<g id="surface1">
<path style=" stroke:none;fill-rule:nonzero;fill:rgb(0%,0%,0%);fill-opacity:1;" d="M 17 34 L 20 34 L 20 14 L 17 14 Z M 20.5 36 L 16.5 36 C 15.671875 36 15 35.328125 15 34.5 L 15 13.5 C 15 12.671875 15.671875 12 16.5 12 L 20.5 12 C 21.328125 12 22 12.671875 22 13.5 L 22 34.5 C 22 35.328125 21.328125 36 20.5 36 "/>
<path style=" stroke:none;fill-rule:nonzero;fill:rgb(0%,0%,0%);fill-opacity:1;" d="M 28 34 L 31 34 L 31 14 L 28 14 Z M 31.5 36 L 27.5 36 C 26.671875 36 26 35.328125 26 34.5 L 26 13.5 C 26 12.671875 26.671875 12 27.5 12 L 31.5 12 C 32.328125 12 33 12.671875 33 13.5 L 33 34.5 C 33 35.328125 32.328125 36 31.5 36 "/>
</g>
</svg>
