<?xml version="1.0" encoding="UTF-8"?>
<svg xmlns="http://www.w3.org/2000/svg" xmlns:xlink="http://www.w3.org/1999/xlink" width="48pt" height="48pt" viewBox="0 0 48 48" version="1.1">
<g id="surface1">
<path style=" stroke:none;fill-rule:nonzero;fill:rgb(0%,0%,0%);fill-opacity:1;" d="M 24 32.738281 L 24 15.261719 L 36.785156 24 Z M 12 32.738281 L 12 15.261719 L 22 22.097656 L 22 25.902344 Z M 38.246094 22.574219 L 24.664062 13.292969 C 24.144531 12.941406 23.476562 12.902344 22.917969 13.195312 C 22.351562 13.496094 22 14.085938 22 14.730469 L 22 19.675781 L 12.664062 13.292969 C 12.144531 12.941406 11.476562 12.902344 10.917969 13.195312 C 10.351562 13.496094 10 14.085938 10 14.730469 L 10 33.269531 C 10 33.917969 10.351562 34.503906 10.917969 34.804688 C 11.167969 34.933594 11.441406 35 11.710938 35 C 12.042969 35 12.378906 34.902344 12.664062 34.707031 L 22 28.324219 L 22 33.269531 C 22 33.917969 22.351562 34.503906 22.917969 34.804688 C 23.167969 34.933594 23.441406 35 23.710938 35 C 24.042969 35 24.378906 34.902344 24.664062 34.707031 L 38.238281 25.429688 C 38.71875 25.113281 39.003906 24.578125 39.003906 24 C 39.003906 23.417969 38.710938 22.878906 38.246094 22.574219 "/>
</g>
</svg>
