<?xml version="1.0" encoding="UTF-8"?>
<svg xmlns="http://www.w3.org/2000/svg" xmlns:xlink="http://www.w3.org/1999/xlink" width="48pt" height="48pt" viewBox="0 0 48 48" version="1.1">
<g id="surface1">
<path style=" stroke:none;fill-rule:nonzero;fill:rgb(0%,0%,0%);fill-opacity:1;" d="M 36 32.734375 L 26 25.902344 L 26 22.097656 L 36 15.261719 Z M 24 32.734375 L 11.214844 24 L 24 15.261719 Z M 37.078125 13.195312 C 36.523438 12.902344 35.855469 12.9375 35.335938 13.296875 L 26 19.675781 L 26 14.730469 C 26 14.085938 25.648438 13.496094 25.078125 13.195312 C 24.523438 12.902344 23.855469 12.9375 23.335938 13.296875 L 9.765625 22.570312 C 9.285156 22.886719 8.996094 23.421875 8.996094 24 C 8.996094 24.582031 9.285156 25.121094 9.757812 25.425781 L 23.335938 34.707031 C 23.625 34.902344 23.957031 35 24.289062 35 C 24.5625 35 24.832031 34.933594 25.082031 34.804688 C 25.648438 34.503906 26 33.917969 26 33.269531 L 26 28.324219 L 35.335938 34.707031 C 35.625 34.902344 35.957031 35 36.289062 35 C 36.5625 35 36.832031 34.933594 37.082031 34.804688 C 37.648438 34.503906 38 33.917969 38 33.269531 L 38 14.730469 C 38 14.085938 37.648438 13.496094 37.078125 13.195312 "/>
</g>
</svg>
