<?xml version="1.0" encoding="UTF-8"?>
<svg xmlns="http://www.w3.org/2000/svg" xmlns:xlink="http://www.w3.org/1999/xlink" width="48pt" height="48pt" viewBox="0 0 48 48" version="1.1">
<g id="surface1">
<path style=" stroke:none;fill-rule:nonzero;fill:rgb(0%,0%,0%);fill-opacity:1;" d="M 13 22 C 11.894531 22 11 22.894531 11 24 C 11 25.105469 11.894531 26 13 26 C 14.105469 26 15 25.105469 15 24 C 15 22.894531 14.105469 22 13 22 M 35 22 C 33.894531 22 33 22.894531 33 24 C 33 25.105469 33.894531 26 35 26 C 36.105469 26 37 25.105469 37 24 C 37 22.894531 36.105469 22 35 22 M 26 24 C 26 25.105469 25.105469 26 24 26 C 22.894531 26 22 25.105469 22 24 C 22 22.894531 22.894531 22 24 22 C 25.105469 22 26 22.894531 26 24 "/>
</g>
</svg>
