<?xml version="1.0" encoding="UTF-8"?>
<svg xmlns="http://www.w3.org/2000/svg" xmlns:xlink="http://www.w3.org/1999/xlink" width="48pt" height="48pt" viewBox="0 0 48 48" version="1.1">
<g id="surface1">
<path style=" stroke:none;fill-rule:nonzero;fill:rgb(0%,0%,0%);fill-opacity:1;" d="M 32 37 L 16 37 L 16 33.636719 L 28.015625 22.773438 C 29.433594 21.492188 30.160156 19.726562 29.960938 18.046875 C 29.941406 17.886719 29.914062 17.71875 29.878906 17.550781 C 29.421875 15.324219 27.539062 13.539062 25.199219 13.109375 C 23.164062 12.742188 21.175781 13.3125 19.742188 14.6875 C 18.617188 15.769531 18 17.199219 18 18.71875 L 16 18.71875 C 16 16.648438 16.835938 14.707031 18.359375 13.246094 C 20.261719 11.421875 22.886719 10.652344 25.5625 11.144531 C 28.695312 11.71875 31.21875 14.132812 31.839844 17.148438 C 31.882812 17.371094 31.921875 17.59375 31.945312 17.8125 C 32.222656 20.136719 31.253906 22.542969 29.355469 24.257812 L 18 34.523438 L 18 35 L 32 35 Z M 32 37 "/>
</g>
</svg>
