<?xml version="1.0" encoding="UTF-8"?>
<svg xmlns="http://www.w3.org/2000/svg" xmlns:xlink="http://www.w3.org/1999/xlink" width="48pt" height="48pt" viewBox="0 0 48 48" version="1.1">
<g id="surface1">
<path style=" stroke:none;fill-rule:nonzero;fill:rgb(0%,0%,0%);fill-opacity:1;" d="M 29.429688 24.699219 C 28.914062 24.191406 28.339844 23.773438 27.726562 23.4375 C 29.828125 22.167969 31.242188 19.871094 31.242188 17.242188 C 31.242188 13.25 27.992188 10 24 10 C 22.035156 10 20.199219 10.769531 18.828125 12.171875 C 17.492188 13.535156 16.757812 15.335938 16.757812 17.242188 L 18.757812 17.242188 C 18.757812 15.859375 19.292969 14.558594 20.257812 13.574219 C 21.25 12.558594 22.578125 12 24 12 C 26.890625 12 29.242188 14.351562 29.242188 17.242188 C 29.242188 20.128906 26.890625 22.480469 24 22.480469 L 21.101562 22.480469 L 21.101562 24.480469 L 24 24.480469 C 25.515625 24.480469 26.949219 25.0625 28.03125 26.125 C 29.144531 27.21875 29.757812 28.679688 29.757812 30.242188 C 29.757812 33.417969 27.175781 36 24 36 C 20.824219 36 18.242188 33.417969 18.242188 30.242188 L 16.242188 30.242188 C 16.242188 34.519531 19.722656 38 24 38 C 28.277344 38 31.757812 34.519531 31.757812 30.242188 C 31.757812 28.136719 30.933594 26.167969 29.429688 24.699219 "/>
</g>
</svg>
