<?xml version="1.0" encoding="UTF-8"?>
<svg xmlns="http://www.w3.org/2000/svg" xmlns:xlink="http://www.w3.org/1999/xlink" width="48pt" height="48pt" viewBox="0 0 48 48" version="1.1">
<g id="surface1">
<path style=" stroke:none;fill-rule:nonzero;fill:rgb(0%,0%,0%);fill-opacity:1;" d="M 24 38 C 19.589844 38 16 34.410156 16 30 L 18 30 C 18 33.308594 20.691406 36 24 36 C 27.308594 36 30 33.308594 30 30 L 30 26 C 30 22.691406 27.308594 20 24 20 C 22.375 20 20.851562 20.640625 19.714844 21.800781 C 18.609375 22.929688 18 24.421875 18 26 L 16 26 L 16 11 L 31 11 L 31 13 L 18 13 L 18 20.710938 C 18.09375 20.605469 18.1875 20.503906 18.285156 20.402344 C 19.804688 18.851562 21.832031 18 24 18 C 28.410156 18 32 21.589844 32 26 L 32 30 C 32 34.410156 28.410156 38 24 38 "/>
</g>
</svg>
