<?xml version="1.0" encoding="UTF-8"?>
<svg xmlns="http://www.w3.org/2000/svg" xmlns:xlink="http://www.w3.org/1999/xlink" width="48pt" height="48pt" viewBox="0 0 48 48" version="1.1">
<g id="surface1">
<path style=" stroke:none;fill-rule:nonzero;fill:rgb(0%,0%,0%);fill-opacity:1;" d="M 24 36 C 20.96875 36 18.5 33.53125 18.5 30.5 C 18.5 27.46875 20.96875 25 24 25 C 27.03125 25 29.5 27.46875 29.5 30.5 C 29.5 33.53125 27.03125 36 24 36 M 19 18 C 19 15.242188 21.242188 13 24 13 C 26.757812 13 29 15.242188 29 18 C 29 20.757812 26.757812 23 24 23 C 21.242188 23 19 20.757812 19 18 M 27.65625 23.957031 C 29.65625 22.726562 31 20.519531 31 18 C 31 14.140625 27.859375 11 24 11 C 20.140625 11 17 14.140625 17 18 C 17 20.519531 18.34375 22.726562 20.34375 23.957031 C 18.054688 25.242188 16.5 27.691406 16.5 30.5 C 16.5 34.636719 19.863281 38 24 38 C 28.136719 38 31.5 34.636719 31.5 30.5 C 31.5 27.691406 29.945312 25.242188 27.65625 23.957031 "/>
</g>
</svg>
