<?xml version="1.0" encoding="UTF-8"?>
<svg xmlns="http://www.w3.org/2000/svg" xmlns:xlink="http://www.w3.org/1999/xlink" width="48pt" height="48pt" viewBox="0 0 48 48" version="1.1">
<g id="surface1">
<path style=" stroke:none;fill-rule:nonzero;fill:rgb(0%,0%,0%);fill-opacity:1;" d="M 24 13 C 20.691406 13 18 15.691406 18 19 L 18 30 C 18 33.308594 20.691406 36 24 36 C 27.308594 36 30 33.308594 30 30 L 30 19 C 30 15.691406 27.308594 13 24 13 M 24 38 C 19.589844 38 16 34.410156 16 30 L 16 19 C 16 14.589844 19.589844 11 24 11 C 28.410156 11 32 14.589844 32 19 L 32 30 C 32 34.410156 28.410156 38 24 38 "/>
</g>
</svg>
