<?xml version="1.0" encoding="UTF-8"?>
<svg xmlns="http://www.w3.org/2000/svg" xmlns:xlink="http://www.w3.org/1999/xlink" width="48pt" height="48pt" viewBox="0 0 48 48" version="1.1">
<g id="surface1">
<path style=" stroke:none;fill-rule:nonzero;fill:rgb(0%,0%,0%);fill-opacity:1;" d="M 36 11 L 34 11 L 34 37 L 36 37 Z M 32 11 L 30 11 L 30 37 L 32 37 Z M 25 33 L 23 33 L 23 37 L 25 37 Z M 25 26 L 23 26 L 23 30 L 25 30 Z M 25 18 L 23 18 L 23 22 L 25 22 Z M 25 11 L 23 11 L 23 15 L 25 15 Z M 18 11 L 16 11 L 16 37 L 18 37 Z M 14 37 L 12 37 L 12 11 L 14 11 Z M 14 37 "/>
</g>
</svg>
