<?xml version="1.0" encoding="UTF-8"?>
<svg xmlns="http://www.w3.org/2000/svg" xmlns:xlink="http://www.w3.org/1999/xlink" width="48pt" height="48pt" viewBox="0 0 48 48" version="1.1">
<g id="surface1">
<path style=" stroke:none;fill-rule:nonzero;fill:rgb(0%,0%,0%);fill-opacity:1;" d="M 32.261719 14.222656 L 25.484375 21 L 22.65625 21 L 30.847656 12.808594 C 31.238281 12.417969 31.875 12.417969 32.261719 12.808594 C 32.652344 13.199219 32.652344 13.832031 32.261719 14.222656 M 29.433594 11.394531 L 24.070312 16.757812 L 21.242188 16.757812 L 19.242188 18.757812 L 22.070312 18.757812 L 19.828125 21 L 17 21 L 15 23 L 26.3125 23 L 33.679688 15.636719 C 34.847656 14.464844 34.847656 12.5625 33.679688 11.394531 C 32.507812 10.222656 30.605469 10.222656 29.433594 11.394531 M 40.210938 24.316406 L 39.152344 23.261719 L 29.414062 33 L 8 33 L 8 31 L 28.585938 31 L 37.738281 21.847656 L 36.683594 20.789062 L 41.5 19.5 Z M 40.210938 24.316406 "/>
</g>
</svg>
