<?xml version="1.0" encoding="UTF-8"?>
<svg xmlns="http://www.w3.org/2000/svg" xmlns:xlink="http://www.w3.org/1999/xlink" width="48pt" height="48pt" viewBox="0 0 48 48" version="1.1">
<g id="surface1">
<path style=" stroke:none;fill-rule:nonzero;fill:rgb(0%,0%,0%);fill-opacity:1;" d="M 37 19 L 27.414062 19 L 25.414062 17 L 37 17 C 37.550781 17 38 17.449219 38 18 C 38 18.550781 37.550781 19 37 19 M 37 15 L 29.414062 15 L 27.414062 13 L 24.585938 13 L 26.585938 15 L 23.414062 15 L 21.414062 13 L 18.585938 13 L 26.585938 21 L 37 21 C 38.652344 21 40 19.652344 40 18 C 40 16.347656 38.652344 15 37 15 M 36.675781 34.492188 L 36.675781 33 L 19.578125 33 L 6.785156 20.207031 L 8.199219 18.792969 L 20.40625 31 L 36.675781 31 L 36.675781 29.507812 L 40.992188 32 Z M 36.675781 34.492188 "/>
</g>
</svg>
