<?xml version="1.0" encoding="UTF-8"?>
<svg xmlns="http://www.w3.org/2000/svg" xmlns:xlink="http://www.w3.org/1999/xlink" width="48pt" height="48pt" viewBox="0 0 48 48" version="1.1">
<g id="surface1">
<path style=" stroke:none;fill-rule:nonzero;fill:rgb(0%,0%,0%);fill-opacity:1;" d="M 11.878906 33.03125 L 23.25 31.027344 L 23.074219 30.046875 L 26.824219 31.410156 L 23.769531 33.972656 L 23.597656 32.996094 L 12.226562 35 Z M 38.09375 23.332031 L 12.980469 27.761719 L 12.457031 24.804688 L 23.289062 22.894531 L 23.117188 21.910156 L 21.382812 12.0625 L 22.660156 11.835938 L 27.445312 20.132812 L 24.914062 20.578125 L 25.261719 22.546875 L 37.570312 20.378906 C 37.964844 20.304688 38.363281 20.394531 38.691406 20.625 C 39.019531 20.855469 39.238281 21.199219 39.308594 21.59375 C 39.453125 22.410156 38.90625 23.1875 38.09375 23.332031 M 11.589844 19.882812 L 13.085938 19.617188 L 15.972656 22.15625 L 12.109375 22.835938 Z M 39.839844 18.988281 C 39.070312 18.453125 38.148438 18.242188 37.222656 18.410156 L 29.542969 19.761719 L 23.691406 9.625 L 19.0625 10.441406 L 20.976562 21.273438 L 18.492188 21.710938 L 13.6875 17.480469 L 9.273438 18.261719 L 10.140625 23.183594 L 11.355469 30.078125 L 38.4375 25.300781 C 40.339844 24.964844 41.613281 23.144531 41.277344 21.246094 C 41.117188 20.328125 40.605469 19.523438 39.839844 18.988281 "/>
</g>
</svg>
