<?xml version="1.0" encoding="UTF-8"?>
<svg xmlns="http://www.w3.org/2000/svg" xmlns:xlink="http://www.w3.org/1999/xlink" width="48pt" height="48pt" viewBox="0 0 48 48" version="1.1">
<g id="surface1">
<path style=" stroke:none;fill-rule:nonzero;fill:rgb(0%,0%,0%);fill-opacity:1;" d="M 23.175781 31.410156 L 19.429688 32.773438 L 19.601562 31.796875 L 8.230469 29.792969 L 8.578125 27.820312 L 19.949219 29.828125 L 20.121094 28.847656 Z M 38.265625 26.457031 C 38.195312 26.851562 37.976562 27.195312 37.648438 27.425781 C 37.324219 27.652344 36.929688 27.742188 36.53125 27.671875 L 11.414062 23.242188 L 11.9375 20.289062 L 22.769531 22.199219 L 23.117188 20.230469 L 24.679688 11.367188 L 25.960938 11.59375 L 27.621094 21.023438 L 25.085938 20.578125 L 24.738281 22.546875 L 37.050781 24.71875 C 37.863281 24.863281 38.410156 25.640625 38.265625 26.457031 M 12.804688 15.367188 L 14.300781 15.628906 L 16.144531 19.003906 L 12.285156 18.320312 Z M 37.398438 22.75 L 29.714844 21.394531 L 27.6875 9.867188 L 23.058594 9.050781 L 21.148438 19.882812 L 18.667969 19.445312 L 15.59375 13.828125 L 11.183594 13.050781 L 10.316406 17.972656 L 9.101562 24.867188 L 36.183594 29.640625 C 36.386719 29.679688 36.59375 29.695312 36.796875 29.695312 C 37.507812 29.695312 38.203125 29.480469 38.796875 29.0625 C 39.5625 28.527344 40.074219 27.722656 40.234375 26.804688 C 40.570312 24.902344 39.296875 23.085938 37.398438 22.75 "/>
</g>
</svg>
