<?xml version="1.0" encoding="UTF-8"?>
<svg xmlns="http://www.w3.org/2000/svg" xmlns:xlink="http://www.w3.org/1999/xlink" width="48pt" height="48pt" viewBox="0 0 48 48" version="1.1">
<g id="surface1">
<path style=" stroke:none;fill-rule:nonzero;fill:rgb(0%,0%,0%);fill-opacity:1;" d="M 25 24 C 25 24.550781 24.550781 25 24 25 C 23.449219 25 23 24.550781 23 24 C 23 23.449219 23.449219 23 24 23 C 24.550781 23 25 23.449219 25 24 M 24 37 C 16.832031 37 11 31.167969 11 24 C 11 16.832031 16.832031 11 24 11 C 27.226562 11 30.171875 12.1875 32.445312 14.140625 L 29.613281 16.972656 C 28.023438 15.695312 26.066406 15 24 15 C 21.597656 15 19.335938 15.9375 17.636719 17.636719 C 15.9375 19.335938 15 21.597656 15 24 C 15 26.402344 15.9375 28.664062 17.636719 30.363281 C 19.335938 32.0625 21.597656 33 24 33 C 26.402344 33 28.664062 32.0625 30.363281 30.363281 L 28.949219 28.949219 C 27.628906 30.273438 25.871094 31 24 31 C 22.128906 31 20.371094 30.273438 19.050781 28.949219 C 17.726562 27.628906 17 25.871094 17 24 C 17 22.128906 17.726562 20.371094 19.050781 19.050781 C 20.371094 17.726562 22.128906 17 24 17 C 25.53125 17 26.984375 17.496094 28.1875 18.398438 L 25.285156 21.300781 C 24.894531 21.113281 24.460938 21 24 21 C 22.347656 21 21 22.347656 21 24 C 21 25.652344 22.347656 27 24 27 C 25.652344 27 27 25.652344 27 24 C 27 23.539062 26.886719 23.105469 26.699219 22.714844 L 33.859375 15.554688 C 35.8125 17.828125 37 20.773438 37 24 C 37 31.167969 31.167969 37 24 37 M 24 9 C 15.730469 9 9 15.730469 9 24 C 9 32.269531 15.730469 39 24 39 C 32.269531 39 39 32.269531 39 24 C 39 15.730469 32.269531 9 24 9 "/>
</g>
</svg>
