<?xml version="1.0" encoding="UTF-8"?>
<svg xmlns="http://www.w3.org/2000/svg" xmlns:xlink="http://www.w3.org/1999/xlink" width="48pt" height="48pt" viewBox="0 0 48 48" version="1.1">
<g id="surface1">
<path style=" stroke:none;fill-rule:nonzero;fill:rgb(0%,0%,0%);fill-opacity:1;" d="M 24 37 C 20.773438 37 17.828125 35.8125 15.554688 33.859375 L 16.964844 32.449219 C 18.996094 34.144531 21.496094 34.996094 24 34.996094 C 26.816406 34.996094 29.632812 33.921875 31.777344 31.777344 L 30.363281 30.363281 C 27.09375 33.632812 21.914062 33.855469 18.386719 31.027344 L 22.714844 26.699219 C 23.105469 26.886719 23.539062 27 24 27 C 25.300781 27 26.402344 26.160156 26.816406 25 L 30.414062 25 L 36.109375 19.304688 C 36.675781 20.765625 37 22.34375 37 24 C 37 31.167969 31.167969 37 24 37 M 24 11 C 27.226562 11 30.171875 12.1875 32.445312 14.140625 L 31.035156 15.550781 C 26.71875 11.949219 20.273438 12.171875 16.222656 16.222656 L 17.636719 17.636719 C 20.90625 14.367188 26.085938 14.144531 29.613281 16.972656 L 25.285156 21.300781 C 24.894531 21.113281 24.460938 21 24 21 C 22.699219 21 21.597656 21.839844 21.183594 23 L 17.585938 23 L 11.890625 28.695312 C 11.324219 27.234375 11 25.65625 11 24 C 11 16.832031 16.832031 11 24 11 M 23 24 C 23 23.449219 23.449219 23 24 23 C 24.550781 23 25 23.449219 25 24 C 25 24.550781 24.550781 25 24 25 C 23.449219 25 23 24.550781 23 24 M 14.140625 32.445312 C 13.644531 31.871094 13.207031 31.253906 12.816406 30.597656 L 18.414062 25 L 21.183594 25 C 21.21875 25.097656 21.257812 25.191406 21.300781 25.285156 Z M 26.816406 23 C 26.78125 22.902344 26.742188 22.808594 26.699219 22.714844 L 33.859375 15.554688 C 34.355469 16.128906 34.792969 16.746094 35.183594 17.402344 L 29.585938 23 Z M 24 9 C 15.730469 9 9 15.730469 9 24 C 9 32.269531 15.730469 39 24 39 C 32.269531 39 39 32.269531 39 24 C 39 15.730469 32.269531 9 24 9 "/>
</g>
</svg>
