<?xml version="1.0" encoding="UTF-8"?>
<svg xmlns="http://www.w3.org/2000/svg" xmlns:xlink="http://www.w3.org/1999/xlink" width="48pt" height="48pt" viewBox="0 0 48 48" version="1.1">
<g id="surface1">
<path style=" stroke:none;fill-rule:nonzero;fill:rgb(0%,0%,0%);fill-opacity:1;" d="M 22.5 15.5 C 22.5 14.671875 23.171875 14 24 14 C 24.828125 14 25.5 14.671875 25.5 15.5 C 25.5 16.328125 24.828125 17 24 17 C 23.171875 17 22.5 16.328125 22.5 15.5 M 13.722656 20 L 18.855469 20 L 17.125 33 L 9.386719 33 Z M 24 11 C 26.203125 11 28 12.792969 28 15 C 28 15.910156 27.46875 17.148438 26.539062 18.414062 C 25.558594 19.773438 24.460938 20.714844 24 20.960938 C 23.914062 20.914062 23.800781 20.839844 23.675781 20.746094 C 23.132812 20.34375 22.261719 19.519531 21.457031 18.410156 L 21.453125 18.40625 C 20.53125 17.148438 20 15.90625 20 15 C 20 12.792969 21.796875 11 24 11 M 20.777344 20.746094 C 20.800781 20.773438 20.828125 20.800781 20.855469 20.832031 C 20.953125 20.941406 21.054688 21.050781 21.160156 21.15625 C 21.230469 21.230469 21.304688 21.304688 21.375 21.378906 C 21.480469 21.480469 21.585938 21.582031 21.691406 21.679688 C 21.769531 21.75 21.84375 21.816406 21.917969 21.886719 C 22.027344 21.980469 22.136719 22.066406 22.242188 22.152344 C 22.316406 22.214844 22.394531 22.273438 22.46875 22.328125 C 22.578125 22.410156 22.6875 22.480469 22.796875 22.546875 C 22.867188 22.59375 22.941406 22.640625 23.011719 22.679688 C 23.128906 22.746094 23.238281 22.792969 23.351562 22.839844 C 23.410156 22.863281 23.46875 22.894531 23.527344 22.914062 C 23.691406 22.96875 23.851562 23 24 23 C 24.148438 23 24.308594 22.96875 24.472656 22.914062 C 24.53125 22.894531 24.589844 22.863281 24.648438 22.839844 C 24.761719 22.792969 24.871094 22.746094 24.988281 22.679688 C 25.058594 22.640625 25.132812 22.59375 25.203125 22.546875 C 25.3125 22.480469 25.417969 22.410156 25.527344 22.332031 C 25.605469 22.273438 25.683594 22.210938 25.761719 22.148438 C 25.867188 22.066406 25.972656 21.980469 26.074219 21.890625 C 26.15625 21.820312 26.234375 21.746094 26.3125 21.675781 C 26.414062 21.578125 26.515625 21.484375 26.613281 21.386719 C 26.695312 21.308594 26.769531 21.230469 26.847656 21.148438 C 26.945312 21.050781 27.035156 20.949219 27.128906 20.847656 C 27.160156 20.8125 27.191406 20.78125 27.222656 20.746094 L 28.855469 33 L 19.144531 33 Z M 38.613281 33 L 30.875 33 L 29.144531 20 L 34.277344 20 Z M 35.722656 18 L 29.152344 18 C 29.632812 17.085938 30 16.042969 30 15 C 30 11.691406 27.308594 9 24 9 C 20.691406 9 18 11.691406 18 15 C 18 16.042969 18.371094 17.085938 18.847656 18 L 12.277344 18 L 6.613281 35 L 41.386719 35 Z M 35.722656 18 "/>
</g>
</svg>
