<?xml version="1.0" encoding="UTF-8"?>
<svg xmlns="http://www.w3.org/2000/svg" xmlns:xlink="http://www.w3.org/1999/xlink" width="48pt" height="48pt" viewBox="0 0 48 48" version="1.1">
<g id="surface1">
<path style=" stroke:none;fill-rule:nonzero;fill:rgb(0%,0%,0%);fill-opacity:1;" d="M 34.605469 13.394531 L 33.191406 14.808594 C 38.261719 19.875 38.261719 28.125 33.191406 33.191406 L 34.605469 34.605469 C 40.457031 28.757812 40.457031 19.242188 34.605469 13.394531 M 14.808594 33.191406 C 9.738281 28.125 9.738281 19.875 14.808594 14.808594 L 13.394531 13.394531 C 7.542969 19.242188 7.542969 28.757812 13.394531 34.605469 Z M 33 24 C 33 21.597656 32.0625 19.335938 30.363281 17.636719 L 28.949219 19.050781 C 30.269531 20.371094 31 22.128906 31 24 C 31 25.871094 30.269531 27.628906 28.949219 28.949219 L 30.363281 30.363281 C 32.0625 28.664062 33 26.402344 33 24 M 19.050781 28.949219 C 17.726562 27.628906 17 25.871094 17 24 C 17 22.128906 17.726562 20.371094 19.050781 19.050781 L 17.636719 17.636719 C 15.933594 19.335938 15 21.597656 15 24 C 15 26.402344 15.933594 28.664062 17.636719 30.363281 Z M 24 23 C 23.449219 23 23 23.449219 23 24 C 23 24.550781 23.449219 25 24 25 C 24.550781 25 25 24.550781 25 24 C 25 23.449219 24.550781 23 24 23 M 24 27 C 22.34375 27 21 25.65625 21 24 C 21 22.34375 22.34375 21 24 21 C 25.65625 21 27 22.34375 27 24 C 27 25.65625 25.65625 27 24 27 "/>
</g>
</svg>
