<?xml version="1.0" encoding="UTF-8"?>
<svg xmlns="http://www.w3.org/2000/svg" xmlns:xlink="http://www.w3.org/1999/xlink" width="48pt" height="48pt" viewBox="0 0 48 48" version="1.1">
<g id="surface1">
<path style=" stroke:none;fill-rule:nonzero;fill:rgb(0%,0%,0%);fill-opacity:1;" d="M 34.605469 10 L 33.191406 11.414062 C 38.261719 16.484375 38.261719 24.730469 33.191406 29.800781 L 34.605469 31.214844 C 40.457031 25.363281 40.457031 15.847656 34.605469 10 M 28.949219 15.65625 C 30.269531 16.980469 31 18.738281 31 20.605469 C 31 22.476562 30.269531 24.234375 28.949219 25.554688 L 30.363281 26.96875 C 32.0625 25.269531 33 23.011719 33 20.605469 C 33 18.203125 32.0625 15.941406 30.363281 14.242188 Z M 25 20.605469 C 25 20.054688 24.550781 19.605469 24 19.605469 C 23.449219 19.605469 23 20.054688 23 20.605469 C 23 21.15625 23.449219 21.605469 24 21.605469 C 24.550781 21.605469 25 21.15625 25 20.605469 M 27 20.605469 C 27 21.90625 26.160156 23.007812 25 23.421875 L 25 36.605469 L 23 36.605469 L 23 23.421875 C 21.839844 23.007812 21 21.90625 21 20.605469 C 21 18.953125 22.34375 17.605469 24 17.605469 C 25.65625 17.605469 27 18.953125 27 20.605469 M 13.394531 10 C 7.542969 15.847656 7.542969 25.363281 13.394531 31.214844 L 14.808594 29.800781 C 9.738281 24.730469 9.738281 16.484375 14.808594 11.414062 Z M 19.050781 15.65625 C 17.726562 16.980469 17 18.738281 17 20.605469 C 17 22.476562 17.726562 24.234375 19.050781 25.554688 L 17.636719 26.96875 C 15.933594 25.269531 15 23.011719 15 20.605469 C 15 18.203125 15.933594 15.941406 17.636719 14.242188 Z M 19.050781 15.65625 "/>
</g>
</svg>
