<?xml version="1.0" encoding="UTF-8"?>
<svg xmlns="http://www.w3.org/2000/svg" xmlns:xlink="http://www.w3.org/1999/xlink" width="48pt" height="48pt" viewBox="0 0 48 48" version="1.1">
<g id="surface1">
<path style=" stroke:none;fill-rule:nonzero;fill:rgb(0%,0%,0%);fill-opacity:1;" d="M 25.769531 23.828125 C 25.917969 24.160156 26 24.527344 26 24.898438 L 26 24.96875 C 26 25.519531 25.78125 26.027344 25.390625 26.410156 C 25.019531 26.769531 24.519531 26.96875 24 26.96875 L 23.941406 26.96875 C 22.871094 26.9375 22 26.007812 22 24.898438 C 22 24.527344 22.082031 24.160156 22.230469 23.828125 L 23.746094 21.140625 C 23.863281 20.953125 24.136719 20.953125 24.253906 21.140625 Z M 32 16 L 16 16 L 16 13 L 32 13 Z M 32 30 L 16 30 L 16 18 L 32 18 Z M 32 35 L 16 35 L 16 32 L 32 32 Z M 35 13 L 35 11 L 29 11 L 29 9 L 27 9 L 27 11 L 13 11 L 13 13 L 14 13 L 14 16 L 13 16 L 13 18 L 14 18 L 14 30 L 13 30 L 13 32 L 14 32 L 14 35 L 13 35 L 13 37 L 35 37 L 35 35 L 34 35 L 34 32 L 35 32 L 35 30 L 34 30 L 34 18 L 35 18 L 35 16 L 34 16 L 34 13 Z M 35 13 "/>
</g>
</svg>
