<?xml version="1.0" encoding="UTF-8"?>
<svg xmlns="http://www.w3.org/2000/svg" xmlns:xlink="http://www.w3.org/1999/xlink" width="48pt" height="48pt" viewBox="0 0 48 48" version="1.1">
<g id="surface1">
<path style=" stroke:none;fill-rule:nonzero;fill:rgb(0%,0%,0%);fill-opacity:1;" d="M 31 30 L 17 30 L 17 28 L 31 28 Z M 31 24 L 17 24 L 17 22 L 31 22 Z M 33 35 L 15 35 L 15 17.414062 L 19 13.414062 L 22.585938 17 L 30.414062 17 L 33 14.414062 Z M 14.707031 12.890625 L 15.769531 11.828125 L 16.761719 12.824219 L 14.640625 14.945312 L 13.644531 13.949219 Z M 31.585938 13 L 29.585938 15 L 23.414062 15 L 21.414062 13 Z M 18.585938 11 L 18.175781 11.410156 L 17.183594 10.414062 L 17.890625 9.707031 L 16.476562 8.292969 L 13.292969 11.476562 L 10.109375 14.65625 L 11.523438 16.070312 L 12.230469 15.363281 L 13.226562 16.359375 L 13 16.585938 L 13 37 L 35 37 L 35 11 Z M 18.585938 11 "/>
</g>
</svg>
