<?xml version="1.0" encoding="UTF-8"?>
<svg xmlns="http://www.w3.org/2000/svg" xmlns:xlink="http://www.w3.org/1999/xlink" width="48pt" height="48pt" viewBox="0 0 48 48" version="1.1">
<g id="surface1">
<path style=" stroke:none;fill-rule:nonzero;fill:rgb(0%,0%,0%);fill-opacity:1;" d="M 38 29 L 36 29 L 36 34 L 38 34 Z M 38 35 L 36 35 L 36 37 L 38 37 Z M 30.292969 35 C 30.105469 34.367188 30 33.695312 30 33 C 30 31.925781 30.25 30.910156 30.683594 30 L 17 30 L 17 28 L 31 28 L 31 29.40625 C 31.511719 28.558594 32.191406 27.824219 33 27.261719 L 33 14.414062 L 30.414062 17 L 22.585938 17 L 19 13.414062 L 15 17.414062 L 15 35 Z M 16.761719 12.824219 L 15.769531 11.828125 L 14.707031 12.890625 L 13.644531 13.949219 L 14.640625 14.945312 Z M 21.414062 13 L 23.414062 15 L 29.585938 15 L 31.585938 13 Z M 44 33 C 44 36.867188 40.867188 40 37 40 C 34.621094 40 32.523438 38.8125 31.261719 37 L 13 37 L 13 16.585938 L 13.226562 16.359375 L 12.234375 15.363281 L 11.523438 16.070312 L 10.109375 14.65625 L 13.292969 11.476562 L 16.476562 8.292969 L 17.890625 9.707031 L 17.183594 10.414062 L 18.175781 11.410156 L 18.585938 11 L 35 11 L 35 26.292969 C 35.632812 26.105469 36.304688 26 37 26 C 40.867188 26 44 29.132812 44 33 M 31 24 L 17 24 L 17 22 L 31 22 Z M 31 24 "/>
</g>
</svg>
