<?xml version="1.0" encoding="UTF-8"?>
<svg xmlns="http://www.w3.org/2000/svg" xmlns:xlink="http://www.w3.org/1999/xlink" width="48pt" height="48pt" viewBox="0 0 48 48" version="1.1">
<g id="surface1">
<path style=" stroke:none;fill-rule:nonzero;fill:rgb(0%,0%,0%);fill-opacity:1;" d="M 31.09375 35 C 31.09375 35.550781 30.648438 36 30.09375 36 C 29.542969 36 29.09375 35.550781 29.09375 35 L 29.09375 31 L 31.09375 31 Z M 29.09375 13 L 31.09375 13 L 31.09375 29 L 29.09375 29 Z M 34.09375 29 L 33.09375 29 L 33.09375 11 L 27.09375 11 L 27.09375 29 L 26.09375 29 L 26.09375 31 L 27.09375 31 L 27.09375 35 C 27.09375 36.652344 28.441406 38 30.09375 38 C 31.75 38 33.09375 36.652344 33.09375 35 L 33.09375 31 L 34.09375 31 Z M 19.09375 35 C 19.09375 35.550781 18.648438 36 18.09375 36 C 17.542969 36 17.09375 35.550781 17.09375 35 L 17.09375 31 L 19.09375 31 Z M 17.09375 13 L 19.09375 13 L 19.09375 29 L 17.09375 29 Z M 21.09375 11 L 15.09375 11 L 15.09375 29 L 14.09375 29 L 14.09375 31 L 15.09375 31 L 15.09375 35 C 15.09375 36.652344 16.441406 38 18.09375 38 C 19.75 38 21.09375 36.652344 21.09375 35 L 21.09375 31 L 22.09375 31 L 22.09375 29 L 21.09375 29 Z M 21.09375 11 "/>
</g>
</svg>
