<?xml version="1.0" encoding="UTF-8"?>
<svg xmlns="http://www.w3.org/2000/svg" xmlns:xlink="http://www.w3.org/1999/xlink" width="48pt" height="48pt" viewBox="0 0 48 48" version="1.1">
<g id="surface1">
<path style=" stroke:none;fill-rule:nonzero;fill:rgb(0%,0%,0%);fill-opacity:1;" d="M 34 14.316406 L 34 24 L 32 24 L 32 14.316406 L 30.507812 14.316406 L 33 10 L 35.492188 14.316406 Z M 20.863281 35.351562 C 20.132812 35.933594 19.207031 36.132812 18.265625 35.914062 C 17.222656 35.671875 16.347656 34.808594 16.09375 33.765625 C 15.824219 32.667969 16.152344 31.5625 16.96875 30.8125 C 17.632812 30.203125 18 29.398438 18 28.554688 L 18 18 L 20 18 L 20 28.550781 C 20 29.394531 20.371094 30.199219 21.042969 30.820312 C 21.660156 31.394531 22 32.167969 22 33 C 22 33.921875 21.585938 34.777344 20.863281 35.351562 M 18.351562 12.238281 C 18.535156 12.082031 18.761719 12 19 12 C 19.058594 12 19.117188 12.003906 19.175781 12.015625 C 19.636719 12.089844 20 12.570312 20 13.105469 L 20 16 L 18 16 L 18 13 C 18 12.707031 18.128906 12.429688 18.351562 12.238281 M 22.398438 29.351562 C 22.25 29.214844 22 28.925781 22 28.550781 L 22 13.105469 C 22 11.589844 20.925781 10.273438 19.496094 10.039062 C 18.617188 9.894531 17.730469 10.144531 17.058594 10.714844 C 16.386719 11.285156 16 12.117188 16 13 L 16 28.554688 C 16 28.929688 15.757812 29.210938 15.613281 29.339844 C 14.253906 30.589844 13.707031 32.421875 14.152344 34.242188 C 14.589844 36.027344 16.027344 37.445312 17.8125 37.863281 C 18.207031 37.953125 18.605469 38 18.996094 38 C 20.121094 38 21.214844 37.625 22.109375 36.917969 C 23.3125 35.960938 24 34.535156 24 33 C 24 31.601562 23.433594 30.308594 22.398438 29.351562 "/>
</g>
</svg>
