<?xml version="1.0" encoding="UTF-8"?>
<svg xmlns="http://www.w3.org/2000/svg" xmlns:xlink="http://www.w3.org/1999/xlink" width="48pt" height="48pt" viewBox="0 0 48 48" version="1.1">
<g id="surface1">
<path style=" stroke:none;fill-rule:nonzero;fill:rgb(0%,0%,0%);fill-opacity:1;" d="M 27.261719 33.671875 L 24.714844 31.976562 L 31.476562 25.214844 L 33.171875 27.761719 L 33.046875 27.890625 L 27.390625 33.546875 Z M 37.992188 35.664062 L 39.40625 34.25 L 34.460938 29.304688 L 35.746094 28.015625 L 31.785156 22.078125 L 21.578125 32.289062 L 27.515625 36.246094 L 28.804688 34.960938 L 33.75 39.90625 L 35.164062 38.492188 L 30.21875 33.546875 L 33.046875 30.71875 Z M 23.855469 21.523438 L 21.023438 24.351562 L 18.902344 22.230469 L 21.734375 19.402344 Z M 15.367188 22.9375 L 13.246094 20.816406 L 20.316406 13.746094 L 22.441406 15.867188 L 21.734375 16.574219 L 16.074219 22.230469 Z M 25.269531 15.867188 L 20.316406 10.917969 L 18.195312 13.039062 L 13.578125 8.421875 L 12.164062 9.835938 L 16.78125 14.453125 L 13.953125 17.28125 L 9.335938 12.664062 L 7.921875 14.078125 L 12.539062 18.695312 L 10.417969 20.816406 L 15.367188 25.765625 L 17.488281 23.644531 L 21.023438 27.183594 L 26.683594 21.523438 L 23.148438 17.988281 Z M 25.269531 15.867188 "/>
</g>
</svg>
