<?xml version="1.0" encoding="UTF-8"?>
<svg xmlns="http://www.w3.org/2000/svg" xmlns:xlink="http://www.w3.org/1999/xlink" width="48pt" height="48pt" viewBox="0 0 48 48" version="1.1">
<g id="surface1">
<path style=" stroke:none;fill-rule:nonzero;fill:rgb(0%,0%,0%);fill-opacity:1;" d="M 19.917969 31.804688 L 17.484375 30.917969 L 18.171875 29.039062 L 19.539062 25.28125 L 21.96875 26.164062 L 22.8125 27.980469 L 22.613281 28.53125 L 18.855469 27.160156 L 18.171875 29.039062 L 21.929688 30.410156 L 21.730469 30.957031 Z M 23.808594 31.09375 L 24.492188 29.210938 L 33.890625 32.632812 C 34.140625 32.726562 34.339844 32.910156 34.453125 33.152344 C 34.566406 33.394531 34.578125 33.664062 34.488281 33.914062 C 34.394531 34.164062 34.210938 34.367188 33.96875 34.480469 C 33.730469 34.589844 33.457031 34.601562 33.203125 34.511719 Z M 32.519531 36.390625 C 32.855469 36.515625 33.203125 36.574219 33.550781 36.574219 C 33.980469 36.574219 34.410156 36.480469 34.816406 36.292969 C 35.539062 35.953125 36.09375 35.351562 36.367188 34.597656 C 36.640625 33.84375 36.605469 33.03125 36.265625 32.304688 C 35.929688 31.578125 35.324219 31.027344 34.574219 30.753906 L 24.628906 27.132812 L 23.433594 24.570312 L 18.34375 22.71875 L 16.289062 28.355469 L 14.925781 32.117188 L 20.011719 33.964844 L 22.574219 32.773438 Z M 13.484375 16.347656 L 14.171875 14.464844 L 15.539062 10.707031 L 17.96875 11.589844 L 18.8125 13.40625 L 18.613281 13.957031 L 14.855469 12.585938 L 14.171875 14.464844 L 17.929688 15.835938 L 17.730469 16.382812 L 15.917969 17.230469 Z M 19.808594 16.519531 L 20.492188 14.640625 L 29.890625 18.058594 C 30.140625 18.152344 30.339844 18.335938 30.453125 18.578125 C 30.566406 18.820312 30.578125 19.089844 30.488281 19.339844 C 30.394531 19.59375 30.210938 19.792969 29.96875 19.90625 C 29.730469 20.019531 29.457031 20.03125 29.203125 19.941406 Z M 28.519531 21.820312 C 28.855469 21.941406 29.203125 22 29.550781 22 C 29.980469 22 30.410156 21.90625 30.816406 21.71875 C 31.539062 21.378906 32.09375 20.777344 32.367188 20.027344 C 32.640625 19.273438 32.605469 18.457031 32.265625 17.730469 C 31.929688 17.003906 31.324219 16.453125 30.574219 16.179688 L 20.628906 12.558594 L 19.433594 9.996094 L 14.34375 8.144531 L 12.289062 13.785156 L 10.925781 17.542969 L 16.011719 19.394531 L 18.574219 18.199219 Z M 28.519531 21.820312 "/>
</g>
</svg>
