<?xml version="1.0" encoding="UTF-8"?>
<svg xmlns="http://www.w3.org/2000/svg" xmlns:xlink="http://www.w3.org/1999/xlink" width="48pt" height="48pt" viewBox="0 0 48 48" version="1.1">
<g id="surface1">
<path style=" stroke:none;fill-rule:nonzero;fill:rgb(0%,0%,0%);fill-opacity:1;" d="M 18.414062 19 L 21.414062 16 L 26.585938 16 L 29.585938 19 Z M 29.828125 36 L 18.171875 36 C 18.585938 34.835938 19.695312 34 21 34 L 27 34 C 28.304688 34 29.417969 34.835938 29.828125 36 M 32.414062 21 L 37 16.414062 L 37 11 L 35 11 L 35 15.585938 L 32 18.585938 L 27.414062 14 L 20.585938 14 L 16 18.585938 L 13 15.585938 L 13 11 L 11 11 L 11 16.414062 L 15.585938 21 L 23 21 L 23 32 L 21 32 C 18.585938 32 16.566406 33.722656 16.101562 36 L 14 36 L 14 38 L 34 38 L 34 36 L 31.898438 36 C 31.433594 33.722656 29.414062 32 27 32 L 25 32 L 25 21 Z M 32.414062 21 "/>
</g>
</svg>
