<?xml version="1.0" encoding="UTF-8"?>
<svg xmlns="http://www.w3.org/2000/svg" xmlns:xlink="http://www.w3.org/1999/xlink" width="48pt" height="48pt" viewBox="0 0 48 48" version="1.1">
<g id="surface1">
<path style=" stroke:none;fill-rule:nonzero;fill:rgb(0%,0%,0%);fill-opacity:1;" d="M 18.171875 36 C 18.582031 34.835938 19.695312 34 21 34 L 27 34 C 28.304688 34 29.414062 34.835938 29.828125 36 Z M 23 16 L 25 16 L 25 32 L 23 32 Z M 25 14 L 23 14 L 23 12 L 25 12 Z M 31.898438 36 C 31.433594 33.722656 29.414062 32 27 32 L 27 10 L 21 10 L 21 32 C 18.585938 32 16.566406 33.722656 16.101562 36 L 14 36 L 14 38 L 34 38 L 34 36 Z M 31.898438 36 "/>
</g>
</svg>
