<?xml version="1.0" encoding="UTF-8"?>
<svg xmlns="http://www.w3.org/2000/svg" xmlns:xlink="http://www.w3.org/1999/xlink" width="48pt" height="48pt" viewBox="0 0 48 48" version="1.1">
<g id="surface1">
<path style=" stroke:none;fill-rule:nonzero;fill:rgb(0%,0%,0%);fill-opacity:1;" d="M 15.5 19.5 C 15.5 16.402344 17.171875 13.695312 19.652344 12.210938 C 18.625 14.085938 18 16.640625 18 19.5 C 18 22.359375 18.625 24.914062 19.652344 26.789062 C 17.171875 25.304688 15.5 22.597656 15.5 19.5 M 32.5 19.5 C 32.5 22.597656 30.828125 25.304688 28.347656 26.789062 C 29.375 24.914062 30 22.359375 30 19.5 C 30 16.640625 29.375 14.085938 28.347656 12.210938 C 30.828125 13.695312 32.5 16.402344 32.5 19.5 M 20 19.5 C 20 14.492188 22.109375 11 24 11 C 25.890625 11 28 14.492188 28 19.5 C 28 24.507812 25.890625 28 24 28 C 22.109375 28 20 24.507812 20 19.5 M 27.21875 36 L 20.78125 36 L 20.28125 34 L 27.71875 34 Z M 34.5 19.5 C 34.5 13.710938 29.789062 9 24 9 C 18.210938 9 13.5 13.710938 13.5 19.5 C 13.5 24.953125 17.679688 29.445312 23 29.949219 L 23 32 L 17.71875 32 L 19.21875 38 L 28.78125 38 L 30.28125 32 L 25 32 L 25 29.949219 C 30.320312 29.445312 34.5 24.953125 34.5 19.5 "/>
</g>
</svg>
