<?xml version="1.0" encoding="UTF-8"?>
<svg xmlns="http://www.w3.org/2000/svg" xmlns:xlink="http://www.w3.org/1999/xlink" width="48pt" height="48pt" viewBox="0 0 48 48" version="1.1">
<g id="surface1">
<path style=" stroke:none;fill-rule:nonzero;fill:rgb(0%,0%,0%);fill-opacity:1;" d="M 15.300781 23 L 23 23 L 23 28.132812 Z M 18.507812 12.484375 C 17.097656 14.632812 16.183594 17.613281 16.03125 21 L 13.058594 21 C 13.390625 17.359375 15.496094 14.230469 18.507812 12.484375 M 34.941406 21 L 31.96875 21 C 31.816406 17.613281 30.902344 14.632812 29.492188 12.484375 C 32.503906 14.230469 34.613281 17.359375 34.941406 21 M 25 23 L 32.699219 23 L 25 28.132812 Z M 24 11 C 27.070312 11 29.6875 15.484375 29.976562 21 L 18.027344 21 C 18.3125 15.484375 20.933594 11 24 11 M 37 22.535156 L 37 22 C 37 14.832031 31.167969 9 24 9 C 16.832031 9 11 14.832031 11 22 L 11 22.535156 L 23 30.535156 L 23 36 L 21 36 L 21 38 L 27 38 L 27 36 L 25 36 L 25 30.535156 Z M 37 22.535156 "/>
</g>
</svg>
