<?xml version="1.0" encoding="UTF-8"?>
<svg xmlns="http://www.w3.org/2000/svg" xmlns:xlink="http://www.w3.org/1999/xlink" width="48pt" height="48pt" viewBox="0 0 48 48" version="1.1">
<g id="surface1">
<path style=" stroke:none;fill-rule:nonzero;fill:rgb(0%,0%,0%);fill-opacity:1;" d="M 29 23 L 19 23 L 19 20 L 29 20 Z M 19 16.414062 L 20.414062 15 L 27.585938 15 L 29 16.414062 L 29 18 L 19 18 Z M 43 13 L 33 13 L 33 15 L 37 15 L 37 18 L 31 18 L 31 15.585938 L 28.414062 13 L 19.585938 13 L 17 15.585938 L 17 18 L 11 18 L 11 15 L 15 15 L 15 13 L 5 13 L 5 15 L 9 15 L 9 20 L 17 20 L 17 25 L 17.570312 25 L 14.300781 34 L 13 34 L 13 36 L 17 36 L 17 34 L 16.429688 34 L 19.699219 25 L 23 25 L 23 27 L 25 27 L 25 25 L 28.300781 25 L 31.570312 34 L 31 34 L 31 36 L 35 36 L 35 34 L 33.699219 34 L 30.429688 25 L 31 25 L 31 20 L 39 20 L 39 15 L 43 15 Z M 43 13 "/>
</g>
</svg>
