<?xml version="1.0" encoding="UTF-8"?>
<svg xmlns="http://www.w3.org/2000/svg" xmlns:xlink="http://www.w3.org/1999/xlink" width="48pt" height="48pt" viewBox="0 0 48 48" version="1.1">
<g id="surface1">
<path style=" stroke:none;fill-rule:nonzero;fill:rgb(0%,0%,0%);fill-opacity:1;" d="M 40.710938 35.289062 L 39.289062 36.710938 L 37 34.410156 L 34.710938 36.710938 L 33.289062 35.289062 L 34.589844 34 L 35.589844 33 L 33.289062 30.710938 L 34.710938 29.289062 L 37 31.589844 L 39.289062 29.289062 L 40.710938 30.710938 L 38.410156 33 Z M 29 18 L 19 18 L 19 16.410156 L 20.410156 15 L 27.589844 15 L 29 16.410156 Z M 29 23 L 19 23 L 19 20 L 29 20 Z M 37 26 C 34.871094 26 32.960938 26.949219 31.6875 28.460938 L 30.429688 25 L 31 25 L 31 20 L 39 20 L 39 15 L 43 15 L 43 13 L 33 13 L 33 15 L 37 15 L 37 18 L 31 18 L 31 15.589844 L 28.410156 13 L 19.589844 13 L 17 15.589844 L 17 18 L 11 18 L 11 15 L 15 15 L 15 13 L 5 13 L 5 15 L 9 15 L 9 20 L 17 20 L 17 25 L 17.570312 25 L 14.300781 34 L 13 34 L 13 36 L 17 36 L 17 34 L 16.429688 34 L 19.699219 25 L 23 25 L 23 27 L 25 27 L 25 25 L 28.300781 25 L 30.378906 30.730469 C 30.128906 31.441406 30 32.199219 30 33 C 30 36.871094 33.128906 40 37 40 C 40.871094 40 44 36.871094 44 33 C 44 29.128906 40.871094 26 37 26 "/>
</g>
</svg>
