<?xml version="1.0" encoding="UTF-8"?>
<svg xmlns="http://www.w3.org/2000/svg" xmlns:xlink="http://www.w3.org/1999/xlink" width="48pt" height="48pt" viewBox="0 0 48 48" version="1.1">
<g id="surface1">
<path style=" stroke:none;fill-rule:nonzero;fill:rgb(0%,0%,0%);fill-opacity:1;" d="M 28.464844 14.878906 L 26.34375 12.757812 L 27.757812 11.34375 L 29.878906 13.464844 Z M 35.535156 19.121094 L 37.65625 21.242188 L 36.242188 22.65625 L 34.121094 20.535156 Z M 28.464844 19.121094 L 29.878906 20.535156 L 27.757812 22.65625 L 26.34375 21.242188 Z M 35.535156 14.878906 L 34.121094 13.464844 L 36.242188 11.34375 L 37.65625 12.757812 Z M 29 18 L 24 18 L 24 16 L 29 16 Z M 40 18 L 35 18 L 35 16 L 40 16 Z M 31 20 L 33 20 L 33 25 L 31 25 Z M 31 9 L 33 9 L 33 14 L 31 14 Z M 14.972656 20.554688 L 16.386719 21.96875 L 14.972656 23.382812 L 13.558594 21.96875 Z M 25.726562 31.3125 L 17.535156 23.121094 L 16.121094 24.535156 L 24.3125 32.726562 L 21.484375 32.726562 L 11.878906 23.121094 C 11.3125 22.554688 11 21.800781 11 21 C 11 20.199219 11.3125 19.445312 11.878906 18.878906 C 13.011719 17.746094 14.988281 17.746094 16.121094 18.878906 L 25.726562 28.484375 Z M 27.726562 27.65625 L 17.535156 17.464844 C 16.59375 16.519531 15.335938 16 14 16 C 12.664062 16 11.410156 16.519531 10.464844 17.464844 C 9.519531 18.410156 9 19.664062 9 21 C 9 22.335938 9.519531 23.589844 10.464844 24.535156 L 20.65625 34.726562 L 26.3125 34.726562 L 29.558594 37.96875 L 30.972656 36.554688 L 27.726562 33.3125 Z M 27.726562 27.65625 "/>
</g>
</svg>
