<?xml version="1.0" encoding="UTF-8"?>
<svg xmlns="http://www.w3.org/2000/svg" xmlns:xlink="http://www.w3.org/1999/xlink" width="48pt" height="48pt" viewBox="0 0 48 48" version="1.1">
<g id="surface1">
<path style=" stroke:none;fill-rule:nonzero;fill:rgb(0%,0%,0%);fill-opacity:1;" d="M 14 16 L 12 16 L 12 12 L 16 12 L 16 14 L 14 14 Z M 14 34 L 16 34 L 16 36 L 12 36 L 12 32 L 14 32 Z M 34 32 L 36 32 L 36 36 L 32 36 L 32 34 L 34 34 Z M 36 12 L 36 16 L 34 16 L 34 14 L 32 14 L 32 12 Z M 23 23 L 25 23 L 25 25 L 23 25 Z M 25 30.921875 L 25 28 L 23 28 L 23 30.921875 C 19.941406 30.480469 17.519531 28.058594 17.078125 25 L 20 25 L 20 23 L 17.078125 23 C 17.519531 19.941406 19.941406 17.519531 23 17.078125 L 23 20 L 25 20 L 25 17.078125 C 28.058594 17.519531 30.476562 19.941406 30.917969 23 L 28 23 L 28 25 L 30.917969 25 C 30.476562 28.058594 28.058594 30.480469 25 30.921875 M 25 15.058594 L 25 12 L 23 12 L 23 15.058594 C 18.835938 15.523438 15.523438 18.835938 15.058594 23 L 12 23 L 12 25 L 15.058594 25 C 15.523438 29.164062 18.835938 32.476562 23 32.941406 L 23 36 L 25 36 L 25 32.941406 C 29.164062 32.476562 32.476562 29.164062 32.941406 25 L 36 25 L 36 23 L 32.941406 23 C 32.476562 18.835938 29.164062 15.523438 25 15.058594 "/>
</g>
</svg>
