<?xml version="1.0" encoding="UTF-8"?>
<svg xmlns="http://www.w3.org/2000/svg" xmlns:xlink="http://www.w3.org/1999/xlink" width="48pt" height="48pt" viewBox="0 0 48 48" version="1.1">
<g id="surface1">
<path style=" stroke:none;fill-rule:nonzero;fill:rgb(0%,0%,0%);fill-opacity:1;" d="M 34.515625 28.25 L 36 29.664062 C 34.003906 31.757812 29.789062 33.058594 25 33.058594 C 20.210938 33.058594 15.996094 31.757812 14 29.664062 L 15.484375 28.25 C 17.058594 29.898438 20.882812 31.007812 25 31.007812 C 29.117188 31.007812 32.941406 29.898438 34.515625 28.25 M 9 21 L 9.585938 21 L 12.585938 24 L 9 24 Z M 22 19 L 28 19 L 28 24 L 22 24 Z M 14 14 L 15.382812 14 L 22.445312 17 L 17 17 Z M 34.617188 14 L 36.003906 13.992188 C 36.003906 13.992188 36.003906 13.996094 35.996094 14 L 32.996094 17 L 27.554688 17 Z M 39 20 L 39 24 L 30 24 L 30 19 L 33.828125 19 L 37.410156 15.414062 C 37.988281 14.839844 38.15625 13.984375 37.84375 13.234375 C 37.535156 12.484375 36.808594 12 35.996094 12 L 34.207031 12 L 25 15.914062 L 15.792969 12 L 14 12 C 13.191406 12 12.464844 12.484375 12.15625 13.234375 C 11.84375 13.984375 12.011719 14.839844 12.585938 15.414062 L 16.171875 19 L 20 19 L 20 24 L 15.414062 24 L 10.414062 19 L 7 19 L 7 24 L 6 24 L 6 26 L 39 26 L 39 30 L 41 30 L 41 20 Z M 39 20 "/>
</g>
</svg>
