<?xml version="1.0" encoding="UTF-8"?>
<svg xmlns="http://www.w3.org/2000/svg" xmlns:xlink="http://www.w3.org/1999/xlink" width="48pt" height="48pt" viewBox="0 0 48 48" version="1.1">
<g id="surface1">
<path style=" stroke:none;fill-rule:nonzero;fill:rgb(0%,0%,0%);fill-opacity:1;" d="M 28 26 L 22 26 L 22 21 L 28 21 Z M 17.003906 19 L 14.003906 16 L 15.382812 16 L 22.441406 19 Z M 34.617188 16 L 36.003906 15.992188 C 36.003906 15.992188 36.003906 15.996094 35.996094 16 L 32.996094 19 L 27.558594 19 Z M 9 26 L 9 23 L 9.585938 23 L 12.585938 26 Z M 42.640625 28.230469 L 40 26.03125 L 40 26 L 39.960938 26 L 36.640625 23.230469 L 35.359375 24.769531 L 36.839844 26 L 30 26 L 30 21 L 33.824219 21 L 37.410156 17.414062 C 37.984375 16.839844 38.15625 15.984375 37.847656 15.234375 C 37.535156 14.484375 36.808594 14 35.996094 14 L 34.207031 14 L 25 17.914062 L 15.792969 14 L 14.003906 14 C 13.191406 14 12.464844 14.484375 12.152344 15.234375 C 11.84375 15.984375 12.015625 16.839844 12.589844 17.414062 L 16.175781 21 L 20 21 L 20 26 L 15.414062 26 L 10.414062 21 L 7 21 L 7 26 L 6 26 L 6 28 L 39.238281 28 L 41.359375 29.769531 Z M 42.640625 28.230469 "/>
</g>
</svg>
