<?xml version="1.0" encoding="UTF-8"?>
<svg xmlns="http://www.w3.org/2000/svg" xmlns:xlink="http://www.w3.org/1999/xlink" width="48pt" height="48pt" viewBox="0 0 48 48" version="1.1">
<g id="surface1">
<path style=" stroke:none;fill-rule:nonzero;fill:rgb(0%,0%,0%);fill-opacity:1;" d="M 28.140625 32.386719 L 21.777344 26.019531 L 26.019531 21.777344 L 32.382812 28.140625 C 32.953125 28.707031 33.261719 29.460938 33.261719 30.261719 C 33.261719 31.066406 32.953125 31.816406 32.382812 32.386719 C 31.25 33.519531 29.273438 33.519531 28.140625 32.386719 M 19.613281 35.167969 L 18.285156 33.84375 L 21.890625 28.960938 L 24.492188 31.5625 Z M 12.878906 17.121094 C 11.707031 15.949219 11.707031 14.046875 12.878906 12.875 C 13.445312 12.3125 14.195312 12 15 12 C 15.800781 12 16.554688 12.3125 17.121094 12.875 L 18.535156 14.292969 L 14.292969 18.535156 Z M 24.605469 20.363281 L 20.363281 24.605469 L 15.707031 19.949219 L 19.949219 15.707031 Z M 33.839844 18.285156 L 35.167969 19.613281 L 31.5625 24.492188 L 28.964844 21.890625 Z M 35.261719 30.261719 C 35.261719 28.929688 34.742188 27.671875 33.796875 26.726562 L 32.992188 25.921875 L 37.800781 19.417969 L 34.039062 15.652344 L 27.535156 20.460938 L 21.363281 14.292969 L 21.246094 14.171875 L 20.65625 13.585938 L 18.535156 11.460938 C 17.589844 10.519531 16.335938 10 15 10 C 13.664062 10 12.40625 10.519531 11.464844 11.460938 C 9.515625 13.414062 9.515625 16.585938 11.464844 18.535156 L 13.585938 20.65625 L 20.460938 27.535156 L 15.652344 34.039062 L 19.417969 37.800781 L 25.921875 32.992188 L 26.726562 33.796875 C 27.671875 34.742188 28.925781 35.261719 30.261719 35.261719 C 31.257812 35.261719 32.210938 34.972656 33.019531 34.433594 L 34.503906 35.921875 L 35.917969 34.507812 L 34.433594 33.019531 C 34.972656 32.210938 35.261719 31.261719 35.261719 30.261719 "/>
</g>
</svg>
