<?xml version="1.0" encoding="UTF-8"?>
<svg xmlns="http://www.w3.org/2000/svg" xmlns:xlink="http://www.w3.org/1999/xlink" width="48pt" height="48pt" viewBox="0 0 48 48" version="1.1">
<g id="surface1">
<path style=" stroke:none;fill-rule:nonzero;fill:rgb(0%,0%,0%);fill-opacity:1;" d="M 21.933594 24.066406 C 21.933594 22.929688 22.863281 22 24 22 C 25.136719 22 26.066406 22.929688 26.066406 24.066406 C 26.066406 25.203125 25.136719 26.132812 24 26.132812 C 22.863281 26.132812 21.933594 25.203125 21.933594 24.066406 M 26.273438 28.003906 L 29 32.730469 C 27.527344 33.585938 25.816406 34.066406 24 34.066406 C 22.183594 34.066406 20.472656 33.585938 19 32.730469 L 21.726562 28.003906 C 22.390625 28.394531 23.171875 28.613281 24 28.613281 C 24.828125 28.613281 25.609375 28.394531 26.273438 28.003906 M 19.453125 24.066406 L 14 24.066406 C 14 20.359375 16.007812 17.128906 19 15.402344 L 21.726562 20.128906 C 20.363281 20.921875 19.453125 22.386719 19.453125 24.066406 M 34 24.066406 L 28.546875 24.066406 C 28.546875 22.386719 27.636719 20.921875 26.273438 20.128906 L 29 15.402344 C 31.992188 17.128906 34 20.359375 34 24.066406 "/>
<path style=" stroke:none;fill-rule:nonzero;fill:rgb(0%,0%,0%);fill-opacity:1;" d="M 24 12 C 17.382812 12 12 17.382812 12 24 C 12 30.617188 17.382812 36 24 36 C 30.617188 36 36 30.617188 36 24 C 36 17.382812 30.617188 12 24 12 M 24 38 C 16.28125 38 10 31.71875 10 24 C 10 16.28125 16.28125 10 24 10 C 31.71875 10 38 16.28125 38 24 C 38 31.71875 31.71875 38 24 38 "/>
</g>
</svg>
