<?xml version="1.0" encoding="UTF-8"?>
<svg xmlns="http://www.w3.org/2000/svg" xmlns:xlink="http://www.w3.org/1999/xlink" width="48pt" height="48pt" viewBox="0 0 48 48" version="1.1">
<g id="surface1">
<path style=" stroke:none;fill-rule:nonzero;fill:rgb(0%,0%,0%);fill-opacity:1;" d="M 28.769531 23.925781 C 28.769531 26.023438 27.402344 27.808594 25.515625 28.441406 C 25.296875 27.347656 25.457031 26.167969 26.058594 25.125 C 26.664062 24.074219 27.609375 23.34375 28.675781 22.988281 C 28.738281 23.292969 28.769531 23.605469 28.769531 23.925781 M 19.234375 23.925781 C 19.234375 23.601562 19.265625 23.289062 19.328125 22.984375 C 20.386719 23.34375 21.324219 24.066406 21.925781 25.109375 C 22.53125 26.15625 22.691406 27.335938 22.46875 28.4375 C 20.589844 27.792969 19.234375 26.015625 19.234375 23.925781 M 27.144531 20.347656 C 26.304688 21.089844 25.207031 21.539062 24 21.539062 C 22.796875 21.539062 21.699219 21.089844 20.855469 20.347656 C 21.699219 19.609375 22.796875 19.15625 24 19.15625 C 25.207031 19.15625 26.304688 19.609375 27.144531 20.347656 M 25.582031 23.925781 C 25.582031 24.59375 25.171875 25.164062 24.582031 25.394531 C 24.398438 25.476562 24.199219 25.515625 23.992188 25.515625 C 23.785156 25.515625 23.589844 25.476562 23.40625 25.394531 C 22.816406 25.164062 22.402344 24.59375 22.402344 23.925781 C 22.402344 23.84375 22.410156 23.765625 22.421875 23.695312 C 22.484375 23.28125 22.707031 22.921875 23.015625 22.675781 C 23.285156 22.460938 23.628906 22.335938 23.992188 22.335938 C 24.367188 22.335938 24.710938 22.460938 24.980469 22.683594 C 25.289062 22.933594 25.511719 23.289062 25.566406 23.703125 C 25.574219 23.773438 25.582031 23.84375 25.582031 23.925781 M 31.589844 21.890625 C 31.007812 21.554688 30.382812 21.34375 29.753906 21.234375 C 29.597656 20.902344 29.417969 20.585938 29.210938 20.289062 C 29.433594 19.6875 29.5625 19.042969 29.5625 18.363281 C 29.5625 17.097656 29.136719 15.929688 28.429688 15 C 28.644531 15.546875 28.769531 16.144531 28.769531 16.773438 C 28.769531 17.625 28.542969 18.421875 28.148438 19.117188 C 27.035156 18.152344 25.585938 17.566406 24 17.566406 C 22.414062 17.566406 20.96875 18.152344 19.851562 19.117188 C 19.460938 18.421875 19.234375 17.625 19.234375 16.773438 C 19.234375 16.144531 19.359375 15.546875 19.574219 15 C 18.867188 15.929688 18.4375 17.097656 18.4375 18.363281 C 18.4375 19.046875 18.570312 19.691406 18.789062 20.292969 C 18.585938 20.585938 18.410156 20.894531 18.253906 21.222656 C 17.621094 21.328125 16.992188 21.539062 16.394531 21.882812 C 15.300781 22.519531 14.503906 23.472656 14.050781 24.554688 C 14.417969 24.082031 14.871094 23.679688 15.410156 23.367188 C 16.152344 22.941406 16.960938 22.738281 17.761719 22.730469 C 17.6875 23.117188 17.644531 23.515625 17.644531 23.925781 C 17.644531 26.695312 19.425781 29.046875 21.898438 29.917969 C 21.496094 30.605469 20.914062 31.199219 20.179688 31.625 C 19.640625 31.9375 19.058594 32.132812 18.46875 32.214844 C 19.640625 32.363281 20.863281 32.152344 21.960938 31.523438 C 22.550781 31.183594 23.042969 30.746094 23.445312 30.253906 C 23.628906 30.269531 23.8125 30.28125 24 30.28125 C 24.179688 30.28125 24.355469 30.269531 24.527344 30.253906 C 24.9375 30.753906 25.4375 31.1875 26.027344 31.53125 C 27.125 32.15625 28.347656 32.371094 29.507812 32.222656 C 28.929688 32.144531 28.347656 31.953125 27.800781 31.632812 C 27.0625 31.207031 26.480469 30.613281 26.078125 29.925781 C 28.566406 29.0625 30.359375 26.703125 30.359375 23.925781 C 30.359375 23.519531 30.316406 23.125 30.246094 22.738281 C 31.035156 22.75 31.835938 22.953125 32.570312 23.375 C 33.117188 23.6875 33.570312 24.101562 33.9375 24.5625 C 33.484375 23.480469 32.6875 22.527344 31.589844 21.890625 "/>
<path style=" stroke:none;fill-rule:nonzero;fill:rgb(0%,0%,0%);fill-opacity:1;" d="M 24 12 C 17.382812 12 12 17.382812 12 24 C 12 30.617188 17.382812 36 24 36 C 30.617188 36 36 30.617188 36 24 C 36 17.382812 30.617188 12 24 12 M 24 38 C 16.28125 38 10 31.71875 10 24 C 10 16.28125 16.28125 10 24 10 C 31.71875 10 38 16.28125 38 24 C 38 31.71875 31.71875 38 24 38 "/>
</g>
</svg>
