<?xml version="1.0" encoding="UTF-8"?>
<svg xmlns="http://www.w3.org/2000/svg" xmlns:xlink="http://www.w3.org/1999/xlink" width="48pt" height="48pt" viewBox="0 0 48 48" version="1.1">
<g id="surface1">
<path style=" stroke:none;fill-rule:nonzero;fill:rgb(0%,0%,0%);fill-opacity:1;" d="M 24 36 C 17.378906 36 12 30.621094 12 24 C 12 17.378906 17.378906 12 24 12 C 30.621094 12 36 17.378906 36 24 C 36 30.621094 30.621094 36 24 36 M 24 10 C 16.28125 10 10 16.28125 10 24 C 10 31.71875 16.28125 38 24 38 C 31.71875 38 38 31.71875 38 24 C 38 16.28125 31.71875 10 24 10 M 24.003906 24.839844 C 23.542969 24.839844 23.171875 24.46875 23.171875 24.011719 C 23.171875 23.550781 23.542969 23.171875 24.003906 23.171875 C 24.460938 23.171875 24.832031 23.550781 24.832031 24.011719 C 24.832031 24.46875 24.460938 24.839844 24.003906 24.839844 M 31.753906 25.589844 C 30.8125 25.050781 29.671875 25.199219 28.882812 25.859375 L 26.460938 24.460938 C 26.480469 24.308594 26.503906 24.160156 26.503906 24.011719 C 26.503906 22.921875 25.800781 22 24.832031 21.660156 L 24.832031 18.851562 C 25.800781 18.5 26.503906 17.578125 26.503906 16.5 C 26.503906 15.121094 25.382812 14 24.003906 14 C 22.621094 14 21.503906 15.121094 21.503906 16.5 C 21.503906 17.578125 22.203125 18.5 23.171875 18.851562 L 23.171875 21.660156 C 22.203125 22 21.503906 22.921875 21.503906 24.011719 C 21.503906 24.160156 21.523438 24.308594 21.542969 24.460938 L 19.121094 25.859375 C 18.332031 25.199219 17.191406 25.050781 16.253906 25.589844 C 15.0625 26.28125 14.652344 27.820312 15.332031 29.011719 C 16.023438 30.199219 17.5625 30.609375 18.753906 29.929688 C 19.691406 29.378906 20.132812 28.320312 19.953125 27.308594 L 22.390625 25.898438 C 22.820312 26.269531 23.382812 26.511719 24.003906 26.511719 C 24.621094 26.511719 25.183594 26.269531 25.613281 25.898438 L 28.050781 27.308594 C 27.871094 28.320312 28.3125 29.378906 29.253906 29.929688 C 30.441406 30.609375 31.980469 30.199219 32.671875 29.011719 C 33.351562 27.820312 32.941406 26.28125 31.753906 25.589844 "/>
</g>
</svg>
