<?xml version="1.0" encoding="UTF-8"?>
<svg xmlns="http://www.w3.org/2000/svg" xmlns:xlink="http://www.w3.org/1999/xlink" width="48pt" height="48pt" viewBox="0 0 48 48" version="1.1">
<g id="surface1">
<path style=" stroke:none;fill-rule:nonzero;fill:rgb(0%,0%,0%);fill-opacity:1;" d="M 33 21 C 33 16.039062 28.964844 12 24 12 C 19.035156 12 15 16.039062 15 21 L 15 25.28125 C 15 26.109375 15.335938 26.921875 15.921875 27.503906 L 17 28.578125 L 17 27 L 19 27 L 19 32.894531 C 19 33.085938 19.128906 33.25 19.3125 33.296875 L 21 33.71875 L 21 31 L 23 31 L 23 35 L 25 35 L 25 31 L 27 31 L 27 33.71875 L 28.6875 33.296875 C 28.871094 33.25 29 33.085938 29 32.894531 L 29 27 L 31 27 L 31 28.574219 L 32.078125 27.496094 C 32.671875 26.90625 32.996094 26.121094 32.996094 25.28125 Z M 35 21 L 34.996094 25.285156 C 34.996094 26.65625 34.460938 27.945312 33.492188 28.910156 L 31 31.402344 L 31 32.894531 C 31 34.003906 30.246094 34.96875 29.171875 35.238281 L 26.816406 35.828125 C 26.5 36.515625 25.808594 37 25 37 L 23 37 C 22.191406 37 21.5 36.515625 21.183594 35.828125 L 18.828125 35.238281 C 17.753906 34.96875 17 34.003906 17 32.894531 L 17 31.40625 L 14.511719 28.921875 C 13.550781 27.964844 13 26.636719 13 25.28125 L 13 21 C 13 14.933594 17.933594 10 24 10 C 30.066406 10 35 14.933594 35 21 M 18 24 L 21 27 L 21 24 L 18 23 Z M 27 24 L 30 23 L 30 24 L 27 27 Z M 27 24 "/>
</g>
</svg>
