<?xml version="1.0" encoding="UTF-8"?>
<svg xmlns="http://www.w3.org/2000/svg" xmlns:xlink="http://www.w3.org/1999/xlink" width="48pt" height="48pt" viewBox="0 0 48 48" version="1.1">
<g id="surface1">
<path style=" stroke:none;fill-rule:nonzero;fill:rgb(0%,0%,0%);fill-opacity:1;" d="M 31 26 L 31 27.574219 L 32.078125 26.496094 C 32.671875 25.90625 32.996094 25.121094 32.996094 24.28125 L 33 20 C 33 15.039062 28.964844 11 24 11 C 19.035156 11 15 15.039062 15 20 L 15 24.28125 C 15 25.109375 15.335938 25.921875 15.921875 26.503906 L 17 27.578125 L 17 26 L 19 26 L 19 31.894531 C 19 32.085938 19.128906 32.25 19.3125 32.296875 L 21 32.71875 L 21 30 L 23 30 L 23 34 L 25 34 L 25 30 L 27 30 L 27 32.71875 L 28.6875 32.296875 C 28.871094 32.25 29 32.085938 29 31.894531 L 29 26 Z M 40.464844 31.90625 L 39.316406 33.542969 C 39.101562 33.390625 38.835938 33.332031 38.570312 33.378906 C 38.308594 33.421875 38.078125 33.570312 37.925781 33.785156 L 37.925781 33.789062 C 37.609375 34.242188 37.71875 34.863281 38.171875 35.179688 L 37.023438 36.820312 C 35.957031 36.070312 35.539062 34.753906 35.863281 33.566406 L 31.144531 30.261719 L 31 30.402344 L 31 31.894531 C 31 33.003906 30.246094 33.96875 29.171875 34.238281 L 26.816406 34.828125 C 26.5 35.515625 25.808594 36 25 36 L 23 36 C 22.191406 36 21.5 35.515625 21.183594 34.828125 L 18.828125 34.238281 C 17.753906 33.96875 17 33.003906 17 31.894531 L 17 30.40625 L 16.855469 30.261719 L 12.136719 33.566406 C 12.460938 34.753906 12.042969 36.070312 10.976562 36.820312 L 9.828125 35.179688 C 10.277344 34.863281 10.390625 34.242188 10.074219 33.789062 L 10.074219 33.785156 C 9.921875 33.570312 9.691406 33.421875 9.429688 33.378906 C 9.164062 33.332031 8.898438 33.390625 8.683594 33.542969 L 7.535156 31.90625 C 8.191406 31.445312 8.984375 31.269531 9.773438 31.40625 C 10.222656 31.484375 10.632812 31.671875 10.988281 31.925781 L 15.417969 28.824219 L 14.511719 27.921875 C 13.550781 26.964844 13 25.636719 13 24.28125 L 13 20 C 13 19.21875 13.085938 18.460938 13.238281 17.722656 L 10.988281 16.148438 C 10.632812 16.40625 10.222656 16.589844 9.777344 16.667969 C 9.601562 16.699219 9.425781 16.714844 9.25 16.714844 C 8.640625 16.714844 8.046875 16.527344 7.535156 16.171875 L 8.683594 14.53125 C 8.898438 14.683594 9.164062 14.742188 9.429688 14.699219 C 9.691406 14.652344 9.921875 14.503906 10.074219 14.285156 C 10.226562 14.066406 10.285156 13.800781 10.238281 13.539062 C 10.191406 13.277344 10.046875 13.046875 9.828125 12.894531 L 10.976562 11.253906 C 11.632812 11.714844 12.070312 12.402344 12.210938 13.191406 C 12.289062 13.640625 12.253906 14.085938 12.136719 14.511719 L 13.867188 15.722656 C 15.539062 11.773438 19.449219 9 24 9 C 28.550781 9 32.460938 11.773438 34.132812 15.722656 L 35.863281 14.511719 C 35.746094 14.085938 35.710938 13.640625 35.789062 13.191406 C 35.929688 12.402344 36.367188 11.714844 37.023438 11.253906 L 38.171875 12.894531 C 37.953125 13.046875 37.808594 13.277344 37.761719 13.539062 C 37.714844 13.800781 37.773438 14.066406 37.925781 14.285156 C 38.078125 14.503906 38.308594 14.652344 38.570312 14.699219 C 38.835938 14.742188 39.101562 14.683594 39.316406 14.53125 L 40.464844 16.171875 C 39.953125 16.527344 39.359375 16.714844 38.75 16.714844 C 38.574219 16.714844 38.398438 16.699219 38.222656 16.667969 C 37.777344 16.589844 37.367188 16.40625 37.011719 16.148438 L 34.761719 17.722656 C 34.914062 18.460938 35 19.21875 35 20 L 34.996094 24.285156 C 34.996094 25.65625 34.460938 26.945312 33.492188 27.910156 L 32.578125 28.824219 L 37.011719 31.925781 C 37.367188 31.671875 37.777344 31.484375 38.226562 31.40625 C 39.015625 31.269531 39.808594 31.445312 40.464844 31.90625 M 18 23 L 21 26 L 21 23 L 18 22 Z M 27 23 L 30 22 L 30 23 L 27 26 Z M 27 23 "/>
</g>
</svg>
