<?xml version="1.0" encoding="UTF-8"?>
<svg xmlns="http://www.w3.org/2000/svg" xmlns:xlink="http://www.w3.org/1999/xlink" width="48pt" height="48pt" viewBox="0 0 48 48" version="1.1">
<g id="surface1">
<path style=" stroke:none;fill-rule:nonzero;fill:rgb(0%,0%,0%);fill-opacity:1;" d="M 39 36 L 39 34 C 37.699219 34 36.597656 34.839844 36.183594 36 L 11.816406 36 C 11.402344 34.839844 10.300781 34 9 34 L 9 36 C 9.550781 36 10 36.449219 10 37 C 10 37.550781 9.550781 38 9 38 L 9 40 C 10.300781 40 11.402344 39.160156 11.816406 38 L 36.183594 38 C 36.597656 39.160156 37.699219 40 39 40 L 39 38 C 38.449219 38 38 37.550781 38 37 C 38 36.449219 38.449219 36 39 36 M 33 19 C 33 14.039062 28.964844 10 24 10 C 19.035156 10 15 14.039062 15 19 L 15 23.28125 C 15 24.109375 15.335938 24.921875 15.921875 25.503906 L 17 26.578125 L 17 25 L 19 25 L 19 30.894531 C 19 31.085938 19.128906 31.25 19.3125 31.296875 L 21 31.71875 L 21 29 L 23 29 L 23 33 L 25 33 L 25 29 L 27 29 L 27 31.71875 L 28.6875 31.296875 C 28.871094 31.25 29 31.085938 29 30.894531 L 29 25 L 31 25 L 31 26.574219 L 32.078125 25.496094 C 32.671875 24.90625 32.996094 24.121094 32.996094 23.28125 Z M 35 19 L 34.996094 23.285156 C 34.996094 24.65625 34.460938 25.945312 33.492188 26.910156 L 31 29.402344 L 31 30.894531 C 31 32.003906 30.246094 32.96875 29.171875 33.238281 L 26.816406 33.828125 C 26.5 34.515625 25.808594 35 25 35 L 23 35 C 22.191406 35 21.5 34.515625 21.183594 33.828125 L 18.828125 33.238281 C 17.753906 32.96875 17 32.003906 17 30.894531 L 17 29.40625 L 14.511719 26.921875 C 13.550781 25.964844 13 24.636719 13 23.28125 L 13 19 C 13 12.933594 17.933594 8 24 8 C 30.066406 8 35 12.933594 35 19 M 18 22 L 21 25 L 21 22 L 18 21 Z M 27 22 L 30 21 L 30 22 L 27 25 Z M 27 22 "/>
</g>
</svg>
