<?xml version="1.0" encoding="UTF-8"?>
<svg xmlns="http://www.w3.org/2000/svg" xmlns:xlink="http://www.w3.org/1999/xlink" width="48pt" height="48pt" viewBox="0 0 48 48" version="1.1">
<g id="surface1">
<path style=" stroke:none;fill-rule:nonzero;fill:rgb(0%,0%,0%);fill-opacity:1;" d="M 38 34 L 36 34 L 36 29 L 38 29 Z M 38 37 L 36 37 L 36 35 L 38 35 Z M 27.085938 34.917969 C 29.078125 33.382812 30.472656 31.117188 30.871094 28.523438 C 31.265625 28.304688 31.625 28.019531 31.941406 27.65625 C 32.785156 26.691406 33.230469 25.351562 33.464844 24.121094 C 33.777344 24.933594 33.949219 25.804688 33.984375 26.6875 C 31.632812 27.816406 30 30.214844 30 33 C 30 33.296875 30.023438 33.585938 30.0625 33.875 C 29.164062 34.402344 28.160156 34.769531 27.085938 34.917969 M 21 35 C 16.589844 35 13 31.410156 13 27 C 13 26.003906 13.183594 25.03125 13.535156 24.121094 C 13.78125 25.417969 14.265625 26.835938 15.199219 27.808594 C 15.945312 28.589844 16.914062 29 18 29 L 19.410156 29 L 18.941406 27.667969 C 18.921875 27.601562 16.589844 20.785156 19.808594 16.246094 C 21.117188 14.402344 23.179688 13.152344 25.96875 12.511719 C 25.382812 13.378906 25 14.519531 25 16 C 25 18.804688 26.152344 20.53125 27.167969 22.054688 C 28.148438 23.527344 29 24.804688 29 27 C 29 31.410156 25.410156 35 21 35 M 37 26 C 36.644531 26 36.300781 26.035156 35.957031 26.085938 C 35.765625 23.953125 34.890625 21.9375 33.453125 20.332031 L 31.597656 18.261719 L 31.710938 21.039062 C 31.742188 21.90625 31.632812 24.152344 30.890625 25.628906 C 30.589844 23.605469 29.671875 22.203125 28.832031 20.945312 C 27.851562 19.472656 27 18.195312 27 16 C 27 12.148438 30.59375 12.003906 31 12 L 31 10 C 24.882812 10 20.5625 11.714844 18.171875 15.097656 C 15.523438 18.839844 15.960938 23.601562 16.511719 26.277344 C 15.398438 24.921875 15.25 22.0625 15.289062 21.039062 L 15.402344 18.261719 L 13.546875 20.332031 C 11.902344 22.167969 11 24.535156 11 27 C 11 32.515625 15.484375 37 21 37 L 26 37 C 27.664062 37 29.234375 36.585938 30.617188 35.863281 C 31.710938 38.300781 34.152344 40 37 40 C 40.867188 40 44 36.867188 44 33 C 44 29.132812 40.867188 26 37 26 "/>
</g>
</svg>
