<?xml version="1.0" encoding="UTF-8"?>
<svg xmlns="http://www.w3.org/2000/svg" xmlns:xlink="http://www.w3.org/1999/xlink" width="48pt" height="48pt" viewBox="0 0 48 48" version="1.1">
<g id="surface1">
<path style=" stroke:none;fill-rule:nonzero;fill:rgb(0%,0%,0%);fill-opacity:1;" d="M 42 33 L 44 33 L 44 20 L 42 20 Z M 28.601562 21.488281 C 28.679688 20.980469 28.628906 20.480469 28.46875 20 L 30 20 L 30 18 L 28 18 C 27.449219 18 27 17.550781 27 17 C 27 16.449219 27.449219 16 28 16 L 32.539062 16 L 38.238281 22.648438 L 39.761719 21.351562 L 33.460938 14 L 28 14 C 26.351562 14 25 15.351562 25 17 C 25 17.351562 25.070312 17.691406 25.179688 18 L 23.820312 18 C 23.929688 17.691406 24 17.351562 24 17 C 24 15.351562 22.648438 14 21 14 L 15.539062 14 L 9.238281 21.351562 L 10.761719 22.648438 L 16.460938 16 L 21 16 C 21.550781 16 22 16.449219 22 17 C 22 17.550781 21.550781 18 21 18 L 19 18 L 19 20 L 25.640625 20 C 25.941406 20 26.210938 20.128906 26.398438 20.351562 C 26.601562 20.578125 26.671875 20.871094 26.628906 21.160156 L 26.488281 22 L 23 22 L 23 24 L 26.148438 24 L 25.820312 26 L 23 26 L 23 28 L 25.488281 28 L 25.148438 30 L 9 30 L 9 32 L 40 32 L 40 30 L 27.179688 30 Z M 5 20 L 7 20 L 7 33 L 5 33 Z M 5 20 "/>
</g>
</svg>
