<?xml version="1.0" encoding="UTF-8"?>
<svg xmlns="http://www.w3.org/2000/svg" xmlns:xlink="http://www.w3.org/1999/xlink" width="48pt" height="48pt" viewBox="0 0 48 48" version="1.1">
<g id="surface1">
<path style=" stroke:none;fill-rule:nonzero;fill:rgb(0%,0%,0%);fill-opacity:1;" d="M 25.914062 10 L 28.207031 12.292969 L 26.792969 13.707031 L 24.5 11.414062 L 22.207031 13.707031 L 20.792969 12.292969 L 23.085938 10 L 20.792969 7.707031 L 22.207031 6.292969 L 24.5 8.585938 L 26.792969 6.292969 L 28.207031 7.707031 Z M 42 36 L 44 36 L 44 23 L 42 23 Z M 28.601562 24.488281 C 28.679688 23.980469 28.628906 23.480469 28.46875 23 L 30 23 L 30 21 L 28 21 C 27.449219 21 27 20.550781 27 20 C 27 19.449219 27.449219 19 28 19 L 32.539062 19 L 38.238281 25.648438 L 39.761719 24.351562 L 33.460938 17 L 28 17 C 26.351562 17 25 18.351562 25 20 C 25 20.351562 25.070312 20.691406 25.179688 21 L 23.820312 21 C 23.929688 20.691406 24 20.351562 24 20 C 24 18.351562 22.648438 17 21 17 L 15.539062 17 L 9.238281 24.351562 L 10.761719 25.648438 L 16.460938 19 L 21 19 C 21.550781 19 22 19.449219 22 20 C 22 20.550781 21.550781 21 21 21 L 19 21 L 19 23 L 25.640625 23 C 25.941406 23 26.210938 23.128906 26.398438 23.351562 C 26.601562 23.578125 26.671875 23.871094 26.628906 24.160156 L 26.488281 25 L 23 25 L 23 27 L 26.148438 27 L 25.820312 29 L 23 29 L 23 31 L 25.488281 31 L 25.148438 33 L 9 33 L 9 35 L 40 35 L 40 33 L 27.179688 33 Z M 5 23 L 7 23 L 7 36 L 5 36 Z M 5 23 "/>
</g>
</svg>
