<?xml version="1.0" encoding="UTF-8"?>
<svg xmlns="http://www.w3.org/2000/svg" xmlns:xlink="http://www.w3.org/1999/xlink" width="48pt" height="48pt" viewBox="0 0 48 48" version="1.1">
<g id="surface1">
<path style=" stroke:none;fill-rule:nonzero;fill:rgb(0%,0%,0%);fill-opacity:1;" d="M 37.152344 33 L 37.484375 31 L 35 31 L 35 29 L 37.820312 29 L 38.152344 27 L 35 27 L 35 25 L 38.484375 25 L 38.625 24.164062 C 38.675781 23.871094 38.59375 23.582031 38.402344 23.355469 C 38.210938 23.125 37.9375 23 37.636719 23 L 32.453125 23 C 32.621094 23.472656 32.683594 23.984375 32.597656 24.492188 L 31.179688 33 Z M 29.636719 21 C 29.761719 21 29.878906 21.023438 30 21.039062 L 30 21 L 33 21 C 33.550781 21 34 20.550781 34 20 C 34 19.449219 33.550781 19 33 19 L 27.816406 19 C 27.925781 19.3125 28 19.648438 28 20 C 28 20.351562 27.925781 20.6875 27.816406 21 Z M 40.597656 24.492188 L 38.847656 35 L 13 35 L 13 33 L 29.152344 33 L 29.484375 31 L 27 31 L 27 29 L 29.820312 29 L 30.152344 27 L 27 27 L 27 25 L 30.484375 25 L 30.625 24.164062 C 30.675781 23.871094 30.59375 23.582031 30.402344 23.355469 C 30.210938 23.125 29.9375 23 29.636719 23 L 23 23 L 23 21 L 25 21 C 25.550781 21 26 20.550781 26 20 C 26 19.449219 25.550781 19 25 19 L 20.460938 19 L 14.757812 25.652344 L 13.242188 24.347656 L 19.539062 17 L 33 17 C 34.65625 17 36 18.347656 36 20 C 36 20.351562 35.925781 20.6875 35.816406 21 L 37.636719 21 C 38.523438 21 39.355469 21.386719 39.929688 22.0625 C 40.5 22.734375 40.746094 23.621094 40.597656 24.492188 M 25.941406 13 L 26 13 C 26.519531 13 27.019531 12.800781 27.390625 12.441406 C 27.78125 12.058594 28 11.550781 28 11 L 28 10.929688 C 28 10.558594 27.921875 10.191406 27.769531 9.859375 L 26.253906 7.171875 C 26.136719 6.984375 25.863281 6.984375 25.746094 7.171875 L 24.230469 9.859375 C 24.082031 10.191406 24 10.558594 24 10.929688 C 24 12.039062 24.871094 12.96875 25.941406 13 M 9 23 L 11 23 L 11 36 L 9 36 Z M 9 23 "/>
</g>
</svg>
