<?xml version="1.0" encoding="UTF-8"?>
<svg xmlns="http://www.w3.org/2000/svg" xmlns:xlink="http://www.w3.org/1999/xlink" width="48pt" height="48pt" viewBox="0 0 48 48" version="1.1">
<g id="surface1">
<path style=" stroke:none;fill-rule:nonzero;fill:rgb(0%,0%,0%);fill-opacity:1;" d="M 38 34 L 36 34 L 36 29 L 38 29 Z M 38 37 L 36 37 L 36 35 L 38 35 Z M 18 15 L 34 15 L 34 25 L 18 25 Z M 36 19 L 37 19 C 37.550781 19 38 19.449219 38 20 C 38 20.550781 37.550781 21 37 21 L 36 21 Z M 37 26 C 36.660156 26 36.328125 26.03125 36 26.078125 L 36 23 L 37 23 C 38.652344 23 40 21.652344 40 20 C 40 18.347656 38.652344 17 37 17 L 36 17 L 36 15 L 40 15 L 40 13 L 16 13 L 16 27 L 20.171875 27 L 18.171875 29 L 13 29 L 13 22 L 11 22 L 11 38 L 13 38 L 13 31 L 19 31 L 23 27 L 33.40625 27 C 31.367188 28.222656 30 30.449219 30 33 C 30 36.867188 33.132812 40 37 40 C 40.867188 40 44 36.867188 44 33 C 44 29.132812 40.867188 26 37 26 "/>
</g>
</svg>
