<?xml version="1.0" encoding="UTF-8"?>
<svg xmlns="http://www.w3.org/2000/svg" xmlns:xlink="http://www.w3.org/1999/xlink" width="48pt" height="48pt" viewBox="0 0 48 48" version="1.1">
<g id="surface1">
<path style=" stroke:none;fill-rule:nonzero;fill:rgb(0%,0%,0%);fill-opacity:1;" d="M 32 25 L 34 25 C 34 30.515625 29.515625 35 24 35 C 18.484375 35 14 30.515625 14 25 L 16 25 C 16 29.070312 19.058594 32.4375 23 32.929688 L 23 29 L 25 29 L 25 32.929688 C 28.941406 32.4375 32 29.070312 32 25 M 34.152344 21 L 13.847656 21 L 13.179688 17 L 34.820312 17 Z M 40 15 L 8 15 L 8 17 L 11.152344 17 L 12.152344 23 L 35.847656 23 L 36.847656 17 L 40 17 Z M 40 15 "/>
</g>
</svg>
