<?xml version="1.0" encoding="UTF-8"?>
<svg xmlns="http://www.w3.org/2000/svg" xmlns:xlink="http://www.w3.org/1999/xlink" width="48pt" height="48pt" viewBox="0 0 48 48" version="1.1">
<g id="surface1">
<path style=" stroke:none;fill-rule:nonzero;fill:rgb(0%,0%,0%);fill-opacity:1;" d="M 21 36 L 27 36 L 27 34 L 21 34 Z M 24 26 C 24.550781 26 25 25.550781 25 25 C 25 24.449219 24.550781 24 24 24 C 23.449219 24 23 24.449219 23 25 C 23 25.550781 23.449219 26 24 26 M 26.699219 26.285156 L 28.707031 28.292969 L 27.292969 29.707031 L 25.285156 27.699219 C 24.894531 27.886719 24.460938 28 24 28 C 22.347656 28 21 26.652344 21 25 C 21 24.539062 21.113281 24.105469 21.300781 23.714844 L 17.292969 19.707031 L 18.707031 18.292969 L 22.714844 22.300781 C 23.105469 22.113281 23.539062 22 24 22 C 25.652344 22 27 23.347656 27 25 C 27 25.460938 26.886719 25.894531 26.699219 26.285156 M 33.898438 34.898438 L 33.191406 35.605469 L 30.363281 32.777344 L 31.777344 31.363281 L 33.164062 32.75 C 34.820312 30.789062 35.742188 28.417969 35.941406 26 L 34 26 L 34 24 L 35.941406 24 C 35.738281 21.582031 34.816406 19.214844 33.15625 17.257812 L 31.777344 18.636719 L 30.363281 17.222656 L 31.742188 15.84375 C 29.78125 14.183594 27.417969 13.253906 25 13.054688 L 25 15 L 23 15 L 23 13.054688 C 20.582031 13.253906 18.21875 14.183594 16.257812 15.84375 L 17.636719 17.222656 L 16.222656 18.636719 L 14.84375 17.257812 C 13.183594 19.214844 12.261719 21.582031 12.058594 24 L 14 24 L 14 26 L 12.058594 26 C 12.257812 28.417969 13.179688 30.789062 14.835938 32.75 L 16.222656 31.363281 L 17.636719 32.777344 L 14.808594 35.605469 L 14.101562 34.898438 C 8.644531 29.441406 8.644531 20.558594 14.101562 15.101562 C 19.558594 9.640625 28.441406 9.640625 33.898438 15.101562 C 39.355469 20.558594 39.355469 29.441406 33.898438 34.898438 "/>
</g>
</svg>
