<?xml version="1.0" encoding="UTF-8"?>
<svg xmlns="http://www.w3.org/2000/svg" xmlns:xlink="http://www.w3.org/1999/xlink" width="48pt" height="48pt" viewBox="0 0 48 48" version="1.1">
<g id="surface1">
<path style=" stroke:none;fill-rule:nonzero;fill:rgb(0%,0%,0%);fill-opacity:1;" d="M 41.710938 30.710938 L 40.289062 29.289062 L 36 33.589844 L 35.449219 33.039062 L 34.210938 31.789062 L 32.789062 33.210938 L 34.191406 34.601562 L 36 36.410156 Z M 44 33 C 44 36.871094 40.871094 40 37 40 C 33.128906 40 30 36.871094 30 33 C 30 29.488281 32.570312 26.601562 35.929688 26.089844 C 35.929688 26.058594 35.941406 26.03125 35.941406 26 L 34 26 L 34 24 L 35.941406 24 C 35.738281 21.578125 34.820312 19.210938 33.160156 17.261719 L 31.78125 18.640625 L 30.359375 17.21875 L 31.738281 15.839844 C 29.78125 14.191406 27.421875 13.25 25 13.050781 L 25 15 L 23 15 L 23 13.050781 C 20.578125 13.25 18.21875 14.191406 16.261719 15.839844 L 17.640625 17.21875 L 16.21875 18.640625 L 14.839844 17.261719 C 13.179688 19.210938 12.261719 21.578125 12.058594 24 L 14 24 L 14 26 L 12.058594 26 C 12.261719 28.421875 13.179688 30.789062 14.839844 32.75 L 16.21875 31.359375 L 17.640625 32.78125 L 14.808594 35.609375 L 14.101562 34.898438 C 8.640625 29.441406 8.640625 20.558594 14.101562 15.101562 C 19.558594 9.640625 28.441406 9.640625 33.898438 15.101562 C 36.898438 18.101562 38.25 22.140625 37.960938 26.070312 C 41.378906 26.53125 44 29.460938 44 33 M 25 25 C 25 24.449219 24.550781 24 24 24 C 23.449219 24 23 24.449219 23 25 C 23 25.550781 23.449219 26 24 26 C 24.550781 26 25 25.550781 25 25 M 26.699219 26.289062 L 28.710938 28.289062 L 27.289062 29.710938 L 25.289062 27.699219 C 24.890625 27.890625 24.460938 28 24 28 C 22.351562 28 21 26.648438 21 25 C 21 24.539062 21.109375 24.109375 21.300781 23.710938 L 17.289062 19.710938 L 18.710938 18.289062 L 22.710938 22.300781 C 23.109375 22.109375 23.539062 22 24 22 C 25.648438 22 27 23.351562 27 25 C 27 25.460938 26.890625 25.890625 26.699219 26.289062 M 21 34 L 27 34 L 27 36 L 21 36 Z M 21 34 "/>
</g>
</svg>
