<?xml version="1.0" encoding="UTF-8"?>
<svg xmlns="http://www.w3.org/2000/svg" xmlns:xlink="http://www.w3.org/1999/xlink" width="48pt" height="48pt" viewBox="0 0 48 48" version="1.1">
<g id="surface1">
<path style=" stroke:none;fill-rule:nonzero;fill:rgb(0%,0%,0%);fill-opacity:1;" d="M 38 29 L 36 29 L 36 34 L 38 34 Z M 38 35 L 36 35 L 36 37 L 38 37 Z M 44 33 C 44 36.871094 40.871094 40 37 40 C 33.128906 40 30 36.871094 30 33 C 30 29.488281 32.570312 26.601562 35.929688 26.089844 C 35.929688 26.058594 35.941406 26.03125 35.941406 26 L 34 26 L 34 24 L 35.941406 24 C 35.738281 21.578125 34.820312 19.210938 33.160156 17.261719 L 31.78125 18.640625 L 30.359375 17.21875 L 31.738281 15.839844 C 29.78125 14.191406 27.421875 13.25 25 13.050781 L 25 15 L 23 15 L 23 13.050781 C 20.578125 13.25 18.21875 14.191406 16.261719 15.839844 L 17.640625 17.21875 L 16.21875 18.640625 L 14.839844 17.261719 C 13.179688 19.210938 12.261719 21.578125 12.058594 24 L 14 24 L 14 26 L 12.058594 26 C 12.261719 28.421875 13.179688 30.789062 14.839844 32.75 L 16.21875 31.359375 L 17.640625 32.78125 L 14.808594 35.609375 L 14.101562 34.898438 C 8.640625 29.441406 8.640625 20.558594 14.101562 15.101562 C 19.558594 9.640625 28.441406 9.640625 33.898438 15.101562 C 36.898438 18.101562 38.25 22.140625 37.960938 26.070312 C 41.378906 26.53125 44 29.460938 44 33 M 25 25 C 25 24.449219 24.550781 24 24 24 C 23.449219 24 23 24.449219 23 25 C 23 25.550781 23.449219 26 24 26 C 24.550781 26 25 25.550781 25 25 M 26.699219 23.710938 C 26.890625 24.109375 27 24.539062 27 25 C 27 26.648438 25.648438 28 24 28 C 23.539062 28 23.109375 27.890625 22.710938 27.699219 L 20.710938 29.710938 L 19.289062 28.289062 L 21.300781 26.289062 C 21.109375 25.890625 21 25.460938 21 25 C 21 23.351562 22.351562 22 24 22 C 24.460938 22 24.890625 22.109375 25.289062 22.300781 L 29.289062 18.289062 L 30.710938 19.710938 Z M 21 34 L 27 34 L 27 36 L 21 36 Z M 21 34 "/>
</g>
</svg>
