<?xml version="1.0" encoding="UTF-8"?>
<svg xmlns="http://www.w3.org/2000/svg" xmlns:xlink="http://www.w3.org/1999/xlink" width="48pt" height="48pt" viewBox="0 0 48 48" version="1.1">
<g id="surface1">
<path style=" stroke:none;fill-rule:nonzero;fill:rgb(0%,0%,0%);fill-opacity:1;" d="M 15.292969 16.707031 L 12.292969 13.707031 L 13.707031 12.292969 L 16.707031 15.292969 Z M 32.707031 16.707031 L 31.292969 15.292969 L 34.292969 12.292969 L 35.707031 13.707031 Z M 25 14 L 23 14 L 23 9 L 25 9 Z M 18 31 L 30 31 L 30 34 L 18 34 Z M 24 18 C 27.308594 18 30 20.691406 30 24 L 30 29 L 25 29 L 25 25 L 23 25 L 23 29 L 18 29 L 18 24 C 18 20.691406 20.691406 18 24 18 M 32 34 L 32 24 C 32 19.589844 28.410156 16 24 16 C 19.589844 16 16 19.589844 16 24 L 16 34 L 12 34 L 12 36 L 36 36 L 36 34 Z M 32 34 "/>
</g>
</svg>
