<?xml version="1.0" encoding="UTF-8"?>
<svg xmlns="http://www.w3.org/2000/svg" xmlns:xlink="http://www.w3.org/1999/xlink" width="48pt" height="48pt" viewBox="0 0 48 48" version="1.1">
<g id="surface1">
<path style=" stroke:none;fill-rule:nonzero;fill:rgb(0%,0%,0%);fill-opacity:1;" d="M 33 31.476562 L 28.429688 27.820312 C 27.058594 28.59375 25.53125 28.992188 24 28.992188 C 22.46875 28.992188 20.941406 28.59375 19.570312 27.820312 L 15 31.476562 L 15 34.996094 L 33 34.996094 Z M 19.050781 24.945312 C 21.777344 27.671875 26.21875 27.671875 28.949219 24.945312 C 31.679688 22.214844 31.679688 17.773438 28.949219 15.042969 C 27.585938 13.679688 25.792969 13 24 13 C 22.207031 13 20.414062 13.679688 19.050781 15.042969 C 16.320312 17.773438 16.320312 22.214844 19.050781 24.945312 M 11.484375 22.996094 C 11.484375 22.445312 11.035156 21.996094 10.484375 21.996094 C 9.933594 21.996094 9.484375 22.445312 9.484375 22.996094 C 9.484375 23.546875 9.933594 23.996094 10.484375 23.996094 C 11.035156 23.996094 11.484375 23.546875 11.484375 22.996094 M 35 30.515625 L 35 36.996094 L 13 36.996094 L 13 31.871094 C 11.421875 30.1875 10.335938 28.152344 9.824219 25.914062 C 8.488281 25.613281 7.484375 24.421875 7.484375 22.996094 C 7.484375 21.339844 8.832031 19.996094 10.484375 19.996094 C 12.140625 19.996094 13.484375 21.339844 13.484375 22.996094 C 13.484375 24.167969 12.800781 25.179688 11.8125 25.671875 C 12.191406 27.191406 12.894531 28.59375 13.867188 29.820312 L 17.898438 26.59375 C 17.8125 26.515625 17.71875 26.445312 17.636719 26.359375 C 14.128906 22.847656 14.128906 17.140625 17.636719 13.628906 C 21.144531 10.121094 26.855469 10.121094 30.363281 13.628906 C 33.871094 17.140625 33.871094 22.847656 30.363281 26.359375 C 30.28125 26.445312 30.1875 26.515625 30.101562 26.59375 Z M 17 32.996094 L 31 32.996094 L 31 30.996094 L 17 30.996094 Z M 21.878906 17.875 L 20.464844 16.460938 C 21.40625 15.515625 22.664062 14.996094 24 14.996094 C 25.335938 14.996094 26.59375 15.515625 27.535156 16.460938 C 28.480469 17.402344 29 18.660156 29 19.996094 C 29 21.332031 28.480469 22.585938 27.535156 23.53125 L 26.121094 22.117188 C 26.6875 21.550781 27 20.796875 27 19.996094 C 27 19.195312 26.6875 18.441406 26.121094 17.875 C 24.988281 16.742188 23.011719 16.742188 21.878906 17.875 "/>
</g>
</svg>
