<?xml version="1.0" encoding="UTF-8"?>
<svg xmlns="http://www.w3.org/2000/svg" xmlns:xlink="http://www.w3.org/1999/xlink" width="48pt" height="48pt" viewBox="0 0 48 48" version="1.1">
<g id="surface1">
<path style=" stroke:none;fill-rule:nonzero;fill:rgb(0%,0%,0%);fill-opacity:1;" d="M 24 36 C 22.898438 36 22 35.101562 22 34 L 20 34 C 20 36.207031 21.792969 38 24 38 C 26.207031 38 28 36.207031 28 34 L 26 34 C 26 35.101562 25.101562 36 24 36 M 19 26 L 29 26 L 29 28 L 19 28 Z M 17 30 L 17 20 C 17 16.140625 20.140625 13 24 13 C 27.859375 13 31 16.140625 31 20 L 31 30 Z M 33 30 L 33 20 C 33 15.039062 28.964844 11 24 11 C 19.035156 11 15 15.039062 15 20 L 15 30 L 14 30 L 14 32 L 34 32 L 34 30 Z M 33 30 "/>
</g>
</svg>
