<?xml version="1.0" encoding="UTF-8"?>
<svg xmlns="http://www.w3.org/2000/svg" xmlns:xlink="http://www.w3.org/1999/xlink" width="48pt" height="48pt" viewBox="0 0 48 48" version="1.1">
<g id="surface1">
<path style=" stroke:none;fill-rule:nonzero;fill:rgb(0%,0%,0%);fill-opacity:1;" d="M 33 30 L 15 30 L 15 28 L 33 28 Z M 20.566406 19 L 27.433594 19 L 32.234375 26 L 15.765625 26 Z M 21 16 C 21 14.347656 22.347656 13 24 13 C 25.652344 13 27 14.347656 27 16 L 27 17 L 21 17 Z M 29 17.722656 L 29 16 C 29 13.585938 27.277344 11.566406 25 11.101562 L 25 9 L 23 9 L 23 11.101562 C 20.722656 11.566406 19 13.585938 19 16 L 19 17.722656 L 13 26.722656 L 13 32 L 35 32 L 35 26.722656 Z M 29 17.722656 "/>
<path style=" stroke:none;fill-rule:nonzero;fill:rgb(0%,0%,0%);fill-opacity:1;" d="M 24 36 C 22.898438 36 22 35.101562 22 34 L 20 34 C 20 36.207031 21.792969 38 24 38 C 26.207031 38 28 36.207031 28 34 L 26 34 C 26 35.101562 25.101562 36 24 36 "/>
</g>
</svg>
