<?xml version="1.0" encoding="UTF-8"?>
<svg xmlns="http://www.w3.org/2000/svg" xmlns:xlink="http://www.w3.org/1999/xlink" width="48pt" height="48pt" viewBox="0 0 48 48" version="1.1">
<g id="surface1">
<path style=" stroke:none;fill-rule:nonzero;fill:rgb(0%,0%,0%);fill-opacity:1;" d="M 17.171875 13.722656 L 15.050781 15.84375 C 13.882812 17.015625 13.882812 18.917969 15.050781 20.085938 L 29.191406 34.230469 C 30.363281 35.398438 32.265625 35.398438 33.4375 34.230469 L 35.558594 32.109375 L 32.019531 28.574219 L 29.898438 30.695312 L 18.585938 19.378906 L 20.707031 17.257812 Z M 31.3125 37.105469 C 30.03125 37.105469 28.753906 36.617188 27.777344 35.644531 L 13.636719 21.5 C 11.6875 19.550781 11.6875 16.378906 13.636719 14.429688 L 17.171875 10.894531 L 23.535156 17.257812 L 21.414062 19.378906 L 29.898438 27.867188 L 32.019531 25.742188 L 38.386719 32.109375 L 34.851562 35.644531 C 33.875 36.617188 32.59375 37.105469 31.3125 37.105469 "/>
</g>
</svg>
