<?xml version="1.0" encoding="UTF-8"?>
<svg xmlns="http://www.w3.org/2000/svg" xmlns:xlink="http://www.w3.org/1999/xlink" width="48pt" height="48pt" viewBox="0 0 48 48" version="1.1">
<g id="surface1">
<path style=" stroke:none;fill-rule:nonzero;fill:rgb(0%,0%,0%);fill-opacity:1;" d="M 15.085938 13.722656 L 12.964844 15.84375 C 11.792969 17.015625 11.792969 18.917969 12.964844 20.085938 L 27.105469 34.230469 C 28.273438 35.398438 30.179688 35.398438 31.347656 34.230469 L 33.46875 32.109375 L 29.933594 28.574219 L 27.8125 30.695312 L 16.5 19.378906 L 18.621094 17.257812 Z M 29.226562 37.105469 C 27.945312 37.105469 26.664062 36.617188 25.691406 35.644531 L 11.550781 21.5 C 9.601562 19.550781 9.601562 16.378906 11.550781 14.429688 L 15.085938 10.894531 L 21.449219 17.257812 L 19.328125 19.378906 L 27.8125 27.867188 L 29.933594 25.742188 L 36.296875 32.109375 L 32.761719 35.644531 C 31.789062 36.617188 30.507812 37.105469 29.226562 37.105469 M 33 20 L 31 20 L 31 22 L 33 22 Z M 33 18.578125 C 33 18.183594 33.210938 17.828125 33.527344 17.699219 C 35.277344 16.976562 36.265625 15.160156 35.9375 13.285156 C 35.652344 11.671875 34.328125 10.347656 32.71875 10.0625 C 31.53125 9.855469 30.335938 10.171875 29.429688 10.9375 C 28.519531 11.699219 28 12.816406 28 14 L 30 14 C 30 13.40625 30.261719 12.847656 30.714844 12.46875 C 31.175781 12.078125 31.761719 11.925781 32.371094 12.03125 C 33.15625 12.171875 33.828125 12.84375 33.96875 13.628906 C 34.132812 14.574219 33.640625 15.488281 32.765625 15.847656 C 31.691406 16.292969 31 17.363281 31 18.578125 L 31 19 L 33 19 Z M 33 18.578125 "/>
</g>
</svg>
