<?xml version="1.0" encoding="UTF-8"?>
<svg xmlns="http://www.w3.org/2000/svg" xmlns:xlink="http://www.w3.org/1999/xlink" width="48pt" height="48pt" viewBox="0 0 48 48" version="1.1">
<g id="surface1">
<path style=" stroke:none;fill-rule:nonzero;fill:rgb(0%,0%,0%);fill-opacity:1;" d="M 25 9 L 25 11 C 31.066406 11 36 15.933594 36 22 L 38 22 C 38 14.832031 32.167969 9 25 9 M 25 13 L 25 15 C 28.859375 15 32 18.140625 32 22 L 34 22 C 34 17.039062 29.964844 13 25 13 M 25 17 L 25 19 C 26.652344 19 28 20.347656 28 22 L 30 22 C 30 19.242188 27.757812 17 25 17 M 15.085938 13.722656 L 12.964844 15.84375 C 11.792969 17.015625 11.792969 18.917969 12.964844 20.085938 L 27.105469 34.230469 C 28.273438 35.398438 30.179688 35.398438 31.347656 34.230469 L 33.46875 32.105469 L 29.933594 28.570312 L 27.8125 30.691406 L 16.5 19.378906 L 18.621094 17.257812 Z M 29.226562 37.105469 C 27.945312 37.105469 26.664062 36.617188 25.691406 35.644531 L 11.550781 21.5 C 9.601562 19.550781 9.601562 16.378906 11.550781 14.429688 L 15.085938 10.894531 L 21.449219 17.257812 L 19.328125 19.378906 L 27.8125 27.863281 L 29.933594 25.742188 L 36.296875 32.105469 L 32.761719 35.644531 C 31.789062 36.617188 30.507812 37.105469 29.226562 37.105469 "/>
</g>
</svg>
