<?xml version="1.0" encoding="UTF-8"?>
<svg xmlns="http://www.w3.org/2000/svg" xmlns:xlink="http://www.w3.org/1999/xlink" width="48pt" height="48pt" viewBox="0 0 48 48" version="1.1">
<g id="surface1">
<path style=" stroke:none;fill-rule:nonzero;fill:rgb(0%,0%,0%);fill-opacity:1;" d="M 31.347656 34.230469 C 30.179688 35.398438 28.277344 35.398438 27.105469 34.230469 L 12.960938 20.085938 C 11.792969 18.917969 11.792969 17.015625 12.960938 15.84375 L 15.085938 13.722656 L 18.621094 17.257812 L 16.5 19.378906 L 27.8125 30.695312 L 29.933594 28.574219 L 33.46875 32.109375 Z M 29.933594 25.746094 L 27.8125 27.867188 L 19.328125 19.378906 L 21.449219 17.257812 L 15.085938 10.894531 L 11.546875 14.429688 C 9.597656 16.378906 9.597656 19.550781 11.546875 21.5 L 25.691406 35.644531 C 26.664062 36.617188 27.945312 37.105469 29.226562 37.105469 C 30.507812 37.105469 31.789062 36.617188 32.761719 35.644531 L 36.296875 32.109375 Z M 35 15 L 35 16 L 33 17 L 33 15 Z M 31 15 L 31 17 L 29 16 L 29 15 Z M 35 15 L 35 16 L 33 17 L 33 15 Z M 29 15 L 31 15 L 31 17 L 29 16 Z M 35 16 L 33 17 L 33 15 L 35 15 Z M 29 16 L 29 15 L 31 15 L 31 17 Z M 29 16 L 31 17 L 31 15 L 29 15 Z M 30 20 L 34 20 L 34 18.484375 L 34.394531 18.183594 C 35.414062 17.410156 36 16.25 36 15 C 36 12.792969 34.207031 11 32 11 C 31.449219 11 30.90625 11.113281 30.390625 11.332031 C 29.855469 11.570312 29.347656 11.949219 28.9375 12.421875 C 28.582031 12.84375 28.3125 13.347656 28.164062 13.878906 C 28.054688 14.25 28 14.621094 28 15 C 28 15.558594 28.113281 16.09375 28.339844 16.582031 C 28.609375 17.207031 29.042969 17.753906 29.609375 18.1875 L 30 18.488281 Z M 36 22 L 28 22 L 28 19.449219 C 27.351562 18.867188 26.839844 18.164062 26.511719 17.394531 C 26.175781 16.664062 26 15.851562 26 15 C 26 14.429688 26.082031 13.867188 26.242188 13.328125 C 26.460938 12.535156 26.871094 11.765625 27.417969 11.121094 C 28.023438 10.417969 28.777344 9.859375 29.59375 9.496094 C 30.371094 9.164062 31.175781 9 32 9 C 35.308594 9 38 11.691406 38 15 C 38 16.707031 37.277344 18.304688 36 19.449219 Z M 36 22 "/>
</g>
</svg>
