<?xml version="1.0" encoding="UTF-8"?>
<svg xmlns="http://www.w3.org/2000/svg" xmlns:xlink="http://www.w3.org/1999/xlink" width="48pt" height="48pt" viewBox="0 0 48 48" version="1.1">
<g id="surface1">
<path style=" stroke:none;fill-rule:nonzero;fill:rgb(0%,0%,0%);fill-opacity:1;" d="M 19.324219 10.265625 C 19.324219 9.957031 19.390625 9.644531 19.515625 9.371094 L 20.789062 7.117188 C 20.886719 6.960938 21.113281 6.960938 21.210938 7.117188 L 22.480469 9.371094 C 22.609375 9.644531 22.675781 9.957031 22.675781 10.265625 L 22.675781 10.324219 C 22.675781 10.785156 22.492188 11.214844 22.164062 11.53125 C 21.855469 11.832031 21.433594 12 21 12 L 20.949219 12 C 20.054688 11.976562 19.324219 11.195312 19.324219 10.265625 M 19 20 L 29 20 L 29 35 L 19 35 Z M 23 18 L 19 18 L 19 15 L 23 15 Z M 29 16 L 29 18 L 25 18 L 25 15 L 28 15 C 28.550781 15 29 15.449219 29 16 M 28 13 L 17 13 L 17 37 L 31 37 L 31 16 C 31 14.347656 29.652344 13 28 13 "/>
</g>
</svg>
