<?xml version="1.0" encoding="UTF-8"?>
<svg xmlns="http://www.w3.org/2000/svg" xmlns:xlink="http://www.w3.org/1999/xlink" width="48pt" height="48pt" viewBox="0 0 48 48" version="1.1">
<g id="surface1">
<path style=" stroke:none;fill-rule:nonzero;fill:rgb(0%,0%,0%);fill-opacity:1;" d="M 18.636719 23.121094 L 19.660156 12 L 22.464844 12 L 23.796875 14 L 21.796875 17 L 23.796875 20 L 23.832031 23.554688 L 26.199219 20 L 24.199219 17 L 26.199219 14 L 24.867188 12 L 28.335938 12 L 29.363281 23.121094 C 29.503906 24.648438 29.011719 26.109375 27.980469 27.242188 C 26.945312 28.375 25.535156 29 24 29 C 22.464844 29 21.054688 28.375 20.023438 27.242188 C 18.988281 26.109375 18.496094 24.648438 18.636719 23.121094 M 29.457031 28.59375 C 30.851562 27.0625 31.542969 25 31.355469 22.9375 L 30.160156 10 L 17.835938 10 L 16.648438 22.9375 C 16.457031 25 17.148438 27.0625 18.542969 28.59375 C 19.710938 29.875 21.296875 30.6875 23 30.921875 L 23 36 L 19 36 L 19 38 L 29 38 L 29 36 L 25 36 L 25 30.921875 C 26.699219 30.6875 28.285156 29.875 29.457031 28.59375 "/>
</g>
</svg>
