<?xml version="1.0" encoding="UTF-8"?>
<svg xmlns="http://www.w3.org/2000/svg" xmlns:xlink="http://www.w3.org/1999/xlink" width="48pt" height="48pt" viewBox="0 0 48 48" version="1.1">
<g id="surface1">
<path style=" stroke:none;fill-rule:nonzero;fill:rgb(0%,0%,0%);fill-opacity:1;" d="M 21 20 L 29 20 L 29 22 L 21 22 Z M 31 36 L 19 36 L 19 21 C 19 17.691406 21.691406 15 25 15 C 28.308594 15 31 17.691406 31 21 Z M 17 25 L 15 25 L 15 16 C 15 13.957031 16.3125 13.304688 17.226562 13.097656 C 17.640625 14.097656 18.605469 14.824219 19.769531 14.964844 C 18.074219 16.429688 17 18.589844 17 21 Z M 25 13 L 20.152344 13 C 19.519531 13 19 12.550781 19 12 C 19 11.449219 19.519531 11 20.152344 11 L 32 11 L 32 9 L 20.152344 9 C 18.757812 9 17.582031 9.875 17.171875 11.074219 C 15.394531 11.363281 13 12.613281 13 16 L 13 32 L 15 32 L 15 27 L 17 27 L 17 38 L 33 38 L 33 21 C 33 16.589844 29.410156 13 25 13 "/>
</g>
</svg>
