<?xml version="1.0" encoding="UTF-8"?>
<svg xmlns="http://www.w3.org/2000/svg" xmlns:xlink="http://www.w3.org/1999/xlink" width="48pt" height="48pt" viewBox="0 0 48 48" version="1.1">
<g id="surface1">
<path style=" stroke:none;fill-rule:nonzero;fill:rgb(0%,0%,0%);fill-opacity:1;" d="M 23 23 L 25 23 L 25 25 L 23 25 Z M 29 30 L 19 30 L 19 18 L 29 18 Z M 29 35 L 19 35 L 19 32 L 29 32 Z M 24 11 C 26.757812 11 29 13.242188 29 16 L 19 16 C 19 13.242188 21.242188 11 24 11 M 33 18 L 33 16 L 31 16 C 31 12.140625 27.859375 9 24 9 C 20.140625 9 17 12.140625 17 16 L 15 16 L 15 18 L 17 18 L 17 23 L 15 23 L 15 25 L 17 25 L 17 35 L 15 35 L 15 37 L 33 37 L 33 35 L 31 35 L 31 25 L 33 25 L 33 23 L 31 23 L 31 18 Z M 33 18 "/>
</g>
</svg>
