<?xml version="1.0" encoding="UTF-8"?>
<svg xmlns="http://www.w3.org/2000/svg" xmlns:xlink="http://www.w3.org/1999/xlink" width="48pt" height="48pt" viewBox="0 0 48 48" version="1.1">
<g id="surface1">
<path style=" stroke:none;fill-rule:nonzero;fill:rgb(0%,0%,0%);fill-opacity:1;" d="M 14 25 L 34 25 L 34 28 L 14 28 Z M 27 34 L 21 34 L 21 30 L 27 30 Z M 12 30 L 19 30 L 19 34 L 12 34 L 12 36 L 36 36 L 36 34 L 29 34 L 29 30 L 36 30 L 36 23 L 12 23 Z M 34 18 L 14 18 L 14 15 L 34 15 Z M 29 13 L 29 10 L 27 10 L 27 13 L 21 13 L 21 10 L 19 10 L 19 13 L 12 13 L 12 20 L 36 20 L 36 13 Z M 29 13 "/>
</g>
</svg>
