<?xml version="1.0" encoding="UTF-8"?>
<svg xmlns="http://www.w3.org/2000/svg" xmlns:xlink="http://www.w3.org/1999/xlink" width="48pt" height="48pt" viewBox="0 0 48 48" version="1.1">
<g id="surface1">
<path style=" stroke:none;fill-rule:nonzero;fill:rgb(0%,0%,0%);fill-opacity:1;" d="M 33.207031 31.621094 L 27.414062 25.828125 L 25.828125 27.414062 L 31.625 33.210938 L 30.976562 33.914062 C 30.875 34.027344 30.808594 34.117188 30.757812 34.210938 C 30.511719 34.640625 30.515625 35.214844 30.765625 35.636719 C 31.019531 36.070312 31.417969 36.339844 31.890625 36.402344 C 32.363281 36.460938 32.816406 36.304688 33.148438 35.976562 C 33.460938 35.660156 33.617188 35.21875 33.570312 34.765625 L 33.523438 34.292969 L 33.882812 33.882812 C 34.113281 33.652344 34.433594 33.535156 34.761719 33.570312 C 35.214844 33.613281 35.660156 33.460938 35.972656 33.144531 C 36.304688 32.8125 36.460938 32.355469 36.402344 31.894531 C 36.339844 31.417969 36.070312 31.019531 35.636719 30.765625 C 35.210938 30.519531 34.640625 30.511719 34.210938 30.753906 C 34.121094 30.808594 34.027344 30.875 33.914062 30.980469 Z M 27.414062 23 L 33.359375 28.945312 C 34.382812 28.425781 35.65625 28.460938 36.648438 29.039062 C 37.613281 29.605469 38.246094 30.550781 38.382812 31.636719 C 38.523438 32.722656 38.160156 33.789062 37.386719 34.5625 C 36.875 35.070312 36.226562 35.40625 35.527344 35.527344 C 35.40625 36.226562 35.074219 36.875 34.558594 37.390625 C 33.789062 38.160156 32.71875 38.523438 31.636719 38.386719 C 30.550781 38.246094 29.605469 37.613281 29.039062 36.648438 C 28.460938 35.65625 28.425781 34.382812 28.945312 33.359375 L 23 27.414062 Z M 22.171875 20.585938 L 16.375 14.789062 L 17.023438 14.085938 C 17.125 13.972656 17.191406 13.882812 17.246094 13.789062 C 17.488281 13.359375 17.484375 12.785156 17.234375 12.363281 C 16.980469 11.929688 16.582031 11.660156 16.109375 11.597656 C 15.636719 11.535156 15.183594 11.695312 14.855469 12.027344 C 14.539062 12.339844 14.382812 12.78125 14.429688 13.234375 L 14.476562 13.710938 L 14.113281 14.121094 C 13.882812 14.351562 13.558594 14.464844 13.230469 14.429688 C 12.785156 14.378906 12.339844 14.539062 12.027344 14.855469 C 11.695312 15.1875 11.539062 15.644531 11.597656 16.109375 C 11.660156 16.582031 11.929688 16.980469 12.363281 17.234375 C 12.789062 17.484375 13.359375 17.488281 13.789062 17.246094 C 13.878906 17.195312 13.972656 17.125 14.085938 17.019531 L 14.792969 16.378906 L 20.585938 22.171875 Z M 15.90625 9.585938 C 16.058594 9.585938 16.210938 9.597656 16.363281 9.613281 C 17.449219 9.753906 18.394531 10.386719 18.960938 11.351562 C 19.539062 12.34375 19.574219 13.617188 19.054688 14.640625 L 25 20.585938 L 20.585938 25 L 14.640625 19.054688 C 13.621094 19.574219 12.34375 19.539062 11.351562 18.960938 C 10.386719 18.394531 9.753906 17.449219 9.617188 16.363281 C 9.476562 15.277344 9.839844 14.210938 10.613281 13.441406 C 11.125 12.929688 11.773438 12.59375 12.472656 12.472656 C 12.59375 11.773438 12.925781 11.125 13.441406 10.613281 C 14.105469 9.949219 14.984375 9.585938 15.90625 9.585938 M 19 33 L 21 33 L 21 38 L 19 38 Z M 15.292969 31.292969 L 16.707031 32.707031 L 13.707031 35.707031 L 12.292969 34.292969 Z M 15 29 L 10 29 L 10 27 L 15 27 Z M 33 19 L 38 19 L 38 21 L 33 21 Z M 32.707031 16.707031 L 31.292969 15.292969 L 34.292969 12.292969 L 35.707031 13.707031 Z M 29 15 L 27 15 L 27 10 L 29 10 Z M 29 15 "/>
</g>
</svg>
