<?xml version="1.0" encoding="UTF-8"?>
<svg xmlns="http://www.w3.org/2000/svg" xmlns:xlink="http://www.w3.org/1999/xlink" width="48pt" height="48pt" viewBox="0 0 48 48" version="1.1">
<g id="surface1">
<path style=" stroke:none;fill-rule:nonzero;fill:rgb(0%,0%,0%);fill-opacity:1;" d="M 19 33 L 21 33 L 21 38 L 19 38 Z M 15.292969 31.292969 L 16.707031 32.707031 L 13.707031 35.707031 L 12.292969 34.292969 Z M 15 29 L 10 29 L 10 27 L 15 27 Z M 33 19 L 38 19 L 38 21 L 33 21 Z M 32.707031 16.707031 L 31.292969 15.292969 L 34.292969 12.292969 L 35.707031 13.707031 Z M 29 15 L 27 15 L 27 10 L 29 10 Z M 29.414062 31 L 31 29.414062 L 35.585938 34 L 34 35.585938 Z M 31 26.585938 L 30.5 27.085938 L 29 25.585938 L 29 23 L 27 23 L 27 26.414062 L 29.085938 28.5 L 28.5 29.085938 L 26.414062 27 L 23 27 L 23 29 L 25.585938 29 L 27.085938 30.5 L 26.585938 31 L 34 38.414062 L 38.414062 34 Z M 12.414062 14 L 14 12.414062 L 18.585938 17 L 17 18.585938 Z M 21.585938 21 L 25 21 L 25 19 L 22.414062 19 L 20.914062 17.5 L 21.414062 17 L 14 9.585938 L 9.585938 14 L 17 21.414062 L 17.5 20.914062 L 19 22.414062 L 19 25 L 21 25 L 21 21.585938 L 18.914062 19.5 L 19.5 18.914062 Z M 21.585938 21 "/>
</g>
</svg>
