<?xml version="1.0" encoding="UTF-8"?>
<svg xmlns="http://www.w3.org/2000/svg" xmlns:xlink="http://www.w3.org/1999/xlink" width="48pt" height="48pt" viewBox="0 0 48 48" version="1.1">
<g id="surface1">
<path style=" stroke:none;fill-rule:nonzero;fill:rgb(0%,0%,0%);fill-opacity:1;" d="M 38 34 L 36 34 L 36 29 L 38 29 Z M 38 37 L 36 37 L 36 35 L 38 35 Z M 37 26 C 33.132812 26 30 29.132812 30 33 C 30 36.867188 33.132812 40 37 40 C 40.867188 40 44 36.867188 44 33 C 44 29.132812 40.867188 26 37 26 M 20 25 L 23.472656 25 L 23.472656 33.21875 L 27.941406 23 L 24.472656 23 L 24.472656 14.78125 Z M 23.472656 38 L 21.472656 38 L 21.472656 27 L 16.941406 27 L 24.472656 10 L 26.472656 10 L 26.472656 21 L 31 21 Z M 23.472656 38 "/>
</g>
</svg>
