<?xml version="1.0" encoding="UTF-8"?>
<svg xmlns="http://www.w3.org/2000/svg" xmlns:xlink="http://www.w3.org/1999/xlink" width="48pt" height="48pt" viewBox="0 0 48 48" version="1.1">
<g id="surface1">
<path style=" stroke:none;fill-rule:nonzero;fill:rgb(0%,0%,0%);fill-opacity:1;" d="M 11.027344 16.5 C 8.351562 21.128906 8.351562 26.871094 11.027344 31.5 L 9.296875 32.5 C 6.261719 27.257812 6.261719 20.742188 9.296875 15.5 Z M 38.703125 32.5 L 36.972656 31.5 C 39.652344 26.871094 39.652344 21.128906 36.972656 16.5 L 38.703125 15.5 C 41.738281 20.742188 41.738281 27.257812 38.703125 32.5 M 14.832031 19.996094 C 13.722656 22.539062 13.722656 25.460938 14.832031 28.003906 L 13 28.804688 C 11.667969 25.75 11.667969 22.25 13 19.195312 Z M 35 19.195312 C 36.332031 22.25 36.332031 25.75 35 28.804688 L 33.164062 28.003906 C 34.277344 25.460938 34.277344 22.539062 33.164062 19.996094 Z M 27.941406 23 L 23.472656 33.21875 L 23.472656 25 L 20 25 L 24.472656 14.78125 L 24.472656 23 Z M 26.472656 10 L 24.472656 10 L 16.941406 27 L 21.472656 27 L 21.472656 38 L 23.472656 38 L 31 21 L 26.472656 21 Z M 26.472656 10 "/>
</g>
</svg>
