<?xml version="1.0" encoding="UTF-8"?>
<svg xmlns="http://www.w3.org/2000/svg" xmlns:xlink="http://www.w3.org/1999/xlink" width="48pt" height="48pt" viewBox="0 0 48 48" version="1.1">
<g id="surface1">
<path style=" stroke:none;fill-rule:nonzero;fill:rgb(0%,0%,0%);fill-opacity:1;" d="M 13 19 C 13 15.046875 9.730469 14 8 14 L 6 14 L 6 16 L 7.992188 16 C 8.496094 16.007812 11 16.175781 11 19 C 11 22.953125 14.269531 24 16 24 L 16.007812 22 C 15.503906 21.992188 13 21.824219 13 19 M 41 24 L 24 24 L 24 26 L 41 26 Z M 22 24 L 20 24 L 20 26 L 22 26 Z M 43 22 L 43 28 L 18 28 L 18 22 Z M 43 22 "/>
</g>
</svg>
