<?xml version="1.0" encoding="UTF-8"?>
<svg xmlns="http://www.w3.org/2000/svg" xmlns:xlink="http://www.w3.org/1999/xlink" width="48pt" height="48pt" viewBox="0 0 48 48" version="1.1">
<g id="surface1">
<path style=" stroke:none;fill-rule:nonzero;fill:rgb(0%,0%,0%);fill-opacity:1;" d="M 13 21 C 13 17.046875 9.730469 16 8 16 L 6 16 L 6 18 L 7.992188 18 C 8.496094 18.007812 11 18.175781 11 21 C 11 24.953125 14.269531 26 16 26 L 16.007812 24 C 15.503906 23.992188 13 23.824219 13 21 M 41 26 L 24 26 L 24 28 L 41 28 Z M 22 26 L 20 26 L 20 28 L 22 28 Z M 43 24 L 43 30 L 18 30 L 18 24 Z M 43 24 "/>
<path style=" stroke:none;fill-rule:nonzero;fill:rgb(0%,0%,0%);fill-opacity:1;" d="M 31.414062 14.414062 L 30 13 L 27.707031 15.292969 L 25.414062 13 L 24 14.414062 L 26.292969 16.707031 L 24 19 L 25.414062 20.414062 L 27.707031 18.121094 L 30 20.414062 L 31.414062 19 L 29.121094 16.707031 Z M 31.414062 14.414062 "/>
</g>
</svg>
