<?xml version="1.0" encoding="UTF-8"?>
<svg xmlns="http://www.w3.org/2000/svg" xmlns:xlink="http://www.w3.org/1999/xlink" width="48pt" height="48pt" viewBox="0 0 48 48" version="1.1">
<g id="surface1">
<path style=" stroke:none;fill-rule:nonzero;fill:rgb(0%,0%,0%);fill-opacity:1;" d="M 38.414062 33 L 40.707031 30.707031 L 39.292969 29.292969 L 37 31.585938 L 34.707031 29.292969 L 33.292969 30.707031 L 35.585938 33 L 33.292969 35.292969 L 34.707031 36.707031 L 37 34.414062 L 39.292969 36.707031 L 40.707031 35.292969 Z M 41 26 L 41 24 L 24 24 L 24 26 Z M 22 24 L 20 24 L 20 26 L 22 26 Z M 44 33 C 44 36.867188 40.867188 40 37 40 C 33.132812 40 30 36.867188 30 33 C 30 31.039062 30.808594 29.269531 32.105469 28 L 18 28 L 18 22 L 43 22 L 43 28 L 41.894531 28 C 43.191406 29.269531 44 31.039062 44 33 M 16.007812 22 L 16 24 C 14.269531 24 11 22.953125 11 19 C 11 16.175781 8.496094 16.007812 7.992188 16 L 6 16 L 6 14 L 8 14 C 9.730469 14 13 15.046875 13 19 C 13 21.824219 15.503906 21.992188 16.007812 22 "/>
</g>
</svg>
