<?xml version="1.0" encoding="UTF-8"?>
<svg xmlns="http://www.w3.org/2000/svg" xmlns:xlink="http://www.w3.org/1999/xlink" width="48pt" height="48pt" viewBox="0 0 48 48" version="1.1">
<g id="surface1">
<path style=" stroke:none;fill-rule:nonzero;fill:rgb(0%,0%,0%);fill-opacity:1;" d="M 27 10 L 24.859375 10 L 23.164062 21 L 27 21 L 27 18 L 25 18 L 25 16 L 27 16 Z M 15.765625 21 L 13.253906 19.746094 L 11.382812 16 L 10.867188 16 L 10.152344 21 Z M 41 25 C 41 26.652344 39.652344 28 38 28 L 34 28 L 34 26 L 38 26 C 38.550781 26 39 25.550781 39 25 C 39 24.449219 38.550781 24 38 24 L 37.585938 24 L 36.585938 23 L 12.121094 23 L 16.320312 26 L 19 26 L 19 28 L 15.679688 28 L 8.679688 23 L 7 23 L 7 21 L 8.132812 21 L 9.132812 14 L 12.617188 14 L 14.746094 18.253906 L 20.234375 21 L 21.140625 21 L 23.140625 8 L 29 8 L 29 21 L 31 21 L 31 19 L 33 19 L 33 21 L 37.414062 21 L 38.449219 22.03125 C 39.890625 22.25 41 23.496094 41 25 M 25 28 L 27 28 L 27 30 L 25 30 L 25 32 L 27 32 L 27 38 L 24.859375 38 L 23.011719 26 L 20.988281 26 L 23.140625 40 L 29 40 L 29 26 L 25 26 Z M 31 26 L 33 26 L 33 31 L 31 31 Z M 31 26 "/>
</g>
</svg>
