<?xml version="1.0" encoding="UTF-8"?>
<svg xmlns="http://www.w3.org/2000/svg" xmlns:xlink="http://www.w3.org/1999/xlink" width="48pt" height="48pt" viewBox="0 0 48 48" version="1.1">
<g id="surface1">
<path style=" stroke:none;fill-rule:nonzero;fill:rgb(0%,0%,0%);fill-opacity:1;" d="M 38.765625 24 L 36.765625 23 L 35 23 L 35 25 L 36.765625 25 Z M 27 27 L 25 27 L 25 25 L 33 25 L 33 23 L 25 23 L 25 21 L 27 21 L 27 18 L 25 18 L 25 16 L 27 16 L 27 10 L 24.859375 10 L 22.859375 23 L 18.097656 23 L 14 23.820312 L 14 24.179688 L 18.097656 25 L 22.859375 25 L 24.859375 38 L 27 38 L 27 32 L 25 32 L 25 30 L 27 30 Z M 11.921875 25 L 10 25 L 10 29 L 10.324219 29 Z M 10 23 L 11.921875 23 L 10.324219 19 L 10 19 Z M 40.765625 24 C 40.765625 24.761719 40.339844 25.449219 39.660156 25.789062 L 37.238281 27 L 29 27 L 29 40 L 23.140625 40 L 21.140625 27 L 17.804688 26.980469 L 13.621094 26.144531 L 11.675781 31 L 8 31 L 8 25 L 7 25 L 7 23 L 8 23 L 8 17 L 11.675781 17 L 13.621094 21.859375 L 17.804688 21 L 21.140625 21 L 23.140625 8 L 29 8 L 29 21 L 37.238281 21 L 39.660156 22.210938 C 40.339844 22.550781 40.765625 23.238281 40.765625 24 M 33 13 L 31 13 L 31 19 L 33 19 Z M 31 29 L 33 29 L 33 35 L 31 35 Z M 31 29 "/>
</g>
</svg>
