<?xml version="1.0" encoding="UTF-8"?>
<svg xmlns="http://www.w3.org/2000/svg" xmlns:xlink="http://www.w3.org/1999/xlink" width="48pt" height="48pt" viewBox="0 0 48 48" version="1.1">
<g id="surface1">
<path style=" stroke:none;fill-rule:nonzero;fill:rgb(0%,0%,0%);fill-opacity:1;" d="M 31 31 L 33 31 L 33 26 L 31 26 Z M 27 19 L 26.898438 18 L 25 18 L 25 16 L 26.699219 16 L 26.097656 10 L 23.925781 10 L 23.078125 21 L 27 21 Z M 15.296875 21 L 10.628906 17 L 9.179688 17 L 9.847656 21 Z M 41 25 C 41 26.652344 39.652344 28 38 28 L 34 28 L 34 26 L 38 26 C 38.550781 26 39 25.550781 39 25 C 39 24.449219 38.550781 24 38 24 L 37.585938 24 L 36.585938 23 L 12.121094 23 L 16.320312 26 L 19 26 L 19 28 L 15.679688 28 L 8.679688 23 L 7 23 L 7 21 L 7.820312 21 L 6.820312 15 L 11.371094 15 L 18.367188 21 L 21.074219 21 L 22.074219 8 L 27.90625 8 L 28.996094 18.898438 L 28.996094 21 L 31 21 L 31 19 L 33 19 L 33 21 L 37.414062 21 L 38.445312 22.03125 C 39.890625 22.25 41 23.496094 41 25 M 25 26 L 29 26 L 29 29 L 27.90625 40 L 22.074219 40 L 20.996094 26 L 23.003906 26 L 23.925781 38 L 26.09375 38 L 26.695312 32 L 25 32 L 25 30 L 26.894531 30 L 27.003906 28.898438 L 27.003906 28 L 25 28 Z M 25 26 "/>
</g>
</svg>
