<?xml version="1.0" encoding="UTF-8"?>
<svg xmlns="http://www.w3.org/2000/svg" xmlns:xlink="http://www.w3.org/1999/xlink" width="48pt" height="48pt" viewBox="0 0 48 48" version="1.1">
<g id="surface1">
<path style=" stroke:none;fill-rule:nonzero;fill:rgb(0%,0%,0%);fill-opacity:1;" d="M 38.765625 24 L 36.765625 23 L 35 23 L 35 25 L 36.765625 25 Z M 26.09375 38 L 26.695312 32 L 25 32 L 25 30 L 26.894531 30 L 27 29 L 27 27 L 25 27 L 25 25 L 33 25 L 33 23 L 25 23 L 25 21 L 27 21 L 27 19 L 26.898438 18 L 25 18 L 25 16 L 26.699219 16 L 26.09375 10 L 23.925781 10 L 22.925781 23 L 15.070312 23 L 9 23.867188 L 9 24.132812 L 15.070312 25 L 22.925781 25 L 23.925781 38 Z M 12.71875 26.683594 L 11 26.4375 L 11 31 L 11.28125 31 Z M 11 21.566406 L 12.71875 21.324219 L 11.28125 17 L 11 17 Z M 40.765625 24 C 40.765625 24.761719 40.339844 25.449219 39.660156 25.789062 L 37.238281 27 L 29 27 L 29 29 L 27.90625 40 L 22.074219 40 L 21.074219 27 L 14.859375 26.988281 L 14.730469 26.972656 L 12.71875 33 L 9 33 L 9 26.152344 L 7 25.867188 L 7 22.132812 L 9 21.851562 L 9 15 L 12.71875 15 L 14.734375 21.039062 L 14.859375 21 L 21.074219 21 L 22.074219 8 L 27.90625 8 L 28.996094 19 L 28.996094 21 L 37.238281 21 L 39.660156 22.210938 C 40.339844 22.550781 40.765625 23.238281 40.765625 24 M 33 13 L 31 13 L 31 19 L 33 19 Z M 31 29 L 33 29 L 33 35 L 31 35 Z M 31 29 "/>
</g>
</svg>
