<?xml version="1.0" encoding="UTF-8"?>
<svg xmlns="http://www.w3.org/2000/svg" xmlns:xlink="http://www.w3.org/1999/xlink" width="48pt" height="48pt" viewBox="0 0 48 48" version="1.1">
<g id="surface1">
<path style=" stroke:none;fill-rule:nonzero;fill:rgb(0%,0%,0%);fill-opacity:1;" d="M 22.441406 38 L 20.351562 38 L 23.738281 27 L 29.210938 27 Z M 10.519531 18 L 12.917969 21 L 9.804688 21 L 9.21875 18 Z M 20.351562 10 L 22.441406 10 L 29.210938 21 L 23.738281 21 Z M 38.414062 21 L 31.558594 21 L 29.710938 18 L 31 18 L 31 16 L 28.480469 16 L 27.25 14 L 29 14 L 29 12 L 26.019531 12 L 23.558594 8 L 17 8 L 17 10 L 18.261719 10 L 21.644531 21 L 15.480469 21 L 11.480469 16 L 6.78125 16 L 8 22.097656 L 8 24 L 7 24 L 7 26 L 8.902344 26 L 13.804688 26.980469 L 20 27 L 20 25 L 14.097656 25 L 10 24.179688 L 10 23 L 37.585938 23 L 38.9375 24.351562 C 38.792969 24.730469 38.425781 25 38 25 L 22.261719 25 L 18.261719 38 L 17 38 L 17 40 L 23.558594 40 L 26.019531 36 L 29 36 L 29 34 L 27.25 34 L 28.480469 32 L 31 32 L 31 30 L 29.710938 30 L 31.558594 27 L 38 27 C 39.65625 27 41 25.652344 41 24 L 41 23.585938 Z M 38.414062 21 "/>
</g>
</svg>
