<?xml version="1.0" encoding="UTF-8"?>
<svg xmlns="http://www.w3.org/2000/svg" xmlns:xlink="http://www.w3.org/1999/xlink" width="48pt" height="48pt" viewBox="0 0 48 48" version="1.1">
<g id="surface1">
<path style=" stroke:none;fill-rule:nonzero;fill:rgb(0%,0%,0%);fill-opacity:1;" d="M 38 15 C 38 13.898438 37.101562 13 36 13 C 34.898438 13 34 13.898438 34 15 C 34 16.101562 34.898438 17 36 17 C 37.101562 17 38 16.101562 38 15 M 11.007812 22 L 35 22 L 35 18.859375 C 33.277344 18.410156 32 16.859375 32 15 C 32 12.792969 33.792969 11 36 11 C 38.207031 11 40 12.792969 40 15 C 40 16.859375 38.722656 18.410156 37 18.859375 L 37 34 L 35 34 L 35 24 L 11.007812 24 C 10.449219 24 10 24.449219 10 25.007812 L 10 28 L 33 28 L 33 30 L 10 30 L 10 34 L 8 34 L 8 25.007812 C 8 23.347656 9.347656 22 11.007812 22 "/>
</g>
</svg>
