<?xml version="1.0" encoding="UTF-8"?>
<svg xmlns="http://www.w3.org/2000/svg" xmlns:xlink="http://www.w3.org/1999/xlink" width="48pt" height="48pt" viewBox="0 0 48 48" version="1.1">
<g id="surface1">
<path style=" stroke:none;fill-rule:nonzero;fill:rgb(0%,0%,0%);fill-opacity:1;" d="M 29.847656 28 C 29.460938 29.160156 28.359375 30 27.070312 30 L 20.929688 30 C 19.652344 30 18.558594 29.179688 18.160156 28 Z M 33.589844 15 L 35.289062 16.710938 L 36.710938 15.289062 L 34.410156 13 L 25 13 L 25 10 L 23 10 L 23 13 L 13.589844 13 L 11.289062 15.289062 L 12.710938 16.710938 L 14.410156 15 L 23 15 L 23 26 L 14 26 L 14 28 L 16.089844 28 C 16.53125 30.269531 18.53125 32 20.929688 32 L 23 32 L 23 35 L 19 35 L 19 37 L 29 37 L 29 35 L 25 35 L 25 32 L 27.070312 32 C 29.460938 32 31.449219 30.300781 31.902344 28 L 34 28 L 34 26 L 25 26 L 25 15 Z M 33.589844 15 "/>
</g>
</svg>
