<?xml version="1.0" encoding="UTF-8"?>
<svg xmlns="http://www.w3.org/2000/svg" xmlns:xlink="http://www.w3.org/1999/xlink" width="48pt" height="48pt" viewBox="0 0 48 48" version="1.1">
<g id="surface1">
<path style=" stroke:none;fill-rule:nonzero;fill:rgb(0%,0%,0%);fill-opacity:1;" d="M 24 28 C 23.449219 28 23 27.550781 23 27 C 23 26.449219 23.449219 26 24 26 C 24.550781 26 25 26.449219 25 27 C 25 27.550781 24.550781 28 24 28 M 24 24 C 22.699219 24 21.597656 24.839844 21.183594 26 L 18 26 L 18 28 L 21.183594 28 C 21.597656 29.160156 22.699219 30 24 30 C 25.652344 30 27 28.652344 27 27 C 27 25.347656 25.652344 24 24 24 "/>
<path style=" stroke:none;fill-rule:nonzero;fill:rgb(0%,0%,0%);fill-opacity:1;" d="M 31 32 L 17 32 C 14.242188 32 12 29.757812 12 27 C 12 24.242188 14.242188 22 17 22 L 31 22 C 33.757812 22 36 24.242188 36 27 C 36 29.757812 33.757812 32 31 32 M 35.890625 32 C 37.1875 30.730469 38 28.957031 38 27 C 38 23.480469 35.386719 20.566406 32 20.078125 L 32 14.414062 L 34.414062 12 L 37 12 L 37 10 L 33.585938 10 L 30.585938 13 L 27 13 L 27 15 L 30 15 L 30 20 L 20 20 L 20 17 L 23 17 L 23 15 L 15 15 L 15 17 L 18 17 L 18 20 L 17 20 C 13.140625 20 10 23.140625 10 27 C 10 28.957031 10.8125 30.730469 12.109375 32 L 10 32 L 10 34 L 39 34 L 39 32 Z M 35.890625 32 "/>
</g>
</svg>
