<?xml version="1.0" encoding="UTF-8"?>
<svg xmlns="http://www.w3.org/2000/svg" xmlns:xlink="http://www.w3.org/1999/xlink" width="48pt" height="48pt" viewBox="0 0 48 48" version="1.1">
<g id="surface1">
<path style=" stroke:none;fill-rule:nonzero;fill:rgb(0%,0%,0%);fill-opacity:1;" d="M 31 32 L 12 32 C 11.449219 32 11 31.550781 11 31 C 11 30.449219 11.449219 30 12 30 L 35 30 L 35 32 Z M 37 32 L 37 18.585938 L 32.414062 14 L 34.414062 12 L 37 12 L 37 10 L 33.585938 10 L 30.585938 13 L 27 13 L 27 15 L 30.585938 15 L 35 19.414062 L 35 28 L 12 28 C 10.347656 28 9 29.347656 9 31 C 9 32.652344 10.347656 34 12 34 L 39 34 L 39 32 Z M 37 32 "/>
</g>
</svg>
