<?xml version="1.0" encoding="UTF-8"?>
<svg xmlns="http://www.w3.org/2000/svg" xmlns:xlink="http://www.w3.org/1999/xlink" width="48pt" height="48pt" viewBox="0 0 48 48" version="1.1">
<g id="surface1">
<path style=" stroke:none;fill-rule:nonzero;fill:rgb(0%,0%,0%);fill-opacity:1;" d="M 12.15625 20 C 12.417969 19.109375 13.121094 18 15 18 L 32 18 C 32.128906 18 34.546875 18.035156 35.554688 20 Z M 38 30 L 38 22 C 38 17.253906 34.074219 16 32 16 L 15 16 C 11.046875 16 10 19.269531 10 21 L 10 30 L 8 30 L 8 32 L 14 32 L 14 30 L 12 30 L 12 22 L 36 22 L 36 30 L 34 30 L 34 32 L 40 32 L 40 30 Z M 38 30 "/>
</g>
</svg>
