<?xml version="1.0" encoding="UTF-8"?>
<svg xmlns="http://www.w3.org/2000/svg" xmlns:xlink="http://www.w3.org/1999/xlink" width="48pt" height="48pt" viewBox="0 0 48 48" version="1.1">
<g id="surface1">
<path style=" stroke:none;fill-rule:nonzero;fill:rgb(0%,0%,0%);fill-opacity:1;" d="M 15 26 L 17 26 L 17 28 L 15 28 Z M 12 27 C 12 24.792969 13.792969 23 16 23 C 18.207031 23 20 24.792969 20 27 C 20 29.207031 18.207031 31 16 31 C 13.792969 31 12 29.207031 12 27 M 14 16 L 14 18 L 38 18 L 38 21 L 29.644531 21 L 21.988281 27.265625 C 21.992188 27.175781 22 27.089844 22 27 C 22 23.691406 19.308594 21 16 21 C 14.460938 21 13.0625 21.585938 12 22.539062 L 12 16 L 10 16 L 10 27 C 10 30.308594 12.691406 33 16 33 C 17.363281 33 18.617188 32.535156 19.628906 31.769531 L 19.632812 31.773438 L 19.78125 31.652344 C 19.800781 31.636719 19.820312 31.621094 19.839844 31.605469 L 30.355469 23 L 40 23 L 40 16 Z M 14 16 "/>
</g>
</svg>
