<?xml version="1.0" encoding="UTF-8"?>
<svg xmlns="http://www.w3.org/2000/svg" xmlns:xlink="http://www.w3.org/1999/xlink" width="48pt" height="48pt" viewBox="0 0 48 48" version="1.1">
<g id="surface1">
<path style=" stroke:none;fill-rule:nonzero;fill:rgb(0%,0%,0%);fill-opacity:1;" d="M 27 27 L 29 27 L 29 29 L 27 29 Z M 21 27 L 23 27 L 23 29 L 21 29 Z M 15 27 L 17 27 L 17 29 L 15 29 Z M 27 22 L 29 22 L 29 24 L 27 24 Z M 21 22 L 23 22 L 23 24 L 21 24 Z M 15 22 L 17 22 L 17 24 L 15 24 Z M 27 17 L 29 17 L 29 19 L 27 19 Z M 21 17 L 23 17 L 23 19 L 21 19 Z M 15 17 L 17 17 L 17 19 L 15 19 Z M 36 32 C 34.898438 32 34 31.101562 34 30 C 34 28.898438 34.898438 28 36 28 C 37.101562 28 38 28.898438 38 30 C 38 31.101562 37.101562 32 36 32 M 12 14 L 32 14 L 32 30 C 32 30.730469 32.210938 31.410156 32.554688 32 L 12 32 Z M 36 11 C 37.101562 11 38 11.898438 38 13 L 38 26.558594 C 37.410156 26.210938 36.730469 26 36 26 C 35.269531 26 34.589844 26.210938 34 26.558594 L 34 13 C 34 11.898438 34.898438 11 36 11 M 36 9 C 34.140625 9 32.589844 10.277344 32.140625 12 L 10 12 L 10 34 L 36 34 C 38.207031 34 40 32.207031 40 30 L 40 13 C 40 10.792969 38.207031 9 36 9 "/>
</g>
</svg>
