<?xml version="1.0" encoding="UTF-8"?>
<svg xmlns="http://www.w3.org/2000/svg" xmlns:xlink="http://www.w3.org/1999/xlink" width="48pt" height="48pt" viewBox="0 0 48 48" version="1.1">
<g id="surface1">
<path style=" stroke:none;fill-rule:nonzero;fill:rgb(0%,0%,0%);fill-opacity:1;" d="M 30 17.585938 L 29 18.585938 L 29 21.414062 L 30 22.414062 L 30 24 L 18 24 L 18 22.414062 L 19 21.414062 L 19 18.585938 L 18 17.585938 L 18 14 L 30 14 Z M 30 36 L 18 36 L 18 26 L 30 26 Z M 20 11 L 28 11 L 28 12 L 20 12 Z M 32 18.414062 L 32 12 L 30 12 L 30 9 L 18 9 L 18 12 L 16 12 L 16 18.414062 L 17 19.414062 L 17 20.585938 L 16 21.585938 L 16 38 L 32 38 L 32 21.585938 L 31 20.585938 L 31 19.414062 Z M 32 18.414062 "/>
</g>
</svg>
