<?xml version="1.0" encoding="UTF-8"?>
<svg xmlns="http://www.w3.org/2000/svg" xmlns:xlink="http://www.w3.org/1999/xlink" width="48pt" height="48pt" viewBox="0 0 48 48" version="1.1">
<g id="surface1">
<path style=" stroke:none;fill-rule:nonzero;fill:rgb(0%,0%,0%);fill-opacity:1;" d="M 26 31 L 28 31 C 28 33.207031 26.203125 35 24 35 C 21.796875 35 20 33.207031 20 31 L 22 31 C 22 32.101562 22.894531 33 24 33 C 25.105469 33 26 32.101562 26 31 M 24 37 C 20.691406 37 18 34.308594 18 31 L 18 20 L 30 20 L 30 31 C 30 34.308594 27.308594 37 24 37 M 23 14.722656 L 23 18 L 18 18 L 18 17.578125 Z M 30 17.578125 L 30 18 L 25 18 L 25 14.722656 Z M 25 12.421875 L 25 11 L 28 11 L 28 9 L 20 9 L 20 11 L 23 11 L 23 12.421875 L 16 16.421875 L 16 31 C 16 35.410156 19.589844 39 24 39 C 28.410156 39 32 35.410156 32 31 L 32 16.421875 Z M 25 12.421875 "/>
</g>
</svg>
