<?xml version="1.0" encoding="UTF-8"?>
<svg xmlns="http://www.w3.org/2000/svg" xmlns:xlink="http://www.w3.org/1999/xlink" width="48pt" height="48pt" viewBox="0 0 48 48" version="1.1">
<g id="surface1">
<path style=" stroke:none;fill-rule:nonzero;fill:rgb(0%,0%,0%);fill-opacity:1;" d="M 29 10 L 19 10 L 19 8 L 29 8 Z M 23.292969 23.292969 L 30 18 L 24.707031 24.707031 Z M 25 34.949219 L 25 32 L 23 32 L 23 34.949219 C 17.730469 34.472656 13.527344 30.269531 13.050781 25 L 16 25 L 16 23 L 13.050781 23 C 13.527344 17.730469 17.730469 13.527344 23 13.050781 L 23 16 L 25 16 L 25 13.050781 C 30.269531 13.527344 34.472656 17.730469 34.949219 23 L 32 23 L 32 25 L 34.949219 25 C 34.472656 30.269531 30.269531 34.472656 25 34.949219 M 33.859375 15.554688 L 35.707031 13.707031 L 34.292969 12.292969 L 32.445312 14.140625 C 30.171875 12.1875 27.226562 11 24 11 C 16.832031 11 11 16.832031 11 24 C 11 31.167969 16.832031 37 24 37 C 31.167969 37 37 31.167969 37 24 C 37 20.773438 35.8125 17.828125 33.859375 15.554688 "/>
</g>
</svg>
