<?xml version="1.0" encoding="UTF-8"?>
<svg xmlns="http://www.w3.org/2000/svg" xmlns:xlink="http://www.w3.org/1999/xlink" width="48pt" height="48pt" viewBox="0 0 48 48" version="1.1">
<g id="surface1">
<path style=" stroke:none;fill-rule:nonzero;fill:rgb(0%,0%,0%);fill-opacity:1;" d="M 36 33 L 34 33 L 34 27 L 36 27 Z M 23 22.898438 C 22.96875 22.894531 22.941406 22.878906 22.910156 22.871094 C 22.636719 22.8125 22.371094 22.730469 22.113281 22.625 C 22.015625 22.585938 21.921875 22.527344 21.824219 22.480469 C 21.648438 22.394531 21.472656 22.304688 21.308594 22.199219 C 21.203125 22.136719 21.109375 22.058594 21.015625 21.988281 C 20.867188 21.878906 20.726562 21.765625 20.59375 21.640625 C 20.503906 21.554688 20.417969 21.464844 20.335938 21.371094 C 20.210938 21.238281 20.097656 21.101562 19.988281 20.957031 C 19.914062 20.855469 19.84375 20.757812 19.777344 20.652344 C 19.679688 20.496094 19.59375 20.328125 19.511719 20.160156 C 19.460938 20.054688 19.40625 19.949219 19.359375 19.839844 C 19.285156 19.648438 19.230469 19.449219 19.175781 19.246094 C 19.148438 19.148438 19.113281 19.050781 19.097656 18.949219 C 19.035156 18.640625 19 18.324219 19 18 C 19 15.242188 21.242188 13 24 13 C 26.757812 13 29 15.242188 29 18 C 29 18.324219 28.964844 18.640625 28.902344 18.949219 C 28.886719 19.050781 28.851562 19.144531 28.824219 19.246094 C 28.769531 19.449219 28.714844 19.648438 28.640625 19.839844 C 28.59375 19.949219 28.539062 20.054688 28.488281 20.160156 C 28.40625 20.328125 28.320312 20.496094 28.222656 20.652344 C 28.15625 20.757812 28.085938 20.855469 28.011719 20.957031 C 27.902344 21.101562 27.789062 21.238281 27.664062 21.371094 C 27.582031 21.464844 27.496094 21.554688 27.40625 21.640625 C 27.273438 21.765625 27.132812 21.878906 26.984375 21.988281 C 26.890625 22.058594 26.796875 22.136719 26.691406 22.199219 C 26.527344 22.304688 26.351562 22.394531 26.171875 22.480469 C 26.074219 22.527344 25.984375 22.585938 25.886719 22.625 C 25.628906 22.730469 25.363281 22.8125 25.089844 22.871094 C 25.058594 22.878906 25.03125 22.894531 25 22.898438 C 24.675781 22.964844 24.34375 23 24 23 C 23.65625 23 23.324219 22.964844 23 22.898438 M 14 33 L 12 33 L 12 27 L 14 27 Z M 36 25 L 36 18 C 36 14.140625 32.859375 11 29 11 L 19 11 C 15.140625 11 12 14.140625 12 18 L 12 25 L 10 25 L 10 35 L 16 35 L 16 25 L 14 25 L 14 18 C 14 15.242188 16.242188 13 19 13 L 19.109375 13 C 18.46875 13.628906 17.945312 14.378906 17.582031 15.214844 C 17.578125 15.222656 17.570312 15.234375 17.566406 15.246094 C 17.484375 15.433594 17.414062 15.625 17.351562 15.820312 C 17.34375 15.847656 17.332031 15.871094 17.324219 15.898438 C 17.265625 16.078125 17.222656 16.265625 17.179688 16.449219 C 17.167969 16.492188 17.15625 16.535156 17.144531 16.578125 C 17.109375 16.757812 17.085938 16.941406 17.0625 17.125 C 17.054688 17.175781 17.042969 17.226562 17.035156 17.277344 C 17.011719 17.515625 17 17.757812 17 18 C 17 18.230469 17.011719 18.460938 17.035156 18.683594 C 17.042969 18.761719 17.058594 18.835938 17.066406 18.910156 C 17.085938 19.058594 17.105469 19.207031 17.132812 19.351562 C 17.152344 19.441406 17.175781 19.53125 17.195312 19.621094 C 17.226562 19.742188 17.257812 19.867188 17.292969 19.988281 C 17.320312 20.089844 17.355469 20.183594 17.390625 20.28125 C 17.425781 20.390625 17.464844 20.496094 17.507812 20.601562 C 17.546875 20.703125 17.59375 20.804688 17.640625 20.902344 C 17.683594 20.996094 17.726562 21.089844 17.773438 21.183594 C 17.828125 21.285156 17.882812 21.390625 17.941406 21.492188 C 17.988281 21.570312 18.035156 21.648438 18.085938 21.726562 C 18.152344 21.835938 18.222656 21.941406 18.296875 22.046875 C 18.34375 22.105469 18.390625 22.167969 18.4375 22.230469 C 18.519531 22.34375 18.609375 22.453125 18.699219 22.5625 C 18.734375 22.601562 18.773438 22.640625 18.808594 22.679688 C 18.917969 22.800781 19.03125 22.921875 19.148438 23.035156 L 19.179688 23.0625 C 20.203125 24.039062 21.527344 24.707031 22.996094 24.921875 L 23 24.921875 C 23.328125 24.96875 23.660156 25 24 25 C 24.339844 25 24.671875 24.96875 25 24.921875 L 25.003906 24.921875 C 26.472656 24.707031 27.796875 24.039062 28.820312 23.0625 L 28.851562 23.035156 C 28.96875 22.921875 29.082031 22.800781 29.191406 22.679688 C 29.226562 22.640625 29.265625 22.601562 29.300781 22.5625 C 29.390625 22.453125 29.480469 22.34375 29.5625 22.230469 C 29.609375 22.167969 29.65625 22.105469 29.703125 22.046875 C 29.777344 21.941406 29.847656 21.835938 29.914062 21.726562 C 29.964844 21.648438 30.011719 21.570312 30.058594 21.492188 C 30.117188 21.390625 30.171875 21.285156 30.226562 21.183594 C 30.273438 21.089844 30.316406 20.996094 30.359375 20.902344 C 30.40625 20.804688 30.453125 20.703125 30.492188 20.601562 C 30.535156 20.496094 30.574219 20.390625 30.609375 20.28125 C 30.644531 20.183594 30.679688 20.089844 30.707031 19.988281 C 30.742188 19.867188 30.773438 19.746094 30.804688 19.621094 C 30.824219 19.53125 30.847656 19.441406 30.867188 19.347656 C 30.894531 19.207031 30.914062 19.058594 30.933594 18.914062 C 30.941406 18.835938 30.957031 18.761719 30.964844 18.683594 C 30.988281 18.460938 31 18.230469 31 18 C 31 17.757812 30.988281 17.515625 30.964844 17.277344 C 30.957031 17.230469 30.945312 17.179688 30.9375 17.128906 C 30.917969 16.941406 30.890625 16.757812 30.855469 16.574219 C 30.847656 16.535156 30.832031 16.5 30.824219 16.460938 C 30.78125 16.269531 30.734375 16.082031 30.675781 15.898438 C 30.667969 15.871094 30.65625 15.847656 30.648438 15.820312 C 30.585938 15.625 30.515625 15.433594 30.433594 15.246094 C 30.429688 15.234375 30.421875 15.222656 30.417969 15.214844 C 30.054688 14.378906 29.53125 13.628906 28.890625 13 L 29 13 C 31.757812 13 34 15.242188 34 18 L 34 25 L 32 25 L 32 35 L 38 35 L 38 25 Z M 36 25 "/>
</g>
</svg>
