<?xml version="1.0" encoding="UTF-8"?>
<svg xmlns="http://www.w3.org/2000/svg" xmlns:xlink="http://www.w3.org/1999/xlink" width="48pt" height="48pt" viewBox="0 0 48 48" version="1.1">
<g id="surface1">
<path style=" stroke:none;fill-rule:nonzero;fill:rgb(0%,0%,0%);fill-opacity:1;" d="M 38.707031 21.292969 L 37.292969 22.707031 L 33.292969 18.707031 L 34.707031 17.292969 Z M 31.207031 20.792969 L 35.207031 24.792969 L 33.792969 26.207031 L 29.792969 22.207031 Z M 27.707031 24.292969 L 31.707031 28.292969 L 30.292969 29.707031 L 26.292969 25.707031 Z M 24.554688 21.03125 C 24.191406 20.425781 24 19.726562 24 19 C 24 17.933594 24.414062 16.929688 25.171875 16.171875 C 25.929688 15.414062 26.933594 15 28 15 C 28.726562 15 29.425781 15.191406 30.03125 15.554688 Z M 32.242188 14.757812 C 31.109375 13.625 29.601562 13 28 13 C 26.734375 13 25.535156 13.394531 24.527344 14.113281 L 19.6875 9.273438 C 19.066406 8.652344 18.140625 8.46875 17.332031 8.804688 C 16.523438 9.140625 16 9.921875 16 10.800781 L 16 37 L 18 37 L 18 10.800781 C 18 10.769531 18 10.691406 18.097656 10.652344 C 18.199219 10.609375 18.253906 10.667969 18.273438 10.6875 L 23.113281 15.527344 C 22.394531 16.535156 22 17.734375 22 19 C 22 20.601562 22.625 22.109375 23.757812 23.242188 L 24.464844 23.949219 L 32.949219 15.464844 Z M 32.242188 14.757812 "/>
</g>
</svg>
