<?xml version="1.0" encoding="UTF-8"?>
<svg xmlns="http://www.w3.org/2000/svg" xmlns:xlink="http://www.w3.org/1999/xlink" width="48pt" height="48pt" viewBox="0 0 48 48" version="1.1">
<g id="surface1">
<path style=" stroke:none;fill-rule:nonzero;fill:rgb(0%,0%,0%);fill-opacity:1;" d="M 33 28 C 33 25.863281 32.230469 23.785156 30.839844 22.148438 C 30.625 21.898438 30.398438 21.664062 30.160156 21.441406 C 28.492188 19.878906 26.296875 19 24 19 C 21.375 19 18.882812 20.148438 17.15625 22.152344 C 15.769531 23.785156 15 25.863281 15 28 C 15 30.75 16.222656 33.285156 18.359375 35 L 29.640625 35 C 31.777344 33.285156 33 30.75 33 28 M 17 19 C 17 19.167969 17.007812 19.335938 17.019531 19.503906 C 17.09375 19.441406 17.171875 19.390625 17.246094 19.332031 C 17.34375 19.257812 17.4375 19.183594 17.535156 19.113281 C 17.746094 18.960938 17.960938 18.816406 18.179688 18.683594 C 18.269531 18.625 18.359375 18.5625 18.453125 18.511719 C 18.761719 18.328125 19.078125 18.160156 19.402344 18.011719 C 19.402344 18.007812 19.40625 18.007812 19.40625 18.007812 C 19.734375 17.855469 20.066406 17.726562 20.40625 17.609375 C 20.511719 17.574219 20.617188 17.542969 20.726562 17.511719 C 20.964844 17.4375 21.207031 17.367188 21.453125 17.308594 C 21.578125 17.277344 21.699219 17.253906 21.824219 17.226562 C 22.070312 17.175781 22.320312 17.136719 22.570312 17.105469 C 22.683594 17.089844 22.796875 17.070312 22.90625 17.058594 C 23.269531 17.023438 23.632812 17 24 17 C 24.367188 17 24.730469 17.023438 25.089844 17.058594 C 25.203125 17.070312 25.316406 17.089844 25.429688 17.105469 C 25.679688 17.136719 25.929688 17.175781 26.175781 17.226562 C 26.300781 17.253906 26.421875 17.277344 26.546875 17.308594 C 26.789062 17.367188 27.03125 17.433594 27.269531 17.507812 C 27.378906 17.542969 27.488281 17.574219 27.59375 17.609375 C 27.933594 17.726562 28.265625 17.855469 28.589844 18.007812 C 28.597656 18.011719 28.605469 18.015625 28.613281 18.019531 C 28.933594 18.164062 29.242188 18.328125 29.542969 18.507812 C 29.640625 18.5625 29.734375 18.628906 29.828125 18.6875 C 30.042969 18.820312 30.253906 18.960938 30.457031 19.109375 C 30.558594 19.183594 30.65625 19.257812 30.757812 19.332031 C 30.832031 19.390625 30.910156 19.441406 30.980469 19.503906 C 30.992188 19.335938 31 19.167969 31 19 C 31 15.140625 27.859375 12 24 12 C 20.140625 12 17 15.140625 17 19 M 35 28 C 35 31.496094 33.390625 34.703125 30.578125 36.800781 L 30.3125 37 L 17.6875 37 L 17.421875 36.800781 C 14.609375 34.703125 13 31.496094 13 28 C 13 25.5625 13.824219 23.195312 15.316406 21.265625 C 15.125 20.527344 15 19.769531 15 19 C 15 14.035156 19.035156 10 24 10 C 28.964844 10 33 14.035156 33 19 C 33 19.769531 32.875 20.527344 32.683594 21.265625 C 34.175781 23.199219 35 25.5625 35 28 M 20 31 L 28 31 L 28 33 L 20 33 Z M 20 31 "/>
</g>
</svg>
