<?xml version="1.0" encoding="UTF-8"?>
<svg xmlns="http://www.w3.org/2000/svg" xmlns:xlink="http://www.w3.org/1999/xlink" width="48pt" height="48pt" viewBox="0 0 48 48" version="1.1">
<g id="surface1">
<path style=" stroke:none;fill-rule:nonzero;fill:rgb(0%,0%,0%);fill-opacity:1;" d="M 38.140625 29.65625 L 29.65625 38.140625 L 31.070312 39.554688 L 39.554688 31.070312 Z M 26.828125 32.484375 L 28.242188 33.898438 L 33.898438 28.242188 L 32.484375 26.828125 Z M 21.171875 15.515625 L 19.757812 14.101562 L 14.101562 19.757812 L 15.515625 21.171875 Z M 32.484375 24 L 36.726562 28.242188 L 28.242188 36.726562 L 24 32.484375 L 27.535156 28.949219 L 19.050781 20.464844 L 15.515625 24 L 11.273438 19.757812 L 19.757812 11.273438 L 24 15.515625 L 20.464844 19.050781 L 28.949219 27.535156 Z M 16.929688 8.441406 L 18.34375 9.855469 L 9.859375 18.34375 L 8.445312 16.929688 Z M 16.929688 8.441406 "/>
</g>
</svg>
