<?xml version="1.0" encoding="UTF-8"?>
<svg xmlns="http://www.w3.org/2000/svg" xmlns:xlink="http://www.w3.org/1999/xlink" width="48pt" height="48pt" viewBox="0 0 48 48" version="1.1">
<g id="surface1">
<path style=" stroke:none;fill-rule:nonzero;fill:rgb(0%,0%,0%);fill-opacity:1;" d="M 28.671875 37.15625 L 25.84375 34.328125 L 34.328125 25.84375 L 37.15625 28.671875 Z M 27.257812 30.085938 L 17.914062 20.742188 L 20.742188 17.914062 L 30.085938 27.257812 Z M 13.671875 22.15625 L 10.84375 19.328125 L 12.476562 17.691406 L 13.671875 16.5 L 19.328125 10.84375 L 22.15625 13.671875 Z M 34.328125 23.015625 L 31.5 25.84375 L 22.15625 16.5 L 24.984375 13.671875 L 19.328125 8.015625 L 12.257812 15.085938 L 11.0625 16.277344 L 8.015625 19.328125 L 13.671875 24.984375 L 16.5 22.15625 L 25.84375 31.5 L 23.015625 34.328125 L 28.671875 39.984375 L 39.984375 28.671875 Z M 34.328125 23.015625 "/>
</g>
</svg>
