<?xml version="1.0" encoding="UTF-8"?>
<svg xmlns="http://www.w3.org/2000/svg" xmlns:xlink="http://www.w3.org/1999/xlink" width="48pt" height="48pt" viewBox="0 0 48 48" version="1.1">
<g id="surface1">
<path style=" stroke:none;fill-rule:nonzero;fill:rgb(0%,0%,0%);fill-opacity:1;" d="M 18.414062 33.242188 C 19.195312 34.023438 19.195312 35.289062 18.414062 36.070312 C 17.632812 36.851562 16.367188 36.851562 15.585938 36.070312 Z M 15.035156 35.210938 L 10.828125 32.683594 L 11.855469 30.972656 L 14.722656 32.691406 L 15.035156 32.382812 L 13.3125 29.515625 L 15.027344 28.484375 L 17.550781 32.6875 Z M 23.828125 13.171875 L 25.949219 15.292969 L 24.535156 16.707031 L 22.414062 14.585938 C 21.65625 13.832031 20.34375 13.832031 19.585938 14.585938 L 18.171875 13.171875 C 19.683594 11.660156 22.316406 11.660156 23.828125 13.171875 M 37.265625 30.847656 L 40.09375 33.679688 L 38.679688 35.09375 L 35.851562 32.261719 Z M 16 16 C 16 14.664062 16.519531 13.410156 17.464844 12.464844 C 18.410156 11.519531 19.664062 11 21 11 C 22.335938 11 23.589844 11.519531 24.535156 12.464844 L 26.65625 14.585938 C 28.605469 16.535156 28.605469 19.707031 26.65625 21.65625 C 24.707031 23.605469 21.535156 23.605469 19.585938 21.65625 L 17.464844 19.535156 C 16.519531 18.59375 16 17.335938 16 16 M 16.050781 11.050781 C 14.726562 12.371094 14 14.128906 14 16 C 14 17.871094 14.726562 19.628906 16.050781 20.949219 L 18.171875 23.070312 C 19.535156 24.433594 21.328125 25.117188 23.121094 25.117188 C 24.597656 25.117188 26.070312 24.648438 27.308594 23.722656 L 34.433594 30.847656 L 35.851562 29.433594 L 28.722656 22.308594 C 30.773438 19.566406 30.558594 15.660156 28.070312 13.171875 L 25.949219 11.050781 C 24.628906 9.726562 22.871094 9 21 9 C 19.128906 9 17.371094 9.726562 16.050781 11.050781 "/>
</g>
</svg>
