<?xml version="1.0" encoding="UTF-8"?>
<svg xmlns="http://www.w3.org/2000/svg" xmlns:xlink="http://www.w3.org/1999/xlink" width="48pt" height="48pt" viewBox="0 0 48 48" version="1.1">
<g id="surface1">
<path style=" stroke:none;fill-rule:nonzero;fill:rgb(0%,0%,0%);fill-opacity:1;" d="M 15 31 C 13.898438 31 13 31.898438 13 33 C 13 34.101562 13.898438 35 15 35 C 16.101562 35 17 34.101562 17 33 C 17 31.898438 16.101562 31 15 31 M 15 37 C 12.792969 37 11 35.207031 11 33 C 11 30.792969 12.792969 29 15 29 C 17.207031 29 19 30.792969 19 33 C 19 35.207031 17.207031 37 15 37 M 22.414062 14.585938 C 21.65625 13.828125 20.34375 13.828125 19.585938 14.585938 L 18.171875 13.171875 C 19.683594 11.660156 22.316406 11.660156 23.828125 13.171875 L 25.949219 15.292969 L 24.535156 16.707031 Z M 35.851562 32.265625 L 37.265625 30.851562 L 40.09375 33.679688 L 38.679688 35.09375 Z M 30.488281 25.546875 L 26.453125 24.273438 C 27.03125 23.960938 27.582031 23.5625 28.070312 23.070312 C 28.550781 22.59375 28.941406 22.058594 29.253906 21.492188 Z M 26.65625 21.65625 C 24.707031 23.605469 21.535156 23.605469 19.585938 21.65625 L 17.464844 19.535156 C 16.519531 18.59375 16 17.335938 16 16 C 16 14.664062 16.519531 13.410156 17.464844 12.464844 C 18.410156 11.519531 19.664062 11 21 11 C 22.335938 11 23.589844 11.519531 24.535156 12.464844 L 26.65625 14.585938 C 28.605469 16.535156 28.605469 19.707031 26.65625 21.65625 M 32.851562 26.4375 L 30.066406 17.308594 C 29.890625 15.796875 29.230469 14.328125 28.070312 13.171875 L 25.949219 11.050781 C 24.628906 9.730469 22.871094 9 21 9 C 19.128906 9 17.371094 9.730469 16.050781 11.050781 C 14.730469 12.371094 14 14.128906 14 16 C 14 17.871094 14.730469 19.628906 16.050781 20.949219 L 18.171875 23.070312 C 19.328125 24.226562 20.789062 24.886719 22.296875 25.0625 L 31.570312 27.984375 L 34.4375 30.851562 L 35.851562 29.4375 Z M 32.851562 26.4375 "/>
</g>
</svg>
