<?xml version="1.0" encoding="UTF-8"?>
<svg xmlns="http://www.w3.org/2000/svg" xmlns:xlink="http://www.w3.org/1999/xlink" width="48pt" height="48pt" viewBox="0 0 48 48" version="1.1">
<g id="surface1">
<path style=" stroke:none;fill-rule:nonzero;fill:rgb(0%,0%,0%);fill-opacity:1;" d="M 29.527344 28.234375 C 28.332031 27.039062 27.0625 25.890625 25.757812 24.820312 L 14.839844 15.890625 C 14.359375 15.5 14.078125 14.941406 14.046875 14.320312 C 14.015625 13.703125 14.242188 13.121094 14.679688 12.679688 C 15.09375 12.269531 15.632812 12.046875 16.210938 12.046875 C 16.246094 12.046875 16.285156 12.046875 16.320312 12.046875 C 16.941406 12.078125 17.5 12.359375 17.890625 12.839844 L 26.820312 23.753906 C 27.890625 25.0625 29.039062 26.332031 30.234375 27.527344 L 32.003906 29.296875 L 31.296875 30.003906 Z M 31.648438 26.113281 C 30.5 24.964844 29.394531 23.746094 28.371094 22.488281 L 19.4375 11.574219 C 18.695312 10.664062 17.59375 10.109375 16.421875 10.050781 C 15.25 10 14.097656 10.433594 13.265625 11.265625 C 12.433594 12.097656 11.992188 13.246094 12.050781 14.421875 C 12.109375 15.59375 12.664062 16.695312 13.574219 17.4375 L 24.488281 26.367188 C 25.746094 27.398438 26.964844 28.5 28.113281 29.648438 L 31.296875 32.832031 L 34.832031 29.296875 Z M 36.246094 30.710938 L 32.710938 34.246094 L 34.125 35.660156 L 37.660156 32.125 Z M 15 31 C 13.898438 31 13 31.898438 13 33 C 13 34.101562 13.898438 35 15 35 C 16.101562 35 17 34.101562 17 33 C 17 31.898438 16.101562 31 15 31 M 15 37 C 12.792969 37 11 35.207031 11 33 C 11 30.792969 12.792969 29 15 29 C 17.207031 29 19 30.792969 19 33 C 19 35.207031 17.207031 37 15 37 "/>
</g>
</svg>
