<?xml version="1.0" encoding="UTF-8"?>
<svg xmlns="http://www.w3.org/2000/svg" xmlns:xlink="http://www.w3.org/1999/xlink" width="48pt" height="48pt" viewBox="0 0 48 48" version="1.1">
<g id="surface1">
<path style=" stroke:none;fill-rule:nonzero;fill:rgb(0%,0%,0%);fill-opacity:1;" d="M 15 32 C 14.449219 32 14 32.449219 14 33 C 14 33.550781 14.449219 34 15 34 C 15.550781 34 16 33.550781 16 33 C 16 32.449219 15.550781 32 15 32 M 15 36 C 13.347656 36 12 34.652344 12 33 C 12 31.347656 13.347656 30 15 30 C 16.652344 30 18 31.347656 18 33 C 18 34.652344 16.652344 36 15 36 M 9.652344 11.859375 L 11.066406 10.445312 L 14.605469 13.980469 L 13.191406 15.394531 Z M 32.949219 31.273438 L 36.140625 28.082031 C 36.429688 27.792969 36.902344 27.792969 37.191406 28.082031 L 37.78125 28.675781 C 37.953125 28.84375 38.03125 29.078125 37.992188 29.320312 C 37.953125 29.558594 37.804688 29.757812 37.589844 29.863281 L 33.757812 32.484375 C 33.476562 32.597656 33.160156 32.535156 32.949219 32.324219 C 32.808594 32.183594 32.730469 31.996094 32.730469 31.800781 C 32.730469 31.601562 32.808594 31.414062 32.949219 31.273438 M 14.691406 16.894531 L 31.714844 33.921875 L 31.730469 33.90625 C 32.5625 34.59375 33.722656 34.738281 34.699219 34.253906 L 38.554688 31.617188 C 39.3125 31.210938 39.824219 30.496094 39.964844 29.640625 C 40.105469 28.773438 39.820312 27.882812 39.195312 27.261719 L 38.605469 26.667969 C 38.085938 26.148438 37.398438 25.863281 36.664062 25.863281 C 35.933594 25.863281 35.242188 26.148438 34.726562 26.667969 L 31.535156 29.859375 C 31.351562 30.039062 31.210938 30.246094 31.089844 30.464844 L 16.105469 15.480469 Z M 14.691406 16.894531 "/>
</g>
</svg>
