<?xml version="1.0" encoding="UTF-8"?>
<svg xmlns="http://www.w3.org/2000/svg" xmlns:xlink="http://www.w3.org/1999/xlink" width="48pt" height="48pt" viewBox="0 0 48 48" version="1.1">
<g id="surface1">
<path style=" stroke:none;fill-rule:nonzero;fill:rgb(0%,0%,0%);fill-opacity:1;" d="M 37 32 C 37 33.335938 36.480469 34.589844 35.535156 35.535156 C 34.5625 36.511719 33.28125 36.996094 32 36.996094 C 30.71875 36.996094 29.4375 36.511719 28.464844 35.535156 L 29.878906 34.121094 C 31.050781 35.289062 32.949219 35.289062 34.121094 34.121094 C 34.6875 33.554688 35 32.800781 35 32 C 35 31.199219 34.6875 30.445312 34.121094 29.878906 L 35.535156 28.464844 C 36.480469 29.410156 37 30.664062 37 32 M 26.859375 31.480469 L 15.695312 25.675781 L 19.980469 21.394531 L 28.464844 29.878906 Z M 25.675781 15.695312 L 31.480469 26.859375 L 29.878906 28.464844 L 21.394531 19.980469 Z M 24.402344 8.910156 L 22.628906 9.835938 L 24.710938 13.835938 L 19.980469 18.5625 L 17.148438 15.734375 L 15.734375 17.148438 L 18.566406 19.980469 L 13.835938 24.707031 L 9.835938 22.628906 L 8.910156 24.402344 L 27.238281 33.933594 L 33.933594 27.238281 Z M 24.402344 8.910156 "/>
</g>
</svg>
