<?xml version="1.0" encoding="UTF-8"?>
<svg xmlns="http://www.w3.org/2000/svg" xmlns:xlink="http://www.w3.org/1999/xlink" width="48pt" height="48pt" viewBox="0 0 48 48" version="1.1">
<g id="surface1">
<path style=" stroke:none;fill-rule:nonzero;fill:rgb(0%,0%,0%);fill-opacity:1;" d="M 32.917969 32.019531 C 32.449219 32.539062 31.941406 33.019531 31.390625 33.449219 C 29.351562 35.050781 26.789062 36 24 36 C 21.210938 36 18.648438 35.050781 16.609375 33.449219 C 16.058594 33.019531 15.550781 32.539062 15.078125 32.019531 C 13.160156 29.902344 12 27.082031 12 24 C 12 20.917969 13.160156 18.097656 15.078125 15.980469 C 15.550781 15.460938 16.058594 14.980469 16.609375 14.550781 C 18.648438 12.949219 21.210938 12 24 12 C 26.789062 12 29.351562 12.949219 31.390625 14.550781 C 31.941406 14.980469 32.449219 15.460938 32.917969 15.980469 C 34.839844 18.097656 36 20.917969 36 24 C 36 27.082031 34.839844 29.902344 32.917969 32.019531 M 24 10 C 16.28125 10 10 16.28125 10 24 C 10 31.71875 16.28125 38 24 38 C 31.71875 38 38 31.71875 38 24 C 38 16.28125 31.71875 10 24 10 "/>
<path style=" stroke:none;fill-rule:nonzero;fill:rgb(0%,0%,0%);fill-opacity:1;" d="M 28 24 C 28 26.710938 29.21875 29.230469 31.230469 30.898438 C 30.761719 31.390625 30.25 31.828125 29.699219 32.210938 C 27.390625 30.171875 26 27.199219 26 24 C 26 20.800781 27.390625 17.828125 29.699219 15.789062 C 30.25 16.171875 30.761719 16.609375 31.230469 17.101562 C 29.21875 18.769531 28 21.289062 28 24 "/>
<path style=" stroke:none;fill-rule:nonzero;fill:rgb(0%,0%,0%);fill-opacity:1;" d="M 22 24 C 22 27.199219 20.609375 30.171875 18.300781 32.210938 C 17.75 31.828125 17.238281 31.390625 16.769531 30.898438 C 18.78125 29.230469 20 26.710938 20 24 C 20 21.289062 18.78125 18.769531 16.769531 17.101562 C 17.238281 16.609375 17.75 16.171875 18.300781 15.789062 C 20.609375 17.828125 22 20.800781 22 24 "/>
</g>
</svg>
