<?xml version="1.0" encoding="UTF-8"?>
<svg xmlns="http://www.w3.org/2000/svg" xmlns:xlink="http://www.w3.org/1999/xlink" width="48pt" height="48pt" viewBox="0 0 48 48" version="1.1">
<g id="surface1">
<path style=" stroke:none;fill-rule:nonzero;fill:rgb(0%,0%,0%);fill-opacity:1;" d="M 36 24 C 36 30.617188 30.617188 36 24 36 C 17.382812 36 12 30.617188 12 24 C 12 17.382812 17.382812 12 24 12 C 30.617188 12 36 17.382812 36 24 M 38 24 C 38 16.28125 31.71875 10 24 10 C 16.28125 10 10 16.28125 10 24 C 10 31.71875 16.28125 38 24 38 C 31.71875 38 38 31.71875 38 24 M 30.960938 31.164062 C 30.429688 31.679688 29.839844 32.132812 29.207031 32.519531 C 28.933594 31.015625 28.460938 29.683594 27.75 28.554688 C 25.179688 30.601562 21.785156 31.53125 18.53125 31.53125 C 18.152344 31.53125 17.773438 31.519531 17.398438 31.492188 C 16.648438 30.828125 16 30.058594 15.472656 29.195312 C 19.050781 29.972656 23.496094 29.390625 26.507812 26.992188 C 25.808594 26.28125 24.984375 25.671875 24.03125 25.164062 C 22.070312 26.382812 20.003906 26.996094 17.839844 26.996094 C 16.691406 26.996094 15.515625 26.804688 14.320312 26.460938 C 14.140625 25.753906 14.03125 25.019531 14.015625 24.265625 C 15.445312 24.777344 16.824219 25.03125 18.148438 24.984375 C 17.566406 21.378906 18.703125 17.578125 20.664062 14.585938 C 21.59375 14.253906 22.582031 14.058594 23.613281 14.019531 C 21.179688 16.761719 19.507812 20.910156 20.132812 24.703125 C 21.113281 24.449219 22.070312 24.03125 23.003906 23.449219 C 22.957031 19.9375 24.300781 16.929688 26.960938 14.449219 C 27.671875 14.667969 28.347656 14.976562 28.980469 15.339844 C 27.804688 16.300781 26.871094 17.34375 26.226562 18.488281 C 29.421875 19.660156 32.207031 22.28125 33.886719 25.421875 C 33.738281 26.453125 33.433594 27.4375 32.992188 28.347656 C 31.8125 24.746094 28.902344 21.554688 25.449219 20.335938 C 25.152344 21.308594 25.011719 22.339844 25.027344 23.433594 C 28.109375 25.101562 30.085938 27.699219 30.960938 31.164062 "/>
</g>
</svg>
