<?xml version="1.0" encoding="UTF-8"?>
<svg xmlns="http://www.w3.org/2000/svg" xmlns:xlink="http://www.w3.org/1999/xlink" width="48pt" height="48pt" viewBox="0 0 48 48" version="1.1">
<g id="surface1">
<path style=" stroke:none;fill-rule:nonzero;fill:rgb(0%,0%,0%);fill-opacity:1;" d="M 32.484375 32.484375 C 27.804688 37.164062 20.195312 37.164062 15.515625 32.484375 C 10.835938 27.804688 10.835938 20.195312 15.515625 15.515625 C 20.195312 10.835938 27.804688 10.835938 32.484375 15.515625 C 37.164062 20.195312 37.164062 27.804688 32.484375 32.484375 M 33.898438 33.898438 C 39.359375 28.441406 39.359375 19.558594 33.898438 14.101562 C 28.441406 8.640625 19.558594 8.640625 14.101562 14.101562 C 8.640625 19.558594 8.640625 28.441406 14.101562 33.898438 C 19.558594 39.359375 28.441406 39.359375 33.898438 33.898438 M 25 14.054688 L 25 16.964844 C 26.402344 16.761719 27.699219 16.136719 28.738281 15.195312 C 29.328125 15.515625 29.894531 15.898438 30.425781 16.347656 C 28.976562 17.800781 27.0625 18.742188 25 18.972656 L 25 23 L 33.945312 23 C 34.007812 23.664062 34.007812 24.335938 33.945312 25 L 25 25 L 25 29.066406 C 27.054688 29.296875 28.960938 30.230469 30.40625 31.671875 C 29.871094 32.121094 29.300781 32.503906 28.707031 32.820312 C 27.671875 31.894531 26.386719 31.277344 25 31.078125 L 25 33.945312 C 24.335938 34.007812 23.664062 34.007812 23 33.945312 L 23 31.078125 C 21.613281 31.277344 20.328125 31.894531 19.292969 32.820312 C 18.699219 32.503906 18.128906 32.121094 17.59375 31.671875 C 19.042969 30.226562 20.945312 29.296875 23 29.066406 L 23 25 L 14.054688 25 C 13.992188 24.335938 13.992188 23.664062 14.054688 23 L 23 23 L 23 18.980469 C 20.9375 18.75 19.019531 17.820312 17.570312 16.371094 C 17.566406 16.367188 17.5625 16.363281 17.558594 16.359375 C 18.09375 15.90625 18.667969 15.515625 19.265625 15.195312 C 20.304688 16.132812 21.597656 16.761719 23 16.964844 L 23 14.054688 C 23.664062 13.992188 24.335938 13.992188 25 14.054688 "/>
</g>
</svg>
