<?xml version="1.0" encoding="UTF-8"?>
<svg xmlns="http://www.w3.org/2000/svg" xmlns:xlink="http://www.w3.org/1999/xlink" width="48pt" height="48pt" viewBox="0 0 48 48" version="1.1">
<g id="surface1">
<path style=" stroke:none;fill-rule:nonzero;fill:rgb(0%,0%,0%);fill-opacity:1;" d="M 27.464844 24 L 25.734375 27 L 22.269531 27 L 20.535156 24 L 22.269531 21 L 25.734375 21 Z M 32.863281 20.5 L 31.421875 23 L 29.195312 23 L 27.464844 20 L 28.578125 18.070312 L 31.464844 18.070312 L 31.464844 16.070312 L 28.578125 16.070312 L 27.136719 13.570312 L 25.402344 14.570312 L 26.847656 17.070312 L 25.734375 19 L 22.269531 19 L 21.152344 17.070312 L 22.597656 14.570312 L 20.863281 13.570312 L 19.421875 16.070312 L 16.535156 16.070312 L 16.535156 18.070312 L 19.421875 18.070312 L 20.535156 20 L 18.804688 23 L 16.578125 23 L 15.136719 20.5 L 13.402344 21.5 L 14.847656 24 L 13.402344 26.5 L 15.136719 27.5 L 16.578125 25 L 18.804688 25 L 20.535156 28 L 19.421875 29.929688 L 16.535156 29.929688 L 16.535156 31.929688 L 19.421875 31.929688 L 20.863281 34.429688 L 22.597656 33.429688 L 21.152344 30.929688 L 22.269531 29 L 25.734375 29 L 26.847656 30.929688 L 25.402344 33.429688 L 27.136719 34.429688 L 28.578125 31.929688 L 31.464844 31.929688 L 31.464844 29.929688 L 28.578125 29.929688 L 27.464844 28 L 29.195312 25 L 31.421875 25 L 32.863281 27.5 L 34.597656 26.5 L 33.152344 24 L 34.597656 21.5 Z M 35.761719 26.410156 C 35.589844 27.21875 35.339844 28 35.019531 28.75 C 34.328125 30.359375 33.289062 31.78125 32 32.929688 C 31.390625 33.488281 30.71875 33.980469 30 34.390625 C 28.640625 35.179688 27.109375 35.710938 25.480469 35.910156 C 24.988281 35.96875 24.5 36 24 36 C 23.679688 36 23.359375 35.988281 23.039062 35.960938 C 21.167969 35.808594 19.410156 35.238281 17.878906 34.320312 C 17.167969 33.898438 16.511719 33.410156 15.910156 32.859375 C 14.75 31.800781 13.800781 30.519531 13.128906 29.089844 C 12.789062 28.359375 12.519531 27.589844 12.328125 26.789062 C 12.109375 25.890625 12 24.960938 12 24 C 12 23.039062 12.109375 22.109375 12.328125 21.210938 C 12.519531 20.410156 12.789062 19.640625 13.128906 18.910156 C 13.800781 17.480469 14.75 16.199219 15.910156 15.140625 C 16.511719 14.589844 17.167969 14.101562 17.878906 13.679688 C 19.410156 12.761719 21.167969 12.191406 23.039062 12.039062 C 23.359375 12.011719 23.679688 12 24 12 C 24.5 12 24.988281 12.03125 25.480469 12.089844 C 27.109375 12.289062 28.640625 12.820312 30 13.609375 C 30.71875 14.019531 31.390625 14.511719 32 15.070312 C 33.289062 16.21875 34.328125 17.640625 35.019531 19.25 C 35.339844 20 35.589844 20.78125 35.761719 21.589844 C 35.917969 22.371094 36 23.179688 36 24 C 36 24.820312 35.917969 25.628906 35.761719 26.410156 M 37.417969 20.03125 C 36.511719 16.949219 34.570312 14.308594 32 12.519531 C 29.859375 11.019531 27.289062 10.109375 24.519531 10.011719 C 24.351562 10 24.167969 10 24 10 C 20.800781 10 17.839844 11.078125 15.480469 12.898438 C 13.402344 14.5 11.78125 16.671875 10.851562 19.179688 L 10.851562 19.191406 C 10.300781 20.691406 10 22.308594 10 24 C 10 25.691406 10.300781 27.308594 10.851562 28.808594 L 10.851562 28.820312 C 11.78125 31.328125 13.402344 33.5 15.480469 35.101562 C 17.839844 36.921875 20.800781 38 24 38 C 24.167969 38 24.351562 38 24.519531 37.988281 C 27.289062 37.890625 29.859375 36.980469 32 35.480469 C 34.570312 33.691406 36.511719 31.050781 37.417969 27.96875 C 37.800781 26.710938 38 25.378906 38 24 C 38 22.621094 37.800781 21.289062 37.417969 20.03125 "/>
</g>
</svg>
