<?xml version="1.0" encoding="UTF-8"?>
<svg xmlns="http://www.w3.org/2000/svg" xmlns:xlink="http://www.w3.org/1999/xlink" width="48pt" height="48pt" viewBox="0 0 48 48" version="1.1">
<g id="surface1">
<path style=" stroke:none;fill-rule:nonzero;fill:rgb(0%,0%,0%);fill-opacity:1;" d="M 32.484375 15.515625 C 27.804688 10.835938 20.195312 10.835938 15.515625 15.515625 C 10.835938 20.195312 10.835938 27.804688 15.515625 32.484375 C 20.195312 37.164062 27.804688 37.164062 32.484375 32.484375 C 37.164062 27.804688 37.164062 20.195312 32.484375 15.515625 M 14.101562 33.898438 C 8.640625 28.441406 8.640625 19.558594 14.101562 14.101562 C 19.558594 8.640625 28.441406 8.640625 33.898438 14.101562 C 39.359375 19.558594 39.359375 28.441406 33.898438 33.898438 C 28.441406 39.359375 19.558594 39.359375 14.101562 33.898438 M 22.5 25.5 C 22.5 24.671875 21.828125 24 21 24 C 20.171875 24 19.5 24.671875 19.5 25.5 C 19.5 26.328125 20.171875 27 21 27 C 21.828125 27 22.5 26.328125 22.5 25.5 M 27 27 C 27.828125 27 28.5 26.328125 28.5 25.5 C 28.5 24.671875 27.828125 24 27 24 C 26.171875 24 25.5 24.671875 25.5 25.5 C 25.5 26.328125 26.171875 27 27 27 M 24 19 C 23.171875 19 22.5 19.671875 22.5 20.5 C 22.5 21.328125 23.171875 22 24 22 C 24.828125 22 25.5 21.328125 25.5 20.5 C 25.5 19.671875 24.828125 19 24 19 "/>
</g>
</svg>
