<?xml version="1.0" encoding="UTF-8"?>
<svg xmlns="http://www.w3.org/2000/svg" xmlns:xlink="http://www.w3.org/1999/xlink" width="48pt" height="48pt" viewBox="0 0 48 48" version="1.1">
<g id="surface1">
<path style=" stroke:none;fill-rule:nonzero;fill:rgb(0%,0%,0%);fill-opacity:1;" d="M 24 33 C 20.140625 33 17 29.859375 17 26 C 17 22.140625 20.140625 19 24 19 C 27.859375 19 31 22.140625 31 26 C 31 29.859375 27.859375 33 24 33 M 24 17 C 19.035156 17 15 21.035156 15 26 C 15 30.964844 19.035156 35 24 35 C 28.964844 35 33 30.964844 33 26 C 33 21.035156 28.964844 17 24 17 M 24 29 C 23.449219 29 23 28.550781 23 28 C 23 27.449219 23.449219 27 24 27 C 24.550781 27 25 27.449219 25 28 C 25 28.550781 24.550781 29 24 29 M 24 23 C 24.550781 23 25 23.449219 25 24 C 25 24.550781 24.550781 25 24 25 C 23.449219 25 23 24.550781 23 24 C 23 23.449219 23.449219 23 24 23 M 24 21 C 22.347656 21 21 22.347656 21 24 C 21 24.769531 21.300781 25.46875 21.78125 26 C 21.300781 26.53125 21 27.230469 21 28 C 21 29.652344 22.347656 31 24 31 C 25.652344 31 27 29.652344 27 28 C 27 27.230469 26.699219 26.53125 26.21875 26 C 26.699219 25.46875 27 24.769531 27 24 C 27 22.347656 25.652344 21 24 21 M 24 36 C 17.382812 36 12 30.617188 12 24 C 12 17.382812 17.382812 12 24 12 C 30.617188 12 36 17.382812 36 24 C 36 30.617188 30.617188 36 24 36 M 24 10 C 16.28125 10 10 16.28125 10 24 C 10 31.71875 16.28125 38 24 38 C 31.71875 38 38 31.71875 38 24 C 38 16.28125 31.71875 10 24 10 "/>
</g>
</svg>
