<?xml version="1.0" encoding="UTF-8"?>
<svg xmlns="http://www.w3.org/2000/svg" xmlns:xlink="http://www.w3.org/1999/xlink" width="48pt" height="48pt" viewBox="0 0 48 48" version="1.1">
<g id="surface1">
<path style=" stroke:none;fill-rule:nonzero;fill:rgb(0%,0%,0%);fill-opacity:1;" d="M 25 30.929688 L 25 27 L 30.917969 27 C 29.691406 29.113281 27.527344 30.613281 25 30.929688 M 17.082031 27 L 23 27 L 23 30.929688 C 20.472656 30.613281 18.308594 29.113281 17.082031 27 M 16 20 C 16 15.589844 19.589844 12 24 12 C 28.410156 12 32 15.589844 32 20 L 32 23 C 32 23.691406 31.902344 24.359375 31.738281 25 L 16.261719 25 C 16.097656 24.359375 16 23.691406 16 23 Z M 24 10 C 18.484375 10 14 14.488281 14 20 L 14 23 C 14 28.175781 17.953125 32.445312 23 32.949219 L 23 38 L 25 38 L 25 32.949219 C 30.046875 32.445312 34 28.175781 34 23 L 34 20 C 34 14.488281 29.515625 10 24 10 "/>
</g>
</svg>
