<?xml version="1.0" encoding="UTF-8"?>
<svg xmlns="http://www.w3.org/2000/svg" xmlns:xlink="http://www.w3.org/1999/xlink" width="48pt" height="48pt" viewBox="0 0 48 48" version="1.1">
<g id="surface1">
<path style=" stroke:none;fill-rule:nonzero;fill:rgb(0%,0%,0%);fill-opacity:1;" d="M 34 34 L 34 32 L 20 32 L 20 30 L 34 30 L 34 13 C 34 12.449219 33.550781 12 33 12 L 21 12 C 20.449219 12 20 12.449219 20 13 L 20 23 L 18 23 L 18 16 L 16.5 16 C 15.671875 16 15 16.671875 15 17.5 L 15 27.585938 L 18 30.585938 L 18 34 Z M 36 13 L 36 36 L 16 36 L 16 31.414062 L 13 28.414062 L 13 17.5 C 13 15.570312 14.570312 14 16.5 14 L 18 14 L 18 13 C 18 11.347656 19.347656 10 21 10 L 33 10 C 34.652344 10 36 11.347656 36 13 M 32 19 L 22 19 L 22 17 L 32 17 Z M 32 19 "/>
</g>
</svg>
