<?xml version="1.0" encoding="UTF-8"?>
<svg xmlns="http://www.w3.org/2000/svg" xmlns:xlink="http://www.w3.org/1999/xlink" width="48pt" height="48pt" viewBox="0 0 48 48" version="1.1">
<g id="surface1">
<path style=" stroke:none;fill-rule:nonzero;fill:rgb(0%,0%,0%);fill-opacity:1;" d="M 33.5 34 L 17 34 C 15.378906 34 13.863281 33.363281 12.726562 32.210938 C 11.589844 31.058594 10.976562 29.53125 11 27.910156 C 11.046875 24.730469 13.773438 22.023438 16.953125 22 L 17 22 C 19.144531 22 21.121094 23.171875 22.183594 24.996094 C 22.195312 25.015625 22.207031 25.03125 22.214844 25.050781 C 22.363281 25.308594 22.492188 25.578125 22.601562 25.863281 L 22.621094 25.921875 C 23.109375 27.238281 23.128906 28.703125 22.636719 30.050781 L 24.515625 30.734375 C 24.980469 29.46875 25.097656 28.121094 24.902344 26.820312 L 31 28.234375 L 31 18 L 32 18 L 32 16 L 28.773438 16 L 28.109375 14 L 28.773438 12 L 31.410156 12 C 32.386719 12 33.234375 12.695312 33.425781 13.652344 L 36.828125 30.671875 Z M 35.386719 13.257812 C 35.007812 11.371094 33.335938 10 31.410156 10 L 27.332031 10 L 26 14 L 27.332031 18 L 29 18 L 29 25.765625 L 24.25 24.636719 C 24.238281 24.605469 24.21875 24.578125 24.203125 24.550781 C 24.058594 24.25 23.898438 23.960938 23.714844 23.675781 C 23.703125 23.65625 23.691406 23.632812 23.675781 23.609375 C 23.636719 23.550781 23.609375 23.488281 23.566406 23.429688 L 23.546875 23.441406 C 22.058594 21.3125 19.589844 19.96875 16.9375 20 C 12.695312 20.03125 9.0625 23.644531 9 27.882812 C 8.96875 30.042969 9.785156 32.078125 11.300781 33.613281 C 12.816406 35.152344 14.839844 36 17 36 L 34.328125 36 L 39 31.328125 Z M 35.386719 13.257812 "/>
</g>
</svg>
