<?xml version="1.0" encoding="UTF-8"?>
<svg xmlns="http://www.w3.org/2000/svg" xmlns:xlink="http://www.w3.org/1999/xlink" width="48pt" height="48pt" viewBox="0 0 48 48" version="1.1">
<g id="surface1">
<path style=" stroke:none;fill-rule:nonzero;fill:rgb(0%,0%,0%);fill-opacity:1;" d="M 14 25 L 34 25 L 34 32 L 14 32 Z M 12.414062 16 L 16 12.414062 L 17.507812 13.921875 C 16.074219 14.851562 14.851562 16.074219 13.921875 17.507812 Z M 24 14 C 25.777344 14 27.75 17.785156 27.976562 23 L 20.023438 23 C 20.25 17.785156 22.222656 14 24 14 M 14.050781 23 C 14.417969 19.316406 16.792969 16.21875 20.0625 14.8125 C 18.902344 16.78125 18.148438 19.65625 18.023438 23 Z M 33.949219 23 L 29.976562 23 C 29.851562 19.65625 29.097656 16.78125 27.9375 14.8125 C 31.207031 16.21875 33.582031 19.316406 33.949219 23 M 36 32 L 36 24 C 36 17.382812 30.617188 12 24 12 C 22.351562 12 20.78125 12.335938 19.351562 12.9375 L 16 9.585938 L 9.585938 16 L 12.9375 19.351562 C 12.335938 20.78125 12 22.351562 12 24 L 12 32 L 8 32 L 8 34 L 40 34 L 40 32 Z M 36 32 "/>
</g>
</svg>
