<?xml version="1.0" encoding="UTF-8"?>
<svg xmlns="http://www.w3.org/2000/svg" xmlns:xlink="http://www.w3.org/1999/xlink" width="48pt" height="48pt" viewBox="0 0 48 48" version="1.1">
<g id="surface1">
<path style=" stroke:none;fill-rule:nonzero;fill:rgb(0%,0%,0%);fill-opacity:1;" d="M 30.085938 22.890625 L 17.148438 17.53125 L 18.679688 13.835938 L 31.613281 19.195312 Z M 14.984375 12.308594 L 16.832031 13.070312 L 16.066406 14.921875 L 15.304688 16.765625 L 13.453125 16.003906 Z M 29.828125 35 L 18.171875 35 C 18.585938 33.835938 19.695312 33 21 33 L 27 33 C 28.304688 33 29.414062 33.835938 29.828125 35 M 34.863281 27.035156 L 37.925781 19.644531 L 36.074219 18.878906 L 34.929688 21.648438 L 33.078125 20.882812 L 34.230469 18.113281 L 17.597656 11.222656 L 13.902344 9.691406 L 10.839844 17.085938 L 16.386719 19.382812 L 23 22.121094 L 23 31 L 21 31 C 18.585938 31 16.566406 32.722656 16.101562 35 L 14 35 L 14 37 L 34 37 L 34 35 L 31.898438 35 C 31.433594 32.722656 29.414062 31 27 31 L 25 31 L 25 22.949219 L 31.164062 25.503906 L 32.3125 22.730469 L 34.164062 23.496094 L 33.015625 26.269531 Z M 34.863281 27.035156 "/>
</g>
</svg>
