<?xml version="1.0" encoding="UTF-8"?>
<svg xmlns="http://www.w3.org/2000/svg" xmlns:xlink="http://www.w3.org/1999/xlink" width="48pt" height="48pt" viewBox="0 0 48 48" version="1.1">
<g id="surface1">
<path style=" stroke:none;fill-rule:nonzero;fill:rgb(0%,0%,0%);fill-opacity:1;" d="M 37 29 L 28.730469 29 L 27.917969 20.042969 L 37 27.472656 Z M 21.820312 36 L 21.21875 33 L 26.78125 33 L 26.179688 36 Z M 11 29 L 11 27.472656 L 20.082031 20.042969 L 19.269531 29 Z M 22.460938 16 L 25.539062 16 L 26.90625 31 L 21.09375 31 Z M 24 11 C 24.617188 11 25.128906 11.464844 25.1875 12.082031 L 25.359375 14 L 22.640625 14 L 22.8125 12.082031 C 22.871094 11.464844 23.382812 11 24 11 M 39 26.527344 L 27.664062 17.25 L 27.179688 11.902344 C 27.027344 10.246094 25.660156 9 24 9 C 22.339844 9 20.972656 10.246094 20.820312 11.902344 L 20.335938 17.25 L 9 26.527344 L 9 31 L 19.085938 31 L 19.003906 31.910156 L 18.992188 32.054688 L 20.179688 38 L 27.820312 38 L 29.007812 32.054688 L 28.914062 31 L 39 31 Z M 39 26.527344 "/>
</g>
</svg>
