<?xml version="1.0" encoding="UTF-8"?>
<svg xmlns="http://www.w3.org/2000/svg" xmlns:xlink="http://www.w3.org/1999/xlink" width="48pt" height="48pt" viewBox="0 0 48 48" version="1.1">
<g id="surface1">
<path style=" stroke:none;fill-rule:nonzero;fill:rgb(0%,0%,0%);fill-opacity:1;" d="M 19 20 L 22 21 L 22 24 L 19 21 Z M 29 21 L 26 24 L 26 21 L 29 20 Z M 17 19 C 17 15.140625 20.140625 12 24 12 C 27.859375 12 31 15.140625 31 19 C 31 22.96875 27.703125 28 24 28 C 20.296875 28 17 22.96875 17 19 M 31 31 L 29 31 C 28.449219 31 28 30.550781 28 30 L 28 28.652344 C 30.964844 26.597656 33 22.542969 33 19 C 33 14.039062 28.964844 10 24 10 C 19.035156 10 15 14.039062 15 19 C 15 22.542969 17.035156 26.597656 20 28.652344 L 20 30 C 20 30.550781 19.550781 31 19 31 L 17 31 C 13.140625 31 10 34.140625 10 38 L 12 38 C 12 35.242188 14.242188 33 17 33 L 19 33 C 20.652344 33 22 31.652344 22 30 L 22 29.664062 C 22.644531 29.875 23.3125 30 24 30 C 24.6875 30 25.355469 29.875 26 29.664062 L 26 30 C 26 31.652344 27.347656 33 29 33 L 31 33 C 33.757812 33 36 35.242188 36 38 L 38 38 C 38 34.140625 34.859375 31 31 31 "/>
</g>
</svg>
