<?xml version="1.0" encoding="UTF-8"?>
<svg xmlns="http://www.w3.org/2000/svg" xmlns:xlink="http://www.w3.org/1999/xlink" width="48pt" height="48pt" viewBox="0 0 48 48" version="1.1">
<g id="surface1">
<path style=" stroke:none;fill-rule:nonzero;fill:rgb(0%,0%,0%);fill-opacity:1;" d="M 32 28 L 9 28 L 9 25 L 39 25 L 39 28 Z M 30 32 C 30 32.550781 29.550781 33 29 33 L 19 33 C 18.449219 33 18 32.550781 18 32 L 18 30 L 30 30 Z M 16 16 C 16 15.449219 16.449219 15 17 15 L 31 15 C 31.550781 15 32 15.449219 32 16 L 32 18 L 16 18 Z M 36.878906 23 L 11.121094 23 L 15.320312 20 L 32.679688 20 Z M 41 23.484375 L 34 18.484375 L 34 16 C 34 14.347656 32.652344 13 31 13 L 17 13 C 15.347656 13 14 14.347656 14 16 L 14 18.484375 L 7 23.484375 L 7 30 L 16 30 L 16 32 C 16 33.652344 17.347656 35 19 35 L 29 35 C 30.652344 35 32 33.652344 32 32 L 32 30 L 41 30 Z M 41 23.484375 "/>
</g>
</svg>
