<?xml version="1.0" encoding="UTF-8"?>
<svg xmlns="http://www.w3.org/2000/svg" xmlns:xlink="http://www.w3.org/1999/xlink" width="48pt" height="48pt" viewBox="0 0 48 48" version="1.1">
<defs>
<filter id="alpha" filterUnits="objectBoundingBox" x="0%" y="0%" width="100%" height="100%">
  <feColorMatrix type="matrix" in="SourceGraphic" values="0 0 0 0 1 0 0 0 0 1 0 0 0 0 1 0 0 0 1 0"/>
</filter>
<mask id="mask0">
  <g filter="url(#alpha)">
<rect x="0" y="0" width="48" height="48" style="fill:rgb(0%,0%,0%);fill-opacity:0.199997;stroke:none;"/>
  </g>
</mask>
<clipPath id="clip2">
  <path d="M 0.0664062 0 L 29.933594 0 L 29.933594 28 L 0.0664062 28 Z M 0.0664062 0 "/>
</clipPath>
<clipPath id="clip1">
  <rect x="0" y="0" width="30" height="28"/>
</clipPath>
<g id="surface5" clip-path="url(#clip1)">
<g clip-path="url(#clip2)" clip-rule="nonzero">
<path style=" stroke:none;fill-rule:nonzero;fill:rgb(0%,0%,0%);fill-opacity:1;" d="M 15.933594 26.132812 C 10.207031 26.132812 5.242188 22.058594 4.0625 16.527344 C 4.074219 16.523438 4.082031 16.515625 4.09375 16.507812 C 4.128906 16.492188 4.160156 16.472656 4.191406 16.453125 C 4.296875 16.398438 4.398438 16.335938 4.496094 16.265625 C 4.535156 16.238281 4.574219 16.207031 4.613281 16.175781 C 4.699219 16.105469 4.785156 16.03125 4.863281 15.949219 C 4.894531 15.917969 4.921875 15.890625 4.953125 15.859375 C 5.054688 15.746094 5.148438 15.625 5.230469 15.492188 C 5.242188 15.472656 5.25 15.453125 5.265625 15.429688 C 5.332031 15.320312 5.390625 15.203125 5.441406 15.082031 C 5.460938 15.039062 5.476562 14.992188 5.496094 14.945312 C 5.53125 14.839844 5.566406 14.730469 5.589844 14.621094 C 5.601562 14.574219 5.613281 14.527344 5.621094 14.480469 C 5.648438 14.324219 5.667969 14.164062 5.667969 14 C 5.667969 13.835938 5.648438 13.675781 5.621094 13.519531 C 5.613281 13.472656 5.601562 13.425781 5.589844 13.378906 C 5.566406 13.269531 5.53125 13.160156 5.496094 13.054688 C 5.476562 13.007812 5.460938 12.964844 5.441406 12.917969 C 5.390625 12.796875 5.332031 12.679688 5.265625 12.570312 C 5.25 12.546875 5.242188 12.527344 5.230469 12.507812 C 5.148438 12.375 5.054688 12.257812 4.953125 12.140625 C 4.921875 12.109375 4.894531 12.082031 4.863281 12.050781 C 4.785156 11.972656 4.699219 11.894531 4.613281 11.824219 C 4.574219 11.792969 4.535156 11.761719 4.496094 11.734375 C 4.398438 11.664062 4.296875 11.601562 4.191406 11.546875 C 4.160156 11.527344 4.128906 11.507812 4.09375 11.492188 C 4.082031 11.484375 4.074219 11.476562 4.0625 11.472656 C 5.242188 5.941406 10.207031 1.867188 15.933594 1.867188 C 18.320312 1.867188 20.605469 2.550781 22.585938 3.855469 C 22.5625 3.933594 22.546875 4.019531 22.53125 4.101562 C 22.523438 4.148438 22.507812 4.191406 22.5 4.238281 C 22.480469 4.378906 22.464844 4.523438 22.464844 4.667969 C 22.464844 6.210938 23.722656 7.464844 25.265625 7.464844 C 25.414062 7.464844 25.554688 7.453125 25.699219 7.433594 C 25.738281 7.425781 25.773438 7.414062 25.8125 7.40625 C 25.902344 7.386719 25.992188 7.371094 26.078125 7.34375 C 27.382812 9.332031 28.066406 11.617188 28.066406 14 C 28.066406 20.691406 22.625 26.132812 15.933594 26.132812 M 2.933594 14.925781 L 2.84375 14.933594 C 2.339844 14.921875 1.933594 14.507812 1.933594 14 C 1.933594 13.5 2.328125 13.089844 2.851562 13.066406 L 2.933594 13.074219 C 3.417969 13.105469 3.800781 13.511719 3.800781 14 C 3.800781 14.488281 3.417969 14.894531 2.933594 14.925781 M 26.199219 4.667969 C 26.199219 4.953125 26.054688 5.234375 25.835938 5.40625 C 25.660156 5.535156 25.46875 5.601562 25.265625 5.601562 C 24.75 5.601562 24.332031 5.179688 24.332031 4.667969 C 24.332031 4.464844 24.398438 4.28125 24.519531 4.109375 C 24.707031 3.875 24.984375 3.734375 25.265625 3.734375 C 25.78125 3.734375 26.199219 4.152344 26.199219 4.667969 M 27.566406 6.226562 C 27.875 5.765625 28.066406 5.226562 28.066406 4.667969 C 28.066406 3.121094 26.8125 1.867188 25.265625 1.867188 C 24.710938 1.867188 24.171875 2.054688 23.707031 2.371094 C 21.394531 0.824219 18.726562 0 15.933594 0 C 9.257812 0 3.496094 4.804688 2.210938 11.285156 C 0.984375 11.582031 0.0664062 12.683594 0.0664062 14 C 0.0664062 15.316406 0.984375 16.417969 2.210938 16.714844 C 3.496094 23.195312 9.257812 28 15.933594 28 C 23.652344 28 29.933594 21.71875 29.933594 14 C 29.933594 11.207031 29.113281 8.539062 27.566406 6.226562 M 22.738281 17.074219 C 22.621094 17.019531 22.496094 16.988281 22.375 16.949219 C 22.304688 16.925781 22.238281 16.890625 22.167969 16.875 C 21.960938 16.828125 21.75 16.800781 21.535156 16.800781 C 19.988281 16.800781 18.734375 18.054688 18.734375 19.601562 C 18.734375 19.816406 18.757812 20.027344 18.808594 20.234375 C 18.828125 20.324219 18.871094 20.410156 18.902344 20.5 C 18.9375 20.601562 18.960938 20.707031 19.007812 20.804688 C 18.050781 21.238281 17.003906 21.464844 15.933594 21.464844 C 11.816406 21.464844 8.464844 18.117188 8.464844 14 C 8.464844 9.882812 11.816406 6.535156 15.933594 6.535156 C 20.050781 6.535156 23.402344 9.882812 23.402344 14 C 23.402344 15.070312 23.171875 16.117188 22.738281 17.074219 M 21.535156 20.535156 C 21.332031 20.535156 21.140625 20.472656 20.972656 20.339844 C 20.738281 20.167969 20.597656 19.894531 20.597656 19.601562 C 20.597656 19.085938 21.019531 18.667969 21.535156 18.667969 C 21.828125 18.667969 22.097656 18.804688 22.289062 19.066406 L 22.292969 19.070312 C 22.40625 19.210938 22.464844 19.398438 22.464844 19.601562 C 22.464844 20.113281 22.046875 20.535156 21.535156 20.535156 M 15.933594 4.667969 C 10.789062 4.667969 6.597656 8.851562 6.597656 14 C 6.597656 19.144531 10.789062 23.332031 15.933594 23.332031 C 17.519531 23.332031 19.046875 22.914062 20.414062 22.15625 C 20.761719 22.308594 21.144531 22.398438 21.535156 22.398438 C 23.078125 22.398438 24.332031 21.144531 24.332031 19.601562 C 24.332031 19.207031 24.242188 18.824219 24.089844 18.480469 C 24.847656 17.113281 25.265625 15.582031 25.265625 14 C 25.265625 8.851562 21.078125 4.667969 15.933594 4.667969 M 15.933594 15.867188 C 14.90625 15.867188 14.066406 15.03125 14.066406 14 C 14.066406 12.96875 14.90625 12.132812 15.933594 12.132812 C 16.960938 12.132812 17.800781 12.96875 17.800781 14 C 17.800781 15.03125 16.960938 15.867188 15.933594 15.867188 M 15.933594 10.265625 C 13.875 10.265625 12.199219 11.941406 12.199219 14 C 12.199219 16.058594 13.875 17.734375 15.933594 17.734375 C 17.992188 17.734375 19.667969 16.058594 19.667969 14 C 19.667969 11.941406 17.992188 10.265625 15.933594 10.265625 "/>
</g>
</g>
</defs>
<g id="surface1">
<use xlink:href="#surface5" transform="matrix(1,0,0,1,8,10)" mask="url(#mask0)"/>
<path style=" stroke:none;fill-rule:nonzero;fill:rgb(0%,0%,0%);fill-opacity:1;" d="M 24 26 C 22.894531 26 22 25.101562 22 24 C 22 22.898438 22.894531 22 24 22 C 25.105469 22 26 22.898438 26 24 C 26 25.101562 25.105469 26 24 26 M 24 20 C 21.796875 20 20 21.792969 20 24 C 20 26.207031 21.796875 28 24 28 C 26.203125 28 28 26.207031 28 24 C 28 21.792969 26.203125 20 24 20 M 30.199219 27.25 C 30.078125 27.199219 29.953125 27.167969 29.824219 27.132812 C 29.757812 27.113281 29.695312 27.082031 29.628906 27.066406 C 29.425781 27.023438 29.214844 27 29 27 C 27.347656 27 26 28.347656 26 30 C 26 30.207031 26.027344 30.410156 26.070312 30.613281 C 26.078125 30.636719 26.074219 30.660156 26.078125 30.683594 C 25.40625 30.894531 24.710938 31 24 31 C 20.140625 31 17 27.859375 17 24 C 17 20.140625 20.140625 17 24 17 C 27.859375 17 31 20.140625 31 24 C 31 25.144531 30.726562 26.253906 30.199219 27.25 M 29 31 C 28.691406 31 28.40625 30.863281 28.214844 30.609375 C 28.074219 30.433594 28 30.21875 28 30 C 28 29.449219 28.449219 29 29 29 C 29.28125 29 29.550781 29.121094 29.75 29.351562 L 29.753906 29.359375 C 29.914062 29.535156 30 29.757812 30 30 C 30 30.550781 29.550781 31 29 31 M 24 15 C 19.035156 15 15 19.039062 15 24 C 15 28.960938 19.035156 33 24 33 C 25.105469 33 26.183594 32.789062 27.214844 32.394531 C 27.722656 32.777344 28.339844 33 29 33 C 30.652344 33 32 31.652344 32 30 C 32 29.523438 31.878906 29.066406 31.671875 28.660156 C 32.523438 27.25 33 25.660156 33 24 C 33 19.039062 28.964844 15 24 15 M 24 36 C 18.425781 36 13.542969 32.058594 12.304688 26.699219 C 12.3125 26.695312 12.316406 26.691406 12.324219 26.6875 C 12.351562 26.675781 12.371094 26.660156 12.398438 26.644531 C 12.519531 26.582031 12.636719 26.507812 12.75 26.429688 C 12.789062 26.398438 12.828125 26.367188 12.871094 26.335938 C 12.964844 26.257812 13.054688 26.175781 13.140625 26.089844 C 13.171875 26.054688 13.203125 26.023438 13.234375 25.992188 C 13.347656 25.867188 13.445312 25.738281 13.535156 25.601562 C 13.542969 25.585938 13.550781 25.566406 13.5625 25.554688 C 13.636719 25.425781 13.703125 25.296875 13.761719 25.160156 C 13.78125 25.109375 13.796875 25.0625 13.8125 25.015625 C 13.855469 24.898438 13.890625 24.78125 13.917969 24.664062 C 13.929688 24.613281 13.941406 24.566406 13.949219 24.515625 C 13.980469 24.347656 14 24.175781 14 24 C 14 23.824219 13.980469 23.652344 13.949219 23.484375 C 13.941406 23.433594 13.929688 23.386719 13.917969 23.335938 C 13.890625 23.21875 13.855469 23.101562 13.8125 22.984375 C 13.796875 22.9375 13.78125 22.890625 13.761719 22.839844 C 13.703125 22.703125 13.636719 22.574219 13.5625 22.445312 C 13.550781 22.433594 13.542969 22.414062 13.535156 22.398438 C 13.445312 22.261719 13.347656 22.132812 13.234375 22.007812 C 13.203125 21.976562 13.171875 21.945312 13.140625 21.910156 C 13.054688 21.824219 12.964844 21.742188 12.871094 21.664062 C 12.828125 21.632812 12.789062 21.601562 12.75 21.570312 C 12.636719 21.492188 12.519531 21.417969 12.398438 21.355469 C 12.371094 21.339844 12.351562 21.324219 12.324219 21.3125 C 12.316406 21.308594 12.3125 21.304688 12.304688 21.300781 C 13.542969 15.941406 18.425781 12 24 12 C 26.238281 12 28.386719 12.609375 30.269531 13.769531 C 30.265625 13.769531 30.265625 13.773438 30.265625 13.773438 C 30.203125 13.914062 30.164062 14.0625 30.121094 14.207031 C 30.105469 14.261719 30.078125 14.316406 30.066406 14.371094 C 30.023438 14.578125 30 14.785156 30 15 C 30 16.652344 31.347656 18 33 18 C 33.214844 18 33.425781 17.976562 33.628906 17.933594 C 33.675781 17.921875 33.71875 17.898438 33.761719 17.886719 C 33.921875 17.847656 34.078125 17.800781 34.226562 17.734375 C 34.226562 17.734375 34.230469 17.734375 34.230469 17.730469 C 35.390625 19.613281 36 21.761719 36 24 C 36 30.617188 30.617188 36 24 36 M 11.011719 24.996094 L 10.992188 25 C 10.445312 24.996094 10 24.550781 10 24 C 10 23.457031 10.433594 23.019531 10.933594 22.996094 L 11.082031 23.007812 C 11.597656 23.042969 12 23.480469 12 24 C 12 24.519531 11.601562 24.949219 11.011719 24.996094 M 34 15 C 34 15.246094 33.910156 15.480469 33.746094 15.660156 C 33.550781 15.878906 33.285156 16 33 16 C 32.449219 16 32 15.550781 32 15 C 32 14.714844 32.121094 14.449219 32.34375 14.246094 C 32.519531 14.089844 32.753906 14 33 14 C 33.550781 14 34 14.449219 34 15 M 35.683594 16.3125 C 35.882812 15.90625 36 15.464844 36 15 C 36 13.347656 34.652344 12 33 12 C 32.535156 12 32.089844 12.117188 31.6875 12.316406 C 29.402344 10.804688 26.765625 10 24 10 C 17.414062 10 11.675781 14.714844 10.316406 21.085938 C 8.992188 21.394531 8 22.582031 8 24 C 8 25.417969 8.992188 26.605469 10.316406 26.914062 C 11.675781 33.285156 17.414062 38 24 38 C 31.71875 38 38 31.71875 38 24 C 38 21.234375 37.195312 18.597656 35.683594 16.3125 "/>
</g>
</svg>
