<?xml version="1.0" encoding="UTF-8"?>
<svg xmlns="http://www.w3.org/2000/svg" xmlns:xlink="http://www.w3.org/1999/xlink" width="48pt" height="48pt" viewBox="0 0 48 48" version="1.1">
<g id="surface1">
<path style=" stroke:none;fill-rule:nonzero;fill:rgb(0%,0%,0%);fill-opacity:1;" d="M 12 23 L 10 23 L 10 21 L 12 21 Z M 21 36 L 23 36 L 23 38 L 21 38 Z M 36 25 L 38 25 L 38 27 L 36 27 Z M 27 12 L 25 12 L 25 10 L 27 10 Z M 24 22 C 25.101562 22 26 22.898438 26 24 C 26 25.101562 25.101562 26 24 26 C 22.898438 26 22 25.101562 22 24 C 22 22.898438 22.898438 22 24 22 M 29 15 C 24.035156 15 20 19.035156 20 24 C 20 24.273438 20.027344 24.539062 20.078125 24.796875 C 18.222656 23.535156 17 21.40625 17 19 C 17 15.140625 20.140625 12 24 12 L 24 10 C 19.035156 10 15 14.035156 15 19 C 15 23.964844 19.035156 28 24 28 C 24.273438 28 24.539062 27.972656 24.796875 27.917969 C 23.535156 29.777344 21.40625 31 19 31 C 15.140625 31 12 27.859375 12 24 L 10 24 C 10 28.964844 14.035156 33 19 33 C 23.964844 33 28 28.964844 28 24 C 28 23.726562 27.972656 23.460938 27.921875 23.203125 C 29.777344 24.464844 31 26.59375 31 29 C 31 32.859375 27.859375 36 24 36 L 24 38 C 28.964844 38 33 33.964844 33 29 C 33 24.035156 28.964844 20 24 20 C 23.726562 20 23.460938 20.027344 23.203125 20.082031 C 24.464844 18.222656 26.59375 17 29 17 C 32.859375 17 36 20.140625 36 24 L 38 24 C 38 19.035156 33.964844 15 29 15 "/>
</g>
</svg>
