<?xml version="1.0" encoding="UTF-8"?>
<svg xmlns="http://www.w3.org/2000/svg" xmlns:xlink="http://www.w3.org/1999/xlink" width="48pt" height="48pt" viewBox="0 0 48 48" version="1.1">
<g id="surface1">
<path style=" stroke:none;fill-rule:nonzero;fill:rgb(0%,0%,0%);fill-opacity:1;" d="M 36.707031 23.292969 C 36.511719 23.097656 36.257812 23 36 23 C 35.742188 23 35.488281 23.097656 35.292969 23.292969 C 34.902344 23.683594 34.902344 24.316406 35.292969 24.707031 C 35.683594 25.097656 36.316406 25.097656 36.707031 24.707031 C 37.097656 24.316406 37.097656 23.683594 36.707031 23.292969 M 38.121094 21.878906 C 39.289062 23.050781 39.289062 24.949219 38.121094 26.121094 C 37.535156 26.707031 36.769531 26.996094 36 26.996094 C 35.230469 26.996094 34.464844 26.707031 33.878906 26.121094 C 32.710938 24.949219 32.710938 23.050781 33.878906 21.878906 C 35.050781 20.710938 36.949219 20.710938 38.121094 21.878906 M 27 24 C 27 23.199219 26.6875 22.445312 26.121094 21.878906 C 25.554688 21.3125 24.800781 21 24 21 C 23.199219 21 22.445312 21.3125 21.878906 21.878906 C 21.3125 22.445312 21 23.199219 21 24 C 21 24.800781 21.3125 25.554688 21.878906 26.121094 C 23.011719 27.253906 24.988281 27.253906 26.121094 26.121094 C 26.6875 25.554688 27 24.800781 27 24 M 29 24 C 29 25.335938 28.480469 26.589844 27.535156 27.535156 C 26.589844 28.480469 25.335938 29 24 29 C 22.664062 29 21.40625 28.480469 20.464844 27.535156 C 19.519531 26.59375 19 25.335938 19 24 C 19 22.664062 19.519531 21.40625 20.464844 20.464844 C 21.40625 19.519531 22.664062 19 24 19 C 25.335938 19 26.59375 19.519531 27.535156 20.464844 C 28.480469 21.40625 29 22.664062 29 24 M 24.003906 36 L 23.742188 35.996094 C 23.355469 35.988281 22.96875 35.960938 22.589844 35.917969 L 22.359375 37.902344 C 22.800781 37.957031 23.25 37.988281 23.703125 37.996094 L 24.003906 38 C 24.5 38 25 37.972656 25.488281 37.921875 L 25.277344 35.933594 C 24.859375 35.976562 24.429688 36 24.003906 36 M 10.09375 22.371094 L 12.078125 22.601562 C 12.183594 21.710938 12.386719 20.828125 12.6875 19.984375 L 10.800781 19.316406 C 10.453125 20.304688 10.214844 21.332031 10.09375 22.371094 M 17.65625 13.8125 C 18.414062 13.339844 19.230469 12.949219 20.078125 12.652344 L 19.421875 10.765625 C 18.433594 11.109375 17.484375 11.5625 16.597656 12.113281 Z M 12.070312 25.292969 L 10.082031 25.5 C 10.191406 26.542969 10.417969 27.570312 10.761719 28.5625 L 12.652344 27.910156 C 12.359375 27.0625 12.164062 26.183594 12.070312 25.292969 M 22.484375 10.082031 L 22.699219 12.070312 C 23.121094 12.023438 23.5625 12.003906 23.996094 12 L 24.253906 12.003906 C 24.636719 12.011719 25.015625 12.035156 25.386719 12.078125 L 25.613281 10.09375 C 25.179688 10.042969 24.742188 10.011719 24.285156 10.003906 L 23.992188 10 C 23.484375 10.003906 22.976562 10.027344 22.484375 10.082031 M 34.179688 17.644531 L 35.875 16.585938 C 35.320312 15.699219 34.664062 14.871094 33.929688 14.132812 L 32.511719 15.539062 C 33.144531 16.179688 33.703125 16.886719 34.179688 17.644531 M 32.429688 32.539062 L 33.894531 33.902344 C 34.617188 33.179688 35.261719 32.378906 35.808594 31.523438 L 34.125 30.445312 C 33.65625 31.179688 33.101562 31.867188 32.429688 32.539062 M 16.488281 35.816406 C 17.375 36.382812 18.320312 36.84375 19.304688 37.191406 L 19.976562 35.308594 C 19.132812 35.007812 18.320312 34.613281 17.5625 34.128906 Z M 12.179688 16.5 L 13.863281 17.570312 C 14.347656 16.816406 14.914062 16.113281 15.550781 15.480469 L 14.144531 14.0625 C 13.398438 14.796875 12.738281 15.617188 12.179688 16.5 M 28.769531 35.015625 C 28.484375 35.136719 28.195312 35.25 27.902344 35.351562 L 28.546875 37.242188 C 28.890625 37.128906 29.226562 36.996094 29.5625 36.851562 C 30.167969 36.589844 30.757812 36.28125 31.257812 35.972656 L 31.398438 35.890625 L 30.269531 34.234375 C 29.789062 34.527344 29.285156 34.789062 28.769531 35.015625 M 12.105469 31.390625 C 12.660156 32.277344 13.3125 33.105469 14.050781 33.847656 L 15.472656 32.441406 C 14.839844 31.804688 14.277344 31.09375 13.804688 30.332031 Z M 28.667969 10.796875 C 29.652344 11.144531 30.601562 11.605469 31.488281 12.167969 L 30.417969 13.855469 C 29.660156 13.378906 28.847656 12.980469 28.003906 12.683594 Z M 28.667969 10.796875 "/>
</g>
</svg>
