<?xml version="1.0" encoding="UTF-8"?>
<svg xmlns="http://www.w3.org/2000/svg" xmlns:xlink="http://www.w3.org/1999/xlink" width="48pt" height="48pt" viewBox="0 0 48 48" version="1.1">
<g id="surface1">
<path style=" stroke:none;fill-rule:nonzero;fill:rgb(0%,0%,0%);fill-opacity:1;" d="M 39.453125 33.21875 L 40.640625 34.136719 L 36.027344 36.027344 L 36.695312 31.085938 L 37.859375 31.988281 C 39.257812 29.5625 40 26.820312 40 24 L 42 24 C 42 27.265625 41.113281 30.433594 39.453125 33.21875 M 7.359375 13.863281 L 11.972656 11.972656 L 11.304688 16.914062 L 10.140625 16.011719 C 8.742188 18.4375 8 21.179688 8 24 L 6 24 C 6 20.734375 6.886719 17.566406 8.546875 14.78125 Z M 29 24 L 31 24 C 31 27.859375 27.859375 31 24 31 L 24 29 C 26.757812 29 29 26.757812 29 24 M 24 34 C 18.484375 34 14 29.515625 14 24 C 14 18.484375 18.484375 14 24 14 C 29.515625 14 34 18.484375 34 24 C 34 29.515625 29.515625 34 24 34 M 24 12 C 17.382812 12 12 17.382812 12 24 C 12 30.617188 17.382812 36 24 36 C 30.617188 36 36 30.617188 36 24 C 36 17.382812 30.617188 12 24 12 "/>
</g>
</svg>
