<?xml version="1.0" encoding="UTF-8"?>
<svg xmlns="http://www.w3.org/2000/svg" xmlns:xlink="http://www.w3.org/1999/xlink" width="48pt" height="48pt" viewBox="0 0 48 48" version="1.1">
<g id="surface1">
<path style=" stroke:none;fill-rule:nonzero;fill:rgb(0%,0%,0%);fill-opacity:1;" d="M 31 24 L 33 24 C 33 28.960938 28.964844 33 24 33 L 24 31 C 27.859375 31 31 27.859375 31 24 M 33 21 L 31 21 L 31 19 L 33 19 Z M 24 36 C 17.382812 36 12 30.617188 12 24 C 12 22.960938 12.144531 21.960938 12.394531 21 L 16.0625 21 C 16.472656 21 16.683594 21.269531 16.753906 21.386719 C 16.828125 21.503906 16.976562 21.8125 16.789062 22.183594 L 15.421875 24.925781 C 14.980469 25.804688 15.027344 26.828125 15.542969 27.664062 C 16.0625 28.5 16.957031 29 17.9375 29 L 20.921875 29 C 21.953125 29 22.898438 28.4375 23.394531 27.53125 L 27.410156 20.164062 C 27.894531 19.285156 27.875 18.242188 27.363281 17.378906 C 26.851562 16.515625 25.945312 16 24.9375 16 C 24.527344 16 24.316406 15.730469 24.246094 15.613281 C 24.171875 15.496094 24.023438 15.1875 24.210938 14.816406 L 25.5625 12.113281 C 31.441406 12.882812 36 17.914062 36 24 C 36 30.617188 30.617188 36 24 36 M 23.367188 12.03125 L 22.421875 13.925781 C 21.980469 14.804688 22.027344 15.828125 22.542969 16.664062 C 23.0625 17.5 23.957031 18 24.9375 18 C 25.359375 18 25.570312 18.28125 25.644531 18.398438 C 25.714844 18.519531 25.855469 18.839844 25.65625 19.207031 L 21.640625 26.574219 C 21.496094 26.835938 21.222656 27 20.921875 27 L 17.9375 27 C 17.527344 27 17.316406 26.730469 17.246094 26.613281 C 17.171875 26.496094 17.023438 26.1875 17.210938 25.816406 L 18.578125 23.074219 C 19.019531 22.195312 18.972656 21.171875 18.457031 20.335938 C 17.9375 19.5 17.042969 19 16.0625 19 L 13.105469 19 C 14.921875 15.058594 18.808594 12.273438 23.367188 12.03125 M 24 10 C 16.28125 10 10 16.28125 10 24 C 10 31.71875 16.28125 38 24 38 C 31.71875 38 38 31.71875 38 24 C 38 16.28125 31.71875 10 24 10 "/>
</g>
</svg>
