<?xml version="1.0" encoding="UTF-8"?>
<svg xmlns="http://www.w3.org/2000/svg" xmlns:xlink="http://www.w3.org/1999/xlink" width="48pt" height="48pt" viewBox="0 0 48 48" version="1.1">
<g id="surface1">
<path style=" stroke:none;fill-rule:nonzero;fill:rgb(0%,0%,0%);fill-opacity:1;" d="M 26.121094 20.464844 L 27.535156 19.050781 L 31.777344 23.292969 L 30.363281 24.707031 Z M 24.707031 19.050781 L 23.292969 17.636719 L 24.707031 16.222656 L 26.121094 17.636719 Z M 35.335938 34.25 C 34.566406 35.015625 33.132812 35.183594 31.300781 34.75 C 31.964844 34.296875 32.601562 33.78125 33.191406 33.191406 C 34.257812 32.128906 35.082031 30.921875 35.699219 29.636719 C 36.3125 31.730469 36.203125 33.382812 35.335938 34.25 M 16.222656 31.777344 C 13.535156 29.089844 12.53125 25.34375 13.214844 21.871094 C 14.582031 24.324219 16.511719 26.839844 18.835938 29.164062 C 21.226562 31.554688 23.742188 33.453125 26.140625 34.785156 C 22.664062 35.46875 18.914062 34.46875 16.222656 31.777344 M 13.75 12.664062 C 14.617188 11.796875 16.269531 11.6875 18.363281 12.300781 C 17.078125 12.917969 15.871094 13.746094 14.808594 14.808594 C 14.214844 15.402344 13.695312 16.042969 13.238281 16.714844 C 12.800781 14.882812 12.96875 13.445312 13.75 12.664062 M 31.777344 16.222656 C 36.066406 20.511719 36.066406 27.488281 31.777344 31.777344 C 30.890625 32.667969 29.882812 33.359375 28.808594 33.882812 C 26.214844 32.734375 23.199219 30.699219 20.25 27.75 C 17.507812 25.003906 15.355469 22 14.113281 19.203125 C 14.632812 18.125 15.328125 17.113281 16.222656 16.222656 C 18.367188 14.078125 21.183594 13.003906 24 13.003906 C 26.816406 13.003906 29.632812 14.078125 31.777344 16.222656 M 36.707031 26.683594 C 37.578125 22.527344 36.410156 18.027344 33.191406 14.808594 C 29.972656 11.589844 25.472656 10.421875 21.316406 11.292969 C 17.390625 9.488281 14.121094 9.46875 12.335938 11.25 C 10.707031 12.878906 10.566406 15.695312 11.929688 19.183594 C 10.070312 23.863281 11.027344 29.410156 14.808594 33.191406 C 17.34375 35.726562 20.671875 36.992188 24 36.992188 C 25.648438 36.992188 27.296875 36.679688 28.847656 36.058594 C 30.398438 36.65625 31.855469 36.972656 33.132812 36.972656 C 34.613281 36.972656 35.863281 36.550781 36.75 35.664062 C 38.53125 33.882812 38.511719 30.613281 36.707031 26.683594 "/>
</g>
</svg>
