<?xml version="1.0" encoding="UTF-8"?>
<svg xmlns="http://www.w3.org/2000/svg" xmlns:xlink="http://www.w3.org/1999/xlink" width="48pt" height="48pt" viewBox="0 0 48 48" version="1.1">
<g id="surface1">
<path style=" stroke:none;fill-rule:nonzero;fill:rgb(0%,0%,0%);fill-opacity:1;" d="M 26.503906 27.003906 C 26.503906 28.660156 27.847656 30.003906 29.503906 30.003906 C 31.15625 30.003906 32.503906 28.660156 32.503906 27.003906 C 32.503906 25.351562 31.15625 24.003906 29.503906 24.003906 C 27.847656 24.003906 26.503906 25.351562 26.503906 27.003906 M 16.84375 18.589844 L 24.570312 26.316406 C 24.675781 25.5625 24.933594 24.859375 25.335938 24.25 L 23.136719 22.054688 L 24.550781 20.640625 L 26.75 22.839844 C 27.355469 22.4375 28.0625 22.179688 28.8125 22.074219 L 21.089844 14.347656 L 22.503906 12.933594 L 33.035156 23.46875 L 33.035156 23.472656 C 33.941406 24.375 34.503906 25.625 34.503906 27.003906 C 34.503906 29.761719 32.257812 32.003906 29.503906 32.003906 C 28.125 32.003906 26.875 31.445312 25.96875 30.539062 L 15.429688 20.003906 Z M 10.914062 18.316406 L 24.550781 31.953125 C 27.28125 34.683594 31.722656 34.683594 34.453125 31.953125 C 37.179688 29.226562 37.179688 24.785156 34.453125 22.054688 L 20.816406 8.417969 L 22.230469 7.003906 L 35.867188 20.640625 C 39.375 24.148438 39.375 29.859375 35.867188 33.367188 C 34.109375 35.121094 31.808594 36 29.503906 36 C 27.195312 36 24.894531 35.121094 23.136719 33.367188 L 9.503906 19.734375 Z M 10.914062 18.316406 "/>
</g>
</svg>
