<?xml version="1.0" encoding="UTF-8"?>
<svg xmlns="http://www.w3.org/2000/svg" xmlns:xlink="http://www.w3.org/1999/xlink" width="48pt" height="48pt" viewBox="0 0 48 48" version="1.1">
<g id="surface1">
<path style=" stroke:none;fill-rule:nonzero;fill:rgb(0%,0%,0%);fill-opacity:1;" d="M 14 15.414062 L 11.878906 17.535156 L 10.464844 16.121094 L 16.121094 10.464844 L 17.535156 11.878906 L 15.414062 14 L 18 16.585938 L 16.585938 18 Z M 16.429688 29.285156 L 13.601562 26.457031 L 17.199219 22.859375 L 20.027344 25.6875 Z M 10.773438 29.285156 L 12.1875 27.871094 L 15.015625 30.699219 L 13.601562 32.113281 Z M 21.445312 18.613281 L 25.6875 22.859375 L 29.46875 26.640625 C 28.867188 26.925781 28.304688 27.3125 27.808594 27.808594 C 27.3125 28.304688 26.925781 28.867188 26.640625 29.46875 L 22.859375 25.6875 L 18.613281 21.445312 Z M 24.273438 15.785156 L 26.457031 13.601562 L 29.285156 16.429688 L 25.6875 20.027344 L 22.859375 17.199219 Z M 32.113281 13.601562 L 30.699219 15.015625 L 27.871094 12.1875 L 29.285156 10.773438 Z M 28.605469 34.082031 C 27.699219 32.550781 27.90625 30.535156 29.222656 29.222656 C 30.535156 27.90625 32.550781 27.699219 34.082031 28.605469 Z M 26.066406 31.726562 C 25.980469 33.367188 26.554688 35.039062 27.808594 36.292969 L 28.515625 37 L 32.050781 33.464844 L 33.464844 34.878906 L 34.878906 33.464844 L 33.464844 32.050781 L 37 28.515625 L 36.292969 27.808594 C 35.039062 26.554688 33.367188 25.980469 31.726562 26.066406 L 27.101562 21.445312 L 34.945312 13.601562 L 29.285156 7.945312 L 21.445312 15.785156 L 20.027344 17.199219 L 17.199219 20.027344 L 15.785156 21.445312 L 7.945312 29.285156 L 13.601562 34.945312 L 21.445312 27.101562 Z M 26.066406 31.726562 "/>
</g>
</svg>
