<?xml version="1.0" encoding="UTF-8"?>
<svg xmlns="http://www.w3.org/2000/svg" xmlns:xlink="http://www.w3.org/1999/xlink" width="48pt" height="48pt" viewBox="0 0 48 48" version="1.1">
<g id="surface1">
<path style=" stroke:none;fill-rule:nonzero;fill:rgb(0%,0%,0%);fill-opacity:1;" d="M 16.121094 12.707031 L 14.707031 14.121094 L 13.292969 12.707031 L 14.707031 11.292969 Z M 31.332031 28.183594 L 32.15625 30.71875 L 30 29.152344 L 29.4375 29.5625 L 27.84375 30.71875 L 28.453125 28.84375 L 28.667969 28.183594 L 28.105469 27.773438 L 26.507812 26.613281 L 29.175781 26.613281 L 29.390625 25.953125 L 30 24.078125 L 30.609375 25.953125 L 30.824219 26.613281 L 33.492188 26.613281 Z M 37 26.433594 L 36.4375 24.699219 L 32.214844 24.699219 L 30.910156 20.683594 L 29.089844 20.683594 L 27.9375 24.230469 L 17.195312 13.78125 L 15.804688 15.21875 L 25.554688 24.699219 L 23.5625 24.699219 L 23 26.433594 L 26.417969 28.914062 L 25.109375 32.929688 L 26.585938 34 L 30 31.519531 L 33.417969 34 L 34.890625 32.929688 L 33.585938 28.914062 L 36.390625 26.875 Z M 37 26.433594 "/>
</g>
</svg>
