<?xml version="1.0" encoding="UTF-8"?>
<svg xmlns="http://www.w3.org/2000/svg" xmlns:xlink="http://www.w3.org/1999/xlink" width="48pt" height="48pt" viewBox="0 0 48 48" version="1.1">
<g id="surface1">
<path style=" stroke:none;fill-rule:nonzero;fill:rgb(0%,0%,0%);fill-opacity:1;" d="M 19.214844 13.976562 C 20.21875 13.871094 21 13.03125 21 12 C 21 10.894531 20.105469 10 19 10 C 17.894531 10 17 10.894531 17 12 C 17 12.4375 17.144531 12.839844 17.386719 13.171875 L 14.785156 19.023438 C 13.78125 19.128906 13 19.96875 13 21 C 13 22.105469 13.894531 23 15 23 C 16.105469 23 17 22.105469 17 21 C 17 20.5625 16.855469 20.160156 16.613281 19.828125 Z M 36 32 C 34.894531 32 34 32.894531 34 34 C 34 35.105469 34.894531 36 36 36 C 37.105469 36 38 35.105469 38 34 C 38 32.894531 37.105469 32 36 32 M 26.722656 33 L 32 33 L 32 35 L 26.722656 35 C 26.375 35.59375 25.738281 36 25 36 C 23.894531 36 23 35.105469 23 34 C 23 33.261719 23.402344 32.625 24 32.277344 L 24 26.722656 C 23.484375 26.421875 23.117188 25.902344 23.027344 25.289062 L 18.628906 23.527344 L 19.371094 21.671875 L 23.773438 23.429688 C 24.113281 23.164062 24.535156 23 25 23 C 26.105469 23 27 23.894531 27 25 C 27 25.738281 26.597656 26.375 26 26.722656 L 26 32.277344 C 26.300781 32.453125 26.546875 32.699219 26.722656 33 "/>
</g>
</svg>
