<?xml version="1.0" encoding="UTF-8"?>
<svg xmlns="http://www.w3.org/2000/svg" xmlns:xlink="http://www.w3.org/1999/xlink" width="48pt" height="48pt" viewBox="0 0 48 48" version="1.1">
<g id="surface1">
<path style=" stroke:none;fill-rule:nonzero;fill:rgb(0%,0%,0%);fill-opacity:1;" d="M 20.382812 26 L 14 26 L 14 24 L 15.304688 24 L 18.363281 21.960938 Z M 30.382812 32 L 24.859375 32 C 24.410156 30.28125 22.859375 29 21 29 C 19.140625 29 17.589844 30.28125 17.144531 32 L 14 32 L 14 28 L 28.382812 28 Z M 21 35 C 19.898438 35 19 34.101562 19 33 C 19 31.898438 19.898438 31 21 31 C 22.101562 31 23 31.898438 23 33 C 23 34.101562 22.101562 35 21 35 M 17.695312 20 L 14.695312 22 L 13 22 L 13 20 Z M 11 16 L 30 16 L 30 18 L 11 18 Z M 13 12 L 14.695312 12 L 17.695312 14 L 13 14 Z M 36 17 C 36 17.550781 35.550781 18 35 18 L 32 18 L 32 16 L 35 16 C 35.550781 16 36 16.449219 36 17 M 21.304688 20 L 35 20 C 36.652344 20 38 18.652344 38 17 C 38 15.347656 36.652344 14 35 14 L 21.304688 14 L 15.304688 10 L 11 10 L 11 14 L 9 14 L 9 20 L 11 20 L 11 24 L 12 24 L 12 37 L 14 37 L 14 34 L 17.144531 34 C 17.589844 35.71875 19.140625 37 21 37 C 22.859375 37 24.410156 35.71875 24.859375 34 L 31.382812 34 L 32.882812 37 L 36 37 L 36 35 L 34.117188 35 L 29.617188 26 L 22.617188 26 L 20.039062 20.84375 Z M 21.304688 20 "/>
</g>
</svg>
