<?xml version="1.0" encoding="UTF-8"?>
<svg xmlns="http://www.w3.org/2000/svg" xmlns:xlink="http://www.w3.org/1999/xlink" width="48pt" height="48pt" viewBox="0 0 48 48" version="1.1">
<g id="surface1">
<path style=" stroke:none;fill-rule:nonzero;fill:rgb(0%,0%,0%);fill-opacity:1;" d="M 35.046875 13.382812 C 34.945312 13.628906 34.753906 13.820312 34.507812 13.925781 L 31.734375 15.070312 L 30.972656 13.226562 L 33.742188 12.078125 C 33.988281 11.972656 34.257812 11.972656 34.507812 12.078125 C 34.753906 12.179688 34.945312 12.371094 35.046875 12.617188 C 35.152344 12.863281 35.152344 13.136719 35.046875 13.382812 M 20.382812 26 L 14 26 L 14 24.582031 L 18.699219 22.636719 Z M 30.382812 32 L 24.859375 32 C 24.410156 30.28125 22.859375 29 21 29 C 19.140625 29 17.589844 30.28125 17.144531 32 L 14 32 L 14 28 L 28.382812 28 Z M 21 35 C 19.898438 35 19 34.101562 19 33 C 19 31.898438 19.898438 31 21 31 C 22.101562 31 23 31.898438 23 33 C 23 34.101562 22.101562 35 21 35 M 29.121094 13.988281 L 29.886719 15.835938 L 12.597656 23 L 12.289062 23 L 11.570312 21.261719 Z M 11.886719 16.800781 L 13.453125 16.152344 L 16.992188 16.851562 L 12.652344 18.648438 Z M 36.898438 11.851562 C 36.589844 11.113281 36.011719 10.535156 35.273438 10.230469 C 34.53125 9.921875 33.714844 9.921875 32.976562 10.230469 L 20.320312 15.472656 L 13.246094 14.070312 L 9.273438 15.71875 L 10.804688 19.414062 L 8.957031 20.179688 L 11.25 25.722656 L 12 25.410156 L 12 37 L 14 37 L 14 34 L 17.144531 34 C 17.589844 35.71875 19.140625 37 21 37 C 22.859375 37 24.410156 35.71875 24.859375 34 L 31.382812 34 L 32.882812 37 L 36 37 L 36 35 L 34.117188 35 L 29.617188 26 L 22.617188 26 L 20.554688 21.867188 L 35.273438 15.773438 C 36.011719 15.464844 36.589844 14.890625 36.898438 14.148438 C 37.203125 13.410156 37.203125 12.59375 36.898438 11.851562 "/>
</g>
</svg>
