<?xml version="1.0" encoding="UTF-8"?>
<svg xmlns="http://www.w3.org/2000/svg" xmlns:xlink="http://www.w3.org/1999/xlink" width="48pt" height="48pt" viewBox="0 0 48 48" version="1.1">
<g id="surface1">
<path style=" stroke:none;fill-rule:nonzero;fill:rgb(0%,0%,0%);fill-opacity:1;" d="M 17 24 C 16.65625 24 16.324219 24.035156 16 24.089844 L 16 23 L 21.550781 23 L 27.773438 30 L 23 30 C 23 26.691406 20.308594 24 17 24 M 17 34 C 14.792969 34 13 32.207031 13 30 C 13 27.792969 14.792969 26 17 26 C 19.203125 26 21 27.792969 21 30 C 21 32.207031 19.203125 34 17 34 M 12 16 L 21.382812 16 L 23.882812 21 L 15.332031 21 L 12 18.5 Z M 34.46875 12.558594 L 34.851562 13.484375 L 24.503906 17.769531 L 24.054688 16.875 Z M 40 32 L 40 30 L 30.449219 30 L 24.226562 23 L 27 23 L 27 21 L 26.117188 21 L 25.398438 19.5625 L 39.3125 13.800781 L 38.546875 11.953125 L 36.699219 12.71875 L 36.316406 11.792969 L 38.164062 11.027344 L 37.398438 9.183594 L 23.15625 15.082031 L 21.894531 12.554688 L 20.105469 13.445312 L 20.382812 14 L 10 14 L 10 19.5 L 14 22.5 L 14 24.8125 C 12.210938 25.851562 11 27.785156 11 30 C 11 30.074219 11.007812 30.144531 11.011719 30.214844 L 7 31.21875 L 7 36 L 9 36 L 9 32.78125 L 11.414062 32.175781 C 12.289062 34.410156 14.460938 36 17 36 C 19.605469 36 21.824219 34.328125 22.648438 32 L 36 32 L 36 34 L 34 34 L 34 36 L 40 36 L 40 34 L 38 34 L 38 32 Z M 40 32 "/>
</g>
</svg>
