<?xml version="1.0" encoding="UTF-8"?>
<svg xmlns="http://www.w3.org/2000/svg" xmlns:xlink="http://www.w3.org/1999/xlink" width="48pt" height="48pt" viewBox="0 0 48 48" version="1.1">
<g id="surface1">
<path style=" stroke:none;fill-rule:nonzero;fill:rgb(0%,0%,0%);fill-opacity:1;" d="M 37 15 L 36 15 L 36 13 L 37 13 C 37.550781 13 38 13.449219 38 14 C 38 14.550781 37.550781 15 37 15 M 34 15 L 14 15 L 14 13 L 34 13 Z M 26 20 L 23 20 L 23 17 L 26 17 Z M 12 15 L 10 15 L 10 13 L 12 13 Z M 37 11 L 8 11 L 8 17 L 21 17 L 21 22 L 27 22 C 28.101562 22 29 22.898438 29 24 L 29 29 L 21 29 L 21 31 L 29 31 L 29 33 L 17 33 L 17 35 L 36 35 L 36 33 L 31 33 L 31 24 C 31 22.140625 29.71875 20.589844 28 20.140625 L 28 17 L 34 17 L 34 22 L 36 22 L 36 17 L 37 17 C 38.652344 17 40 15.652344 40 14 C 40 12.347656 38.652344 11 37 11 "/>
</g>
</svg>
