<?xml version="1.0" encoding="UTF-8"?>
<svg xmlns="http://www.w3.org/2000/svg" xmlns:xlink="http://www.w3.org/1999/xlink" width="48pt" height="48pt" viewBox="0 0 48 48" version="1.1">
<g id="surface1">
<path style=" stroke:none;fill-rule:nonzero;fill:rgb(0%,0%,0%);fill-opacity:1;" d="M 38 26 L 31 26 L 31 22 L 37.496094 22 C 37.773438 22 38 22.226562 38 22.503906 Z M 33.5 35 C 32.671875 35 32 34.328125 32 33.5 C 32 32.671875 32.671875 32 33.5 32 C 34.328125 32 35 32.671875 35 33.5 C 35 34.328125 34.328125 35 33.5 35 M 10.023438 23.554688 L 25.027344 23.554688 L 25.027344 25.992188 L 10.011719 25.992188 Z M 15.027344 17.398438 L 17.703125 15.390625 L 21.066406 21.554688 L 15.027344 21.554688 Z M 14.5 32 C 15.328125 32 16 32.671875 16 33.5 C 16 34.328125 15.328125 35 14.5 35 C 13.671875 35 13 34.328125 13 33.5 C 13 32.671875 13.671875 32 14.5 32 M 21.5 32 C 22.328125 32 23 32.671875 23 33.5 C 23 34.328125 22.328125 35 21.5 35 C 20.671875 35 20 34.328125 20 33.5 C 20 32.671875 20.671875 32 21.5 32 M 40 32 L 40 22.503906 C 40 21.121094 38.878906 20 37.496094 20 L 29 20 L 29 26 L 27.027344 26 L 27.027344 21.554688 L 23.34375 21.554688 L 18.351562 12.402344 L 13.027344 16.398438 L 13.027344 21.554688 L 8.03125 21.554688 L 8.011719 26 L 8 26 L 8 36 L 10 36 L 10 34 L 11.050781 34 C 11.296875 35.691406 12.742188 37 14.5 37 C 16.257812 37 17.703125 35.691406 17.949219 34 L 18.050781 34 C 18.296875 35.691406 19.742188 37 21.5 37 C 23.429688 37 25 35.429688 25 33.5 C 25 31.570312 23.429688 30 21.5 30 C 20.109375 30 18.914062 30.820312 18.351562 32 L 17.648438 32 C 17.085938 30.820312 15.890625 30 14.5 30 C 13.109375 30 11.914062 30.820312 11.351562 32 L 10 32 L 10 28 L 38 28 L 38 32 L 36.648438 32 C 36.085938 30.820312 34.890625 30 33.5 30 C 32.109375 30 30.914062 30.820312 30.351562 32 L 27 32 L 27 34 L 30.050781 34 C 30.296875 35.691406 31.742188 37 33.5 37 C 35.257812 37 36.703125 35.691406 36.949219 34 L 41 34 L 41 32 Z M 40 32 "/>
</g>
</svg>
