<?xml version="1.0" encoding="UTF-8"?>
<svg xmlns="http://www.w3.org/2000/svg" xmlns:xlink="http://www.w3.org/1999/xlink" width="47.8247pt" height="47.8247pt" viewBox="0 0 47.8247 47.8247" version="1.1">
<g id="surface1">
<path style=" stroke:none;fill-rule:nonzero;fill:rgb(0%,0%,0%);fill-opacity:1;" d="M 34.515625 26.894531 L 31.515625 26.894531 L 31.515625 12.894531 L 34.515625 12.894531 Z M 29.515625 26.894531 L 26.515625 26.894531 L 26.515625 12.894531 L 29.515625 12.894531 Z M 24.515625 26.894531 L 21.515625 26.894531 L 21.515625 12.894531 L 24.515625 12.894531 Z M 21.515625 32.894531 C 20.6875 32.894531 20.015625 32.222656 20.015625 31.394531 C 20.015625 30.566406 20.6875 29.894531 21.515625 29.894531 C 22.34375 29.894531 23.015625 30.566406 23.015625 31.394531 C 23.015625 32.222656 22.34375 32.894531 21.515625 32.894531 M 16.515625 12.894531 L 19.515625 12.894531 L 19.515625 26.894531 L 16.515625 26.894531 Z M 14.515625 26.894531 L 11.515625 26.894531 L 11.515625 12.894531 L 14.515625 12.894531 Z M 13.015625 32.894531 C 12.1875 32.894531 11.515625 32.222656 11.515625 31.394531 C 11.515625 30.566406 12.1875 29.894531 13.015625 29.894531 C 13.84375 29.894531 14.515625 30.566406 14.515625 31.394531 C 14.515625 32.222656 13.84375 32.894531 13.015625 32.894531 M 5.265625 29.421875 L 5.265625 31.894531 L 7.265625 31.894531 L 7.265625 29.363281 C 7.265625 29.105469 7.476562 28.894531 7.738281 28.894531 L 10.574219 28.894531 C 9.769531 29.679688 9.335938 30.84375 9.585938 32.101562 C 9.847656 33.414062 10.886719 34.5 12.191406 34.800781 C 14.476562 35.324219 16.515625 33.59375 16.515625 31.394531 C 16.515625 30.414062 16.109375 29.53125 15.457031 28.894531 L 19.074219 28.894531 C 18.269531 29.679688 17.835938 30.84375 18.085938 32.101562 C 18.347656 33.414062 19.386719 34.5 20.691406 34.800781 C 22.976562 35.324219 25.015625 33.59375 25.015625 31.394531 C 25.015625 30.414062 24.609375 29.53125 23.957031 28.894531 L 29.519531 28.894531 L 29.519531 32.441406 L 28.53125 32.441406 L 28.53125 34.433594 L 29.519531 34.433594 L 29.519531 34.4375 L 31.519531 34.4375 L 31.519531 34.433594 L 32.511719 34.433594 L 32.511719 32.441406 L 31.519531 32.441406 L 31.519531 28.894531 L 34.519531 28.894531 L 34.519531 32.441406 L 33.527344 32.441406 L 33.527344 34.433594 L 34.519531 34.433594 L 34.519531 34.4375 L 36.519531 34.4375 L 36.519531 34.433594 L 37.507812 34.433594 L 37.507812 32.441406 L 36.519531 32.441406 L 36.519531 28.894531 L 39.515625 28.894531 L 39.515625 33.894531 L 41.515625 33.894531 L 41.515625 24.894531 L 44.359375 24.894531 L 44.359375 22.894531 L 39.515625 22.894531 L 39.515625 26.894531 L 36.515625 26.894531 L 36.515625 10.894531 L 9.515625 10.894531 L 9.515625 26.894531 L 7.796875 26.894531 C 6.398438 26.894531 5.265625 28.027344 5.265625 29.421875 "/>
</g>
</svg>
