<?xml version="1.0" encoding="UTF-8"?>
<svg xmlns="http://www.w3.org/2000/svg" xmlns:xlink="http://www.w3.org/1999/xlink" width="48pt" height="48pt" viewBox="0 0 48 48" version="1.1">
<g id="surface1">
<path style=" stroke:none;fill-rule:nonzero;fill:rgb(0%,0%,0%);fill-opacity:1;" d="M 32.785156 20.398438 L 31.1875 21.601562 C 29.464844 19.3125 26.847656 18 24 18 C 21.152344 18 18.535156 19.3125 16.8125 21.601562 L 15.214844 20.398438 C 17.316406 17.601562 20.519531 16 24 16 C 27.480469 16 30.683594 17.601562 32.785156 20.398438 M 38 34 L 30 34 L 30 29 L 33 29 L 33 27 L 15 27 L 15 29 L 18 29 L 18 34 L 10 34 L 10 27 C 10 19.28125 16.28125 13 24 13 C 31.71875 13 38 19.28125 38 27 Z M 28 34 L 20 34 L 20 29 L 28 29 Z M 24 11 C 15.179688 11 8 18.175781 8 27 L 8 36 L 40 36 L 40 27 C 40 18.175781 32.820312 11 24 11 "/>
</g>
</svg>
