<?xml version="1.0" encoding="UTF-8"?>
<svg xmlns="http://www.w3.org/2000/svg" xmlns:xlink="http://www.w3.org/1999/xlink" width="48pt" height="48pt" viewBox="0 0 48 48" version="1.1">
<g id="surface1">
<path style=" stroke:none;fill-rule:nonzero;fill:rgb(0%,0%,0%);fill-opacity:1;" d="M 38 34 L 34 34 L 34 25 L 30 25 L 30 21 L 18 21 L 18 25 L 14 25 L 14 34 L 10 34 L 10 27 C 10 19.28125 16.28125 13 24 13 C 31.71875 13 38 19.28125 38 27 Z M 32 34 L 25 34 L 25 23 L 28 23 L 28 27 L 32 27 Z M 23 34 L 16 34 L 16 27 L 20 27 L 20 23 L 23 23 Z M 24 11 C 15.179688 11 8 18.179688 8 27 L 8 36 L 40 36 L 40 27 C 40 18.179688 32.820312 11 24 11 "/>
</g>
</svg>
