<?xml version="1.0" encoding="UTF-8"?>
<svg xmlns="http://www.w3.org/2000/svg" xmlns:xlink="http://www.w3.org/1999/xlink" width="48pt" height="48pt" viewBox="0 0 48 48" version="1.1">
<g id="surface1">
<path style=" stroke:none;fill-rule:nonzero;fill:rgb(0%,0%,0%);fill-opacity:1;" d="M 38 34 L 36 34 L 36 27 L 38 27 Z M 34 25 L 34 34 L 14 34 L 14 25 L 12.050781 25 C 12.5625 18.851562 17.71875 14 24 14 C 30.28125 14 35.4375 18.851562 35.949219 25 Z M 12 34 L 10 34 L 10 27 L 12 27 Z M 37.949219 25 C 37.433594 17.746094 31.382812 12 24 12 C 16.617188 12 10.566406 17.746094 10.050781 25 L 7 25 L 7 27 L 8 27 L 8 36 L 40 36 L 40 27 L 41 27 L 41 25 Z M 37.949219 25 "/>
</g>
</svg>
