<?xml version="1.0" encoding="UTF-8"?>
<svg xmlns="http://www.w3.org/2000/svg" xmlns:xlink="http://www.w3.org/1999/xlink" width="48pt" height="48pt" viewBox="0 0 48 48" version="1.1">
<g id="surface1">
<path style=" stroke:none;fill-rule:nonzero;fill:rgb(0%,0%,0%);fill-opacity:1;" d="M 38 19 L 25 19 L 25 13.21875 L 38 15.820312 Z M 38 34 L 33 34 L 33 27 L 35 27 L 35 25 L 13 25 L 13 27 L 15 27 L 15 34 L 10 34 L 10 21 L 38 21 Z M 31 34 L 17 34 L 17 27 L 31 27 Z M 10 15.820312 L 23 13.21875 L 23 19 L 10 19 Z M 24 10.980469 L 8 14.179688 L 8 36 L 40 36 L 40 14.179688 Z M 24 10.980469 "/>
</g>
</svg>
