<?xml version="1.0" encoding="UTF-8"?>
<svg xmlns="http://www.w3.org/2000/svg" xmlns:xlink="http://www.w3.org/1999/xlink" width="48pt" height="48pt" viewBox="0 0 48 48" version="1.1">
<g id="surface1">
<path style=" stroke:none;fill-rule:nonzero;fill:rgb(0%,0%,0%);fill-opacity:1;" d="M 36 21 L 12 21 L 12 19 L 36 19 Z M 38 34 L 30 34 L 30 27 L 32 27 L 32 25 L 16 25 L 16 27 L 18 27 L 18 34 L 10 34 L 10 14 L 38 14 Z M 28 34 L 20 34 L 20 27 L 28 27 Z M 25 12 L 25 9.5 L 28 8.1875 L 23 6 L 23 12 L 8 12 L 8 36 L 40 36 L 40 12 Z M 25 12 "/>
</g>
</svg>
