<?xml version="1.0" encoding="UTF-8"?>
<svg xmlns="http://www.w3.org/2000/svg" xmlns:xlink="http://www.w3.org/1999/xlink" width="48pt" height="48pt" viewBox="0 0 48 48" version="1.1">
<g id="surface1">
<path style=" stroke:none;fill-rule:nonzero;fill:rgb(0%,0%,0%);fill-opacity:1;" d="M 38 12 L 10 12 L 10 34 L 18 34 L 18 28 L 16 28 L 16 26 L 32 26 L 32 28 L 30 28 L 30 34 L 38 34 Z M 28 28 L 20 28 L 20 34 L 28 34 Z M 40 10 L 40 36 L 8 36 L 8 10 Z M 36 21 L 12 21 L 12 23 L 36 23 Z M 36 18 L 12 18 L 12 16 L 36 16 Z M 36 18 "/>
</g>
</svg>
