<?xml version="1.0" encoding="UTF-8"?>
<svg xmlns="http://www.w3.org/2000/svg" xmlns:xlink="http://www.w3.org/1999/xlink" width="48pt" height="48pt" viewBox="0 0 48 48" version="1.1">
<g id="surface1">
<path style=" stroke:none;fill-rule:nonzero;fill:rgb(0%,0%,0%);fill-opacity:1;" d="M 23 20 L 25 20 L 25 18 L 27 18 L 27 16 L 25 16 L 25 14 L 23 14 L 23 16 L 21 16 L 21 18 L 23 18 Z M 23 20 "/>
<path style=" stroke:none;fill-rule:nonzero;fill:rgb(0%,0%,0%);fill-opacity:1;" d="M 39 34 L 35 34 L 35 13.996094 L 37.996094 13.996094 C 38.550781 13.996094 39 14.445312 39 15 Z M 33 34 L 29 34 L 29 25 L 19 25 L 19 34 L 15 34 L 15 12 L 33 12 Z M 27 34 L 21 34 L 21 27 L 27 27 Z M 13 34 L 9 34 L 9 15 C 9 14.445312 9.449219 13.996094 10.003906 13.996094 L 13 13.996094 Z M 37.996094 11.996094 L 35 11.996094 L 35 10 L 13 10 L 13 11.996094 L 10.003906 11.996094 C 8.347656 11.996094 7 13.34375 7 15 L 7 36 L 41 36 L 41 15 C 41 13.34375 39.652344 11.996094 37.996094 11.996094 "/>
</g>
</svg>
