<?xml version="1.0" encoding="UTF-8"?>
<svg xmlns="http://www.w3.org/2000/svg" xmlns:xlink="http://www.w3.org/1999/xlink" width="48pt" height="48pt" viewBox="0 0 48 48" version="1.1">
<g id="surface1">
<path style=" stroke:none;fill-rule:nonzero;fill:rgb(0%,0%,0%);fill-opacity:1;" d="M 23 14 L 25 14 L 25 16 L 23 16 Z M 33 33 L 30 33 L 30 20 L 33 20 Z M 15 20 L 18 20 L 18 33 L 15 33 Z M 25 20 L 28 20 L 28 33 L 25 33 Z M 23 33 L 20 33 L 20 20 L 23 20 Z M 11 16.703125 L 24 12.0625 L 37 16.703125 L 37 18 L 11 18 Z M 39 20 L 39 15.296875 L 24 9.9375 L 9 15.296875 L 9 20 L 13 20 L 13 33 L 9 33 L 9 35 L 39 35 L 39 33 L 35 33 L 35 20 Z M 39 20 "/>
</g>
</svg>
