<?xml version="1.0" encoding="UTF-8"?>
<svg xmlns="http://www.w3.org/2000/svg" xmlns:xlink="http://www.w3.org/1999/xlink" width="48pt" height="48pt" viewBox="0 0 48 48" version="1.1">
<g id="surface1">
<path style=" stroke:none;fill-rule:nonzero;fill:rgb(0%,0%,0%);fill-opacity:1;" d="M 40 27.5 L 40 28.5 L 38.972656 28.5 L 38.28125 31 L 36.71875 31 L 35.96875 28.089844 L 35.269531 31 L 33.71875 31 L 33.027344 28.5 L 32 28.5 L 32 27.5 L 32.753906 27.5 L 32.058594 25 L 33.78125 25 L 34.488281 28 L 35.179688 25 L 36.71875 25 L 37.488281 28 L 38.230469 25 L 39.941406 25 L 39.25 27.5 Z M 23 14 L 25 14 L 25 16 L 23 16 Z M 15 20 L 18 20 L 18 33 L 15 33 Z M 11 16.703125 L 24 12.0625 L 37 16.703125 L 37 18 L 11 18 Z M 23 33 L 20 33 L 20 20 L 23 20 Z M 28 33 L 25 33 L 25 20 L 28 20 Z M 30 20 L 33 20 L 33 23 L 35 23 L 35 20 L 39 20 L 39 15.296875 L 24 9.9375 L 9 15.296875 L 9 20 L 13 20 L 13 33 L 9 33 L 9 35 L 39 35 L 39 33 L 30 33 Z M 30 20 "/>
</g>
</svg>
