<?xml version="1.0" encoding="UTF-8"?>
<svg xmlns="http://www.w3.org/2000/svg" xmlns:xlink="http://www.w3.org/1999/xlink" width="48pt" height="48pt" viewBox="0 0 48 48" version="1.1">
<g id="surface1">
<path style=" stroke:none;fill-rule:nonzero;fill:rgb(0%,0%,0%);fill-opacity:1;" d="M 20.722656 34 L 29.277344 34 L 26.308594 28.808594 C 25.34375 29.257812 24.304688 29.53125 23.234375 29.605469 Z M 18.320312 26.261719 C 19.554688 27.195312 21.050781 27.695312 22.605469 27.640625 C 22.722656 27.640625 22.824219 27.640625 22.917969 27.632812 C 24.199219 27.570312 25.402344 27.164062 26.433594 26.457031 C 26.804688 26.199219 27.144531 25.921875 27.464844 25.601562 C 28.789062 24.28125 29.515625 22.523438 29.515625 20.65625 C 29.515625 19.121094 29.027344 17.664062 28.121094 16.464844 Z M 37 34 L 37 36 L 13 36 L 13 34 L 18.421875 34 L 20.980469 29.515625 C 19.171875 29.21875 17.492188 28.363281 16.152344 27.015625 L 15.449219 26.308594 L 21.097656 20.65625 L 18.980469 18.535156 L 20.394531 17.121094 L 22.515625 19.242188 L 28.167969 13.585938 L 28.875 14.292969 C 30.578125 15.988281 31.515625 18.25 31.515625 20.65625 C 31.515625 23.0625 30.578125 25.320312 28.875 27.019531 C 28.605469 27.285156 28.316406 27.53125 28.015625 27.765625 L 31.582031 34 Z M 19.5 9.925781 L 18.734375 8.074219 C 14.785156 9.710938 11.710938 12.785156 10.074219 16.734375 L 11.925781 17.5 C 13.355469 14.046875 16.046875 11.355469 19.5 9.925781 M 20.265625 11.769531 L 21.03125 13.617188 C 18.5625 14.640625 16.640625 16.5625 15.617188 19.03125 L 13.769531 18.265625 C 15 15.304688 17.304688 12.996094 20.265625 11.769531 "/>
</g>
</svg>
