<?xml version="1.0" encoding="UTF-8"?>
<svg xmlns="http://www.w3.org/2000/svg" xmlns:xlink="http://www.w3.org/1999/xlink" width="48pt" height="48pt" viewBox="0 0 48 48" version="1.1">
<g id="surface1">
<path style=" stroke:none;fill-rule:nonzero;fill:rgb(0%,0%,0%);fill-opacity:1;" d="M 30.21875 26 L 17.761719 26 L 17.28125 24 L 30.71875 24 Z M 30.007812 36 L 18 36 L 18 28 L 30.027344 28 Z M 24 11 C 27.269531 11 29.933594 13.640625 29.933594 16.882812 C 29.933594 19.015625 28.78125 20.957031 26.917969 22 L 21.085938 22 C 19.21875 20.957031 18.066406 19.015625 18.066406 16.882812 C 18.066406 13.640625 20.726562 11 24 11 M 32 36 L 32 27.121094 L 33.28125 22 L 30.019531 22 C 31.230469 20.601562 31.933594 18.804688 31.933594 16.882812 C 31.933594 12.535156 28.375 9 24 9 C 19.625 9 16.066406 12.535156 16.066406 16.882812 C 16.066406 18.804688 16.769531 20.601562 17.976562 22 L 14.71875 22 L 16 27.121094 L 16 36 L 14 36 L 14 38 L 34 38 L 34 36 Z M 32 36 "/>
</g>
</svg>
