<?xml version="1.0" encoding="UTF-8"?>
<svg xmlns="http://www.w3.org/2000/svg" xmlns:xlink="http://www.w3.org/1999/xlink" width="48pt" height="48pt" viewBox="0 0 48 48" version="1.1">
<g id="surface1">
<path style=" stroke:none;fill-rule:nonzero;fill:rgb(0%,0%,0%);fill-opacity:1;" d="M 25 31 L 23 31 L 23 33 L 25 33 Z M 30.054688 15 L 30.65625 13 L 17.34375 13 L 18 15.222656 L 18 15 Z M 29.457031 17 L 18.523438 17 L 19.703125 21 L 28.257812 21 Z M 28.039062 23 L 20 23 L 20 36 L 28 36 Z M 30 36 L 33 36 L 33 38 L 15 38 L 15 36 L 18 36 L 18 22.144531 L 14.65625 11 L 23 11 L 23 9 L 25 9 L 25 11 L 33.34375 11 L 30 22.144531 Z M 25 28 L 23 28 L 23 26 L 25 26 Z M 25 28 "/>
</g>
</svg>
