<?xml version="1.0" encoding="UTF-8"?>
<svg xmlns="http://www.w3.org/2000/svg" xmlns:xlink="http://www.w3.org/1999/xlink" width="48pt" height="48pt" viewBox="0 0 48 48" version="1.1">
<g id="surface1">
<path style=" stroke:none;fill-rule:nonzero;fill:rgb(0%,0%,0%);fill-opacity:1;" d="M 31 15 L 31 13.691406 L 24 11.066406 L 17 13.691406 L 17 15 Z M 29 17 L 19 17 L 19 21 L 29 21 Z M 29 23 L 19 23 L 19 36 L 29 36 Z M 31 17 L 31 21 L 33 21 L 33 23 L 31 23 L 31 36 L 33 36 L 33 38 L 15 38 L 15 36 L 17 36 L 17 23 L 15 23 L 15 21 L 17 21 L 17 17 L 15 17 L 15 12.308594 L 24 8.933594 L 33 12.308594 L 33 17 Z M 25 31 L 23 31 L 23 33 L 25 33 Z M 25 28 L 23 28 L 23 26 L 25 26 Z M 25 28 "/>
</g>
</svg>
