<?xml version="1.0" encoding="UTF-8"?>
<svg xmlns="http://www.w3.org/2000/svg" xmlns:xlink="http://www.w3.org/1999/xlink" width="48pt" height="48pt" viewBox="0 0 48 48" version="1.1">
<g id="surface1">
<path style=" stroke:none;fill-rule:nonzero;fill:rgb(0%,0%,0%);fill-opacity:1;" d="M 29 25.5 L 29 32 L 26 32 L 26 25.5 C 26 24.671875 26.671875 24 27.5 24 C 28.328125 24 29 24.671875 29 25.5 M 26.5 22 C 26.5 21.445312 26.945312 21 27.5 21 C 28.054688 21 28.5 21.445312 28.5 22 C 28.5 22.554688 28.054688 23 27.5 23 C 26.945312 23 26.5 22.554688 26.5 22 M 22 25.5 L 22 32 L 19 32 L 19 25.5 C 19 24.671875 19.671875 24 20.5 24 C 21.328125 24 22 24.671875 22 25.5 M 19.5 22 C 19.5 21.445312 19.945312 21 20.5 21 C 21.054688 21 21.5 21.445312 21.5 22 C 21.5 22.554688 21.054688 23 20.5 23 C 19.945312 23 19.5 22.554688 19.5 22 M 29 12 L 26 9 L 32 9 Z M 22 12 L 16 12 L 19 9 Z M 33 36 L 15 36 L 15 18 C 15 17.449219 15.449219 17 16 17 L 32 17 C 32.550781 17 33 17.449219 33 18 Z M 32 15 L 16 15 C 14.347656 15 13 16.347656 13 18 L 13 38 L 35 38 L 35 18 C 35 16.347656 33.652344 15 32 15 "/>
</g>
</svg>
