<?xml version="1.0" encoding="UTF-8"?>
<svg xmlns="http://www.w3.org/2000/svg" xmlns:xlink="http://www.w3.org/1999/xlink" width="48pt" height="48pt" viewBox="0 0 48 48" version="1.1">
<g id="surface1">
<path style=" stroke:none;fill-rule:nonzero;fill:rgb(0%,0%,0%);fill-opacity:1;" d="M 29 12 L 26 9 L 32 9 Z M 22 12 L 16 12 L 19 9 Z M 33 36 L 25 36 L 25 17 L 32 17 C 32.550781 17 33 17.449219 33 18 Z M 15 18 C 15 17.449219 15.449219 17 16 17 L 23 17 L 23 36 L 15 36 Z M 32 15 L 16 15 C 14.347656 15 13 16.347656 13 18 L 13 38 L 35 38 L 35 18 C 35 16.347656 33.652344 15 32 15 "/>
</g>
</svg>
