<?xml version="1.0" encoding="UTF-8"?>
<svg xmlns="http://www.w3.org/2000/svg" xmlns:xlink="http://www.w3.org/1999/xlink" width="48pt" height="48pt" viewBox="0 0 48 48" version="1.1">
<g id="surface1">
<path style=" stroke:none;fill-rule:nonzero;fill:rgb(0%,0%,0%);fill-opacity:1;" d="M 38 29 L 36 29 L 36 34 L 38 34 Z M 38 35 L 36 35 L 36 37 L 38 37 Z M 25 36 L 30.683594 36 C 30.25 35.089844 30 34.074219 30 33 C 30 30.621094 31.1875 28.523438 33 27.261719 L 33 18 C 33 17.449219 32.550781 17 32 17 L 25 17 Z M 23 17 L 16 17 C 15.449219 17 15 17.449219 15 18 L 15 36 L 23 36 Z M 44 33 C 44 36.867188 40.867188 40 37 40 C 35.09375 40 33.367188 39.234375 32.105469 38 L 13 38 L 13 18 C 13 16.347656 14.347656 15 16 15 L 32 15 C 33.652344 15 35 16.347656 35 18 L 35 26.292969 C 35.632812 26.105469 36.304688 26 37 26 C 40.867188 26 44 29.132812 44 33 M 32 9 L 26 9 L 29 12 Z M 22 12 L 16 12 L 19 9 Z M 22 12 "/>
</g>
</svg>
