<?xml version="1.0" encoding="UTF-8"?>
<svg xmlns="http://www.w3.org/2000/svg" xmlns:xlink="http://www.w3.org/1999/xlink" width="48pt" height="48pt" viewBox="0 0 48 48" version="1.1">
<g id="surface1">
<path style=" stroke:none;fill-rule:nonzero;fill:rgb(0%,0%,0%);fill-opacity:1;" d="M 28.640625 35.835938 L 27.226562 34.417969 L 29.347656 32.296875 L 30.765625 33.710938 Z M 23.691406 26.640625 L 27.933594 30.882812 L 26.167969 32.652344 Z M 13 12.5 C 13 12.097656 13.15625 11.722656 13.441406 11.441406 C 13.722656 11.15625 14.101562 11 14.5 11 C 14.898438 11 15.277344 11.15625 15.558594 11.441406 L 16.621094 12.5 L 14.5 14.621094 L 13.4375 13.558594 C 13.15625 13.277344 13 12.902344 13 12.5 M 34.652344 24.167969 L 32.886719 25.933594 L 28.640625 21.691406 Z M 18.035156 18.15625 L 15.914062 16.035156 L 18.035156 13.914062 L 20.15625 16.035156 Z M 32.179688 32.296875 L 19.449219 19.570312 L 21.570312 17.449219 L 34.300781 30.175781 Z M 35.714844 28.761719 L 34.300781 27.347656 L 36.421875 25.226562 L 37.835938 26.640625 Z M 40.664062 26.640625 L 36.984375 22.964844 L 24.964844 18.015625 L 16.976562 10.027344 C 15.652344 8.703125 13.347656 8.703125 12.023438 10.023438 C 11.363281 10.6875 11 11.566406 11 12.5 C 11 13.433594 11.363281 14.3125 12.023438 14.972656 L 20.015625 22.964844 L 24.964844 34.988281 L 28.640625 38.664062 L 32.179688 35.125 L 32.179688 35.128906 L 37.128906 30.175781 Z M 40.664062 26.640625 "/>
</g>
</svg>
