<?xml version="1.0" encoding="UTF-8"?>
<svg xmlns="http://www.w3.org/2000/svg" xmlns:xlink="http://www.w3.org/1999/xlink" width="48pt" height="48pt" viewBox="0 0 48 48" version="1.1">
<g id="surface1">
<path style=" stroke:none;fill-rule:nonzero;fill:rgb(0%,0%,0%);fill-opacity:1;" d="M 32.175781 32.300781 L 27.226562 27.347656 L 29.347656 25.226562 L 34.300781 30.175781 Z M 19.09375 24.875 L 17.683594 23.460938 L 18.035156 20.984375 L 21.570312 24.519531 Z M 13 12.5 C 13 12.097656 13.15625 11.722656 13.441406 11.4375 C 13.722656 11.15625 14.101562 11 14.5 11 C 14.902344 11 15.277344 11.15625 15.558594 11.4375 L 27.933594 23.8125 L 25.8125 25.933594 L 13.441406 13.558594 C 13.15625 13.277344 13 12.898438 13 12.5 M 25.460938 15.679688 L 26.875 17.097656 L 26.519531 19.570312 L 22.984375 16.035156 Z M 36.066406 23.460938 L 31.117188 24.167969 L 28.289062 21.339844 L 28.996094 16.390625 L 26.167969 13.558594 L 21.21875 14.269531 L 16.976562 10.023438 C 15.652344 8.703125 13.347656 8.703125 12.027344 10.023438 C 11.363281 10.6875 11 11.566406 11 12.5 C 11 13.433594 11.363281 14.3125 12.027344 14.972656 L 16.269531 19.21875 L 15.5625 24.167969 L 18.390625 26.996094 L 23.339844 26.289062 L 26.167969 29.117188 L 25.460938 34.066406 L 29.347656 37.957031 L 32.175781 35.128906 L 30.765625 33.714844 L 29.347656 35.128906 L 27.582031 33.359375 L 27.933594 30.882812 L 32.175781 35.128906 L 37.128906 30.175781 L 32.882812 25.933594 L 35.359375 25.582031 L 37.128906 27.347656 L 35.714844 28.761719 L 37.128906 30.175781 L 39.957031 27.347656 Z M 36.066406 23.460938 "/>
</g>
</svg>
