<?xml version="1.0" encoding="UTF-8"?>
<svg xmlns="http://www.w3.org/2000/svg" xmlns:xlink="http://www.w3.org/1999/xlink" width="48pt" height="48pt" viewBox="0 0 48 48" version="1.1">
<g id="surface1">
<path style=" stroke:none;fill-rule:nonzero;fill:rgb(0%,0%,0%);fill-opacity:1;" d="M 36.007812 29.65625 L 34.59375 28.242188 L 37.066406 27.886719 L 37.421875 28.242188 Z M 33.179688 32.484375 L 13.378906 12.683594 L 14.195312 11.054688 L 14.574219 11.054688 L 34.59375 31.070312 Z M 30.351562 35.3125 L 29.996094 34.960938 L 30.351562 32.484375 L 31.765625 33.898438 Z M 18.261719 33.125 L 18.160156 33.023438 L 22.789062 24.925781 L 24.046875 26.179688 Z M 35.132812 16.054688 L 35.234375 16.152344 L 28.289062 21.9375 L 27.03125 20.679688 Z M 37.773438 25.765625 L 32.824219 26.472656 L 29.710938 23.359375 L 38.195312 16.289062 L 35.46875 13.558594 L 25.566406 19.214844 L 15.40625 9.054688 L 12.957031 9.054688 L 10.945312 13.082031 L 21.324219 23.457031 L 15.667969 33.359375 L 18.398438 36.085938 L 25.46875 27.601562 L 28.582031 30.714844 L 27.875 35.667969 L 30.351562 38.140625 L 40.25 28.242188 Z M 37.773438 25.765625 "/>
</g>
</svg>
