<?xml version="1.0" encoding="UTF-8"?>
<svg xmlns="http://www.w3.org/2000/svg" xmlns:xlink="http://www.w3.org/1999/xlink" width="48pt" height="48pt" viewBox="0 0 48 48" version="1.1">
<g id="surface1">
<path style=" stroke:none;fill-rule:nonzero;fill:rgb(0%,0%,0%);fill-opacity:1;" d="M 15.582031 11.460938 L 34.320312 30.199219 L 32.199219 32.320312 L 13.460938 13.582031 C 12.875 12.996094 12.875 12.046875 13.460938 11.460938 C 14.046875 10.875 14.996094 10.875 15.582031 11.460938 M 26.84375 16.316406 L 29.171875 15.152344 L 29.371094 15.347656 L 25.835938 18.886719 L 23.714844 16.761719 Z M 35.320312 25.542969 L 37.148438 27.371094 L 35.734375 28.785156 L 32.492188 25.542969 Z M 29.371094 35.148438 L 27.542969 33.320312 L 27.542969 30.492188 L 30.785156 33.734375 Z M 17.351562 27.371094 L 17.152344 27.171875 L 18.316406 24.84375 L 18.765625 21.714844 L 20.886719 23.835938 Z M 12.046875 14.996094 L 16.996094 19.945312 L 16.382812 24.238281 L 14.71875 27.566406 L 17.351562 30.199219 L 22.300781 25.25 L 25.542969 28.492188 L 25.542969 34.148438 L 29.371094 37.976562 L 39.976562 27.371094 L 36.148438 23.542969 L 30.492188 23.542969 L 27.25 20.300781 L 32.199219 15.347656 L 29.566406 12.71875 L 26.238281 14.382812 L 21.945312 14.996094 L 16.996094 10.046875 C 15.632812 8.679688 13.410156 8.679688 12.046875 10.046875 C 10.683594 11.410156 10.683594 13.632812 12.046875 14.996094 "/>
</g>
</svg>
