<?xml version="1.0" encoding="UTF-8"?>
<svg xmlns="http://www.w3.org/2000/svg" xmlns:xlink="http://www.w3.org/1999/xlink" width="48pt" height="48pt" viewBox="0 0 48 48" version="1.1">
<g id="surface1">
<path style=" stroke:none;fill-rule:nonzero;fill:rgb(0%,0%,0%);fill-opacity:1;" d="M 15.582031 11.460938 L 17.351562 13.226562 L 15.226562 15.347656 L 13.460938 13.582031 C 12.875 12.996094 12.875 12.046875 13.460938 11.460938 C 14.046875 10.875 14.996094 10.875 15.582031 11.460938 M 29.585938 19.804688 L 30.785156 21.007812 L 29.371094 22.421875 L 26.050781 19.097656 Z M 36.734375 26.957031 L 37.148438 27.371094 L 35.734375 28.785156 L 33.90625 26.957031 Z M 29.371094 35.148438 L 28.957031 34.734375 L 28.957031 31.90625 L 30.785156 33.734375 Z M 23.007812 28.785156 L 21.808594 27.585938 L 21.101562 24.046875 L 24.421875 27.371094 Z M 19.472656 19.59375 L 16.644531 16.761719 L 18.765625 14.640625 L 21.59375 17.46875 Z M 31.492188 27.371094 L 34.320312 30.199219 L 32.199219 32.320312 L 29.371094 29.492188 Z M 27.957031 28.078125 L 20.886719 21.007812 L 23.007812 18.886719 L 30.078125 25.957031 Z M 12.046875 14.996094 L 18.550781 21.5 L 19.964844 28.570312 L 23.007812 31.613281 L 25.835938 28.785156 L 26.957031 29.90625 L 26.957031 35.5625 L 29.371094 37.976562 L 39.976562 27.371094 L 37.5625 24.957031 L 31.90625 24.957031 L 30.785156 23.835938 L 33.613281 21.007812 L 30.570312 17.964844 L 23.5 16.550781 L 16.996094 10.046875 C 15.632812 8.679688 13.410156 8.679688 12.046875 10.046875 C 10.683594 11.410156 10.683594 13.632812 12.046875 14.996094 "/>
</g>
</svg>
