<?xml version="1.0" encoding="UTF-8"?>
<svg xmlns="http://www.w3.org/2000/svg" xmlns:xlink="http://www.w3.org/1999/xlink" width="48pt" height="48pt" viewBox="0 0 48 48" version="1.1">
<g id="surface1">
<path style=" stroke:none;fill-rule:nonzero;fill:rgb(0%,0%,0%);fill-opacity:1;" d="M 14.707031 11.292969 L 26.019531 22.605469 L 24.605469 24.019531 L 13.292969 12.707031 C 12.902344 12.316406 12.902344 11.679688 13.292969 11.292969 C 13.683594 10.902344 14.316406 10.902344 14.707031 11.292969 M 27.136719 13.824219 L 28.140625 14.828125 L 24.605469 18.363281 L 21.582031 15.339844 Z M 16.828125 26.140625 L 15.824219 25.136719 L 17.339844 19.582031 L 20.363281 22.605469 Z M 27.632812 23.820312 L 29.671875 24.839844 L 29.554688 24.726562 L 26.726562 27.554688 L 26.839844 27.667969 L 25.820312 25.632812 Z M 30.96875 26.140625 L 34.503906 29.675781 L 31.675781 32.503906 L 28.140625 28.96875 Z M 35.765625 25.277344 L 37.332031 26.847656 L 35.917969 28.261719 L 33.996094 26.339844 Z M 28.847656 35.332031 L 27.277344 33.765625 L 28.339844 31.996094 L 30.261719 33.917969 Z M 11.878906 14.121094 L 15.710938 17.953125 L 13.589844 25.730469 L 16.828125 28.96875 L 21.777344 24.019531 L 23.78125 26.027344 L 25.195312 28.855469 L 26.882812 30.539062 L 24.761719 34.074219 L 28.847656 38.160156 L 40.160156 26.847656 L 36.074219 22.757812 L 32.539062 24.882812 L 30.855469 23.199219 L 28.027344 21.785156 L 26.019531 19.777344 L 30.96875 14.828125 L 27.730469 11.589844 L 19.953125 13.710938 L 16.121094 9.878906 C 14.949219 8.707031 13.046875 8.707031 11.878906 9.878906 C 10.707031 11.046875 10.707031 12.949219 11.878906 14.121094 "/>
</g>
</svg>
