<?xml version="1.0" encoding="UTF-8"?>
<svg xmlns="http://www.w3.org/2000/svg" xmlns:xlink="http://www.w3.org/1999/xlink" width="48pt" height="48pt" viewBox="0 0 48 48" version="1.1">
<g id="surface1">
<path style=" stroke:none;fill-rule:nonzero;fill:rgb(0%,0%,0%);fill-opacity:1;" d="M 18.34375 14.929688 L 19.757812 16.34375 L 18.34375 17.757812 L 16.929688 16.34375 C 16.539062 15.953125 16.539062 15.320312 16.929688 14.929688 C 17.320312 14.539062 17.953125 14.539062 18.34375 14.929688 M 36.4375 27.84375 L 36.4375 29.363281 L 36.019531 29.777344 L 33.792969 27.550781 Z M 31.363281 34.433594 L 29.84375 34.433594 L 29.550781 31.792969 L 31.777344 34.019531 Z M 31.070312 27.65625 L 34.605469 31.191406 L 33.191406 32.605469 L 29.65625 29.070312 Z M 28.242188 27.65625 L 19.757812 19.171875 L 21.171875 17.757812 L 29.65625 26.242188 Z M 12.6875 12.101562 L 11.980469 14.222656 L 12.6875 14.929688 L 14.101562 13.515625 L 14.9375 14.351562 C 14.410156 15.464844 14.59375 16.835938 15.515625 17.757812 L 27.289062 29.53125 L 28.054688 36.433594 L 32.191406 36.433594 L 36.726562 31.898438 L 37.4375 31.191406 L 38.433594 30.191406 L 38.433594 26.054688 L 31.53125 25.289062 L 19.757812 13.515625 C 18.835938 12.59375 17.464844 12.410156 16.351562 12.9375 L 15.515625 12.101562 L 16.929688 10.6875 L 16.222656 9.980469 L 14.101562 10.6875 L 11.980469 8.566406 L 10.566406 9.980469 Z M 12.6875 12.101562 "/>
</g>
</svg>
