<?xml version="1.0" encoding="UTF-8"?>
<svg xmlns="http://www.w3.org/2000/svg" xmlns:xlink="http://www.w3.org/1999/xlink" width="48pt" height="48pt" viewBox="0 0 48 48" version="1.1">
<g id="surface1">
<path style=" stroke:none;fill-rule:nonzero;fill:rgb(0%,0%,0%);fill-opacity:1;" d="M 13.667969 11.039062 L 17.519531 12.691406 L 18.800781 13.96875 L 15.96875 16.796875 L 14.691406 15.519531 L 13.039062 11.667969 C 12.964844 11.488281 13.003906 11.28125 13.140625 11.140625 C 13.28125 11.003906 13.484375 10.964844 13.667969 11.039062 M 36.828125 26.34375 L 37.890625 27.40625 L 35.964844 29.332031 L 35.199219 27.539062 L 34.355469 26.699219 Z M 34.535156 33.164062 L 30.683594 31.511719 L 27.992188 28.820312 L 30.820312 25.992188 L 33.511719 28.683594 L 35.164062 32.535156 C 35.238281 32.71875 35.199219 32.921875 35.0625 33.0625 C 34.921875 33.199219 34.71875 33.238281 34.535156 33.164062 M 29.40625 35.890625 L 28.34375 34.828125 L 28.699219 32.355469 L 29.539062 33.199219 L 31.332031 33.964844 Z M 23.039062 18.214844 L 29.40625 24.578125 L 26.578125 27.40625 L 20.214844 21.039062 Z M 18.800781 19.628906 L 17.386719 18.214844 L 20.214844 15.382812 L 21.628906 16.796875 Z M 11.203125 12.453125 L 13.007812 16.664062 L 26.929688 30.585938 L 26.222656 35.535156 L 29.40625 38.71875 L 33.3125 34.8125 L 33.75 35 C 34.6875 35.402344 35.757812 35.195312 36.476562 34.476562 C 37.195312 33.757812 37.402344 32.683594 37.003906 31.75 L 36.8125 31.308594 L 40.71875 27.40625 L 37.535156 24.222656 L 32.585938 24.929688 L 18.660156 11.007812 L 14.453125 9.203125 C 13.519531 8.800781 12.445312 9.007812 11.726562 9.726562 C 11.007812 10.449219 10.800781 11.519531 11.203125 12.453125 "/>
</g>
</svg>
