<?xml version="1.0" encoding="UTF-8"?>
<svg xmlns="http://www.w3.org/2000/svg" xmlns:xlink="http://www.w3.org/1999/xlink" width="48pt" height="48pt" viewBox="0 0 48 48" version="1.1">
<g id="surface1">
<path style=" stroke:none;fill-rule:nonzero;fill:rgb(0%,0%,0%);fill-opacity:1;" d="M 26.96875 23.554688 L 33.335938 29.921875 L 31.921875 31.335938 L 25.554688 24.972656 Z M 15.65625 10.828125 L 12.828125 13.65625 C 12.046875 12.878906 12.046875 11.609375 12.828125 10.828125 C 13.609375 10.050781 14.878906 10.050781 15.65625 10.828125 M 17.070312 12.242188 L 21.3125 16.484375 L 18.484375 19.3125 L 14.242188 15.070312 Z M 22.726562 17.898438 L 34.457031 29.628906 L 34.453125 32.457031 L 31.628906 32.457031 L 19.898438 20.726562 Z M 35.796875 23.894531 L 37.578125 25.679688 L 35.457031 27.800781 L 31.976562 24.320312 Z M 27.675781 35.578125 L 25.894531 33.796875 L 26.320312 29.976562 L 29.796875 33.457031 Z M 10.808594 10.222656 C 9.90625 11.753906 10.101562 13.757812 11.414062 15.070312 L 18.484375 22.140625 L 24.507812 28.167969 L 23.800781 34.53125 L 27.675781 38.40625 L 31.628906 34.457031 L 34.53125 34.457031 C 35.625 34.457031 36.457031 33.628906 36.457031 32.527344 L 36.457031 29.628906 L 40.40625 25.679688 L 36.53125 21.800781 L 30.164062 22.507812 L 17.070312 9.414062 C 15.757812 8.101562 13.753906 7.90625 12.222656 8.808594 L 11.414062 8 L 10 9.414062 Z M 10.808594 10.222656 "/>
</g>
</svg>
