<?xml version="1.0" encoding="UTF-8"?>
<svg xmlns="http://www.w3.org/2000/svg" xmlns:xlink="http://www.w3.org/1999/xlink" width="48pt" height="48pt" viewBox="0 0 48 48" version="1.1">
<g id="surface1">
<path style=" stroke:none;fill-rule:nonzero;fill:rgb(0%,0%,0%);fill-opacity:1;" d="M 28.480469 33.550781 L 28.824219 31.828125 C 29.648438 32.285156 30.433594 32.660156 31.160156 32.941406 L 29.515625 34.585938 Z M 12.933594 11.570312 L 13.570312 10.933594 C 16.117188 11.628906 20.753906 14.507812 25.273438 19.03125 C 26.554688 20.308594 27.6875 21.59375 28.691406 22.84375 L 24.84375 26.691406 C 23.59375 25.683594 22.308594 24.550781 21.027344 23.273438 C 16.507812 18.753906 13.628906 14.117188 12.933594 11.570312 M 32.734375 31.367188 C 31.222656 30.953125 28.96875 29.757812 26.445312 27.917969 L 29.917969 24.445312 C 31.757812 26.96875 32.953125 29.222656 33.367188 30.734375 Z M 35.550781 26.480469 L 36.585938 27.515625 L 34.941406 29.160156 C 34.660156 28.433594 34.285156 27.648438 33.828125 26.824219 Z M 39.414062 27.515625 L 36.207031 24.308594 L 32.730469 25.003906 C 31.636719 23.316406 30.273438 21.539062 28.738281 19.804688 L 29.515625 19.03125 L 28.101562 17.617188 L 27.386719 18.332031 C 27.152344 18.089844 26.921875 17.851562 26.6875 17.617188 C 26.449219 17.378906 26.210938 17.148438 25.96875 16.917969 L 26.6875 16.203125 L 25.273438 14.789062 L 24.496094 15.5625 C 20.453125 11.980469 16.140625 9.332031 13.425781 8.851562 L 12.914062 8.761719 L 10.761719 10.914062 L 10.851562 11.425781 C 11.417969 14.640625 15.023438 20.09375 19.613281 24.6875 C 21.992188 27.0625 24.597656 29.167969 27.003906 30.730469 L 26.308594 34.207031 L 29.515625 37.414062 Z M 39.414062 27.515625 "/>
</g>
</svg>
