<?xml version="1.0" encoding="UTF-8"?>
<svg xmlns="http://www.w3.org/2000/svg" xmlns:xlink="http://www.w3.org/1999/xlink" width="48pt" height="48pt" viewBox="0 0 48 48" version="1.1">
<g id="surface1">
<path style=" stroke:none;fill-rule:nonzero;fill:rgb(0%,0%,0%);fill-opacity:1;" d="M 30.984375 32.105469 L 13.066406 14.1875 L 13.375 12.640625 L 20.535156 17.414062 L 31.71875 28.597656 L 34.714844 32.792969 L 33.746094 33.761719 Z M 25.792969 31.15625 L 26.027344 29.976562 L 28.335938 32.285156 L 27.15625 32.523438 Z M 32.15625 24.792969 L 33.519531 26.15625 L 33.28125 27.351562 L 30.964844 25.03125 Z M 37.328125 33.007812 L 34.863281 29.554688 L 34.878906 29.558594 L 35.691406 25.5 L 32.8125 22.621094 L 29.269531 23.332031 L 21.878906 15.929688 L 12 9.320312 L 10.894531 14.84375 L 24.328125 28.277344 L 23.621094 31.8125 L 26.5 34.691406 L 30.21875 33.949219 L 34.054688 36.28125 Z M 37.328125 33.007812 "/>
</g>
</svg>
