<?xml version="1.0" encoding="UTF-8"?>
<svg xmlns="http://www.w3.org/2000/svg" xmlns:xlink="http://www.w3.org/1999/xlink" width="48pt" height="48pt" viewBox="0 0 48 48" version="1.1">
<g id="surface1">
<path style=" stroke:none;fill-rule:nonzero;fill:rgb(0%,0%,0%);fill-opacity:1;" d="M 15.558594 11.4375 L 16.621094 12.5 L 14.5 14.621094 L 13.4375 13.558594 C 12.851562 12.972656 12.851562 12.023438 13.4375 11.4375 C 14.023438 10.851562 14.972656 10.851562 15.558594 11.4375 M 36.710938 26.933594 L 37.125 27.347656 L 35.710938 28.761719 L 33.882812 26.933594 Z M 33.589844 33.710938 L 19.449219 19.570312 L 21.570312 17.449219 L 35.710938 31.589844 Z M 29.347656 35.125 L 28.933594 34.710938 L 28.933594 31.882812 L 30.761719 33.710938 Z M 15.914062 16.035156 L 18.035156 13.914062 L 20.15625 16.035156 L 18.035156 18.15625 Z M 12.023438 14.972656 L 26.933594 29.882812 L 26.933594 35.539062 L 29.347656 37.953125 L 32.175781 35.125 L 33.589844 36.539062 L 38.539062 31.589844 L 37.125 30.175781 L 39.953125 27.347656 L 37.539062 24.933594 L 31.882812 24.933594 L 16.972656 10.023438 C 15.609375 8.660156 13.386719 8.660156 12.023438 10.023438 C 10.660156 11.386719 10.660156 13.609375 12.023438 14.972656 "/>
</g>
</svg>
