<?xml version="1.0" encoding="UTF-8"?>
<svg xmlns="http://www.w3.org/2000/svg" xmlns:xlink="http://www.w3.org/1999/xlink" width="48pt" height="48pt" viewBox="0 0 48 48" version="1.1">
<g id="surface1">
<path style=" stroke:none;fill-rule:nonzero;fill:rgb(0%,0%,0%);fill-opacity:1;" d="M 43.167969 23.5 L 42.101562 24.300781 C 40.636719 25.394531 38.828125 26 37 26 L 32.332031 26 L 28.335938 29 L 25.535156 29 L 20.867188 36 L 23 36 L 23 38 L 15 38 L 15 25 L 19 25 L 19 27 L 17 27 L 17 31 L 19 31 L 19 33 L 17 33 L 17 36 L 18.464844 36 L 23.132812 29 L 21 29 L 21 27 L 27.667969 27 L 29 26 L 25 26 L 25 24 L 37 24 C 37.855469 24 38.707031 23.828125 39.496094 23.5 C 38.707031 23.171875 37.855469 23 37 23 L 25 23 L 25 21 L 29 21 L 27.667969 20 L 21 20 L 21 18 L 23.132812 18 L 18.464844 11 L 17 11 L 17 14 L 19 14 L 19 16 L 17 16 L 17 20 L 19 20 L 19 22 L 12.5 22 L 9.699219 18.269531 L 9 18.617188 L 9 25 L 13 25 L 13 27 L 6 27 L 6 25 L 7 25 L 7 17.382812 L 10.300781 15.730469 L 13.5 20 L 15 20 L 15 9 L 23 9 L 23 11 L 20.867188 11 L 25.535156 18 L 28.335938 18 L 32.332031 21 L 37 21 C 38.828125 21 40.636719 21.605469 42.101562 22.699219 Z M 43.167969 23.5 "/>
</g>
</svg>
