<?xml version="1.0" encoding="UTF-8"?>
<svg xmlns="http://www.w3.org/2000/svg" xmlns:xlink="http://www.w3.org/1999/xlink" width="48pt" height="48pt" viewBox="0 0 48 48" version="1.1">
<g id="surface1">
<path style=" stroke:none;fill-rule:nonzero;fill:rgb(0%,0%,0%);fill-opacity:1;" d="M 39.496094 23.5 C 38.707031 23.828125 37.855469 24 37 24 L 25 24 L 25 23 L 37 23 C 37.855469 23 38.707031 23.171875 39.496094 23.5 M 29 21 L 25 21 L 25 22.5 L 21 22.5 L 21 24.5 L 25 24.5 L 25 26 L 29 26 L 27.667969 27 L 21 27 L 21 29 L 23.132812 29 L 18.464844 36 L 17 36 L 17 34 L 19 34 L 19 32 L 17 32 L 17 30.5 L 19 30.5 L 19 28.5 L 17 28.5 L 17 27 L 19 27 L 19 25 L 12.5 25 L 9.699219 28.730469 L 9 28.382812 L 9 24.5 L 12 24.5 L 12 22.5 L 9 22.5 L 9 18.617188 L 9.699219 18.269531 L 12.5 22 L 19 22 L 19 20 L 17 20 L 17 18.5 L 19 18.5 L 19 16.5 L 17 16.5 L 17 15 L 19 15 L 19 13 L 17 13 L 17 11 L 18.464844 11 L 23.132812 18 L 21 18 L 21 20 L 27.667969 20 Z M 43.167969 23.5 L 42.097656 22.699219 C 40.636719 21.605469 38.828125 21 37 21 L 32.332031 21 L 28.332031 18 L 25.535156 18 L 20.867188 11 L 23 11 L 23 9 L 15 9 L 15 20 L 13.5 20 L 10.300781 15.730469 L 7 17.382812 L 7 29.617188 L 10.300781 31.269531 L 13.5 27 L 15 27 L 15 38 L 23 38 L 23 36 L 20.867188 36 L 25.535156 29 L 28.332031 29 L 32.332031 26 L 37 26 C 38.828125 26 40.636719 25.394531 42.097656 24.300781 Z M 43.167969 23.5 "/>
</g>
</svg>
