<?xml version="1.0" encoding="UTF-8"?>
<svg xmlns="http://www.w3.org/2000/svg" xmlns:xlink="http://www.w3.org/1999/xlink" width="48pt" height="48pt" viewBox="0 0 48 48" version="1.1">
<g id="surface1">
<path style=" stroke:none;fill-rule:nonzero;fill:rgb(0%,0%,0%);fill-opacity:1;" d="M 36.765625 25 L 28 25 L 28 27 L 29.210938 27 L 22.441406 38 L 20.355469 38 L 23.773438 26.886719 C 25.050781 26.542969 26 25.386719 26 24 C 26 22.613281 25.050781 21.457031 23.773438 21.113281 L 20.355469 10 L 22.441406 10 L 29.210938 21 L 28 21 L 28 23 L 36.765625 23 L 38.765625 24 Z M 15.097656 25 L 11 24.179688 L 11 23.820312 L 15.097656 23 L 23 23 C 23.550781 23 24 23.449219 24 24 C 24 24.550781 23.550781 25 23 25 Z M 10.011719 29.5 L 9.808594 29.5 L 10.71875 26.164062 L 12.351562 26.488281 Z M 10.011719 18.5 L 12.359375 21.519531 L 10.722656 21.84375 L 9.808594 18.5 Z M 39.65625 22.210938 L 37.234375 21 L 31.558594 21 L 29.710938 18 L 31 18 L 31 16 L 28.480469 16 L 23.558594 8 L 17 8 L 17 10 L 18.261719 10 L 21.644531 21 L 14.804688 21 L 14.558594 21.085938 L 10.988281 16.5 L 7.191406 16.5 L 8.964844 23 L 7 23 L 7 25 L 8.964844 25 L 7.191406 31.5 L 10.988281 31.5 L 14.542969 26.929688 L 14.804688 26.980469 L 21.644531 27 L 18.261719 38 L 17 38 L 17 40 L 23.558594 40 L 28.480469 32 L 31 32 L 31 30 L 29.710938 30 L 31.558594 27 L 37.234375 27 L 39.65625 25.789062 C 40.339844 25.449219 40.765625 24.761719 40.765625 24 C 40.765625 23.238281 40.339844 22.550781 39.65625 22.210938 "/>
</g>
</svg>
