<?xml version="1.0" encoding="UTF-8"?>
<svg xmlns="http://www.w3.org/2000/svg" xmlns:xlink="http://www.w3.org/1999/xlink" width="48pt" height="48pt" viewBox="0 0 48 48" version="1.1">
<g id="surface1">
<path style=" stroke:none;fill-rule:nonzero;fill:rgb(0%,0%,0%);fill-opacity:1;" d="M 22.441406 38 L 20.351562 38 L 23.738281 27 L 29.210938 27 Z M 23.738281 21 L 20.351562 10 L 22.441406 10 L 29.210938 21 Z M 9.21875 18 L 9.519531 18 L 11.917969 21 L 9.820312 21 Z M 38.414062 21 L 31.558594 21 L 29.710938 18 L 31 18 L 31 16 L 28.480469 16 L 23.558594 8 L 17.644531 8 L 21.644531 21 L 14.480469 21 L 10.480469 16 L 6.78125 16 L 7.78125 21 L 6 21 L 6 23 L 8.699219 23 L 13.300781 26.070312 L 8.605469 28.082031 L 9.394531 29.917969 L 16.203125 27 L 20 27 L 20 25 L 15.300781 25 L 12.300781 23 L 37.585938 23 L 38.9375 24.351562 C 38.792969 24.730469 38.425781 25 38 25 L 22.261719 25 L 17.644531 40 L 23.558594 40 L 28.480469 32 L 31 32 L 31 30 L 29.710938 30 L 31.558594 27 L 38 27 C 39.65625 27 41 25.652344 41 24 L 41 23.585938 Z M 38.414062 21 "/>
</g>
</svg>
