<?xml version="1.0" encoding="UTF-8"?>
<svg xmlns="http://www.w3.org/2000/svg" xmlns:xlink="http://www.w3.org/1999/xlink" width="48pt" height="48pt" viewBox="0 0 48 48" version="1.1">
<g id="surface1">
<path style=" stroke:none;fill-rule:nonzero;fill:rgb(0%,0%,0%);fill-opacity:1;" d="M 38.765625 24 L 36.765625 25 L 27 25 L 27 27 L 29.210938 27 L 22.441406 38 L 20.355469 38 L 23.738281 27 L 25 27 L 25 25 L 15.097656 25 L 11 24.179688 L 11 23.820312 L 15.097656 23 L 25 23 L 25 21 L 23.738281 21 L 20.355469 10 L 22.441406 10 L 29.210938 21 L 27 21 L 27 23 L 36.765625 23 Z M 12.351562 21.511719 L 10.71875 21.835938 L 9.808594 18.5 L 10.011719 18.5 Z M 9.808594 29.5 L 10.71875 26.15625 L 12.359375 26.480469 L 10.011719 29.5 Z M 40.765625 24 C 40.765625 23.238281 40.339844 22.550781 39.660156 22.210938 L 37.238281 21 L 31.558594 21 L 29.710938 18 L 31 18 L 31 16 L 28.480469 16 L 23.558594 8 L 17.648438 8 L 21.648438 21 L 15 21 L 14.542969 21.070312 L 10.988281 16.5 L 7.191406 16.5 L 8.960938 23 L 7 23 L 7 25 L 8.960938 25 L 7.191406 31.5 L 10.988281 31.5 L 14.558594 26.914062 L 15 27 L 21.648438 27 L 17.648438 40 L 23.558594 40 L 28.480469 32 L 31 32 L 31 30 L 29.710938 30 L 31.558594 27 L 37.238281 27 L 39.660156 25.789062 C 40.339844 25.449219 40.765625 24.761719 40.765625 24 "/>
</g>
</svg>
