<?xml version="1.0" encoding="UTF-8"?>
<svg xmlns="http://www.w3.org/2000/svg" xmlns:xlink="http://www.w3.org/1999/xlink" width="48pt" height="48pt" viewBox="0 0 48 48" version="1.1">
<g id="surface1">
<path style=" stroke:none;fill-rule:nonzero;fill:rgb(0%,0%,0%);fill-opacity:1;" d="M 24.261719 38 L 23 38 L 23 27 L 27.644531 27 Z M 24.261719 10 L 27.5 20.523438 C 26.261719 20.722656 25.015625 20.859375 23.761719 20.929688 L 23 17.875 L 23 10 Z M 36 19 C 34.578125 19 33.167969 19.199219 31.800781 19.589844 C 31.035156 19.808594 30.257812 19.996094 29.480469 20.164062 L 25.738281 8 L 21 8 L 21 17 L 11.722656 17 L 10.578125 15 L 7 15 L 7 24.753906 L 14.726562 26.960938 L 19 27 L 19 25 L 15.140625 25 L 9 23.246094 L 9 17 L 9.417969 17 L 13.132812 23.496094 L 14.867188 22.503906 L 12.867188 19 L 21.21875 19 L 21.71875 21 L 17 21 L 17 23 L 21.71875 23 C 25.316406 23 28.894531 22.5 32.351562 21.511719 C 33.539062 21.171875 34.765625 21 36 21 C 38.359375 21 38.867188 22.75 38.972656 23.613281 L 37.585938 25 L 21 25 L 21 40 L 25.738281 40 L 29.738281 27 L 38.414062 27 L 41 24.414062 L 41 24 C 41 22.269531 39.953125 19 36 19 "/>
</g>
</svg>
