<?xml version="1.0" encoding="UTF-8"?>
<svg xmlns="http://www.w3.org/2000/svg" xmlns:xlink="http://www.w3.org/1999/xlink" width="48pt" height="48pt" viewBox="0 0 48 48" version="1.1">
<g id="surface1">
<path style=" stroke:none;fill-rule:nonzero;fill:rgb(0%,0%,0%);fill-opacity:1;" d="M 25.074219 38 L 23.894531 38 L 22.671875 27 L 25.921875 27 Z M 14 19 L 21.21875 19 L 21.71875 21 L 14 21 Z M 25.074219 10 L 25.898438 20.742188 C 25.1875 20.820312 24.476562 20.890625 23.761719 20.929688 L 23.011719 17.933594 L 23.894531 10 Z M 12 21 L 9.925781 21 L 10.835938 16 L 12 16 Z M 36 19 C 34.582031 19 33.167969 19.199219 31.804688 19.589844 C 30.511719 19.957031 29.203125 20.230469 27.886719 20.457031 L 26.925781 8 L 22.105469 8 L 21.105469 17 L 14 17 L 14 14 L 9.164062 14 L 7.890625 21 L 6 21 L 6 23 L 7.527344 23 L 6.800781 27 L 19 27 L 19 25 L 9.199219 25 L 9.5625 23 L 21.71875 23 C 25.316406 23 28.894531 22.5 32.351562 21.511719 C 33.539062 21.171875 34.765625 21 36 21 C 38.359375 21 38.867188 22.75 38.972656 23.613281 L 37.585938 25 L 20.4375 25 L 22.105469 40 L 26.925781 40 L 27.925781 27 L 38.414062 27 L 41 24.414062 L 41 24 C 41 22.269531 39.957031 19 36 19 "/>
</g>
</svg>
