<?xml version="1.0" encoding="UTF-8"?>
<svg xmlns="http://www.w3.org/2000/svg" xmlns:xlink="http://www.w3.org/1999/xlink" width="48pt" height="48pt" viewBox="0 0 48 48" version="1.1">
<g id="surface1">
<path style=" stroke:none;fill-rule:nonzero;fill:rgb(0%,0%,0%);fill-opacity:1;" d="M 36.765625 25 L 34 25 L 34 23 L 36.765625 23 L 38.765625 24 Z M 26.074219 25 L 25.074219 38 L 23.894531 38 L 22.664062 26.921875 C 24 26.617188 25 25.425781 25 24 C 25 22.574219 24 21.382812 22.664062 21.078125 L 23.894531 10 L 25.074219 10 L 26.074219 23 L 32 23 L 32 25 Z M 9.847656 29 L 9.015625 24 L 9.847656 19 L 10.21875 19 L 10.957031 21.953125 L 10.957031 26.046875 L 10.21875 29 Z M 22 25 L 12.957031 25 L 12.957031 23 L 22 23 C 22.550781 23 23 23.449219 23 24 C 23 24.550781 22.550781 25 22 25 M 39.660156 22.210938 L 37.238281 21 L 27.925781 21 L 26.925781 8 L 22.105469 8 L 20.660156 21 L 12.78125 21 L 11.78125 17 L 8.152344 17 L 6.988281 24 L 8.152344 31 L 11.78125 31 L 12.78125 27 L 20.660156 27 L 22.105469 40 L 26.925781 40 L 27.925781 27 L 37.238281 27 L 39.660156 25.789062 C 40.339844 25.449219 40.765625 24.761719 40.765625 24 C 40.765625 23.238281 40.339844 22.550781 39.660156 22.210938 "/>
</g>
</svg>
