<?xml version="1.0" encoding="UTF-8"?>
<svg xmlns="http://www.w3.org/2000/svg" xmlns:xlink="http://www.w3.org/1999/xlink" width="48pt" height="48pt" viewBox="0 0 48 48" version="1.1">
<g id="surface1">
<path style=" stroke:none;fill-rule:nonzero;fill:rgb(0%,0%,0%);fill-opacity:1;" d="M 39.90625 25.140625 C 39.511719 23.347656 37.910156 22 36 22 L 36 21 L 34 21 L 34 22 L 18 22 L 18 24 L 36 24 C 36.738281 24 37.375 24.40625 37.722656 25 L 34 25 L 34 27 L 39 27 C 39.550781 27 40 27.449219 40 28 C 40 28.550781 39.550781 29 39 29 L 31.585938 29 L 30.585938 30 L 15.414062 30 L 12.414062 27 L 27 27 L 27 25 L 10.414062 25 L 9 23.585938 L 9 19 L 11.585938 19 L 14 21.414062 L 14 24 L 16 24 L 16 20.585938 L 13 17.585938 L 13 16 L 11 16 L 11 17 L 7 17 L 7 24.414062 L 14.585938 32 L 31.414062 32 L 32.414062 31 L 39 31 C 40.65625 31 42 29.652344 42 28 C 42 26.660156 41.117188 25.523438 39.90625 25.140625 M 24 13 L 6 13 L 6 15 L 24 15 Z M 24 18 L 40 18 L 40 20 L 24 20 Z M 24 18 "/>
</g>
</svg>
