<?xml version="1.0" encoding="UTF-8"?>
<svg xmlns="http://www.w3.org/2000/svg" xmlns:xlink="http://www.w3.org/1999/xlink" width="48pt" height="48pt" viewBox="0 0 48 48" version="1.1">
<g id="surface1">
<path style=" stroke:none;fill-rule:nonzero;fill:rgb(0%,0%,0%);fill-opacity:1;" d="M 39.5 28.085938 L 39.984375 27.601562 C 39.78125 25.03125 37.621094 23 35 23 L 34.414062 23 Z M 42 28 L 42 28.414062 L 37.414062 33 L 20.585938 33 L 16.585938 29 L 11.414062 29 L 10.269531 30.144531 L 6 28.722656 L 6 22.179688 L 10.605469 21.257812 C 11.199219 21.140625 11.804688 21.292969 12.269531 21.671875 C 12.734375 22.054688 13 22.617188 13 23.21875 L 13 25 L 11 25 L 11 23.21875 L 8 23.820312 L 8 27.277344 L 9.730469 27.855469 L 10.585938 27 L 23 27 L 23 29 L 19.414062 29 L 21.414062 31 L 36.585938 31 L 38.085938 29.5 L 37.585938 29 L 28 29 L 28 27 L 35.585938 27 L 31.585938 23 L 21.414062 23 L 19.414062 25 L 14 25 L 14 23 L 18.585938 23 L 20.585938 21 L 26 21 L 26 20 L 28 20 L 28 21 L 35 21 C 38.859375 21 42 24.140625 42 28 M 39 19 L 15 19 L 15 17 L 26 17 L 26 15 L 15 15 L 15 13 L 39 13 L 39 15 L 28 15 L 28 17 L 39 17 Z M 39 19 "/>
</g>
</svg>
