<?xml version="1.0" encoding="UTF-8"?>
<svg xmlns="http://www.w3.org/2000/svg" xmlns:xlink="http://www.w3.org/1999/xlink" width="48pt" height="48pt" viewBox="0 0 48 48" version="1.1">
<g id="surface1">
<path style=" stroke:none;fill-rule:nonzero;fill:rgb(0%,0%,0%);fill-opacity:1;" d="M 41 27.5 C 41 26.671875 40.328125 26 39.5 26 L 23 26 L 23 24 L 28.695312 24 L 25.695312 22 L 24.148438 22 L 14 25 L 11.5 25 L 8.5 21 L 7.539062 21 L 10.648438 28 L 17.414062 28 L 18.414062 29 L 39.5 29 C 40.328125 29 41 28.328125 41 27.5 M 32.695312 22 L 29.304688 22 L 32.304688 24 L 35.695312 24 Z M 43 27.5 C 43 29.429688 41.429688 31 39.5 31 L 17.585938 31 L 16.585938 30 L 9.351562 30 L 5.351562 21 L 4 21 L 4 19 L 9.5 19 L 12.5 23 L 13.851562 23 L 24 20 L 27 20 L 27 19 L 29 19 L 29 20 L 33.304688 20 L 39.304688 24 L 39.5 24 C 41.429688 24 43 25.570312 43 27.5 M 43 18 L 13 18 L 13 16 L 43 16 Z M 43 18 "/>
</g>
</svg>
