<?xml version="1.0" encoding="UTF-8"?>
<svg xmlns="http://www.w3.org/2000/svg" xmlns:xlink="http://www.w3.org/1999/xlink" width="48pt" height="48pt" viewBox="0 0 48 48" version="1.1">
<g id="surface1">
<path style=" stroke:none;fill-rule:nonzero;fill:rgb(0%,0%,0%);fill-opacity:1;" d="M 41 27.5 C 41 26.671875 40.328125 26 39.5 26 L 23 26 L 23 24 L 29.585938 24 L 27.585938 22 L 24.191406 22 L 19.191406 24 L 9.230469 24 L 9.660156 25 L 17.414062 25 L 21.414062 29 L 39.5 29 C 40.328125 29 41 28.328125 41 27.5 M 7.515625 20 L 8.375 22 L 10.382812 22 L 9.382812 20 Z M 34.585938 22 L 30.414062 22 L 32.414062 24 L 36.585938 24 Z M 43 27.5 C 43 29.429688 41.429688 31 39.5 31 L 20.585938 31 L 16.585938 27 L 8.339844 27 L 5.339844 20 L 4 20 L 4 18 L 10.617188 18 L 12.617188 22 L 18.808594 22 L 23.808594 20 L 27 20 L 27 19 L 29 19 L 29 20 L 35.414062 20 L 39.414062 24 L 39.5 24 C 41.429688 24 43 25.570312 43 27.5 M 43 18 L 13 18 L 13 16 L 43 16 Z M 43 18 "/>
</g>
</svg>
