<?xml version="1.0" encoding="UTF-8"?>
<svg xmlns="http://www.w3.org/2000/svg" xmlns:xlink="http://www.w3.org/1999/xlink" width="48pt" height="48pt" viewBox="0 0 48 48" version="1.1">
<g id="surface1">
<path style=" stroke:none;fill-rule:nonzero;fill:rgb(0%,0%,0%);fill-opacity:1;" d="M 31.707031 30.292969 L 30.292969 31.707031 L 33.585938 35 L 14.414062 35 L 17.707031 31.707031 L 16.292969 30.292969 L 13 33.585938 L 13 14.414062 L 16.292969 17.707031 L 17.707031 16.292969 L 14.414062 13 L 33.585938 13 L 30.292969 16.292969 L 31.707031 17.707031 L 35 14.414062 L 35 33.585938 Z M 11 37 L 37 37 L 37 11 L 11 11 Z M 27 27 L 25 27 L 25 21 L 27 21 Z M 21 21 L 23 21 L 23 27 L 21 27 Z M 18 21 L 19 21 L 19 27 L 18 27 L 18 29 L 30 29 L 30 27 L 29 27 L 29 21 L 30 21 L 30 19 L 18 19 Z M 18 21 "/>
</g>
</svg>
