<?xml version="1.0" encoding="UTF-8"?>
<svg xmlns="http://www.w3.org/2000/svg" xmlns:xlink="http://www.w3.org/1999/xlink" width="48pt" height="48pt" viewBox="0 0 48 48" version="1.1">
<g id="surface1">
<path style=" stroke:none;fill-rule:nonzero;fill:rgb(0%,0%,0%);fill-opacity:1;" d="M 33.957031 30.703125 C 33.875 30.816406 33.796875 30.925781 33.691406 31.0625 C 31.449219 34.152344 27.824219 36 24 36 C 17.472656 36 12.148438 30.761719 12.003906 24.269531 C 12.082031 24.402344 12.175781 24.527344 12.265625 24.65625 C 12.328125 24.75 12.382812 24.84375 12.449219 24.929688 C 12.664062 25.21875 12.894531 25.5 13.152344 25.757812 C 14.546875 27.152344 16.402344 27.917969 18.382812 27.917969 L 18.425781 27.917969 C 20.414062 27.90625 22.292969 27.125 23.707031 25.707031 L 25.707031 23.707031 C 26.75 22.667969 28.125 22.089844 29.585938 22.082031 L 29.617188 22.082031 C 31.0625 22.082031 32.414062 22.640625 33.433594 23.65625 C 33.640625 23.863281 33.824219 24.082031 33.992188 24.3125 C 34.003906 24.332031 34.015625 24.351562 34.027344 24.371094 C 34.175781 24.585938 34.316406 24.804688 34.433594 25.035156 C 34.460938 25.09375 34.476562 25.152344 34.503906 25.214844 C 34.59375 25.40625 34.683594 25.605469 34.75 25.808594 C 34.777344 25.890625 34.789062 25.976562 34.8125 26.0625 C 34.863281 26.246094 34.914062 26.429688 34.945312 26.617188 C 34.960938 26.710938 34.957031 26.804688 34.96875 26.894531 C 34.988281 27.078125 35.011719 27.261719 35.011719 27.449219 C 35.015625 27.546875 35 27.640625 34.992188 27.738281 C 34.984375 27.921875 34.980469 28.101562 34.953125 28.285156 C 34.941406 28.378906 34.910156 28.46875 34.890625 28.558594 C 34.851562 28.746094 34.820312 28.929688 34.761719 29.113281 C 34.738281 29.195312 34.695312 29.277344 34.664062 29.359375 C 34.59375 29.546875 34.527344 29.734375 34.4375 29.917969 C 34.285156 30.191406 34.113281 30.460938 33.957031 30.703125 M 14.042969 17.300781 C 14.125 17.179688 14.203125 17.074219 14.308594 16.9375 C 16.550781 13.847656 20.175781 12 24 12 C 30.527344 12 35.851562 17.234375 35.996094 23.730469 C 35.917969 23.597656 35.824219 23.472656 35.734375 23.34375 C 35.671875 23.25 35.617188 23.15625 35.550781 23.066406 C 35.335938 22.78125 35.105469 22.503906 34.847656 22.242188 C 33.453125 20.847656 31.597656 20.082031 29.617188 20.082031 L 29.574219 20.082031 C 27.585938 20.09375 25.707031 20.878906 24.292969 22.292969 L 22.292969 24.292969 C 21.25 25.335938 19.875 25.910156 18.414062 25.917969 L 18.382812 25.917969 C 16.9375 25.917969 15.582031 25.359375 14.566406 24.34375 C 12.921875 22.695312 12.519531 20.1875 13.558594 18.089844 C 13.714844 17.8125 13.882812 17.539062 14.042969 17.300781 M 38 24 C 38 16.28125 31.71875 10 24 10 C 19.535156 10 15.308594 12.152344 12.707031 15.742188 C 12.59375 15.886719 12.496094 16.015625 12.382812 16.183594 C 12.1875 16.480469 11.992188 16.792969 11.800781 17.140625 L 11.796875 17.136719 C 11.792969 17.148438 11.789062 17.164062 11.78125 17.175781 C 11.777344 17.179688 11.777344 17.179688 11.777344 17.183594 C 11.773438 17.183594 11.773438 17.183594 11.773438 17.1875 C 10.613281 19.261719 10 21.617188 10 24 C 10 31.71875 16.28125 38 24 38 C 28.464844 38 32.691406 35.847656 35.292969 32.257812 C 35.40625 32.113281 35.503906 31.980469 35.617188 31.816406 C 35.820312 31.511719 36.019531 31.1875 36.199219 30.859375 L 36.203125 30.859375 C 36.203125 30.859375 36.203125 30.855469 36.203125 30.855469 C 36.207031 30.851562 36.207031 30.851562 36.207031 30.851562 L 36.222656 30.816406 C 36.226562 30.816406 36.226562 30.8125 36.226562 30.8125 C 37.386719 28.738281 38 26.382812 38 24 "/>
</g>
</svg>
