<?xml version="1.0" encoding="UTF-8"?>
<svg xmlns="http://www.w3.org/2000/svg" xmlns:xlink="http://www.w3.org/1999/xlink" width="48pt" height="48pt" viewBox="0 0 48 48" version="1.1">
<g id="surface1">
<path style=" stroke:none;fill-rule:nonzero;fill:rgb(0%,0%,0%);fill-opacity:1;" d="M 24 12 C 17.382812 12 12 17.382812 12 24 C 12 30.617188 17.382812 36 24 36 C 30.617188 36 36 30.617188 36 24 C 36 17.382812 30.617188 12 24 12 M 24 38 C 16.28125 38 10 31.71875 10 24 C 10 16.28125 16.28125 10 24 10 C 31.71875 10 38 16.28125 38 24 C 38 31.71875 31.71875 38 24 38 M 25.855469 23.976562 C 25.742188 23.992188 25.621094 24 25.5 24 L 23 24 L 23 19 L 25.5 19 C 26.878906 19 28 20.121094 28 21.5 C 28 22.734375 27.078125 23.800781 25.855469 23.976562 M 25.5 17 L 21 17 L 21 31 L 23 31 L 23 26 L 25.5 26 C 25.71875 26 25.933594 25.984375 26.140625 25.953125 C 28.34375 25.640625 30 23.726562 30 21.5 C 30 19.019531 27.980469 17 25.5 17 "/>
</g>
</svg>
