<?xml version="1.0" encoding="UTF-8"?>
<svg xmlns="http://www.w3.org/2000/svg" xmlns:xlink="http://www.w3.org/1999/xlink" width="48pt" height="48pt" viewBox="0 0 48 48" version="1.1">
<g id="surface1">
<path style=" stroke:none;fill-rule:nonzero;fill:rgb(0%,0%,0%);fill-opacity:1;" d="M 40.710938 35.289062 L 39.289062 36.710938 L 37 34.410156 L 34.710938 36.710938 L 33.289062 35.289062 L 35.589844 33 L 35.101562 32.519531 L 33.671875 31.089844 L 33.289062 30.710938 L 34.710938 29.289062 L 34.75 29.328125 L 36.230469 30.8125 L 37 31.589844 L 39.289062 29.289062 L 40.710938 30.710938 L 38.410156 33 Z M 24 36 C 17.378906 36 12 30.621094 12 24 C 12 17.378906 17.378906 12 24 12 C 30.621094 12 36 17.378906 36 24 C 36 24.71875 35.941406 25.421875 35.808594 26.109375 C 32.511719 26.671875 30 29.539062 30 33 C 30 33.449219 30.039062 33.890625 30.128906 34.3125 C 28.339844 35.390625 26.238281 36 24 36 M 37.851562 26.0625 C 37.949219 25.390625 38 24.699219 38 24 C 38 16.28125 31.71875 10 24 10 C 16.28125 10 10 16.28125 10 24 C 10 31.71875 16.28125 38 24 38 C 26.460938 38 28.78125 37.359375 30.789062 36.238281 C 31.960938 38.480469 34.300781 40 37 40 C 40.871094 40 44 36.871094 44 33 C 44 29.421875 41.320312 26.46875 37.851562 26.0625 M 25.859375 23.96875 C 25.738281 23.988281 25.621094 24 25.5 24 L 23 24 L 23 19 L 25.5 19 C 26.878906 19 28 20.121094 28 21.5 C 28 22.738281 27.078125 23.800781 25.859375 23.96875 M 25.5 17 L 21 17 L 21 31 L 23 31 L 23 26 L 25.5 26 C 25.71875 26 25.929688 25.980469 26.140625 25.960938 C 28.339844 25.640625 30 23.71875 30 21.5 C 30 19.019531 27.980469 17 25.5 17 "/>
</g>
</svg>
