<?xml version="1.0" encoding="UTF-8"?>
<svg xmlns="http://www.w3.org/2000/svg" xmlns:xlink="http://www.w3.org/1999/xlink" width="48pt" height="48pt" viewBox="0 0 48 48" version="1.1">
<g id="surface1">
<path style=" stroke:none;fill-rule:nonzero;fill:rgb(0%,0%,0%);fill-opacity:1;" d="M 33.144531 31.753906 C 32.453125 31.140625 31.71875 30.605469 30.949219 30.152344 C 31.398438 28.519531 31.671875 26.695312 31.730469 24.75 L 35.960938 24.75 C 35.796875 27.410156 34.769531 29.839844 33.144531 31.753906 M 12.039062 24.75 L 16.269531 24.75 C 16.328125 26.695312 16.601562 28.519531 17.050781 30.152344 C 16.28125 30.605469 15.546875 31.140625 14.855469 31.753906 C 13.230469 29.839844 12.203125 27.410156 12.039062 24.75 M 14.855469 16.246094 C 15.546875 16.859375 16.28125 17.394531 17.050781 17.847656 C 16.601562 19.480469 16.328125 21.304688 16.269531 23.25 L 12.039062 23.25 C 12.203125 20.589844 13.230469 18.160156 14.855469 16.246094 M 24.75 23.25 L 24.75 19.707031 C 26.398438 19.617188 28.03125 19.234375 29.566406 18.558594 C 29.941406 19.992188 30.175781 21.582031 30.230469 23.25 Z M 24.75 28.292969 L 24.75 24.75 L 30.230469 24.75 C 30.175781 26.417969 29.941406 28.007812 29.566406 29.441406 C 28.03125 28.765625 26.398438 28.382812 24.75 28.292969 M 23.25 24.75 L 23.25 28.292969 C 21.601562 28.382812 19.96875 28.765625 18.433594 29.441406 C 18.058594 28.007812 17.824219 26.417969 17.769531 24.75 Z M 23.25 19.707031 L 23.25 23.25 L 17.769531 23.25 C 17.824219 21.582031 18.058594 19.992188 18.433594 18.558594 C 19.96875 19.234375 21.601562 19.617188 23.25 19.707031 M 28.640625 12.933594 C 29.925781 13.476562 31.089844 14.242188 32.101562 15.171875 C 31.589844 15.621094 31.050781 16.027344 30.484375 16.382812 C 29.992188 15.042969 29.363281 13.882812 28.640625 12.933594 M 29.132812 17.113281 C 27.765625 17.746094 26.285156 18.121094 24.75 18.214844 L 24.75 12.039062 C 24.96875 12.050781 25.191406 12.066406 25.40625 12.089844 C 26.929688 12.808594 28.253906 14.640625 29.132812 17.113281 M 17.515625 16.382812 C 16.949219 16.027344 16.410156 15.621094 15.898438 15.171875 C 16.910156 14.242188 18.074219 13.476562 19.359375 12.933594 C 18.636719 13.882812 18.007812 15.042969 17.515625 16.382812 M 22.59375 12.089844 C 22.808594 12.066406 23.03125 12.050781 23.25 12.039062 L 23.25 18.214844 C 21.714844 18.121094 20.238281 17.746094 18.867188 17.113281 C 19.746094 14.640625 21.074219 12.808594 22.59375 12.089844 M 19.359375 35.066406 C 18.074219 34.523438 16.910156 33.757812 15.898438 32.828125 C 16.410156 32.375 16.949219 31.972656 17.515625 31.617188 C 18.007812 32.957031 18.636719 34.117188 19.359375 35.066406 M 18.867188 30.886719 C 20.238281 30.253906 21.714844 29.878906 23.25 29.785156 L 23.25 35.960938 C 23.03125 35.949219 22.808594 35.9375 22.59375 35.910156 C 21.074219 35.191406 19.746094 33.359375 18.867188 30.886719 M 30.484375 31.617188 C 31.050781 31.972656 31.589844 32.375 32.101562 32.828125 C 31.089844 33.757812 29.925781 34.523438 28.640625 35.066406 C 29.363281 34.117188 29.992188 32.957031 30.484375 31.617188 M 25.40625 35.910156 C 25.191406 35.9375 24.96875 35.949219 24.75 35.960938 L 24.75 29.785156 C 26.285156 29.878906 27.765625 30.253906 29.132812 30.886719 C 28.253906 33.359375 26.929688 35.191406 25.40625 35.910156 M 35.960938 23.25 L 31.730469 23.25 C 31.671875 21.304688 31.398438 19.480469 30.949219 17.847656 C 31.71875 17.394531 32.453125 16.859375 33.144531 16.246094 C 34.769531 18.160156 35.796875 20.589844 35.960938 23.25 M 24 10 C 16.28125 10 10 16.28125 10 24 C 10 31.71875 16.28125 38 24 38 C 31.71875 38 38 31.71875 38 24 C 38 16.28125 31.71875 10 24 10 "/>
</g>
</svg>
