<?xml version="1.0" encoding="UTF-8"?>
<svg xmlns="http://www.w3.org/2000/svg" xmlns:xlink="http://www.w3.org/1999/xlink" width="48pt" height="48pt" viewBox="0 0 48 48" version="1.1">
<g id="surface1">
<path style=" stroke:none;fill-rule:nonzero;fill:rgb(0%,0%,0%);fill-opacity:1;" d="M 40.710938 35.289062 L 39.289062 36.710938 L 37 34.410156 L 34.710938 36.710938 L 33.289062 35.289062 L 35.589844 33 L 35.101562 32.511719 L 33.671875 31.089844 L 33.289062 30.710938 L 34.710938 29.289062 L 34.75 29.328125 L 36.21875 30.8125 L 37 31.589844 L 39.289062 29.289062 L 40.710938 30.710938 L 38.410156 33 Z M 25 35.960938 L 25 12.039062 C 31.148438 12.550781 36 17.71875 36 24 C 36 24.71875 35.941406 25.421875 35.808594 26.109375 C 32.511719 26.671875 30 29.539062 30 33 C 30 33.449219 30.039062 33.890625 30.128906 34.3125 C 28.609375 35.21875 26.859375 35.800781 25 35.960938 M 23 18.1875 C 21.570312 18.070312 20.171875 17.699219 18.871094 17.101562 C 19.761719 14.601562 21.078125 12.8125 22.550781 12.101562 C 22.699219 12.078125 22.851562 12.050781 23 12.039062 Z M 23 23.25 L 17.78125 23.25 C 17.828125 21.609375 18.050781 20.019531 18.429688 18.550781 C 19.871094 19.1875 21.421875 19.570312 23 19.6875 Z M 23 28.3125 C 21.421875 28.429688 19.871094 28.8125 18.429688 29.449219 C 18.050781 27.980469 17.828125 26.390625 17.78125 24.75 L 23 24.75 Z M 23 35.960938 C 22.851562 35.949219 22.699219 35.921875 22.550781 35.898438 C 21.078125 35.1875 19.761719 33.398438 18.871094 30.898438 C 20.171875 30.300781 21.570312 29.929688 23 29.8125 Z M 15.890625 32.828125 C 16.398438 32.378906 16.941406 31.960938 17.519531 31.601562 C 18.019531 32.960938 18.628906 34.109375 19.339844 35.039062 C 18.058594 34.5 16.890625 33.75 15.890625 32.828125 M 12.039062 24.75 L 16.28125 24.75 C 16.328125 26.628906 16.601562 28.460938 17.058594 30.140625 C 16.269531 30.601562 15.53125 31.128906 14.851562 31.738281 C 13.230469 29.828125 12.199219 27.410156 12.039062 24.75 M 14.851562 16.261719 C 15.53125 16.871094 16.269531 17.398438 17.058594 17.859375 C 16.601562 19.539062 16.328125 21.371094 16.28125 23.25 L 12.039062 23.25 C 12.199219 20.589844 13.230469 18.171875 14.851562 16.261719 M 19.339844 12.949219 C 18.628906 13.890625 18.019531 15.039062 17.519531 16.398438 C 16.941406 16.039062 16.398438 15.621094 15.890625 15.171875 C 16.890625 14.25 18.058594 13.5 19.339844 12.949219 M 37.851562 26.0625 C 37.949219 25.390625 38 24.699219 38 24 C 38 16.621094 32.25 10.570312 25 10.050781 L 25 10 L 23 10 L 23 10.050781 C 15.75 10.570312 10 16.621094 10 24 C 10 31.378906 15.75 37.429688 23 37.949219 L 23 38 L 25 38 L 25 37.949219 C 27.078125 37.800781 29.039062 37.199219 30.78125 36.21875 C 31.949219 38.46875 34.289062 40 37 40 C 40.871094 40 44 36.871094 44 33 C 44 29.421875 41.320312 26.46875 37.851562 26.0625 "/>
</g>
</svg>
