<?xml version="1.0" encoding="UTF-8"?>
<svg xmlns="http://www.w3.org/2000/svg" xmlns:xlink="http://www.w3.org/1999/xlink" width="48pt" height="48pt" viewBox="0 0 48 48" version="1.1">
<g id="surface1">
<path style=" stroke:none;fill-rule:nonzero;fill:rgb(0%,0%,0%);fill-opacity:1;" d="M 36 18 L 25 18 L 25 15 L 36 15 Z M 23 18 L 12 18 L 12 15 L 23 15 Z M 23 34 L 14 34 L 14 20 L 23 20 Z M 26.414062 13 L 28.707031 10.707031 L 27.292969 9.292969 L 24 12.585938 L 20.707031 9.292969 L 19.292969 10.707031 L 21.585938 13 L 10 13 L 10 20 L 12 20 L 12 36 L 36 36 L 36 22 L 34 22 L 34 34 L 25 34 L 25 20 L 38 20 L 38 13 Z M 26.414062 13 "/>
</g>
</svg>
