<?xml version="1.0" encoding="UTF-8"?>
<svg xmlns="http://www.w3.org/2000/svg" xmlns:xlink="http://www.w3.org/1999/xlink" width="48pt" height="48pt" viewBox="0 0 48 48" version="1.1">
<g id="surface1">
<path style=" stroke:none;fill-rule:nonzero;fill:rgb(0%,0%,0%);fill-opacity:1;" d="M 33 28 L 31 28 L 31 26 L 33 26 Z M 16 14 L 33 14 L 33 16 L 16 16 Z M 16 20 L 33 20 C 34.105469 20 35 20.898438 35 22 L 35 32 C 35 33.101562 34.105469 34 33 34 L 15 34 C 13.898438 34 13 33.101562 13 32 L 13 18.976562 C 13.839844 19.609375 14.871094 20 16 20 M 37 16 L 37 10 L 16 10 C 13.242188 10 11 12.242188 11 15 L 11 32 C 11 34.203125 12.796875 36 15 36 L 33 36 C 35.203125 36 37 34.207031 37 32 L 37 22 C 37 19.792969 35.203125 18 33 18 L 16 18 C 14.347656 18 13 16.652344 13 15 C 13 13.347656 14.347656 12 16 12 L 35 12 L 35 16 Z M 37 16 "/>
</g>
</svg>
