<?xml version="1.0" encoding="UTF-8"?>
<svg xmlns="http://www.w3.org/2000/svg" xmlns:xlink="http://www.w3.org/1999/xlink" width="48pt" height="48pt" viewBox="0 0 48 48" version="1.1">
<g id="surface1">
<path style=" stroke:none;fill-rule:nonzero;fill:rgb(0%,0%,0%);fill-opacity:1;" d="M 24 25 C 20.203125 25 17 23.167969 17 21 L 17 19.8125 C 18.636719 21.152344 21.144531 22 24 22 C 26.855469 22 29.363281 21.152344 31 19.8125 L 31 21 C 31 23.167969 27.796875 25 24 25 M 24 30 C 20.203125 30 17 28.167969 17 26 L 17 24.8125 C 18.636719 26.152344 21.144531 27 24 27 C 26.855469 27 29.363281 26.152344 31 24.8125 L 31 26 C 31 28.167969 27.796875 30 24 30 M 24 35 C 20.203125 35 17 33.167969 17 31 L 17 29.8125 C 18.636719 31.152344 21.144531 32 24 32 C 26.855469 32 29.363281 31.152344 31 29.8125 L 31 31 C 31 33.167969 27.796875 35 24 35 M 24 12 C 27.796875 12 31 13.832031 31 16 C 31 18.167969 27.796875 20 24 20 C 20.203125 20 17 18.167969 17 16 C 17 13.832031 20.203125 12 24 12 M 24 10 C 18.953125 10 15 12.636719 15 16 L 15 31 C 15 34.363281 18.953125 37 24 37 C 29.046875 37 33 34.363281 33 31 L 33 16 C 33 12.636719 29.046875 10 24 10 "/>
</g>
</svg>
