<?xml version="1.0" encoding="UTF-8"?>
<svg xmlns="http://www.w3.org/2000/svg" xmlns:xlink="http://www.w3.org/1999/xlink" width="48pt" height="48pt" viewBox="0 0 48 48" version="1.1">
<g id="surface1">
<path style=" stroke:none;fill-rule:nonzero;fill:rgb(0%,0%,0%);fill-opacity:1;" d="M 20 25.5 L 20.753906 25.5 L 20.058594 23 L 21.78125 23 L 22.488281 26 L 23.179688 23 L 24.71875 23 L 25.488281 26 L 26.230469 23 L 27.941406 23 L 27.246094 25.5 L 28 25.5 L 28 26.5 L 26.972656 26.5 L 26.28125 29 L 24.71875 29 L 23.96875 26.089844 L 23.269531 29 L 21.71875 29 L 21.027344 26.5 L 20 26.5 Z M 38 30.558594 C 38 30.902344 37.027344 31.5625 35.5 31.5625 C 33.972656 31.5625 33 30.902344 33 30.558594 L 33 29.621094 C 33.710938 29.9375 34.566406 30.125 35.5 30.125 C 36.433594 30.125 37.289062 29.9375 38 29.621094 Z M 35.5 35 C 33.972656 35 33 34.34375 33 33.996094 L 33 33.082031 C 33.707031 33.386719 34.558594 33.5625 35.5 33.5625 C 36.441406 33.5625 37.292969 33.386719 38 33.082031 L 38 33.996094 C 38 34.34375 37.027344 35 35.5 35 M 35.5 26 C 37.050781 26 38 26.6875 38 27.0625 C 38 27.4375 37.050781 28.125 35.5 28.125 C 33.949219 28.125 33 27.4375 33 27.0625 C 33 26.6875 33.949219 26 35.5 26 M 39.992188 27 C 39.941406 25.3125 37.992188 24 35.5 24 C 33.007812 24 31.058594 25.3125 31.007812 27 L 31 27 L 31 33.996094 C 31 35.710938 32.933594 37 35.5 37 C 38.066406 37 40 35.710938 40 33.996094 L 40 27 Z M 27.355469 14 L 20.644531 14 L 19.28125 11 L 28.71875 11 Z M 33 22 L 35 22 C 35 19.785156 33.898438 17.730469 32.058594 16.503906 L 29.261719 14.640625 L 30.820312 11.210938 C 31.0625 10.757812 31.058594 10.210938 30.804688 9.761719 C 30.539062 9.292969 30.039062 9 29.496094 9 L 18.503906 9 C 17.960938 9 17.460938 9.292969 17.195312 9.761719 C 16.941406 10.210938 16.9375 10.757812 17.179688 11.210938 L 18.738281 14.640625 L 15.941406 16.503906 C 14.101562 17.730469 13 19.785156 13 22 L 13 33.453125 C 13 35.410156 14.59375 37 16.546875 37 L 29 37 L 29 35 L 16.546875 35 C 15.691406 35 15 34.304688 15 33.453125 L 15 22 C 15 20.457031 15.765625 19.023438 17.050781 18.167969 L 20.304688 16 L 27.695312 16 L 30.949219 18.167969 C 32.234375 19.023438 33 20.457031 33 22 "/>
</g>
</svg>
