<?xml version="1.0" encoding="UTF-8"?>
<svg xmlns="http://www.w3.org/2000/svg" xmlns:xlink="http://www.w3.org/1999/xlink" width="48pt" height="48pt" viewBox="0 0 48 48" version="1.1">
<g id="surface1">
<path style=" stroke:none;fill-rule:nonzero;fill:rgb(0%,0%,0%);fill-opacity:1;" d="M 13 25 L 17 25 L 17 23 L 13 23 Z M 31 25 L 35 25 L 35 23 L 31 23 Z M 27.25 23.5 L 28 23.5 L 28 24.5 L 26.972656 24.5 L 26.28125 27 L 24.722656 27 L 23.972656 24.089844 L 23.269531 27 L 21.722656 27 L 21.027344 24.5 L 20 24.5 L 20 23.5 L 20.753906 23.5 L 20.0625 21 L 21.78125 21 L 22.488281 24 L 23.179688 21 L 24.722656 21 L 25.488281 24 L 26.230469 21 L 27.941406 21 Z M 38 16 L 10 16 L 10 32 L 38 32 Z M 40 14 L 40 34 L 8 34 L 8 14 Z M 40 14 "/>
</g>
</svg>
