<?xml version="1.0" encoding="UTF-8"?>
<svg xmlns="http://www.w3.org/2000/svg" xmlns:xlink="http://www.w3.org/1999/xlink" width="48pt" height="48pt" viewBox="0 0 48 48" version="1.1">
<g id="surface1">
<path style=" stroke:none;fill-rule:nonzero;fill:rgb(0%,0%,0%);fill-opacity:1;" d="M 41 32 L 38 32 L 38 29 L 36 29 L 36 34 L 41 34 Z M 10 32 L 30.078125 32 C 30.5625 28.601562 33.46875 26 37 26 C 37.339844 26 37.679688 26.019531 38 26.078125 L 38 16 L 10 16 Z M 44 33 C 44 36.871094 40.871094 40 37 40 C 33.46875 40 30.5625 37.398438 30.078125 34 L 8 34 L 8 14 L 40 14 L 40 26.679688 C 42.371094 27.800781 44 30.199219 44 33 M 27.9375 21 L 26.230469 21 L 25.488281 24 L 24.71875 21 L 23.179688 21 L 22.488281 24 L 21.78125 21 L 20.0625 21 L 20.75 23.5 L 20 23.5 L 20 24.5 L 21.03125 24.5 L 21.71875 27 L 23.269531 27 L 23.96875 24.089844 L 24.71875 27 L 26.28125 27 L 26.96875 24.5 L 28 24.5 L 28 23.5 L 27.25 23.5 Z M 13 25 L 17 25 L 17 23 L 13 23 Z M 35 25 L 31 25 L 31 23 L 35 23 Z M 35 25 "/>
</g>
</svg>
