<?xml version="1.0" encoding="UTF-8"?>
<svg xmlns="http://www.w3.org/2000/svg" xmlns:xlink="http://www.w3.org/1999/xlink" width="48pt" height="48pt" viewBox="0 0 48 48" version="1.1">
<g id="surface1">
<path style=" stroke:none;fill-rule:nonzero;fill:rgb(0%,0%,0%);fill-opacity:1;" d="M 23.027344 24.5 L 22 24.5 L 22 23.5 L 22.753906 23.5 L 22.058594 21 L 23.78125 21 L 24.492188 24 L 25.179688 21 L 26.71875 21 L 27.492188 24 L 28.230469 21 L 29.941406 21 L 29.25 23.5 L 30 23.5 L 30 24.5 L 28.972656 24.5 L 28.28125 27 L 26.71875 27 L 25.96875 24.089844 L 25.269531 27 L 23.71875 27 Z M 40 23 L 34 23 L 34 25 L 40 25 L 40 32 L 10.414062 32 L 13 29.414062 L 13 25 L 18 25 L 18 23 L 13 23 L 13 18.585938 L 10.414062 16 L 40 16 Z M 11 19.414062 L 11 28.585938 L 8 31.585938 L 8 16.414062 Z M 6 34 L 42 34 L 42 14 L 6 14 Z M 6 34 "/>
</g>
</svg>
