<?xml version="1.0" encoding="UTF-8"?>
<svg xmlns="http://www.w3.org/2000/svg" xmlns:xlink="http://www.w3.org/1999/xlink" width="48pt" height="48pt" viewBox="0 0 48 48" version="1.1">
<g id="surface1">
<path style=" stroke:none;fill-rule:nonzero;fill:rgb(0%,0%,0%);fill-opacity:1;" d="M 30.027344 31.707031 L 33.292969 34.976562 L 34.707031 33.5625 L 31.4375 30.292969 Z M 13.027344 33.5625 L 14.4375 34.976562 L 17.707031 31.707031 L 16.292969 30.292969 Z M 23 37 L 25 37 L 25 32 L 23 32 Z M 34.707031 14.4375 L 33.292969 13.023438 L 30.027344 16.292969 L 31.4375 17.707031 Z M 17.707031 16.292969 L 14.4375 13.023438 L 13.027344 14.4375 L 16.292969 17.707031 Z M 25 11 L 23 11 L 23 16 L 25 16 Z M 29.886719 24 C 29.347656 22.300781 26.828125 21 24 21 C 21.171875 21 18.652344 22.300781 18.113281 24 C 18.652344 25.699219 21.171875 27 24 27 C 26.828125 27 29.347656 25.699219 29.886719 24 M 31.898438 23.789062 L 31.945312 24 L 31.898438 24.210938 C 31.300781 26.984375 27.980469 29 24 29 C 20.019531 29 16.699219 26.984375 16.101562 24.210938 L 16.054688 24 L 16.101562 23.789062 C 16.699219 21.015625 20.019531 19 24 19 C 27.980469 19 31.300781 21.015625 31.898438 23.789062 M 26 24 C 26 25.105469 25.105469 26 24 26 C 22.894531 26 22 25.105469 22 24 C 22 22.894531 22.894531 22 24 22 C 25.105469 22 26 22.894531 26 24 "/>
</g>
</svg>
