<?xml version="1.0" encoding="UTF-8"?>
<svg xmlns="http://www.w3.org/2000/svg" xmlns:xlink="http://www.w3.org/1999/xlink" width="48pt" height="48pt" viewBox="0 0 48 48" version="1.1">
<g id="surface1">
<path style=" stroke:none;fill-rule:nonzero;fill:rgb(0%,0%,0%);fill-opacity:1;" d="M 30 20 C 27.792969 20 26 18.207031 26 16 C 26 13.792969 27.792969 12 30 12 C 32.207031 12 34 13.792969 34 16 C 34 18.207031 32.207031 20 30 20 M 30 10 C 28.460938 10 27.0625 10.585938 26 11.539062 L 26 10 L 24 10 L 24 15 L 21 15 C 18.242188 15 16 17.242188 16 20 L 16 22 L 11 22 L 11 24 L 12.539062 24 C 11.585938 25.0625 11 26.464844 11 28 C 11 30.992188 13.203125 33.480469 16.070312 33.929688 C 16.519531 36.796875 19.007812 39 22 39 C 25.308594 39 28 36.308594 28 33 L 26 33 C 26 35.207031 24.207031 37 22 37 C 20.140625 37 18.589844 35.722656 18.140625 34 L 19 34 L 19 32 L 17 32 C 14.792969 32 13 30.207031 13 28 C 13 25.792969 14.792969 24 17 24 L 21 24 L 21 22 L 18 22 L 18 20 C 18 18.347656 19.347656 17 21 17 L 24 17 L 24 22 L 26 22 L 26 20.460938 C 27.0625 21.414062 28.460938 22 30 22 C 33.308594 22 36 19.308594 36 16 C 36 12.691406 33.308594 10 30 10 "/>
</g>
</svg>
