<?xml version="1.0" encoding="UTF-8"?>
<svg xmlns="http://www.w3.org/2000/svg" xmlns:xlink="http://www.w3.org/1999/xlink" width="48pt" height="48pt" viewBox="0 0 48 48" version="1.1">
<g id="surface1">
<path style=" stroke:none;fill-rule:nonzero;fill:rgb(0%,0%,0%);fill-opacity:1;" d="M 23 10 L 25 10 L 25 13 L 23 13 Z M 35 25 C 33.699219 25 32.601562 24.160156 32.1875 23 L 37.816406 23 C 37.402344 24.160156 36.300781 25 35 25 M 35.382812 17 L 37.382812 21 L 32.617188 21 L 34.617188 17 Z M 13 25 C 11.699219 25 10.601562 24.160156 10.1875 23 L 15.816406 23 C 15.402344 24.160156 14.300781 25 13 25 M 12.617188 17 L 13.382812 17 L 15.382812 21 L 10.617188 21 Z M 36.617188 15 L 11.382812 15 L 8.382812 21 L 7 21 L 7 23 L 8.101562 23 C 8.566406 25.277344 10.585938 27 13 27 C 15.414062 27 17.433594 25.277344 17.898438 23 L 19 23 L 19 21 L 17.617188 21 L 15.617188 17 L 23 17 L 23 36 L 19 36 L 19 38 L 29 38 L 29 36 L 25 36 L 25 17 L 32.382812 17 L 30.382812 21 L 29 21 L 29 23 L 30.101562 23 C 30.566406 25.277344 32.585938 27 35 27 C 37.414062 27 39.433594 25.277344 39.898438 23 L 41 23 L 41 21 L 39.617188 21 Z M 36.617188 15 "/>
</g>
</svg>
