<?xml version="1.0" encoding="UTF-8"?>
<svg xmlns="http://www.w3.org/2000/svg" xmlns:xlink="http://www.w3.org/1999/xlink" width="48pt" height="48pt" viewBox="0 0 48 48" version="1.1">
<g id="surface1">
<path style=" stroke:none;fill-rule:nonzero;fill:rgb(0%,0%,0%);fill-opacity:1;" d="M 25 35 L 11 35 L 11 37 L 25 37 Z M 26.851562 17.777344 L 25.4375 16.363281 L 18.363281 23.4375 L 19.777344 24.851562 Z M 23.3125 11.414062 L 22.605469 10.707031 L 24.019531 9.292969 L 24.726562 10 L 32.507812 17.777344 L 33.214844 18.484375 L 31.800781 19.898438 L 31.09375 19.191406 L 26.851562 23.4375 L 37.414062 34 L 36 35.414062 L 25.4375 24.851562 L 21.191406 29.09375 L 21.898438 29.800781 L 20.484375 31.214844 L 19.777344 30.507812 L 12 22.726562 L 11.292969 22.019531 L 12.707031 20.605469 L 13.414062 21.3125 Z M 14.828125 22.726562 L 19.777344 27.679688 L 24.019531 23.4375 L 24.019531 23.433594 L 25.433594 22.019531 L 25.4375 22.019531 L 29.679688 17.777344 L 24.726562 12.828125 Z M 14.828125 22.726562 "/>
</g>
</svg>
