<?xml version="1.0" encoding="UTF-8"?>
<svg xmlns="http://www.w3.org/2000/svg" xmlns:xlink="http://www.w3.org/1999/xlink" width="48pt" height="48pt" viewBox="0 0 48 48" version="1.1">
<g id="surface1">
<path style=" stroke:none;fill-rule:nonzero;fill:rgb(0%,0%,0%);fill-opacity:1;" d="M 31.335938 27.09375 L 27.800781 23.558594 L 23.554688 27.796875 L 27.09375 31.335938 C 28.261719 32.503906 30.164062 32.5 31.335938 31.335938 C 32.503906 30.164062 32.503906 28.261719 31.335938 27.09375 M 20.726562 24.972656 L 22.140625 26.386719 L 26.386719 22.144531 L 24.972656 20.726562 Z M 36.285156 34.871094 L 34.871094 36.285156 L 31.972656 33.386719 C 31.136719 33.9375 30.175781 34.210938 29.214844 34.210938 C 27.933594 34.210938 26.652344 33.722656 25.679688 32.75 L 17.898438 24.972656 L 24.972656 17.898438 L 32.75 25.679688 C 34.453125 27.386719 34.667969 30.03125 33.382812 31.972656 Z M 9.414062 20.726562 L 7.292969 22.851562 L 8.707031 24.265625 L 10.828125 22.140625 C 12.824219 20.148438 14.714844 21.792969 15.074219 22.144531 L 16.484375 20.726562 C 15.261719 19.503906 12.210938 17.929688 9.414062 20.726562 M 28.507812 14.363281 L 27.09375 12.949219 L 25.679688 14.363281 L 27.09375 15.777344 Z M 12.949219 27.09375 L 14.363281 28.503906 L 15.777344 27.09375 L 14.363281 25.679688 Z M 20.726562 19.3125 L 13.65625 12.242188 L 12.242188 13.65625 L 19.3125 20.726562 Z M 20.726562 16.484375 C 19.503906 15.261719 17.933594 12.210938 20.726562 9.414062 L 22.851562 7.292969 L 24.265625 8.707031 L 22.140625 10.828125 C 20.144531 12.824219 21.796875 14.714844 22.144531 15.074219 Z M 20.726562 16.484375 "/>
</g>
</svg>
