<?xml version="1.0" encoding="UTF-8"?>
<svg xmlns="http://www.w3.org/2000/svg" xmlns:xlink="http://www.w3.org/1999/xlink" width="48pt" height="48pt" viewBox="0 0 48 48" version="1.1">
<g id="surface1">
<path style=" stroke:none;fill-rule:nonzero;fill:rgb(0%,0%,0%);fill-opacity:1;" d="M 33.96875 35.386719 L 31.851562 33.265625 L 29.730469 35.386719 L 28.316406 33.972656 L 30.4375 31.851562 L 29.019531 30.433594 L 26.898438 32.558594 L 25.484375 31.144531 L 27.605469 29.019531 L 20.792969 22.207031 L 22.207031 20.792969 L 35.382812 33.972656 Z M 19.121094 19.121094 C 17.949219 20.289062 16.046875 20.289062 14.878906 19.121094 C 14.3125 18.554688 14 17.800781 14 17 C 14 16.199219 14.3125 15.445312 14.878906 14.878906 C 15.460938 14.292969 16.230469 14 17 14 C 17.769531 14 18.535156 14.292969 19.121094 14.878906 C 19.6875 15.445312 20 16.199219 20 17 C 20 17.800781 19.6875 18.554688 19.121094 19.121094 M 20.535156 13.464844 C 18.585938 11.515625 15.414062 11.515625 13.464844 13.464844 C 12.519531 14.410156 12 15.664062 12 17 C 12 18.335938 12.519531 19.589844 13.464844 20.535156 C 14.441406 21.511719 15.71875 21.996094 17 21.996094 C 18.28125 21.996094 19.5625 21.511719 20.535156 20.535156 C 21.480469 19.589844 22 18.335938 22 17 C 22 15.664062 21.480469 14.410156 20.535156 13.464844 "/>
</g>
</svg>
