<?xml version="1.0" encoding="UTF-8"?>
<svg xmlns="http://www.w3.org/2000/svg" xmlns:xlink="http://www.w3.org/1999/xlink" width="48pt" height="48pt" viewBox="0 0 48 48" version="1.1">
<g id="surface1">
<path style=" stroke:none;fill-rule:nonzero;fill:rgb(0%,0%,0%);fill-opacity:1;" d="M 28.832031 31.65625 L 31.65625 28.832031 C 32.019531 29.207031 32.222656 29.699219 32.222656 30.222656 C 32.222656 30.757812 32.015625 31.257812 31.636719 31.636719 C 30.886719 32.382812 29.589844 32.386719 28.832031 31.65625 M 12.292969 13.707031 C 12.105469 13.519531 12 13.261719 12 13 L 12 12 L 13 12 C 13.265625 12 13.519531 12.105469 13.707031 12.292969 L 29.535156 28.121094 L 28.121094 29.535156 Z M 37.207031 35.792969 L 33.65625 32.242188 C 34.015625 31.632812 34.222656 30.945312 34.222656 30.222656 C 34.222656 29.164062 33.8125 28.171875 33.070312 27.417969 L 33.777344 26.707031 L 32.363281 25.292969 L 30.949219 26.707031 L 15.121094 10.878906 C 14.554688 10.3125 13.800781 10 13 10 L 10 10 L 10 13 C 10 13.800781 10.3125 14.554688 10.878906 15.121094 L 26.707031 30.949219 L 25.292969 32.363281 L 26.707031 33.777344 L 27.417969 33.066406 C 28.171875 33.808594 29.164062 34.222656 30.222656 34.222656 C 30.945312 34.222656 31.636719 34.015625 32.242188 33.65625 L 35.792969 37.207031 Z M 37.207031 35.792969 "/>
</g>
</svg>
