<?xml version="1.0" encoding="UTF-8"?>
<svg xmlns="http://www.w3.org/2000/svg" xmlns:xlink="http://www.w3.org/1999/xlink" width="48pt" height="48pt" viewBox="0 0 48 48" version="1.1">
<g id="surface1">
<path style=" stroke:none;fill-rule:nonzero;fill:rgb(0%,0%,0%);fill-opacity:1;" d="M 30.832031 31.65625 L 33.652344 28.832031 C 34.019531 29.207031 34.222656 29.699219 34.222656 30.222656 C 34.222656 30.757812 34.015625 31.257812 33.636719 31.636719 C 32.886719 32.382812 31.589844 32.386719 30.832031 31.65625 M 14 13 L 14 12 L 15 12 C 15.261719 12 15.515625 12.105469 15.703125 12.296875 L 22.589844 19.175781 L 22.585938 19.179688 L 24.945312 21.535156 L 31.535156 28.121094 L 30.121094 29.535156 L 14.285156 13.695312 C 14.105469 13.515625 14 13.261719 14 13 M 32.308594 12.289062 C 32.484375 12.105469 32.738281 12 33 12 L 34 12 L 34 13 C 34 13.261719 33.894531 13.515625 33.703125 13.703125 L 26.828125 20.585938 L 26.273438 20.035156 L 25.417969 19.175781 Z M 17.878906 29.535156 L 16.464844 28.121094 L 21.171875 23.414062 L 22.585938 24.832031 Z M 14.363281 31.636719 C 13.984375 31.257812 13.777344 30.757812 13.777344 30.222656 C 13.777344 29.699219 13.980469 29.207031 14.34375 28.832031 L 17.167969 31.65625 C 16.410156 32.386719 15.113281 32.382812 14.363281 31.636719 M 39 35.585938 L 35.65625 32.242188 C 36.015625 31.632812 36.222656 30.945312 36.222656 30.222656 C 36.222656 29.164062 35.808594 28.167969 35.066406 27.417969 L 35.777344 26.707031 L 34.363281 25.292969 L 32.949219 26.707031 L 28.242188 22 L 35.105469 15.125 C 35.675781 14.574219 36 13.800781 36 13 L 36 10 L 33 10 C 32.199219 10 31.425781 10.324219 30.882812 10.882812 L 24.003906 17.761719 L 17.128906 10.890625 C 16.574219 10.324219 15.800781 10 15 10 L 12 10 L 12 13 C 12 13.800781 12.324219 14.574219 12.882812 15.117188 L 19.757812 21.996094 L 15.050781 26.707031 L 13.636719 25.292969 L 12.222656 26.707031 L 12.929688 27.417969 C 12.1875 28.171875 11.777344 29.164062 11.777344 30.222656 C 11.777344 30.945312 11.984375 31.632812 12.34375 32.242188 L 9 35.585938 L 10.414062 37 L 13.757812 33.65625 C 14.363281 34.015625 15.054688 34.222656 15.777344 34.222656 C 16.835938 34.222656 17.832031 33.808594 18.582031 33.066406 L 19.292969 33.777344 L 20.707031 32.363281 L 19.292969 30.953125 L 24.003906 26.242188 L 28.707031 30.949219 L 27.292969 32.363281 L 28.707031 33.777344 L 29.417969 33.066406 C 30.167969 33.808594 31.164062 34.222656 32.222656 34.222656 C 32.945312 34.222656 33.636719 34.015625 34.242188 33.65625 L 37.585938 37 Z M 39 35.585938 "/>
</g>
</svg>
