<?xml version="1.0" encoding="UTF-8"?>
<svg xmlns="http://www.w3.org/2000/svg" xmlns:xlink="http://www.w3.org/1999/xlink" width="48pt" height="48pt" viewBox="0 0 48 48" version="1.1">
<g id="surface1">
<path style=" stroke:none;fill-rule:nonzero;fill:rgb(0%,0%,0%);fill-opacity:1;" d="M 25 21 C 25 21.550781 24.550781 22 24 22 C 23.449219 22 23 21.550781 23 21 C 23 20.449219 23.449219 20 24 20 C 24.550781 20 25 20.449219 25 21 M 21 21 C 21 22.300781 21.839844 23.402344 23 23.816406 L 23 28 L 25 28 L 25 23.816406 C 26.160156 23.402344 27 22.300781 27 21 C 27 19.347656 25.652344 18 24 18 C 22.347656 18 21 19.347656 21 21 M 34 24 C 34 28.261719 29.722656 32.921875 24 34.941406 C 18.277344 32.921875 14 28.261719 14 24 L 14 13.835938 L 24 12.015625 L 34 13.835938 Z M 24 9.984375 L 12 12.164062 L 12 24 C 12 29.246094 16.914062 34.691406 23.683594 36.949219 L 24 37.054688 L 24.316406 36.949219 C 31.085938 34.691406 36 29.246094 36 24 L 36 12.164062 Z M 24 9.984375 "/>
</g>
</svg>
