<?xml version="1.0" encoding="UTF-8"?>
<svg xmlns="http://www.w3.org/2000/svg" xmlns:xlink="http://www.w3.org/1999/xlink" width="48pt" height="48pt" viewBox="0 0 48 48" version="1.1">
<g id="surface1">
<path style=" stroke:none;fill-rule:nonzero;fill:rgb(0%,0%,0%);fill-opacity:1;" d="M 20 19 L 18 19 L 18 15 C 18 11.691406 20.691406 9 24 9 C 27.308594 9 30 11.691406 30 15 L 30 19 L 28 19 L 28 15 C 28 12.792969 26.207031 11 24 11 C 21.792969 11 20 12.792969 20 15 Z M 24 28 C 23.449219 28 23 27.550781 23 27 C 23 26.449219 23.449219 26 24 26 C 24.550781 26 25 26.449219 25 27 C 25 27.550781 24.550781 28 24 28 M 24 24 C 22.347656 24 21 25.347656 21 27 C 21 28.300781 21.839844 29.402344 23 29.816406 L 23 32 L 25 32 L 25 29.816406 C 26.160156 29.402344 27 28.300781 27 27 C 27 25.347656 25.652344 24 24 24 M 36 36.410156 L 35 35.410156 L 33 33.421875 L 32.789062 33.210938 L 34.210938 31.789062 L 35 32.578125 L 36 33.589844 L 40.289062 29.289062 L 41.710938 30.710938 Z M 15 34 L 15 22 L 33 22 L 33 27.261719 C 31.179688 28.519531 30 30.621094 30 33 C 30 33.339844 30.019531 33.679688 30.078125 34 Z M 37 26 C 36.300781 26 35.628906 26.101562 35 26.289062 L 35 20 L 13 20 L 13 36 L 30.679688 36 C 31.800781 38.371094 34.199219 40 37 40 C 40.871094 40 44 36.871094 44 33 C 44 29.128906 40.871094 26 37 26 "/>
</g>
</svg>
