<?xml version="1.0" encoding="UTF-8"?>
<svg xmlns="http://www.w3.org/2000/svg" xmlns:xlink="http://www.w3.org/1999/xlink" width="48pt" height="48pt" viewBox="0 0 48 48" version="1.1">
<g id="surface1">
<path style=" stroke:none;fill-rule:nonzero;fill:rgb(0%,0%,0%);fill-opacity:1;" d="M 20 19 L 18 19 L 18 15 C 18 11.691406 20.691406 9 24 9 C 27.308594 9 30 11.691406 30 15 L 28 15 C 28 12.792969 26.207031 11 24 11 C 21.792969 11 20 12.792969 20 15 Z M 24 26 C 24.550781 26 25 26.449219 25 27 C 25 27.550781 24.550781 28 24 28 C 23.449219 28 23 27.550781 23 27 C 23 26.449219 23.449219 26 24 26 M 23 29.816406 L 23 32 L 25 32 L 25 29.816406 C 26.160156 29.402344 27 28.300781 27 27 C 27 25.347656 25.652344 24 24 24 C 22.347656 24 21 25.347656 21 27 C 21 28.300781 21.839844 29.402344 23 29.816406 M 33 34 L 15 34 L 15 22 L 33 22 Z M 13 36 L 35 36 L 35 20 L 13 20 Z M 13 36 "/>
</g>
</svg>
