<?xml version="1.0" encoding="UTF-8"?>
<svg xmlns="http://www.w3.org/2000/svg" xmlns:xlink="http://www.w3.org/1999/xlink" width="48pt" height="48pt" viewBox="0 0 48 48" version="1.1">
<g id="surface1">
<path style=" stroke:none;fill-rule:nonzero;fill:rgb(0%,0%,0%);fill-opacity:1;" d="M 36 17 L 25 17 L 25 13 L 36 13 Z M 36 23 L 31 23 L 31 19 L 36 19 Z M 36 29 L 25 29 L 25 25 L 36 25 Z M 36 35 L 31 35 L 31 31 L 36 31 Z M 29 35 L 19 35 L 19 31 L 29 31 Z M 17 35 L 12 35 L 12 31 L 17 31 Z M 12 25 L 23 25 L 23 29 L 12 29 Z M 12 19 L 17 19 L 17 23 L 12 23 Z M 29 23 L 19 23 L 19 19 L 29 19 Z M 12 13 L 23 13 L 23 17 L 12 17 Z M 10 37 L 38 37 L 38 11 L 10 11 Z M 10 37 "/>
</g>
</svg>
