<?xml version="1.0" encoding="UTF-8"?>
<svg xmlns="http://www.w3.org/2000/svg" xmlns:xlink="http://www.w3.org/1999/xlink" width="48pt" height="48pt" viewBox="0 0 48 48" version="1.1">
<g id="surface1">
<path style=" stroke:none;fill-rule:nonzero;fill:rgb(0%,0%,0%);fill-opacity:1;" d="M 18 26 L 18 23 L 23 23 L 23 31.910156 C 20.167969 31.433594 18 28.96875 18 26 M 30 23 L 30 26 C 30 28.96875 27.832031 31.433594 25 31.910156 L 25 23 Z M 24 17 C 26.605469 17 28.824219 18.675781 29.648438 21 L 18.351562 21 C 19.175781 18.675781 21.394531 17 24 17 M 22 15 C 22 13.898438 22.898438 13 24 13 C 25.101562 13 26 13.898438 26 15 L 26 15.265625 C 25.359375 15.097656 24.691406 15 24 15 C 23.308594 15 22.640625 15.097656 22 15.265625 Z M 35 26 L 35 24 L 32 24 L 32 23 C 32 21.152344 31.367188 19.457031 30.3125 18.101562 L 33 15.414062 L 33 12 L 31 12 L 31 14.585938 L 28.898438 16.6875 C 28.613281 16.46875 28.3125 16.265625 28 16.082031 L 28 15 C 28 13.140625 26.71875 11.589844 25 11.144531 L 25 9 L 23 9 L 23 11.144531 C 21.28125 11.589844 20 13.140625 20 15 L 20 16.082031 C 19.6875 16.265625 19.386719 16.46875 19.101562 16.6875 L 17 14.585938 L 17 12 L 15 12 L 15 15.414062 L 17.6875 18.101562 C 16.632812 19.457031 16 21.152344 16 23 L 16 24 L 13 24 L 13 26 L 16 26 C 16 27.847656 16.632812 29.542969 17.6875 30.898438 L 15 33.585938 L 15 36 L 17 36 L 17 34.414062 L 19.101562 32.3125 C 20.457031 33.363281 22.152344 34 24 34 C 25.847656 34 27.542969 33.363281 28.898438 32.3125 L 31 34.414062 L 31 36 L 33 36 L 33 33.585938 L 30.3125 30.898438 C 31.367188 29.542969 32 27.847656 32 26 Z M 35 26 "/>
</g>
</svg>
