<?xml version="1.0" encoding="UTF-8"?>
<svg xmlns="http://www.w3.org/2000/svg" xmlns:xlink="http://www.w3.org/1999/xlink" width="48pt" height="48pt" viewBox="0 0 48 48" version="1.1">
<g id="surface1">
<path style=" stroke:none;fill-rule:nonzero;fill:rgb(0%,0%,0%);fill-opacity:1;" d="M 22 21 L 22 23 L 26 23 L 26 21 C 26 19.894531 25.105469 19 24 19 C 22.894531 19 22 19.894531 22 21 M 25.199219 17.199219 C 25.199219 16.539062 24.660156 16 24 16 C 23.339844 16 22.800781 16.539062 22.800781 17.199219 C 22.800781 17.863281 23.339844 18.398438 24 18.398438 C 24.660156 18.398438 25.199219 17.863281 25.199219 17.199219 M 29 27 L 19 27 L 19 25 L 29 25 Z M 29 31 L 19 31 L 19 29 L 29 29 Z M 32 35 L 16 35 L 16 13 L 32 13 Z M 14 37 L 34 37 L 34 11 L 14 11 Z M 14 37 "/>
</g>
</svg>
