<?xml version="1.0" encoding="UTF-8"?>
<svg xmlns="http://www.w3.org/2000/svg" xmlns:xlink="http://www.w3.org/1999/xlink" width="48pt" height="48pt" viewBox="0 0 48 48" version="1.1">
<g id="surface1">
<path style=" stroke:none;fill-rule:nonzero;fill:rgb(0%,0%,0%);fill-opacity:1;" d="M 23 27 L 34 27 L 34 25 L 23 25 Z M 23 22 L 34 22 L 34 20 L 23 20 Z M 37 15 L 11 15 L 11 33 L 37 33 Z M 39 13 L 39 35 L 9 35 L 9 13 Z M 17 22.398438 C 17.660156 22.398438 18.199219 21.863281 18.199219 21.199219 C 18.199219 20.539062 17.660156 20 17 20 C 16.339844 20 15.800781 20.539062 15.800781 21.199219 C 15.800781 21.863281 16.339844 22.398438 17 22.398438 M 19 25 L 19 27 L 15 27 L 15 25 C 15 23.894531 15.894531 23 17 23 C 18.105469 23 19 23.894531 19 25 "/>
</g>
</svg>
