<?xml version="1.0" encoding="UTF-8"?>
<svg xmlns="http://www.w3.org/2000/svg" xmlns:xlink="http://www.w3.org/1999/xlink" width="48pt" height="48pt" viewBox="0 0 48 48" version="1.1">
<g id="surface1">
<path style=" stroke:none;fill-rule:nonzero;fill:rgb(0%,0%,0%);fill-opacity:1;" d="M 37 17 L 37 15 L 11 15 L 11 17 Z M 37 19 L 11 19 L 11 21 L 37 21 Z M 37.003906 33 L 37 23 L 11 23 L 11 33 Z M 39 15 L 39 33 C 39 34.101562 38.105469 35 37 35 L 11 35 C 9.894531 35 9 34.101562 9 33 L 9 15 C 9 13.898438 9.894531 13 11 13 L 37 13 C 38.105469 13 39 13.898438 39 15 M 13 27 L 22 27 L 22 29 L 13 29 Z M 13 27 "/>
</g>
</svg>
