<?xml version="1.0" encoding="UTF-8"?>
<svg xmlns="http://www.w3.org/2000/svg" xmlns:xlink="http://www.w3.org/1999/xlink" width="48pt" height="48pt" viewBox="0 0 48 48" version="1.1">
<g id="surface1">
<path style=" stroke:none;fill-rule:nonzero;fill:rgb(0%,0%,0%);fill-opacity:1;" d="M 38 37 L 36 37 L 36 35 L 38 35 Z M 11 33 L 11 16.0625 L 22.148438 24.820312 C 22.6875 25.238281 23.351562 25.460938 24 25.460938 C 24.648438 25.460938 25.3125 25.238281 25.851562 24.820312 L 37 16.0625 L 37 26 C 33.128906 26 30 29.128906 30 33 Z M 35.109375 15 L 24.621094 23.238281 C 24.25 23.53125 23.75 23.53125 23.378906 23.238281 L 12.890625 15 Z M 38 34 L 36 34 L 36 29 L 38 29 Z M 39 26.289062 L 39 13 L 9 13 L 9 35 L 30.289062 35 C 31.148438 37.890625 33.820312 40 37 40 C 40.871094 40 44 36.871094 44 33 C 44 29.820312 41.890625 27.148438 39 26.289062 "/>
</g>
</svg>
