<?xml version="1.0" encoding="UTF-8"?>
<svg xmlns="http://www.w3.org/2000/svg" xmlns:xlink="http://www.w3.org/1999/xlink" width="48pt" height="48pt" viewBox="0 0 48 48" version="1.1">
<g id="surface1">
<path style=" stroke:none;fill-rule:nonzero;fill:rgb(0%,0%,0%);fill-opacity:1;" d="M 41 31 L 41 32 L 39 33 L 39 31 Z M 37 31 L 37 33 L 35 32 L 35 31 Z M 40.398438 34.179688 L 40 34.480469 L 40 36 L 36 36 L 36 34.480469 L 35.601562 34.179688 C 35.160156 33.851562 34.8125 33.449219 34.550781 33 C 34.1875 32.398438 34 31.710938 34 31 C 34 29.140625 35.269531 27.570312 37 27.128906 C 37.320312 27.039062 37.648438 27 38 27 C 38.351562 27 38.679688 27.039062 39 27.128906 C 40.730469 27.570312 42 29.140625 42 31 C 42 32.25 41.421875 33.410156 40.398438 34.179688 M 11 33 L 11 16.0625 L 22.148438 24.820312 C 22.6875 25.238281 23.351562 25.460938 24 25.460938 C 24.648438 25.460938 25.3125 25.238281 25.851562 24.820312 L 37 16.0625 L 37 25.089844 C 34.160156 25.5625 32 28.03125 32 31 C 32 31.6875 32.121094 32.371094 32.351562 33 Z M 35.109375 15 L 24.621094 23.238281 C 24.25 23.53125 23.75 23.53125 23.378906 23.238281 L 12.890625 15 Z M 39 25.089844 L 39 13 L 9 13 L 9 35 L 33.550781 35 C 33.6875 35.160156 33.839844 35.3125 34 35.449219 L 34 38 L 42 38 L 42 35.449219 C 43.28125 34.3125 44 32.710938 44 31 C 44 28.03125 41.839844 25.5625 39 25.089844 "/>
</g>
</svg>
