<?xml version="1.0" encoding="UTF-8"?>
<svg xmlns="http://www.w3.org/2000/svg" xmlns:xlink="http://www.w3.org/1999/xlink" width="48pt" height="48pt" viewBox="0 0 48 48" version="1.1">
<g id="surface1">
<path style=" stroke:none;fill-rule:nonzero;fill:rgb(0%,0%,0%);fill-opacity:1;" d="M 28 37 L 30 37 L 30 35 L 28 35 Z M 20 11 L 18 11 L 18 13 L 20 13 Z M 26 11 L 22 11 L 22 13 L 26 13 C 30.964844 13 35 17.035156 35 22 L 35 23 L 33 23 L 36 27 L 39 23 L 37 23 L 37 22 C 37 15.933594 32.066406 11 26 11 M 11 25 L 9 25 L 12 21 L 15 25 L 13 25 L 13 26 C 13 30.964844 17.035156 35 22 35 L 26 35 L 26 37 L 22 37 C 15.933594 37 11 32.066406 11 26 Z M 11 25 "/>
</g>
</svg>
