<?xml version="1.0" encoding="UTF-8"?>
<svg xmlns="http://www.w3.org/2000/svg" xmlns:xlink="http://www.w3.org/1999/xlink" width="48pt" height="48pt" viewBox="0 0 48 48" version="1.1">
<g id="surface1">
<path style=" stroke:none;fill-rule:nonzero;fill:rgb(0%,0%,0%);fill-opacity:1;" d="M 17.292969 14.707031 L 14.292969 11.707031 L 15.707031 10.292969 L 18.707031 13.292969 Z M 30.707031 14.707031 L 29.292969 13.292969 L 32.292969 10.292969 L 33.707031 11.707031 Z M 25 12 L 23 12 L 23 8 L 25 8 Z M 26 35 L 28 35 C 28 37.207031 26.207031 39 24 39 C 21.792969 39 20 37.207031 20 35 L 22 35 C 22 36.101562 22.898438 37 24 37 C 25.101562 37 26 36.101562 26 35 M 28.230469 26.246094 C 26.910156 27.554688 26.136719 29.226562 26.015625 31 L 21.980469 31 C 21.855469 29.253906 21.0625 27.5625 19.714844 26.191406 C 18.550781 25.003906 17.945312 23.4375 18.003906 21.777344 C 18.117188 18.644531 20.761719 16.054688 23.898438 16 C 25.511719 15.972656 27.050781 16.585938 28.207031 17.722656 C 29.363281 18.859375 30 20.378906 30 22 C 30 23.605469 29.371094 25.113281 28.230469 26.246094 M 23.863281 14 C 19.683594 14.070312 16.15625 17.527344 16.003906 21.707031 C 15.925781 23.921875 16.734375 26.011719 18.285156 27.589844 C 19.390625 28.71875 20 30.101562 20 31.496094 L 20 33 L 28 33 L 28 31.488281 C 28 30.070312 28.582031 28.714844 29.636719 27.667969 C 31.160156 26.15625 32 24.144531 32 22 C 32 19.839844 31.152344 17.8125 29.609375 16.296875 C 28.070312 14.78125 26.039062 13.976562 23.863281 14 "/>
</g>
</svg>
