<?xml version="1.0" encoding="UTF-8"?>
<svg xmlns="http://www.w3.org/2000/svg" xmlns:xlink="http://www.w3.org/1999/xlink" width="48pt" height="48pt" viewBox="0 0 48 48" version="1.1">
<g id="surface1">
<path style=" stroke:none;fill-rule:nonzero;fill:rgb(0%,0%,0%);fill-opacity:1;" d="M 31 14 C 31 12.347656 29.652344 11 28 11 L 20 11 C 18.347656 11 17 12.347656 17 14 L 17 15 L 19 15 L 19 14 C 19 13.449219 19.449219 13 20 13 L 28 13 C 28.550781 13 29 13.449219 29 14 L 29 15 L 31 15 Z M 36 18 L 12 18 L 12 34 L 36 34 Z M 38 16 L 38 36 L 10 36 L 10 16 Z M 34 32 L 14 32 L 14 30 L 34 30 Z M 34 32 "/>
</g>
</svg>
