<?xml version="1.0" encoding="UTF-8"?>
<svg xmlns="http://www.w3.org/2000/svg" xmlns:xlink="http://www.w3.org/1999/xlink" width="48pt" height="48pt" viewBox="0 0 48 48" version="1.1">
<g id="surface1">
<path style=" stroke:none;fill-rule:nonzero;fill:rgb(0%,0%,0%);fill-opacity:1;" d="M 19.597656 19.660156 L 19 19.925781 L 19 35 C 19 35.550781 18.550781 36 18 36 C 17.449219 36 17 35.550781 17 35 L 17 19.925781 L 16.402344 19.660156 C 14.941406 19.023438 14 17.585938 14 16 C 14 14.140625 15.28125 12.589844 17 12.140625 L 17 16 L 19 16 L 19 12.140625 C 20.71875 12.589844 22 14.140625 22 16 C 22 17.585938 21.058594 19.023438 19.597656 19.660156 M 18 10 C 14.691406 10 12 12.691406 12 16 C 12 18.15625 13.15625 20.128906 15 21.191406 L 15 35 C 15 36.652344 16.347656 38 18 38 C 19.652344 38 21 36.652344 21 35 L 21 21.191406 C 22.84375 20.128906 24 18.15625 24 16 C 24 12.691406 21.308594 10 18 10 M 33 35 C 33 35.550781 32.550781 36 32 36 C 31.449219 36 31 35.550781 31 35 L 31 25 L 33 25 Z M 36 23 L 33 23 L 33 10 L 31 10 L 31 23 L 28 23 L 28 25 L 29 25 L 29 35 C 29 36.652344 30.347656 38 32 38 C 33.652344 38 35 36.652344 35 35 L 35 25 L 36 25 Z M 36 23 "/>
</g>
</svg>
