<?xml version="1.0" encoding="UTF-8"?>
<svg xmlns="http://www.w3.org/2000/svg" xmlns:xlink="http://www.w3.org/1999/xlink" width="48pt" height="48pt" viewBox="0 0 48 48" version="1.1">
<g id="surface1">
<path style=" stroke:none;fill-rule:nonzero;fill:rgb(0%,0%,0%);fill-opacity:1;" d="M 38 13.992188 L 38 34.007812 C 38 35.65625 36.65625 37 35.007812 37 L 32 37 L 32 35 L 35.007812 35 C 35.554688 35 36 34.554688 36 34.007812 L 36 33 L 32 33 L 32 31 L 36 31 L 36 29 L 32 29 L 32 27 L 36 27 L 36 25 L 32 25 L 32 23 L 36 23 L 36 21 L 32 21 L 32 19 L 36 19 L 36 17 L 32 17 L 32 15 L 36 15 L 36 13.992188 C 36 13.445312 35.554688 13 35.007812 13 L 32 13 L 32 11 L 35.007812 11 C 36.65625 11 38 12.34375 38 13.992188 M 23.761719 34.308594 C 23.542969 34.648438 23.210938 34.878906 22.820312 34.964844 C 22.011719 35.140625 21.210938 34.628906 21.035156 33.820312 C 20.949219 33.429688 21.019531 33.027344 21.238281 32.6875 C 21.453125 32.351562 21.789062 32.121094 22.179688 32.035156 C 22.285156 32.011719 22.394531 32 22.5 32 C 22.785156 32 23.0625 32.082031 23.308594 32.238281 C 23.644531 32.453125 23.878906 32.789062 23.964844 33.179688 C 24.050781 33.570312 23.976562 33.972656 23.761719 34.308594 M 14.964844 33.816406 C 14.789062 34.625 13.992188 35.132812 13.179688 34.964844 C 12.371094 34.789062 11.859375 33.988281 12.035156 33.179688 C 12.121094 32.789062 12.351562 32.453125 12.691406 32.238281 C 12.933594 32.082031 13.210938 32 13.496094 32 C 13.601562 32 13.710938 32.011719 13.820312 32.035156 C 14.210938 32.121094 14.546875 32.351562 14.761719 32.6875 C 14.976562 33.027344 15.050781 33.425781 14.964844 33.816406 M 21.753906 30.082031 C 21.234375 30.191406 20.765625 30.429688 20.359375 30.746094 L 19.023438 24.664062 L 21.976562 15.214844 L 22 11 L 20 11 L 20 14.890625 L 18 20.003906 L 16 14.890625 L 16 11 L 14 11 L 14 15 L 16.980469 24.640625 L 15.640625 30.746094 C 15.234375 30.429688 14.765625 30.191406 14.246094 30.082031 C 13.328125 29.878906 12.394531 30.050781 11.609375 30.554688 C 10.824219 31.058594 10.28125 31.839844 10.082031 32.753906 C 9.667969 34.636719 10.867188 36.507812 12.753906 36.921875 C 13.003906 36.972656 13.253906 37 13.5 37 C 15.109375 37 16.5625 35.882812 16.921875 34.246094 C 16.921875 34.242188 16.921875 34.242188 16.921875 34.238281 L 18 29.316406 L 19.078125 34.246094 L 19.082031 34.246094 C 19.4375 35.882812 20.890625 37 22.5 37 C 22.746094 37 22.996094 36.972656 23.246094 36.921875 C 24.15625 36.71875 24.9375 36.179688 25.445312 35.390625 C 25.949219 34.601562 26.117188 33.667969 25.917969 32.753906 C 25.507812 30.871094 23.636719 29.671875 21.753906 30.082031 "/>
</g>
</svg>
