<?xml version="1.0" encoding="UTF-8"?>
<svg xmlns="http://www.w3.org/2000/svg" xmlns:xlink="http://www.w3.org/1999/xlink" width="48pt" height="48pt" viewBox="0 0 48 48" version="1.1">
<g id="surface1">
<path style=" stroke:none;fill-rule:nonzero;fill:rgb(0%,0%,0%);fill-opacity:1;" d="M 16 29 L 32 29 L 32 31 L 16 31 Z M 16 25 L 32 25 L 32 27 L 16 27 Z M 32 23 L 16 23 L 16 21 L 32 21 Z M 37 16 L 35 16 L 35 14 L 37 14 Z M 33 16 L 11 16 L 11 14 L 33 14 Z M 9 12 L 9 18 L 37 18 L 37 34 L 11 34 L 11 20 L 9 20 L 9 36 L 39 36 L 39 12 Z M 9 12 "/>
</g>
</svg>
