<?xml version="1.0" encoding="UTF-8"?>
<svg xmlns="http://www.w3.org/2000/svg" xmlns:xlink="http://www.w3.org/1999/xlink" width="48pt" height="48pt" viewBox="0 0 48 48" version="1.1">
<g id="surface1">
<path style=" stroke:none;fill-rule:nonzero;fill:rgb(0%,0%,0%);fill-opacity:1;" d="M 26 24 C 26 25.105469 25.105469 26 24 26 C 22.894531 26 22 25.105469 22 24 C 22 22.894531 22.894531 22 24 22 C 25.105469 22 26 22.894531 26 24 M 35.476562 30.625 C 34.867188 31.675781 32.414062 31.757812 29.121094 30.824219 C 29.34375 29.679688 29.503906 28.476562 29.605469 27.242188 C 30.644531 26.523438 31.617188 25.777344 32.488281 25.019531 C 32.953125 25.472656 33.386719 25.925781 33.769531 26.371094 C 35.320312 28.199219 35.957031 29.789062 35.476562 30.625 M 24 37.25 C 22.785156 37.25 21.488281 35.167969 20.648438 31.851562 C 21.753906 31.46875 22.882812 31.003906 24 30.476562 C 25.117188 31.003906 26.246094 31.46875 27.351562 31.851562 C 26.511719 35.167969 25.214844 37.25 24 37.25 M 12.523438 30.625 C 12.042969 29.789062 12.679688 28.199219 14.230469 26.371094 C 14.613281 25.925781 15.046875 25.472656 15.511719 25.019531 C 16.382812 25.777344 17.355469 26.523438 18.394531 27.242188 C 18.496094 28.476562 18.660156 29.679688 18.878906 30.824219 C 15.585938 31.757812 13.132812 31.675781 12.523438 30.625 M 14.230469 21.628906 C 12.679688 19.800781 12.042969 18.210938 12.523438 17.375 C 12.851562 16.8125 13.710938 16.523438 14.941406 16.523438 C 16.007812 16.523438 17.355469 16.75 18.878906 17.179688 C 18.65625 18.320312 18.496094 19.523438 18.394531 20.757812 C 17.355469 21.476562 16.382812 22.222656 15.511719 22.980469 C 15.046875 22.527344 14.613281 22.074219 14.230469 21.628906 M 24 10.75 C 25.214844 10.75 26.511719 12.835938 27.351562 16.152344 C 26.246094 16.53125 25.117188 16.996094 24 17.523438 C 22.878906 16.996094 21.753906 16.535156 20.648438 16.152344 C 21.488281 12.835938 22.785156 10.75 24 10.75 M 29.726562 22.6875 C 30.308594 23.117188 30.859375 23.558594 31.378906 24 C 30.859375 24.441406 30.308594 24.882812 29.726562 25.3125 C 29.742188 24.875 29.75 24.4375 29.75 24 C 29.75 23.5625 29.742188 23.125 29.726562 22.6875 M 25.738281 18.390625 C 26.40625 18.105469 27.054688 17.855469 27.679688 17.636719 C 27.804688 18.285156 27.90625 18.976562 27.992188 19.691406 C 27.628906 19.464844 27.253906 19.238281 26.875 19.019531 C 26.5 18.804688 26.121094 18.597656 25.738281 18.390625 M 20.007812 19.691406 C 20.09375 18.976562 20.195312 18.285156 20.320312 17.636719 C 20.945312 17.855469 21.59375 18.105469 22.261719 18.390625 C 21.878906 18.59375 21.496094 18.804688 21.125 19.019531 C 20.746094 19.238281 20.371094 19.464844 20.007812 19.691406 M 18.273438 25.3125 C 17.691406 24.882812 17.140625 24.441406 16.621094 24 C 17.140625 23.558594 17.691406 23.117188 18.273438 22.6875 C 18.257812 23.125 18.25 23.5625 18.25 24 C 18.25 24.4375 18.257812 24.875 18.273438 25.3125 M 22.273438 29.609375 C 21.605469 29.894531 20.949219 30.152344 20.320312 30.371094 C 20.195312 29.71875 20.09375 29.027344 20.007812 28.308594 C 20.371094 28.535156 20.746094 28.761719 21.125 28.980469 C 21.503906 29.195312 21.890625 29.402344 22.273438 29.609375 M 27.992188 28.308594 C 27.90625 29.027344 27.804688 29.71875 27.679688 30.371094 C 27.050781 30.152344 26.394531 29.894531 25.726562 29.609375 C 26.109375 29.402344 26.496094 29.195312 26.875 28.980469 C 27.253906 28.761719 27.628906 28.535156 27.992188 28.308594 M 26.125 27.679688 C 25.40625 28.09375 24.699219 28.46875 24 28.8125 C 23.300781 28.46875 22.59375 28.09375 21.875 27.679688 C 21.167969 27.273438 20.488281 26.847656 19.832031 26.410156 C 19.78125 25.632812 19.75 24.828125 19.75 24 C 19.75 23.171875 19.78125 22.367188 19.832031 21.589844 C 20.488281 21.152344 21.167969 20.726562 21.875 20.320312 C 22.59375 19.902344 23.300781 19.535156 24 19.191406 C 24.699219 19.535156 25.40625 19.902344 26.125 20.320312 C 26.832031 20.726562 27.511719 21.152344 28.167969 21.589844 C 28.21875 22.367188 28.25 23.171875 28.25 24 C 28.25 24.828125 28.21875 25.632812 28.167969 26.410156 C 27.511719 26.847656 26.832031 27.273438 26.125 27.679688 M 33.058594 16.523438 C 34.289062 16.523438 35.148438 16.8125 35.476562 17.375 C 35.957031 18.210938 35.320312 19.800781 33.769531 21.628906 C 33.386719 22.074219 32.953125 22.527344 32.488281 22.980469 C 31.617188 22.222656 30.644531 21.476562 29.605469 20.757812 C 29.503906 19.527344 29.34375 18.320312 29.121094 17.179688 C 30.644531 16.75 31.992188 16.523438 33.058594 16.523438 M 33.589844 24 C 34.066406 23.53125 34.515625 23.0625 34.910156 22.597656 C 36.949219 20.199219 37.609375 18.078125 36.773438 16.625 C 35.652344 14.6875 32.480469 14.65625 28.789062 15.703125 C 27.851562 11.980469 26.234375 9.25 24 9.25 C 21.765625 9.25 20.148438 11.980469 19.210938 15.703125 C 15.519531 14.65625 12.347656 14.6875 11.226562 16.625 C 10.390625 18.078125 11.050781 20.199219 13.089844 22.597656 C 13.484375 23.0625 13.933594 23.53125 14.410156 24 C 13.933594 24.46875 13.484375 24.9375 13.089844 25.402344 C 11.050781 27.800781 10.390625 29.921875 11.226562 31.375 C 11.878906 32.503906 13.230469 32.988281 14.972656 32.988281 C 16.21875 32.988281 17.671875 32.738281 19.210938 32.300781 C 20.152344 36.019531 21.765625 38.75 24 38.75 C 26.234375 38.75 27.847656 36.019531 28.789062 32.300781 C 30.328125 32.738281 31.777344 32.988281 33.027344 32.988281 C 34.769531 32.988281 36.121094 32.503906 36.773438 31.375 C 37.609375 29.921875 36.949219 27.800781 34.910156 25.402344 C 34.515625 24.9375 34.066406 24.46875 33.589844 24 "/>
</g>
</svg>
