<?xml version="1.0" encoding="UTF-8"?>
<svg xmlns="http://www.w3.org/2000/svg" xmlns:xlink="http://www.w3.org/1999/xlink" width="48pt" height="48pt" viewBox="0 0 48 48" version="1.1">
<g id="surface1">
<path style=" stroke:none;fill-rule:nonzero;fill:rgb(0%,0%,0%);fill-opacity:1;" d="M 22 18 L 19.003906 19.390625 L 20.609375 20.996094 Z M 27 16.003906 L 24.003906 17.394531 L 25.609375 19 Z M 30 19.003906 L 27.003906 20.394531 L 28.609375 22 Z M 32 14.003906 L 29.003906 15.394531 L 30.609375 17 Z M 37 24 C 37 31.167969 31.167969 37 24 37 C 20.773438 37 17.828125 35.8125 15.554688 33.859375 L 14.707031 34.707031 L 13.292969 33.292969 L 14.140625 32.445312 C 12.1875 30.171875 11 27.226562 11 24 C 11 16.832031 16.832031 11 24 11 L 24 13 C 17.933594 13 13 17.933594 13 24 C 13 26.675781 13.960938 29.125 15.550781 31.03125 L 23.292969 23.292969 L 24.707031 24.707031 L 16.964844 32.445312 C 18.875 34.039062 21.324219 35 24 35 C 30.0625 35 35 30.066406 35 24 Z M 37 24 "/>
</g>
</svg>
