<?xml version="1.0" encoding="UTF-8"?>
<svg xmlns="http://www.w3.org/2000/svg" xmlns:xlink="http://www.w3.org/1999/xlink" width="48pt" height="48pt" viewBox="0 0 48 48" version="1.1">
<g id="surface1">
<path style=" stroke:none;fill-rule:nonzero;fill:rgb(0%,0%,0%);fill-opacity:1;" d="M 10 25 C 10 24.445312 10.449219 24 11 24 C 11.550781 24 12 24.445312 12 25 C 12 25.554688 11.550781 26 11 26 C 10.449219 26 10 25.554688 10 25 M 36 25 C 36 24.445312 36.449219 24 37 24 C 37.550781 24 38 24.445312 38 25 C 38 25.554688 37.550781 26 37 26 C 36.449219 26 36 25.554688 36 25 M 39 28 C 39 28.554688 38.550781 29 38 29 L 37 29 C 36.449219 29 36 28.554688 36 28 C 36 27.445312 36.449219 27 37 27 L 38 27 C 38.550781 27 39 27.445312 39 28 M 9 28 C 9 27.445312 9.449219 27 10 27 L 11 27 C 11.550781 27 12 27.445312 12 28 C 12 28.554688 11.550781 29 11 29 L 10 29 C 9.449219 29 9 28.554688 9 28 M 13 32 L 10 32 C 9.449219 32 9 31.554688 9 31 C 9 30.445312 9.449219 30 10 30 L 13 30 C 13.550781 30 14 30.445312 14 31 C 14 31.554688 13.550781 32 13 32 M 14 35 L 11 35 C 10.449219 35 10 34.554688 10 34 C 10 33.445312 10.449219 33 11 33 L 14 33 C 14.550781 33 15 33.445312 15 34 C 15 34.554688 14.550781 35 14 35 M 17 38 L 14 38 C 13.449219 38 13 37.554688 13 37 C 13 36.445312 13.449219 36 14 36 L 17 36 C 17.550781 36 18 36.445312 18 37 C 18 37.554688 17.550781 38 17 38 M 39 31 C 39 31.554688 38.550781 32 38 32 L 35 32 C 34.449219 32 34 31.554688 34 31 C 34 30.445312 34.449219 30 35 30 L 38 30 C 38.550781 30 39 30.445312 39 31 M 38 34 C 38 34.554688 37.550781 35 37 35 L 34 35 C 33.449219 35 33 34.554688 33 34 C 33 33.445312 33.449219 33 34 33 L 37 33 C 37.550781 33 38 33.445312 38 34 M 35 37 C 35 37.554688 34.550781 38 34 38 L 31 38 C 30.449219 38 30 37.554688 30 37 C 30 36.445312 30.449219 36 31 36 L 34 36 C 34.550781 36 35 36.445312 35 37 M 16 39 L 32 39 L 32 41 L 16 41 Z M 16 16 L 21 16 L 21 18 L 16 18 Z M 23 11 L 25 11 L 25 35 L 23 35 Z M 27 16 L 32 16 L 32 18 L 27 18 Z M 21 37 L 27 37 L 27 20 L 34 20 L 34 14 L 27 14 L 27 9 L 21 9 L 21 14 L 14 14 L 14 20 L 21 20 Z M 21 37 "/>
</g>
</svg>
