<?xml version="1.0" encoding="UTF-8"?>
<svg xmlns="http://www.w3.org/2000/svg" xmlns:xlink="http://www.w3.org/1999/xlink" width="48pt" height="48pt" viewBox="0 0 48 48" version="1.1">
<g id="surface1">
<path style=" stroke:none;fill-rule:nonzero;fill:rgb(0%,0%,0%);fill-opacity:1;" d="M 26.460938 27.730469 C 25.503906 27.179688 25.175781 25.957031 25.726562 25 C 26.277344 24.042969 27.503906 23.714844 28.460938 24.269531 C 29.414062 24.820312 29.742188 26.042969 29.191406 27 C 28.640625 27.957031 27.414062 28.285156 26.460938 27.730469 M 19.632812 24.269531 C 20.589844 23.714844 21.8125 24.042969 22.367188 25 C 22.917969 25.957031 22.589844 27.179688 21.632812 27.730469 C 20.675781 28.285156 19.453125 27.957031 18.902344 27 C 18.351562 26.042969 18.675781 24.820312 19.632812 24.269531 M 26 20 C 26 21.105469 25.105469 22 24 22 C 22.894531 22 22 21.105469 22 20 C 22 18.894531 22.894531 18 24 18 C 25.105469 18 26 18.894531 26 20 M 33.15625 31.742188 L 31.738281 30.324219 C 32.953125 28.839844 33.75 27.007812 33.949219 25 L 35.949219 25 C 35.738281 27.558594 34.722656 29.886719 33.15625 31.742188 M 25 35.949219 L 25 33.949219 C 27.007812 33.75 28.84375 32.953125 30.324219 31.738281 L 31.742188 33.15625 C 29.890625 34.722656 27.558594 35.738281 25 35.949219 M 16.257812 33.15625 L 17.675781 31.738281 C 19.15625 32.953125 20.992188 33.75 23 33.949219 L 23 35.949219 C 20.441406 35.738281 18.109375 34.722656 16.257812 33.15625 M 12.050781 25 L 14.050781 25 C 14.25 27.007812 15.050781 28.839844 16.261719 30.324219 L 14.84375 31.742188 C 13.277344 29.886719 12.261719 27.558594 12.050781 25 M 14.84375 16.257812 L 16.261719 17.675781 C 15.050781 19.160156 14.25 20.992188 14.050781 23 L 12.050781 23 C 12.261719 20.441406 13.277344 18.113281 14.84375 16.257812 M 23 12.050781 L 23 14.050781 C 20.992188 14.25 19.15625 15.046875 17.675781 16.261719 L 16.257812 14.84375 C 18.109375 13.277344 20.441406 12.261719 23 12.050781 M 31.742188 14.84375 L 30.324219 16.261719 C 28.84375 15.046875 27.007812 14.25 25 14.050781 L 25 12.050781 C 27.558594 12.261719 29.890625 13.277344 31.742188 14.84375 M 24 32 C 19.589844 32 16 28.410156 16 24 C 16 19.589844 19.589844 16 24 16 C 28.410156 16 32 19.589844 32 24 C 32 28.410156 28.410156 32 24 32 M 35.949219 23 L 33.949219 23 C 33.75 20.992188 32.953125 19.160156 31.738281 17.675781 L 33.15625 16.257812 C 34.722656 18.113281 35.738281 20.441406 35.949219 23 M 40 25 L 40 23 L 37.949219 23 C 37.726562 19.890625 36.492188 17.066406 34.566406 14.84375 L 36.019531 13.394531 L 34.605469 11.980469 L 33.152344 13.429688 C 30.933594 11.503906 28.109375 10.269531 25 10.050781 L 25 8 L 23 8 L 23 10.050781 C 19.894531 10.269531 17.066406 11.503906 14.847656 13.429688 L 13.394531 11.980469 L 11.980469 13.394531 L 13.433594 14.84375 C 11.507812 17.066406 10.273438 19.890625 10.050781 23 L 8 23 L 8 25 L 10.050781 25 C 10.273438 28.105469 11.507812 30.933594 13.433594 33.15625 L 11.980469 34.605469 L 13.394531 36.019531 L 14.847656 34.570312 C 17.066406 36.496094 19.894531 37.726562 23 37.949219 L 23 40 L 25 40 L 25 37.949219 C 28.109375 37.726562 30.933594 36.496094 33.152344 34.570312 L 34.605469 36.019531 L 36.019531 34.605469 L 34.566406 33.15625 C 36.492188 30.933594 37.726562 28.105469 37.949219 25 Z M 40 25 "/>
</g>
</svg>
