<?xml version="1.0" encoding="UTF-8"?>
<svg xmlns="http://www.w3.org/2000/svg" xmlns:xlink="http://www.w3.org/1999/xlink" width="48pt" height="48pt" viewBox="0 0 48 48" version="1.1">
<g id="surface1">
<path style=" stroke:none;fill-rule:nonzero;fill:rgb(0%,0%,0%);fill-opacity:1;" d="M 23 35.542969 C 19.847656 35.347656 16.941406 34.230469 14.539062 32.460938 L 11 36 L 8.292969 33.292969 L 9.707031 31.878906 L 11 33.171875 L 13 31.175781 C 9.929688 28.257812 8 24.148438 8 19.585938 L 10 19.585938 C 10 23.59375 11.703125 27.203125 14.410156 29.761719 L 16.292969 27.878906 L 17.707031 29.292969 L 18 31 L 17 30 L 15.964844 31.03125 C 17.988281 32.457031 20.394531 33.359375 23 33.546875 Z M 38.292969 31.878906 L 39.707031 33.292969 L 37 36 L 33.460938 32.460938 C 31.058594 34.230469 28.152344 35.347656 25 35.542969 L 25 33.546875 C 27.605469 33.359375 30.011719 32.457031 32.035156 31.03125 L 31 30 L 30 31 L 30.292969 29.292969 L 31.707031 27.878906 L 33.589844 29.761719 C 36.296875 27.203125 38 23.59375 38 19.585938 L 40 19.585938 C 40 24.148438 38.074219 28.257812 35 31.175781 L 37 33.171875 Z M 24 15.585938 C 26.207031 15.585938 28 17.378906 28 19.585938 C 28 21.792969 26.207031 23.585938 24 23.585938 C 21.792969 23.585938 20 21.792969 20 19.585938 C 20 17.378906 21.792969 15.585938 24 15.585938 M 24 25.585938 C 27.308594 25.585938 30 22.894531 30 19.585938 C 30 16.277344 27.308594 13.585938 24 13.585938 C 20.691406 13.585938 18 16.277344 18 19.585938 C 18 22.894531 20.691406 25.585938 24 25.585938 M 24 11.585938 C 28.410156 11.585938 32 15.175781 32 19.585938 C 32 23.996094 28.410156 27.585938 24 27.585938 C 19.589844 27.585938 16 23.996094 16 19.585938 C 16 15.175781 19.589844 11.585938 24 11.585938 M 24 29.585938 C 29.515625 29.585938 34 25.101562 34 19.585938 C 34 14.070312 29.515625 9.585938 24 9.585938 C 18.484375 9.585938 14 14.070312 14 19.585938 C 14 25.101562 18.484375 29.585938 24 29.585938 "/>
</g>
</svg>
