<?xml version="1.0" encoding="UTF-8"?>
<svg xmlns="http://www.w3.org/2000/svg" xmlns:xlink="http://www.w3.org/1999/xlink" width="48pt" height="48pt" viewBox="0 0 48 48" version="1.1">
<g id="surface1">
<path style=" stroke:none;fill-rule:nonzero;fill:rgb(0%,0%,0%);fill-opacity:1;" d="M 33 23 L 15 23 L 15 25 L 33 25 Z M 28.121094 28.058594 C 25.425781 28.660156 22.574219 28.660156 19.878906 28.058594 L 15.21875 27.023438 L 14.78125 28.976562 L 19.445312 30.011719 C 20.933594 30.34375 22.46875 30.507812 24 30.507812 C 25.53125 30.507812 27.066406 30.34375 28.554688 30.011719 L 33.21875 28.976562 L 32.78125 27.023438 Z M 14.78125 19.023438 L 15.21875 20.976562 L 19.878906 19.941406 C 22.574219 19.339844 25.425781 19.339844 28.121094 19.941406 L 32.78125 20.976562 L 33.21875 19.023438 L 28.554688 17.988281 C 25.578125 17.324219 22.425781 17.324219 19.445312 17.988281 Z M 36 16.796875 L 24 14.027344 L 12 16.796875 L 12 30.261719 L 24 33.953125 L 36 30.261719 Z M 24 11.972656 L 38 15.203125 L 38 31.738281 L 24 36.046875 L 10 31.738281 L 10 15.203125 Z M 41 20 L 39 20 L 39 22 L 41 22 C 42.101562 22 43 22.898438 43 24 C 43 25.101562 42.101562 26 41 26 L 39 26 L 39 28 L 41 28 C 43.207031 28 45 26.207031 45 24 C 45 21.792969 43.207031 20 41 20 M 7 20 L 9 20 L 9 22 L 7 22 C 5.898438 22 5 22.898438 5 24 C 5 25.101562 5.898438 26 7 26 L 9 26 L 9 28 L 7 28 C 4.792969 28 3 26.207031 3 24 C 3 21.792969 4.792969 20 7 20 "/>
</g>
</svg>
