<?xml version="1.0" encoding="UTF-8"?>
<svg xmlns="http://www.w3.org/2000/svg" xmlns:xlink="http://www.w3.org/1999/xlink" width="48pt" height="48pt" viewBox="0 0 48 48" version="1.1">
<g id="surface1">
<path style=" stroke:none;fill-rule:nonzero;fill:rgb(0%,0%,0%);fill-opacity:1;" d="M 38 29 L 36 29 L 36 34 L 38 34 Z M 38 35 L 36 35 L 36 37 L 38 37 Z M 24 33.949219 L 30.070312 32.078125 C 30.179688 31.140625 30.488281 30.261719 30.949219 29.480469 L 28.558594 30.011719 C 27.070312 30.339844 25.53125 30.511719 24 30.511719 C 22.46875 30.511719 20.929688 30.339844 19.441406 30.011719 L 14.78125 28.980469 L 15.21875 27.019531 L 19.878906 28.058594 C 22.578125 28.660156 25.421875 28.660156 28.121094 28.058594 L 32.78125 27.019531 L 32.859375 27.371094 C 33.761719 26.691406 34.828125 26.238281 36 26.078125 L 36 16.800781 L 24 14.03125 L 12 16.800781 L 12 30.261719 Z M 41.800781 27.921875 C 43.160156 29.179688 44 30.988281 44 33 C 44 36.871094 40.871094 40 37 40 C 33.53125 40 30.648438 37.480469 30.109375 34.171875 L 24 36.050781 L 10 31.738281 L 10 15.199219 L 24 11.96875 L 38 15.199219 L 38 26.078125 C 38.339844 26.121094 38.679688 26.191406 39 26.289062 L 39 26 L 41 26 C 42.101562 26 43 25.101562 43 24 C 43 22.898438 42.101562 22 41 22 L 39 22 L 39 20 L 41 20 C 43.210938 20 45 21.789062 45 24 C 45 25.929688 43.628906 27.550781 41.800781 27.921875 M 19.878906 19.941406 C 22.578125 19.339844 25.421875 19.339844 28.121094 19.941406 L 32.78125 20.980469 L 33.21875 19.019531 L 28.558594 17.988281 C 25.578125 17.328125 22.429688 17.328125 19.441406 17.988281 L 14.78125 19.019531 L 15.21875 20.980469 Z M 3 24 C 3 26.210938 4.789062 28 7 28 L 9 28 L 9 26 L 7 26 C 5.898438 26 5 25.101562 5 24 C 5 22.898438 5.898438 22 7 22 L 9 22 L 9 20 L 7 20 C 4.789062 20 3 21.789062 3 24 M 15 23 L 33 23 L 33 25 L 15 25 Z M 15 23 "/>
</g>
</svg>
