<?xml version="1.0" encoding="UTF-8"?>
<svg xmlns="http://www.w3.org/2000/svg" xmlns:xlink="http://www.w3.org/1999/xlink" width="48pt" height="48pt" viewBox="0 0 48 48" version="1.1">
<g id="surface1">
<path style=" stroke:none;fill-rule:nonzero;fill:rgb(0%,0%,0%);fill-opacity:1;" d="M 16 23 L 32 23 L 32 25 L 16 25 Z M 41 26 L 37.835938 26 C 37.933594 25.332031 38 24.664062 38 24 C 38 23.335938 37.933594 22.667969 37.835938 22 L 41 22 C 42.101562 22 43 22.898438 43 24 C 43 25.101562 42.101562 26 41 26 M 35.25 28.15625 L 24 30.96875 L 12.75 28.15625 C 12.253906 26.769531 12 25.375 12 24 C 12 22.625 12.253906 21.230469 12.75 19.84375 L 24 17.03125 L 35.25 19.84375 C 35.746094 21.230469 36 22.625 36 24 C 36 25.375 35.746094 26.769531 35.25 28.15625 M 30.085938 32.761719 L 26.03125 34.566406 C 24.722656 35.144531 23.277344 35.144531 21.96875 34.5625 L 17.914062 32.761719 C 17.214844 32.453125 16.660156 31.851562 16.332031 31.113281 L 24 33.03125 L 31.667969 31.113281 C 31.339844 31.851562 30.785156 32.453125 30.085938 32.761719 M 17.914062 15.234375 L 21.96875 13.429688 C 23.277344 12.851562 24.722656 12.847656 26.03125 13.429688 L 30.085938 15.234375 C 30.785156 15.542969 31.34375 16.144531 31.671875 16.886719 L 24 14.96875 L 16.328125 16.886719 C 16.65625 16.144531 17.214844 15.542969 17.914062 15.234375 M 7 26 C 5.898438 26 5 25.101562 5 24 C 5 22.898438 5.898438 22 7 22 L 10.164062 22 C 10.066406 22.667969 10 23.335938 10 24 C 10 24.664062 10.066406 25.332031 10.164062 26 Z M 41 20 L 37.402344 20 C 37.269531 19.542969 37.109375 19.085938 36.929688 18.628906 L 36.738281 18.152344 L 33.910156 17.445312 C 33.605469 15.644531 32.496094 14.117188 30.898438 13.40625 L 26.84375 11.605469 C 25.007812 10.789062 22.992188 10.789062 21.15625 11.601562 L 17.101562 13.40625 C 15.503906 14.117188 14.394531 15.644531 14.089844 17.445312 L 11.261719 18.152344 L 11.070312 18.628906 C 10.890625 19.085938 10.730469 19.542969 10.597656 20 L 7 20 C 4.792969 20 3 21.792969 3 24 C 3 26.207031 4.792969 28 7 28 L 10.597656 28 C 10.730469 28.457031 10.890625 28.914062 11.070312 29.371094 L 11.261719 29.847656 L 14.09375 30.554688 C 14.394531 32.351562 15.503906 33.878906 17.101562 34.589844 L 21.15625 36.390625 C 22.074219 36.800781 23.035156 37.003906 24 37.003906 C 24.964844 37.003906 25.925781 36.800781 26.84375 36.394531 L 30.898438 34.589844 C 32.496094 33.878906 33.605469 32.351562 33.90625 30.554688 L 36.738281 29.847656 L 36.929688 29.371094 C 37.109375 28.914062 37.269531 28.457031 37.402344 28 L 41 28 C 43.207031 28 45 26.207031 45 24 C 45 21.792969 43.207031 20 41 20 "/>
</g>
</svg>
