<?xml version="1.0" encoding="UTF-8"?>
<svg xmlns="http://www.w3.org/2000/svg" xmlns:xlink="http://www.w3.org/1999/xlink" width="48pt" height="48pt" viewBox="0 0 48 48" version="1.1">
<g id="surface1">
<path style=" stroke:none;fill-rule:nonzero;fill:rgb(0%,0%,0%);fill-opacity:1;" d="M 38 29 L 36 29 L 36 34 L 38 34 Z M 38 35 L 36 35 L 36 37 L 38 37 Z M 30.011719 32.789062 C 30.019531 32.339844 30.070312 31.910156 30.171875 31.488281 L 24 33.03125 L 16.328125 31.109375 C 16.660156 31.851562 17.21875 32.449219 17.910156 32.761719 L 21.96875 34.558594 C 23.28125 35.148438 24.71875 35.148438 26.03125 34.558594 Z M 24 30.96875 L 31.128906 29.191406 C 32.171875 27.589844 33.839844 26.441406 35.800781 26.109375 C 35.9375 25.398438 36 24.699219 36 24 C 36 22.621094 35.75 21.230469 35.25 19.839844 L 24 17.03125 L 12.75 19.839844 C 12.25 21.230469 12 22.621094 12 24 C 12 25.378906 12.25 26.769531 12.75 28.160156 Z M 16.328125 16.890625 L 24 14.96875 L 31.671875 16.890625 C 31.339844 16.148438 30.789062 15.539062 30.089844 15.230469 L 26.03125 13.429688 C 24.71875 12.851562 23.28125 12.851562 21.96875 13.429688 L 17.910156 15.230469 C 17.210938 15.539062 16.660156 16.148438 16.328125 16.890625 M 38 24 C 38 24.660156 37.929688 25.328125 37.828125 26 L 41 26 C 42.101562 26 43 25.101562 43 24 C 43 22.898438 42.101562 22 41 22 L 37.828125 22 C 37.929688 22.671875 38 23.339844 38 24 M 10 24 C 10 23.339844 10.070312 22.671875 10.171875 22 L 7 22 C 5.898438 22 5 22.898438 5 24 C 5 25.101562 5.898438 26 7 26 L 10.171875 26 C 10.070312 25.328125 10 24.660156 10 24 M 41.800781 27.921875 C 43.160156 29.179688 44 30.988281 44 33 C 44 36.871094 40.871094 40 37 40 C 33.78125 40 31.070312 37.828125 30.261719 34.871094 L 26.839844 36.390625 C 25.929688 36.800781 24.960938 37 24 37 C 23.039062 37 22.070312 36.800781 21.160156 36.390625 L 17.101562 34.589844 C 15.5 33.878906 14.398438 32.351562 14.089844 30.550781 L 11.261719 29.851562 L 11.070312 29.371094 C 10.890625 28.921875 10.730469 28.460938 10.601562 28 L 7 28 C 4.789062 28 3 26.210938 3 24 C 3 21.789062 4.789062 20 7 20 L 10.601562 20 C 10.730469 19.539062 10.890625 19.078125 11.070312 18.628906 L 11.261719 18.148438 L 14.089844 17.449219 C 14.390625 15.648438 15.5 14.121094 17.101562 13.410156 L 21.160156 11.601562 C 22.988281 10.789062 25.011719 10.789062 26.839844 11.601562 L 30.898438 13.410156 C 32.5 14.121094 33.609375 15.648438 33.910156 17.449219 L 36.738281 18.148438 L 36.929688 18.628906 C 37.109375 19.078125 37.269531 19.539062 37.398438 20 L 41 20 C 43.210938 20 45 21.789062 45 24 C 45 25.929688 43.628906 27.550781 41.800781 27.921875 M 32 25 L 16 25 L 16 23 L 32 23 Z M 32 25 "/>
</g>
</svg>
