<?xml version="1.0" encoding="UTF-8"?>
<svg xmlns="http://www.w3.org/2000/svg" xmlns:xlink="http://www.w3.org/1999/xlink" width="48pt" height="48pt" viewBox="0 0 48 48" version="1.1">
<g id="surface1">
<path style=" stroke:none;fill-rule:nonzero;fill:rgb(0%,0%,0%);fill-opacity:1;" d="M 30 24 L 32 24 C 32 28.410156 28.410156 32 24 32 C 19.589844 32 16 28.410156 16 24 L 18 24 C 18 27.308594 20.691406 30 24 30 C 27.308594 30 30 27.308594 30 24 M 18.359375 19.78125 L 17.640625 17.914062 L 21.847656 16.296875 C 23.179688 15.785156 24.644531 15.785156 25.972656 16.296875 L 30.359375 17.984375 L 29.640625 19.851562 L 25.253906 18.164062 C 24.386719 17.828125 23.433594 17.828125 22.566406 18.164062 Z M 36.214844 27.980469 C 36.691406 26.621094 36.945312 25.175781 36.945312 23.6875 L 36.945312 20.511719 C 36.945312 20.378906 36.921875 20.246094 36.914062 20.113281 C 38.679688 20.53125 40 22.109375 40 24 C 40 26.132812 38.316406 27.863281 36.214844 27.980469 M 34.945312 23.6875 C 34.945312 27.71875 32.738281 31.410156 29.1875 33.324219 C 25.9375 35.074219 22.0625 35.074219 18.8125 33.324219 C 15.261719 31.410156 13.054688 27.71875 13.054688 23.6875 L 13.054688 20.511719 C 13.054688 18.976562 14.019531 17.570312 15.453125 17.019531 L 22.65625 14.25 C 23.089844 14.082031 23.546875 14 24 14 C 24.453125 14 24.910156 14.082031 25.34375 14.25 L 32.546875 17.019531 C 33.980469 17.570312 34.945312 18.976562 34.945312 20.511719 Z M 8 24 C 8 22.109375 9.320312 20.53125 11.085938 20.113281 C 11.078125 20.246094 11.054688 20.378906 11.054688 20.511719 L 11.054688 23.6875 C 11.054688 25.175781 11.308594 26.621094 11.785156 27.980469 C 9.683594 27.863281 8 26.132812 8 24 M 36.367188 18.019531 C 35.742188 16.730469 34.644531 15.683594 33.265625 15.152344 L 26.0625 12.382812 C 24.730469 11.871094 23.269531 11.871094 21.9375 12.382812 L 14.734375 15.152344 C 13.355469 15.683594 12.257812 16.730469 11.632812 18.019531 C 8.496094 18.210938 6 20.816406 6 24 C 6 27.308594 8.691406 30 12 30 L 12.703125 30 C 13.886719 32.113281 15.648438 33.894531 17.863281 35.085938 C 19.785156 36.117188 21.894531 36.636719 24 36.636719 C 26.105469 36.636719 28.214844 36.117188 30.136719 35.085938 C 32.351562 33.894531 34.113281 32.113281 35.296875 30 L 36 30 C 39.308594 30 42 27.308594 42 24 C 42 20.816406 39.503906 18.210938 36.367188 18.019531 "/>
</g>
</svg>
