<?xml version="1.0" encoding="UTF-8"?>
<svg xmlns="http://www.w3.org/2000/svg" xmlns:xlink="http://www.w3.org/1999/xlink" width="48pt" height="48pt" viewBox="0 0 48 48" version="1.1">
<g id="surface1">
<path style=" stroke:none;fill-rule:nonzero;fill:rgb(0%,0%,0%);fill-opacity:1;" d="M 38 29.648438 L 38 29 L 36 29 L 36 34 L 38 34 Z M 38 35 L 36 35 L 36 37 L 38 37 Z M 29.191406 33.320312 C 29.46875 33.167969 29.75 33 30.011719 32.820312 C 30.078125 29.878906 31.960938 27.390625 34.589844 26.429688 C 34.820312 25.550781 34.941406 24.628906 34.941406 23.691406 L 34.941406 20.511719 C 34.941406 18.96875 33.980469 17.570312 32.550781 17.019531 L 25.339844 14.25 C 24.910156 14.078125 24.449219 14 24 14 C 23.539062 14 23.089844 14.078125 22.660156 14.25 L 15.449219 17.019531 C 14.019531 17.570312 13.058594 18.96875 13.058594 20.511719 L 13.058594 23.691406 C 13.058594 27.71875 15.261719 31.410156 18.808594 33.320312 C 22.058594 35.070312 25.941406 35.070312 29.191406 33.320312 M 36.941406 20.511719 L 36.941406 23.691406 C 36.941406 24.46875 36.871094 25.25 36.730469 26.011719 C 36.820312 26 36.910156 26 37 26 C 37.78125 26 38.519531 26.121094 39.210938 26.359375 C 39.710938 25.699219 40 24.878906 40 24 C 40 22.109375 38.679688 20.53125 36.910156 20.121094 C 36.921875 20.25 36.941406 20.378906 36.941406 20.511719 M 11.789062 27.980469 C 11.308594 26.621094 11.058594 25.167969 11.058594 23.691406 L 11.058594 20.511719 C 11.058594 20.378906 11.078125 20.25 11.089844 20.121094 C 9.320312 20.53125 8 22.109375 8 24 C 8 26.128906 9.679688 27.859375 11.789062 27.980469 M 44 33 C 44 36.871094 40.871094 40 37 40 C 33.820312 40 31.140625 37.890625 30.289062 34.988281 C 30.238281 35.019531 30.191406 35.050781 30.140625 35.078125 C 28.21875 36.121094 26.109375 36.640625 24 36.640625 C 21.890625 36.640625 19.78125 36.121094 17.859375 35.078125 C 15.648438 33.890625 13.878906 32.109375 12.699219 30 L 12 30 C 8.691406 30 6 27.308594 6 24 C 6 20.820312 8.5 18.210938 11.628906 18.019531 C 12.261719 16.730469 13.351562 15.679688 14.738281 15.148438 L 21.941406 12.378906 C 23.269531 11.871094 24.730469 11.871094 26.058594 12.378906 L 33.261719 15.148438 C 34.648438 15.679688 35.738281 16.730469 36.371094 18.019531 C 39.5 18.210938 42 20.820312 42 24 C 42 25.210938 41.640625 26.339844 41.019531 27.28125 C 42.820312 28.53125 44 30.628906 44 33 M 22.570312 18.160156 C 23.429688 17.828125 24.390625 17.828125 25.25 18.160156 L 29.640625 19.851562 L 30.359375 17.980469 L 25.96875 16.300781 C 24.640625 15.78125 23.179688 15.78125 21.851562 16.300781 L 17.640625 17.910156 L 18.359375 19.78125 Z M 32 24 C 32 28.410156 28.410156 32 24 32 C 19.589844 32 16 28.410156 16 24 L 18 24 C 18 27.308594 20.691406 30 24 30 C 27.308594 30 30 27.308594 30 24 Z M 32 24 "/>
</g>
</svg>
