<?xml version="1.0" encoding="UTF-8"?>
<svg xmlns="http://www.w3.org/2000/svg" xmlns:xlink="http://www.w3.org/1999/xlink" width="48pt" height="48pt" viewBox="0 0 48 48" version="1.1">
<g id="surface1">
<path style=" stroke:none;fill-rule:nonzero;fill:rgb(0%,0%,0%);fill-opacity:1;" d="M 22 25 L 26 25 L 26 23 L 22 23 Z M 22 25 "/>
<path style=" stroke:none;fill-rule:nonzero;fill:rgb(0%,0%,0%);fill-opacity:1;" d="M 38 34 L 36 34 L 36 29 L 38 29 Z M 38 37 L 36 37 L 36 35 L 38 35 Z M 24 31 C 20.140625 31 17 27.859375 17 24 C 17 20.140625 20.140625 17 24 17 C 27.859375 17 31 20.140625 31 24 C 31 27.859375 27.859375 31 24 31 M 37 26 C 35.015625 26 33.226562 26.832031 31.949219 28.160156 C 32.460938 27.191406 32.8125 26.132812 32.941406 25 L 36 25 L 36 26 L 38 26 L 38 22 L 36 22 L 36 23 L 32.941406 23 C 32.746094 21.269531 32.0625 19.683594 31.023438 18.390625 L 33.898438 15.515625 L 32.484375 14.101562 L 29.609375 16.976562 C 28.316406 15.9375 26.730469 15.25 25 15.058594 L 25 12 L 26 12 L 26 10 L 22 10 L 22 12 L 23 12 L 23 15.058594 C 21.269531 15.25 19.683594 15.9375 18.390625 16.976562 L 15.515625 14.101562 L 14.101562 15.515625 L 16.976562 18.390625 C 15.9375 19.683594 15.253906 21.269531 15.058594 23 L 12 23 L 12 22 L 10 22 L 10 26 L 12 26 L 12 25 L 15.058594 25 C 15.253906 26.730469 15.9375 28.316406 16.976562 29.609375 L 14.101562 32.484375 L 15.515625 33.898438 L 18.390625 31.023438 C 19.683594 32.0625 21.269531 32.75 23 32.941406 L 23 36 L 22 36 L 22 38 L 26 38 L 26 36 L 25 36 L 25 32.941406 C 26.730469 32.75 28.316406 32.0625 29.609375 31.023438 L 30.148438 31.5625 C 30.050781 32.027344 30 32.507812 30 33 C 30 36.867188 33.132812 40 37 40 C 40.867188 40 44 36.867188 44 33 C 44 29.132812 40.867188 26 37 26 "/>
</g>
</svg>
