<?xml version="1.0" encoding="UTF-8"?>
<svg xmlns="http://www.w3.org/2000/svg" xmlns:xlink="http://www.w3.org/1999/xlink" width="48pt" height="48pt" viewBox="0 0 48 48" version="1.1">
<g id="surface1">
<path style=" stroke:none;fill-rule:nonzero;fill:rgb(0%,0%,0%);fill-opacity:1;" d="M 14 35 L 12 35 L 12 20 C 12 19.449219 11.550781 19 11 19 C 10.449219 19 10 19.449219 10 20 L 10 35 L 8 35 L 8 20 C 8 18.347656 9.347656 17 11 17 C 12.652344 17 14 18.347656 14 20 Z M 12.5 14.5 C 12.5 15.328125 11.828125 16 11 16 C 10.171875 16 9.5 15.328125 9.5 14.5 C 9.5 13.671875 10.171875 13 11 13 C 11.828125 13 12.5 13.671875 12.5 14.5 M 40 35 L 38 35 L 38 20 C 38 19.449219 37.550781 19 37 19 C 36.449219 19 36 19.449219 36 20 L 36 35 L 34 35 L 34 20 C 34 18.347656 35.347656 17 37 17 C 38.652344 17 40 18.347656 40 20 Z M 38.5 14.5 C 38.5 15.328125 37.828125 16 37 16 C 36.171875 16 35.5 15.328125 35.5 14.5 C 35.5 13.671875 36.171875 13 37 13 C 37.828125 13 38.5 13.671875 38.5 14.5 M 28 22.492188 L 20 22.492188 L 20 21 L 15.683594 23.492188 L 20 25.984375 L 20 24.492188 L 28 24.492188 L 28 25.984375 L 32.316406 23.492188 L 28 21 Z M 28 22.492188 "/>
</g>
</svg>
