<?xml version="1.0" encoding="UTF-8"?>
<svg xmlns="http://www.w3.org/2000/svg" xmlns:xlink="http://www.w3.org/1999/xlink" width="48pt" height="48pt" viewBox="0 0 48 48" version="1.1">
<g id="surface1">
<path style=" stroke:none;fill-rule:nonzero;fill:rgb(0%,0%,0%);fill-opacity:1;" d="M 39 34 C 39 33.449219 38.550781 33 38 33 C 37.449219 33 37 33.449219 37 34 C 37 34.550781 37.449219 35 38 35 C 38.550781 35 39 34.550781 39 34 M 41 34 C 41 35.652344 39.652344 37 38 37 C 36.347656 37 35 35.652344 35 34 C 35 32.699219 35.839844 31.597656 37 31.183594 L 37 21 C 37 19.070312 35.429688 17.5 33.5 17.5 C 31.570312 17.5 30 19.070312 30 21 L 30 30 C 30 33.859375 26.859375 37 23 37 C 19.140625 37 16 33.859375 16 30 L 16 29 L 18 29 L 18 30 C 18 32.757812 20.242188 35 23 35 C 25.757812 35 28 32.757812 28 30 L 28 21 C 28 17.96875 30.46875 15.5 33.5 15.5 C 36.53125 15.5 39 17.96875 39 21 L 39 31.183594 C 40.160156 31.597656 41 32.699219 41 34 M 9 19 L 9 13 L 12 13 L 12 12 L 14 12 L 14 16 L 12 16 L 12 15 L 11 15 L 11 19 C 11 22.308594 13.691406 25 17 25 C 20.308594 25 23 22.308594 23 19 L 23 15 L 22 15 L 22 16 L 20 16 L 20 12 L 22 12 L 22 13 L 25 13 L 25 19 C 25 23.410156 21.410156 27 17 27 C 12.589844 27 9 23.410156 9 19 "/>
</g>
</svg>
