<?xml version="1.0" encoding="UTF-8"?>
<svg xmlns="http://www.w3.org/2000/svg" xmlns:xlink="http://www.w3.org/1999/xlink" width="48pt" height="48pt" viewBox="0 0 48 48" version="1.1">
<g id="surface1">
<path style=" stroke:none;fill-rule:nonzero;fill:rgb(0%,0%,0%);fill-opacity:1;" d="M 33 33 L 15 33 L 15 31 L 33 31 Z M 35 35 L 13 35 L 13 13 L 35 13 Z M 11 11 L 11 37 L 37 37 L 37 11 Z M 31 21 L 25 21 L 25 19 L 23 19 L 23 21 L 17 21 L 17 19 C 17 17.894531 17.894531 17 19 17 L 29 17 C 30.105469 17 31 17.894531 31 19 Z M 33 18.382812 C 33 16.515625 31.484375 15 29.617188 15 L 18.382812 15 C 16.515625 15 15 16.515625 15 18.382812 L 15 23 L 33 23 Z M 33 18.382812 "/>
</g>
</svg>
