<?xml version="1.0" encoding="UTF-8"?>
<svg xmlns="http://www.w3.org/2000/svg" xmlns:xlink="http://www.w3.org/1999/xlink" width="48pt" height="48pt" viewBox="0 0 48 48" version="1.1">
<g id="surface1">
<path style=" stroke:none;fill-rule:nonzero;fill:rgb(0%,0%,0%);fill-opacity:1;" d="M 36 34 C 36 33.449219 35.550781 33 35 33 C 34.449219 33 34 33.449219 34 34 C 34 34.550781 34.449219 35 35 35 C 35.550781 35 36 34.550781 36 34 M 22 30 C 22 27.242188 19.757812 25 17 25 C 14.242188 25 12 27.242188 12 30 C 12 32.757812 14.242188 35 17 35 C 19.757812 35 22 32.757812 22 30 M 38 34 C 38 35.652344 36.652344 37 35 37 C 33.347656 37 32 35.652344 32 34 C 32 32.699219 32.839844 31.597656 34 31.183594 L 34 27 L 23.316406 27 C 23.75 27.910156 24 28.925781 24 30 C 24 33.859375 20.859375 37 17 37 C 13.140625 37 10 33.859375 10 30 C 10 26.140625 13.140625 23 17 23 C 18.902344 23 20.625 23.765625 21.890625 25 L 34 25 L 34 22 L 18 22 C 16.347656 22 15 20.652344 15 19 L 15 13 L 12 13 L 12 11 L 17 11 L 17 19 C 17 19.550781 17.449219 20 18 20 L 36 20 L 36 31.183594 C 37.160156 31.597656 38 32.699219 38 34 M 16 29 L 18 29 L 18 31 L 16 31 Z M 16 29 "/>
</g>
</svg>
