<?xml version="1.0" encoding="UTF-8"?>
<svg xmlns="http://www.w3.org/2000/svg" xmlns:xlink="http://www.w3.org/1999/xlink" width="48pt" height="48pt" viewBox="0 0 48 48" version="1.1">
<g id="surface1">
<path style=" stroke:none;fill-rule:nonzero;fill:rgb(0%,0%,0%);fill-opacity:1;" d="M 14.253906 26.996094 C 15.410156 28.40625 18.859375 32 24 32 C 29.164062 32 32.597656 28.410156 33.746094 27.003906 C 32.589844 25.59375 29.140625 22 24 22 C 18.835938 22 15.402344 25.589844 14.253906 26.996094 M 24 34 C 16.550781 34 12.34375 27.816406 12.167969 27.554688 L 11.796875 27 L 12.167969 26.445312 C 12.34375 26.183594 16.550781 20 24 20 C 31.449219 20 35.65625 26.183594 35.832031 26.445312 L 36.203125 27 L 35.832031 27.554688 C 35.65625 27.816406 31.449219 34 24 34 M 33.707031 18.707031 L 32.292969 17.292969 L 36.292969 13.292969 L 37.707031 14.707031 Z M 14.292969 18.707031 L 10.292969 14.707031 L 11.707031 13.292969 L 15.707031 17.292969 Z M 25 16 L 23 16 L 23 11 L 25 11 Z M 26.121094 29.121094 C 24.988281 30.253906 23.011719 30.253906 21.878906 29.121094 C 20.710938 27.953125 20.710938 26.046875 21.878906 24.878906 C 22.445312 24.3125 23.199219 24 24 24 C 24.800781 24 25.554688 24.3125 26.121094 24.878906 C 27.292969 26.046875 27.292969 27.953125 26.121094 29.121094 M 27.535156 23.464844 C 26.589844 22.519531 25.335938 22 24 22 C 22.664062 22 21.410156 22.519531 20.464844 23.464844 C 18.515625 25.414062 18.515625 28.585938 20.464844 30.535156 C 21.410156 31.480469 22.664062 32 24 32 C 25.335938 32 26.589844 31.480469 27.535156 30.535156 C 29.484375 28.585938 29.484375 25.414062 27.535156 23.464844 "/>
</g>
</svg>
