<?xml version="1.0" encoding="UTF-8"?>
<svg xmlns="http://www.w3.org/2000/svg" xmlns:xlink="http://www.w3.org/1999/xlink" width="48pt" height="48pt" viewBox="0 0 48 48" version="1.1">
<g id="surface1">
<path style=" stroke:none;fill-rule:nonzero;fill:rgb(0%,0%,0%);fill-opacity:1;" d="M 38 23.433594 L 33.640625 19.363281 C 32.066406 17.898438 30.070312 17.0625 27.992188 17.003906 C 26.761719 17.65625 25.378906 18 24 18 C 22.621094 18 21.238281 17.65625 20.007812 17.003906 C 17.929688 17.0625 15.933594 17.898438 14.359375 19.363281 L 10 23.433594 L 10 24.566406 L 11.535156 26 C 14.992188 29.222656 19.417969 31 24 31 C 28.582031 31 33.007812 29.222656 36.464844 26 L 38 24.566406 Z M 40 22.566406 L 40 25.433594 L 37.824219 27.460938 C 34 31.035156 29.089844 33 24 33 C 18.910156 33 14 31.035156 10.175781 27.460938 L 8 25.433594 L 8 22.566406 L 12.996094 17.902344 C 15.003906 16.03125 17.578125 15 20.25 15 L 20.5 15 L 20.917969 15.222656 C 21.871094 15.730469 22.9375 16 24 16 C 25.0625 16 26.128906 15.730469 27.082031 15.222656 L 27.5 15 L 27.75 15 C 30.421875 15 32.996094 16.03125 35.003906 17.902344 Z M 28.601562 23.226562 L 33 23.664062 L 33 24.335938 L 28.601562 24.773438 C 25.542969 25.074219 22.457031 25.074219 19.398438 24.773438 L 15 24.335938 L 15 23.664062 L 19.398438 23.226562 C 22.457031 22.925781 25.542969 22.925781 28.601562 23.226562 "/>
</g>
</svg>
