<?xml version="1.0" encoding="UTF-8"?>
<svg xmlns="http://www.w3.org/2000/svg" xmlns:xlink="http://www.w3.org/1999/xlink" width="48pt" height="48pt" viewBox="0 0 48 48" version="1.1">
<g id="surface1">
<path style=" stroke:none;fill-rule:nonzero;fill:rgb(0%,0%,0%);fill-opacity:1;" d="M 33 23.664062 L 28.601562 23.226562 C 25.542969 22.925781 22.457031 22.925781 19.398438 23.226562 L 15 23.664062 L 15 24.335938 L 19.398438 24.773438 C 22.457031 25.074219 25.542969 25.074219 28.601562 24.773438 L 33 24.335938 Z M 33 23.664062 "/>
<path style=" stroke:none;fill-rule:nonzero;fill:rgb(0%,0%,0%);fill-opacity:1;" d="M 40.707031 35.292969 L 39.292969 36.707031 L 37 34.414062 L 34.707031 36.707031 L 33.292969 35.292969 L 35.585938 33 L 33.292969 30.707031 L 33.355469 30.644531 C 33.933594 30.339844 34.496094 30 35.050781 29.636719 L 37 31.585938 L 39.292969 29.292969 L 40.707031 30.707031 L 38.414062 33 Z M 24 31 C 19.417969 31 14.992188 29.226562 11.535156 26 L 10 24.566406 L 10 23.433594 L 14.359375 19.363281 C 15.933594 17.898438 17.929688 17.0625 20.007812 17.003906 C 21.238281 17.65625 22.621094 18 24 18 C 25.378906 18 26.761719 17.65625 27.992188 17.003906 C 30.070312 17.0625 32.066406 17.898438 33.640625 19.363281 L 38 23.433594 L 38 24.566406 L 36.464844 26 C 36.453125 26.011719 36.441406 26.019531 36.429688 26.027344 C 34.039062 26.222656 31.984375 27.613281 30.878906 29.605469 C 28.703125 30.515625 26.375 31 24 31 M 39.0625 26.308594 L 40 25.433594 L 40 22.566406 L 35.003906 17.902344 C 32.996094 16.03125 30.421875 15 27.75 15 L 27.5 15 L 27.082031 15.222656 C 26.128906 15.730469 25.0625 16 24 16 C 22.9375 16 21.871094 15.730469 20.917969 15.222656 L 20.5 15 L 20.25 15 C 17.578125 15 15.003906 16.03125 12.996094 17.902344 L 8 22.566406 L 8 25.433594 L 10.175781 27.464844 C 14 31.035156 18.910156 33 24 33 C 26.078125 33 28.121094 32.65625 30.074219 32.027344 C 30.03125 32.34375 30 32.667969 30 33 C 30 36.867188 33.132812 40 37 40 C 40.867188 40 44 36.867188 44 33 C 44 29.851562 41.921875 27.191406 39.0625 26.308594 "/>
</g>
</svg>
