<?xml version="1.0" encoding="UTF-8"?>
<svg xmlns="http://www.w3.org/2000/svg" xmlns:xlink="http://www.w3.org/1999/xlink" width="48pt" height="48pt" viewBox="0 0 48 48" version="1.1">
<g id="surface1">
<path style=" stroke:none;fill-rule:nonzero;fill:rgb(0%,0%,0%);fill-opacity:1;" d="M 21 18 L 27 18 L 27 20 L 21 20 Z M 34.148438 21.9375 L 29.320312 34 L 27.722656 34 L 25.898438 28.53125 C 25.621094 27.699219 24.875 27.164062 24 27.164062 C 23.125 27.164062 22.378906 27.699219 22.101562 28.53125 L 20.277344 34 L 18.679688 34 L 13.851562 21.9375 C 13.355469 20.695312 13.371094 19.335938 13.898438 18.109375 L 15.660156 14 L 19.585938 14 L 21.585938 16 L 26.414062 16 L 28.414062 14 L 32.339844 14 L 34.101562 18.109375 C 34.628906 19.335938 34.644531 20.695312 34.148438 21.9375 M 35.9375 17.320312 L 33.660156 12 L 27.585938 12 L 25.585938 14 L 22.414062 14 L 20.414062 12 L 14.339844 12 L 12.0625 17.320312 C 11.324219 19.039062 11.300781 20.941406 11.992188 22.679688 L 17.320312 36 L 21.722656 36 L 24 29.164062 L 26.277344 36 L 30.679688 36 L 36.007812 22.679688 C 36.699219 20.941406 36.675781 19.039062 35.9375 17.320312 "/>
</g>
</svg>
