<?xml version="1.0" encoding="UTF-8"?>
<svg xmlns="http://www.w3.org/2000/svg" xmlns:xlink="http://www.w3.org/1999/xlink" width="48pt" height="48pt" viewBox="0 0 48 48" version="1.1">
<g id="surface1">
<path style=" stroke:none;fill-rule:nonzero;fill:rgb(0%,0%,0%);fill-opacity:1;" d="M 29 24.195312 L 31 24.195312 C 31 26.828125 29.304688 29.183594 26.875 29.929688 C 26.378906 30.085938 25.882812 30.160156 25.398438 30.160156 C 23.96875 30.160156 22.644531 29.5 21.695312 28.261719 L 23.28125 27.042969 C 23.820312 27.746094 24.78125 28.484375 26.289062 28.019531 C 27.886719 27.53125 29 25.957031 29 24.195312 M 34 23.480469 C 34 27.632812 31.351562 31.351562 27.558594 32.515625 C 23.605469 33.734375 21.179688 31.523438 20.089844 30.097656 C 19.546875 29.390625 18.726562 28.984375 17.835938 28.984375 C 16.273438 28.984375 15 30.257812 15 31.824219 L 15 35 L 13 35 L 13 32 C 13 28.726562 15.664062 26.035156 18.9375 26 C 20.652344 25.984375 22 24.664062 22 23 L 22 21 C 22 17.628906 24.609375 14.804688 27.8125 14.710938 C 29.4375 14.660156 31.003906 15.261719 32.179688 16.398438 C 33.355469 17.539062 34 19.070312 34 20.707031 Z M 20 13.707031 L 20 12 L 21 12 C 21.019531 13.6875 21.574219 14.640625 22.289062 15.222656 C 21.800781 15.742188 21.378906 16.335938 21.03125 16.972656 C 20.367188 15.984375 20 14.84375 20 13.707031 M 33.570312 14.964844 C 32.007812 13.445312 29.9375 12.648438 27.753906 12.710938 C 26.355469 12.753906 25.046875 13.183594 23.914062 13.890625 C 23.351562 13.632812 23 13.203125 23 11.902344 L 23 10 L 18 10 L 18 13.707031 C 18 15.675781 18.808594 17.632812 20.214844 19.140625 C 20.078125 19.742188 20 20.359375 20 21 L 20 23 C 20 23.554688 19.523438 23.996094 18.914062 24 C 14.550781 24.046875 11 27.632812 11 32 L 11 37 L 17 37 L 17 31.824219 C 17 31.359375 17.375 30.984375 17.835938 30.984375 C 18.097656 30.984375 18.339844 31.105469 18.5 31.316406 C 19.636719 32.796875 22.839844 36.054688 28.148438 34.429688 C 32.769531 33.007812 36 28.503906 36 23.480469 L 36 20.707031 C 36 18.523438 35.136719 16.484375 33.570312 14.964844 "/>
</g>
</svg>
