<?xml version="1.0" encoding="UTF-8"?>
<svg xmlns="http://www.w3.org/2000/svg" xmlns:xlink="http://www.w3.org/1999/xlink" width="48pt" height="48pt" viewBox="0 0 48 48" version="1.1">
<g id="surface1">
<path style=" stroke:none;fill-rule:nonzero;fill:rgb(0%,0%,0%);fill-opacity:1;" d="M 16 32 C 15.449219 32 15 31.550781 15 31 L 13 31 C 13 32.652344 14.347656 34 16 34 C 17.652344 34 19 32.652344 19 31 L 17 31 C 17 31.550781 16.550781 32 16 32 M 29 31 C 29 32.652344 30.347656 34 32 34 C 33.652344 34 35 32.652344 35 31 L 33 31 C 33 31.550781 32.550781 32 32 32 C 31.449219 32 31 31.550781 31 31 Z M 8.4375 30.042969 C 8.253906 32.082031 8.9375 34.113281 10.316406 35.625 C 11.695312 37.132812 13.660156 38 15.703125 38 C 19.726562 38 23 34.726562 23 30.703125 L 23 25 L 21 25 L 21 30.703125 C 21 33.625 18.625 36 15.703125 36 C 14.199219 36 12.808594 35.386719 11.792969 34.273438 C 10.777344 33.164062 10.292969 31.726562 10.429688 30.226562 L 11.035156 23.550781 C 11.429688 19.246094 14.980469 16 19.304688 16 L 21 16 L 21 14 L 19.304688 14 C 13.941406 14 9.53125 18.027344 9.046875 23.367188 Z M 32.296875 38 C 34.339844 38 36.304688 37.132812 37.683594 35.625 C 39.0625 34.113281 39.746094 32.082031 39.5625 30.042969 L 38.953125 23.367188 C 38.46875 18.027344 34.058594 14 28.695312 14 L 27 14 L 27 16 L 28.695312 16 C 33.019531 16 36.570312 19.246094 36.964844 23.550781 L 37.570312 30.226562 C 37.707031 31.726562 37.222656 33.164062 36.207031 34.273438 C 35.191406 35.386719 33.800781 36 32.296875 36 C 29.375 36 27 33.625 27 30.703125 L 27 25 L 25 25 L 25 30.703125 C 25 34.726562 28.273438 38 32.296875 38 M 27.519531 24 L 24 19.601562 L 20.480469 24 L 18 24 L 18 22 L 19.519531 22 L 23 17.648438 L 23 12 L 21 12 L 21 10 L 27 10 L 27 12 L 25 12 L 25 17.648438 L 28.480469 22 L 30 22 L 30 24 Z M 27.519531 24 "/>
</g>
</svg>
