<?xml version="1.0" encoding="UTF-8"?>
<svg xmlns="http://www.w3.org/2000/svg" xmlns:xlink="http://www.w3.org/1999/xlink" width="48pt" height="48pt" viewBox="0 0 48 48" version="1.1">
<g id="surface1">
<path style=" stroke:none;fill-rule:nonzero;fill:rgb(0%,0%,0%);fill-opacity:1;" d="M 24 34.886719 C 21.945312 33.835938 13 28.839844 13 21.390625 C 13 19.910156 13.609375 18.566406 14.59375 17.589844 L 14.609375 17.609375 C 15.910156 16.308594 17.710938 15.808594 19.402344 16.089844 C 19.5 16.105469 19.597656 16.125 19.691406 16.144531 C 19.925781 16.195312 20.15625 16.265625 20.382812 16.351562 C 20.542969 16.410156 20.695312 16.476562 20.851562 16.550781 C 20.988281 16.617188 21.128906 16.691406 21.265625 16.769531 C 21.421875 16.863281 21.574219 16.957031 21.722656 17.066406 C 21.746094 17.082031 21.765625 17.101562 21.785156 17.117188 C 22.320312 17.527344 22.78125 18.03125 23.144531 18.628906 L 23.378906 19.015625 C 24.425781 21.078125 24.113281 23.664062 22.390625 25.390625 L 23.804688 26.800781 C 26.144531 24.460938 26.605469 20.949219 25.199219 18.136719 C 26.230469 16.792969 27.808594 16 29.539062 16 C 32.550781 16 35 18.417969 35 21.390625 C 35 28.839844 26.054688 33.835938 24 34.886719 M 39 20 L 36.863281 20 C 36.378906 17.496094 34.613281 15.441406 32.273438 14.523438 C 32.664062 13.378906 33.628906 12 36 12 L 36 10 C 32.527344 10 30.929688 12.101562 30.316406 14.039062 C 30.0625 14.015625 29.800781 14 29.539062 14 C 27.394531 14 25.410156 14.886719 24.015625 16.429688 C 23.941406 16.351562 23.878906 16.273438 23.804688 16.195312 C 22.945312 15.339844 21.925781 14.738281 20.847656 14.386719 C 20.820312 14.375 20.796875 14.367188 20.769531 14.359375 C 20.566406 14.292969 20.363281 14.242188 20.15625 14.195312 C 20.105469 14.183594 20.058594 14.167969 20.007812 14.160156 C 20.003906 14.15625 20.003906 14.15625 20 14.15625 L 20 10 L 18 10 L 18 14.023438 C 17.550781 14.050781 17.109375 14.117188 16.6875 14.21875 C 16.144531 12.644531 14.808594 11 12 11 L 12 13 C 13.84375 13 14.550781 14.0625 14.824219 14.941406 C 12.546875 16.207031 11 18.621094 11 21.390625 C 11 31.054688 23.070312 36.675781 23.585938 36.910156 L 24 37.097656 L 24.414062 36.910156 C 24.917969 36.679688 36.484375 31.289062 36.976562 22 L 39 22 Z M 39 20 "/>
</g>
</svg>
