<?xml version="1.0" encoding="UTF-8"?>
<svg xmlns="http://www.w3.org/2000/svg" xmlns:xlink="http://www.w3.org/1999/xlink" width="48pt" height="48pt" viewBox="0 0 48 48" version="1.1">
<g id="surface1">
<path style=" stroke:none;fill-rule:nonzero;fill:rgb(0%,0%,0%);fill-opacity:1;" d="M 35.269531 23 L 27.21875 23 L 26.433594 26.140625 L 23.71875 18 L 21.324219 18 L 19.324219 23 L 16 23 L 16 25 L 20.675781 25 L 22.460938 20.542969 L 25.28125 29 L 27.78125 29 L 28.78125 25 L 36.574219 25 C 36.574219 25 36.578125 25 36.578125 25 L 40 25 L 40 23 Z M 35.824219 21 C 35.933594 20.386719 36 19.761719 36 19.109375 C 36 15.679688 33.207031 12.890625 29.777344 12.890625 C 27.8125 12.890625 25.996094 13.808594 24.800781 15.414062 L 24 16.492188 L 23.199219 15.414062 C 22 13.808594 20.191406 12.890625 18.222656 12.890625 C 14.789062 12.890625 12 15.679688 12 19.109375 C 12 27.488281 21.859375 32.832031 24 33.890625 C 25.359375 33.214844 29.824219 30.808594 32.90625 27 L 35.421875 27 C 31.59375 32.644531 24.804688 35.738281 24.40625 35.914062 L 24 36.09375 L 23.59375 35.914062 C 23.039062 35.667969 10 29.75 10 19.109375 C 10 14.578125 13.6875 10.890625 18.222656 10.890625 C 20.417969 10.890625 22.464844 11.75 24 13.289062 C 25.535156 11.75 27.582031 10.890625 29.777344 10.890625 C 34.3125 10.890625 38 14.578125 38 19.109375 C 38 19.757812 37.949219 20.386719 37.859375 21 Z M 35.824219 21 "/>
</g>
</svg>
