<?xml version="1.0" encoding="UTF-8"?>
<svg xmlns="http://www.w3.org/2000/svg" xmlns:xlink="http://www.w3.org/1999/xlink" width="48pt" height="48pt" viewBox="0 0 48 48" version="1.1">
<g id="surface1">
<path style=" stroke:none;fill-rule:nonzero;fill:rgb(0%,0%,0%);fill-opacity:1;" d="M 37.972656 26.976562 C 37.3125 27.636719 36.4375 28 35.5 28 L 23 28 C 22.449219 28 22 27.550781 22 27 C 22 26.449219 22.449219 26 23 26 L 25 26 L 25 24 L 23 24 C 21.699219 24 20.597656 24.839844 20.183594 26 L 11 26 C 10.464844 26 9.964844 25.792969 9.585938 25.414062 C 9.207031 25.035156 9 24.535156 9 24 C 9 23.464844 9.207031 22.964844 9.585938 22.585938 C 9.875 22.296875 10.25 22.117188 10.652344 22.050781 C 10.910156 22.53125 11.214844 22.992188 11.613281 23.390625 L 13.027344 21.976562 C 12.71875 21.671875 12.484375 21.3125 12.3125 20.933594 L 12.222656 20.6875 C 12.148438 20.480469 12.09375 20.28125 12.058594 20.085938 C 12.023438 19.894531 12 19.699219 12 19.5 C 12 19.261719 12.023438 19.027344 12.070312 18.800781 C 12.078125 18.761719 12.097656 18.722656 12.105469 18.683594 C 12.152344 18.496094 12.203125 18.3125 12.273438 18.140625 C 12.28125 18.125 12.289062 18.113281 12.296875 18.097656 C 12.496094 17.648438 12.789062 17.257812 13.144531 16.929688 C 14.136719 16.027344 15.605469 15.804688 16.828125 16.28125 C 16.828125 16.28125 16.832031 16.28125 16.832031 16.28125 C 16.988281 16.34375 17.132812 16.425781 17.277344 16.511719 C 17.363281 16.558594 17.445312 16.605469 17.527344 16.664062 C 17.554688 16.683594 17.578125 16.707031 17.605469 16.726562 C 18.132812 17.132812 18.550781 17.679688 18.78125 18.335938 L 20.667969 17.664062 C 20.386719 16.878906 19.9375 16.191406 19.375 15.625 L 19.386719 15.609375 C 19.359375 15.582031 19.324219 15.5625 19.296875 15.535156 C 19.886719 14.019531 21.335938 13 23 13 C 24.667969 13 26.113281 14.019531 26.703125 15.535156 C 26.675781 15.5625 26.640625 15.582031 26.613281 15.609375 L 26.625 15.625 C 26.0625 16.191406 25.613281 16.878906 25.332031 17.664062 L 27.21875 18.335938 C 27.449219 17.679688 27.871094 17.132812 28.394531 16.726562 C 28.414062 16.714844 28.429688 16.695312 28.453125 16.683594 C 28.570312 16.59375 28.695312 16.527344 28.820312 16.460938 C 28.917969 16.40625 29.015625 16.351562 29.117188 16.308594 C 29.160156 16.289062 29.203125 16.277344 29.242188 16.261719 C 30.449219 15.816406 31.882812 16.042969 32.855469 16.929688 C 32.910156 16.980469 32.964844 17.027344 33.019531 17.082031 C 33.175781 17.242188 33.316406 17.417969 33.433594 17.605469 C 33.472656 17.660156 33.496094 17.726562 33.53125 17.78125 C 33.625 17.949219 33.710938 18.121094 33.777344 18.304688 C 33.792969 18.347656 33.800781 18.390625 33.816406 18.4375 C 33.882812 18.652344 33.933594 18.871094 33.960938 19.097656 C 33.960938 19.113281 33.960938 19.132812 33.964844 19.148438 C 33.988281 19.40625 33.988281 19.667969 33.953125 19.929688 L 33.917969 20.242188 C 33.777344 20.890625 33.457031 21.492188 32.972656 21.976562 L 34.386719 23.390625 C 35.050781 22.726562 35.5 21.914062 35.757812 21.035156 C 36.59375 21.09375 37.378906 21.429688 37.972656 22.023438 C 38.636719 22.6875 39 23.566406 39 24.5 C 39 25.433594 38.636719 26.3125 37.972656 26.976562 M 36.957031 34.691406 C 36.921875 34.785156 36.796875 35 36.496094 35 L 34.738281 35 C 34.609375 35 34.480469 34.945312 34.386719 34.851562 L 29.53125 30 L 32.703125 30 L 36.851562 34.148438 C 37.0625 34.359375 36.996094 34.597656 36.957031 34.691406 M 41 24.5 C 41 23.03125 40.425781 21.648438 39.386719 20.609375 C 38.464844 19.6875 37.261719 19.140625 35.976562 19.035156 C 35.960938 18.84375 35.933594 18.648438 35.898438 18.460938 C 35.894531 18.441406 35.894531 18.421875 35.890625 18.402344 C 35.824219 18.082031 35.726562 17.769531 35.609375 17.472656 C 35.59375 17.4375 35.582031 17.398438 35.570312 17.363281 C 35.546875 17.3125 35.519531 17.265625 35.496094 17.214844 C 35.484375 17.191406 35.472656 17.167969 35.460938 17.144531 C 35.359375 16.929688 35.246094 16.722656 35.121094 16.523438 C 35.097656 16.488281 35.078125 16.453125 35.054688 16.417969 C 35.046875 16.410156 35.039062 16.398438 35.03125 16.390625 C 35.007812 16.355469 34.980469 16.320312 34.953125 16.285156 C 34.792969 16.0625 34.617188 15.851562 34.425781 15.65625 C 34.414062 15.640625 34.402344 15.625 34.386719 15.609375 C 34.367188 15.589844 34.339844 15.574219 34.320312 15.550781 C 34.171875 15.410156 34.019531 15.277344 33.859375 15.152344 C 33.789062 15.101562 33.722656 15.050781 33.65625 15.003906 C 33.632812 14.984375 33.609375 14.964844 33.585938 14.949219 C 33.546875 14.925781 33.507812 14.902344 33.46875 14.878906 C 33.351562 14.804688 33.234375 14.726562 33.113281 14.660156 C 33.042969 14.625 32.96875 14.59375 32.898438 14.558594 C 32.8125 14.515625 32.726562 14.46875 32.636719 14.433594 C 32.597656 14.417969 32.5625 14.40625 32.527344 14.390625 C 32.507812 14.382812 32.488281 14.378906 32.46875 14.371094 C 32.382812 14.339844 32.300781 14.304688 32.214844 14.277344 C 32.015625 14.210938 31.808594 14.152344 31.597656 14.109375 C 31.589844 14.109375 31.585938 14.105469 31.578125 14.105469 C 31.519531 14.09375 31.464844 14.089844 31.40625 14.082031 C 31.234375 14.054688 31.0625 14.03125 30.882812 14.019531 C 30.808594 14.015625 30.734375 14.011719 30.660156 14.007812 C 30.605469 14.007812 30.554688 14 30.5 14 C 30.414062 14 30.335938 14.015625 30.25 14.019531 C 30.109375 14.027344 29.964844 14.035156 29.820312 14.054688 C 29.726562 14.066406 29.628906 14.078125 29.535156 14.09375 C 29.445312 14.109375 29.355469 14.132812 29.269531 14.152344 C 29.191406 14.167969 29.121094 14.191406 29.042969 14.210938 C 28.90625 14.25 28.773438 14.292969 28.640625 14.339844 C 28.5625 14.367188 28.480469 14.382812 28.40625 14.410156 C 27.429688 12.351562 25.359375 11 23 11 C 20.644531 11 18.570312 12.351562 17.59375 14.410156 C 17.519531 14.382812 17.4375 14.367188 17.359375 14.339844 C 17.191406 14.28125 17.023438 14.230469 16.847656 14.1875 C 16.71875 14.152344 16.59375 14.117188 16.464844 14.09375 C 16.148438 14.035156 15.828125 14 15.5 14 C 15.144531 14 14.796875 14.035156 14.460938 14.101562 C 14.441406 14.105469 14.421875 14.105469 14.402344 14.109375 C 14.082031 14.175781 13.773438 14.273438 13.472656 14.390625 C 13.4375 14.40625 13.398438 14.417969 13.363281 14.433594 C 13.070312 14.554688 12.792969 14.707031 12.53125 14.878906 C 12.492188 14.902344 12.453125 14.925781 12.414062 14.949219 C 12.140625 15.136719 11.886719 15.347656 11.648438 15.578125 C 11.636719 15.589844 11.625 15.597656 11.613281 15.609375 C 11.597656 15.621094 11.589844 15.636719 11.578125 15.648438 C 11.347656 15.886719 11.132812 16.144531 10.945312 16.417969 C 10.921875 16.453125 10.902344 16.488281 10.878906 16.523438 C 10.710938 16.792969 10.554688 17.070312 10.433594 17.363281 C 10.417969 17.398438 10.40625 17.4375 10.394531 17.472656 C 10.273438 17.769531 10.175781 18.082031 10.109375 18.402344 C 10.105469 18.421875 10.105469 18.441406 10.101562 18.460938 C 10.035156 18.796875 10 19.144531 10 19.5 C 10 19.707031 10.011719 19.914062 10.039062 20.125 C 9.335938 20.296875 8.691406 20.652344 8.171875 21.171875 C 7.414062 21.925781 7 22.933594 7 24 C 7 25.066406 7.414062 26.074219 8.171875 26.828125 C 8.925781 27.585938 9.929688 28 11 28 L 20.183594 28 C 20.597656 29.160156 21.699219 30 23 30 L 26.703125 30 L 32.972656 36.265625 C 33.4375 36.734375 34.082031 37 34.738281 37 L 36.496094 37 C 37.511719 37 38.417969 36.394531 38.804688 35.457031 C 39.195312 34.519531 38.984375 33.449219 38.265625 32.730469 L 35.53125 29.996094 C 36.988281 29.988281 38.359375 29.421875 39.386719 28.390625 C 40.425781 27.351562 41 25.96875 41 24.5 "/>
</g>
</svg>
