<?xml version="1.0" encoding="UTF-8"?>
<svg xmlns="http://www.w3.org/2000/svg" xmlns:xlink="http://www.w3.org/1999/xlink" width="48pt" height="48pt" viewBox="0 0 48 48" version="1.1">
<g id="surface1">
<path style=" stroke:none;fill-rule:nonzero;fill:rgb(0%,0%,0%);fill-opacity:1;" d="M 26 10 L 15 12.179688 L 15 15 L 17 15 L 17 13.820312 L 26 12 L 35 13.820312 L 35 22.558594 C 35 28.257812 31.394531 33.203125 26 34.953125 C 22.742188 33.894531 20.082031 31.648438 18.484375 28.601562 L 16.714844 29.53125 C 18.578125 33.09375 21.859375 35.800781 25.714844 36.957031 L 26 37.042969 L 26.285156 36.957031 C 32.695312 35.035156 37 29.25 37 22.558594 L 37 12.179688 Z M 29.292969 19 L 25 23.292969 L 22.707031 21 L 21.292969 22.414062 L 25 26.121094 L 30.707031 20.414062 Z M 20 22 L 18 22 L 18 24 L 20 24 Z M 15 23 C 15 21.898438 14.101562 21 13 21 C 11.898438 21 11 21.898438 11 23 C 11 24.101562 11.898438 25 13 25 C 14.101562 25 15 24.101562 15 23 M 17.949219 26.535156 L 16.535156 27.949219 L 15.019531 26.433594 C 14.425781 26.785156 13.738281 27 13 27 C 12.261719 27 11.574219 26.785156 10.980469 26.433594 L 9.464844 27.949219 L 8.050781 26.535156 L 9.566406 25.019531 C 9.214844 24.425781 9 23.738281 9 23 C 9 22.261719 9.214844 21.574219 9.566406 20.980469 L 8.050781 19.464844 L 9.464844 18.050781 L 10.980469 19.566406 C 11.574219 19.214844 12.261719 19 13 19 C 13.738281 19 14.425781 19.214844 15.019531 19.566406 L 16.535156 18.050781 L 17.949219 19.464844 L 16.433594 20.980469 C 16.785156 21.574219 17 22.261719 17 23 C 17 23.738281 16.785156 24.425781 16.433594 25.019531 Z M 14 16 L 12 16 L 12 18 L 14 18 Z M 6 24 L 8 24 L 8 22 L 6 22 Z M 12 28 L 14 28 L 14 30 L 12 30 Z M 12 28 "/>
</g>
</svg>
