<?xml version="1.0" encoding="UTF-8"?>
<svg xmlns="http://www.w3.org/2000/svg" xmlns:xlink="http://www.w3.org/1999/xlink" width="48pt" height="48pt" viewBox="0 0 48 48" version="1.1">
<g id="surface1">
<path style=" stroke:none;fill-rule:nonzero;fill:rgb(0%,0%,0%);fill-opacity:1;" d="M 25.023438 26.453125 L 25.023438 25 L 27.023438 25 L 27.023438 23 L 25.023438 23 L 25.023438 21 L 27.023438 21 L 27.023438 19 L 25.023438 19 L 25.023438 17 L 35.023438 17 L 35.023438 26.453125 C 31.664062 28.515625 28.382812 28.515625 25.023438 26.453125 M 35.023438 15 L 25.023438 15 L 25.023438 13 L 35.023438 13 Z M 10.316406 13.328125 C 10.527344 13.117188 10.804688 13.011719 11.082031 13.011719 C 11.355469 13.011719 11.632812 13.117188 11.84375 13.324219 L 14.023438 15.503906 L 16.203125 13.324219 C 16.625 12.90625 17.308594 12.902344 17.734375 13.324219 C 18.152344 13.75 18.152344 14.433594 17.734375 14.855469 L 14.023438 18.5625 L 10.316406 14.855469 C 9.894531 14.433594 9.894531 13.75 10.316406 13.328125 M 23.023438 11 L 23.023438 27.535156 L 23.46875 27.832031 C 25.3125 29.0625 27.167969 29.765625 29.023438 29.949219 L 29.023438 34 C 29.023438 34.550781 28.574219 35 28.023438 35 L 16.023438 35 C 15.472656 35 15.023438 34.550781 15.023438 34 L 15.023438 20.394531 L 19.148438 16.269531 C 20.347656 15.066406 20.347656 13.113281 19.148438 11.910156 C 17.945312 10.710938 15.992188 10.710938 14.789062 11.910156 L 14.023438 12.675781 L 13.257812 11.910156 C 12.058594 10.710938 10.101562 10.710938 8.902344 11.910156 C 7.699219 13.113281 7.699219 15.066406 8.902344 16.269531 L 13.023438 20.394531 L 13.023438 34 C 13.023438 35.652344 14.371094 37 16.023438 37 L 28.023438 37 C 29.679688 37 31.023438 35.652344 31.023438 34 L 31.023438 29.949219 C 32.878906 29.765625 34.734375 29.0625 36.578125 27.832031 L 37.023438 27.535156 L 37.023438 11 Z M 23.023438 11 "/>
</g>
</svg>
