<?xml version="1.0" encoding="UTF-8"?>
<svg xmlns="http://www.w3.org/2000/svg" xmlns:xlink="http://www.w3.org/1999/xlink" width="48pt" height="48pt" viewBox="0 0 48 48" version="1.1">
<g id="surface1">
<path style=" stroke:none;fill-rule:nonzero;fill:rgb(0%,0%,0%);fill-opacity:1;" d="M 20 29 L 28 29 L 28 31 L 20 31 Z M 20 24 L 28 24 L 28 26 L 20 26 Z M 20 19 L 28 19 L 28 21 L 20 21 Z M 33 35 L 15 35 L 15 13 L 18 13 L 18 16 L 30 16 L 30 13 L 33 13 Z M 20 13 L 28 13 L 28 14 L 20 14 Z M 13 37 L 35 37 L 35 11 L 13 11 Z M 13 37 "/>
</g>
</svg>
