<?xml version="1.0" encoding="UTF-8"?>
<svg xmlns="http://www.w3.org/2000/svg" xmlns:xlink="http://www.w3.org/1999/xlink" width="48pt" height="48pt" viewBox="0 0 48 48" version="1.1">
<g id="surface1">
<path style=" stroke:none;fill-rule:nonzero;fill:rgb(0%,0%,0%);fill-opacity:1;" d="M 25 26 L 27 26 L 27 28 L 25 28 L 25 30 L 23 30 L 23 28 L 21 28 L 21 26 L 23 26 L 23 24 L 25 24 Z M 34 14 L 32 14 C 32 12.097656 30.335938 12 30 12 L 25 12 L 25 14 L 27 14 L 27 16 L 21 16 L 21 14 L 23 14 L 23 12 L 20 12 L 20 10 L 30 10 C 31.605469 10 34 11.066406 34 14 M 30.050781 36 L 17.949219 36 L 17.097656 19.953125 C 17.085938 19.675781 17.183594 19.414062 17.375 19.214844 C 17.5625 19.015625 17.820312 18.902344 18.097656 18.902344 L 29.902344 18.902344 C 30.179688 18.902344 30.4375 19.015625 30.625 19.214844 C 30.816406 19.414062 30.914062 19.675781 30.902344 19.945312 Z M 29.902344 16.902344 L 18.097656 16.902344 C 17.269531 16.902344 16.496094 17.234375 15.925781 17.835938 C 15.355469 18.433594 15.0625 19.21875 15.101562 20.054688 L 16.050781 38 L 31.949219 38 L 32.898438 20.046875 C 32.9375 19.21875 32.644531 18.433594 32.074219 17.835938 C 31.503906 17.234375 30.730469 16.902344 29.902344 16.902344 "/>
</g>
</svg>
