<?xml version="1.0" encoding="UTF-8"?>
<svg xmlns="http://www.w3.org/2000/svg" xmlns:xlink="http://www.w3.org/1999/xlink" width="48pt" height="48pt" viewBox="0 0 48 48" version="1.1">
<g id="surface1">
<path style=" stroke:none;fill-rule:nonzero;fill:rgb(0%,0%,0%);fill-opacity:1;" d="M 16 37 L 18 37 L 18 35 L 16 35 Z M 27 31 L 20.996094 31 L 20.996094 33 L 27 33 Z M 27 35 L 21 35 L 21 37 L 27 37 Z M 21 17 L 27 17 L 27 15 L 21 15 Z M 27 11 L 21 11 L 21 13 L 27 13 Z M 32 11 L 30 11 L 30 13 L 32 13 Z M 25.699219 24 C 29.441406 26.769531 32 29.34375 32 34.070312 L 32 37 L 30 37 L 30 34.070312 C 30 30.34375 28.140625 28.25 24 25.234375 C 19.78125 28.304688 18 30.304688 18 34 L 16 34 C 16 29.332031 18.558594 26.765625 22.300781 24 C 18.558594 21.230469 16 18.65625 16 13.929688 L 16 11 L 18 11 L 18 13.929688 C 18 17.65625 19.859375 19.75 24 22.765625 C 28.21875 19.699219 30 17.695312 30 14 L 32 14 C 32 18.667969 29.441406 21.234375 25.699219 24 "/>
</g>
</svg>
