<?xml version="1.0" encoding="UTF-8"?>
<svg xmlns="http://www.w3.org/2000/svg" xmlns:xlink="http://www.w3.org/1999/xlink" width="48pt" height="48pt" viewBox="0 0 48 48" version="1.1">
<g id="surface1">
<path style=" stroke:none;fill-rule:nonzero;fill:rgb(0%,0%,0%);fill-opacity:1;" d="M 32.484375 32.484375 C 31.730469 33.242188 30.726562 33.65625 29.65625 33.65625 C 28.589844 33.65625 27.585938 33.242188 26.828125 32.484375 L 24 29.65625 C 23.246094 28.902344 22.828125 27.894531 22.828125 26.828125 C 22.828125 25.761719 23.246094 24.757812 24 24 C 24.757812 23.246094 25.757812 22.828125 26.828125 22.828125 C 27.894531 22.828125 28.902344 23.246094 29.65625 24 L 32.484375 26.828125 C 34.046875 28.386719 34.046875 30.925781 32.484375 32.484375 M 15.515625 15.515625 C 16.269531 14.757812 17.273438 14.34375 18.34375 14.34375 C 19.410156 14.34375 20.417969 14.757812 21.171875 15.515625 L 26.503906 20.84375 C 25.023438 20.921875 23.640625 21.53125 22.585938 22.585938 C 21.53125 23.640625 20.921875 25.023438 20.84375 26.5 L 15.515625 21.171875 C 13.957031 19.613281 13.957031 17.074219 15.515625 15.515625 M 33.898438 25.414062 L 22.585938 14.101562 C 21.453125 12.96875 19.945312 12.34375 18.34375 12.34375 C 16.742188 12.34375 15.234375 12.96875 14.101562 14.101562 C 11.761719 16.441406 11.761719 20.246094 14.101562 22.585938 L 25.414062 33.898438 C 26.546875 35.03125 28.054688 35.65625 29.65625 35.65625 C 31.257812 35.65625 32.765625 35.03125 33.898438 33.898438 C 36.238281 31.558594 36.238281 27.753906 33.898438 25.414062 "/>
</g>
</svg>
