<?xml version="1.0" encoding="UTF-8"?>
<svg xmlns="http://www.w3.org/2000/svg" xmlns:xlink="http://www.w3.org/1999/xlink" width="48pt" height="48pt" viewBox="0 0 48 48" version="1.1">
<g id="surface1">
<path style=" stroke:none;fill-rule:nonzero;fill:rgb(0%,0%,0%);fill-opacity:1;" d="M 41 34 L 36 34 L 36 29 L 38 29 L 38 32 L 41 32 Z M 29.65625 33.65625 C 28.589844 33.65625 27.585938 33.242188 26.828125 32.484375 L 24 29.65625 C 23.242188 28.902344 22.828125 27.894531 22.828125 26.828125 C 22.828125 25.761719 23.242188 24.757812 24 24 C 24.757812 23.246094 25.761719 22.828125 26.828125 22.828125 C 27.894531 22.828125 28.902344 23.246094 29.65625 24 L 32.484375 26.828125 C 32.644531 26.984375 32.773438 27.160156 32.898438 27.335938 C 31.144531 28.605469 30 30.667969 30 33 C 30 33.210938 30.015625 33.414062 30.03125 33.621094 C 29.90625 33.632812 29.785156 33.65625 29.65625 33.65625 M 20.84375 26.5 L 15.515625 21.171875 C 13.953125 19.613281 13.953125 17.074219 15.515625 15.515625 C 16.269531 14.757812 17.273438 14.34375 18.34375 14.34375 C 19.410156 14.34375 20.414062 14.757812 21.171875 15.515625 L 26.503906 20.84375 C 25.023438 20.925781 23.640625 21.53125 22.585938 22.585938 C 21.53125 23.640625 20.925781 25.023438 20.84375 26.5 M 37 26 C 36.1875 26 35.414062 26.144531 34.6875 26.398438 C 34.464844 26.050781 34.203125 25.71875 33.898438 25.414062 L 22.585938 14.101562 C 21.453125 12.96875 19.945312 12.34375 18.34375 12.34375 C 16.738281 12.34375 15.234375 12.96875 14.101562 14.101562 C 11.761719 16.441406 11.761719 20.246094 14.101562 22.585938 L 25.414062 33.898438 C 26.546875 35.03125 28.054688 35.65625 29.65625 35.65625 C 29.941406 35.65625 30.222656 35.628906 30.5 35.589844 C 31.53125 38.171875 34.050781 40 37 40 C 40.867188 40 44 36.867188 44 33 C 44 29.132812 40.867188 26 37 26 "/>
</g>
</svg>
