<?xml version="1.0" encoding="UTF-8"?>
<svg xmlns="http://www.w3.org/2000/svg" xmlns:xlink="http://www.w3.org/1999/xlink" width="48pt" height="48pt" viewBox="0 0 48 48" version="1.1">
<g id="surface1">
<path style=" stroke:none;fill-rule:nonzero;fill:rgb(0%,0%,0%);fill-opacity:1;" d="M 29.535156 30.949219 L 26 27.414062 L 27.414062 26 L 30.949219 29.535156 Z M 13.644531 12.230469 L 19.757812 18.34375 L 27.613281 23.371094 L 33.777344 29.535156 L 29.535156 33.777344 L 23.371094 27.613281 L 18.480469 19.925781 L 12.230469 13.644531 C 11.84375 13.253906 11.84375 12.621094 12.230469 12.230469 C 12.621094 11.839844 13.257812 11.839844 13.644531 12.230469 M 35.898438 35.898438 C 34.730469 37.070312 32.828125 37.070312 31.65625 35.898438 L 30.949219 35.191406 L 35.191406 30.949219 L 35.898438 31.65625 C 37.070312 32.828125 37.070312 34.730469 35.898438 35.898438 M 10.816406 15.058594 L 16.851562 21.09375 L 21.742188 28.78125 L 30.242188 37.3125 C 32.191406 39.261719 35.363281 39.261719 37.3125 37.3125 C 39.261719 35.363281 39.261719 32.191406 37.3125 30.242188 L 28.871094 21.800781 L 21.09375 16.851562 L 15.058594 10.816406 C 13.890625 9.648438 11.988281 9.648438 10.816406 10.816406 C 9.648438 11.988281 9.648438 13.890625 10.816406 15.058594 "/>
</g>
</svg>
