<?xml version="1.0" encoding="UTF-8"?>
<svg xmlns="http://www.w3.org/2000/svg" xmlns:xlink="http://www.w3.org/1999/xlink" width="48pt" height="48pt" viewBox="0 0 48 48" version="1.1">
<g id="surface1">
<path style=" stroke:none;fill-rule:nonzero;fill:rgb(0%,0%,0%);fill-opacity:1;" d="M 21.878906 20.464844 L 20.464844 21.878906 L 26.121094 27.535156 L 27.535156 26.121094 Z M 24.707031 28.949219 L 19.050781 23.292969 C 18.269531 22.511719 18.269531 21.246094 19.050781 20.464844 L 20.464844 19.050781 C 21.246094 18.269531 22.511719 18.269531 23.292969 19.050781 L 28.949219 24.707031 C 29.730469 25.488281 29.730469 26.753906 28.949219 27.535156 L 27.535156 28.949219 C 26.753906 29.730469 25.488281 29.730469 24.707031 28.949219 M 21.171875 14.101562 C 19.222656 12.152344 16.050781 12.152344 14.101562 14.101562 C 12.152344 16.050781 12.152344 19.222656 14.101562 21.171875 L 26.828125 33.898438 C 28.777344 35.847656 31.949219 35.847656 33.898438 33.898438 C 35.847656 31.949219 35.847656 28.777344 33.898438 26.828125 Z M 25.414062 35.3125 L 12.6875 22.585938 C 9.957031 19.855469 9.957031 15.414062 12.6875 12.6875 C 15.414062 9.957031 19.855469 9.957031 22.585938 12.6875 L 35.3125 25.414062 C 38.042969 28.144531 38.042969 32.585938 35.3125 35.3125 C 32.585938 38.042969 28.144531 38.042969 25.414062 35.3125 "/>
</g>
</svg>
