<?xml version="1.0" encoding="UTF-8"?>
<svg xmlns="http://www.w3.org/2000/svg" xmlns:xlink="http://www.w3.org/1999/xlink" width="48pt" height="48pt" viewBox="0 0 48 48" version="1.1">
<g id="surface1">
<path style=" stroke:none;fill-rule:nonzero;fill:rgb(0%,0%,0%);fill-opacity:1;" d="M 17.183594 14.351562 L 27.671875 24.84375 L 24.84375 27.671875 L 14.351562 17.183594 Z M 31.207031 28.378906 L 28.378906 31.207031 L 26.257812 29.085938 L 29.085938 26.257812 Z M 10.816406 12.234375 L 13.644531 15.058594 L 11.523438 17.183594 L 23.429688 29.085938 L 26.964844 32.621094 L 25.550781 34.035156 L 26.964844 35.449219 L 30.5 31.914062 L 33.328125 34.742188 L 31.914062 36.15625 L 33.328125 37.570312 L 37.570312 33.328125 L 36.15625 31.914062 L 34.742188 33.328125 L 31.914062 30.5 L 35.449219 26.964844 L 34.035156 25.550781 L 32.621094 26.964844 L 29.085938 23.429688 L 17.183594 11.523438 L 15.058594 13.648438 L 12.230469 10.816406 Z M 10.816406 12.234375 "/>
</g>
</svg>
