<?xml version="1.0" encoding="UTF-8"?>
<svg xmlns="http://www.w3.org/2000/svg" xmlns:xlink="http://www.w3.org/1999/xlink" width="48pt" height="48pt" viewBox="0 0 48 48" version="1.1">
<g id="surface1">
<path style=" stroke:none;fill-rule:nonzero;fill:rgb(0%,0%,0%);fill-opacity:1;" d="M 33 24 C 33 26.914062 31.570312 29.664062 29.179688 31.351562 C 28.5 31.828125 28.054688 32.609375 27.953125 33.488281 C 27.816406 34.664062 27.195312 35.675781 26.199219 36.34375 C 24.886719 37.226562 23.113281 37.226562 21.800781 36.34375 C 20.804688 35.675781 20.183594 34.664062 20.046875 33.488281 C 19.945312 32.609375 19.496094 31.828125 18.8125 31.347656 C 16.136719 29.453125 14.726562 26.371094 15.042969 23.101562 C 15.441406 18.972656 18.851562 15.511719 22.972656 15.058594 C 23.320312 15.019531 23.667969 15 24.011719 15 C 26.234375 15 28.328125 15.796875 30.003906 17.292969 C 31.90625 19 33 21.445312 33 24 M 38 20 C 38 20.335938 37.902344 22 36 22 L 34.804688 22 C 34.675781 21.3125 34.480469 20.644531 34.230469 20 Z M 10 20 L 13.753906 20 C 13.503906 20.640625 13.308594 21.308594 13.183594 22 L 12 22 C 10.175781 22 10.007812 20.464844 10 20 M 40.414062 14 L 44.707031 9.707031 L 43.292969 8.292969 L 39.585938 12 L 36 12 L 36 9 L 34 9 L 34 12 L 31.585938 12 L 29.242188 14.34375 C 27.277344 13.28125 25.015625 12.816406 22.75 13.070312 C 21.316406 13.226562 19.96875 13.675781 18.753906 14.339844 L 16.414062 12 L 14 12 L 14 9 L 12 9 L 12 12 L 8.414062 12 L 4.707031 8.292969 L 3.292969 9.707031 L 7.585938 14 L 15.585938 14 L 17.058594 15.472656 C 16.179688 16.191406 15.410156 17.046875 14.789062 18 L 8 18 L 8 20 C 8 21.605469 9.066406 24 12 24 L 13.019531 24 C 13.015625 27.578125 14.6875 30.878906 17.65625 32.980469 C 17.882812 33.136719 18.023438 33.398438 18.0625 33.71875 C 18.265625 35.484375 19.195312 37.003906 20.683594 38.003906 C 21.675781 38.667969 22.839844 39.003906 24 39.003906 C 25.160156 39.003906 26.324219 38.667969 27.316406 38.003906 C 28.804688 37.007812 29.734375 35.484375 29.9375 33.71875 C 29.960938 33.53125 30.039062 33.191406 30.332031 32.984375 C 33.253906 30.925781 35 27.566406 35 24 L 36 24 C 38.933594 24 40 21.605469 40 20 L 40 18 L 33.199219 18 C 32.679688 17.199219 32.0625 16.453125 31.335938 15.804688 C 31.207031 15.6875 31.066406 15.589844 30.933594 15.480469 L 32.414062 14 Z M 24 33 C 23.449219 33 23 32.550781 23 32 C 23 31.449219 23.449219 31 24 31 C 24.550781 31 25 31.449219 25 32 C 25 32.550781 24.550781 33 24 33 M 25 27 L 25 29.183594 C 24.6875 29.070312 24.351562 29 24 29 C 23.648438 29 23.3125 29.070312 23 29.183594 L 23 27 C 23 23.046875 19.730469 22 18 22 L 17 22 L 17 24 L 17.992188 24 C 18.496094 24.007812 21 24.175781 21 27 L 21 32 C 21 33.652344 22.347656 35 24 35 C 25.652344 35 27 33.652344 27 32 L 27 27 C 27 24.175781 29.503906 24.007812 30 24 L 31 24 L 31 22 L 30 22 C 28.269531 22 25 23.046875 25 27 "/>
</g>
</svg>
