<?xml version="1.0" encoding="UTF-8"?>
<svg xmlns="http://www.w3.org/2000/svg" xmlns:xlink="http://www.w3.org/1999/xlink" width="48pt" height="48pt" viewBox="0 0 48 48" version="1.1">
<g id="surface1">
<path style=" stroke:none;fill-rule:nonzero;fill:rgb(0%,0%,0%);fill-opacity:1;" d="M 24 31.996094 C 23.449219 31.996094 23 31.550781 23 30.996094 C 23 30.445312 23.449219 29.996094 24 29.996094 C 24.550781 29.996094 25 30.445312 25 30.996094 C 25 31.550781 24.550781 31.996094 24 31.996094 M 25 25.996094 L 25 28.183594 C 24.6875 28.070312 24.351562 27.996094 24 27.996094 C 23.648438 27.996094 23.3125 28.070312 23 28.183594 L 23 25.996094 C 23 22.042969 19.730469 20.996094 18 20.996094 L 17 20.996094 L 17 22.996094 L 17.992188 22.996094 C 18.496094 23.003906 21 23.175781 21 25.996094 L 21 30.996094 C 21 32.652344 22.347656 33.996094 24 33.996094 C 25.652344 33.996094 27 32.652344 27 30.996094 L 27 25.996094 C 27 23.175781 29.503906 23.003906 30 22.996094 L 31 22.996094 L 31 20.996094 L 30 20.996094 C 28.269531 20.996094 25 22.042969 25 25.996094 M 33.191406 16.984375 C 32.671875 16.1875 32.058594 15.449219 31.335938 14.800781 C 30.992188 14.492188 30.625 14.21875 30.246094 13.957031 C 30.496094 13.46875 30.988281 12.996094 32 12.996094 L 37 12.996094 C 37 13.15625 36.945312 16.859375 33.191406 16.984375 M 29.179688 30.351562 C 28.5 30.828125 28.054688 31.605469 27.953125 32.488281 C 27.816406 33.660156 27.195312 34.675781 26.199219 35.339844 C 24.886719 36.222656 23.113281 36.222656 21.800781 35.339844 C 20.804688 34.675781 20.183594 33.660156 20.046875 32.488281 C 19.945312 31.609375 19.496094 30.828125 18.8125 30.34375 C 16.136719 28.453125 14.726562 25.371094 15.042969 22.101562 C 15.339844 19.054688 17.269531 16.378906 19.914062 14.996094 L 20 14.996094 C 20 14.984375 19.996094 14.96875 19.996094 14.953125 C 20.914062 14.484375 21.921875 14.171875 22.972656 14.054688 C 23.320312 14.015625 23.667969 13.996094 24.011719 13.996094 C 25.417969 13.996094 26.773438 14.320312 28.003906 14.933594 C 28.003906 14.953125 28 14.976562 28 14.996094 L 28.121094 14.996094 C 28.789062 15.34375 29.421875 15.773438 30.003906 16.289062 C 31.90625 17.996094 33 20.441406 33 22.996094 C 33 25.914062 31.570312 28.660156 29.179688 30.351562 M 11 12.996094 L 16 12.996094 C 17 12.996094 17.492188 13.460938 17.742188 13.953125 C 16.578125 14.765625 15.574219 15.796875 14.796875 16.984375 C 11.148438 16.855469 11.003906 13.394531 11 12.996094 M 32 10.996094 C 30.191406 10.996094 29.101562 11.90625 28.519531 12.980469 C 26.734375 12.175781 24.742188 11.847656 22.75 12.066406 C 21.59375 12.195312 20.496094 12.511719 19.476562 12.976562 C 18.898438 11.902344 17.804688 10.996094 16 10.996094 L 9 10.996094 L 9 12.996094 C 9 14.882812 10.046875 18.289062 13.796875 18.894531 C 13.414062 19.84375 13.152344 20.851562 13.054688 21.90625 C 12.667969 25.902344 14.390625 29.664062 17.65625 31.976562 C 17.828125 32.097656 17.933594 32.292969 18 32.519531 L 18 37 C 18 37.554688 18.445312 38 19 38 C 19.554688 38 20 37.554688 20 37 L 20 36.460938 C 20.214844 36.652344 20.4375 36.835938 20.683594 37 C 21.675781 37.667969 22.839844 38 24 38 C 25.160156 38 26.324219 37.667969 27.316406 37 C 27.5625 36.835938 27.785156 36.652344 28 36.460938 L 28 37 C 28 37.554688 28.445312 38 29 38 C 29.554688 38 30 37.554688 30 37 L 30 32.460938 C 30.054688 32.296875 30.148438 32.113281 30.332031 31.984375 C 33.253906 29.921875 35 26.5625 35 22.996094 C 35 21.578125 34.710938 20.1875 34.191406 18.894531 C 37.953125 18.296875 39 14.886719 39 12.996094 L 39 10.996094 Z M 32 10.996094 "/>
</g>
</svg>
