<?xml version="1.0" encoding="UTF-8"?>
<svg xmlns="http://www.w3.org/2000/svg" xmlns:xlink="http://www.w3.org/1999/xlink" width="48pt" height="48pt" viewBox="0 0 48 48" version="1.1">
<g id="surface1">
<path style=" stroke:none;fill-rule:nonzero;fill:rgb(0%,0%,0%);fill-opacity:1;" d="M 31.335938 15.804688 C 30.664062 15.199219 29.917969 14.699219 29.128906 14.285156 L 30 13.414062 L 30 11 L 30.585938 11 L 33 13.414062 L 33 17.691406 C 32.519531 17.007812 31.96875 16.371094 31.335938 15.804688 M 32.472656 27 L 27 27 C 27 24.175781 29.503906 24.003906 30 24 L 31 24 L 31 22 L 30 22 C 28.269531 22 25 23.042969 25 27 L 25 29.183594 C 24.6875 29.074219 24.351562 29 24 29 C 23.648438 29 23.316406 29.074219 23 29.183594 L 23 27 C 23 23.042969 19.730469 22 18 22 L 17 22 L 17 24 L 17.992188 24 C 18.496094 24.003906 21 24.175781 21 27 L 15.523438 27 C 15.09375 25.78125 14.910156 24.460938 15.042969 23.101562 C 15.441406 18.96875 18.851562 15.511719 22.972656 15.058594 C 23.320312 15.019531 23.667969 15 24.011719 15 C 26.234375 15 28.328125 15.796875 30 17.292969 C 31.90625 19 33 21.445312 33 24 C 33 25.035156 32.8125 26.046875 32.472656 27 M 23 32 C 23 31.449219 23.449219 31 24 31 C 24.550781 31 25 31.449219 25 32 C 25 32.550781 24.550781 33 24 33 C 23.449219 33 23 32.550781 23 32 M 29.179688 31.351562 C 28.5 31.828125 28.054688 32.609375 27.953125 33.492188 C 27.816406 34.664062 27.195312 35.675781 26.199219 36.34375 C 24.886719 37.226562 23.113281 37.226562 21.800781 36.34375 C 20.804688 35.675781 20.183594 34.664062 20.046875 33.488281 C 19.945312 32.609375 19.492188 31.828125 18.8125 31.34375 C 17.890625 30.695312 17.132812 29.894531 16.527344 29 L 21 29 L 21 32 C 21 33.65625 22.347656 35 24 35 C 25.652344 35 27 33.65625 27 32 L 27 29 L 31.472656 29 C 30.863281 29.90625 30.09375 30.707031 29.179688 31.351562 M 17.414062 11 L 18 11 L 18 13.414062 L 18.863281 14.277344 C 17.324219 15.09375 15.996094 16.257812 15 17.671875 L 15 13.414062 Z M 31.414062 9 L 28 9 L 28 12.585938 L 27.117188 13.46875 C 25.71875 13.054688 24.238281 12.90625 22.75 13.070312 C 22.105469 13.140625 21.472656 13.269531 20.863281 13.449219 L 20 12.585938 L 20 9 L 16.585938 9 L 13 12.585938 L 13 24 L 13.019531 24 C 13.015625 27.578125 14.6875 30.878906 17.660156 32.980469 C 17.957031 33.191406 18.039062 33.535156 18.0625 33.71875 C 18.265625 35.484375 19.195312 37.003906 20.683594 38.003906 C 21.675781 38.667969 22.839844 39 24 39 C 25.160156 39 26.324219 38.667969 27.316406 38.003906 C 28.804688 37.003906 29.734375 35.484375 29.9375 33.71875 C 29.960938 33.535156 30.039062 33.191406 30.332031 32.984375 C 33.253906 30.925781 35 27.566406 35 24 L 35 12.585938 Z M 31.414062 9 "/>
</g>
</svg>
