<?xml version="1.0" encoding="UTF-8"?>
<svg xmlns="http://www.w3.org/2000/svg" xmlns:xlink="http://www.w3.org/1999/xlink" width="48pt" height="48pt" viewBox="0 0 48 48" version="1.1">
<g id="surface1">
<path style=" stroke:none;fill-rule:nonzero;fill:rgb(0%,0%,0%);fill-opacity:1;" d="M 35 16.585938 L 33.714844 17.871094 C 33.140625 16.785156 32.390625 15.789062 31.472656 14.941406 L 34.414062 12 L 35 12 Z M 29.179688 30.351562 C 28.5 30.828125 28.054688 31.609375 27.953125 32.488281 C 27.816406 33.664062 27.195312 34.675781 26.199219 35.34375 C 24.886719 36.226562 23.113281 36.226562 21.800781 35.34375 C 20.804688 34.675781 20.183594 33.664062 20.046875 32.488281 C 19.945312 31.609375 19.492188 30.828125 18.8125 30.347656 C 16.136719 28.453125 14.726562 25.371094 15.042969 22.101562 C 15.441406 17.972656 18.851562 14.511719 22.972656 14.058594 C 23.320312 14.019531 23.667969 14 24.011719 14 C 26.234375 14 28.328125 14.796875 30.003906 16.292969 C 31.90625 18 33 20.445312 33 23 C 33 25.917969 31.570312 28.664062 29.179688 30.351562 M 13 16.585938 L 13 12 L 13.585938 12 L 16.527344 14.941406 C 15.621094 15.777344 14.859375 16.765625 14.277344 17.863281 Z M 37 10 L 33.585938 10 L 29.871094 13.71875 C 27.773438 12.394531 25.265625 11.792969 22.75 12.070312 C 21.0625 12.257812 19.492188 12.835938 18.121094 13.707031 L 14.414062 10 L 11 10 L 11 17.414062 L 13.457031 19.871094 C 13.261719 20.527344 13.121094 21.207031 13.054688 21.910156 C 12.664062 25.902344 14.390625 29.667969 17.660156 31.980469 C 17.957031 32.191406 18.039062 32.535156 18.0625 32.71875 C 18.265625 34.484375 19.195312 36.003906 20.683594 37.003906 C 21.675781 37.667969 22.839844 38 24 38 C 25.160156 38 26.324219 37.667969 27.316406 37.003906 C 28.804688 36.003906 29.734375 34.484375 29.9375 32.71875 C 29.960938 32.535156 30.039062 32.191406 30.332031 31.984375 C 33.253906 29.925781 35 26.566406 35 23 C 35 21.933594 34.832031 20.886719 34.535156 19.878906 L 37 17.414062 Z M 24 32 C 23.449219 32 23 31.550781 23 31 C 23 30.449219 23.449219 30 24 30 C 24.550781 30 25 30.449219 25 31 C 25 31.550781 24.550781 32 24 32 M 25 26 L 25 28.183594 C 24.6875 28.070312 24.351562 28 24 28 C 23.648438 28 23.3125 28.070312 23 28.183594 L 23 26 C 23 22.042969 19.730469 21 18 21 L 17 21 L 17 23 L 17.992188 23 C 18.496094 23.007812 21 23.175781 21 26 L 21 31 C 21 32.652344 22.347656 34 24 34 C 25.652344 34 27 32.652344 27 31 L 27 26 C 27 23.175781 29.503906 23.007812 30 23 L 31 23 L 31 21 L 30 21 C 28.269531 21 25 22.042969 25 26 "/>
</g>
</svg>
