<?xml version="1.0" encoding="UTF-8"?>
<svg xmlns="http://www.w3.org/2000/svg" xmlns:xlink="http://www.w3.org/1999/xlink" width="48pt" height="48pt" viewBox="0 0 48 48" version="1.1">
<g id="surface1">
<path style=" stroke:none;fill-rule:nonzero;fill:rgb(0%,0%,0%);fill-opacity:1;" d="M 31.070312 32.070312 C 30.28125 32.859375 29.355469 33.507812 28.320312 34 L 27 34 C 26.8125 34 26.214844 33.957031 25.71875 33.597656 C 27.0625 32.953125 28 31.589844 28 30 L 28 28.007812 C 28.007812 27.503906 28.175781 25 31 25 L 32 25 L 32 23 L 31 23 C 27.046875 23 26 26.269531 26 28 L 22 28 C 22 26.269531 20.957031 23 17 23 L 16 23 L 16 25 L 17 25 C 19.824219 25 19.996094 27.503906 20 28 L 20 30 C 20 31.589844 20.9375 32.953125 22.28125 33.597656 C 21.816406 33.933594 21.253906 33.996094 21 34 L 19.679688 34 C 18.644531 33.507812 17.71875 32.859375 16.929688 32.070312 C 16.019531 31.160156 15.328125 30.113281 14.84375 29 L 17 29 L 17 27 L 14.207031 27 C 13.5625 23.820312 14.46875 20.386719 16.929688 17.929688 C 18.878906 15.980469 21.4375 15.003906 24 15.003906 C 26.558594 15.003906 29.121094 15.980469 31.070312 17.929688 C 33.53125 20.386719 34.433594 23.820312 33.792969 27 L 30 27 L 30 29 L 33.15625 29 C 32.671875 30.113281 31.980469 31.160156 31.070312 32.070312 M 24 32 C 22.898438 32 22 31.101562 22 30 L 26 30 C 26 31.101562 25.101562 32 24 32 M 24 37 C 22.996094 37 22.050781 36.621094 21.332031 35.972656 C 22.21875 35.898438 23.25 35.515625 24 34.710938 C 24.75 35.515625 25.78125 35.898438 26.667969 35.972656 C 25.949219 36.621094 25.007812 37 24 37 M 14 13.121094 C 14 12.503906 14.503906 12 15.121094 12 C 15.417969 12 15.707031 12.121094 15.914062 12.328125 L 18.132812 14.546875 C 17.195312 15.070312 16.308594 15.71875 15.515625 16.515625 C 14.9375 17.089844 14.433594 17.714844 14 18.367188 Z M 32.085938 12.328125 C 32.296875 12.121094 32.585938 12 32.878906 12 C 33.496094 12 34 12.503906 34 13.121094 L 34 18.367188 C 33.566406 17.714844 33.0625 17.089844 32.484375 16.515625 C 31.691406 15.71875 30.804688 15.070312 29.871094 14.546875 Z M 38 29 L 38 27 L 35.816406 27 C 35.929688 26.339844 35.996094 25.671875 35.996094 25 L 36 25 L 36 13.121094 C 36 11.398438 34.597656 10 32.878906 10 C 32.054688 10 31.253906 10.332031 30.671875 10.914062 L 27.914062 13.671875 C 25.382812 12.800781 22.621094 12.800781 20.085938 13.671875 L 17.328125 10.914062 C 16.746094 10.332031 15.941406 10 15.121094 10 C 13.398438 10 12 11.398438 12 13.121094 L 12 25 L 12.007812 25 C 12.007812 25.671875 12.070312 26.339844 12.183594 27 L 10 27 L 10 29 L 12.703125 29 C 12.820312 29.339844 12.957031 29.671875 13.105469 30 L 12 30 L 12 32 L 14.269531 32 C 14.644531 32.515625 15.050781 33.019531 15.515625 33.484375 C 16.429688 34.398438 17.484375 35.15625 18.664062 35.738281 C 19.6875 37.730469 21.742188 39 24 39 C 26.257812 39 28.3125 37.730469 29.335938 35.738281 C 30.511719 35.15625 31.570312 34.398438 32.484375 33.484375 C 32.953125 33.019531 33.355469 32.515625 33.730469 32 L 36 32 L 36 30 L 34.894531 30 C 35.042969 29.671875 35.179688 29.339844 35.296875 29 Z M 38 29 "/>
</g>
</svg>
