<?xml version="1.0" encoding="UTF-8"?>
<svg xmlns="http://www.w3.org/2000/svg" xmlns:xlink="http://www.w3.org/1999/xlink" width="48pt" height="48pt" viewBox="0 0 48 48" version="1.1">
<g id="surface1">
<path style=" stroke:none;fill-rule:nonzero;fill:rgb(0%,0%,0%);fill-opacity:1;" d="M 33.917969 18.703125 C 33.910156 18.683594 33.902344 18.664062 33.894531 18.644531 C 33.863281 18.570312 33.828125 18.5 33.792969 18.425781 C 33.691406 18.1875 33.582031 17.957031 33.460938 17.726562 C 33.410156 17.632812 33.355469 17.535156 33.304688 17.441406 C 33.183594 17.230469 33.058594 17.023438 32.925781 16.820312 C 32.871094 16.738281 32.820312 16.65625 32.765625 16.578125 C 32.382812 16.027344 31.949219 15.515625 31.472656 15.042969 C 31.40625 14.980469 31.34375 14.921875 31.277344 14.859375 C 31.089844 14.6875 30.898438 14.519531 30.703125 14.359375 C 30.625 14.300781 30.554688 14.238281 30.476562 14.179688 C 30.25 14.007812 30.019531 13.84375 29.78125 13.6875 C 29.734375 13.65625 29.691406 13.625 29.644531 13.597656 C 29.625 13.585938 29.605469 13.570312 29.585938 13.558594 C 30.222656 12.601562 31.3125 12 32.5 12 C 34.429688 12 36 13.570312 36 15.5 C 36 16.917969 35.160156 18.15625 33.917969 18.703125 M 31.71875 26.660156 L 27.46875 33 L 26.820312 33 C 26.519531 32.15625 25.847656 31.484375 25 31.183594 L 25 28.691406 C 25.9375 28.417969 26.734375 27.769531 27.1875 26.863281 C 27.453125 26.332031 27.988281 26 28.582031 26 L 31 26 L 31 24 L 28.582031 24 C 27.226562 24 26.003906 24.753906 25.398438 25.96875 C 25.125 26.511719 24.605469 26.832031 24 26.832031 C 23.394531 26.832031 22.871094 26.511719 22.601562 25.96875 C 21.996094 24.753906 20.773438 24 19.414062 24 L 17 24 L 17 26 L 19.414062 26 C 20.011719 26 20.546875 26.332031 20.8125 26.863281 C 21.265625 27.769531 22.0625 28.417969 23 28.691406 L 23 31.183594 C 22.152344 31.484375 21.480469 32.15625 21.179688 33 L 20.53125 33 L 16.28125 26.660156 C 15.246094 24.652344 15.027344 22.367188 15.667969 20.214844 C 15.753906 19.921875 15.855469 19.636719 15.972656 19.359375 C 16.667969 17.683594 17.863281 16.269531 19.382812 15.316406 C 19.636719 15.15625 19.898438 15.011719 20.167969 14.878906 L 20.179688 14.875 C 22.53125 13.71875 25.425781 13.714844 27.828125 14.867188 C 28.097656 15 28.359375 15.148438 28.613281 15.308594 C 30.390625 16.429688 31.726562 18.179688 32.332031 20.222656 C 32.578125 21.023438 32.699219 21.851562 32.699219 22.6875 C 32.699219 24.054688 32.371094 25.390625 31.71875 26.660156 M 23 34 C 23 33.449219 23.449219 33 24 33 C 24.550781 33 25 33.449219 25 34 C 25 34.550781 24.550781 35 24 35 C 23.449219 35 23 34.550781 23 34 M 15.078125 16.8125 C 14.945312 17.015625 14.816406 17.226562 14.695312 17.441406 C 14.644531 17.53125 14.59375 17.625 14.542969 17.71875 C 14.417969 17.953125 14.308594 18.191406 14.199219 18.433594 C 14.171875 18.503906 14.136719 18.570312 14.109375 18.640625 C 14.101562 18.660156 14.089844 18.683594 14.078125 18.703125 C 12.839844 18.15625 12 16.917969 12 15.5 C 12 13.570312 13.570312 12 15.5 12 C 16.6875 12 17.777344 12.605469 18.410156 13.5625 C 18.398438 13.574219 18.382812 13.585938 18.367188 13.59375 C 18.300781 13.636719 18.234375 13.683594 18.167969 13.726562 C 17.953125 13.867188 17.742188 14.015625 17.539062 14.171875 C 17.449219 14.234375 17.367188 14.304688 17.28125 14.375 C 17.097656 14.523438 16.914062 14.679688 16.742188 14.84375 C 16.667969 14.910156 16.59375 14.976562 16.523438 15.046875 C 16.046875 15.515625 15.617188 16.023438 15.234375 16.574219 C 15.179688 16.652344 15.128906 16.730469 15.078125 16.8125 M 38 15.5 C 38 12.46875 35.53125 10 32.5 10 C 30.539062 10 28.757812 11.054688 27.78125 12.691406 C 25.335938 11.785156 22.613281 11.792969 20.214844 12.695312 C 19.238281 11.054688 17.457031 10 15.5 10 C 12.46875 10 10 12.46875 10 15.5 C 10 17.8125 11.429688 19.820312 13.511719 20.625 C 13.085938 22.773438 13.339844 24.984375 14.234375 27 L 12 27 L 12 29 L 15.449219 29 L 19.46875 35 L 21.183594 35 C 21.234375 35.136719 21.292969 35.265625 21.359375 35.390625 C 21.367188 35.410156 21.378906 35.429688 21.390625 35.445312 C 21.457031 35.566406 21.527344 35.683594 21.609375 35.796875 C 21.621094 35.808594 21.632812 35.816406 21.640625 35.832031 C 21.792969 36.027344 21.972656 36.207031 22.171875 36.359375 C 22.203125 36.386719 22.234375 36.417969 22.269531 36.441406 C 22.339844 36.492188 22.414062 36.53125 22.488281 36.574219 C 22.570312 36.625 22.652344 36.671875 22.738281 36.710938 C 22.804688 36.742188 22.871094 36.769531 22.941406 36.796875 C 23.050781 36.839844 23.160156 36.871094 23.273438 36.902344 C 23.332031 36.917969 23.390625 36.933594 23.453125 36.945312 C 23.628906 36.976562 23.8125 37 24 37 C 24.1875 37 24.371094 36.976562 24.546875 36.945312 C 24.609375 36.933594 24.664062 36.917969 24.726562 36.902344 C 24.839844 36.875 24.949219 36.839844 25.058594 36.796875 C 25.125 36.769531 25.195312 36.742188 25.261719 36.710938 C 25.347656 36.671875 25.429688 36.625 25.511719 36.574219 C 25.585938 36.53125 25.660156 36.492188 25.730469 36.441406 C 25.765625 36.417969 25.796875 36.386719 25.832031 36.359375 C 26.027344 36.207031 26.207031 36.027344 26.359375 35.832031 C 26.367188 35.816406 26.378906 35.808594 26.390625 35.796875 C 26.472656 35.683594 26.542969 35.566406 26.609375 35.445312 C 26.621094 35.429688 26.632812 35.410156 26.640625 35.390625 C 26.707031 35.265625 26.765625 35.136719 26.816406 35 L 28.53125 35 L 32.554688 29 L 36 29 L 36 27 L 33.75 27 C 34.367188 25.613281 34.699219 24.171875 34.699219 22.6875 C 34.699219 21.992188 34.625 21.304688 34.488281 20.625 C 36.570312 19.820312 38 17.8125 38 15.5 "/>
</g>
</svg>
