<?xml version="1.0" encoding="UTF-8"?>
<svg xmlns="http://www.w3.org/2000/svg" xmlns:xlink="http://www.w3.org/1999/xlink" width="48pt" height="48pt" viewBox="0 0 48 48" version="1.1">
<g id="surface1">
<path style=" stroke:none;fill-rule:nonzero;fill:rgb(0%,0%,0%);fill-opacity:1;" d="M 19 33 L 21 33 L 21 37 L 19 37 Z M 27 33 L 29 33 L 29 37 L 27 37 Z M 23 33 L 25 33 L 25 37 L 23 37 Z M 25 16.925781 L 25 15 L 23 15 L 23 16.925781 C 20.84375 16.617188 18.960938 15.3125 17.898438 13.402344 C 19.546875 11.871094 21.730469 11 24 11 C 26.269531 11 28.453125 11.871094 30.101562 13.402344 C 29.039062 15.3125 27.15625 16.617188 25 16.925781 M 24 23.484375 C 23.496094 22.324219 22.773438 21.160156 21.753906 20.515625 L 24 19.164062 L 26.246094 20.515625 C 25.226562 21.160156 24.503906 22.324219 24 23.484375 M 35 33 L 35 20 C 35 17.214844 33.957031 14.5625 32.066406 12.53125 C 32.066406 12.53125 32.066406 12.53125 32.0625 12.53125 L 32.0625 12.527344 C 29.996094 10.285156 27.058594 9 24 9 C 20.941406 9 18.003906 10.285156 15.9375 12.527344 L 15.9375 12.53125 C 15.933594 12.53125 15.933594 12.53125 15.933594 12.53125 C 14.042969 14.5625 13 17.214844 13 20 L 13 33 C 13 33.335938 12.902344 35 11 35 L 11 37 L 17 37 L 17 35 L 14.492188 35 C 14.847656 34.335938 15 33.609375 15 33 L 15 20 C 15 18.195312 15.542969 16.46875 16.53125 15 C 17.648438 16.671875 19.28125 17.90625 21.171875 18.53125 L 18.484375 20.144531 L 19 22 L 20 22 C 21.621094 22 22.730469 25.480469 23.015625 27.164062 L 24.984375 27.164062 C 25.269531 25.480469 26.378906 22 28 22 L 29 22 L 29.515625 20.144531 L 26.828125 18.53125 C 28.71875 17.90625 30.351562 16.671875 31.46875 15 C 32.457031 16.46875 33 18.195312 33 20 L 33 33 C 33 33.609375 33.152344 34.335938 33.507812 35 L 31 35 L 31 37 L 37 37 L 37 35 C 35.171875 35 35.007812 33.464844 35 33 "/>
</g>
</svg>
