<?xml version="1.0" encoding="UTF-8"?>
<svg xmlns="http://www.w3.org/2000/svg" xmlns:xlink="http://www.w3.org/1999/xlink" width="48pt" height="48pt" viewBox="0 0 48 48" version="1.1">
<g id="surface1">
<path style=" stroke:none;fill-rule:nonzero;fill:rgb(0%,0%,0%);fill-opacity:1;" d="M 27.585938 12.746094 C 26.464844 12.261719 25.246094 12 24 12 C 22.753906 12 21.535156 12.261719 20.414062 12.746094 C 22.632812 14.082031 25.367188 14.082031 27.585938 12.746094 M 24 17.164062 L 21.878906 18.4375 C 22.828125 18.921875 23.515625 19.726562 24 20.511719 C 24.484375 19.726562 25.171875 18.921875 26.121094 18.4375 Z M 37 34 L 37 36 L 31 36 C 29.390625 36 27 34.933594 27 32 L 29 32 C 29 33.902344 30.664062 34 31 34 L 33.507812 34 C 33.152344 33.335938 33 32.609375 33 32 L 33 21 C 33 18.722656 32.148438 16.554688 30.597656 14.890625 L 30.59375 14.886719 C 30.253906 14.515625 29.878906 14.1875 29.484375 13.882812 C 28.242188 14.839844 26.828125 15.429688 25.371094 15.65625 L 29.515625 18.144531 L 29 20 L 28 20 C 25.824219 20 24.976562 23.214844 24.96875 23.246094 L 23.03125 23.242188 C 23.023438 23.214844 22.175781 20 20 20 L 19 20 L 18.484375 18.144531 L 22.628906 15.65625 C 21.171875 15.429688 19.757812 14.839844 18.515625 13.882812 C 18.121094 14.1875 17.746094 14.515625 17.40625 14.886719 L 17.402344 14.890625 C 15.851562 16.554688 15 18.722656 15 21 L 15 32 C 15 32.609375 14.847656 33.335938 14.492188 34 L 17 34 C 17.464844 33.992188 19 33.824219 19 32 L 21 32 C 21 34.933594 18.609375 36 17 36 L 11 36 L 11 34 C 12.902344 34 13 32.335938 13 32 L 13 21 C 13 18.214844 14.042969 15.5625 15.933594 13.53125 C 15.933594 13.53125 15.933594 13.53125 15.9375 13.53125 L 15.9375 13.527344 C 18.003906 11.285156 20.941406 10 24 10 C 27.058594 10 29.996094 11.285156 32.0625 13.527344 L 32.0625 13.53125 C 32.066406 13.53125 32.066406 13.53125 32.066406 13.53125 C 33.957031 15.5625 35 18.214844 35 21 L 35 32 C 35.007812 32.464844 35.171875 34 37 34 M 23 32 L 25 32 L 25 36 L 23 36 Z M 23 32 "/>
</g>
</svg>
