<?xml version="1.0" encoding="UTF-8"?>
<svg xmlns="http://www.w3.org/2000/svg" xmlns:xlink="http://www.w3.org/1999/xlink" width="48pt" height="48pt" viewBox="0 0 48 48" version="1.1">
<g id="surface1">
<path style=" stroke:none;fill-rule:nonzero;fill:rgb(0%,0%,0%);fill-opacity:1;" d="M 23 32 L 25 32 L 25 36 L 23 36 Z M 25 13 C 25 13.550781 24.550781 14 24 14 C 23.449219 14 23 13.550781 23 13 L 23 9 C 23 8.449219 23.449219 8 24 8 C 24.550781 8 25 8.449219 25 9 Z M 24 23.484375 C 23.496094 22.324219 22.773438 21.160156 21.753906 20.515625 L 24 19.164062 L 26.246094 20.515625 C 25.226562 21.160156 24.503906 22.324219 24 23.484375 M 35 32 L 35 21 C 35 16.0625 31.683594 11.75 27 10.421875 L 27 9 C 27 7.347656 25.652344 6 24 6 C 22.347656 6 21 7.347656 21 9 L 21 10.421875 C 16.316406 11.75 13 16.0625 13 21 L 13 32 C 13 32.335938 12.902344 34 11 34 L 11 36 L 17 36 C 19.933594 36 21 33.605469 21 32 L 19 32 C 19 32.335938 18.902344 34 17 34 L 14.488281 34 C 14.84375 33.335938 15 32.609375 15 32 L 15 21 C 15 17.15625 17.460938 13.78125 21 12.523438 L 21 13 C 21 14.300781 21.839844 15.402344 23 15.816406 L 23 17.433594 L 18.484375 20.144531 L 19 22 L 20 22 C 21.621094 22 22.730469 25.480469 23.015625 27.164062 L 24.984375 27.164062 C 25.269531 25.480469 26.378906 22 28 22 L 29 22 L 29.515625 20.144531 L 25 17.433594 L 25 15.816406 C 26.160156 15.402344 27 14.300781 27 13 L 27 12.523438 C 30.539062 13.78125 33 17.15625 33 21 L 33 32 C 33 32.609375 33.15625 33.335938 33.511719 34 L 31 34 C 29.175781 34 29.007812 32.464844 29 31.992188 L 28 32 L 27 32 C 27 33.605469 28.066406 36 31 36 L 37 36 L 37 34 C 35.175781 34 35.007812 32.464844 35 32 "/>
</g>
</svg>
