<?xml version="1.0" encoding="UTF-8"?>
<svg xmlns="http://www.w3.org/2000/svg" xmlns:xlink="http://www.w3.org/1999/xlink" width="48pt" height="48pt" viewBox="0 0 48 48" version="1.1">
<g id="surface1">
<path style=" stroke:none;fill-rule:nonzero;fill:rgb(0%,0%,0%);fill-opacity:1;" d="M 23 31 L 25 31 L 25 34 L 23 34 Z M 26.992188 19 L 21 19 C 20.664062 19 19 18.902344 19 17 C 19 16.582031 18.863281 16.160156 18.613281 15.808594 C 20.117188 14.679688 21.980469 14 24 14 C 26.019531 14 27.882812 14.679688 29.386719 15.808594 C 29.136719 16.160156 29 16.582031 29 17 C 29 18.824219 27.464844 18.992188 26.992188 19 M 26 22.09375 C 25.128906 22.285156 24.472656 22.722656 24 23.269531 C 23.527344 22.722656 22.871094 22.285156 22 22.09375 L 22 21 L 26 21 Z M 35 31 L 35 23 C 35 16.933594 30.066406 12 24 12 C 17.933594 12 13 16.933594 13 23 L 13 30.988281 C 12.988281 31.449219 12.804688 32 12 32 L 12 34 L 18 34 C 20.199219 34 21 32.207031 21 31 L 19 30.988281 C 18.988281 31.449219 18.804688 32 18 32 L 14.835938 32 C 14.945312 31.652344 15 31.308594 15 31 L 15 23 C 15 20.84375 15.765625 18.863281 17.03125 17.3125 C 17.171875 19.457031 18.621094 20.519531 20 20.859375 L 20 23.992188 L 21 23.992188 C 22.824219 23.992188 22.992188 25.527344 23 26 L 24 25.992188 L 25 25.992188 C 25 25.65625 25.097656 23.992188 27 23.992188 L 28 23.992188 L 28 20.859375 C 29.378906 20.519531 30.828125 19.457031 30.96875 17.3125 C 32.234375 18.863281 33 20.84375 33 23 L 33 31 C 33 31.308594 33.054688 31.652344 33.164062 32 L 30 32 C 29.195312 32 29.011719 31.449219 29 30.988281 L 28 31 L 27 31 C 27 32.207031 27.800781 34 30 34 L 36 34 L 36 32 C 35.195312 32 35.011719 31.449219 35 31 "/>
</g>
</svg>
