<?xml version="1.0" encoding="UTF-8"?>
<svg xmlns="http://www.w3.org/2000/svg" xmlns:xlink="http://www.w3.org/1999/xlink" width="48pt" height="48pt" viewBox="0 0 48 48" version="1.1">
<g id="surface1">
<path style=" stroke:none;fill-rule:nonzero;fill:rgb(0%,0%,0%);fill-opacity:1;" d="M 27.554688 30.300781 C 27.828125 30.464844 28 30.765625 28 31.085938 C 28 31.589844 27.589844 32 27.082031 32 L 25 32 L 25 30 L 23 30 L 23 32 L 20.914062 32 C 20.410156 32 20 31.589844 20 31.085938 C 20 30.765625 20.167969 30.464844 20.445312 30.300781 L 23.527344 28.449219 C 23.820312 28.273438 24.179688 28.273438 24.46875 28.449219 Z M 26.121094 22.464844 C 24.953125 23.632812 23.046875 23.632812 21.878906 22.464844 L 20.414062 21 L 17 21 L 17 23 L 19.585938 23 L 20.464844 23.878906 C 21.183594 24.597656 22.070312 25.046875 23 25.238281 L 23 26.519531 C 22.832031 26.582031 22.660156 26.640625 22.5 26.734375 L 19.414062 28.585938 C 18.542969 29.109375 18 30.066406 18 31.085938 C 18 32.691406 19.308594 34 20.914062 34 L 27.082031 34 C 28.691406 34 30 32.691406 30 31.085938 C 30 30.066406 29.457031 29.109375 28.582031 28.585938 L 25.5 26.734375 C 25.339844 26.640625 25.167969 26.582031 25 26.519531 L 25 25.238281 C 25.929688 25.046875 26.816406 24.597656 27.535156 23.878906 L 28.414062 23 L 31 23 L 31 21 L 27.585938 21 Z M 36 14 L 36 17 C 36 17.550781 35.550781 18 35 18 L 33.539062 18 C 33.195312 16.90625 32.65625 15.898438 31.980469 15 L 32 15 C 32 14.664062 32.09375 13 34 13 L 36.171875 13 C 36.0625 13.3125 36 13.648438 36 14 M 27 35 L 21 35 C 17.140625 35 14 31.859375 14 28 C 14 26.304688 14.621094 24.664062 15.75 23.382812 L 16 23.097656 L 16 21 C 16 16.589844 19.589844 13 24 13 C 28.410156 13 32 16.589844 32 21 L 32 23.097656 L 32.25 23.382812 C 33.378906 24.664062 34 26.304688 34 28 C 34 31.859375 30.859375 35 27 35 M 13 18 C 12.449219 18 12 17.550781 12 17 L 12 14 C 12 13.648438 11.941406 13.3125 11.828125 13 L 14 13 C 15.828125 13 15.992188 14.535156 16 15 L 16.019531 15 C 15.34375 15.898438 14.804688 16.90625 14.460938 18 Z M 34 11 C 32.015625 11 30.898438 12.097656 30.375 13.304688 C 28.644531 11.867188 26.421875 11 24 11 C 21.578125 11 19.355469 11.867188 17.621094 13.304688 C 17.101562 12.097656 15.984375 11 14 11 L 8 11 L 8 13 L 9 13 C 9.550781 13 10 13.449219 10 14 L 10 17 C 10 18.652344 11.34375 20 13 20 L 14.050781 20 C 14.019531 20.328125 14 20.660156 14 21 L 14 22.355469 C 12.707031 23.957031 12 25.945312 12 28 C 12 32.960938 16.035156 37 21 37 L 27 37 C 31.960938 37 36 32.960938 36 28 C 36 25.945312 35.292969 23.957031 34 22.355469 L 34 21 C 34 20.660156 33.984375 20.328125 33.949219 20 L 35 20 C 36.65625 20 38 18.652344 38 17 L 38 14 C 38 13.449219 38.449219 13 39 13 L 40 13 L 40 11 Z M 34 11 "/>
</g>
</svg>
