<?xml version="1.0" encoding="UTF-8"?>
<svg xmlns="http://www.w3.org/2000/svg" xmlns:xlink="http://www.w3.org/1999/xlink" width="48pt" height="48pt" viewBox="0 0 48 48" version="1.1">
<g id="surface1">
<path style=" stroke:none;fill-rule:nonzero;fill:rgb(0%,0%,0%);fill-opacity:1;" d="M 27.585938 19 L 31 19 L 31 21 L 28.414062 21 L 27.535156 21.878906 C 26.816406 22.597656 25.929688 23.046875 25 23.234375 L 25 29 L 23 29 L 23 23.234375 C 22.070312 23.046875 21.183594 22.597656 20.464844 21.878906 L 19.585938 21 L 17 21 L 17 19 L 20.414062 19 L 21.878906 20.464844 C 23.050781 21.632812 24.949219 21.632812 26.121094 20.464844 Z M 34.816406 16.136719 L 28.328125 32 L 19.671875 32 L 13.183594 16.136719 C 12.796875 15.195312 12.898438 14.171875 13.46875 13.328125 C 14.03125 12.484375 14.941406 12 15.957031 12 L 17 12 L 17 14 L 19 14 L 19 12 L 23 12 L 23 14 L 25 14 L 25 12 L 29 12 L 29 14 L 31 14 L 31 12 L 32.042969 12 C 33.058594 12 33.96875 12.484375 34.53125 13.328125 C 35.101562 14.171875 35.203125 15.195312 34.816406 16.136719 M 36.191406 12.214844 C 35.265625 10.828125 33.710938 10 32.042969 10 L 15.957031 10 C 14.289062 10 12.734375 10.828125 11.808594 12.214844 C 10.875 13.597656 10.699219 15.347656 11.328125 16.894531 L 18.328125 34 L 23 34 L 23 36.585938 L 21.292969 38.292969 L 22.707031 39.707031 L 24 38.414062 L 25.292969 39.707031 L 26.707031 38.292969 L 25 36.585938 L 25 34 L 29.671875 34 L 36.667969 16.894531 C 37.300781 15.347656 37.121094 13.597656 36.191406 12.214844 "/>
</g>
</svg>
