<?xml version="1.0" encoding="UTF-8"?>
<svg xmlns="http://www.w3.org/2000/svg" xmlns:xlink="http://www.w3.org/1999/xlink" width="48pt" height="48pt" viewBox="0 0 48 48" version="1.1">
<g id="surface1">
<path style=" stroke:none;fill-rule:nonzero;fill:rgb(0%,0%,0%);fill-opacity:1;" d="M 37 17 L 36 17 L 36 15 L 39 15 C 39 15.335938 38.902344 17 37 17 M 34 26.585938 L 28.585938 32 L 27 32 L 27 25.316406 C 27.183594 25.179688 27.367188 25.046875 27.535156 24.878906 L 29.414062 23 L 32 23 L 32 21 L 28.585938 21 L 26.121094 23.464844 C 24.949219 24.632812 23.050781 24.632812 21.878906 23.464844 L 19.414062 21 L 16 21 L 16 23 L 18.585938 23 L 20.464844 24.878906 C 20.632812 25.046875 20.816406 25.179688 21 25.316406 L 21 32 L 19.414062 32 L 14 26.585938 L 14 15 L 34 15 Z M 23 26.234375 C 23.328125 26.304688 23.664062 26.339844 24 26.339844 C 24.335938 26.339844 24.671875 26.304688 25 26.234375 L 25 32 L 23 32 Z M 27 37 L 25 37 L 25 35 L 23 35 L 23 37 L 21 37 C 20.449219 37 20 36.550781 20 36 L 20 34 L 28 34 L 28 36 C 28 36.550781 27.550781 37 27 37 M 11 17 C 9.175781 17 9.007812 15.464844 9 15 L 12 15 L 12 17 Z M 17.585938 13 L 14 13 L 14 9.414062 Z M 34 9.414062 L 34 13 L 30.414062 13 Z M 36 13 L 36 9.414062 C 36 8.601562 35.515625 7.878906 34.765625 7.566406 C 34.015625 7.253906 33.160156 7.425781 32.585938 8 L 27.585938 13 L 20.414062 13 L 15.414062 8 C 14.839844 7.425781 13.984375 7.253906 13.234375 7.566406 C 12.484375 7.878906 12 8.601562 12 9.414062 L 12 13 L 7 13 L 7 15 C 7 16.605469 8.066406 19 11 19 L 12 19 L 12 27.414062 L 18 33.414062 L 18 36 C 18 37.652344 19.347656 39 21 39 L 27 39 C 28.652344 39 30 37.652344 30 36 L 30 33.414062 L 36 27.414062 L 36 19 L 37 19 C 39.933594 19 41 16.605469 41 15 L 41 13 Z M 36 13 "/>
</g>
</svg>
