<?xml version="1.0" encoding="UTF-8"?>
<svg xmlns="http://www.w3.org/2000/svg" xmlns:xlink="http://www.w3.org/1999/xlink" width="48pt" height="48pt" viewBox="0 0 48 48" version="1.1">
<g id="surface1">
<path style=" stroke:none;fill-rule:nonzero;fill:rgb(0%,0%,0%);fill-opacity:1;" d="M 34 16 C 34 15.449219 33.550781 15 33 15 L 30 15 L 30 18 L 28 18 L 28 15 L 25 15 L 25 18 L 23 18 L 23 15 L 20 15 L 20 18 L 18 18 L 18 15 L 15 15 C 14.449219 15 14 15.449219 14 16 L 14 25.585938 L 19 30.585938 L 19 35 C 19 35.550781 19.449219 36 20 36 L 28 36 C 28.550781 36 29 35.550781 29 35 L 29 30.585938 L 34 25.585938 Z M 14 10 L 14 13.183594 C 14.3125 13.070312 14.648438 13 15 13 L 16 13 L 16 12 C 16 10.097656 14.335938 10 14 10 M 32 13 L 33 13 C 33.351562 13 33.6875 13.070312 34 13.183594 L 34 10 C 33.535156 10.007812 32 10.175781 32 12 Z M 36 8 L 36 26.414062 L 31 31.414062 L 31 35 C 31 36.652344 29.652344 38 28 38 L 20 38 C 18.347656 38 17 36.652344 17 35 L 17 31.414062 L 12 26.414062 L 12 8 L 14 8 C 15.605469 8 18 9.066406 18 12 L 18 13 L 30 13 L 30 12 C 30 9.066406 32.394531 8 34 8 Z M 28.585938 20 L 32 20 L 32 22 L 29.414062 22 L 27.535156 23.878906 C 26.832031 24.582031 25.953125 25.050781 25 25.242188 L 25 30.140625 C 26.722656 30.589844 28 32.140625 28 34 L 26 34 C 26 32.898438 25.101562 32 24 32 C 22.898438 32 22 32.898438 22 34 L 20 34 C 20 32.140625 21.277344 30.589844 23 30.140625 L 23 25.242188 C 22.046875 25.050781 21.167969 24.582031 20.464844 23.878906 L 18.585938 22 L 16 22 L 16 20 L 19.414062 20 L 21.878906 22.464844 C 23.050781 23.636719 24.949219 23.636719 26.121094 22.464844 Z M 28.585938 20 "/>
</g>
</svg>
