<?xml version="1.0" encoding="UTF-8"?>
<svg xmlns="http://www.w3.org/2000/svg" xmlns:xlink="http://www.w3.org/1999/xlink" width="48pt" height="48pt" viewBox="0 0 48 48" version="1.1">
<g id="surface1">
<path style=" stroke:none;fill-rule:nonzero;fill:rgb(0%,0%,0%);fill-opacity:1;" d="M 29 30.585938 L 29 35 C 29 35.550781 28.550781 36 28 36 L 20 36 C 19.449219 36 19 35.550781 19 35 L 19 30.585938 L 14 25.585938 L 14 16 C 14 15.449219 14.449219 15 15 15 L 33 15 C 33.550781 15 34 15.449219 34 16 L 34 25.585938 Z M 14 13 C 14 12.027344 14.699219 11.214844 15.621094 11.035156 L 17.585938 13 L 15 13 C 14.648438 13 14.3125 13.070312 14 13.183594 Z M 31.707031 11.707031 L 32.378906 11.035156 C 33.300781 11.214844 34 12.027344 34 13 L 34 13.183594 C 33.6875 13.070312 33.351562 13 33 13 L 30.414062 13 Z M 12 18 L 11 18 C 9.175781 18 9.007812 16.464844 9 16 L 12 16 Z M 36 16 L 39 16 C 39 16.332031 38.902344 18 37 18 L 36 18 Z M 36 26.414062 L 36 20 L 37 20 C 39.933594 20 41 17.605469 41 16 L 41 14 L 36 14 L 36 13 C 36 11.488281 35.148438 10.1875 33.90625 9.507812 L 36.707031 6.707031 L 35.292969 5.292969 L 27.585938 13 L 20.414062 13 L 12.707031 5.292969 L 11.292969 6.707031 L 14.09375 9.507812 C 12.851562 10.1875 12 11.488281 12 13 L 12 14 L 7 14 L 7 16 C 7 17.605469 8.066406 20 11 20 L 12 20 L 12 26.414062 L 17 31.414062 L 17 33 L 14 33 C 13.171875 33 12.5 32.328125 12.5 31.5 C 12.5 29.570312 10.929688 28 9 28 L 7 28 L 7 30 L 9 30 C 9.828125 30 10.5 30.671875 10.5 31.5 C 10.5 33.429688 12.070312 35 14 35 L 17 35 C 17 36.652344 18.347656 38 20 38 L 28 38 C 29.652344 38 31 36.652344 31 35 L 34 35 C 35.929688 35 37.5 33.429688 37.5 31.5 C 37.5 30.671875 38.171875 30 39 30 L 41 30 L 41 28 L 39 28 C 37.070312 28 35.5 29.570312 35.5 31.5 C 35.5 32.328125 34.828125 33 34 33 L 31 33 L 31 31.414062 Z M 25 30.140625 C 24.679688 30.058594 24.347656 30 24 30 C 23.652344 30 23.320312 30.058594 23 30.140625 L 23 25.242188 C 23.324219 25.308594 23.660156 25.34375 24 25.34375 C 24.339844 25.34375 24.675781 25.308594 25 25.242188 Z M 26.121094 22.464844 C 24.949219 23.636719 23.050781 23.636719 21.878906 22.464844 L 19.414062 20 L 16 20 L 16 22 L 18.585938 22 L 20.464844 23.878906 C 20.628906 24.042969 20.816406 24.179688 21 24.316406 L 21 31.382812 C 20.386719 32.085938 20 32.992188 20 34 L 22 34 C 22 32.898438 22.898438 32 24 32 C 25.101562 32 26 32.898438 26 34 L 28 34 C 28 32.992188 27.613281 32.085938 27 31.382812 L 27 24.316406 C 27.183594 24.179688 27.371094 24.042969 27.535156 23.878906 L 29.414062 22 L 32 22 L 32 20 L 28.585938 20 Z M 26.121094 22.464844 "/>
</g>
</svg>
