<?xml version="1.0" encoding="UTF-8"?>
<svg xmlns="http://www.w3.org/2000/svg" xmlns:xlink="http://www.w3.org/1999/xlink" width="48pt" height="48pt" viewBox="0 0 48 48" version="1.1">
<g id="surface1">
<path style=" stroke:none;fill-rule:nonzero;fill:rgb(0%,0%,0%);fill-opacity:1;" d="M 26.292969 23.328125 L 28.585938 21.035156 L 29 21.035156 C 29.605469 21.035156 30.191406 21.109375 30.757812 21.234375 C 29.960938 18.246094 27.238281 16.035156 24 16.035156 C 20.761719 16.035156 18.039062 18.246094 17.242188 21.234375 C 17.808594 21.109375 18.394531 21.035156 19 21.035156 L 19.414062 21.035156 L 21.707031 23.328125 L 20.292969 24.742188 L 18.597656 23.050781 C 15.8125 23.230469 13.542969 25.332031 13.089844 28.039062 C 13.066406 28.1875 13.039062 28.335938 13.027344 28.484375 C 13.023438 28.515625 13.023438 28.546875 13.023438 28.578125 C 12.910156 30.132812 13.382812 31.65625 14.367188 32.847656 C 15.515625 34.238281 17.203125 35.035156 19 35.035156 C 19.78125 35.035156 20.539062 34.886719 21.253906 34.597656 C 23.023438 33.875 24.976562 33.875 26.746094 34.597656 C 27.460938 34.886719 28.21875 35.035156 29 35.035156 C 30.796875 35.035156 32.484375 34.238281 33.632812 32.847656 C 34.617188 31.65625 35.089844 30.132812 34.976562 28.578125 C 34.976562 28.546875 34.976562 28.515625 34.972656 28.484375 C 34.960938 28.335938 34.933594 28.1875 34.910156 28.039062 C 34.457031 25.332031 32.1875 23.230469 29.402344 23.050781 L 27.707031 24.742188 Z M 15.84375 19.257812 C 16.421875 18.015625 17.265625 16.925781 18.3125 16.066406 L 14.535156 12.292969 C 14.347656 12.105469 14.09375 12 13.828125 12 L 10 12 L 10 13 C 10 13.261719 10.105469 13.519531 10.292969 13.707031 Z M 29.699219 16.074219 C 30.746094 16.933594 31.589844 18.027344 32.164062 19.269531 L 37.707031 13.722656 C 37.894531 13.539062 38 13.28125 38 13.015625 L 38 12.015625 L 34.171875 12.015625 C 33.90625 12.015625 33.652344 12.125 33.464844 12.308594 Z M 32.847656 21.414062 C 32.886719 21.636719 32.925781 21.859375 32.949219 22.085938 C 34.921875 23.214844 36.375 25.148438 36.839844 27.445312 L 36.847656 27.441406 C 36.871094 27.570312 36.878906 27.695312 36.898438 27.820312 C 36.910156 27.890625 36.921875 27.964844 36.929688 28.035156 L 40 28.035156 L 40 30.035156 L 36.929688 30.035156 C 36.742188 31.527344 36.148438 32.941406 35.175781 34.121094 C 33.648438 35.972656 31.398438 37.035156 29 37.035156 C 27.960938 37.035156 26.945312 36.839844 25.992188 36.449219 C 24.707031 35.925781 23.292969 35.925781 22.007812 36.449219 C 21.054688 36.839844 20.042969 37.035156 19 37.035156 C 16.601562 37.035156 14.351562 35.972656 12.824219 34.121094 C 11.851562 32.941406 11.257812 31.527344 11.070312 30.035156 L 8 30.035156 L 8 28.035156 L 11.070312 28.035156 C 11.078125 27.964844 11.089844 27.890625 11.101562 27.820312 C 11.121094 27.695312 11.128906 27.570312 11.152344 27.441406 L 11.160156 27.445312 C 11.625 25.148438 13.078125 23.214844 15.050781 22.085938 C 15.074219 21.851562 15.113281 21.625 15.15625 21.398438 L 8.878906 15.121094 C 8.3125 14.554688 8 13.800781 8 13 L 8 10 L 13.828125 10 C 14.628906 10 15.382812 10.3125 15.949219 10.878906 L 20.039062 14.96875 C 21.234375 14.375 22.578125 14.035156 24 14.035156 C 25.429688 14.035156 26.773438 14.378906 27.976562 14.972656 L 32.050781 10.894531 C 32.617188 10.332031 33.371094 10.015625 34.171875 10.015625 L 40 10.015625 L 40 13.015625 C 40 13.816406 39.6875 14.570312 39.121094 15.140625 Z M 26.292969 26.328125 L 27.707031 27.742188 L 25.742188 29.707031 C 25.527344 29.921875 25.273438 30.089844 25 30.210938 L 25 32.429688 L 23 32.429688 L 23 30.210938 C 22.726562 30.089844 22.472656 29.921875 22.253906 29.707031 L 20.292969 27.742188 L 21.707031 26.328125 L 23.671875 28.292969 C 23.789062 28.410156 23.929688 28.429688 24 28.429688 C 24.070312 28.429688 24.210938 28.410156 24.328125 28.292969 Z M 26.292969 26.328125 "/>
</g>
</svg>
