<?xml version="1.0" encoding="UTF-8"?>
<svg xmlns="http://www.w3.org/2000/svg" xmlns:xlink="http://www.w3.org/1999/xlink" width="48pt" height="48pt" viewBox="0 0 48 48" version="1.1">
<g id="surface1">
<path style=" stroke:none;fill-rule:nonzero;fill:rgb(0%,0%,0%);fill-opacity:1;" d="M 34.464844 32 L 33 32 L 33 30 L 31 30 L 31 32.535156 C 30.332031 33.09375 29.480469 33.488281 28.640625 33.863281 L 28.34375 34 L 27 34 C 26.683594 34 25.167969 33.894531 25.027344 32.234375 C 25.222656 31.941406 25.640625 31.414062 26.246094 31.15625 C 27.3125 30.699219 28 29.609375 28 28.382812 L 28 24.414062 L 29.414062 23 L 32 23 L 32 21 L 28.585938 21 L 26.121094 23.464844 C 24.953125 24.632812 23.046875 24.632812 21.878906 23.464844 L 19.414062 21 L 16 21 L 16 23 L 18.585938 23 L 20 24.414062 L 20 28.382812 C 20 29.609375 20.6875 30.699219 21.753906 31.15625 C 22.363281 31.414062 22.777344 31.9375 22.972656 32.234375 C 22.839844 33.824219 21.441406 33.992188 21 34 L 19.65625 34 L 19.359375 33.863281 C 18.519531 33.488281 17.667969 33.09375 17 32.535156 L 17 30 L 15 30 L 15 32 L 13.535156 32 L 12.054688 29.78125 L 13.921875 19.527344 L 16.929688 16.929688 C 18.621094 15.234375 20.777344 14.277344 23 14.0625 L 23 16.0625 C 21.785156 16.199219 20.589844 16.574219 19.5 17.203125 L 20.5 18.9375 C 21.28125 18.484375 22.132812 18.199219 23 18.074219 L 23 20 L 25 20 L 25 18.074219 C 25.867188 18.199219 26.71875 18.484375 27.5 18.9375 L 28.5 17.203125 C 27.410156 16.574219 26.214844 16.199219 25 16.0625 L 25 14.0625 C 27.230469 14.289062 29.402344 15.261719 31.125 16.980469 L 34.078125 19.527344 L 35.945312 29.78125 Z M 22 25.914062 C 22.636719 26.191406 23.316406 26.339844 24 26.339844 C 24.683594 26.339844 25.363281 26.191406 26 25.914062 L 26 28.382812 C 26 28.800781 25.78125 29.179688 25.457031 29.316406 C 24.847656 29.578125 24.367188 29.960938 24 30.339844 C 23.632812 29.960938 23.152344 29.578125 22.542969 29.316406 C 22.21875 29.179688 22 28.800781 22 28.382812 Z M 24 37 C 22.996094 37 22.050781 36.621094 21.332031 35.972656 C 22.21875 35.898438 23.25 35.515625 24 34.710938 C 24.75 35.515625 25.78125 35.898438 26.667969 35.972656 C 25.949219 36.621094 25.003906 37 24 37 M 15.121094 11 C 15.421875 11 15.703125 11.117188 15.914062 11.328125 L 18.125 13.539062 C 17.207031 14.054688 16.34375 14.6875 15.570312 15.464844 L 14 16.816406 L 14 12.121094 C 14 11.503906 14.503906 11 15.121094 11 M 32.085938 11.328125 C 32.296875 11.117188 32.578125 11 32.878906 11 C 33.496094 11 34 11.503906 34 12.121094 L 34 16.820312 L 32.484375 15.515625 C 31.691406 14.71875 30.804688 14.070312 29.867188 13.546875 Z M 36 18.90625 L 36 12.121094 C 36 10.398438 34.601562 9 32.878906 9 C 32.042969 9 31.261719 9.324219 30.671875 9.914062 L 27.914062 12.671875 C 25.375 11.796875 22.605469 11.792969 20.078125 12.664062 L 17.328125 9.914062 C 16.738281 9.324219 15.953125 9 15.121094 9 C 13.398438 9 12 10.398438 12 12.121094 L 12 18.90625 L 9.945312 30.21875 L 12.464844 34 L 15.609375 34 C 16.507812 34.777344 17.582031 35.261719 18.539062 35.691406 L 18.667969 35.75 C 19.695312 37.734375 21.746094 39 24 39 C 26.253906 39 28.304688 37.734375 29.328125 35.75 L 29.457031 35.691406 C 30.417969 35.261719 31.492188 34.777344 32.390625 34 L 35.535156 34 L 38.054688 30.21875 Z M 36 18.90625 "/>
</g>
</svg>
