<?xml version="1.0" encoding="UTF-8"?>
<svg xmlns="http://www.w3.org/2000/svg" xmlns:xlink="http://www.w3.org/1999/xlink" width="48pt" height="48pt" viewBox="0 0 48 48" version="1.1">
<g id="surface1">
<path style=" stroke:none;fill-rule:nonzero;fill:rgb(0%,0%,0%);fill-opacity:1;" d="M 39 25 C 39 23.898438 38.101562 23 37 23 L 37 27 C 38.101562 27 39 26.101562 39 25 M 35 29.171875 L 35 25.609375 L 31 32.277344 L 31 33.585938 L 34.707031 29.878906 C 34.894531 29.691406 35 29.433594 35 29.171875 M 29 31.722656 L 34.988281 21.742188 C 34.972656 21.152344 34.917969 20.570312 34.8125 20 L 13.253906 20 C 13.132812 20.574219 13.0625 21.171875 13.03125 21.773438 L 19 31.722656 L 19 36 C 19 36.550781 19.449219 37 20 37 L 28 37 C 28.550781 37 29 36.550781 29 36 Z M 13.292969 29.878906 L 17 33.585938 L 17 32.277344 L 13 25.609375 L 13 29.171875 C 13 29.433594 13.105469 29.691406 13.292969 29.878906 M 11 27 L 11 23 C 9.898438 23 9 23.898438 9 25 C 9 26.101562 9.898438 27 11 27 M 13.863281 18 L 34.242188 18 C 33.6875 16.570312 32.835938 15.261719 31.707031 14.148438 C 29.582031 12.066406 26.785156 10.957031 23.792969 11.003906 C 19.339844 11.085938 15.511719 13.96875 13.863281 18 M 41 25 C 41 27.207031 39.207031 29 37 29 L 37 29.171875 C 37 29.972656 36.6875 30.726562 36.121094 31.292969 L 30.953125 36.460938 C 30.730469 37.894531 29.496094 39 28 39 L 20 39 C 18.503906 39 17.269531 37.894531 17.046875 36.460938 L 11.878906 31.292969 C 11.3125 30.726562 11 29.972656 11 29.171875 L 11 29 C 8.792969 29 7 27.207031 7 25 C 7 22.792969 8.792969 21 11 21 L 11.074219 21 C 11.753906 14.386719 17.179688 9.121094 23.757812 9.003906 C 27.289062 8.980469 30.597656 10.261719 33.105469 12.722656 C 35.378906 14.953125 36.714844 17.863281 36.949219 21 L 37 21 C 39.207031 21 41 22.792969 41 25 M 31 23 L 31 25 L 30 25 C 27.175781 25 27.007812 27.503906 27 28.007812 C 27 29.304688 26.160156 30.402344 25 30.816406 L 25 34 L 23 34 L 23 30.816406 C 21.839844 30.402344 21 29.300781 21 28 C 20.992188 27.503906 20.824219 25 18 25 L 17 25 L 17 23 L 18 23 C 21.953125 23 23 26.269531 23 28 C 23 28.550781 23.449219 29 24 29 C 24.550781 29 25 28.550781 25 28 C 25 26.269531 26.046875 23 30 23 Z M 31 23 "/>
</g>
</svg>
