<?xml version="1.0" encoding="UTF-8"?>
<svg xmlns="http://www.w3.org/2000/svg" xmlns:xlink="http://www.w3.org/1999/xlink" width="48pt" height="48pt" viewBox="0 0 48 48" version="1.1">
<g id="surface1">
<path style=" stroke:none;fill-rule:nonzero;fill:rgb(0%,0%,0%);fill-opacity:1;" d="M 32.898438 22 C 32.582031 23.101562 31.566406 23.910156 30.363281 23.910156 L 29.363281 23.910156 L 29.363281 27.636719 C 29.363281 30.25 27.480469 32.429688 25 32.898438 L 25 30.816406 C 26.160156 30.402344 27 29.300781 27 28 L 25 28 C 25 28.550781 24.550781 29 24 29 C 23.449219 29 23 28.550781 23 28 L 21 28 C 21 29.300781 21.839844 30.402344 23 30.816406 L 23 32.898438 C 20.519531 32.429688 18.636719 30.25 18.636719 27.636719 L 18.636719 23.910156 L 17.636719 23.910156 C 16.433594 23.910156 15.417969 23.101562 15.101562 22 Z M 13 21.273438 C 13 23.484375 14.558594 25.34375 16.636719 25.800781 L 16.636719 27.636719 C 16.636719 31.695312 19.941406 35 24 35 C 28.0625 35 31.363281 31.695312 31.363281 27.636719 L 31.363281 25.800781 C 33.441406 25.34375 35 23.484375 35 21.273438 L 35 20 L 13 20 Z M 36.8125 26.734375 C 35.601562 27.867188 34.9375 29.46875 34.992188 31.125 C 35.027344 32.171875 34.640625 33.15625 33.898438 33.898438 C 33.15625 34.640625 32.152344 35.007812 31.125 34.992188 C 29.46875 34.910156 27.867188 35.601562 26.734375 36.8125 C 26.019531 37.578125 25.046875 38 24 38 C 22.953125 38 21.980469 37.578125 21.265625 36.8125 C 20.175781 35.648438 18.65625 34.988281 17.066406 34.988281 C 17.003906 34.988281 16.9375 34.992188 16.875 34.992188 C 15.816406 35.023438 14.84375 34.640625 14.101562 33.898438 C 13.359375 33.15625 12.972656 32.171875 13.007812 31.125 C 13.0625 29.46875 12.398438 27.867188 11.1875 26.734375 C 10.421875 26.019531 10 25.046875 10 24 C 10 22.953125 10.421875 21.980469 11.1875 21.265625 C 12.398438 20.132812 13.0625 18.53125 13.007812 16.875 C 12.972656 15.828125 13.359375 14.84375 14.101562 14.101562 C 14.84375 13.359375 15.84375 12.976562 16.875 13.007812 C 18.527344 13.078125 20.132812 12.398438 21.265625 11.1875 C 21.980469 10.421875 22.953125 10 24 10 C 25.046875 10 26.019531 10.421875 26.734375 11.1875 C 27.867188 12.398438 29.457031 13.082031 31.125 13.007812 C 32.183594 12.988281 33.160156 13.359375 33.898438 14.101562 C 34.640625 14.84375 35.027344 15.828125 34.992188 16.875 C 34.9375 18.53125 35.601562 20.132812 36.8125 21.265625 C 37.578125 21.980469 38 22.953125 38 24 C 38 25.046875 37.578125 26.019531 36.8125 26.734375 M 38.179688 19.804688 C 37.390625 19.066406 36.957031 18.023438 36.992188 16.941406 C 37.046875 15.359375 36.433594 13.808594 35.3125 12.6875 C 34.191406 11.566406 32.644531 10.929688 31.058594 11.007812 C 29.972656 11.027344 28.933594 10.609375 28.195312 9.820312 C 27.113281 8.664062 25.585938 8 24 8 C 22.414062 8 20.886719 8.664062 19.804688 9.820312 C 19.066406 10.613281 18.023438 11.042969 16.941406 11.007812 C 15.367188 10.929688 13.808594 11.566406 12.6875 12.6875 C 11.566406 13.808594 10.953125 15.359375 11.007812 16.941406 C 11.042969 18.023438 10.609375 19.066406 9.820312 19.804688 C 8.664062 20.886719 8 22.414062 8 24 C 8 25.585938 8.664062 27.113281 9.820312 28.195312 C 10.609375 28.933594 11.042969 29.976562 11.007812 31.058594 C 10.953125 32.640625 11.566406 34.191406 12.6875 35.3125 C 13.808594 36.433594 15.367188 37.0625 16.941406 36.992188 C 18.015625 36.96875 19.066406 37.390625 19.804688 38.179688 C 20.886719 39.335938 22.414062 40 24 40 C 25.585938 40 27.113281 39.335938 28.195312 38.179688 C 28.933594 37.390625 29.984375 36.96875 31.058594 36.992188 C 32.644531 37.0625 34.191406 36.433594 35.3125 35.3125 C 36.433594 34.191406 37.046875 32.640625 36.992188 31.058594 C 36.957031 29.976562 37.390625 28.933594 38.179688 28.195312 C 39.335938 27.113281 40 25.585938 40 24 C 40 22.414062 39.335938 20.886719 38.179688 19.804688 "/>
</g>
</svg>
