<?xml version="1.0" encoding="UTF-8"?>
<svg xmlns="http://www.w3.org/2000/svg" xmlns:xlink="http://www.w3.org/1999/xlink" width="48pt" height="48pt" viewBox="0 0 48 48" version="1.1">
<g id="surface1">
<path style=" stroke:none;fill-rule:nonzero;fill:rgb(0%,0%,0%);fill-opacity:1;" d="M 24.984375 8.835938 L 23.011719 8.835938 L 21.328125 18.945312 C 20.449219 24.230469 20 29.632812 20 35 L 22 35 C 22 29.742188 22.4375 24.453125 23.300781 19.273438 L 24 15.082031 L 24.699219 19.273438 C 25.5625 24.453125 26 29.742188 26 35 L 28 35 C 28 29.632812 27.550781 24.230469 26.671875 18.945312 Z M 9 19 L 6.605469 19 L 8.292969 20.703125 C 8.328125 20.742188 12 24.53125 12 31 L 12 35 L 14 35 L 14 31 C 14 26.640625 12.542969 23.390625 11.328125 21.429688 C 16.914062 23.667969 17 33.886719 17 34 L 17 35 L 19 35 L 19 34 C 19 28.8125 16.910156 19 9 19 M 41.414062 19 L 39.707031 20.707031 C 39.671875 20.742188 36 24.53125 36 31 L 36 35 L 34 35 L 34 31 C 34 26.640625 35.457031 23.390625 36.671875 21.429688 C 31.085938 23.667969 31 33.886719 31 34 L 31 35 L 29 35 L 29 34 C 29 28.8125 31.089844 19 39 19 Z M 41.414062 19 "/>
</g>
</svg>
