<?xml version="1.0" encoding="UTF-8"?>
<svg xmlns="http://www.w3.org/2000/svg" xmlns:xlink="http://www.w3.org/1999/xlink" width="48pt" height="48pt" viewBox="0 0 48 48" version="1.1">
<g id="surface1">
<path style=" stroke:none;fill-rule:nonzero;fill:rgb(0%,0%,0%);fill-opacity:1;" d="M 26.671875 18.945312 C 27.554688 24.234375 28 29.636719 28 35 L 26 35 C 26 29.746094 25.5625 24.457031 24.699219 19.273438 L 24 15.082031 L 23.300781 19.273438 C 22.4375 24.457031 22 29.746094 22 35 L 20 35 C 20 29.636719 20.445312 24.234375 21.328125 18.945312 L 23.015625 8.835938 L 24.984375 8.835938 Z M 19 34 L 19 35 L 17 35 L 17 34 C 17 33.882812 16.914062 23.671875 11.324219 21.429688 C 12.542969 23.386719 14 26.640625 14 31 L 14 35 L 12 35 L 12 31 C 12 24.53125 8.328125 20.742188 8.289062 20.707031 L 6.609375 19.003906 L 9 19 C 16.910156 19 19 28.8125 19 34 M 38 34 L 36 34 L 36 31 C 36 30.296875 36.050781 29.636719 36.125 29 L 38 29 Z M 38 37 L 36 37 L 36 35 L 38 35 Z M 31.785156 28.339844 C 32.519531 25.539062 33.9375 22.527344 36.675781 21.429688 C 35.929688 22.628906 35.097656 24.320312 34.5625 26.445312 C 33.484375 26.84375 32.539062 27.5 31.785156 28.339844 M 37 26 C 36.925781 26 36.851562 26.007812 36.773438 26.011719 C 37.855469 22.632812 39.683594 20.730469 39.707031 20.707031 L 41.414062 19 L 39 19 C 31.089844 19 29 28.8125 29 34 L 29 35 L 30.292969 35 C 31.152344 37.890625 33.828125 40 37 40 C 40.867188 40 44 36.867188 44 33 C 44 29.132812 40.867188 26 37 26 "/>
</g>
</svg>
