<?xml version="1.0" encoding="UTF-8"?>
<svg xmlns="http://www.w3.org/2000/svg" xmlns:xlink="http://www.w3.org/1999/xlink" width="48pt" height="48pt" viewBox="0 0 48 48" version="1.1">
<g id="surface1">
<path style=" stroke:none;fill-rule:nonzero;fill:rgb(0%,0%,0%);fill-opacity:1;" d="M 15.0625 14.0625 C 19.175781 14.546875 22.453125 17.824219 22.9375 21.9375 C 18.824219 21.453125 15.546875 18.175781 15.0625 14.0625 M 32.9375 14.0625 C 32.453125 18.175781 29.175781 21.453125 25.0625 21.9375 C 25.546875 17.824219 28.824219 14.546875 32.9375 14.0625 M 25 28.03125 L 25 23.949219 C 30.597656 23.441406 35 18.726562 35 13 L 35 12 L 34 12 C 29.558594 12 25.738281 14.648438 24 18.445312 C 22.261719 14.648438 18.441406 12 14 12 L 13 12 L 13 13 C 13 18.726562 17.402344 23.441406 23 23.949219 L 23 28.03125 C 16.757812 28.363281 12 31.738281 12 36 L 14 36 C 14 32.75 18.582031 30 24 30 C 29.417969 30 34 32.75 34 36 L 36 36 C 36 31.738281 31.242188 28.363281 25 28.03125 "/>
</g>
</svg>
