<?xml version="1.0" encoding="UTF-8"?>
<svg xmlns="http://www.w3.org/2000/svg" xmlns:xlink="http://www.w3.org/1999/xlink" width="48pt" height="48pt" viewBox="0 0 48 48" version="1.1">
<g id="surface1">
<path style=" stroke:none;fill-rule:nonzero;fill:rgb(0%,0%,0%);fill-opacity:1;" d="M 25 31 L 16.777344 31 L 20.898438 25 L 18.652344 25 L 22.742188 18 L 20.617188 18 L 23.953125 12.046875 L 27.292969 18 L 25.277344 18 L 29.277344 25 L 27.125 25 L 31.152344 31 Z M 33.601562 31.0625 L 30.875 27 L 32.722656 27 L 28.722656 20 L 30.707031 20 L 25.046875 9.902344 C 24.824219 9.507812 24.40625 9.261719 23.953125 9.261719 C 23.503906 9.261719 23.085938 9.507812 22.863281 9.898438 L 17.203125 20 L 19.257812 20 L 15.164062 27 L 17.101562 27 L 14.28125 31.101562 C 14.050781 31.488281 14.039062 31.972656 14.261719 32.363281 C 14.484375 32.757812 14.902344 33 15.351562 33 L 23 33 L 23 36 L 19 36 L 19 38 L 29 38 L 29 36 L 25 36 L 25 33 L 32.558594 33 C 33.007812 33 33.425781 32.757812 33.644531 32.363281 C 33.867188 31.972656 33.859375 31.488281 33.601562 31.0625 "/>
</g>
</svg>
