<?xml version="1.0" encoding="UTF-8"?>
<svg xmlns="http://www.w3.org/2000/svg" xmlns:xlink="http://www.w3.org/1999/xlink" width="48pt" height="48pt" viewBox="0 0 48 48" version="1.1">
<g id="surface1">
<path style=" stroke:none;fill-rule:nonzero;fill:rgb(0%,0%,0%);fill-opacity:1;" d="M 32 23 C 32 27.070312 28.9375 30.4375 25 30.929688 L 25 27.414062 L 28.707031 23.707031 L 27.292969 22.292969 L 25 24.585938 L 25 17 L 23 17 L 23 21.585938 L 20.707031 19.292969 L 19.292969 20.707031 L 23 24.414062 L 23 30.929688 C 19.0625 30.4375 16 27.070312 16 23 L 16 19 C 16 14.589844 19.589844 11 24 11 C 28.410156 11 32 14.589844 32 19 Z M 24 9 C 18.484375 9 14 13.484375 14 19 L 14 23 C 14 28.175781 17.953125 32.445312 23 32.949219 L 23 36 L 19 36 L 19 38 L 29 38 L 29 36 L 25 36 L 25 32.949219 C 30.046875 32.445312 34 28.175781 34 23 L 34 19 C 34 13.484375 29.515625 9 24 9 "/>
</g>
</svg>
