<?xml version="1.0" encoding="UTF-8"?>
<svg xmlns="http://www.w3.org/2000/svg" xmlns:xlink="http://www.w3.org/1999/xlink" width="48pt" height="48pt" viewBox="0 0 48 48" version="1.1">
<g id="surface1">
<path style=" stroke:none;fill-rule:nonzero;fill:rgb(0%,0%,0%);fill-opacity:1;" d="M 32 28 L 25 28 L 25 27.414062 L 28.707031 23.707031 L 27.292969 22.292969 L 25 24.585938 L 25 17 L 23 17 L 23 21.585938 L 20.707031 19.292969 L 19.292969 20.707031 L 23 24.414062 L 23 28 L 16 28 C 14.347656 28 13 26.652344 13 25 C 13 23.347656 14.347656 22 16 22 L 17 22 L 17 19 C 17 17.347656 18.347656 16 20 16 L 21 16 L 21 14 C 21 12.347656 22.347656 11 24 11 C 25.652344 11 27 12.347656 27 14 L 27 16 L 28 16 C 29.652344 16 31 17.347656 31 19 L 31 22 L 32 22 C 33.652344 22 35 23.347656 35 25 C 35 26.652344 33.652344 28 32 28 M 33 20.101562 L 33 19 C 33 16.585938 31.277344 14.566406 29 14.101562 L 29 14 C 29 11.242188 26.757812 9 24 9 C 21.242188 9 19 11.242188 19 14 L 19 14.101562 C 16.722656 14.566406 15 16.585938 15 19 L 15 20.101562 C 12.722656 20.566406 11 22.585938 11 25 C 11 27.757812 13.242188 30 16 30 L 23 30 L 23 36 L 19 36 L 19 38 L 29 38 L 29 36 L 25 36 L 25 30 L 32 30 C 34.757812 30 37 27.757812 37 25 C 37 22.585938 35.277344 20.566406 33 20.101562 "/>
</g>
</svg>
