<?xml version="1.0" encoding="UTF-8"?>
<svg xmlns="http://www.w3.org/2000/svg" xmlns:xlink="http://www.w3.org/1999/xlink" width="48pt" height="48pt" viewBox="0 0 48 48" version="1.1">
<g id="surface1">
<path style=" stroke:none;fill-rule:nonzero;fill:rgb(0%,0%,0%);fill-opacity:1;" d="M 32.398438 29 L 15.601562 29 L 19.121094 26.183594 L 17.886719 25.445312 C 17.15625 25.003906 16.539062 24.53125 16.003906 23.996094 C 13.539062 21.53125 12.839844 17.878906 12.640625 16.078125 C 14.167969 16.242188 17.027344 16.773438 19.375 18.445312 L 20.65625 19.359375 L 20.9375 17.8125 C 21.441406 15.042969 23.054688 12.703125 24 11.523438 C 24.945312 12.703125 26.558594 15.042969 27.0625 17.8125 L 27.34375 19.359375 L 28.628906 18.445312 C 30.964844 16.777344 33.832031 16.246094 35.359375 16.078125 C 35.164062 17.875 34.46875 21.519531 31.996094 23.996094 C 31.460938 24.53125 30.84375 25.003906 30.113281 25.445312 L 28.878906 26.183594 Z M 37.433594 15.003906 L 37.4375 13.996094 L 36.429688 14 C 36.246094 14 32.296875 14.046875 28.691406 16.046875 C 27.527344 12.171875 24.835938 9.425781 24.710938 9.296875 L 24 8.578125 L 23.289062 9.296875 C 23.164062 9.425781 20.472656 12.171875 19.308594 16.046875 C 15.703125 14.046875 11.753906 14 11.570312 14 L 10.558594 13.996094 L 10.5625 15.003906 C 10.566406 15.265625 10.632812 21.453125 14.589844 25.410156 C 14.929688 25.75 15.292969 26.066406 15.6875 26.367188 L 13 28.519531 L 13 31 L 23 31 L 23 37 L 25 37 L 25 31 L 35 31 L 35 28.519531 L 32.3125 26.367188 C 32.707031 26.066406 33.070312 25.75 33.410156 25.410156 C 37.367188 21.453125 37.433594 15.265625 37.433594 15.003906 "/>
</g>
</svg>
