<?xml version="1.0" encoding="UTF-8"?>
<svg xmlns="http://www.w3.org/2000/svg" xmlns:xlink="http://www.w3.org/1999/xlink" width="48pt" height="48pt" viewBox="0 0 48 48" version="1.1">
<g id="surface1">
<path style=" stroke:none;fill-rule:nonzero;fill:rgb(0%,0%,0%);fill-opacity:1;" d="M 33.527344 28.5 C 33.21875 29.03125 32.695312 29.371094 32.085938 29.433594 C 31.476562 29.496094 30.894531 29.265625 30.484375 28.808594 L 27.984375 25.988281 C 28.222656 25.667969 28.4375 25.332031 28.597656 24.960938 L 32.273438 25.714844 C 32.875 25.835938 33.363281 26.226562 33.613281 26.785156 C 33.863281 27.34375 33.832031 27.96875 33.527344 28.5 M 25.527344 33.21875 C 24.8125 34.210938 23.1875 34.210938 22.472656 33.21875 C 22.113281 32.722656 22.019531 32.101562 22.214844 31.519531 L 23.40625 27.941406 C 23.605469 27.964844 23.796875 28 24 28 C 24.203125 28 24.394531 27.964844 24.59375 27.941406 L 25.785156 31.519531 C 25.980469 32.101562 25.886719 32.722656 25.527344 33.21875 M 17.515625 28.808594 C 17.105469 29.265625 16.527344 29.492188 15.914062 29.433594 C 15.304688 29.371094 14.78125 29.03125 14.472656 28.5 C 14.167969 27.96875 14.136719 27.34375 14.386719 26.785156 C 14.636719 26.226562 15.125 25.835938 15.726562 25.714844 L 19.402344 24.960938 C 19.5625 25.332031 19.777344 25.667969 20.015625 25.988281 Z M 15.726562 20.285156 C 15.125 20.164062 14.636719 19.773438 14.386719 19.214844 C 14.136719 18.65625 14.167969 18.03125 14.472656 17.5 C 14.78125 16.96875 15.304688 16.628906 15.914062 16.566406 C 16.523438 16.507812 17.105469 16.734375 17.515625 17.191406 L 20.015625 20.011719 C 19.777344 20.332031 19.5625 20.667969 19.402344 21.039062 Z M 22.472656 12.78125 C 23.1875 11.789062 24.8125 11.789062 25.527344 12.78125 C 25.886719 13.277344 25.980469 13.898438 25.785156 14.480469 L 24.59375 18.058594 C 24.394531 18.035156 24.203125 18 24 18 C 23.796875 18 23.605469 18.035156 23.40625 18.058594 L 22.214844 14.480469 C 22.019531 13.898438 22.113281 13.277344 22.472656 12.78125 M 30.484375 17.191406 C 30.894531 16.734375 31.476562 16.503906 32.085938 16.566406 C 32.695312 16.628906 33.21875 16.96875 33.527344 17.5 C 33.832031 18.03125 33.863281 18.65625 33.613281 19.214844 C 33.363281 19.773438 32.875 20.164062 32.273438 20.285156 L 28.597656 21.039062 C 28.4375 20.667969 28.222656 20.332031 27.984375 20.011719 Z M 21 23 C 21 21.347656 22.347656 20 24 20 C 25.652344 20 27 21.347656 27 23 C 27 24.652344 25.652344 26 24 26 C 22.347656 26 21 24.652344 21 23 M 32.675781 23.753906 L 29 23.003906 L 29 22.996094 L 32.675781 22.246094 C 33.910156 21.992188 34.917969 21.1875 35.4375 20.03125 C 35.953125 18.882812 35.890625 17.59375 35.257812 16.5 C 34.625 15.40625 33.542969 14.707031 32.285156 14.578125 C 31.035156 14.457031 29.828125 14.917969 28.988281 15.863281 L 26.492188 18.679688 L 27.683594 15.109375 C 28.082031 13.914062 27.890625 12.636719 27.148438 11.613281 C 26.410156 10.589844 25.261719 10 24 10 C 22.738281 10 21.589844 10.589844 20.851562 11.613281 C 20.109375 12.636719 19.917969 13.914062 20.316406 15.109375 L 21.507812 18.679688 L 19.011719 15.863281 C 18.171875 14.917969 16.96875 14.457031 15.714844 14.578125 C 14.457031 14.707031 13.375 15.40625 12.742188 16.5 C 12.109375 17.59375 12.042969 18.882812 12.5625 20.03125 C 13.082031 21.1875 14.089844 21.992188 15.324219 22.246094 L 19 22.996094 C 19 22.996094 19 23 19 23 C 19 23 19 23.003906 19 23.003906 L 15.324219 23.753906 C 14.089844 24.007812 13.082031 24.8125 12.5625 25.96875 C 12.042969 27.117188 12.109375 28.40625 12.742188 29.5 C 13.375 30.59375 14.457031 31.292969 15.714844 31.421875 C 15.847656 31.4375 15.984375 31.441406 16.117188 31.441406 C 17.226562 31.441406 18.261719 30.980469 19.011719 30.136719 L 21.507812 27.320312 L 20.316406 30.890625 C 19.917969 32.085938 20.109375 33.363281 20.851562 34.386719 C 21.589844 35.410156 22.738281 36 24 36 C 25.261719 36 26.410156 35.410156 27.148438 34.386719 C 27.890625 33.363281 28.082031 32.085938 27.683594 30.890625 L 26.492188 27.320312 L 28.988281 30.136719 C 29.738281 30.980469 30.773438 31.441406 31.882812 31.441406 C 32.015625 31.441406 32.152344 31.4375 32.285156 31.421875 C 33.542969 31.292969 34.625 30.59375 35.257812 29.5 C 35.890625 28.40625 35.953125 27.117188 35.4375 25.96875 C 34.917969 24.8125 33.910156 24.007812 32.675781 23.753906 "/>
</g>
</svg>
