<?xml version="1.0" encoding="UTF-8"?>
<svg xmlns="http://www.w3.org/2000/svg" xmlns:xlink="http://www.w3.org/1999/xlink" width="48pt" height="48pt" viewBox="0 0 48 48" version="1.1">
<g id="surface1">
<path style=" stroke:none;fill-rule:nonzero;fill:rgb(0%,0%,0%);fill-opacity:1;" d="M 35.039062 22.632812 C 34.539062 23.316406 33.804688 23.699219 32.917969 23.699219 L 29.984375 23.675781 C 29.972656 23.488281 29.957031 23.304688 29.929688 23.125 L 30.96875 22.785156 C 31.492188 22.617188 31.78125 22.050781 31.609375 21.527344 C 31.4375 21 30.875 20.714844 30.347656 20.886719 L 29.3125 21.222656 C 29.226562 21.058594 29.132812 20.898438 29.03125 20.742188 L 31.390625 19 C 32.070312 18.496094 32.925781 18.359375 33.730469 18.617188 C 34.539062 18.875 35.152344 19.484375 35.414062 20.289062 C 35.675781 21.097656 35.539062 21.949219 35.039062 22.632812 M 31.039062 29.484375 C 31.726562 29.976562 32.125 30.746094 32.128906 31.59375 C 32.128906 32.441406 31.738281 33.210938 31.054688 33.707031 C 30.367188 34.207031 29.511719 34.335938 28.707031 34.074219 C 27.902344 33.8125 27.296875 33.195312 27.042969 32.386719 L 26.15625 29.59375 C 26.332031 29.527344 26.5 29.449219 26.664062 29.367188 L 27.304688 30.25 C 27.628906 30.699219 28.257812 30.796875 28.703125 30.472656 C 29.148438 30.148438 29.25 29.523438 28.925781 29.074219 L 28.28125 28.195312 C 28.414062 28.0625 28.535156 27.921875 28.652344 27.78125 Z M 20.960938 32.386719 C 20.703125 33.195312 20.097656 33.8125 19.292969 34.074219 C 18.488281 34.335938 17.632812 34.207031 16.945312 33.707031 C 16.261719 33.210938 15.871094 32.441406 15.875 31.59375 C 15.875 30.746094 16.273438 29.976562 16.960938 29.484375 L 19.347656 27.78125 C 19.464844 27.921875 19.585938 28.0625 19.71875 28.195312 L 19.074219 29.074219 C 18.75 29.523438 18.851562 30.148438 19.296875 30.472656 C 19.742188 30.796875 20.371094 30.699219 20.695312 30.25 L 21.335938 29.367188 C 21.5 29.449219 21.671875 29.527344 21.84375 29.59375 Z M 15.082031 23.699219 L 15.0625 23.699219 C 14.222656 23.699219 13.457031 23.3125 12.960938 22.632812 C 12.460938 21.949219 12.324219 21.097656 12.585938 20.289062 C 12.847656 19.484375 13.460938 18.875 14.265625 18.617188 C 15.074219 18.359375 15.929688 18.496094 16.609375 19 L 18.96875 20.742188 C 18.867188 20.898438 18.773438 21.058594 18.6875 21.222656 L 17.652344 20.886719 C 17.125 20.714844 16.5625 21 16.390625 21.527344 C 16.21875 22.050781 16.507812 22.617188 17.03125 22.785156 L 18.070312 23.125 C 18.042969 23.304688 18.027344 23.488281 18.015625 23.675781 Z M 21.53125 15.425781 C 21.261719 14.621094 21.390625 13.769531 21.886719 13.082031 C 22.382812 12.394531 23.152344 12 24 12 C 24.847656 12 25.617188 12.394531 26.113281 13.082031 C 26.609375 13.769531 26.738281 14.621094 26.46875 15.425781 L 25.542969 18.207031 C 25.363281 18.160156 25.183594 18.121094 25 18.089844 L 25 17 C 25 16.445312 24.550781 16 24 16 C 23.449219 16 23 16.445312 23 17 L 23 18.089844 C 22.816406 18.121094 22.636719 18.160156 22.457031 18.207031 Z M 24 20 C 26.207031 20 28 21.792969 28 24 C 28 26.207031 26.207031 28 24 28 C 21.792969 28 20 26.207031 20 24 C 20 21.792969 21.792969 20 24 20 M 37.316406 19.671875 C 36.851562 18.246094 35.769531 17.167969 34.34375 16.710938 C 32.917969 16.253906 31.40625 16.5 30.203125 17.390625 L 27.667969 19.261719 C 27.570312 19.1875 27.476562 19.113281 27.375 19.042969 L 28.367188 16.058594 C 28.839844 14.640625 28.609375 13.125 27.734375 11.910156 C 26.859375 10.695312 25.5 10 24 10 C 22.503906 10 21.140625 10.695312 20.265625 11.910156 C 19.390625 13.125 19.160156 14.640625 19.632812 16.058594 L 20.625 19.042969 C 20.523438 19.113281 20.429688 19.1875 20.332031 19.261719 L 17.796875 17.390625 C 16.59375 16.5 15.082031 16.253906 13.65625 16.710938 C 12.230469 17.167969 11.148438 18.246094 10.683594 19.671875 C 10.222656 21.097656 10.464844 22.609375 11.347656 23.816406 C 12.226562 25.015625 13.578125 25.699219 15.0625 25.699219 L 15.097656 25.699219 L 18.242188 25.675781 C 18.277344 25.792969 18.316406 25.910156 18.359375 26.027344 L 15.800781 27.859375 C 14.582031 28.730469 13.878906 30.085938 13.875 31.582031 C 13.867188 33.082031 14.558594 34.445312 15.769531 35.328125 C 16.574219 35.910156 17.507812 36.210938 18.460938 36.210938 C 18.945312 36.210938 19.4375 36.132812 19.917969 35.976562 C 21.339844 35.503906 22.414062 34.417969 22.867188 32.992188 L 23.816406 29.988281 C 23.878906 29.992188 23.9375 30 24 30 C 24.0625 30 24.121094 29.992188 24.183594 29.988281 L 25.132812 32.992188 C 25.585938 34.417969 26.660156 35.503906 28.082031 35.976562 C 28.5625 36.132812 29.054688 36.210938 29.539062 36.210938 C 30.492188 36.210938 31.425781 35.910156 32.230469 35.324219 C 33.441406 34.445312 34.132812 33.082031 34.128906 31.582031 C 34.121094 30.085938 33.417969 28.730469 32.199219 27.859375 L 29.640625 26.027344 C 29.683594 25.910156 29.722656 25.792969 29.757812 25.675781 L 32.902344 25.699219 L 32.9375 25.699219 C 34.421875 25.699219 35.773438 25.015625 36.652344 23.816406 C 37.535156 22.609375 37.777344 21.097656 37.316406 19.671875 "/>
</g>
</svg>
