<?xml version="1.0" encoding="UTF-8"?>
<svg xmlns="http://www.w3.org/2000/svg" xmlns:xlink="http://www.w3.org/1999/xlink" width="48pt" height="48pt" viewBox="0 0 48 48" version="1.1">
<g id="surface1">
<path style=" stroke:none;fill-rule:nonzero;fill:rgb(0%,0%,0%);fill-opacity:1;" d="M 33.917969 19.359375 C 33.78125 19.867188 33.457031 20.292969 33 20.554688 C 32.542969 20.820312 32.015625 20.886719 31.507812 20.753906 L 25.777344 19.21875 L 27.3125 13.492188 C 27.59375 12.441406 28.675781 11.820312 29.726562 12.097656 C 30.234375 12.234375 30.65625 12.558594 30.921875 13.015625 C 31.183594 13.472656 31.253906 14.003906 31.117188 14.511719 L 30.96875 15.066406 L 29.25 16.058594 L 30.25 17.792969 L 31.96875 16.796875 L 32.523438 16.949219 C 33.574219 17.226562 34.199219 18.3125 33.917969 19.359375 M 28.191406 29.421875 C 27.449219 30.167969 26.152344 30.167969 25.40625 29.421875 L 25 29.015625 L 25 27.03125 L 23 27.03125 L 23 29.015625 L 22.59375 29.421875 C 21.847656 30.167969 20.550781 30.167969 19.808594 29.421875 C 19.039062 28.65625 19.039062 27.40625 19.808594 26.636719 L 24 22.445312 L 28.191406 26.636719 C 28.960938 27.40625 28.960938 28.65625 28.191406 29.421875 M 16.492188 20.753906 C 15.988281 20.890625 15.457031 20.820312 15 20.554688 C 14.542969 20.292969 14.21875 19.867188 14.082031 19.359375 C 13.800781 18.3125 14.425781 17.226562 15.476562 16.949219 L 16.03125 16.796875 L 17.75 17.792969 L 18.75 16.058594 L 17.03125 15.066406 L 16.882812 14.511719 C 16.746094 14.003906 16.816406 13.472656 17.078125 13.015625 C 17.34375 12.558594 17.765625 12.234375 18.273438 12.097656 C 18.445312 12.050781 18.613281 12.03125 18.78125 12.03125 C 19.652344 12.03125 20.453125 12.613281 20.6875 13.492188 L 22.222656 19.21875 Z M 33.054688 15.019531 C 33.324219 13.996094 33.183594 12.929688 32.652344 12.015625 C 32.121094 11.097656 31.269531 10.441406 30.242188 10.167969 C 28.125 9.601562 25.945312 10.859375 25.382812 12.972656 L 24 18.128906 L 22.617188 12.972656 C 22.054688 10.859375 19.867188 9.597656 17.757812 10.167969 C 16.730469 10.441406 15.875 11.097656 15.347656 12.015625 C 14.816406 12.929688 14.675781 13.996094 14.945312 15.019531 C 12.839844 15.589844 11.582031 17.765625 12.148438 19.878906 C 12.425781 20.902344 13.082031 21.757812 14 22.289062 C 14.609375 22.640625 15.289062 22.824219 15.976562 22.824219 C 16.320312 22.824219 16.667969 22.777344 17.011719 22.683594 L 22.367188 21.25 L 18.394531 25.222656 C 16.84375 26.769531 16.847656 29.289062 18.394531 30.835938 C 19.597656 32.042969 21.511719 32.261719 23 31.53125 L 23 37 L 25 37 L 25 31.550781 C 25.554688 31.835938 26.160156 32 26.800781 32 C 27.859375 32 28.855469 31.585938 29.605469 30.835938 C 31.152344 29.289062 31.15625 26.769531 29.605469 25.222656 L 25.636719 21.25 L 30.988281 22.683594 C 31.328125 22.777344 31.679688 22.820312 32.023438 22.820312 C 32.710938 22.820312 33.390625 22.640625 34 22.289062 C 34.917969 21.757812 35.574219 20.902344 35.851562 19.878906 C 36.414062 17.765625 35.160156 15.589844 33.054688 15.019531 "/>
</g>
</svg>
