<?xml version="1.0" encoding="UTF-8"?>
<svg xmlns="http://www.w3.org/2000/svg" xmlns:xlink="http://www.w3.org/1999/xlink" width="48pt" height="48pt" viewBox="0 0 48 48" version="1.1">
<g id="surface1">
<path style=" stroke:none;fill-rule:nonzero;fill:rgb(0%,0%,0%);fill-opacity:1;" d="M 31.988281 22 L 32.390625 22.410156 C 32.761719 22.78125 32.96875 23.269531 32.96875 23.800781 C 32.96875 24.328125 32.761719 24.820312 32.390625 25.1875 C 31.621094 25.960938 30.378906 25.960938 29.609375 25.1875 L 25.699219 21.28125 L 25.410156 21 L 25.699219 20.71875 L 29.609375 16.8125 C 30.378906 16.039062 31.621094 16.039062 32.390625 16.8125 C 32.761719 17.179688 32.96875 17.671875 32.96875 18.199219 C 32.96875 18.730469 32.761719 19.21875 32.390625 19.589844 L 31.988281 20 L 30 20 L 30 22 Z M 28.191406 29.390625 C 27.449219 30.140625 26.148438 30.140625 25.410156 29.390625 L 25 28.988281 L 25 27 L 23 27 L 23 28.988281 L 22.589844 29.390625 C 21.851562 30.140625 20.550781 30.140625 19.808594 29.390625 C 19.039062 28.621094 19.039062 27.378906 19.808594 26.609375 L 23.71875 22.699219 L 23.710938 22.6875 L 24 22.410156 L 24.28125 22.699219 L 28.191406 26.609375 C 28.960938 27.378906 28.960938 28.621094 28.191406 29.390625 M 18.378906 25.210938 C 17.628906 25.949219 16.332031 25.949219 15.582031 25.210938 C 15.210938 24.828125 15 24.328125 15 23.8125 C 15 23.28125 15.210938 22.78125 15.582031 22.410156 L 15.988281 22 L 18 22 L 18 20 L 15.988281 20 L 15.582031 19.589844 C 15.210938 19.21875 15 18.71875 15 18.1875 C 15 17.671875 15.210938 17.171875 15.582031 16.789062 C 15.949219 16.421875 16.449219 16.21875 16.980469 16.21875 C 17.5 16.21875 18 16.421875 18.378906 16.789062 L 22.582031 21 Z M 19.808594 12.609375 C 20.550781 11.859375 21.851562 11.859375 22.589844 12.609375 L 23 13.011719 L 23 15 L 25 15 L 25 13.011719 L 25.410156 12.609375 C 26.148438 11.859375 27.449219 11.859375 28.191406 12.609375 C 28.960938 13.378906 28.960938 14.621094 28.191406 15.390625 L 24.28125 19.300781 L 24 19.589844 L 23.710938 19.3125 L 23.71875 19.300781 L 19.808594 15.390625 C 19.039062 14.621094 19.039062 13.378906 19.808594 12.609375 M 34.96875 18.199219 C 34.96875 17.140625 34.558594 16.140625 33.808594 15.390625 C 32.96875 14.550781 31.839844 14.1875 30.738281 14.261719 C 30.808594 13.160156 30.449219 12.03125 29.609375 11.1875 C 28.109375 9.6875 25.5 9.6875 24 11.1875 C 22.5 9.6875 19.890625 9.699219 18.390625 11.1875 C 17.550781 12.039062 17.179688 13.171875 17.261719 14.28125 C 16.140625 14.199219 14.980469 14.5625 14.171875 15.378906 C 13.410156 16.128906 13 17.128906 13 18.1875 C 13 19.25 13.410156 20.25 14.160156 21 C 13.410156 21.75 13 22.75 13 23.8125 C 13 24.871094 13.410156 25.871094 14.171875 26.621094 C 14.921875 27.371094 15.921875 27.78125 16.980469 27.78125 C 17.070312 27.78125 17.160156 27.761719 17.25 27.761719 C 17.191406 28.851562 17.558594 29.96875 18.390625 30.8125 C 19.140625 31.5625 20.140625 31.96875 21.199219 31.96875 C 21.839844 31.96875 22.449219 31.800781 23 31.519531 L 23 37 L 25 37 L 25 31.519531 C 25.550781 31.800781 26.160156 31.96875 26.800781 31.96875 C 27.859375 31.96875 28.859375 31.5625 29.609375 30.8125 C 30.449219 29.96875 30.808594 28.839844 30.738281 27.738281 C 30.832031 27.75 30.910156 27.769531 31 27.769531 C 32.019531 27.769531 33.03125 27.378906 33.808594 26.609375 C 34.558594 25.859375 34.96875 24.859375 34.96875 23.800781 C 34.96875 22.738281 34.558594 21.75 33.808594 21 C 34.558594 20.25 34.96875 19.261719 34.96875 18.199219 "/>
</g>
</svg>
