<?xml version="1.0" encoding="UTF-8"?>
<svg xmlns="http://www.w3.org/2000/svg" xmlns:xlink="http://www.w3.org/1999/xlink" width="48pt" height="48pt" viewBox="0 0 48 48" version="1.1">
<g id="surface1">
<path style=" stroke:none;fill-rule:nonzero;fill:rgb(0%,0%,0%);fill-opacity:1;" d="M 21 15.417969 C 21 16.972656 21.839844 18.285156 23 18.777344 L 23 15 L 25 15 L 25 18.78125 C 26.160156 18.285156 27 16.972656 27 15.417969 C 27 13.085938 25.007812 11.113281 24 10.269531 C 22.996094 11.117188 21 13.097656 21 15.417969 M 19 15.417969 C 19 11.269531 23.253906 8.300781 23.433594 8.175781 L 24 7.785156 L 24.566406 8.175781 C 24.746094 8.300781 29 11.269531 29 15.417969 C 29 18.113281 27.277344 20.367188 25 20.886719 L 25 23 L 23 23 L 23 20.886719 C 20.722656 20.367188 19 18.113281 19 15.417969 M 10 38 L 12 38 L 12 23 L 10 23 Z M 40.621094 29.5 C 40.621094 30.335938 40.296875 31.117188 39.707031 31.707031 L 34.414062 37 L 14 37 L 14 35 L 33.585938 35 L 38.292969 30.292969 C 38.503906 30.082031 38.621094 29.800781 38.621094 29.5 C 38.621094 29.199219 38.503906 28.917969 38.292969 28.707031 C 37.855469 28.269531 37.144531 28.269531 36.707031 28.707031 L 32.414062 33 L 22 33 L 22 31 L 27 31 C 27.550781 31 28 30.550781 28 30 C 28 29.449219 27.550781 29 27 29 L 22.765625 29 L 18.765625 27 L 14 27 L 14 25 L 19.234375 25 L 23.234375 27 L 27 27 C 28.652344 27 30 28.347656 30 30 C 30 30.351562 29.929688 30.6875 29.816406 31 L 31.585938 31 L 35.292969 27.292969 C 36.511719 26.074219 38.488281 26.074219 39.707031 27.292969 C 40.296875 27.882812 40.621094 28.664062 40.621094 29.5 "/>
</g>
</svg>
