<?xml version="1.0" encoding="UTF-8"?>
<svg xmlns="http://www.w3.org/2000/svg" xmlns:xlink="http://www.w3.org/1999/xlink" width="48pt" height="48pt" viewBox="0 0 48 48" version="1.1">
<g id="surface1">
<path style=" stroke:none;fill-rule:nonzero;fill:rgb(0%,0%,0%);fill-opacity:1;" d="M 22 16.539062 C 22 17.519531 22.769531 18.378906 23.746094 18.484375 C 24.355469 18.558594 24.957031 18.371094 25.394531 17.980469 C 25.785156 17.628906 26 17.160156 26 16.65625 L 26 16.539062 C 26 16.144531 25.910156 15.75 25.734375 15.390625 L 24 11.769531 L 22.265625 15.390625 C 22.089844 15.75 22 16.144531 22 16.539062 M 20 16.539062 C 20 15.847656 20.160156 15.152344 20.460938 14.523438 L 22.871094 9.5 L 25.128906 9.5 L 27.539062 14.523438 C 27.839844 15.152344 28 15.847656 28 16.539062 L 28 16.65625 C 28 17.722656 27.535156 18.746094 26.726562 19.46875 C 25.980469 20.136719 25.007812 20.5 23.992188 20.5 C 23.839844 20.5 23.683594 20.492188 23.523438 20.472656 C 21.515625 20.25 20 18.558594 20 16.539062 M 10 38 L 12 38 L 12 23 L 10 23 Z M 40.621094 29.5 C 40.621094 30.335938 40.296875 31.117188 39.707031 31.707031 L 34.414062 37 L 14 37 L 14 35 L 33.585938 35 L 38.292969 30.292969 C 38.503906 30.082031 38.621094 29.800781 38.621094 29.5 C 38.621094 29.199219 38.503906 28.917969 38.292969 28.707031 C 37.855469 28.269531 37.144531 28.269531 36.707031 28.707031 L 32.414062 33 L 22 33 L 22 31 L 27 31 C 27.550781 31 28 30.550781 28 30 C 28 29.449219 27.550781 29 27 29 L 22.765625 29 L 18.765625 27 L 14 27 L 14 25 L 19.234375 25 L 23.234375 27 L 27 27 C 28.652344 27 30 28.347656 30 30 C 30 30.351562 29.929688 30.683594 29.816406 31 L 31.585938 31 L 35.292969 27.292969 C 36.511719 26.074219 38.488281 26.074219 39.707031 27.292969 C 40.296875 27.882812 40.621094 28.667969 40.621094 29.5 "/>
</g>
</svg>
