<?xml version="1.0" encoding="UTF-8"?>
<svg xmlns="http://www.w3.org/2000/svg" xmlns:xlink="http://www.w3.org/1999/xlink" width="48pt" height="48pt" viewBox="0 0 48 48" version="1.1">
<g id="surface1">
<path style=" stroke:none;fill-rule:nonzero;fill:rgb(0%,0%,0%);fill-opacity:1;" d="M 22.445312 16 L 24 16 L 24 21 L 24.339844 21 L 26.484375 16 L 25 16 L 25 10 L 24.695312 10 Z M 22 18 L 19.554688 18 L 23.304688 8 L 27 8 L 27 14 L 29.515625 14 L 25.660156 23 L 22 23 Z M 10 38 L 12 38 L 12 23 L 10 23 Z M 40.621094 29.5 C 40.621094 30.335938 40.296875 31.117188 39.707031 31.707031 L 34.414062 37 L 14 37 L 14 35 L 33.585938 35 L 38.292969 30.292969 C 38.503906 30.082031 38.621094 29.800781 38.621094 29.5 C 38.621094 29.199219 38.503906 28.917969 38.292969 28.707031 C 37.855469 28.269531 37.144531 28.269531 36.707031 28.707031 L 32.414062 33 L 22 33 L 22 31 L 27 31 C 27.550781 31 28 30.550781 28 30 C 28 29.449219 27.550781 29 27 29 L 22.761719 29 L 18.761719 27 L 14 27 L 14 25 L 19.238281 25 L 23.238281 27 L 27 27 C 28.65625 27 30 28.347656 30 30 C 30 30.351562 29.925781 30.6875 29.816406 31 L 31.585938 31 L 35.292969 27.292969 C 36.507812 26.074219 38.492188 26.074219 39.707031 27.292969 C 40.296875 27.882812 40.621094 28.664062 40.621094 29.5 "/>
</g>
</svg>
