<?xml version="1.0" encoding="UTF-8"?>
<svg xmlns="http://www.w3.org/2000/svg" xmlns:xlink="http://www.w3.org/1999/xlink" width="48pt" height="48pt" viewBox="0 0 48 48" version="1.1">
<g id="surface1">
<path style=" stroke:none;fill-rule:nonzero;fill:rgb(0%,0%,0%);fill-opacity:1;" d="M 15.347656 27.96875 L 16.621094 28.753906 L 16.757812 23.769531 L 12.375 26.140625 L 13.644531 26.921875 L 10.230469 32.476562 L 11.078125 34 L 22.078125 34 L 22.078125 32 L 12.871094 32 Z M 37.773438 32.476562 L 32.089844 23.246094 L 30.386719 24.292969 L 35.128906 32 L 30.238281 32 L 30.238281 30.507812 L 25.917969 33 L 30.238281 35.492188 L 30.238281 34 L 36.917969 34 Z M 25.15625 18.628906 L 26.425781 17.847656 L 24 13.90625 L 19.3125 21.523438 L 17.609375 20.476562 L 23.148438 11.476562 L 24.851562 11.476562 L 28.128906 16.796875 L 29.398438 16.015625 L 29.539062 21 Z M 25.15625 18.628906 "/>
</g>
</svg>
