<?xml version="1.0" encoding="UTF-8"?>
<svg xmlns="http://www.w3.org/2000/svg" xmlns:xlink="http://www.w3.org/1999/xlink" width="48pt" height="48pt" viewBox="0 0 48 48" version="1.1">
<g id="surface1">
<path style=" stroke:none;fill-rule:nonzero;fill:rgb(0%,0%,0%);fill-opacity:1;" d="M 14.492188 16.683594 L 13 16.683594 L 13 13 L 23 13 L 23 16.683594 L 21.507812 16.683594 L 24 21 L 26.492188 16.683594 L 25 16.683594 L 25 13 L 35 13 L 35 16.683594 L 33.507812 16.683594 L 36 21 L 38.492188 16.683594 L 37 16.683594 L 37 11 L 11 11 L 11 16.683594 L 9.507812 16.683594 L 12 21 Z M 14.492188 16.683594 "/>
<path style=" stroke:none;fill-rule:nonzero;fill:rgb(0%,0%,0%);fill-opacity:1;" d="M 38 34 L 34 34 L 34 27 L 38 27 Z M 37 25 L 37 24 L 35 24 L 35 25 L 31 25 L 31 27 L 32 27 L 32 36 L 40 36 L 40 27 L 41 27 L 41 25 Z M 37 25 "/>
<path style=" stroke:none;fill-rule:nonzero;fill:rgb(0%,0%,0%);fill-opacity:1;" d="M 14 34 L 10 34 L 10 27 L 14 27 Z M 13 24 L 11 24 L 11 25 L 7 25 L 7 27 L 8 27 L 8 36 L 16 36 L 16 27 L 17 27 L 17 25 L 13 25 Z M 13 24 "/>
<path style=" stroke:none;fill-rule:nonzero;fill:rgb(0%,0%,0%);fill-opacity:1;" d="M 26 34 L 22 34 L 22 27 L 26 27 Z M 25 24 L 23 24 L 23 25 L 19 25 L 19 27 L 20 27 L 20 36 L 28 36 L 28 27 L 29 27 L 29 25 L 25 25 Z M 25 24 "/>
</g>
</svg>
