<?xml version="1.0" encoding="UTF-8"?>
<svg xmlns="http://www.w3.org/2000/svg" xmlns:xlink="http://www.w3.org/1999/xlink" width="48pt" height="48pt" viewBox="0 0 48 48" version="1.1">
<g id="surface1">
<path style=" stroke:none;fill-rule:nonzero;fill:rgb(0%,0%,0%);fill-opacity:1;" d="M 37 37 C 34.792969 37 33 35.207031 33 33 L 35 33 C 35 34.101562 35.898438 35 37 35 C 38.101562 35 39 34.101562 39 33 C 39 31.898438 38.101562 31 37 31 L 37 32 L 34 30 L 37 28 L 37 29 C 39.207031 29 41 30.792969 41 33 C 41 35.207031 39.207031 37 37 37 M 30 15 L 18 15 L 18 13 L 30 13 Z M 30 31 L 18 31 L 18 17 L 30 17 Z M 30 34 C 30 34.550781 29.550781 35 29 35 L 19 35 C 18.449219 35 18 34.550781 18 34 L 18 33 L 30 33 Z M 37 26 C 35.039062 26 33.269531 26.808594 32 28.105469 L 32 11 L 26.414062 11 L 27.707031 9.707031 L 26.292969 8.292969 L 23.585938 11 L 16 11 L 16 34 C 16 35.652344 17.347656 37 19 37 L 29 37 C 29.699219 37 30.339844 36.746094 30.851562 36.34375 C 32.035156 38.519531 34.347656 40 37 40 C 40.867188 40 44 36.867188 44 33 C 44 29.132812 40.867188 26 37 26 "/>
</g>
</svg>
