<?xml version="1.0" encoding="UTF-8"?>
<svg xmlns="http://www.w3.org/2000/svg" xmlns:xlink="http://www.w3.org/1999/xlink" width="48pt" height="48pt" viewBox="0 0 48 48" version="1.1">
<g id="surface1">
<path style=" stroke:none;fill-rule:nonzero;fill:rgb(0%,0%,0%);fill-opacity:1;" d="M 41 33 C 41 30.792969 39.207031 29 37 29 L 37 28 L 34 30 L 37 32 L 37 31 C 38.101562 31 39 31.898438 39 33 C 39 34.101562 38.101562 35 37 35 C 35.898438 35 35 34.101562 35 33 L 33 33 C 33 35.207031 34.792969 37 37 37 C 39.207031 37 41 35.207031 41 33 M 29 18 C 29 15.242188 26.757812 13 24 13 C 21.242188 13 19 15.242188 19 18 Z M 29 20 L 19 20 L 19 34 C 19 34.550781 19.449219 35 20 35 L 28 35 C 28.550781 35 29 34.550781 29 34 Z M 23 11.078125 C 23.328125 11.03125 23.660156 11 24 11 C 24.339844 11 24.671875 11.03125 25 11.078125 L 25 10 L 23 10 Z M 44 33 C 44 36.867188 40.867188 40 37 40 C 34.0625 40 31.554688 38.1875 30.515625 35.625 C 29.980469 36.449219 29.054688 37 28 37 L 20 37 C 18.347656 37 17 35.652344 17 34 L 17 18 C 17 15.214844 18.640625 12.8125 21 11.6875 L 21 8 L 27 8 L 27 11.6875 C 29.359375 12.8125 31 15.214844 31 18 L 31 29.40625 C 32.222656 27.367188 34.449219 26 37 26 C 40.867188 26 44 29.132812 44 33 M 27 29 L 21 29 L 21 31 L 27 31 Z M 27 26 L 21 26 L 21 24 L 27 24 Z M 27 26 "/>
</g>
</svg>
