<?xml version="1.0" encoding="UTF-8"?>
<svg xmlns="http://www.w3.org/2000/svg" xmlns:xlink="http://www.w3.org/1999/xlink" width="48pt" height="48pt" viewBox="0 0 48 48" version="1.1">
<g id="surface1">
<path style=" stroke:none;fill-rule:nonzero;fill:rgb(0%,0%,0%);fill-opacity:1;" d="M 22.941406 17.722656 L 22.015625 22.820312 L 22 25 L 16 25 L 16 23 L 15.058594 17.722656 C 14.84375 16.550781 15.160156 15.355469 15.921875 14.441406 C 16.6875 13.523438 17.808594 13 19 13 C 20.191406 13 21.3125 13.523438 22.078125 14.441406 C 22.839844 15.355469 23.15625 16.550781 22.941406 17.722656 M 19 11 C 17.214844 11 15.53125 11.785156 14.386719 13.160156 C 13.242188 14.53125 12.769531 16.324219 13.089844 18.082031 L 14 23.089844 L 14 27 L 24 27 L 24 23.089844 L 24.910156 18.082031 C 25.230469 16.324219 24.757812 14.53125 23.613281 13.160156 C 22.46875 11.785156 20.785156 11 19 11 M 16 31 L 22 31 L 22 32 C 22 33.65625 20.652344 35 19 35 C 17.347656 35 16 33.65625 16 32 Z M 14 32 C 14 34.757812 16.242188 37 19 37 C 21.757812 37 24 34.757812 24 32 L 24 29 L 14 29 Z M 35 22.78125 L 35 19 L 33 19 L 33 22.78125 C 31.839844 22.285156 31 20.972656 31 19.417969 C 31 17.097656 32.996094 15.117188 34 14.269531 C 35.007812 15.117188 37 17.085938 37 19.417969 C 37 20.972656 36.160156 22.285156 35 22.78125 M 34.566406 12.175781 L 34 11.785156 L 33.433594 12.175781 C 33.253906 12.300781 29 15.273438 29 19.417969 C 29 22.113281 30.722656 24.371094 33 24.886719 L 33 27 L 35 27 L 35 24.886719 C 37.277344 24.371094 39 22.113281 39 19.417969 C 39 15.273438 34.746094 12.300781 34.566406 12.175781 "/>
</g>
</svg>
