<?xml version="1.0" encoding="UTF-8"?>
<svg xmlns="http://www.w3.org/2000/svg" xmlns:xlink="http://www.w3.org/1999/xlink" width="48pt" height="48pt" viewBox="0 0 48 48" version="1.1">
<g id="surface1">
<path style=" stroke:none;fill-rule:nonzero;fill:rgb(0%,0%,0%);fill-opacity:1;" d="M 27 30 L 29 30 L 29 32 L 27 32 Z M 27 26 L 29 26 L 29 28 L 27 28 Z M 27 22 L 29 22 L 29 24 L 27 24 Z M 36 36 L 34 36 L 34 15.304688 L 36 16.554688 Z M 25 36 L 25 20.453125 L 32 14.328125 L 32 36 Z M 16 23 L 20 23 L 20 21 L 16 21 L 16 14.328125 L 23 20.453125 L 23 36 L 16 36 Z M 12 36 L 12 16.554688 L 14 15.304688 L 14 36 Z M 29.371094 12.410156 L 30.410156 13.0625 L 27.757812 15.382812 Z M 20.199219 15.347656 L 17.589844 13.0625 L 18.625 12.414062 Z M 20.671875 12 L 27.328125 12 L 24 18.191406 Z M 29.285156 10 L 18.714844 10 L 10 15.445312 L 10 38 L 38 38 L 38 15.445312 Z M 29.285156 10 "/>
</g>
</svg>
