<?xml version="1.0" encoding="UTF-8"?>
<svg xmlns="http://www.w3.org/2000/svg" xmlns:xlink="http://www.w3.org/1999/xlink" width="48pt" height="48pt" viewBox="0 0 48 48" version="1.1">
<g id="surface1">
<path style=" stroke:none;fill-rule:nonzero;fill:rgb(0%,0%,0%);fill-opacity:1;" d="M 19 21 L 17 21 L 17 19 L 19 19 Z M 34 28 L 36 28 L 36 36 L 34 36 Z M 29 36 L 29 34 L 27 34 L 27 36 L 25 36 L 25 31 L 32 31 L 32 36 Z M 16 31 L 23 31 L 23 36 L 16 36 Z M 12 36 L 12 16.554688 L 14 15.304688 L 14 36 Z M 25 17 L 29.414062 17 L 32 14.414062 L 32 19 L 29 19 L 29 22 L 31 22 L 31 21 L 32 21 L 32 29 L 25 29 Z M 16 26 L 19 26 L 19 23 L 17 23 L 17 24 L 16 24 L 16 14.414062 L 18.585938 17 L 23 17 L 23 29 L 16 29 Z M 21.585938 15 L 19.414062 15 L 17.519531 13.105469 L 18.855469 12.269531 Z M 24 14.585938 L 21.414062 12 L 26.585938 12 Z M 29.144531 12.269531 L 30.480469 13.105469 L 28.585938 15 L 26.414062 15 Z M 36 16.554688 L 36 26 L 34 26 L 34 15.304688 Z M 34 12.945312 L 34 10 L 32 10 L 32 11.695312 L 29.285156 10 L 18.714844 10 L 10 15.445312 L 10 38 L 38 38 L 38 15.445312 Z M 34 12.945312 "/>
</g>
</svg>
