<?xml version="1.0" encoding="UTF-8"?>
<svg xmlns="http://www.w3.org/2000/svg" xmlns:xlink="http://www.w3.org/1999/xlink" width="48pt" height="48pt" viewBox="0 0 48 48" version="1.1">
<g id="surface1">
<path style=" stroke:none;fill-rule:nonzero;fill:rgb(0%,0%,0%);fill-opacity:1;" d="M 27 30 L 29 30 L 29 32 L 27 32 Z M 27 24 L 29 24 L 29 26 L 27 26 Z M 23 30 L 25 30 L 25 32 L 23 32 Z M 23 24 L 25 24 L 25 26 L 23 26 Z M 36 36 L 34 36 L 34 15.304688 L 36 16.554688 Z M 21 36 L 21 20.640625 L 32 15.5625 L 32 36 Z M 16 14.15625 L 21.324219 17.261719 L 19 19.585938 L 19 36 L 16 36 Z M 12 36 L 12 16.554688 L 14 15.304688 L 14 36 Z M 29.144531 12.269531 L 31.359375 13.65625 L 24.671875 16.742188 Z M 21.828125 15.242188 L 17.832031 12.910156 L 18.855469 12.269531 Z M 24 14.585938 L 21.414062 12 L 26.585938 12 Z M 29.285156 10 L 18.714844 10 L 10 15.445312 L 10 38 L 38 38 L 38 15.445312 Z M 29.285156 10 "/>
</g>
</svg>
