<?xml version="1.0" encoding="UTF-8"?>
<svg xmlns="http://www.w3.org/2000/svg" xmlns:xlink="http://www.w3.org/1999/xlink" width="48pt" height="48pt" viewBox="0 0 48 48" version="1.1">
<g id="surface1">
<path style=" stroke:none;fill-rule:nonzero;fill:rgb(0%,0%,0%);fill-opacity:1;" d="M 29 31 L 27 31 L 27 29 L 29 29 Z M 29 26 L 27 26 L 27 24 L 29 24 Z M 29 21 L 27 21 L 27 19 L 29 19 Z M 21 31 L 19 31 L 19 29 L 21 29 Z M 21 26 L 19 26 L 19 24 L 21 24 Z M 21 21 L 19 21 L 19 19 L 21 19 Z M 34 36 L 34 23.414062 L 36 21.414062 L 36 36 Z M 32 36 L 25 36 L 25 16.691406 L 32 14.066406 Z M 23 14.558594 L 18.121094 12.726562 L 19.285156 12 L 23 12 Z M 23 36 L 16 36 L 16 14.066406 L 23 16.691406 Z M 25 12 L 28.714844 12 L 29.878906 12.726562 L 25 14.558594 Z M 36 16.554688 L 36 18.585938 L 34 20.585938 L 34 15.304688 Z M 12 36 L 12 21.414062 L 14 23.414062 L 14 36 Z M 14 15.304688 L 14 20.585938 L 12 18.585938 L 12 16.554688 Z M 29.285156 10 L 18.714844 10 L 10 15.445312 L 10 38 L 38 38 L 38 15.445312 Z M 29.285156 10 "/>
</g>
</svg>
