<?xml version="1.0" encoding="UTF-8"?>
<svg xmlns="http://www.w3.org/2000/svg" xmlns:xlink="http://www.w3.org/1999/xlink" width="48pt" height="48pt" viewBox="0 0 48 48" version="1.1">
<g id="surface1">
<path style=" stroke:none;fill-rule:nonzero;fill:rgb(0%,0%,0%);fill-opacity:1;" d="M 36 36 L 34 36 L 34 30 L 36 30 Z M 25 30 L 32 30 L 32 36 L 25 36 Z M 16 30 L 23 30 L 23 36 L 16 36 Z M 12 30 L 14 30 L 14 36 L 12 36 Z M 11.917969 16.605469 L 15.777344 14.191406 L 18.585938 17 L 23 17 L 23 28 L 10.164062 28 Z M 21.585938 15 L 19.414062 15 L 17.519531 13.105469 L 18.855469 12.269531 Z M 24 14.585938 L 21.414062 12 L 26.585938 12 Z M 29.144531 12.269531 L 30.480469 13.105469 L 28.585938 15 L 26.414062 15 Z M 37.835938 28 L 25 28 L 25 17 L 29.414062 17 L 32.222656 14.191406 L 36.082031 16.605469 Z M 40.164062 30 L 37.917969 15.394531 L 29.285156 10 L 18.714844 10 L 10.082031 15.394531 L 7.835938 30 L 10 30 L 10 38 L 38 38 L 38 30 Z M 40.164062 30 "/>
</g>
</svg>
