<?xml version="1.0" encoding="UTF-8"?>
<svg xmlns="http://www.w3.org/2000/svg" xmlns:xlink="http://www.w3.org/1999/xlink" width="48pt" height="48pt" viewBox="0 0 48 48" version="1.1">
<g id="surface1">
<path style=" stroke:none;fill-rule:nonzero;fill:rgb(0%,0%,0%);fill-opacity:1;" d="M 36 36 L 34 36 L 34 15.304688 L 36 16.554688 Z M 32 22 L 32 36 L 25 36 L 25 17 L 29.414062 17 L 32 14.414062 L 32 20 L 27 20 L 27 22 Z M 16 14.414062 L 18.585938 17 L 23 17 L 23 36 L 16 36 Z M 12 36 L 12 16.554688 L 14 15.304688 L 14 36 Z M 29.144531 12.269531 L 30.480469 13.105469 L 28.585938 15 L 26.414062 15 Z M 21.414062 12 L 26.585938 12 L 24 14.585938 Z M 21.585938 15 L 19.414062 15 L 17.519531 13.105469 L 18.855469 12.269531 Z M 29.285156 10 L 18.714844 10 L 10 15.445312 L 10 38 L 38 38 L 38 15.445312 Z M 29.285156 10 "/>
</g>
</svg>
