<?xml version="1.0" encoding="UTF-8"?>
<svg xmlns="http://www.w3.org/2000/svg" xmlns:xlink="http://www.w3.org/1999/xlink" width="48pt" height="48pt" viewBox="0 0 48 48" version="1.1">
<g id="surface1">
<path style=" stroke:none;fill-rule:nonzero;fill:rgb(0%,0%,0%);fill-opacity:1;" d="M 30 21 C 30 21.828125 29.328125 22.5 28.5 22.5 C 27.671875 22.5 27 21.828125 27 21 C 27 20.171875 27.671875 19.5 28.5 19.5 C 29.328125 19.5 30 20.171875 30 21 M 36 36 L 34 36 L 34 15.304688 L 36 16.554688 Z M 25 36 L 25 16.800781 L 32 15.246094 L 32 36 Z M 16 22 L 21 22 L 21 20 L 16 20 L 16 15.246094 L 23 16.800781 L 23 36 L 16 36 Z M 12 36 L 12 16.554688 L 14 15.304688 L 14 36 Z M 29.144531 12.269531 L 30.988281 13.421875 L 27.136719 14.277344 Z M 20.863281 14.277344 L 17.011719 13.421875 L 18.855469 12.269531 Z M 21.414062 12 L 26.585938 12 L 24 14.585938 Z M 29.285156 10 L 18.714844 10 L 10 15.445312 L 10 38 L 38 38 L 38 15.445312 Z M 29.285156 10 "/>
</g>
</svg>
