<?xml version="1.0" encoding="UTF-8"?>
<svg xmlns="http://www.w3.org/2000/svg" xmlns:xlink="http://www.w3.org/1999/xlink" width="48pt" height="48pt" viewBox="0 0 48 48" version="1.1">
<g id="surface1">
<path style=" stroke:none;fill-rule:nonzero;fill:rgb(0%,0%,0%);fill-opacity:1;" d="M 36 36 L 34 36 L 34 15.304688 L 36 16.554688 Z M 25 36 L 25 16.800781 L 29.578125 15.785156 L 27.15625 23.050781 C 26.847656 23.976562 26.996094 24.960938 27.566406 25.753906 C 28.136719 26.546875 29.023438 27 30 27 L 32 27 L 32 30 L 28 30 L 28 32 L 32 32 L 32 36 Z M 16 32 L 20 32 L 20 30 L 16 30 L 16 27 L 18 27 C 18.976562 27 19.863281 26.546875 20.433594 25.753906 C 21.003906 24.960938 21.152344 23.976562 20.84375 23.050781 L 18.421875 15.785156 L 23 16.800781 L 23 36 L 16 36 Z M 12 36 L 12 16.554688 L 14 15.304688 L 14 36 Z M 29.054688 23.683594 L 29.28125 23 L 32 23 L 32 25 L 30 25 C 29.675781 25 29.378906 24.847656 29.191406 24.585938 C 29 24.320312 28.949219 23.992188 29.054688 23.683594 M 32 15.246094 L 32 21 L 29.945312 21 L 31.855469 15.277344 Z M 29.144531 12.269531 L 30.988281 13.421875 L 27.136719 14.277344 Z M 21.414062 12 L 26.585938 12 L 24 14.585938 Z M 17.011719 13.421875 L 18.855469 12.269531 L 20.863281 14.277344 Z M 16 21 L 16 15.246094 L 16.144531 15.277344 L 18.054688 21 Z M 18.945312 23.683594 C 19.050781 23.992188 19 24.320312 18.808594 24.585938 C 18.621094 24.847656 18.324219 25 18 25 L 16 25 L 16 23 L 18.71875 23 Z M 29.285156 10 L 18.714844 10 L 10 15.445312 L 10 38 L 38 38 L 38 15.445312 Z M 29.285156 10 "/>
</g>
</svg>
