<?xml version="1.0" encoding="UTF-8"?>
<svg xmlns="http://www.w3.org/2000/svg" xmlns:xlink="http://www.w3.org/1999/xlink" width="48pt" height="48pt" viewBox="0 0 48 48" version="1.1">
<g id="surface1">
<path style=" stroke:none;fill-rule:nonzero;fill:rgb(0%,0%,0%);fill-opacity:1;" d="M 36 36 L 34 36 L 34 15.304688 L 36 16.554688 Z M 30.195312 22 L 31.679688 13.855469 L 32 14.054688 L 32 22 Z M 32 26 L 16 26 L 16 24 L 32 24 Z M 32 36 L 25 36 L 25 28 L 32 28 Z M 16 28 L 23 28 L 23 36 L 16 36 Z M 12 36 L 12 16.554688 L 14 15.304688 L 14 36 Z M 24 17.113281 L 20.804688 12 L 27.195312 12 Z M 19.835938 22 L 18.144531 12.714844 L 18.683594 12.378906 L 23 19.285156 L 23 22 Z M 16 14.054688 L 16.320312 13.855469 L 17.804688 22 L 16 22 Z M 25 22 L 25 19.285156 L 29.316406 12.378906 L 29.855469 12.714844 L 28.164062 22 Z M 29.285156 10 L 18.714844 10 L 10 15.445312 L 10 38 L 38 38 L 38 15.445312 Z M 29.285156 10 "/>
</g>
</svg>
