<?xml version="1.0" encoding="UTF-8"?>
<svg xmlns="http://www.w3.org/2000/svg" xmlns:xlink="http://www.w3.org/1999/xlink" width="48pt" height="48pt" viewBox="0 0 48 48" version="1.1">
<g id="surface1">
<path style=" stroke:none;fill-rule:nonzero;fill:rgb(0%,0%,0%);fill-opacity:1;" d="M 36 36 L 34 36 L 34 15.304688 L 36 16.554688 Z M 30 36 L 30 20.414062 L 32 18.414062 L 32 36 Z M 20.414062 37 L 20 36.585938 L 20 29 L 28 29 L 28 36.585938 L 27.585938 37 Z M 16 18.414062 L 18 20.414062 L 18 36 L 16 36 Z M 12 36 L 12 16.554688 L 14 15.304688 L 14 36 Z M 16 13 L 18 13 L 18 17.585938 L 16 15.585938 Z M 20 25 L 28 25 L 28 27 L 20 27 Z M 24 16 C 22.140625 16 20.589844 14.71875 20.144531 13 L 27.855469 13 C 27.410156 14.71875 25.859375 16 24 16 M 28 23 L 20 23 L 20 16.460938 C 21.0625 17.414062 22.464844 18 24 18 C 25.535156 18 26.9375 17.414062 28 16.460938 Z M 32 14 L 32 15.585938 L 30 17.585938 L 30 13 L 32 13 Z M 34 12.945312 L 34 11 L 14 11 L 14 12.945312 L 10 15.445312 L 10 38 L 18.585938 38 L 19.585938 39 L 28.414062 39 L 29.414062 38 L 38 38 L 38 15.445312 Z M 34 12.945312 "/>
</g>
</svg>
