<?xml version="1.0" encoding="UTF-8"?>
<svg xmlns="http://www.w3.org/2000/svg" xmlns:xlink="http://www.w3.org/1999/xlink" width="48pt" height="48pt" viewBox="0 0 48 48" version="1.1">
<g id="surface1">
<path style=" stroke:none;fill-rule:nonzero;fill:rgb(0%,0%,0%);fill-opacity:1;" d="M 36.5625 21.132812 C 37.148438 21.71875 37.148438 22.667969 36.5625 23.253906 C 35.976562 23.835938 35.027344 23.835938 34.441406 23.253906 L 32.320312 21.132812 C 31.734375 20.546875 31.734375 19.59375 32.320312 19.011719 C 32.90625 18.425781 33.855469 18.425781 34.441406 19.011719 Z M 24.542969 33.152344 C 25.125 33.738281 25.125 34.6875 24.542969 35.273438 C 23.957031 35.859375 23.003906 35.859375 22.421875 35.273438 L 20.296875 33.152344 C 19.714844 32.566406 19.714844 31.617188 20.296875 31.03125 C 20.882812 30.445312 21.835938 30.445312 22.421875 31.03125 L 23.480469 32.09375 Z M 30.90625 17.597656 C 30.523438 17.976562 30.261719 18.429688 30.09375 18.90625 L 27.511719 16.324219 L 22.460938 18.007812 L 22.730469 17.199219 L 20.074219 14.542969 C 20.550781 13.597656 20.644531 12.285156 19.484375 11.125 C 18.328125 9.96875 17.015625 10.0625 16.066406 10.535156 L 15.242188 9.710938 L 13.828125 11.125 L 15.941406 13.21875 L 16.648438 12.546875 C 16.984375 12.230469 17.5 11.972656 18.070312 12.539062 C 18.640625 13.109375 18.378906 13.628906 18.070312 13.953125 L 17.363281 14.660156 L 20.441406 17.738281 L 20.085938 18.796875 L 19.027344 19.152344 L 15.929688 16.054688 L 15.957031 16.101562 L 15.25 16.773438 C 14.917969 17.09375 14.398438 17.351562 13.828125 16.78125 C 13.257812 16.214844 13.519531 15.695312 13.828125 15.367188 L 14.535156 14.660156 L 12.414062 12.539062 L 11 13.953125 L 11.824219 14.777344 C 11.347656 15.726562 11.253906 17.039062 12.414062 18.195312 C 13.574219 19.355469 14.882812 19.261719 15.832031 18.785156 L 18.488281 21.441406 L 19.296875 21.171875 L 17.613281 26.222656 L 20.195312 28.804688 C 19.714844 28.972656 19.265625 29.234375 18.882812 29.617188 C 17.519531 30.980469 17.519531 33.203125 18.882812 34.566406 L 21.003906 36.6875 C 22.371094 38.054688 24.589844 38.054688 25.957031 36.6875 C 27.320312 35.324219 27.320312 33.101562 25.957031 31.738281 L 25.601562 31.386719 L 26.308594 30.679688 L 24.894531 29.265625 L 24.1875 29.972656 L 23.835938 29.617188 L 19.902344 25.683594 L 21.667969 20.378906 L 26.972656 18.613281 L 31.257812 22.898438 L 30.550781 23.605469 L 31.964844 25.019531 L 32.671875 24.3125 L 33.027344 24.667969 C 34.390625 26.03125 36.613281 26.03125 37.976562 24.667969 C 39.339844 23.304688 39.339844 21.082031 37.976562 19.71875 L 35.855469 17.597656 C 34.492188 16.230469 32.269531 16.230469 30.90625 17.597656 "/>
</g>
</svg>
