<?xml version="1.0" encoding="UTF-8"?>
<svg xmlns="http://www.w3.org/2000/svg" xmlns:xlink="http://www.w3.org/1999/xlink" width="48pt" height="48pt" viewBox="0 0 48 48" version="1.1">
<g id="surface1">
<path style=" stroke:none;fill-rule:nonzero;fill:rgb(0%,0%,0%);fill-opacity:1;" d="M 35.855469 24.964844 C 36.441406 25.550781 36.441406 26.5 35.855469 27.085938 C 35.269531 27.671875 34.320312 27.671875 33.734375 27.085938 L 31.613281 24.964844 C 31.027344 24.378906 31.027344 23.425781 31.613281 22.84375 C 32.199219 22.257812 33.148438 22.257812 33.734375 22.84375 Z M 27.371094 33.449219 C 27.957031 34.035156 27.957031 34.984375 27.371094 35.570312 C 26.785156 36.15625 25.835938 36.15625 25.25 35.570312 L 23.125 33.449219 C 22.542969 32.863281 22.542969 31.914062 23.125 31.328125 C 23.710938 30.742188 24.664062 30.742188 25.25 31.328125 Z M 30.519531 21.148438 C 29.960938 21.578125 29.597656 22.136719 29.386719 22.738281 L 28.273438 21.625 L 20.773438 18.921875 L 17.351562 9.421875 C 16.3125 9.796875 15.773438 10.945312 16.148438 11.980469 L 18.328125 18.042969 L 12.265625 15.863281 C 11.226562 15.488281 10.082031 16.027344 9.707031 17.066406 L 19.207031 20.488281 L 21.910156 27.988281 L 23.023438 29.101562 C 22.421875 29.3125 21.863281 29.675781 21.429688 30.234375 C 20.324219 31.667969 20.589844 33.742188 21.875 35.023438 L 23.761719 36.914062 C 24.945312 38.09375 26.816406 38.371094 28.210938 37.453125 C 30.128906 36.1875 30.320312 33.570312 28.785156 32.035156 L 26.664062 29.914062 C 26.542969 29.792969 23.636719 26.890625 23.636719 26.890625 L 21.652344 21.367188 L 27.175781 23.355469 C 27.175781 23.355469 30.078125 26.257812 30.199219 26.378906 L 32.25 28.429688 C 33.429688 29.609375 35.300781 29.886719 36.695312 28.964844 C 38.613281 27.703125 38.804688 25.085938 37.269531 23.550781 L 35.308594 21.589844 C 34.027344 20.308594 31.953125 20.042969 30.519531 21.148438 "/>
</g>
</svg>
