<?xml version="1.0" encoding="UTF-8"?>
<svg xmlns="http://www.w3.org/2000/svg" xmlns:xlink="http://www.w3.org/1999/xlink" width="48pt" height="48pt" viewBox="0 0 48 48" version="1.1">
<g id="surface1">
<path style=" stroke:none;fill-rule:nonzero;fill:rgb(0%,0%,0%);fill-opacity:1;" d="M 27.351562 28.804688 L 27.589844 28.195312 L 14.101562 14.707031 C 13.710938 14.316406 13.710938 13.679688 14.101562 13.292969 C 14.492188 12.902344 15.125 12.902344 15.515625 13.292969 L 29.003906 26.78125 L 29.613281 26.542969 C 31.09375 25.960938 32.777344 26.3125 33.898438 27.433594 C 35.214844 28.746094 35.40625 30.75 34.503906 32.28125 L 31.070312 28.847656 L 29.65625 30.261719 L 33.089844 33.695312 C 31.558594 34.597656 29.554688 34.40625 28.242188 33.089844 C 27.121094 31.96875 26.773438 30.285156 27.351562 28.804688 M 35.3125 34.503906 C 37.652344 32.164062 37.652344 28.359375 35.3125 26.019531 C 33.789062 24.496094 31.578125 23.921875 29.523438 24.46875 L 16.929688 11.878906 C 15.757812 10.707031 13.855469 10.707031 12.6875 11.878906 C 11.515625 13.046875 11.515625 14.949219 12.6875 16.121094 L 25.28125 28.710938 C 24.730469 30.765625 25.304688 32.980469 26.828125 34.503906 C 29.167969 36.84375 32.972656 36.84375 35.3125 34.503906 "/>
</g>
</svg>
