<?xml version="1.0" encoding="UTF-8"?>
<svg xmlns="http://www.w3.org/2000/svg" xmlns:xlink="http://www.w3.org/1999/xlink" width="48pt" height="48pt" viewBox="0 0 48 48" version="1.1">
<g id="surface1">
<path style=" stroke:none;fill-rule:nonzero;fill:rgb(0%,0%,0%);fill-opacity:1;" d="M 17.769531 17.003906 L 19.179688 15.589844 L 20.59375 17.003906 L 19.179688 18.417969 Z M 23.082031 16.664062 L 17.761719 11.34375 L 13.957031 9.714844 C 13.714844 9.609375 13.507812 9.917969 13.695312 10.101562 L 17.769531 14.175781 L 16.355469 15.589844 L 12.28125 11.515625 C 12.09375 11.332031 11.785156 11.539062 11.890625 11.78125 L 13.523438 15.585938 L 17.769531 19.832031 L 18.996094 21.0625 C 19.265625 23.859375 20.226562 29.054688 23.664062 32.546875 C 25.902344 34.816406 28.804688 35.976562 32.292969 36 L 32.304688 34 C 27.570312 33.96875 24.214844 31.519531 22.339844 26.71875 C 21.15625 23.6875 20.9375 20.605469 20.898438 19.53125 L 21.835938 18.59375 C 22.910156 18.632812 25.992188 18.847656 29.023438 20.035156 C 33.824219 21.914062 36.273438 25.265625 36.304688 30 L 38.304688 29.988281 C 38.28125 26.5 37.121094 23.597656 34.851562 21.363281 C 31.242188 17.804688 25.800781 16.898438 23.082031 16.664062 "/>
</g>
</svg>
