<?xml version="1.0" encoding="UTF-8"?>
<svg xmlns="http://www.w3.org/2000/svg" xmlns:xlink="http://www.w3.org/1999/xlink" width="48pt" height="48pt" viewBox="0 0 48 48" version="1.1">
<g id="surface1">
<path style=" stroke:none;fill-rule:nonzero;fill:rgb(0%,0%,0%);fill-opacity:1;" d="M 22.714844 19.125 L 21.300781 20.539062 L 19.886719 19.125 L 21.300781 17.710938 Z M 34.738281 21.296875 C 31.609375 18.65625 27.292969 18.453125 24.988281 18.566406 L 22.007812 15.589844 L 17.765625 11.347656 L 13.960938 9.714844 C 13.71875 9.609375 13.511719 9.917969 13.695312 10.105469 L 19.886719 16.296875 L 18.472656 17.710938 L 12.28125 11.519531 C 12.097656 11.332031 11.789062 11.539062 11.894531 11.78125 L 13.523438 15.589844 L 20.859375 22.925781 C 20.773438 25.28125 21.054688 29.414062 23.597656 32.433594 C 25.574219 34.773438 28.496094 35.972656 32.289062 36 L 32.304688 33.996094 C 29.125 33.976562 26.714844 33.019531 25.136719 31.152344 C 22.445312 27.96875 22.8125 22.984375 22.953125 21.710938 L 24.019531 20.648438 C 25.285156 20.503906 30.25 20.128906 33.449219 22.824219 C 35.320312 24.402344 36.28125 26.816406 36.300781 30 L 38.304688 29.984375 C 38.277344 26.191406 37.078125 23.269531 34.738281 21.296875 "/>
</g>
</svg>
