<?xml version="1.0" encoding="UTF-8"?>
<svg xmlns="http://www.w3.org/2000/svg" xmlns:xlink="http://www.w3.org/1999/xlink" width="48pt" height="48pt" viewBox="0 0 48 48" version="1.1">
<g id="surface1">
<path style=" stroke:none;fill-rule:nonzero;fill:rgb(0%,0%,0%);fill-opacity:1;" d="M 19.875 15.363281 L 18.460938 16.777344 L 16.339844 14.65625 L 17.753906 13.242188 Z M 21.664062 14.324219 L 16.339844 9 L 13.511719 9 L 16.339844 11.828125 L 14.925781 13.242188 L 12.097656 10.414062 L 12.097656 13.242188 L 17.625 18.769531 C 17.445312 21.457031 17.339844 29.332031 21.71875 33.59375 C 24.070312 35.882812 27.308594 36.742188 31.335938 36.152344 L 31.042969 34.171875 C 27.667969 34.667969 25 33.992188 23.117188 32.160156 C 19.066406 28.226562 19.515625 20.105469 19.660156 18.410156 L 21.742188 16.324219 C 23.4375 16.179688 31.546875 15.726562 35.492188 19.78125 C 37.324219 21.664062 38.003906 24.332031 37.507812 27.710938 L 39.484375 28 C 40.078125 23.972656 39.214844 20.738281 36.925781 18.386719 C 32.402344 13.738281 23.800781 14.144531 21.664062 14.324219 "/>
</g>
</svg>
