<?xml version="1.0" encoding="UTF-8"?>
<svg xmlns="http://www.w3.org/2000/svg" xmlns:xlink="http://www.w3.org/1999/xlink" width="48pt" height="48pt" viewBox="0 0 48 48" version="1.1">
<g id="surface1">
<path style=" stroke:none;fill-rule:nonzero;fill:rgb(0%,0%,0%);fill-opacity:1;" d="M 33.714844 27.886719 C 34.148438 29.101562 33.691406 30.738281 32.460938 31.96875 C 31.230469 33.199219 29.59375 33.65625 28.382812 33.21875 Z M 26.804688 27.726562 L 28.21875 26.3125 L 30.339844 28.433594 L 28.925781 29.847656 Z M 15.125 14.632812 L 16.539062 14.632812 L 18.375 16.46875 L 16.960938 17.882812 L 15.125 16.046875 Z M 23.949219 22.039062 L 26.804688 24.898438 L 25.390625 26.3125 L 22.535156 23.457031 Z M 22.535156 20.625 L 21.121094 22.039062 L 18.375 19.296875 L 19.789062 17.882812 Z M 26.097656 34.089844 C 28.046875 36.039062 31.535156 35.722656 33.875 33.382812 C 36.214844 31.042969 36.53125 27.554688 34.582031 25.605469 L 33.875 24.898438 L 31.753906 27.019531 L 17.367188 12.632812 L 13.125 12.632812 L 13.125 16.875 L 27.511719 31.261719 L 25.390625 33.382812 Z M 26.097656 34.089844 "/>
</g>
</svg>
