<?xml version="1.0" encoding="UTF-8"?>
<svg xmlns="http://www.w3.org/2000/svg" xmlns:xlink="http://www.w3.org/1999/xlink" width="48pt" height="48pt" viewBox="0 0 48 48" version="1.1">
<g id="surface1">
<path style=" stroke:none;fill-rule:nonzero;fill:rgb(0%,0%,0%);fill-opacity:1;" d="M 24 20 C 21.792969 20 20 21.792969 20 24 C 20 26.207031 21.792969 28 24 28 C 26.207031 28 28 26.207031 28 24 C 28 21.792969 26.207031 20 24 20 M 24 30 C 20.691406 30 18 27.308594 18 24 C 18 20.691406 20.691406 18 24 18 C 27.308594 18 30 20.691406 30 24 C 30 27.308594 27.308594 30 24 30 M 14 29.40625 L 24 34.859375 L 34 29.40625 L 34 18.59375 L 24 13.140625 L 14 18.59375 Z M 24 37.140625 L 12 30.59375 L 12 17.40625 L 24 10.859375 L 36 17.40625 L 36 30.59375 Z M 24 37.140625 "/>
</g>
</svg>
