<?xml version="1.0" encoding="UTF-8"?>
<svg xmlns="http://www.w3.org/2000/svg" xmlns:xlink="http://www.w3.org/1999/xlink" width="48pt" height="48pt" viewBox="0 0 48 48" version="1.1">
<g id="surface1">
<path style=" stroke:none;fill-rule:nonzero;fill:rgb(0%,0%,0%);fill-opacity:1;" d="M 20 26 C 18.347656 26 17 24.652344 17 23 C 17 21.347656 18.347656 20 20 20 C 21.652344 20 23 21.347656 23 23 C 23 24.652344 21.652344 26 20 26 M 20 18 C 17.242188 18 15 20.242188 15 23 C 15 25.757812 17.242188 28 20 28 C 22.757812 28 25 25.757812 25 23 C 25 20.242188 22.757812 18 20 18 M 29 32 L 20 32 C 15.039062 32 11 27.960938 11 23 C 11 18.039062 15.039062 14 20 14 C 24.960938 14 29 18.039062 29 23 Z M 36 30 L 36 32 L 31 32 L 31 23 C 31 16.933594 26.066406 12 20 12 C 13.933594 12 9 16.933594 9 23 C 9 29.066406 13.933594 34 20 34 L 38 34 L 38 30 Z M 36 30 "/>
</g>
</svg>
