<?xml version="1.0" encoding="UTF-8"?>
<svg xmlns="http://www.w3.org/2000/svg" xmlns:xlink="http://www.w3.org/1999/xlink" width="48pt" height="48pt" viewBox="0 0 48 48" version="1.1">
<g id="surface1">
<path style=" stroke:none;fill-rule:nonzero;fill:rgb(0%,0%,0%);fill-opacity:1;" d="M 24 21 C 25.652344 21 27 22.347656 27 24 C 27 25.652344 25.652344 27 24 27 C 22.347656 27 21 25.652344 21 24 C 21 22.347656 22.347656 21 24 21 M 24 29 C 26.757812 29 29 26.757812 29 24 C 29 21.242188 26.757812 19 24 19 C 21.242188 19 19 21.242188 19 24 C 19 26.757812 21.242188 29 24 29 "/>
<path style=" stroke:none;fill-rule:nonzero;fill:rgb(0%,0%,0%);fill-opacity:1;" d="M 38 16 L 37 16 C 36.449219 16 36 15.550781 36 15 C 36 14.449219 36.449219 14 37 14 L 38 14 Z M 32 24 C 32 28.410156 28.410156 32 24 32 C 19.589844 32 16 28.410156 16 24 C 16 19.589844 19.589844 16 24 16 C 28.410156 16 32 19.589844 32 24 M 40 14 L 40 12 L 37 12 C 35.699219 12 34.597656 12.839844 34.183594 14 L 24 14 C 18.484375 14 14 18.484375 14 24 L 14 32 C 14 32.550781 13.550781 33 13 33 L 6 33 L 6 35 L 13 35 C 14.652344 35 16 33.652344 16 32 L 16 29.976562 C 17.824219 32.414062 20.726562 34 24 34 C 29.515625 34 34 29.515625 34 24 C 34 20.726562 32.414062 17.824219 29.976562 16 L 34.183594 16 C 34.597656 17.160156 35.699219 18 37 18 L 40 18 L 40 16 L 42 16 L 42 14 Z M 40 14 "/>
</g>
</svg>
