<?xml version="1.0" encoding="UTF-8"?>
<svg xmlns="http://www.w3.org/2000/svg" xmlns:xlink="http://www.w3.org/1999/xlink" width="48pt" height="48pt" viewBox="0 0 48 48" version="1.1">
<g id="surface1">
<path style=" stroke:none;fill-rule:nonzero;fill:rgb(0%,0%,0%);fill-opacity:1;" d="M 34 19 L 31 19 L 31 15 L 34 15 C 35.105469 15 36 15.898438 36 17 C 36 18.101562 35.105469 19 34 19 M 28 21 L 25 21 L 25 15 L 29 15 L 29 20 C 29 20.550781 28.550781 21 28 21 M 19.144531 21 L 16 21 L 16 23 L 18.835938 23 L 17.757812 30 L 12.78125 30 L 13.683594 24.128906 C 13.804688 23.34375 13.578125 22.550781 13.0625 21.949219 C 12.769531 21.609375 12.40625 21.351562 12 21.191406 L 12 15 L 23 15 L 23 21 Z M 12.164062 34 L 12.472656 32 L 17.449219 32 L 17.144531 34 Z M 42 16 L 37.859375 16 C 37.410156 14.28125 35.859375 13 34 13 L 10 13 L 10 23 L 11 23 C 11.285156 23 11.464844 23.15625 11.542969 23.25 C 11.621094 23.34375 11.75 23.542969 11.707031 23.824219 L 9.835938 36 L 18.855469 36 L 20.855469 23 L 23 23 L 23 27 L 25 27 L 25 23 L 28 23 C 29.300781 23 30.402344 22.160156 30.816406 21 L 34 21 C 35.859375 21 37.410156 19.71875 37.859375 18 L 42 18 Z M 42 16 "/>
</g>
</svg>
