<?xml version="1.0" encoding="UTF-8"?>
<svg xmlns="http://www.w3.org/2000/svg" xmlns:xlink="http://www.w3.org/1999/xlink" width="48pt" height="48pt" viewBox="0 0 48 48" version="1.1">
<g id="surface1">
<path style=" stroke:none;fill-rule:nonzero;fill:rgb(0%,0%,0%);fill-opacity:1;" d="M 36 36.410156 L 33.578125 34 L 32.789062 33.210938 L 34.210938 31.789062 L 34.421875 32 L 36 33.589844 L 38 31.589844 L 40.289062 29.289062 L 41.710938 30.710938 Z M 32 25 L 36 25 L 36 26.082031 C 34.4375 26.289062 33.039062 27.03125 32 28.109375 Z M 16 32 L 12 32 L 12 25 L 16 25 Z M 38 26.082031 L 38 25 C 38 23.898438 37.101562 23 36 23 L 35 23 L 35 21 C 35 14.929688 30.070312 10 24 10 C 17.929688 10 13 14.929688 13 21 L 13 23 L 12 23 C 10.898438 23 10 23.898438 10 25 L 10 32 C 10 33.101562 10.898438 34 12 34 L 16 34 L 16 35 L 18 35 L 18 23 L 15 23 L 15 21 C 15 16.039062 19.039062 12 24 12 C 28.960938 12 33 16.039062 33 21 L 33 23 L 30 23 L 30 35 L 30.289062 35 C 31.148438 37.890625 33.820312 40 37 40 C 40.871094 40 44 36.871094 44 33 C 44 29.46875 41.398438 26.558594 38 26.082031 "/>
</g>
</svg>
