<?xml version="1.0" encoding="UTF-8"?>
<svg xmlns="http://www.w3.org/2000/svg" xmlns:xlink="http://www.w3.org/1999/xlink" width="48pt" height="48pt" viewBox="0 0 48 48" version="1.1">
<g id="surface1">
<path style=" stroke:none;fill-rule:nonzero;fill:rgb(0%,0%,0%);fill-opacity:1;" d="M 38 34 L 36 34 L 36 29 L 38 29 Z M 38 37 L 36 37 L 36 35 L 38 35 Z M 14 28.585938 L 14 21 L 16 21 L 16 24.585938 L 14.292969 26.292969 L 15.707031 27.707031 L 18 25.414062 L 18 14 L 20 14 L 20 22 L 22 22 L 22 12 L 24 12 L 24 22 L 26 22 L 26 12 L 28 12 L 28 22 L 30 22 L 30 14 L 32 14 L 32 28.105469 C 30.984375 29.144531 30.296875 30.492188 30.078125 32 L 20 32 L 20 34 L 30.078125 34 C 30.179688 34.707031 30.386719 35.378906 30.683594 36 L 18 36 L 18 32.585938 Z M 37 26 C 35.925781 26 34.910156 26.25 34 26.683594 L 34 12 L 30 12 L 30 10 L 20 10 L 20 12 L 16 12 L 16 19 L 12 19 L 12 29.414062 L 16 33.414062 L 16 38 L 32.105469 38 C 33.367188 39.234375 35.09375 40 37 40 C 40.867188 40 44 36.867188 44 33 C 44 29.132812 40.867188 26 37 26 "/>
</g>
</svg>
