<?xml version="1.0" encoding="UTF-8"?>
<svg xmlns="http://www.w3.org/2000/svg" xmlns:xlink="http://www.w3.org/1999/xlink" width="48pt" height="48pt" viewBox="0 0 48 48" version="1.1">
<g id="surface1">
<path style=" stroke:none;fill-rule:nonzero;fill:rgb(0%,0%,0%);fill-opacity:1;" d="M 32 32 L 30 32 L 30 28 L 28 28 L 28 32 L 26 32 L 26 28 L 24 28 L 24 32 L 22 32 L 22 28 L 20 28 L 20 34 L 32 34 L 32 36 L 18 36 L 18 32.585938 L 14 28.585938 L 14 21 L 16 21 L 16 24.585938 L 14.292969 26.292969 L 15.707031 27.707031 L 18 25.414062 L 18 14 L 20 14 L 20 22 L 22 22 L 22 12 L 24 12 L 24 22 L 26 22 L 26 12 L 28 12 L 28 22 L 30 22 L 30 14 L 32 14 Z M 30 12 L 30 10 L 20 10 L 20 12 L 16 12 L 16 19 L 12 19 L 12 29.414062 L 16 33.414062 L 16 38 L 34 38 L 34 12 Z M 30 12 "/>
</g>
</svg>
