<?xml version="1.0" encoding="UTF-8"?>
<svg xmlns="http://www.w3.org/2000/svg" xmlns:xlink="http://www.w3.org/1999/xlink" width="48pt" height="48pt" viewBox="0 0 48 48" version="1.1">
<g id="surface1">
<path style=" stroke:none;fill-rule:nonzero;fill:rgb(0%,0%,0%);fill-opacity:1;" d="M 17 20 C 17 18.894531 17.894531 18 19 18 C 20.105469 18 21 18.894531 21 20 C 21 21.105469 20.105469 22 19 22 C 17.894531 22 17 21.105469 17 20 M 27 20 C 27 18.894531 27.894531 18 29 18 C 30.105469 18 31 18.894531 31 20 C 31 21.105469 30.105469 22 29 22 C 27.894531 22 27 21.105469 27 20 M 30 28.128906 C 30 28.609375 29.609375 29 29.128906 29 L 27 29 L 27 27 L 29.128906 27 C 29.609375 27 30 27.390625 30 27.871094 Z M 23 27 L 25 27 L 25 29 L 23 29 Z M 18.871094 29 C 18.390625 29 18 28.609375 18 28.128906 L 18 27.871094 C 18 27.390625 18.390625 27 18.871094 27 L 21 27 L 21 29 Z M 29.128906 25 L 18.871094 25 C 17.289062 25 16 26.289062 16 27.871094 L 16 28.128906 C 16 29.710938 17.289062 31 18.871094 31 L 29.128906 31 C 30.710938 31 32 29.710938 32 28.128906 L 32 27.871094 C 32 26.289062 30.710938 25 29.128906 25 M 38 28 L 36 28 L 36 19 L 38 19 Z M 34 33.636719 C 34 34.386719 33.371094 35 32.601562 35 L 15.398438 35 C 14.628906 35 14 34.386719 14 33.636719 L 14 14.363281 C 14 13.613281 14.628906 13 15.398438 13 L 32.601562 13 C 33.371094 13 34 13.613281 34 14.363281 Z M 10 19 L 12 19 L 12 28 L 10 28 Z M 40 17 L 36 17 L 36 14.363281 C 36 12.507812 34.476562 11 32.601562 11 L 25 11 L 25 9 L 23 9 L 23 11 L 15.398438 11 C 13.523438 11 12 12.507812 12 14.363281 L 12 17 L 8 17 L 8 30 L 12 30 L 12 33.636719 C 12 35.492188 13.523438 37 15.398438 37 L 32.601562 37 C 34.476562 37 36 35.492188 36 33.636719 L 36 30 L 40 30 Z M 40 17 "/>
</g>
</svg>
