<?xml version="1.0" encoding="UTF-8"?>
<svg xmlns="http://www.w3.org/2000/svg" xmlns:xlink="http://www.w3.org/1999/xlink" width="48pt" height="48pt" viewBox="0 0 48 48" version="1.1">
<g id="surface1">
<path style=" stroke:none;fill-rule:nonzero;fill:rgb(0%,0%,0%);fill-opacity:1;" d="M 33 16 C 33 15.449219 32.550781 15 32 15 L 16 15 C 15.449219 15 15 15.449219 15 16 L 15 32 C 15 32.550781 15.449219 33 16 33 L 32 33 C 32.550781 33 33 32.550781 33 32 Z M 35 18 L 35 23 L 38 23 L 38 25 L 35 25 L 35 30 L 38 30 L 38 32 L 35 32 C 35 33.652344 33.652344 35 32 35 L 32 38 L 30 38 L 30 35 L 25 35 L 25 38 L 23 38 L 23 35 L 18 35 L 18 38 L 16 38 L 16 35 C 14.347656 35 13 33.652344 13 32 L 10 32 L 10 30 L 13 30 L 13 25 L 10 25 L 10 23 L 13 23 L 13 18 L 10 18 L 10 16 L 13 16 C 13 14.347656 14.347656 13 16 13 L 16 10 L 18 10 L 18 13 L 23 13 L 23 10 L 25 10 L 25 13 L 30 13 L 30 10 L 32 10 L 32 13 C 33.652344 13 35 14.347656 35 16 L 38 16 L 38 18 Z M 17 28 L 31 28 L 31 30 L 17 30 Z M 17 28 "/>
</g>
</svg>
