<?xml version="1.0" encoding="UTF-8"?>
<svg xmlns="http://www.w3.org/2000/svg" xmlns:xlink="http://www.w3.org/1999/xlink" width="48pt" height="48pt" viewBox="0 0 48 48" version="1.1">
<g id="surface1">
<path style=" stroke:none;fill-rule:nonzero;fill:rgb(0%,0%,0%);fill-opacity:1;" d="M 31.28125 30 L 30.28125 26 L 35.21875 26 L 36.21875 30 Z M 28.78125 20 L 33.71875 20 L 34.71875 24 L 29.78125 24 Z M 27.28125 14 L 32.21875 14 L 33.21875 18 L 28.28125 18 Z M 19.71875 18 L 14.78125 18 L 15.78125 14 L 20.71875 14 Z M 18.21875 24 L 13.28125 24 L 14.28125 20 L 19.21875 20 Z M 16.71875 30 L 11.78125 30 L 12.78125 26 L 17.71875 26 Z M 34.28125 14 L 36 14 L 36 12 L 12 12 L 12 14 L 13.71875 14 L 8.21875 36 L 10.28125 36 L 11.28125 32 L 16.21875 32 L 15.21875 36 L 17.28125 36 L 22.78125 14 L 25.21875 14 L 30.71875 36 L 32.78125 36 L 31.78125 32 L 36.71875 32 L 37.71875 36 L 39.78125 36 Z M 34.28125 14 "/>
</g>
</svg>
