<?xml version="1.0" encoding="UTF-8"?>
<svg xmlns="http://www.w3.org/2000/svg" xmlns:xlink="http://www.w3.org/1999/xlink" width="48pt" height="48pt" viewBox="0 0 48 48" version="1.1">
<g id="surface1">
<path style=" stroke:none;fill-rule:nonzero;fill:rgb(0%,0%,0%);fill-opacity:1;" d="M 33.960938 16.609375 L 25 20.679688 L 24 21.140625 L 23 20.679688 L 14.039062 16.609375 L 14.039062 19.328125 L 24 23.859375 L 33.960938 19.328125 Z M 33.960938 21.609375 L 24 26.140625 L 14.039062 21.609375 L 14.039062 24.328125 L 24 28.859375 L 33.960938 24.328125 Z M 33.960938 26.609375 L 24 31.140625 L 14.039062 26.609375 L 14.039062 29.328125 L 24 33.859375 L 33.960938 29.328125 Z M 36.039062 13.390625 L 36.039062 30.667969 L 24 36.140625 L 11.960938 30.667969 L 11.960938 13.390625 L 14.039062 14.328125 L 23 18.410156 L 24 18.859375 L 25 18.410156 L 33.960938 14.328125 Z M 25.5 13.640625 L 25.851562 15.710938 L 24 14.730469 L 22.148438 15.710938 L 22.5 13.640625 L 21 12.179688 L 23.070312 11.878906 L 24 10 L 24.929688 11.878906 L 27 12.179688 Z M 25.5 13.640625 "/>
</g>
</svg>
