<?xml version="1.0" encoding="UTF-8"?>
<svg xmlns="http://www.w3.org/2000/svg" xmlns:xlink="http://www.w3.org/1999/xlink" width="48pt" height="48pt" viewBox="0 0 48 48" version="1.1">
<g id="surface1">
<path style=" stroke:none;fill-rule:nonzero;fill:rgb(0%,0%,0%);fill-opacity:1;" d="M 28.765625 27 L 30.765625 27 L 30.765625 21 L 28.765625 21 Z M 34.421875 23.550781 L 29.765625 14.234375 L 25.105469 23.554688 C 24.964844 23.832031 24.964844 24.167969 25.105469 24.449219 L 29.765625 33.765625 L 34.421875 24.445312 C 34.5625 24.167969 34.5625 23.832031 34.421875 23.550781 M 22.894531 23.550781 L 18.234375 14.234375 L 13.578125 23.554688 C 13.4375 23.832031 13.4375 24.167969 13.578125 24.449219 L 18.234375 33.765625 L 22.894531 24.445312 C 23.035156 24.167969 23.035156 23.832031 22.894531 23.550781 M 36.210938 25.339844 L 30.660156 36.445312 L 28.871094 36.445312 L 24 26.707031 L 19.128906 36.445312 L 17.339844 36.445312 L 11.789062 25.34375 C 11.367188 24.5 11.367188 23.5 11.789062 22.660156 L 17.339844 11.554688 L 19.128906 11.554688 L 24 21.292969 L 28.871094 11.554688 L 30.660156 11.554688 L 36.210938 22.65625 C 36.632812 23.5 36.632812 24.5 36.210938 25.339844 M 17.234375 21 L 19.234375 21 L 19.234375 27 L 17.234375 27 Z M 17.234375 21 "/>
</g>
</svg>
