<?xml version="1.0" encoding="UTF-8"?>
<svg xmlns="http://www.w3.org/2000/svg" xmlns:xlink="http://www.w3.org/1999/xlink" width="48pt" height="48pt" viewBox="0 0 48 48" version="1.1">
<g id="surface1">
<path style=" stroke:none;fill-rule:nonzero;fill:rgb(0%,0%,0%);fill-opacity:1;" d="M 14 27 L 16 27 L 16 21 L 14 21 Z M 8.558594 25.339844 L 14.109375 36.449219 L 15.890625 36.449219 L 18.898438 30.410156 L 17.789062 28.179688 L 15 33.761719 L 10.339844 24.441406 C 10.210938 24.171875 10.210938 23.828125 10.339844 23.558594 L 15 14.238281 L 17.789062 19.820312 L 18.910156 17.578125 L 15.890625 11.550781 L 14.109375 11.550781 L 8.558594 22.660156 C 8.140625 23.5 8.140625 24.5 8.558594 25.339844 M 34 21 L 32 21 L 32 27 L 34 27 Z M 39.441406 22.660156 L 33.890625 11.550781 L 32.109375 11.550781 L 29.089844 17.578125 L 30.210938 19.820312 L 33 14.238281 L 37.660156 23.558594 C 37.789062 23.828125 37.789062 24.171875 37.660156 24.441406 L 33 33.761719 L 30.210938 28.179688 L 29.101562 30.410156 L 32.109375 36.449219 L 33.890625 36.449219 L 39.441406 25.339844 C 39.859375 24.5 39.859375 23.5 39.441406 22.660156 M 28.65625 23.558594 C 28.796875 23.835938 28.796875 24.164062 28.65625 24.441406 L 24 33.761719 L 19.34375 24.441406 C 19.203125 24.164062 19.203125 23.835938 19.34375 23.558594 L 24 14.238281 Z M 30.441406 25.339844 C 30.863281 24.5 30.863281 23.5 30.445312 22.664062 L 24.894531 11.554688 L 23.105469 11.554688 L 17.558594 22.660156 C 17.136719 23.5 17.136719 24.5 17.554688 25.335938 L 23.105469 36.445312 L 24.894531 36.445312 Z M 25 27 L 23 27 L 23 21 L 25 21 Z M 25 27 "/>
</g>
</svg>
