<?xml version="1.0" encoding="UTF-8"?>
<svg xmlns="http://www.w3.org/2000/svg" xmlns:xlink="http://www.w3.org/1999/xlink" width="48pt" height="48pt" viewBox="0 0 48 48" version="1.1">
<g id="surface1">
<path style=" stroke:none;fill-rule:nonzero;fill:rgb(0%,0%,0%);fill-opacity:1;" d="M 25 21 L 23 21 L 23 27 L 25 27 Z M 19.816406 28.152344 C 21.035156 28.152344 22.148438 28.867188 22.648438 30.003906 L 24 33.066406 L 25.351562 30.003906 C 25.898438 28.761719 27.164062 28.023438 28.523438 28.171875 L 31.855469 28.535156 L 29.875 25.832031 C 29.070312 24.734375 29.070312 23.265625 29.875 22.167969 L 31.855469 19.464844 L 28.523438 19.828125 C 27.171875 19.972656 25.898438 19.238281 25.351562 17.996094 L 24 14.933594 L 22.648438 17.996094 C 22.101562 19.238281 20.835938 19.972656 19.476562 19.828125 L 16.144531 19.464844 L 18.125 22.167969 C 18.929688 23.265625 18.929688 24.734375 18.125 25.832031 L 16.144531 28.535156 L 19.476562 28.171875 C 19.59375 28.160156 19.703125 28.152344 19.816406 28.152344 M 24.914062 35.949219 L 23.085938 35.949219 L 20.816406 30.808594 C 20.625 30.367188 20.167969 30.105469 19.691406 30.160156 L 14.105469 30.769531 L 13.191406 29.183594 L 16.511719 24.648438 C 16.796875 24.261719 16.796875 23.738281 16.511719 23.351562 L 13.191406 18.816406 L 14.105469 17.230469 L 19.691406 17.839844 C 20.179688 17.894531 20.625 17.632812 20.816406 17.191406 L 23.085938 12.050781 L 24.914062 12.050781 L 27.183594 17.191406 C 27.375 17.632812 27.824219 17.890625 28.308594 17.839844 L 33.894531 17.230469 L 34.808594 18.816406 L 31.488281 23.351562 C 31.203125 23.738281 31.203125 24.261719 31.488281 24.648438 L 34.808594 29.183594 L 33.894531 30.769531 L 28.308594 30.160156 C 27.820312 30.105469 27.375 30.367188 27.183594 30.808594 Z M 24.914062 35.949219 "/>
</g>
</svg>
