<?xml version="1.0" encoding="UTF-8"?>
<svg xmlns="http://www.w3.org/2000/svg" xmlns:xlink="http://www.w3.org/1999/xlink" width="48pt" height="48pt" viewBox="0 0 48 48" version="1.1">
<g id="surface1">
<path style=" stroke:none;fill-rule:nonzero;fill:rgb(0%,0%,0%);fill-opacity:1;" d="M 19.648438 21 L 17.648438 21 L 17.648438 27 L 19.648438 27 Z M 29.457031 35.953125 L 31.726562 30.8125 C 31.921875 30.371094 32.378906 30.117188 32.847656 30.164062 L 38.4375 30.765625 L 39.351562 29.179688 L 36.03125 24.652344 C 35.746094 24.261719 35.746094 23.738281 36.027344 23.351562 L 39.351562 18.820312 L 38.4375 17.234375 L 32.84375 17.835938 C 32.371094 17.886719 31.921875 17.628906 31.726562 17.1875 L 29.457031 12.046875 L 27.628906 12.046875 L 25.597656 16.640625 L 27.890625 16.402344 L 28.542969 14.925781 L 29.898438 17.992188 C 30.445312 19.234375 31.71875 19.972656 33.058594 19.824219 L 36.398438 19.464844 L 34.414062 22.171875 C 33.617188 23.265625 33.617188 24.734375 34.414062 25.832031 L 36.398438 28.535156 L 33.0625 28.175781 C 31.71875 28.023438 30.445312 28.765625 29.898438 30.007812 L 28.542969 33.074219 L 27.890625 31.597656 L 25.597656 31.359375 L 27.628906 35.953125 Z M 14.441406 28.152344 C 14.5625 28.152344 14.683594 28.164062 14.804688 28.183594 C 15.859375 28.261719 16.84375 28.96875 17.296875 30.011719 L 18.648438 33.074219 L 20.007812 30.007812 C 20.460938 28.96875 21.441406 28.261719 22.570312 28.171875 C 22.726562 28.144531 22.964844 28.144531 23.203125 28.179688 L 26.507812 28.535156 L 24.523438 25.828125 C 23.726562 24.734375 23.726562 23.265625 24.523438 22.171875 L 26.507812 19.464844 L 23.167969 19.824219 C 22.960938 19.855469 22.726562 19.851562 22.496094 19.816406 C 21.441406 19.738281 20.460938 19.03125 20.003906 17.988281 L 18.648438 14.925781 L 17.296875 17.992188 C 16.84375 19.03125 15.859375 19.738281 14.730469 19.828125 C 14.574219 19.851562 14.339844 19.855469 14.101562 19.820312 L 10.796875 19.464844 L 12.777344 22.167969 C 13.578125 23.265625 13.578125 24.734375 12.777344 25.828125 L 10.796875 28.535156 L 14.132812 28.175781 C 14.230469 28.160156 14.335938 28.152344 14.441406 28.152344 M 19.566406 35.953125 L 17.734375 35.953125 L 15.46875 30.8125 C 15.304688 30.445312 14.964844 30.199219 14.570312 30.167969 C 14.46875 30.152344 14.425781 30.152344 14.382812 30.160156 L 8.757812 30.765625 L 7.84375 29.179688 L 11.164062 24.648438 C 11.445312 24.261719 11.445312 23.738281 11.160156 23.347656 L 7.84375 18.820312 L 8.757812 17.234375 L 14.347656 17.835938 C 14.425781 17.847656 14.464844 17.847656 14.496094 17.84375 C 14.964844 17.800781 15.304688 17.554688 15.464844 17.1875 L 17.734375 12.046875 L 19.566406 12.046875 L 21.835938 17.1875 C 21.996094 17.554688 22.339844 17.800781 22.730469 17.832031 C 22.835938 17.847656 22.878906 17.847656 22.921875 17.839844 L 28.542969 17.234375 L 29.457031 18.820312 L 26.136719 23.351562 C 25.855469 23.738281 25.855469 24.261719 26.140625 24.652344 L 29.457031 29.179688 L 28.542969 30.765625 L 22.953125 30.164062 C 22.878906 30.152344 22.835938 30.152344 22.804688 30.15625 C 22.339844 30.199219 21.996094 30.445312 21.839844 30.8125 Z M 19.566406 35.953125 "/>
</g>
</svg>
