<?xml version="1.0" encoding="UTF-8"?>
<svg xmlns="http://www.w3.org/2000/svg" xmlns:xlink="http://www.w3.org/1999/xlink" width="48pt" height="48pt" viewBox="0 0 48 48" version="1.1">
<g id="surface1">
<path style=" stroke:none;fill-rule:nonzero;fill:rgb(0%,0%,0%);fill-opacity:1;" d="M 25 21 L 23 21 L 23 27 L 25 27 Z M 15.023438 35.953125 L 17.054688 31.359375 L 14.761719 31.597656 L 14.109375 33.074219 L 12.753906 30.007812 C 12.203125 28.765625 10.933594 28.023438 9.589844 28.175781 L 6.253906 28.535156 L 8.234375 25.832031 C 9.035156 24.734375 9.035156 23.265625 8.234375 22.171875 L 6.253906 19.464844 L 9.589844 19.824219 C 10.933594 19.972656 12.207031 19.234375 12.753906 17.992188 L 14.109375 14.925781 L 14.761719 16.402344 L 17.054688 16.640625 L 15.023438 12.046875 L 13.191406 12.046875 L 10.925781 17.1875 C 10.730469 17.628906 10.28125 17.886719 9.808594 17.835938 L 4.214844 17.234375 L 3.300781 18.820312 L 6.621094 23.351562 C 6.902344 23.738281 6.902344 24.261719 6.621094 24.652344 L 3.300781 29.179688 L 4.214844 30.765625 L 9.804688 30.164062 C 10.269531 30.117188 10.730469 30.371094 10.921875 30.8125 L 13.191406 35.953125 Z M 34.808594 35.953125 L 37.078125 30.8125 C 37.269531 30.371094 37.730469 30.117188 38.195312 30.164062 L 43.785156 30.765625 L 44.699219 29.179688 L 41.378906 24.652344 C 41.097656 24.261719 41.097656 23.738281 41.378906 23.351562 L 44.699219 18.820312 L 43.785156 17.234375 L 38.191406 17.835938 C 37.71875 17.886719 37.269531 17.628906 37.074219 17.1875 L 34.808594 12.046875 L 32.976562 12.046875 L 30.945312 16.640625 L 33.238281 16.402344 L 33.890625 14.925781 L 35.246094 17.992188 C 35.792969 19.234375 37.066406 19.972656 38.410156 19.824219 L 41.746094 19.464844 L 39.765625 22.171875 C 38.964844 23.265625 38.964844 24.734375 39.765625 25.832031 L 41.746094 28.535156 L 38.410156 28.175781 C 37.066406 28.023438 35.796875 28.765625 35.246094 30.007812 L 33.890625 33.074219 L 33.238281 31.597656 L 30.945312 31.359375 L 32.976562 35.953125 Z M 19.789062 28.152344 C 19.910156 28.152344 20.03125 28.164062 20.152344 28.183594 C 21.207031 28.261719 22.191406 28.96875 22.644531 30.011719 L 24 33.074219 L 25.355469 30.007812 C 25.808594 28.96875 26.792969 28.261719 27.921875 28.171875 C 28.074219 28.144531 28.3125 28.144531 28.550781 28.179688 L 31.855469 28.535156 L 29.871094 25.828125 C 29.074219 24.734375 29.074219 23.265625 29.871094 22.171875 L 31.855469 19.464844 L 28.519531 19.824219 C 28.3125 19.855469 28.074219 19.851562 27.847656 19.816406 C 26.792969 19.738281 25.808594 19.03125 25.355469 17.988281 L 24 14.925781 L 22.644531 17.992188 C 22.191406 19.03125 21.207031 19.738281 20.078125 19.828125 C 19.925781 19.851562 19.6875 19.855469 19.449219 19.820312 L 16.144531 19.464844 L 18.128906 22.167969 C 18.925781 23.265625 18.925781 24.734375 18.128906 25.828125 L 16.144531 28.535156 L 19.480469 28.175781 C 19.578125 28.160156 19.683594 28.152344 19.789062 28.152344 M 24.914062 35.953125 L 23.085938 35.953125 L 20.816406 30.8125 C 20.652344 30.445312 20.3125 30.199219 19.921875 30.167969 C 19.816406 30.152344 19.773438 30.152344 19.730469 30.160156 L 14.105469 30.765625 L 13.191406 29.179688 L 16.515625 24.648438 C 16.796875 24.261719 16.796875 23.738281 16.511719 23.347656 L 13.191406 18.820312 L 14.105469 17.234375 L 19.695312 17.835938 C 19.773438 17.847656 19.816406 17.847656 19.847656 17.84375 C 20.3125 17.800781 20.652344 17.554688 20.8125 17.1875 L 23.085938 12.046875 L 24.914062 12.046875 L 27.183594 17.1875 C 27.347656 17.554688 27.6875 17.800781 28.078125 17.832031 C 28.183594 17.847656 28.226562 17.847656 28.269531 17.839844 L 33.894531 17.234375 L 34.808594 18.820312 L 31.484375 23.351562 C 31.203125 23.738281 31.203125 24.261719 31.488281 24.652344 L 34.808594 29.179688 L 33.894531 30.765625 L 28.304688 30.164062 C 28.226562 30.152344 28.1875 30.152344 28.152344 30.15625 C 27.6875 30.199219 27.347656 30.445312 27.1875 30.8125 Z M 24.914062 35.953125 "/>
</g>
</svg>
