<?xml version="1.0" encoding="UTF-8"?>
<svg xmlns="http://www.w3.org/2000/svg" xmlns:xlink="http://www.w3.org/1999/xlink" width="48pt" height="48pt" viewBox="0 0 48 48" version="1.1">
<g id="surface1">
<path style=" stroke:none;fill-rule:nonzero;fill:rgb(0%,0%,0%);fill-opacity:1;" d="M 24 29.082031 C 24.609375 29.082031 25.21875 29.269531 25.738281 29.648438 L 29.457031 32.363281 L 28.023438 27.988281 C 27.621094 26.765625 28.054688 25.4375 29.097656 24.683594 L 32.828125 21.988281 L 28.222656 21.996094 L 28.21875 21.996094 C 26.933594 21.996094 25.808594 21.175781 25.414062 19.957031 L 24 15.574219 L 22.585938 19.957031 C 22.191406 21.175781 21.066406 21.996094 19.78125 21.996094 L 19.777344 21.996094 L 15.171875 21.988281 L 18.902344 24.683594 C 19.945312 25.4375 20.378906 26.765625 19.976562 27.988281 L 18.542969 32.363281 L 22.265625 29.648438 C 22.78125 29.269531 23.390625 29.082031 24 29.082031 M 30.78125 35.808594 L 24.558594 31.265625 C 24.226562 31.023438 23.773438 31.023438 23.441406 31.265625 L 17.21875 35.808594 L 15.679688 34.6875 L 18.074219 27.367188 C 18.203125 26.972656 18.066406 26.546875 17.730469 26.304688 L 11.488281 21.789062 L 12.074219 19.980469 L 19.78125 19.996094 C 20.195312 19.996094 20.558594 19.734375 20.683594 19.339844 L 23.050781 12.007812 L 24.949219 12.007812 L 27.316406 19.339844 C 27.441406 19.734375 27.804688 19.996094 28.21875 19.996094 L 35.925781 19.980469 L 36.511719 21.789062 L 30.269531 26.304688 C 29.933594 26.546875 29.796875 26.972656 29.925781 27.367188 L 32.320312 34.6875 Z M 30.78125 35.808594 "/>
</g>
</svg>
