<?xml version="1.0" encoding="UTF-8"?>
<svg xmlns="http://www.w3.org/2000/svg" xmlns:xlink="http://www.w3.org/1999/xlink" width="48pt" height="48pt" viewBox="0 0 48 48" version="1.1">
<g id="surface1">
<path style=" stroke:none;fill-rule:nonzero;fill:rgb(0%,0%,0%);fill-opacity:1;" d="M 16.339844 29.652344 L 12.617188 32.367188 L 14.050781 27.988281 C 14.449219 26.753906 14.015625 25.425781 12.976562 24.691406 L 9.246094 21.988281 L 13.851562 22 C 15.136719 22 16.265625 21.179688 16.660156 19.957031 L 18.070312 15.570312 L 19.488281 19.957031 C 19.867188 21.128906 20.945312 21.945312 22.160156 21.988281 L 25.710938 22 L 25.800781 21.984375 L 25.800781 21.988281 L 26.90625 21.988281 L 23.421875 24.515625 L 23.179688 24.683594 C 22.125 25.433594 21.691406 26.765625 22.101562 27.992188 L 23.53125 32.367188 L 19.8125 29.652344 C 19.292969 29.273438 18.683594 29.082031 18.074219 29.082031 C 17.464844 29.082031 16.859375 29.273438 16.339844 29.652344 M 17.523438 31.265625 C 17.847656 31.027344 18.300781 31.027344 18.628906 31.269531 L 24.851562 35.808594 L 26.390625 34.691406 L 24 27.363281 C 23.867188 26.972656 24.003906 26.550781 24.335938 26.316406 L 30.585938 21.789062 L 29.996094 19.980469 L 22.289062 20 L 22.238281 19.992188 C 21.859375 19.976562 21.511719 19.710938 21.390625 19.34375 L 19.023438 12.003906 L 17.117188 12.003906 L 14.757812 19.339844 C 14.628906 19.734375 14.265625 20 13.851562 20 L 6.152344 19.980469 L 5.5625 21.789062 L 11.8125 26.316406 C 12.140625 26.550781 12.277344 26.976562 12.148438 27.367188 L 9.75 34.6875 L 11.289062 35.808594 Z M 36.851562 27.371094 L 39.25 34.691406 L 37.710938 35.808594 L 31.480469 31.269531 C 31.152344 31.03125 30.699219 31.03125 30.371094 31.269531 L 27.105469 33.644531 L 26.453125 31.65625 L 29.191406 29.648438 C 30.230469 28.890625 31.621094 28.890625 32.660156 29.648438 L 36.378906 32.371094 L 34.949219 27.988281 C 34.550781 26.75 34.988281 25.429688 36.03125 24.679688 L 39.75 21.988281 L 35.152344 22 C 33.871094 22 32.738281 21.179688 32.339844 19.960938 L 30.929688 15.570312 L 29.828125 19 L 27.726562 19 L 29.980469 12 L 31.878906 12 L 34.238281 19.339844 C 34.371094 19.738281 34.730469 20 35.152344 20 L 42.851562 19.980469 L 43.441406 21.789062 L 37.199219 26.308594 C 36.859375 26.550781 36.71875 26.980469 36.851562 27.371094 "/>
</g>
</svg>
