<?xml version="1.0" encoding="UTF-8"?>
<svg xmlns="http://www.w3.org/2000/svg" xmlns:xlink="http://www.w3.org/1999/xlink" width="48pt" height="48pt" viewBox="0 0 48 48" version="1.1">
<g id="surface1">
<path style=" stroke:none;fill-rule:nonzero;fill:rgb(0%,0%,0%);fill-opacity:1;" d="M 24 29.082031 C 24.609375 29.082031 25.21875 29.273438 25.738281 29.652344 L 29.457031 32.367188 L 28.023438 27.992188 C 27.617188 26.765625 28.050781 25.433594 29.105469 24.683594 L 29.347656 24.515625 L 32.832031 21.988281 L 31.726562 21.988281 L 31.726562 21.984375 L 31.636719 22 L 28.085938 21.988281 C 26.867188 21.941406 25.792969 21.128906 25.414062 19.957031 L 23.996094 15.570312 L 22.585938 19.957031 C 22.1875 21.179688 21.058594 22 19.773438 22 L 15.171875 21.988281 L 18.902344 24.691406 C 19.9375 25.425781 20.371094 26.753906 19.976562 27.988281 L 18.539062 32.367188 L 22.265625 29.652344 C 22.78125 29.269531 23.390625 29.082031 24 29.082031 M 17.214844 35.808594 L 15.675781 34.6875 L 18.074219 27.367188 C 18.199219 26.976562 18.066406 26.550781 17.734375 26.316406 L 11.488281 21.789062 L 12.078125 19.980469 L 19.777344 20 C 20.191406 20 20.554688 19.734375 20.683594 19.339844 L 23.042969 12.003906 L 24.945312 12.003906 L 27.316406 19.34375 C 27.4375 19.710938 27.785156 19.976562 28.164062 19.992188 L 28.214844 20 L 35.921875 19.980469 L 36.511719 21.789062 L 30.261719 26.316406 C 29.929688 26.550781 29.792969 26.972656 29.925781 27.363281 L 32.316406 34.691406 L 30.777344 35.808594 L 24.554688 31.269531 C 24.226562 31.027344 23.773438 31.027344 23.445312 31.265625 Z M 17.214844 35.808594 "/>
<path style=" stroke:none;fill-rule:nonzero;fill:rgb(0%,0%,0%);fill-opacity:1;" d="M 29.347656 24.515625 L 29.105469 24.683594 C 28.050781 25.433594 27.617188 26.765625 28.023438 27.992188 L 29.457031 32.367188 L 25.738281 29.65625 C 25.21875 29.273438 24.609375 29.082031 24 29.082031 C 23.390625 29.082031 22.785156 29.273438 22.265625 29.652344 L 18.539062 32.367188 L 19.976562 27.988281 C 20.371094 26.753906 19.9375 25.425781 18.902344 24.691406 L 15.171875 21.988281 L 19.773438 22 C 21.058594 22 22.191406 21.179688 22.585938 19.957031 L 23.996094 15.570312 L 25.414062 19.957031 C 25.792969 21.128906 26.867188 21.945312 28.085938 21.988281 L 31.632812 22 L 31.726562 21.988281 L 31.726562 21.992188 L 32.832031 21.988281 Z M 39.121094 26.308594 L 45.359375 21.789062 L 44.769531 19.980469 L 37.160156 20 L 37.070312 20 C 37.011719 20 36.949219 19.992188 36.890625 19.980469 C 36.589844 19.929688 36.328125 19.730469 36.210938 19.449219 C 36.191406 19.417969 36.167969 19.378906 36.160156 19.339844 L 36.128906 19.25 L 33.800781 12 L 31.898438 12 L 29.648438 19 L 31.75 19 L 32.851562 15.570312 L 34.03125 19.257812 L 34.089844 19.460938 L 34.261719 19.960938 C 34.261719 19.96875 34.269531 19.976562 34.273438 19.984375 L 28.214844 20 L 28.164062 19.992188 C 27.785156 19.976562 27.4375 19.710938 27.316406 19.34375 L 24.945312 12.003906 L 23.042969 12.003906 L 20.683594 19.339844 C 20.554688 19.734375 20.191406 20 19.777344 20 L 13.730469 19.984375 C 13.730469 19.976562 13.738281 19.96875 13.742188 19.960938 L 13.910156 19.460938 L 13.96875 19.257812 L 15.148438 15.570312 L 16.25 19 L 18.351562 19 L 16.101562 12 L 14.199219 12 L 11.871094 19.25 L 11.839844 19.339844 C 11.828125 19.378906 11.808594 19.417969 11.789062 19.449219 C 11.667969 19.730469 11.410156 19.929688 11.109375 19.980469 C 11.050781 19.992188 10.992188 20 10.929688 20 L 10.839844 20 L 3.230469 19.980469 L 2.640625 21.789062 L 8.878906 26.308594 C 9.21875 26.550781 9.359375 26.980469 9.230469 27.371094 L 6.828125 34.691406 L 8.371094 35.808594 L 14.601562 31.269531 C 14.890625 31.058594 15.28125 31.03125 15.589844 31.191406 L 16.210938 29.28125 C 15.289062 28.917969 14.25 29.039062 13.417969 29.648438 L 9.699219 32.371094 L 11.128906 27.992188 C 11.53125 26.75 11.089844 25.429688 10.050781 24.679688 L 6.328125 21.992188 L 10.929688 22 C 11.089844 22 11.25 21.992188 11.398438 21.960938 C 11.484375 21.949219 11.5625 21.921875 11.640625 21.902344 L 17.734375 26.316406 C 18.066406 26.550781 18.203125 26.976562 18.074219 27.367188 L 15.675781 34.6875 L 17.214844 35.808594 L 23.445312 31.265625 C 23.773438 31.027344 24.226562 31.027344 24.554688 31.269531 L 30.777344 35.808594 L 32.316406 34.691406 L 29.921875 27.363281 C 29.792969 26.972656 29.929688 26.550781 30.261719 26.316406 L 36.359375 21.902344 C 36.4375 21.921875 36.515625 21.949219 36.601562 21.960938 C 36.75 21.992188 36.910156 22 37.070312 22 L 41.667969 21.992188 L 37.949219 24.679688 C 36.910156 25.429688 36.46875 26.75 36.871094 27.992188 L 38.300781 32.371094 L 34.578125 29.648438 C 33.75 29.039062 32.710938 28.917969 31.789062 29.28125 L 32.410156 31.191406 C 32.71875 31.03125 33.109375 31.058594 33.398438 31.269531 L 39.628906 35.808594 L 41.167969 34.691406 L 38.769531 27.371094 C 38.640625 26.980469 38.78125 26.550781 39.121094 26.308594 "/>
</g>
</svg>
