<?xml version="1.0" encoding="UTF-8"?>
<svg xmlns="http://www.w3.org/2000/svg" xmlns:xlink="http://www.w3.org/1999/xlink" width="48pt" height="48pt" viewBox="0 0 48 48" version="1.1">
<g id="surface1">
<path style=" stroke:none;fill-rule:nonzero;fill:rgb(0%,0%,0%);fill-opacity:1;" d="M 32.03125 21.3125 C 31.671875 21.050781 31.253906 20.921875 30.835938 20.921875 C 30.417969 20.921875 29.996094 21.050781 29.636719 21.3125 L 27.429688 22.925781 L 28.28125 20.324219 C 28.554688 19.484375 28.257812 18.570312 27.542969 18.050781 L 25.324219 16.449219 L 28.058594 16.453125 L 28.0625 16.453125 C 28.949219 16.453125 29.722656 15.890625 29.996094 15.046875 L 30.835938 12.441406 L 31.675781 15.046875 C 31.945312 15.890625 32.722656 16.453125 33.605469 16.453125 L 33.609375 16.453125 L 36.34375 16.449219 L 34.128906 18.050781 C 33.410156 18.570312 33.113281 19.484375 33.390625 20.324219 L 34.242188 22.925781 Z M 20.460938 18.050781 C 19.742188 18.570312 19.445312 19.484375 19.71875 20.324219 L 20.570312 22.925781 L 18.359375 21.3125 C 17.644531 20.792969 16.683594 20.792969 15.96875 21.3125 L 13.757812 22.925781 L 14.609375 20.324219 C 14.886719 19.484375 14.589844 18.570312 13.871094 18.050781 L 11.65625 16.449219 L 14.390625 16.453125 L 14.394531 16.453125 C 15.277344 16.453125 16.054688 15.890625 16.324219 15.046875 L 17.164062 12.441406 L 18.003906 15.046875 C 18.277344 15.890625 19.050781 16.453125 19.9375 16.453125 L 19.941406 16.453125 L 22.675781 16.449219 Z M 35.007812 19.265625 L 39.109375 16.300781 L 38.667969 14.941406 L 33.605469 14.953125 C 33.375 14.953125 33.171875 14.804688 33.101562 14.585938 L 31.550781 9.769531 L 30.121094 9.769531 L 28.566406 14.585938 C 28.496094 14.804688 28.292969 14.953125 28.0625 14.953125 L 25 14.945312 L 25 14.941406 L 24 14.945312 L 23.003906 14.941406 L 23 14.945312 L 19.9375 14.953125 C 19.707031 14.953125 19.503906 14.804688 19.433594 14.585938 L 17.878906 9.769531 L 16.453125 9.769531 L 14.898438 14.585938 C 14.828125 14.804688 14.625 14.953125 14.394531 14.953125 L 9.332031 14.941406 L 8.890625 16.300781 L 12.992188 19.265625 C 13.179688 19.402344 13.257812 19.640625 13.183594 19.859375 L 11.609375 24.667969 L 12.765625 25.507812 L 16.851562 22.523438 C 17.039062 22.390625 17.292969 22.390625 17.476562 22.523438 L 21.5625 25.507812 L 22.71875 24.667969 L 21.144531 19.859375 C 21.074219 19.640625 21.152344 19.402344 21.339844 19.265625 L 24 17.339844 L 26.664062 19.265625 C 26.847656 19.402344 26.925781 19.640625 26.855469 19.859375 L 25.28125 24.667969 L 26.433594 25.507812 L 30.523438 22.523438 C 30.710938 22.386719 30.960938 22.390625 31.144531 22.523438 L 35.234375 25.507812 L 36.390625 24.667969 L 34.816406 19.859375 C 34.742188 19.640625 34.820312 19.402344 35.007812 19.265625 "/>
<path style=" stroke:none;fill-rule:nonzero;fill:rgb(0%,0%,0%);fill-opacity:1;" d="M 32.03125 33.804688 C 31.671875 33.542969 31.253906 33.414062 30.835938 33.414062 C 30.417969 33.414062 29.996094 33.542969 29.636719 33.804688 L 27.429688 35.417969 L 28.28125 32.816406 C 28.554688 31.976562 28.257812 31.0625 27.542969 30.542969 L 25.324219 28.9375 L 28.058594 28.945312 L 28.0625 28.945312 C 28.949219 28.945312 29.722656 28.378906 29.996094 27.539062 L 30.835938 24.933594 L 31.675781 27.539062 C 31.945312 28.378906 32.722656 28.945312 33.605469 28.945312 L 33.609375 28.945312 L 36.34375 28.9375 L 34.128906 30.542969 C 33.410156 31.0625 33.113281 31.976562 33.390625 32.816406 L 34.242188 35.417969 Z M 20.460938 30.542969 C 19.742188 31.0625 19.445312 31.976562 19.71875 32.816406 L 20.570312 35.417969 L 18.359375 33.804688 C 17.644531 33.28125 16.683594 33.28125 15.96875 33.804688 L 13.757812 35.417969 L 14.609375 32.816406 C 14.886719 31.976562 14.589844 31.0625 13.871094 30.542969 L 11.65625 28.9375 L 14.390625 28.945312 L 14.394531 28.945312 C 15.277344 28.945312 16.054688 28.378906 16.324219 27.539062 L 17.164062 24.933594 L 18.003906 27.539062 C 18.277344 28.378906 19.050781 28.945312 19.9375 28.945312 L 19.941406 28.945312 L 22.675781 28.9375 Z M 35.007812 31.757812 L 39.109375 28.792969 L 38.667969 27.433594 L 33.605469 27.445312 C 33.375 27.445312 33.171875 27.296875 33.101562 27.078125 L 31.550781 22.261719 L 30.121094 22.261719 L 28.566406 27.078125 C 28.496094 27.296875 28.292969 27.445312 28.0625 27.445312 L 25 27.4375 L 25 27.433594 L 23.003906 27.433594 L 23 27.4375 L 19.9375 27.445312 C 19.707031 27.445312 19.503906 27.296875 19.433594 27.078125 L 17.878906 22.261719 L 16.453125 22.261719 L 14.898438 27.078125 C 14.828125 27.296875 14.625 27.445312 14.394531 27.445312 L 9.332031 27.433594 L 8.890625 28.792969 L 12.992188 31.757812 C 13.179688 31.890625 13.257812 32.132812 13.183594 32.351562 L 11.609375 37.160156 L 12.765625 38 L 16.851562 35.015625 C 17.039062 34.878906 17.292969 34.878906 17.476562 35.015625 L 21.5625 38 L 22.71875 37.160156 L 21.144531 32.351562 C 21.074219 32.132812 21.152344 31.890625 21.339844 31.757812 L 24 29.832031 L 26.664062 31.757812 C 26.847656 31.890625 26.925781 32.132812 26.855469 32.351562 L 25.28125 37.160156 L 26.433594 38 L 30.523438 35.015625 C 30.710938 34.878906 30.960938 34.878906 31.144531 35.015625 L 35.234375 38 L 36.390625 37.160156 L 34.816406 32.351562 C 34.742188 32.132812 34.820312 31.890625 35.007812 31.757812 "/>
</g>
</svg>
