<?xml version="1.0" encoding="UTF-8"?>
<svg xmlns="http://www.w3.org/2000/svg" xmlns:xlink="http://www.w3.org/1999/xlink" width="48pt" height="48pt" viewBox="0 0 48 48" version="1.1">
<g id="surface1">
<path style=" stroke:none;fill-rule:nonzero;fill:rgb(0%,0%,0%);fill-opacity:1;" d="M 33.539062 24.058594 C 33.257812 23.851562 32.925781 23.75 32.59375 23.75 C 32.265625 23.75 31.933594 23.851562 31.648438 24.058594 L 30.085938 25.203125 L 30.6875 23.359375 C 30.902344 22.695312 30.667969 21.972656 30.101562 21.5625 L 28.53125 20.425781 L 30.472656 20.429688 C 31.171875 20.429688 31.785156 19.984375 32 19.320312 L 32.59375 17.472656 L 33.191406 19.320312 C 33.402344 19.984375 34.019531 20.429688 34.71875 20.429688 L 36.65625 20.425781 L 35.089844 21.5625 C 34.519531 21.972656 34.285156 22.695312 34.503906 23.363281 L 35.105469 25.203125 Z M 31.414062 30.582031 L 31.417969 30.582031 L 33.355469 30.574219 L 31.785156 31.710938 C 31.21875 32.125 30.984375 32.84375 31.203125 33.511719 L 31.804688 35.351562 L 30.238281 34.210938 C 29.675781 33.796875 28.914062 33.796875 28.347656 34.210938 L 26.78125 35.351562 L 27.386719 33.511719 C 27.601562 32.84375 27.367188 32.125 26.800781 31.710938 L 25.230469 30.574219 L 27.167969 30.582031 L 27.171875 30.582031 C 27.871094 30.582031 28.484375 30.132812 28.699219 29.46875 L 29.292969 27.625 L 29.890625 29.46875 C 30.101562 30.132812 30.71875 30.582031 31.414062 30.582031 M 21.199219 31.710938 C 20.632812 32.125 20.394531 32.84375 20.613281 33.511719 L 21.21875 35.351562 L 19.652344 34.210938 C 19.367188 34.003906 19.035156 33.902344 18.707031 33.902344 C 18.375 33.902344 18.042969 34.003906 17.761719 34.210938 L 16.195312 35.351562 L 16.796875 33.511719 C 17.015625 32.84375 16.78125 32.125 16.214844 31.710938 L 14.644531 30.574219 L 16.582031 30.582031 L 16.585938 30.582031 C 17.28125 30.582031 17.894531 30.132812 18.109375 29.46875 L 18.707031 27.625 L 19.300781 29.46875 C 19.515625 30.132812 20.128906 30.582031 20.828125 30.582031 L 20.832031 30.582031 L 22.769531 30.574219 Z M 14.460938 24.058594 L 12.894531 25.203125 L 13.496094 23.363281 C 13.714844 22.695312 13.480469 21.972656 12.910156 21.5625 L 11.34375 20.425781 L 13.28125 20.429688 C 13.980469 20.429688 14.597656 19.984375 14.808594 19.320312 L 15.40625 17.472656 L 16 19.320312 C 16.214844 19.984375 16.828125 20.429688 17.527344 20.429688 L 19.46875 20.425781 L 17.898438 21.5625 C 17.332031 21.972656 17.097656 22.695312 17.3125 23.363281 L 17.914062 25.203125 L 16.351562 24.058594 C 15.785156 23.648438 15.023438 23.648438 14.460938 24.058594 M 19.9375 14.175781 L 21.875 14.179688 L 21.878906 14.179688 C 22.578125 14.179688 23.191406 13.734375 23.40625 13.070312 L 24 11.226562 L 24.59375 13.070312 C 24.808594 13.734375 25.421875 14.179688 26.121094 14.179688 L 26.125 14.179688 L 28.0625 14.175781 L 26.492188 15.3125 C 25.925781 15.722656 25.691406 16.445312 25.90625 17.113281 L 26.511719 18.953125 L 24.945312 17.8125 C 24.382812 17.398438 23.617188 17.398438 23.054688 17.8125 L 21.488281 18.953125 L 22.09375 17.113281 C 22.308594 16.445312 22.074219 15.722656 21.507812 15.3125 Z M 29.5 22.972656 L 27.507812 29.085938 C 27.460938 29.230469 27.324219 29.332031 27.171875 29.332031 L 20.828125 29.332031 C 20.675781 29.332031 20.539062 29.230469 20.492188 29.085938 L 18.503906 22.972656 C 18.453125 22.824219 18.503906 22.664062 18.628906 22.574219 L 23.789062 18.820312 C 23.914062 18.730469 24.085938 18.730469 24.210938 18.820312 L 29.371094 22.574219 C 29.496094 22.664062 29.546875 22.824219 29.5 22.972656 M 35.820312 22.574219 L 38.960938 20.304688 L 38.59375 19.171875 L 34.71875 19.179688 C 34.5625 19.179688 34.425781 19.082031 34.378906 18.933594 L 33.1875 15.246094 L 32 15.246094 L 30.8125 18.933594 C 30.761719 19.082031 30.628906 19.179688 30.472656 19.179688 L 27.898438 19.175781 L 27.097656 16.722656 C 27.046875 16.578125 27.101562 16.417969 27.226562 16.328125 L 30.367188 14.054688 L 30 12.921875 L 26.121094 12.929688 C 25.96875 12.929688 25.832031 12.832031 25.785156 12.6875 L 24.59375 8.996094 L 23.40625 8.996094 L 22.214844 12.683594 C 22.167969 12.832031 22.03125 12.929688 21.878906 12.929688 L 18 12.921875 L 17.632812 14.054688 L 20.773438 16.328125 C 20.898438 16.417969 20.953125 16.578125 20.902344 16.722656 L 20.101562 19.175781 L 17.527344 19.179688 C 17.371094 19.179688 17.238281 19.082031 17.1875 18.933594 L 16 15.246094 L 14.8125 15.246094 L 13.621094 18.9375 C 13.574219 19.082031 13.4375 19.179688 13.28125 19.179688 L 9.40625 19.171875 L 9.039062 20.304688 L 12.179688 22.574219 C 12.304688 22.664062 12.355469 22.824219 12.308594 22.972656 L 11.101562 26.65625 L 12.066406 27.355469 L 15.195312 25.070312 C 15.320312 24.980469 15.488281 24.980469 15.613281 25.070312 L 17.722656 26.609375 L 16.921875 29.085938 C 16.875 29.230469 16.738281 29.332031 16.585938 29.332031 L 12.707031 29.320312 L 12.339844 30.453125 L 15.480469 32.722656 C 15.605469 32.816406 15.65625 32.972656 15.609375 33.121094 L 14.402344 36.804688 L 15.367188 37.503906 L 18.496094 35.21875 C 18.621094 35.128906 18.789062 35.128906 18.914062 35.21875 L 22.046875 37.503906 L 23.007812 36.804688 L 21.804688 33.121094 C 21.753906 32.972656 21.808594 32.816406 21.933594 32.722656 L 24 31.226562 L 26.066406 32.722656 C 26.191406 32.816406 26.246094 32.972656 26.195312 33.121094 L 24.992188 36.804688 L 25.953125 37.503906 L 29.085938 35.21875 C 29.210938 35.128906 29.378906 35.128906 29.503906 35.21875 L 32.632812 37.503906 L 33.597656 36.804688 L 32.390625 33.121094 C 32.34375 32.972656 32.394531 32.816406 32.519531 32.722656 L 35.660156 30.453125 L 35.292969 29.320312 L 31.414062 29.332031 C 31.261719 29.332031 31.125 29.230469 31.078125 29.085938 L 30.28125 26.609375 L 32.386719 25.070312 C 32.511719 24.980469 32.679688 24.980469 32.804688 25.070312 L 35.933594 27.355469 L 36.894531 26.65625 L 35.691406 22.972656 C 35.644531 22.824219 35.695312 22.664062 35.820312 22.574219 "/>
</g>
</svg>
