<?xml version="1.0" encoding="UTF-8"?>
<svg xmlns="http://www.w3.org/2000/svg" xmlns:xlink="http://www.w3.org/1999/xlink" width="48pt" height="48pt" viewBox="0 0 48 48" version="1.1">
<g id="surface1">
<path style=" stroke:none;fill-rule:nonzero;fill:rgb(0%,0%,0%);fill-opacity:1;" d="M 34 27 L 26 27 L 26 25 L 34 25 Z M 34 31 L 26 31 L 26 29 L 34 29 Z M 34 35 L 26 35 L 26 33 L 34 33 Z M 12 13 L 25 13 L 25 19 L 12 19 Z M 36 23 L 19 23 L 19 21 L 27 21 L 27 11 L 10 11 L 10 21 L 17 21 L 17 23 L 10 23 L 10 25 L 12 25 L 12 37 L 14 37 L 14 25 L 24 25 L 24 37 L 36 37 L 36 25 L 38 25 L 38 23 Z M 36 23 "/>
</g>
</svg>
