<?xml version="1.0" encoding="UTF-8"?>
<svg xmlns="http://www.w3.org/2000/svg" xmlns:xlink="http://www.w3.org/1999/xlink" width="48pt" height="48pt" viewBox="0 0 48 48" version="1.1">
<g id="surface1">
<path style=" stroke:none;fill-rule:nonzero;fill:rgb(0%,0%,0%);fill-opacity:1;" d="M 19 19 L 29 19 L 29 21 L 19 21 Z M 16 33 L 32 33 L 32 37 L 30 37 L 30 35 L 25 35 L 25 37 L 23 37 L 23 35 L 18 35 L 18 37 L 16 37 Z M 17.933594 25 L 17.074219 13 L 30.925781 13 L 30.066406 25 Z M 35 22 L 35 25 L 32.074219 25 L 33.074219 11 L 14.925781 11 L 15.925781 25 L 13 25 L 13 22 L 11 22 L 11 27 L 23 27 L 23 31 L 25 31 L 25 27 L 37 27 L 37 22 Z M 35 22 "/>
</g>
</svg>
