<?xml version="1.0" encoding="UTF-8"?>
<svg xmlns="http://www.w3.org/2000/svg" xmlns:xlink="http://www.w3.org/1999/xlink" width="48pt" height="48pt" viewBox="0 0 48 48" version="1.1">
<g id="surface1">
<path style=" stroke:none;fill-rule:nonzero;fill:rgb(0%,0%,0%);fill-opacity:1;" d="M 37 30 L 11 30 L 11 21 L 12.015625 21 C 13.109375 21 14 21.890625 14 22.984375 L 14 25 L 13 25 L 13 27 L 35 27 L 35 25 L 34 25 L 34 22.984375 C 34 21.890625 34.890625 21 35.984375 21 L 37 21 Z M 13.011719 15 C 13.011719 13.898438 13.910156 13 15.019531 13 L 33 13 C 33.53125 13 34.039062 13.210938 34.421875 13.589844 C 34.800781 13.96875 35.011719 14.480469 35.011719 15.011719 L 35.003906 19.136719 C 33.28125 19.578125 32 21.128906 32 22.984375 L 32 25 L 25 25 L 25 19 L 23 19 L 23 25 L 16 25 L 16 22.984375 C 16 21.132812 14.722656 19.582031 13.003906 19.140625 Z M 37.003906 19 L 37.011719 15.019531 C 37.011719 13.949219 36.589844 12.9375 35.828125 12.179688 C 35.078125 11.421875 34.070312 11 33 11 L 15.019531 11 C 12.8125 11 11.011719 12.789062 11.011719 15 L 11.003906 19 L 9 19 L 9 32 L 14 32 L 14 36 L 16 36 L 16 32 L 32 32 L 32 36 L 34 36 L 34 32 L 39 32 L 39 19 Z M 37.003906 19 "/>
</g>
</svg>
