<?xml version="1.0" encoding="UTF-8"?>
<svg xmlns="http://www.w3.org/2000/svg" xmlns:xlink="http://www.w3.org/1999/xlink" width="48pt" height="48pt" viewBox="0 0 48 48" version="1.1">
<g id="surface1">
<path style=" stroke:none;fill-rule:nonzero;fill:rgb(0%,0%,0%);fill-opacity:1;" d="M 28 18 L 28 20 C 30.207031 20 32 18.207031 32 16 C 32 13.792969 30.207031 12 28 12 L 28 14 C 29.101562 14 30 14.898438 30 16 C 30 17.101562 29.101562 18 28 18 M 21 16 C 21 18.414062 22.722656 20.433594 25 20.898438 L 25 11.101562 C 22.722656 11.566406 21 13.585938 21 16 M 26 9 L 27 9 L 27 23 L 26 23 C 22.140625 23 19 19.859375 19 16 C 19 12.140625 22.140625 9 26 9 M 18 15 L 12 15 L 12 17 L 18 17 Z M 16 35 L 16 37 L 26 37 L 26 35 L 21.578125 35 L 14 23.804688 L 14 19 L 12 19 L 12 24.335938 L 19.277344 35 Z M 36.828125 24.242188 L 38.242188 22.828125 L 34.707031 19.292969 L 33.292969 20.707031 Z M 34.707031 12.707031 L 38.242188 9.171875 L 36.828125 7.757812 L 33.292969 11.292969 Z M 39 17 L 34 17 L 34 15 L 39 15 Z M 39 17 "/>
</g>
</svg>
