<?xml version="1.0" encoding="UTF-8"?>
<svg xmlns="http://www.w3.org/2000/svg" xmlns:xlink="http://www.w3.org/1999/xlink" width="48pt" height="48pt" viewBox="0 0 48 48" version="1.1">
<g id="surface1">
<path style=" stroke:none;fill-rule:nonzero;fill:rgb(0%,0%,0%);fill-opacity:1;" d="M 18.292969 30.292969 L 19.707031 31.707031 L 16.171875 35.242188 L 14.757812 33.828125 Z M 29.707031 30.292969 L 33.242188 33.828125 L 31.828125 35.242188 L 28.292969 31.707031 Z M 23 32 L 25 32 L 25 37 L 23 37 Z M 26 26 L 28 26 C 28 28.207031 26.203125 30 24 30 C 21.796875 30 20 28.207031 20 26 L 22 26 C 22 27.101562 22.898438 28 24 28 C 25.105469 28 26 27.101562 26 26 M 24 17 C 27.519531 17 30.433594 19.613281 30.921875 23 L 17.078125 23 C 17.566406 19.613281 20.480469 17 24 17 M 32.941406 23 C 32.480469 18.835938 29.164062 15.523438 25 15.058594 L 25 10 L 23 10 L 23 15.058594 C 18.835938 15.523438 15.523438 18.835938 15.058594 23 L 14 23 L 14 25 L 34 25 L 34 23 Z M 32.941406 23 "/>
</g>
</svg>
