<?xml version="1.0" encoding="UTF-8"?>
<svg xmlns="http://www.w3.org/2000/svg" xmlns:xlink="http://www.w3.org/1999/xlink" width="48pt" height="48pt" viewBox="0 0 48 48" version="1.1">
<g id="surface1">
<path style=" stroke:none;fill-rule:nonzero;fill:rgb(0%,0%,0%);fill-opacity:1;" d="M 32 31 L 16 31 L 16 24 L 32 24 Z M 18 16 L 30 16 L 30 22 L 18 22 Z M 34 22 L 32 22 L 32 14 L 28 14 L 28 10 L 26 10 L 26 14 L 22 14 L 22 10 L 20 10 L 20 14 L 16 14 L 16 22 L 14 22 L 14 33 L 23 33 L 23 38 L 25 38 L 25 33 L 34 33 Z M 34 22 "/>
</g>
</svg>
