<?xml version="1.0" encoding="UTF-8"?>
<svg xmlns="http://www.w3.org/2000/svg" xmlns:xlink="http://www.w3.org/1999/xlink" width="48pt" height="48pt" viewBox="0 0 48 48" version="1.1">
<g id="surface1">
<path style=" stroke:none;fill-rule:nonzero;fill:rgb(0%,0%,0%);fill-opacity:1;" d="M 28 21 L 20 21 L 20 19 L 28 19 Z M 32 17.394531 C 32 19.554688 31.367188 21.648438 30.167969 23.445312 C 28.75 25.570312 28 28.050781 28 30.605469 L 28 31 L 20 31 L 20 30.605469 C 20 28.050781 19.25 25.570312 17.832031 23.445312 C 16.632812 21.648438 16 19.554688 16 17.394531 L 16 16 L 32 16 Z M 29 14 L 29 10 L 27 10 L 27 14 L 21 14 L 21 10 L 19 10 L 19 14 L 14 14 L 14 17.394531 C 14 19.949219 14.75 22.429688 16.167969 24.554688 C 17.367188 26.351562 18 28.445312 18 30.605469 L 18 33 L 23 33 L 23 38 L 25 38 L 25 33 L 30 33 L 30 30.605469 C 30 28.445312 30.632812 26.351562 31.832031 24.554688 C 33.25 22.429688 34 19.949219 34 17.394531 L 34 14 Z M 29 14 "/>
</g>
</svg>
