<?xml version="1.0" encoding="UTF-8"?>
<svg xmlns="http://www.w3.org/2000/svg" xmlns:xlink="http://www.w3.org/1999/xlink" width="48pt" height="48pt" viewBox="0 0 48 48" version="1.1">
<g id="surface1">
<path style=" stroke:none;fill-rule:nonzero;fill:rgb(0%,0%,0%);fill-opacity:1;" d="M 22 30 L 26 30 L 26 32 L 22 32 Z M 22 22 L 26 22 L 26 24 L 22 24 Z M 26 16 L 22 16 L 22 14 L 26 14 Z M 16 28 L 32 28 L 32 34 L 16 34 Z M 32 26 L 16 26 L 16 20 L 32 20 Z M 32 18 L 16 18 L 16 12 L 32 12 Z M 34 10 L 14 10 L 14 36 L 17 36 L 17 39 L 19 39 L 19 36 L 29 36 L 29 39 L 31 39 L 31 36 L 34 36 Z M 34 10 "/>
</g>
</svg>
