<?xml version="1.0" encoding="UTF-8"?>
<svg xmlns="http://www.w3.org/2000/svg" xmlns:xlink="http://www.w3.org/1999/xlink" width="48pt" height="48pt" viewBox="0 0 48 48" version="1.1">
<g id="surface1">
<path style=" stroke:none;fill-rule:nonzero;fill:rgb(0%,0%,0%);fill-opacity:1;" d="M 36 17 L 12.082031 17 L 12.082031 14 L 36 14 Z M 23 12 L 7.082031 12 L 7.082031 14 L 10.082031 14 L 10.082031 19 L 13.082031 19 L 13.082031 33 L 11.082031 33 L 11.082031 35 L 17.082031 35 L 17.082031 33 L 15.082031 33 L 15.082031 19 L 33 19 L 33 33 L 31 33 L 31 35 L 37 35 L 37 33 L 35 33 L 35 19 L 38 19 L 38 14 L 41 14 L 41 12 Z M 23 12 "/>
</g>
</svg>
