<?xml version="1.0" encoding="UTF-8"?>
<svg xmlns="http://www.w3.org/2000/svg" xmlns:xlink="http://www.w3.org/1999/xlink" width="48pt" height="48pt" viewBox="0 0 48 48" version="1.1">
<g id="surface1">
<path style=" stroke:none;fill-rule:nonzero;fill:rgb(0%,0%,0%);fill-opacity:1;" d="M 38 16 L 10 16 L 10 30 L 15 30 L 15 25 L 13 25 L 13 23 L 35 23 L 35 25 L 33 25 L 33 30 L 38 30 Z M 31 25 L 17 25 L 17 35 L 31 35 Z M 17 14 L 31 14 L 31 11 L 17 11 Z M 40 14 L 40 32 L 33 32 L 33 37 L 15 37 L 15 32 L 8 32 L 8 14 L 15 14 L 15 9 L 33 9 L 33 14 Z M 29 31 L 19 31 L 19 33 L 29 33 Z M 29 29 L 19 29 L 19 27 L 29 27 Z M 29 29 "/>
</g>
</svg>
