<?xml version="1.0" encoding="UTF-8"?>
<svg xmlns="http://www.w3.org/2000/svg" xmlns:xlink="http://www.w3.org/1999/xlink" width="48pt" height="48pt" viewBox="0 0 48 48" version="1.1">
<g id="surface1">
<path style=" stroke:none;fill-rule:nonzero;fill:rgb(0%,0%,0%);fill-opacity:1;" d="M 40 31.417969 L 40.710938 30.710938 L 39.289062 29.289062 L 37 31.589844 L 35.421875 30 L 34.710938 29.289062 L 33.289062 30.710938 L 34.589844 32 L 35.589844 33 L 33.289062 35.289062 L 34.710938 36.710938 L 37 34.410156 L 39.289062 36.710938 L 40.710938 35.289062 L 38.410156 33 L 39.410156 32 Z M 30.289062 35 C 30.101562 34.371094 30 33.699219 30 33 C 30 31.679688 30.359375 30.449219 31 29.398438 L 31 25 L 17 25 L 17 35 Z M 15 25 L 13 25 L 13 23 L 35 23 L 35 25 L 33 25 L 33 27.261719 C 34.128906 26.460938 35.511719 26 37 26 C 37.339844 26 37.679688 26.019531 38 26.078125 L 38 16 L 10 16 L 10 30 L 15 30 Z M 17 14 L 31 14 L 31 11 L 17 11 Z M 44 33 C 44 36.871094 40.871094 40 37 40 C 34.621094 40 32.519531 38.820312 31.261719 37 L 15 37 L 15 32 L 8 32 L 8 14 L 15 14 L 15 9 L 33 9 L 33 14 L 40 14 L 40 26.679688 C 42.371094 27.800781 44 30.199219 44 33 M 19 29 L 29 29 L 29 27 L 19 27 Z M 19 31 L 29 31 L 29 33 L 19 33 Z M 19 31 "/>
</g>
</svg>
