<?xml version="1.0" encoding="UTF-8"?>
<svg xmlns="http://www.w3.org/2000/svg" xmlns:xlink="http://www.w3.org/1999/xlink" width="48pt" height="48pt" viewBox="0 0 48 48" version="1.1">
<g id="surface1">
<path style=" stroke:none;fill-rule:nonzero;fill:rgb(0%,0%,0%);fill-opacity:1;" d="M 30 21 L 18 21 L 18 23 L 30 23 Z M 18 27 L 30 27 L 30 25 L 18 25 Z M 31.296875 16 L 28 13.175781 L 28 16 Z M 35 16.539062 L 35 38 L 13 38 L 13 10 L 15 10 L 15 36 L 33 36 L 33 18 L 26 18 L 26 12 L 17 12 L 17 10 L 27.371094 10 Z M 18 29 L 30 29 L 30 31 L 18 31 Z M 18 29 "/>
</g>
</svg>
