<?xml version="1.0" encoding="UTF-8"?>
<svg xmlns="http://www.w3.org/2000/svg" xmlns:xlink="http://www.w3.org/1999/xlink" width="48pt" height="48pt" viewBox="0 0 48 48" version="1.1">
<g id="surface1">
<path style=" stroke:none;fill-rule:nonzero;fill:rgb(0%,0%,0%);fill-opacity:1;" d="M 38.410156 33 L 40.710938 30.710938 L 39.289062 29.289062 L 37 31.589844 L 35 29.578125 L 34.710938 29.289062 L 33.289062 30.710938 L 35 32.410156 L 35.589844 33 L 35 33.589844 L 33.289062 35.289062 L 34.710938 36.710938 L 35 36.421875 L 37 34.410156 L 39.289062 36.710938 L 40.710938 35.289062 Z M 31.300781 16 L 28 13.171875 L 28 16 Z M 44 33 C 44 36.871094 40.871094 40 37 40 C 35.089844 40 33.371094 39.238281 32.109375 38 L 13 38 L 13 10 L 15 10 L 15 36 L 30.679688 36 C 30.238281 35.089844 30 34.078125 30 33 C 30 30.621094 31.179688 28.519531 33 27.261719 L 33 18 L 26 18 L 26 12 L 17 12 L 17 10 L 27.371094 10 L 35 16.539062 L 35 26.289062 C 35.628906 26.101562 36.300781 26 37 26 C 40.871094 26 44 29.128906 44 33 M 18 27 L 30 27 L 30 25 L 18 25 Z M 30 21 L 18 21 L 18 23 L 30 23 Z M 18 29 L 30 29 L 30 31 L 18 31 Z M 18 29 "/>
</g>
</svg>
