<?xml version="1.0" encoding="UTF-8"?>
<svg xmlns="http://www.w3.org/2000/svg" xmlns:xlink="http://www.w3.org/1999/xlink" width="48pt" height="48pt" viewBox="0 0 48 48" version="1.1">
<g id="surface1">
<path style=" stroke:none;fill-rule:nonzero;fill:rgb(0%,0%,0%);fill-opacity:1;" d="M 38 35.132812 L 38 32.574219 C 37.386719 32.847656 36.710938 33 36 33 C 35.289062 33 34.613281 32.847656 34 32.574219 L 34 35.132812 L 36 33.796875 Z M 32 36 L 32 31 L 32.027344 31 C 31.390625 30.160156 31 29.128906 31 28 C 31 26.371094 31.792969 24.941406 33 24.027344 L 33 12 L 15 12 L 15 36 Z M 36 25 C 34.347656 25 33 26.347656 33 28 C 33 29.652344 34.347656 31 36 31 C 37.65625 31 39 29.652344 39 28 C 39 26.347656 37.65625 25 36 25 M 39.972656 31 L 40 31 L 40 38.867188 L 36 36.203125 L 32 38.867188 L 32 38 L 13 38 L 13 10 L 35 10 L 35 23.101562 C 35.324219 23.035156 35.65625 23 36 23 C 38.757812 23 41 25.242188 41 28 C 41 29.128906 40.609375 30.160156 39.972656 31 M 18 31 L 30 31 L 30 29 L 18 29 Z M 18 27 L 30 27 L 30 25 L 18 25 Z M 27 19 L 21 19 L 21 17 L 27 17 Z M 27 19 "/>
</g>
</svg>
