<?xml version="1.0" encoding="UTF-8"?>
<svg xmlns="http://www.w3.org/2000/svg" xmlns:xlink="http://www.w3.org/1999/xlink" width="48pt" height="48pt" viewBox="0 0 48 48" version="1.1">
<g id="surface1">
<path style=" stroke:none;fill-rule:nonzero;fill:rgb(0%,0%,0%);fill-opacity:1;" d="M 33 28 L 35 28 L 35 38 L 33 38 Z M 28 28 L 30 28 L 30 38 L 28 38 Z M 23 28 L 25 28 L 25 38 L 23 38 Z M 18 28 L 20 28 L 20 38 L 18 38 Z M 13 28 L 15 28 L 15 38 L 13 38 Z M 28 13.175781 L 31.296875 16 L 28 16 Z M 35 23 L 35 16.539062 L 27.371094 10 L 17 10 L 17 12 L 26 12 L 26 18 L 33 18 L 33 23 L 15 23 L 15 10 L 13 10 L 13 23 L 9 23 L 9 25 L 39 25 L 39 23 Z M 35 23 "/>
</g>
</svg>
