<?xml version="1.0" encoding="UTF-8"?>
<svg xmlns="http://www.w3.org/2000/svg" xmlns:xlink="http://www.w3.org/1999/xlink" width="48pt" height="48pt" viewBox="0 0 48 48" version="1.1">
<g id="surface1">
<path style=" stroke:none;fill-rule:nonzero;fill:rgb(0%,0%,0%);fill-opacity:1;" d="M 35 33 L 18 33 L 18 31 L 35 31 Z M 35 28 L 18 28 L 18 26 L 35 26 Z M 35 22 L 28 22 L 28 20 L 35 20 Z M 35 17 L 28 17 L 28 15 L 35 15 Z M 23 20 L 20 20 L 20 17 L 23 17 Z M 25 15 L 18 15 L 18 22 L 25 22 Z M 38 35 C 38 35.550781 37.550781 36 37 36 L 11 36 C 10.449219 36 10 35.550781 10 35 L 10 16 L 13 16 L 13 33 L 15 33 L 15 12 L 38 12 Z M 13 10 L 13 14 L 8 14 L 8 35 C 8 36.652344 9.347656 38 11 38 L 37 38 C 38.652344 38 40 36.652344 40 35 L 40 10 Z M 13 10 "/>
</g>
</svg>
