<?xml version="1.0" encoding="UTF-8"?>
<svg xmlns="http://www.w3.org/2000/svg" xmlns:xlink="http://www.w3.org/1999/xlink" width="48pt" height="48pt" viewBox="0 0 48 48" version="1.1">
<g id="surface1">
<path style=" stroke:none;fill-rule:nonzero;fill:rgb(0%,0%,0%);fill-opacity:1;" d="M 22 21 L 20 21 L 20 31 L 22 31 Z M 22 21 "/>
<path style=" stroke:none;fill-rule:nonzero;fill:rgb(0%,0%,0%);fill-opacity:1;" d="M 28 21 L 26 21 L 26 31 L 28 31 Z M 28 21 "/>
<path style=" stroke:none;fill-rule:nonzero;fill:rgb(0%,0%,0%);fill-opacity:1;" d="M 31.867188 16 L 25 16 L 25 18 L 31.78125 18 L 31.042969 35 L 16.957031 35 L 16.21875 18 L 23 18 L 23 16 L 16.132812 16 L 16.046875 14 L 31.957031 14 Z M 25 12 L 25 9 L 23 9 L 23 12 L 12 12 L 12 14 L 14.042969 14 L 15.042969 37 L 32.957031 37 L 33.957031 14 L 36 14 L 36 12 Z M 25 12 "/>
</g>
</svg>
