<?xml version="1.0" encoding="UTF-8"?>
<svg xmlns="http://www.w3.org/2000/svg" xmlns:xlink="http://www.w3.org/1999/xlink" width="48pt" height="48pt" viewBox="0 0 48 48" version="1.1">
<g id="surface1">
<path style=" stroke:none;fill-rule:nonzero;fill:rgb(0%,0%,0%);fill-opacity:1;" d="M 33 31 L 31 31 L 31 29 L 33 29 Z M 28 31 L 26 31 L 26 29 L 28 29 Z M 22 31 L 20 31 L 20 29 L 22 29 Z M 22 26 L 20 26 L 20 24 L 22 24 Z M 17 31 L 15 31 L 15 29 L 17 29 Z M 33 26 L 31 26 L 31 24 L 33 24 Z M 28 26 L 26 26 L 26 24 L 28 24 Z M 17 26 L 15 26 L 15 24 L 17 24 Z M 36 35 L 12 35 L 12 20 L 36 20 Z M 35 11 L 33 11 L 33 13 L 35 13 C 35.550781 13 36 13.449219 36 14 L 36 18 L 12 18 L 12 14 C 12 13.449219 12.449219 13 13 13 L 17 13 L 17 15 L 19 15 L 19 13 L 29 13 L 29 15 L 31 15 L 31 9 L 29 9 L 29 11 L 19 11 L 19 9 L 17 9 L 17 11 L 13 11 C 11.347656 11 10 12.347656 10 14 L 10 37 L 38 37 L 38 14 C 38 12.347656 36.652344 11 35 11 "/>
</g>
</svg>
