<?xml version="1.0" encoding="UTF-8"?>
<svg xmlns="http://www.w3.org/2000/svg" xmlns:xlink="http://www.w3.org/1999/xlink" width="48pt" height="48pt" viewBox="0 0 48 48" version="1.1">
<g id="surface1">
<path style=" stroke:none;fill-rule:nonzero;fill:rgb(0%,0%,0%);fill-opacity:1;" d="M 41.710938 30.710938 L 40.289062 29.289062 L 38 31.589844 L 36 33.589844 L 34.210938 31.789062 L 32.789062 33.210938 L 34.589844 35 L 36 36.410156 L 38 34.410156 Z M 30.289062 35 C 30.101562 34.371094 30 33.699219 30 33 C 30 31.679688 30.359375 30.449219 31 29.398438 C 31.078125 29.261719 31.160156 29.128906 31.261719 29 C 32.339844 27.4375 34.039062 26.351562 36 26.078125 L 36 20 L 12 20 L 12 35 Z M 44 33 C 44 36.871094 40.871094 40 37 40 C 34.621094 40 32.519531 38.820312 31.261719 37 L 10 37 L 10 14 C 10 12.351562 11.351562 11 13 11 L 17 11 L 17 9 L 19 9 L 19 11 L 29 11 L 29 9 L 31 9 L 31 15 L 29 15 L 29 13 L 19 13 L 19 15 L 17 15 L 17 13 L 13 13 C 12.449219 13 12 13.449219 12 14 L 12 18 L 36 18 L 36 14 C 36 13.449219 35.550781 13 35 13 L 33 13 L 33 11 L 35 11 C 36.648438 11 38 12.351562 38 14 L 38 26.078125 C 41.398438 26.5625 44 29.46875 44 33 M 26 31 L 28 31 L 28 29 L 26 29 Z M 20 26 L 22 26 L 22 24 L 20 24 Z M 26 26 L 28 26 L 28 24 L 26 24 Z M 20 31 L 22 31 L 22 29 L 20 29 Z M 15 31 L 17 31 L 17 29 L 15 29 Z M 33 24 L 31 24 L 31 26 L 33 26 Z M 15 24 L 17 24 L 17 26 L 15 26 Z M 15 24 "/>
</g>
</svg>
