<?xml version="1.0" encoding="UTF-8"?>
<svg xmlns="http://www.w3.org/2000/svg" xmlns:xlink="http://www.w3.org/1999/xlink" width="48pt" height="48pt" viewBox="0 0 48 48" version="1.1">
<g id="surface1">
<path style=" stroke:none;fill-rule:nonzero;fill:rgb(0%,0%,0%);fill-opacity:1;" d="M 28 30 L 30 30 L 30 32 L 28 32 Z M 23 30 L 25 30 L 25 32 L 23 32 Z M 20 32 L 18 32 L 18 30 L 20 30 Z M 28 26 L 30 26 L 30 28 L 28 28 Z M 23 26 L 25 26 L 25 28 L 23 28 Z M 20 28 L 18 28 L 18 26 L 20 26 Z M 28 22 L 30 22 L 30 24 L 28 24 Z M 23 22 L 25 22 L 25 24 L 23 24 Z M 20 24 L 18 24 L 18 22 L 20 22 Z M 30 19 L 18 19 L 18 17 L 30 17 Z M 33 35 L 15 35 L 15 13 L 33 13 Z M 13 37 L 35 37 L 35 11 L 13 11 Z M 13 37 "/>
</g>
</svg>
