<?xml version="1.0" encoding="UTF-8"?>
<svg xmlns="http://www.w3.org/2000/svg" xmlns:xlink="http://www.w3.org/1999/xlink" width="48pt" height="48pt" viewBox="0 0 48 48" version="1.1">
<g id="surface1">
<path style=" stroke:none;fill-rule:nonzero;fill:rgb(0%,0%,0%);fill-opacity:1;" d="M 40 31 C 40 29.699219 39.160156 28.589844 38 28.179688 C 37.691406 28.0625 37.351562 28 37 28 C 36.648438 28 36.308594 28.0625 36 28.179688 C 34.839844 28.589844 34 29.699219 34 31 L 36 31 C 36 30.449219 36.449219 30 37 30 C 37.550781 30 38 30.449219 38 31 C 38 31.550781 37.550781 32 37 32 L 36 32 L 36 34 L 37 34 C 37.351562 34 37.691406 33.9375 38 33.820312 C 39.160156 33.410156 40 32.300781 40 31 M 38 35 L 36 35 L 36 37 L 38 37 Z M 18 13 L 12 13 L 12 35 L 18 35 Z M 44 33 C 44 36.871094 40.871094 40 37 40 C 34.621094 40 32.519531 38.820312 31.261719 37 L 10 37 L 10 11 L 20 11 L 20 35 L 30.289062 35 C 30.101562 34.371094 30 33.699219 30 33 C 30 31.511719 30.460938 30.128906 31.261719 29 L 31 29 L 31 27 L 33 27 L 33 27.261719 C 33.871094 26.640625 34.890625 26.230469 36 26.078125 L 36 13 L 22 13 L 22 11 L 38 11 L 38 26.078125 C 41.398438 26.5625 44 29.46875 44 33 M 29 27 L 27 27 L 27 29 L 29 29 Z M 27 33 L 29 33 L 29 31 L 27 31 Z M 23 29 L 25 29 L 25 27 L 23 27 Z M 23 25 L 25 25 L 25 23 L 23 23 Z M 29 23 L 27 23 L 27 25 L 29 25 Z M 23 33 L 25 33 L 25 31 L 23 31 Z M 33 19 L 23 19 L 23 21 L 33 21 Z M 31 23 L 33 23 L 33 25 L 31 25 Z M 31 23 "/>
</g>
</svg>
