<?xml version="1.0" encoding="UTF-8"?>
<svg xmlns="http://www.w3.org/2000/svg" xmlns:xlink="http://www.w3.org/1999/xlink" width="48pt" height="48pt" viewBox="0 0 48 48" version="1.1">
<defs>
<filter id="alpha" filterUnits="objectBoundingBox" x="0%" y="0%" width="100%" height="100%">
  <feColorMatrix type="matrix" in="SourceGraphic" values="0 0 0 0 1 0 0 0 0 1 0 0 0 0 1 0 0 0 1 0"/>
</filter>
<mask id="mask0">
  <g filter="url(#alpha)">
<rect x="0" y="0" width="48" height="48" style="fill:rgb(0%,0%,0%);fill-opacity:0.199997;stroke:none;"/>
  </g>
</mask>
<clipPath id="clip1">
  <rect x="0" y="0" width="32" height="26"/>
</clipPath>
<g id="surface5" clip-path="url(#clip1)">
<path style="fill:none;stroke-width:2;stroke-linecap:butt;stroke-linejoin:miter;stroke:rgb(100%,100%,100%);stroke-opacity:1;stroke-miterlimit:10;" d="M 0 -0.00005 L 0 12.68745 C 0 13.081981 0.238281 13.421825 0.59375 13.597606 C 1.636719 14.105419 2.273438 15.31245 1.886719 16.609325 C 1.65625 17.378856 1.03125 17.99995 0.265625 18.230419 C -1.03125 18.617137 -2.238281 17.980419 -2.746094 16.93745 C -2.921875 16.581981 -3.261719 16.3437 -3.65625 16.3437 C -9.886719 17.675731 -16.113281 17.675731 -22.34375 16.3437 C -22.738281 16.3437 -23.078125 16.581981 -23.253906 16.93745 C -23.761719 17.980419 -24.96875 18.617137 -26.265625 18.230419 C -27.03125 17.99995 -27.65625 17.378856 -27.886719 16.609325 C -28.273438 15.31245 -27.636719 14.105419 -26.59375 13.597606 C -26.238281 13.421825 -26 13.081981 -26 12.68745 L -26 -0.00005 C -26 -0.394581 -26.238281 -0.734425 -26.59375 -0.9063 C -27.636719 -1.414113 -28.273438 -2.62505 -27.886719 -3.921925 C -27.65625 -4.68755 -27.03125 -5.31255 -26.265625 -5.543019 C -24.96875 -5.929738 -23.761719 -5.293019 -23.253906 -4.25005 C -23.078125 -3.894581 -22.738281 -3.6563 -22.34375 -3.6563 C -16.113281 -4.988331 -9.886719 -4.988331 -3.65625 -3.6563 C -3.261719 -3.6563 -2.921875 -3.894581 -2.746094 -4.25005 C -2.238281 -5.293019 -1.03125 -5.929738 0.265625 -5.543019 C 1.03125 -5.31255 1.65625 -4.68755 1.886719 -3.921925 C 2.273438 -2.62505 1.636719 -1.414113 0.59375 -0.9063 C 0.238281 -0.734425 0 -0.394581 0 -0.00005 Z M 0 -0.00005 " transform="matrix(1,0,0,-1,29,19.3437)"/>
</g>
</defs>
<g id="surface1">
<use xlink:href="#surface5" transform="matrix(1,0,0,1,8,11)" mask="url(#mask0)"/>
<path style=" stroke:none;fill-rule:nonzero;fill:rgb(0%,0%,0%);fill-opacity:1;" d="M 34.195312 30.980469 L 33.804688 29.019531 C 27.300781 30.320312 20.703125 30.320312 14.195312 29.019531 L 13.804688 30.980469 C 17.1875 31.65625 20.59375 31.996094 24 31.996094 C 27.40625 31.996094 30.8125 31.65625 34.195312 30.980469 M 33.238281 33 L 33.34375 33 C 34.109375 33 34.800781 33.441406 35.148438 34.15625 C 35.421875 34.710938 36.105469 35.183594 36.980469 34.925781 C 37.425781 34.792969 37.796875 34.421875 37.925781 33.980469 C 38.1875 33.109375 37.710938 32.421875 37.15625 32.152344 C 36.441406 31.800781 36 31.109375 36 30.34375 L 36 17.65625 C 36 16.890625 36.441406 16.199219 37.15625 15.847656 C 37.710938 15.578125 38.1875 14.890625 37.925781 14.019531 C 37.796875 13.578125 37.425781 13.207031 36.980469 13.074219 C 36.109375 12.8125 35.421875 13.292969 35.148438 13.84375 C 34.800781 14.558594 34.109375 15 33.34375 15 L 33.132812 14.976562 C 27.074219 13.679688 20.925781 13.679688 14.867188 14.976562 L 14.65625 15 C 13.890625 15 13.199219 14.558594 12.847656 13.84375 C 12.578125 13.292969 11.890625 12.8125 11.019531 13.074219 C 10.578125 13.207031 10.203125 13.578125 10.074219 14.019531 C 9.8125 14.890625 10.292969 15.578125 10.84375 15.847656 C 11.554688 16.199219 12 16.890625 12 17.65625 L 12 30.34375 C 12 31.109375 11.554688 31.800781 10.84375 32.152344 C 10.292969 32.421875 9.8125 33.109375 10.074219 33.980469 C 10.203125 34.421875 10.578125 34.792969 11.019531 34.925781 C 11.890625 35.183594 12.578125 34.710938 12.847656 34.15625 C 13.199219 33.441406 13.890625 33 14.65625 33 L 14.867188 33.023438 C 20.925781 34.320312 27.074219 34.320312 33.132812 33.023438 Z M 36.511719 36.996094 C 35.1875 36.996094 33.953125 36.261719 33.351562 35.03125 L 33.351562 35.019531 C 27.144531 36.320312 20.855469 36.320312 14.644531 35.019531 C 13.878906 36.585938 12.117188 37.34375 10.449219 36.84375 C 9.359375 36.519531 8.480469 35.640625 8.15625 34.550781 C 7.65625 32.875 8.417969 31.109375 9.96875 30.351562 L 10 17.65625 C 8.417969 16.890625 7.65625 15.125 8.15625 13.449219 C 8.480469 12.359375 9.359375 11.480469 10.449219 11.15625 C 12.125 10.65625 13.890625 11.417969 14.644531 12.96875 L 14.644531 12.980469 C 20.855469 11.679688 27.144531 11.679688 33.351562 12.980469 C 34.125 11.414062 35.882812 10.65625 37.550781 11.15625 C 38.640625 11.480469 39.519531 12.359375 39.84375 13.449219 C 40.34375 15.125 39.582031 16.890625 38.035156 17.648438 L 38 30.328125 C 39.582031 31.113281 40.34375 32.875 39.84375 34.550781 C 39.519531 35.640625 38.640625 36.519531 37.550781 36.84375 C 37.207031 36.949219 36.855469 36.996094 36.511719 36.996094 "/>
</g>
</svg>
