<?xml version="1.0" encoding="UTF-8"?>
<svg xmlns="http://www.w3.org/2000/svg" xmlns:xlink="http://www.w3.org/1999/xlink" width="48pt" height="48pt" viewBox="0 0 48 48" version="1.1">
<g id="surface1">
<path style=" stroke:none;fill-rule:nonzero;fill:rgb(0%,0%,0%);fill-opacity:1;" d="M 38 25 L 10 25 L 10 21 L 38 21 Z M 38 31 L 10 31 L 10 27 L 38 27 Z M 10 18 C 10 17.449219 10.449219 17 11 17 L 16 17 C 16.554688 17 17 17.449219 17 18 C 17 18.550781 16.554688 19 16 19 L 10 19 Z M 38 17 L 38 19 L 18.816406 19 C 18.929688 18.6875 19 18.351562 19 18 C 19 16.347656 17.65625 15 16 15 L 11 15 C 10.648438 15 10.3125 15.070312 10 15.183594 L 10 13 L 8 13 L 8 35 L 10 35 L 10 33 L 38 33 L 38 35 L 40 35 L 40 17 Z M 38 17 "/>
</g>
</svg>
