<?xml version="1.0" encoding="UTF-8"?>
<svg xmlns="http://www.w3.org/2000/svg" xmlns:xlink="http://www.w3.org/1999/xlink" width="48pt" height="48pt" viewBox="0 0 48 48" version="1.1">
<g id="surface1">
<path style=" stroke:none;fill-rule:nonzero;fill:rgb(0%,0%,0%);fill-opacity:1;" d="M 38 29 L 36 29 L 36 34 L 38 34 Z M 38 35 L 36 35 L 36 37 L 38 37 Z M 44 33 C 44 36.867188 40.867188 40 37 40 C 33.132812 40 30 36.867188 30 33 C 30 29.132812 33.132812 26 37 26 C 40.867188 26 44 29.132812 44 33 M 38 23 L 17 23 L 17 26 L 12 26 L 12 19.996094 C 12 19.445312 12.445312 19 12.996094 19 L 38 19 L 38 17 L 33 17 L 33 15 L 38 15 L 38 13 L 26 13 L 26 15 L 31 15 L 31 17 L 12.996094 17 C 11.34375 17 10 18.34375 10 19.996094 L 10 28 L 19 28 L 19 25 L 38 25 Z M 14 30 C 14 30 16 32 16 34 C 16 35.105469 15.105469 36 14 36 C 12.894531 36 12 35.105469 12 34 C 12 32 14 30 14 30 "/>
</g>
</svg>
