<?xml version="1.0" encoding="UTF-8"?>
<svg xmlns="http://www.w3.org/2000/svg" xmlns:xlink="http://www.w3.org/1999/xlink" width="48pt" height="48pt" viewBox="0 0 48 48" version="1.1">
<g id="surface1">
<path style=" stroke:none;fill-rule:nonzero;fill:rgb(0%,0%,0%);fill-opacity:1;" d="M 31 35 L 17 35 L 17 23 L 34.9375 23 C 34.722656 24.757812 33.929688 26.382812 32.65625 27.65625 C 29.539062 30.777344 24.460938 30.777344 21.34375 27.65625 L 19.929688 29.070312 C 21.878906 31.019531 24.4375 31.996094 27 31.996094 C 28.363281 31.996094 29.726562 31.710938 31 31.15625 Z M 19 12 L 21 12 L 21 21 L 17 21 L 17 12 Z M 37 22 L 37 21 L 23 21 L 23 10 L 14 10 L 14 12 L 15 12 L 15 37 L 35 37 L 35 35 L 33 35 L 33 30 L 32.980469 30 C 33.359375 29.71875 33.726562 29.414062 34.070312 29.070312 C 35.960938 27.183594 37 24.671875 37 22 "/>
</g>
</svg>
