<?xml version="1.0" encoding="UTF-8"?>
<svg xmlns="http://www.w3.org/2000/svg" xmlns:xlink="http://www.w3.org/1999/xlink" width="48pt" height="48pt" viewBox="0 0 48 48" version="1.1">
<g id="surface1">
<path style=" stroke:none;fill-rule:nonzero;fill:rgb(0%,0%,0%);fill-opacity:1;" d="M 23 18 L 19 18 L 19 16 L 23 16 Z M 29 17 C 29 18.890625 25.714844 21 21 21 C 16.285156 21 13 18.890625 13 17 C 13 15.109375 16.285156 13 21 13 C 25.714844 13 29 15.109375 29 17 M 21 35 C 16.285156 35 13 32.890625 13 31 L 13 20.632812 C 14.808594 22.074219 17.6875 23 21 23 C 24.3125 23 27.191406 22.074219 29 20.632812 L 29 31 C 29 32.890625 25.714844 35 21 35 M 21 11 C 15.394531 11 11 13.636719 11 17 L 11 31 C 11 34.363281 15.394531 37 21 37 C 26.605469 37 31 34.363281 31 31 L 31 17 C 31 15.445312 30.058594 14.054688 28.496094 13 L 38 13 L 38 16 L 36 16 L 36 18 L 38 18 L 38 21 L 36 21 L 36 23 L 38 23 L 38 26 L 36 26 L 36 28 L 38 28 L 38 31 L 33 31 L 33 33 L 40 33 L 40 11 Z M 21 11 "/>
</g>
</svg>
