<?xml version="1.0" encoding="UTF-8"?>
<svg xmlns="http://www.w3.org/2000/svg" xmlns:xlink="http://www.w3.org/1999/xlink" width="48pt" height="48pt" viewBox="0 0 48 48" version="1.1">
<g id="surface1">
<path style=" stroke:none;fill-rule:nonzero;fill:rgb(0%,0%,0%);fill-opacity:1;" d="M 35.992188 28 L 11.992188 28 L 11.992188 13 L 14.992188 13 L 14.992188 21 L 16.992188 21 L 16.992188 20.242188 C 19.320312 20.734375 21.65625 20.996094 23.992188 20.996094 C 26.332031 20.996094 28.667969 20.734375 30.992188 20.242188 L 30.992188 21 L 32.992188 21 L 32.992188 13 L 35.992188 13 Z M 35.992188 35.578125 C 35.992188 35.8125 35.804688 36 35.574219 36 L 12.414062 36 C 12.183594 36 11.992188 35.8125 11.992188 35.578125 L 11.992188 34 L 32.992188 34 L 32.992188 32 L 11.992188 32 L 11.992188 30 L 35.992188 30 Z M 16.992188 11.789062 C 21.640625 10.742188 26.34375 10.742188 30.992188 11.789062 L 30.992188 18.210938 C 26.34375 19.257812 21.640625 19.257812 16.992188 18.210938 Z M 32.992188 11 L 32.992188 9 L 30.992188 9 L 30.992188 9.757812 C 26.34375 8.773438 21.644531 8.773438 16.992188 9.757812 L 16.992188 9 L 14.992188 9 L 14.992188 11 L 9.992188 11 L 9.992188 35.578125 C 9.992188 36.914062 11.078125 38 12.414062 38 L 35.574219 38 C 36.90625 38 37.992188 36.914062 37.992188 35.578125 L 37.992188 11 Z M 32.992188 11 "/>
</g>
</svg>
