<?xml version="1.0" encoding="UTF-8"?>
<svg xmlns="http://www.w3.org/2000/svg" xmlns:xlink="http://www.w3.org/1999/xlink" width="48pt" height="48pt" viewBox="0 0 48 48" version="1.1">
<g id="surface1">
<path style=" stroke:none;fill-rule:nonzero;fill:rgb(0%,0%,0%);fill-opacity:1;" d="M 38 12 L 30 12 L 30 10 L 38 10 Z M 12 16 L 30 16 L 30 32 L 27 32 L 27 19 L 25 19 L 25 32 L 22 32 L 22 19 L 20 19 L 20 32 L 17 32 L 17 19 L 15 19 L 15 32 L 13 32 C 12.449219 32 12 31.550781 12 31 Z M 36 16 L 36 31 C 36 31.550781 35.550781 32 35 32 L 32 32 L 32 16 Z M 10 31 C 10 32.652344 11.347656 34 13 34 L 14 34 L 14 36 L 16 36 L 16 34 L 32 34 L 32 36 L 34 36 L 34 34 L 35 34 C 36.652344 34 38 32.652344 38 31 L 38 14 L 10 14 Z M 10 31 "/>
</g>
</svg>
