<?xml version="1.0" encoding="UTF-8"?>
<svg xmlns="http://www.w3.org/2000/svg" xmlns:xlink="http://www.w3.org/1999/xlink" width="48pt" height="48pt" viewBox="0 0 48 48" version="1.1">
<g id="surface1">
<path style=" stroke:none;fill-rule:nonzero;fill:rgb(0%,0%,0%);fill-opacity:1;" d="M 38 34 L 10 34 L 10 25 L 38 25 Z M 28.847656 12 L 28.132812 17 L 25 17 L 25 14 L 23 14 L 23 17 L 19.867188 17 L 19.152344 12 Z M 32 13 L 32 15 L 38 15 L 38 23 L 10 23 L 10 15 L 17.5625 15 L 18.132812 19 L 29.867188 19 L 31.152344 10 L 16.847656 10 L 17.273438 13 L 8 13 L 8 36 L 40 36 L 40 13 Z M 32 13 "/>
</g>
</svg>
