<?xml version="1.0" encoding="UTF-8"?>
<svg xmlns="http://www.w3.org/2000/svg" xmlns:xlink="http://www.w3.org/1999/xlink" width="48pt" height="48pt" viewBox="0 0 48 48" version="1.1">
<g id="surface1">
<path style=" stroke:none;fill-rule:nonzero;fill:rgb(0%,0%,0%);fill-opacity:1;" d="M 31 16 L 13 16 L 13 12 L 31 12 Z M 13 30 L 31 30 L 31 34 L 13 34 Z M 13 24 L 31 24 L 31 28 L 13 28 Z M 13 18 L 31 18 L 31 22 L 13 22 Z M 8 10 L 8 12 L 11 12 L 11 36 L 33 36 L 33 12 L 36 12 L 36 28 L 38 28 L 38 12 L 40 12 L 40 10 Z M 8 10 "/>
</g>
</svg>
