<?xml version="1.0" encoding="UTF-8"?>
<svg xmlns="http://www.w3.org/2000/svg" xmlns:xlink="http://www.w3.org/1999/xlink" width="48pt" height="48pt" viewBox="0 0 48 48" version="1.1">
<g id="surface1">
<path style=" stroke:none;fill-rule:nonzero;fill:rgb(0%,0%,0%);fill-opacity:1;" d="M 34 20 L 34 14 C 34 12.894531 33.105469 12 32 12 L 16 12 C 14.894531 12 14 12.894531 14 14 L 14 20 Z M 14 36 L 34 36 L 34 33 L 14 33 Z M 27 24 L 27 22 L 21 22 L 21 24 L 19 24 L 19 22 L 14 22 L 14 31 L 34 31 L 34 24 L 36 24 L 36 38 L 12 38 L 12 14 C 12 11.796875 13.796875 10 16 10 L 32 10 C 34.203125 10 36 11.796875 36 14 L 36 22 L 29 22 L 29 24 Z M 19 15 L 29 15 L 29 17 L 19 17 Z M 19 15 "/>
</g>
</svg>
