<?xml version="1.0" encoding="UTF-8"?>
<svg xmlns="http://www.w3.org/2000/svg" xmlns:xlink="http://www.w3.org/1999/xlink" width="48pt" height="48pt" viewBox="0 0 48 48" version="1.1">
<g id="surface1">
<path style=" stroke:none;fill-rule:nonzero;fill:rgb(0%,0%,0%);fill-opacity:1;" d="M 19 27 L 29 27 L 29 29 L 19 29 Z M 27.179688 20 L 20.820312 20 L 20.21875 17 L 27.78125 17 Z M 33 22 L 35 22 L 35 20 L 29.21875 20 L 29.820312 17 L 31 17 L 31 15 L 25 15 L 25 9 L 23 9 L 23 11 L 13 11 L 13 9 L 11 9 L 11 13 L 23 13 L 23 15 L 17 15 L 17 17 L 18.179688 17 L 18.78125 20 L 13 20 L 13 22 L 15 22 L 15 35 L 13 35 L 13 37 L 35 37 L 35 35 L 33 35 L 33 24 L 31 24 L 31 35 L 17 35 L 17 22 Z M 33 22 "/>
</g>
</svg>
