<?xml version="1.0" encoding="UTF-8"?>
<svg xmlns="http://www.w3.org/2000/svg" xmlns:xlink="http://www.w3.org/1999/xlink" width="48pt" height="48pt" viewBox="0 0 48 48" version="1.1">
<g id="surface1">
<path style=" stroke:none;fill-rule:nonzero;fill:rgb(0%,0%,0%);fill-opacity:1;" d="M 14.046875 36 L 14.183594 33 L 21.816406 33 L 21.953125 36 Z M 15 16 L 21.042969 16 L 21.726562 31 L 14.273438 31 L 14.953125 16 Z M 17 12 L 19 12 L 19 14 L 17 14 Z M 21 14 L 21 10 L 15 10 L 15 14 L 13.042969 14 L 11.953125 38 L 24.046875 38 L 22.953125 14 Z M 31 12 L 33 12 L 33 17 L 31 17 Z M 35 19 L 35 10 L 29 10 L 29 22 L 29.007812 22.410156 L 29.285156 22.699219 C 29.3125 22.726562 32 25.636719 32 34 L 32 38 L 34 38 L 34 34 C 34 26.253906 31.8125 22.691406 31 21.636719 L 31 19 Z M 35 19 "/>
</g>
</svg>
