<?xml version="1.0" encoding="UTF-8"?>
<svg xmlns="http://www.w3.org/2000/svg" xmlns:xlink="http://www.w3.org/1999/xlink" width="48pt" height="48pt" viewBox="0 0 48 48" version="1.1">
<g id="surface1">
<path style=" stroke:none;fill-rule:nonzero;fill:rgb(0%,0%,0%);fill-opacity:1;" d="M 30 35 L 18 35 L 17.152344 25 L 30.847656 25 Z M 22.472656 15 C 20.71875 15 19.261719 13.691406 19.03125 12 L 19.527344 12 C 21.28125 12 22.738281 13.308594 22.96875 15 Z M 28.472656 12 L 28.96875 12 C 28.738281 13.691406 27.28125 15 25.527344 15 L 25.03125 15 C 25.261719 13.308594 26.71875 12 28.472656 12 M 27 19 L 27 21 L 32.925781 21 L 32.925781 23 L 15.074219 23 L 15.074219 21 L 25 21 L 25 17 L 25.527344 17 C 28.546875 17 31 14.546875 31 11.527344 L 31 10 L 28.472656 10 C 26.625 10 24.992188 10.921875 24 12.328125 C 23.007812 10.921875 21.375 10 19.527344 10 L 17 10 L 17 11.527344 C 17 14.546875 19.453125 17 22.472656 17 L 23 17 L 23 19 L 13.074219 19 L 13.074219 25 L 15.148438 25 L 16.148438 37 L 31.851562 37 L 32.851562 25 L 34.925781 25 L 34.925781 19 Z M 27 19 "/>
</g>
</svg>
