<?xml version="1.0" encoding="UTF-8"?>
<svg xmlns="http://www.w3.org/2000/svg" xmlns:xlink="http://www.w3.org/1999/xlink" width="48pt" height="48pt" viewBox="0 0 48 48" version="1.1">
<g id="surface1">
<path style=" stroke:none;fill-rule:nonzero;fill:rgb(0%,0%,0%);fill-opacity:1;" d="M 34 19 L 36 19 L 36 17 L 34 17 Z M 34 19 L 36 19 L 36 17 L 34 17 Z M 12 31 L 28 31 L 28 29 L 12 29 Z M 34 19 L 36 19 L 36 17 L 34 17 Z M 12 31 L 28 31 L 28 29 L 12 29 Z M 12 31 L 28 31 L 28 29 L 12 29 Z M 12 31 "/>
<path style=" stroke:none;fill-rule:nonzero;fill:rgb(0%,0%,0%);fill-opacity:1;" d="M 38 26.289062 C 37.371094 26.101562 36.699219 26 36 26 L 36 21 L 34 21 L 34 26.289062 C 33.28125 26.5 32.601562 26.828125 32 27.261719 L 32 15 L 38 15 Z M 37 34 L 35 34 L 35 29 L 37 29 Z M 37 37 L 35 37 L 35 35 L 37 35 Z M 30 29.398438 C 29.359375 30.449219 29 31.679688 29 33 L 10 33 L 10 15 L 30 15 Z M 40 27.261719 L 40 13 L 8 13 L 8 35 L 29.289062 35 C 30.148438 37.890625 32.820312 40 36 40 C 39.871094 40 43 36.871094 43 33 C 43 30.621094 41.820312 28.519531 40 27.261719 "/>
</g>
</svg>
