<?xml version="1.0" encoding="UTF-8"?>
<svg xmlns="http://www.w3.org/2000/svg" xmlns:xlink="http://www.w3.org/1999/xlink" width="48pt" height="48pt" viewBox="0 0 48 48" version="1.1">
<g id="surface1">
<path style=" stroke:none;fill-rule:nonzero;fill:rgb(0%,0%,0%);fill-opacity:1;" d="M 32 15 L 30 15 L 30 13 L 32 13 Z M 34 16 L 21 16 L 21 12 L 34 12 Z M 34 36 L 14 36 L 14 18 L 34 18 Z M 14 12 L 19 12 L 19 16 L 14 16 Z M 36 10 L 11 10 L 11 12 L 12 12 L 12 38 L 36 38 L 36 12 L 37 12 L 37 10 Z M 24 22 C 26.414062 22 28.433594 23.722656 28.898438 26 L 26 26 L 26 28 L 28.898438 28 C 28.433594 30.277344 26.414062 32 24 32 C 21.242188 32 19 29.757812 19 27 C 19 24.242188 21.242188 22 24 22 M 24 34 C 27.859375 34 31 30.859375 31 27 C 31 23.140625 27.859375 20 24 20 C 20.140625 20 17 23.140625 17 27 C 17 30.859375 20.140625 34 24 34 "/>
</g>
</svg>
