<?xml version="1.0" encoding="UTF-8"?>
<svg xmlns="http://www.w3.org/2000/svg" xmlns:xlink="http://www.w3.org/1999/xlink" width="48pt" height="48pt" viewBox="0 0 48 48" version="1.1">
<g id="surface1">
<path style=" stroke:none;fill-rule:nonzero;fill:rgb(0%,0%,0%);fill-opacity:1;" d="M 33.003906 21 L 25 21 L 25 18 L 33 18 L 33 20 L 33.003906 20 Z M 33 27 L 25 27 L 25 23 L 33 23 Z M 33 33 L 15 33 L 15 29 L 33 29 Z M 15 18 L 23 18 L 23 27 L 15 27 Z M 15 12 L 33 12 L 33 16 L 15 16 Z M 24 10 L 13 10 L 13 37 L 15 37 L 15 35 L 33 35 L 33 37 L 35 37 L 35 10 Z M 24 10 "/>
</g>
</svg>
