<?xml version="1.0" encoding="UTF-8"?>
<svg xmlns="http://www.w3.org/2000/svg" xmlns:xlink="http://www.w3.org/1999/xlink" width="48pt" height="48pt" viewBox="0 0 48 48" version="1.1">
<g id="surface1">
<path style=" stroke:none;fill-rule:nonzero;fill:rgb(0%,0%,0%);fill-opacity:1;" d="M 16 30 L 27 30 L 27 32 L 16 32 Z M 34 31 L 31 31 L 31 17 L 34 17 Z M 29 34 L 14 34 L 14 14.5 C 14 13.671875 14.671875 13 15.5 13 L 29.351562 13 C 29.132812 13.457031 29 13.960938 29 14.5 Z M 34 14.5 L 34 15 L 31 15 L 31 14.5 C 31 13.671875 31.671875 13 32.5 13 C 33.328125 13 34 13.671875 34 14.5 M 39 15 L 36 15 L 36 14.5 C 36 12.570312 34.429688 11 32.5 11 L 15.5 11 C 13.570312 11 12 12.570312 12 14.5 L 12 15 L 9 15 L 9 17 L 12 17 L 12 36 L 31 36 L 31 33 L 36 33 L 36 17 L 39 17 Z M 39 15 "/>
</g>
</svg>
