<?xml version="1.0" encoding="UTF-8"?>
<svg xmlns="http://www.w3.org/2000/svg" xmlns:xlink="http://www.w3.org/1999/xlink" width="48pt" height="48pt" viewBox="0 0 48 48" version="1.1">
<g id="surface1">
<path style=" stroke:none;fill-rule:nonzero;fill:rgb(0%,0%,0%);fill-opacity:1;" d="M 41 32 L 38 32 L 38 29 L 36 29 L 36 34 L 41 34 Z M 30.292969 35 C 30.105469 34.367188 30 33.695312 30 33 C 30 32.660156 30.03125 32.328125 30.078125 32 L 17.5 32 C 16.671875 32 16 32.671875 16 33.5 C 16 34.328125 16.671875 35 17.5 35 Z M 16 30.351562 C 16.457031 30.132812 16.960938 30 17.5 30 L 30.683594 30 C 31.039062 29.25 31.519531 28.574219 32.105469 28 L 32 28 L 32 12 L 16 12 Z M 44 33 C 44 36.867188 40.867188 40 37 40 C 34.621094 40 32.523438 38.8125 31.261719 37 L 17.5 37 C 15.570312 37 14 35.429688 14 33.5 L 14 10 L 34 10 L 34 26.683594 C 34.910156 26.25 35.925781 26 37 26 C 40.867188 26 44 29.132812 44 33 M 27 17 L 21 17 L 21 15 L 27 15 Z M 27 17 "/>
</g>
</svg>
