<?xml version="1.0" encoding="UTF-8"?>
<svg xmlns="http://www.w3.org/2000/svg" xmlns:xlink="http://www.w3.org/1999/xlink" width="48pt" height="48pt" viewBox="0 0 48 48" version="1.1">
<g id="surface1">
<path style=" stroke:none;fill-rule:nonzero;fill:rgb(0%,0%,0%);fill-opacity:1;" d="M 24.027344 32.957031 C 20.292969 31.761719 15.34375 31.679688 11 32.710938 L 11 30.785156 C 15.382812 29.707031 20.175781 29.75 23.675781 30.945312 L 23.96875 31.046875 L 24.269531 30.964844 C 28.578125 29.765625 33.367188 29.703125 37 30.753906 L 37 32.652344 C 33.335938 31.679688 28.445312 31.777344 24.027344 32.957031 M 11 13.734375 C 14.425781 12.746094 18.890625 12.773438 23 13.785156 L 23 28.675781 C 21.253906 28.230469 19.335938 27.992188 17.335938 27.992188 C 15.257812 27.992188 13.105469 28.234375 11 28.714844 Z M 37 13.769531 L 37 28.660156 C 33.441406 27.753906 29.128906 27.78125 25 28.726562 L 25 13.75 C 28.425781 12.761719 32.882812 12.761719 37 13.769531 M 38.269531 12.035156 C 33.367188 10.675781 28.050781 10.644531 23.972656 11.957031 C 19.039062 10.640625 13.714844 10.675781 9.675781 12.054688 L 9 12.285156 L 9 35.351562 L 10.285156 34.96875 C 14.585938 33.6875 19.964844 33.679688 23.675781 34.945312 L 23.96875 35.046875 L 24.269531 34.964844 C 28.875 33.679688 34.253906 33.675781 37.648438 34.953125 L 39 35.464844 L 39 12.238281 Z M 38.269531 12.035156 "/>
</g>
</svg>
