<?xml version="1.0" encoding="UTF-8"?>
<svg xmlns="http://www.w3.org/2000/svg" xmlns:xlink="http://www.w3.org/1999/xlink" width="48pt" height="48pt" viewBox="0 0 48 48" version="1.1">
<g id="surface1">
<path style=" stroke:none;fill-rule:nonzero;fill:rgb(0%,0%,0%);fill-opacity:1;" d="M 25 23 L 29 23 L 29 25 L 23 25 L 23 19 L 25 19 Z M 31 30.667969 C 31 30.851562 30.851562 31 30.664062 31 L 17.335938 31 C 17.148438 31 17 30.851562 17 30.667969 L 17 17.332031 C 17 17.148438 17.148438 17 17.335938 17 L 30.664062 17 C 30.851562 17 31 17.148438 31 17.332031 Z M 25.132812 38 L 22.867188 38 L 22.152344 33 L 25.847656 33 Z M 22.867188 10 L 25.132812 10 L 25.847656 15 L 22.152344 15 Z M 30.664062 15 L 27.867188 15 L 26.867188 8 L 21.132812 8 L 20.132812 15 L 17.335938 15 C 16.046875 15 15 16.046875 15 17.332031 L 15 30.667969 C 15 31.953125 16.046875 33 17.335938 33 L 20.132812 33 L 21.132812 40 L 26.867188 40 L 27.867188 33 L 30.664062 33 C 31.953125 33 33 31.953125 33 30.667969 L 33 17.332031 C 33 16.046875 31.953125 15 30.664062 15 "/>
</g>
</svg>
