<?xml version="1.0" encoding="UTF-8"?>
<svg xmlns="http://www.w3.org/2000/svg" xmlns:xlink="http://www.w3.org/1999/xlink" width="48pt" height="48pt" viewBox="0 0 48 48" version="1.1">
<g id="surface1">
<path style=" stroke:none;fill-rule:nonzero;fill:rgb(0%,0%,0%);fill-opacity:1;" d="M 28 15 L 25 15 L 25 12 L 23 12 L 23 17 L 28 17 Z M 18 16 C 18 19.308594 20.691406 22 24 22 C 27.308594 22 30 19.308594 30 16 C 30 12.691406 27.308594 10 24 10 C 20.691406 10 18 12.691406 18 16 M 16 16 C 16 11.589844 19.589844 8 24 8 C 28.410156 8 32 11.589844 32 16 C 32 20.410156 28.410156 24 24 24 C 19.589844 24 16 20.410156 16 16 M 10 38 L 12 38 L 12 23 L 10 23 Z M 40.621094 29.5 C 40.621094 30.335938 40.296875 31.117188 39.707031 31.707031 L 34.414062 37 L 14 37 L 14 35 L 33.585938 35 L 38.292969 30.292969 C 38.503906 30.082031 38.621094 29.800781 38.621094 29.5 C 38.621094 29.199219 38.503906 28.917969 38.292969 28.707031 C 37.855469 28.269531 37.144531 28.269531 36.707031 28.707031 L 32.414062 33 L 22 33 L 22 31 L 27 31 C 27.550781 31 28 30.550781 28 30 C 28 29.449219 27.550781 29 27 29 L 22.765625 29 L 18.765625 27 L 14 27 L 14 25 L 19.234375 25 L 23.234375 27 L 27 27 C 28.652344 27 30 28.347656 30 30 C 30 30.351562 29.929688 30.6875 29.816406 31 L 31.585938 31 L 35.292969 27.292969 C 36.511719 26.074219 38.488281 26.074219 39.707031 27.292969 C 40.296875 27.882812 40.621094 28.664062 40.621094 29.5 "/>
</g>
</svg>
