<?xml version="1.0" encoding="UTF-8"?>
<svg xmlns="http://www.w3.org/2000/svg" xmlns:xlink="http://www.w3.org/1999/xlink" width="48pt" height="48pt" viewBox="0 0 48 48" version="1.1">
<g id="surface1">
<path style=" stroke:none;fill-rule:nonzero;fill:rgb(0%,0%,0%);fill-opacity:1;" d="M 24 12 C 17.382812 12 12 17.382812 12 24 C 12 30.617188 17.382812 36 24 36 C 30.617188 36 36 30.617188 36 24 C 36 17.382812 30.617188 12 24 12 M 24 38 C 16.28125 38 10 31.71875 10 24 C 10 16.28125 16.28125 10 24 10 C 31.71875 10 38 16.28125 38 24 C 38 31.71875 31.71875 38 24 38 M 33 23 L 33 25 L 23 25 L 23 15 L 25 15 L 25 23 Z M 33 23 "/>
</g>
</svg>
