<?xml version="1.0" encoding="UTF-8"?>
<svg xmlns="http://www.w3.org/2000/svg" xmlns:xlink="http://www.w3.org/1999/xlink" width="48pt" height="48pt" viewBox="0 0 48 48" version="1.1">
<g id="surface1">
<path style=" stroke:none;fill-rule:nonzero;fill:rgb(0%,0%,0%);fill-opacity:1;" d="M 41 32.5 L 40.25 32.5 L 40.941406 30 L 39.230469 30 L 38.488281 33 L 37.71875 30 L 36.179688 30 L 35.851562 31.449219 L 35.488281 33 L 35.308594 32.238281 L 34.78125 30 L 33.058594 30 L 33.441406 31.390625 L 33.75 32.5 L 33 32.5 L 33 33.5 L 34.03125 33.5 L 34.089844 33.699219 L 34.71875 36 L 36.269531 36 L 36.96875 33.089844 L 37.71875 36 L 39.28125 36 L 39.96875 33.5 L 41 33.5 Z M 30.128906 34.3125 C 30.039062 33.890625 30 33.449219 30 33 C 30 29.539062 32.511719 26.671875 35.808594 26.109375 C 35.941406 25.421875 36 24.71875 36 24 C 36 17.378906 30.621094 12 24 12 C 17.378906 12 12 17.378906 12 24 C 12 30.621094 17.378906 36 24 36 C 26.238281 36 28.339844 35.390625 30.128906 34.3125 M 44 33 C 44 36.871094 40.871094 40 37 40 C 34.300781 40 31.960938 38.480469 30.789062 36.238281 C 28.78125 37.359375 26.460938 38 24 38 C 16.28125 38 10 31.71875 10 24 C 10 16.28125 16.28125 10 24 10 C 31.71875 10 38 16.28125 38 24 C 38 24.699219 37.949219 25.390625 37.851562 26.0625 C 41.320312 26.46875 44 29.421875 44 33 M 33 25 L 23 25 L 23 15 L 25 15 L 25 23 L 33 23 Z M 33 25 "/>
</g>
</svg>
