<?xml version="1.0" encoding="UTF-8"?>
<svg xmlns="http://www.w3.org/2000/svg" xmlns:xlink="http://www.w3.org/1999/xlink" width="48pt" height="48pt" viewBox="0 0 48 48" version="1.1">
<g id="surface1">
<path style=" stroke:none;fill-rule:nonzero;fill:rgb(0%,0%,0%);fill-opacity:1;" d="M 25 27.855469 C 25.363281 27.761719 25.703125 27.621094 26.019531 27.433594 L 32.445312 33.863281 C 30.410156 35.609375 27.832031 36.730469 25 36.949219 Z M 24 26 C 22.898438 26 22 25.101562 22 24 C 22 22.898438 22.898438 22 24 22 C 25.101562 22 26 22.898438 26 24 C 26 25.101562 25.101562 26 24 26 M 11 24 C 11 16.832031 16.832031 11 24 11 C 31.167969 11 37 16.832031 37 24 C 37 27.222656 35.8125 30.171875 33.859375 32.449219 L 27.433594 26.019531 C 27.785156 25.421875 28 24.742188 28 24 C 28 21.792969 26.207031 20 24 20 C 21.792969 20 20 21.792969 20 24 C 20 25.859375 21.28125 27.410156 23 27.855469 L 23 36.949219 C 16.296875 36.433594 11 30.832031 11 24 M 24 9 C 15.730469 9 9 15.726562 9 24 C 9 32.269531 15.730469 39 24 39 C 32.269531 39 39 32.269531 39 24 C 39 15.726562 32.269531 9 24 9 "/>
</g>
</svg>
