<?xml version="1.0" encoding="UTF-8"?>
<svg xmlns="http://www.w3.org/2000/svg" xmlns:xlink="http://www.w3.org/1999/xlink" width="48pt" height="48pt" viewBox="0 0 48 48" version="1.1">
<g id="surface1">
<path style=" stroke:none;fill-rule:nonzero;fill:rgb(0%,0%,0%);fill-opacity:1;" d="M 42 28.363281 L 42 35 L 10 35 L 10 33 L 40 33 L 40 29.636719 L 24 22.105469 L 8 29.636719 L 8 35 L 6 35 L 6 28.363281 L 23 20.363281 L 23 18.863281 C 23 17.9375 23.621094 17.140625 24.507812 16.925781 C 25.847656 16.601562 26 15.671875 26 15 C 26 13.097656 24.335938 13 24 13 C 23.535156 13.007812 22 13.175781 22 15 L 20 15 C 20 12.066406 22.394531 11 24 11 C 25.605469 11 28 12.066406 28 15 C 28 16.996094 26.898438 18.40625 24.980469 18.871094 L 24.992188 20.359375 Z M 42 28.363281 "/>
</g>
</svg>
