<?xml version="1.0" encoding="UTF-8"?>
<svg xmlns="http://www.w3.org/2000/svg" xmlns:xlink="http://www.w3.org/1999/xlink" width="48pt" height="48pt" viewBox="0 0 48 48" version="1.1">
<g id="surface1">
<path style=" stroke:none;fill-rule:nonzero;fill:rgb(0%,0%,0%);fill-opacity:1;" d="M 30.140625 21.488281 C 29.941406 20.636719 30.050781 19.761719 30.4375 19 L 19.792969 19 L 16.738281 31.96875 C 16.625 32.464844 16.738281 32.976562 17.054688 33.375 C 17.367188 33.769531 17.839844 34 18.347656 34 L 31 34 C 31.507812 34 31.980469 33.769531 32.292969 33.375 C 32.609375 32.976562 32.722656 32.464844 32.605469 31.96875 Z M 37 17 L 37 24 L 35 24 L 35 19 L 33.695312 19 C 33.1875 19 32.714844 19.226562 32.402344 19.628906 C 32.085938 20.023438 31.972656 20.535156 32.089844 21.03125 L 34.554688 31.511719 C 34.8125 32.605469 34.558594 33.734375 33.863281 34.617188 C 33.164062 35.496094 32.121094 36 31 36 L 18.347656 36 C 17.226562 36 16.183594 35.496094 15.484375 34.617188 C 14.789062 33.734375 14.535156 32.605469 14.792969 31.511719 L 15.898438 26.816406 L 12.261719 15 L 10 15 L 10 13 L 13.738281 13 L 16.804688 22.964844 L 18.207031 17 Z M 22 16 L 20 16 C 20 13.585938 21.71875 11.566406 24 11.101562 L 24 9 L 26 9 L 26 11.101562 C 28.277344 11.566406 30 13.585938 30 16 L 28 16 C 28 14.34375 26.652344 13 25 13 C 23.34375 13 22 14.34375 22 16 "/>
</g>
</svg>
