<?xml version="1.0" encoding="UTF-8"?>
<svg xmlns="http://www.w3.org/2000/svg" xmlns:xlink="http://www.w3.org/1999/xlink" width="48pt" height="48pt" viewBox="0 0 48 48" version="1.1">
<g id="surface1">
<path style=" stroke:none;fill-rule:nonzero;fill:rgb(0%,0%,0%);fill-opacity:1;" d="M 38 34 L 36 34 L 36 29 L 38 29 Z M 38 37 L 36 37 L 36 35 L 38 35 Z M 16 33 C 15.449219 33 15 32.550781 15 32 L 15 14 L 33 14 L 33 27.261719 C 32.191406 27.820312 31.511719 28.550781 31 29.398438 L 31 28 L 17 28 L 17 30 L 30.679688 30 C 30.238281 30.910156 30 31.921875 30 33 Z M 35 18 C 37.761719 18 40 20.238281 40 23 C 40 24.238281 39.550781 25.371094 38.808594 26.238281 C 38.230469 26.078125 37.628906 26 37 26 C 36.300781 26 35.628906 26.101562 35 26.289062 Z M 40.699219 27.0625 C 41.519531 25.910156 42 24.511719 42 23 C 42 19.140625 38.859375 16 35 16 L 35 12 L 13 12 L 13 32 C 13 33.648438 14.351562 35 16 35 L 30.289062 35 C 31.148438 37.890625 33.820312 40 37 40 C 40.871094 40 44 36.871094 44 33 C 44 30.488281 42.679688 28.289062 40.699219 27.0625 "/>
</g>
</svg>
