<?xml version="1.0" encoding="UTF-8"?>
<svg xmlns="http://www.w3.org/2000/svg" xmlns:xlink="http://www.w3.org/1999/xlink" width="48pt" height="48pt" viewBox="0 0 48 48" version="1.1">
<g id="surface1">
<path style=" stroke:none;fill-rule:nonzero;fill:rgb(0%,0%,0%);fill-opacity:1;" d="M 28 24 L 30 24 C 30 27.308594 27.308594 30 24 30 C 20.691406 30 18 27.308594 18 24 L 20 24 C 20 26.207031 21.792969 28 24 28 C 26.207031 28 28 26.207031 28 24 M 35 28 L 34.234375 28 C 34.722656 26.757812 35 25.410156 35 24 L 35 18 C 37.757812 18 40 20.242188 40 23 C 40 25.757812 37.757812 28 35 28 M 24 33 C 19.035156 33 15 28.964844 15 24 L 15 14 L 33 14 L 33 24 C 33 25.4375 32.652344 26.792969 32.050781 28 L 32 28 L 32 28.105469 C 30.503906 31.007812 27.484375 33 24 33 M 35 16 L 35 12 L 13 12 L 13 24 C 13 27.71875 14.859375 31.007812 17.695312 33 L 13 33 L 13 35 L 35 35 L 35 33 L 30.304688 33 C 31.453125 32.191406 32.4375 31.175781 33.207031 30 L 35 30 C 38.859375 30 42 26.859375 42 23 C 42 19.140625 38.859375 16 35 16 "/>
</g>
</svg>
