<?xml version="1.0" encoding="UTF-8"?>
<svg xmlns="http://www.w3.org/2000/svg" xmlns:xlink="http://www.w3.org/1999/xlink" width="48pt" height="48pt" viewBox="0 0 48 48" version="1.1">
<g id="surface1">
<path style=" stroke:none;fill-rule:nonzero;fill:rgb(0%,0%,0%);fill-opacity:1;" d="M 31.804688 15.292969 C 32.292969 13.824219 31.84375 12.199219 30.679688 11.25 C 30.234375 10.886719 30.070312 10.246094 30.265625 9.652344 C 30.464844 9.0625 30.984375 8.648438 31.554688 8.625 L 31.464844 6.386719 C 29.96875 6.445312 28.632812 7.476562 28.140625 8.945312 C 27.652344 10.414062 28.101562 12.039062 29.265625 12.984375 C 29.710938 13.351562 29.875 13.992188 29.679688 14.585938 C 29.480469 15.179688 28.964844 15.59375 28.390625 15.613281 L 28.480469 17.851562 C 29.976562 17.792969 31.3125 16.765625 31.804688 15.292969 M 26.074219 15.292969 C 26.566406 13.824219 26.113281 12.199219 24.949219 11.25 C 24.503906 10.886719 24.339844 10.246094 24.535156 9.652344 C 24.734375 9.0625 25.253906 8.648438 25.824219 8.625 L 25.738281 6.386719 C 24.238281 6.445312 22.902344 7.476562 22.410156 8.945312 C 21.921875 10.414062 22.375 12.039062 23.535156 12.984375 C 23.980469 13.351562 24.148438 13.992188 23.949219 14.585938 C 23.75 15.179688 23.234375 15.59375 22.660156 15.613281 L 22.75 17.851562 C 24.25 17.792969 25.585938 16.765625 26.074219 15.292969 M 17.28125 17.851562 L 17.191406 15.613281 C 17.765625 15.59375 18.285156 15.179688 18.480469 14.585938 C 18.679688 13.992188 18.511719 13.351562 18.066406 12.984375 C 16.90625 12.039062 16.453125 10.414062 16.941406 8.945312 C 17.433594 7.476562 18.769531 6.445312 20.269531 6.386719 L 20.359375 8.625 C 19.785156 8.648438 19.265625 9.0625 19.066406 9.652344 C 18.871094 10.246094 19.035156 10.886719 19.480469 11.25 C 20.644531 12.199219 21.09375 13.824219 20.605469 15.292969 C 20.117188 16.765625 18.78125 17.792969 17.28125 17.851562 M 20 34 L 28 34 L 28 36 L 20 36 Z M 29.925781 38 L 18.074219 38 L 17.054688 23 L 30.945312 23 Z M 33.054688 21 L 14 21 L 14 23 L 15.050781 23 L 16.175781 40 L 31.824219 40 L 32.949219 23 L 34 23 L 34 21 Z M 33.054688 21 "/>
</g>
</svg>
