<?xml version="1.0" encoding="UTF-8"?>
<svg xmlns="http://www.w3.org/2000/svg" xmlns:xlink="http://www.w3.org/1999/xlink" width="48pt" height="48pt" viewBox="0 0 48 48" version="1.1">
<g id="surface1">
<path style=" stroke:none;fill-rule:nonzero;fill:rgb(0%,0%,0%);fill-opacity:1;" d="M 24.996094 12.070312 C 24.996094 12.625 24.542969 13.074219 23.992188 13.074219 C 23.722656 13.074219 23.476562 12.96875 23.285156 12.777344 C 23.09375 12.585938 22.988281 12.339844 22.988281 12.070312 C 22.996094 11.796875 23.101562 11.546875 23.285156 11.363281 C 23.46875 11.179688 23.71875 11.074219 23.992188 11.066406 C 24.261719 11.066406 24.507812 11.171875 24.699219 11.363281 C 24.890625 11.554688 24.996094 11.800781 24.996094 12.070312 M 26.820312 6.414062 L 25.40625 5 L 23.992188 6.414062 L 22.578125 5 L 21.164062 6.414062 L 22.996094 8.246094 L 22.988281 9.257812 C 22.148438 9.558594 21.480469 10.226562 21.179688 11.066406 L 20.167969 11.074219 L 18.335938 9.242188 L 16.921875 10.65625 L 18.335938 12.070312 L 16.921875 13.484375 L 18.335938 14.898438 L 20.167969 13.066406 L 21.171875 13.066406 C 21.320312 13.484375 21.554688 13.875 21.871094 14.191406 C 22.1875 14.511719 22.578125 14.746094 22.996094 14.890625 L 22.996094 15.894531 L 21.164062 17.726562 L 22.578125 19.140625 L 23.992188 17.726562 L 25.40625 19.140625 L 26.820312 17.726562 L 24.988281 15.894531 L 24.996094 14.886719 C 25.414062 14.738281 25.804688 14.503906 26.113281 14.191406 C 26.425781 13.882812 26.65625 13.492188 26.808594 13.074219 L 27.816406 13.066406 L 29.648438 14.898438 L 31.0625 13.484375 L 29.648438 12.070312 L 31.0625 10.65625 L 29.648438 9.242188 L 27.816406 11.074219 L 26.8125 11.074219 C 26.667969 10.65625 26.433594 10.265625 26.113281 9.949219 C 25.796875 9.632812 25.40625 9.398438 24.988281 9.25 L 24.988281 8.246094 Z M 20 34 L 28 34 L 28 36 L 20 36 Z M 29.925781 38 L 18.074219 38 L 17.054688 23 L 30.945312 23 Z M 33.054688 21 L 14 21 L 14 23 L 15.054688 23 L 16.179688 40 L 31.824219 40 L 32.945312 23 L 34 23 L 34 21 Z M 33.054688 21 "/>
</g>
</svg>
