<?xml version="1.0" encoding="UTF-8"?>
<svg xmlns="http://www.w3.org/2000/svg" xmlns:xlink="http://www.w3.org/1999/xlink" width="48pt" height="48pt" viewBox="0 0 48 48" version="1.1">
<g id="surface1">
<path style=" stroke:none;fill-rule:nonzero;fill:rgb(0%,0%,0%);fill-opacity:1;" d="M 24 26 C 22.128906 26 20.371094 25.269531 19.050781 23.949219 L 20.464844 22.535156 C 21.40625 23.480469 22.664062 24 24 24 C 25.335938 24 26.589844 23.480469 27.535156 22.535156 L 28.949219 23.949219 C 27.628906 25.269531 25.867188 26 24 26 M 20.464844 15.464844 L 19.050781 14.050781 C 20.371094 12.730469 22.128906 12 24 12 C 25.867188 12 27.628906 12.730469 28.949219 14.050781 L 27.535156 15.464844 C 26.589844 14.519531 25.335938 14 24 14 C 22.664062 14 21.40625 14.519531 20.464844 15.464844 M 25 19 C 25 19.550781 24.550781 20 24 20 C 23.449219 20 23 19.550781 23 19 C 23 18.449219 23.449219 18 24 18 C 24.550781 18 25 18.449219 25 19 M 21 19 C 21 20.652344 22.347656 22 24 22 C 25.652344 22 27 20.652344 27 19 C 27 17.347656 25.652344 16 24 16 C 22.347656 16 21 17.347656 21 19 M 15 19 C 15 14.035156 19.035156 10 24 10 C 28.960938 10 33 14.035156 33 19 C 33 23.964844 28.960938 28 24 28 C 19.035156 28 15 23.964844 15 19 M 35 19 C 35 12.933594 30.0625 8 24 8 C 17.933594 8 13 12.933594 13 19 C 13 24.726562 17.402344 29.441406 23 29.949219 L 23 37 L 19 37 L 19 39 L 29 39 L 29 37 L 25 37 L 25 29.949219 C 30.597656 29.441406 35 24.726562 35 19 "/>
</g>
</svg>
