<?xml version="1.0" encoding="UTF-8"?>
<svg xmlns="http://www.w3.org/2000/svg" xmlns:xlink="http://www.w3.org/1999/xlink" width="48pt" height="48pt" viewBox="0 0 48 48" version="1.1">
<g id="surface1">
<path style=" stroke:none;fill-rule:nonzero;fill:rgb(0%,0%,0%);fill-opacity:1;" d="M 20 34 L 28 34 L 28 36 L 20 36 Z M 31 36.011719 C 31 36.554688 30.554688 37 30.007812 37 L 17.988281 37 C 17.441406 37 17 36.554688 17 36.011719 L 17 11.988281 C 17 11.445312 17.441406 11 17.988281 11 L 18.277344 11 L 18.824219 12.632812 C 19.097656 13.449219 19.855469 14 20.71875 14 L 27.277344 14 C 28.140625 14 28.902344 13.449219 29.175781 12.632812 L 29.71875 11 L 30.007812 11 C 30.554688 11 31 11.445312 31 11.988281 Z M 27.609375 11 L 27.277344 12 L 20.71875 12 L 20.386719 11 Z M 30.007812 9 L 17.988281 9 C 16.339844 9 15 10.34375 15 11.988281 L 15 36.011719 C 15 37.65625 16.339844 39 17.988281 39 L 30.007812 39 C 31.65625 39 33 37.65625 33 36.011719 L 33 11.988281 C 33 10.34375 31.65625 9 30.007812 9 "/>
</g>
</svg>
