<?xml version="1.0" encoding="UTF-8"?>
<svg xmlns="http://www.w3.org/2000/svg" xmlns:xlink="http://www.w3.org/1999/xlink" width="48pt" height="48pt" viewBox="0 0 48 48" version="1.1">
<g id="surface1">
<path style=" stroke:none;fill-rule:nonzero;fill:rgb(0%,0%,0%);fill-opacity:1;" d="M 38.414062 33 L 40.707031 30.707031 L 39.292969 29.292969 L 37 31.585938 L 34.707031 29.292969 L 33.292969 30.707031 L 35.585938 33 L 33.292969 35.292969 L 34.707031 36.707031 L 37 34.414062 L 39.292969 36.707031 L 40.707031 35.292969 Z M 30.898438 36.425781 C 30.328125 35.414062 30 34.246094 30 33 C 30 31.6875 30.367188 30.460938 31 29.410156 L 31 11.988281 C 31 11.441406 30.554688 11 30.007812 11 L 29.71875 11 L 29.175781 12.632812 C 28.902344 13.449219 28.140625 14 27.277344 14 L 20.71875 14 C 19.855469 14 19.097656 13.449219 18.824219 12.632812 L 18.277344 11 L 17.988281 11 C 17.441406 11 17 11.441406 17 11.988281 L 17 36.011719 C 17 36.554688 17.441406 37 17.988281 37 L 30.007812 37 C 30.402344 37 30.742188 36.761719 30.898438 36.425781 M 20.386719 11 L 20.71875 12 L 27.277344 12 L 27.613281 11 Z M 44 33 C 44 36.867188 40.867188 40 37 40 C 35.125 40 33.429688 39.261719 32.171875 38.0625 C 31.628906 38.636719 30.863281 39 30.007812 39 L 17.988281 39 C 16.339844 39 15 37.65625 15 36.011719 L 15 11.988281 C 15 10.34375 16.339844 9 17.988281 9 L 30.007812 9 C 31.65625 9 33 10.34375 33 11.988281 L 33 27.261719 C 34.132812 26.46875 35.511719 26 37 26 C 40.867188 26 44 29.132812 44 33 M 20 34 L 28 34 L 28 36 L 20 36 Z M 20 34 "/>
</g>
</svg>
