<?xml version="1.0" encoding="UTF-8"?>
<svg xmlns="http://www.w3.org/2000/svg" xmlns:xlink="http://www.w3.org/1999/xlink" width="48pt" height="48pt" viewBox="0 0 48 48" version="1.1">
<g id="surface1">
<path style=" stroke:none;fill-rule:nonzero;fill:rgb(0%,0%,0%);fill-opacity:1;" d="M 28 34 L 20 34 L 20 36 L 28 36 Z M 15 11 C 14.449219 11 14 11.449219 14 12 L 14 36 C 14 36.550781 14.449219 37 15 37 L 33 37 C 33.550781 37 34 36.550781 34 36 L 34 12 C 34 11.449219 33.550781 11 33 11 Z M 33 39 L 15 39 C 13.347656 39 12 37.652344 12 36 L 12 12 C 12 10.347656 13.347656 9 15 9 L 33 9 C 34.652344 9 36 10.347656 36 12 L 36 36 C 36 37.652344 34.652344 39 33 39 "/>
</g>
</svg>
