<?xml version="1.0" encoding="UTF-8"?>
<svg xmlns="http://www.w3.org/2000/svg" xmlns:xlink="http://www.w3.org/1999/xlink" width="48pt" height="48pt" viewBox="0 0 48 48" version="1.1">
<g id="surface1">
<path style=" stroke:none;fill-rule:nonzero;fill:rgb(0%,0%,0%);fill-opacity:1;" d="M 27 19 L 25 19 L 25 15 L 27 15 Z M 21 15 L 23 15 L 23 19 L 21 19 Z M 32 36 C 32 36.550781 31.550781 37 31 37 L 17 37 C 16.449219 37 16 36.550781 16 36 L 16 24 L 32 24 Z M 18 12 L 30 12 L 30 22 L 18 22 Z M 32 22 L 32 10 L 16 10 L 16 22 L 14 22 L 14 36 C 14 37.652344 15.347656 39 17 39 L 31 39 C 32.652344 39 34 37.652344 34 36 L 34 22 Z M 32 22 "/>
</g>
</svg>
