<?xml version="1.0" encoding="UTF-8"?>
<svg xmlns="http://www.w3.org/2000/svg" xmlns:xlink="http://www.w3.org/1999/xlink" width="48pt" height="48pt" viewBox="0 0 48 48" version="1.1">
<g id="surface1">
<path style=" stroke:none;fill-rule:nonzero;fill:rgb(0%,0%,0%);fill-opacity:1;" d="M 15 27 C 14.449219 27 14 26.550781 14 26 L 14 19 L 22 19 L 22 26 C 22 26.550781 21.550781 27 21 27 Z M 15 12 L 17 12 L 17 15 L 19 15 L 19 12 L 21 12 L 21 17 L 15 17 Z M 32 20 C 30.347656 20 29 21.347656 29 23 L 29 31 C 29 33.757812 26.757812 36 24 36 C 21.242188 36 19 33.757812 19 31 L 19 29 L 21 29 C 22.652344 29 24 27.652344 24 26 L 24 17 L 23 17 L 23 10 L 13 10 L 13 17 L 12 17 L 12 26 C 12 27.652344 13.347656 29 15 29 L 17 29 L 17 31 C 17 34.859375 20.140625 38 24 38 C 27.859375 38 31 34.859375 31 31 L 31 23 C 31 22.449219 31.449219 22 32 22 L 38 22 L 38 20 Z M 32 20 "/>
</g>
</svg>
