<?xml version="1.0" encoding="UTF-8"?>
<svg xmlns="http://www.w3.org/2000/svg" xmlns:xlink="http://www.w3.org/1999/xlink" width="48pt" height="48pt" viewBox="0 0 48 48" version="1.1">
<g id="surface1">
<path style=" stroke:none;fill-rule:nonzero;fill:rgb(0%,0%,0%);fill-opacity:1;" d="M 32 21 L 31 21 L 31 26.5 C 31 27.328125 30.328125 28 29.5 28 C 28.671875 28 28 27.328125 28 26.5 L 28 17 C 28 14.792969 29.792969 13 32 13 C 33.859375 13 35.410156 14.277344 35.859375 16 L 34 16 L 34 18 L 35.859375 18 C 35.410156 19.722656 33.859375 21 32 21 M 32 11 C 28.691406 11 26 13.691406 26 17 L 26 26.5 C 26 28.078125 27.058594 29.402344 28.5 29.835938 L 28.5 37 L 30.5 37 L 30.5 29.835938 C 31.941406 29.402344 33 28.078125 33 26.5 L 33 22.917969 C 35.835938 22.4375 38 19.96875 38 17 C 38 13.691406 35.308594 11 32 11 M 20 26.5 C 20 27.328125 19.328125 28 18.5 28 C 17.671875 28 17 27.328125 17 26.5 L 17 21 L 16 21 C 14.140625 21 12.589844 19.722656 12.140625 18 L 14 18 L 14 16 L 12.140625 16 C 12.589844 14.277344 14.140625 13 16 13 C 18.207031 13 20 14.792969 20 17 Z M 16 11 C 12.691406 11 10 13.691406 10 17 C 10 19.96875 12.164062 22.4375 15 22.917969 L 15 26.5 C 15 28.078125 16.058594 29.402344 17.5 29.835938 L 17.5 37 L 19.5 37 L 19.5 29.835938 C 20.941406 29.402344 22 28.078125 22 26.5 L 22 17 C 22 13.691406 19.308594 11 16 11 "/>
</g>
</svg>
