<?xml version="1.0" encoding="UTF-8"?>
<svg xmlns="http://www.w3.org/2000/svg" xmlns:xlink="http://www.w3.org/1999/xlink" width="48pt" height="48pt" viewBox="0 0 48 48" version="1.1">
<g id="surface1">
<path style=" stroke:none;fill-rule:nonzero;fill:rgb(0%,0%,0%);fill-opacity:1;" d="M 23 19 L 25 19 L 25 26 L 23 26 Z M 31 23 L 31 29 C 31 32.859375 27.859375 36 24 36 C 20.140625 36 17 32.859375 17 29 L 17 23 C 17 19.140625 20.140625 16 24 16 C 27.859375 16 31 19.140625 31 23 M 35 7 C 35 8.824219 33.464844 8.992188 33 9 L 29 9 C 24.910156 9 23.414062 11.914062 23.082031 14.046875 C 18.546875 14.507812 15 18.347656 15 23 L 15 29 C 15 33.964844 19.035156 38 24 38 C 28.960938 38 33 33.964844 33 29 L 33 23 C 33 18.414062 29.550781 14.628906 25.113281 14.074219 C 25.375 12.894531 26.21875 11 29 11 L 33 11 C 34.605469 11 37 9.933594 37 7 Z M 35 7 "/>
</g>
</svg>
