<?xml version="1.0" encoding="UTF-8"?>
<svg xmlns="http://www.w3.org/2000/svg" xmlns:xlink="http://www.w3.org/1999/xlink" width="48pt" height="48pt" viewBox="0 0 48 48" version="1.1">
<g id="surface1">
<path style=" stroke:none;fill-rule:nonzero;fill:rgb(0%,0%,0%);fill-opacity:1;" d="M 17 21 L 15 21 L 15 23 L 17 23 Z M 29 21 L 27 21 L 27 23 L 29 23 Z M 15 27 L 17 27 L 17 25 L 15 25 Z M 13 21 L 11 21 L 11 23 L 13 23 Z M 35 23 L 37 23 L 37 21 L 35 21 Z M 33 21 L 31 21 L 31 23 L 33 23 Z M 31 27 L 33 27 L 33 25 L 31 25 Z M 19 27 L 21 27 L 21 25 L 19 25 Z M 27 16 L 27 18 L 39 18 L 39 34 L 9 34 L 9 18 L 25 18 L 25 16 C 25.007812 15.488281 25.1875 13 28 13 L 33 13 C 34.605469 13 37 11.933594 37 9 L 35 9 C 35 10.824219 33.464844 10.992188 33 11 L 28 11 C 24.046875 11 23 14.269531 23 16 L 7 16 L 7 36 L 41 36 L 41 16 Z M 29 25 L 27 25 L 27 27 L 29 27 Z M 21 21 L 19 21 L 19 23 L 21 23 Z M 25 21 L 23 21 L 23 23 L 25 23 Z M 19 31 L 29 31 L 29 29 L 19 29 Z M 23 25 L 25 25 L 25 27 L 23 27 Z M 23 25 "/>
</g>
</svg>
