<?xml version="1.0" encoding="UTF-8"?>
<svg xmlns="http://www.w3.org/2000/svg" xmlns:xlink="http://www.w3.org/1999/xlink" width="48pt" height="48pt" viewBox="0 0 48 48" version="1.1">
<g id="surface1">
<path style=" stroke:none;fill-rule:nonzero;fill:rgb(0%,0%,0%);fill-opacity:1;" d="M 11 23 C 11 18.375 14.507812 14.558594 19 14.058594 L 19 19.144531 C 17.277344 19.589844 16 21.140625 16 23 C 16 25.207031 17.792969 27 20 27 C 21.859375 27 23.410156 25.722656 23.859375 24 L 28.941406 24 C 28.441406 28.492188 24.625 32 20 32 C 15.035156 32 11 27.964844 11 23 M 20 21 C 21.101562 21 22 21.898438 22 23 C 22 24.101562 21.101562 25 20 25 C 18.898438 25 18 24.101562 18 23 C 18 21.898438 18.898438 21 20 21 M 28.941406 22 L 23.859375 22 C 23.492188 20.601562 22.398438 19.507812 21 19.144531 L 21 14.058594 C 25.164062 14.519531 28.480469 17.835938 28.941406 22 M 38 20 L 38 22 L 33 22 L 33 24 L 38 24 L 38 32 L 26.304688 32 C 29.140625 30.007812 31 26.71875 31 23 C 31 16.933594 26.066406 12 20 12 C 13.933594 12 9 16.933594 9 23 C 9 29.066406 13.933594 34 20 34 L 40 34 L 40 20 Z M 38 20 "/>
</g>
</svg>
