<?xml version="1.0" encoding="UTF-8"?>
<svg xmlns="http://www.w3.org/2000/svg" xmlns:xlink="http://www.w3.org/1999/xlink" width="48pt" height="48pt" viewBox="0 0 48 48" version="1.1">
<g id="surface1">
<path style=" stroke:none;fill-rule:nonzero;fill:rgb(0%,0%,0%);fill-opacity:1;" d="M 33.773438 34.042969 L 30.292969 31.726562 L 20.878906 22.3125 L 22.292969 20.898438 L 31.707031 30.3125 L 34.027344 33.789062 Z M 19.464844 20.898438 L 13.101562 14.535156 L 14.515625 13.121094 L 20.878906 19.484375 Z M 36.019531 34.625 L 36.601562 34.042969 L 33.316406 29.121094 L 15.929688 11.707031 L 16.636719 10.996094 L 24.417969 18.777344 L 25.832031 17.363281 L 16.636719 8.167969 L 13.808594 10.996094 L 13.101562 11.707031 L 11.6875 10.289062 L 10.273438 11.707031 L 11.6875 13.121094 L 10.273438 14.535156 L 29.019531 33.28125 L 34.027344 36.617188 L 34.605469 36.039062 L 36.019531 37.453125 L 37.433594 36.039062 Z M 36.019531 34.625 "/>
</g>
</svg>
