<?xml version="1.0" encoding="UTF-8"?>
<svg xmlns="http://www.w3.org/2000/svg" xmlns:xlink="http://www.w3.org/1999/xlink" width="48pt" height="48pt" viewBox="0 0 48 48" version="1.1">
<g id="surface1">
<path style=" stroke:none;fill-rule:nonzero;fill:rgb(0%,0%,0%);fill-opacity:1;" d="M 33 33 C 31.894531 33 31 32.101562 31 31 C 31 29.898438 31.894531 29 33 29 C 34.105469 29 35 29.898438 35 31 C 35 32.101562 34.105469 33 33 33 M 27 21.015625 L 27 16 L 30.683594 16 C 31.082031 16 31.441406 16.238281 31.601562 16.605469 L 33.492188 21.019531 Z M 25 17 L 25 21.011719 L 19 21.007812 L 19 18 L 17 18 L 17 21.007812 L 9 21 L 9 16 L 25 16 Z M 15 29 C 16.105469 29 17 29.898438 17 31 C 17 32.101562 16.105469 33 15 33 C 13.894531 33 13 32.101562 13 31 C 13 29.898438 13.894531 29 15 29 M 42 28 L 42 26 L 41 26 L 41 22.179688 L 35.710938 21.121094 L 33.4375 15.816406 C 32.964844 14.714844 31.882812 14 30.683594 14 L 27 14 L 27 13 L 25 13 L 25 14 L 7 14 L 7 26 L 6 26 L 6 28 L 7 28 L 7 30 L 6 30 L 6 32 L 11.140625 32 C 11.589844 33.71875 13.140625 35 15 35 C 17.203125 35 19 33.207031 19 31 C 19 28.792969 17.203125 27 15 27 C 13.140625 27 11.589844 28.28125 11.140625 30 L 9 30 L 9 23 L 25 23 L 25 28 L 27 28 L 27 23 L 34.898438 23 L 39 23.820312 L 39 30 L 36.859375 30 C 36.410156 28.28125 34.859375 27 33 27 C 31.140625 27 29.589844 28.28125 29.140625 30 L 21 30 L 21 32 L 29.140625 32 C 29.589844 33.71875 31.140625 35 33 35 C 34.859375 35 36.410156 33.71875 36.859375 32 L 42 32 L 42 30 L 41 30 L 41 28 Z M 42 28 "/>
</g>
</svg>
