<?xml version="1.0" encoding="UTF-8"?>
<svg xmlns="http://www.w3.org/2000/svg" xmlns:xlink="http://www.w3.org/1999/xlink" width="48pt" height="48pt" viewBox="0 0 48 48" version="1.1">
<g id="surface1">
<path style=" stroke:none;fill-rule:nonzero;fill:rgb(0%,0%,0%);fill-opacity:1;" d="M 34 33 C 32.898438 33 32 32.101562 32 31 C 32 29.898438 32.898438 29 34 29 C 35.101562 29 36 29.898438 36 31 C 36 32.101562 35.101562 33 34 33 M 28 21.015625 L 28 16 L 31.679688 16 C 32.082031 16 32.441406 16.238281 32.601562 16.605469 L 34.492188 21.019531 Z M 26 21.015625 L 18 21.007812 L 18 16 L 26 16 Z M 8 21 L 8 16 L 16 16 L 16 21.007812 Z M 14 29 C 15.101562 29 16 29.898438 16 31 C 16 32.101562 15.101562 33 14 33 C 12.898438 33 12 32.101562 12 31 C 12 29.898438 12.898438 29 14 29 M 43 28 L 43 26 L 42 26 L 42 22.179688 L 36.710938 21.121094 L 34.4375 15.816406 C 33.964844 14.714844 32.882812 14 31.679688 14 L 6 14 L 6 26 L 5 26 L 5 28 L 6 28 L 6 30 L 5 30 L 5 32 L 10.140625 32 C 10.589844 33.71875 12.140625 35 14 35 C 16.207031 35 18 33.207031 18 31 C 18 28.792969 16.207031 27 14 27 C 12.140625 27 10.589844 28.28125 10.140625 30 L 8 30 L 8 23 L 26 23 L 26 28 L 28 28 L 28 23 L 35.902344 23 L 40 23.820312 L 40 30 L 37.859375 30 C 37.410156 28.28125 35.859375 27 34 27 C 32.140625 27 30.589844 28.28125 30.140625 30 L 20 30 L 20 32 L 30.140625 32 C 30.589844 33.71875 32.140625 35 34 35 C 35.859375 35 37.410156 33.71875 37.859375 32 L 43 32 L 43 30 L 42 30 L 42 28 Z M 43 28 "/>
</g>
</svg>
