<?xml version="1.0" encoding="UTF-8"?>
<svg xmlns="http://www.w3.org/2000/svg" xmlns:xlink="http://www.w3.org/1999/xlink" width="48pt" height="48pt" viewBox="0 0 48 48" version="1.1">
<g id="surface1">
<path style=" stroke:none;fill-rule:nonzero;fill:rgb(0%,0%,0%);fill-opacity:1;" d="M 35 31 C 35 29.898438 34.101562 29 33 29 C 31.898438 29 31 29.898438 31 31 C 31 32.101562 31.898438 33 33 33 C 34.101562 33 35 32.101562 35 31 M 33.484375 21 L 31.601562 16.605469 C 31.441406 16.238281 31.082031 16 30.679688 16 L 27 16 L 27 21 Z M 25 16 L 9 16 L 9 24 L 25 24 Z M 13 31 C 13 32.101562 13.898438 33 15 33 C 16.101562 33 17 32.101562 17 31 C 17 29.898438 16.101562 29 15 29 C 13.898438 29 13 29.898438 13 31 M 41 28 L 41 30 L 42 30 L 42 32 L 36.859375 32 C 36.410156 33.71875 34.859375 35 33 35 C 31.140625 35 29.589844 33.71875 29.140625 32 L 21 32 L 21 30 L 29.140625 30 C 29.589844 28.28125 31.140625 27 33 27 C 34.859375 27 36.410156 28.28125 36.859375 30 L 39 30 L 39 23.820312 L 34.902344 23 L 27 23 L 27 28 L 25 28 L 25 26 L 9 26 L 9 30 L 11.140625 30 C 11.589844 28.28125 13.140625 27 15 27 C 17.207031 27 19 28.792969 19 31 C 19 33.207031 17.207031 35 15 35 C 13.140625 35 11.589844 33.71875 11.140625 32 L 6 32 L 6 30 L 7 30 L 7 28 L 6 28 L 6 26 L 7 26 L 7 14 L 25 14 L 25 12 L 27 12 L 27 14 L 30.679688 14 C 31.882812 14 32.964844 14.714844 33.4375 15.816406 L 35.710938 21.121094 L 41 22.179688 L 41 26 L 42 26 L 42 28 Z M 16 21 L 14 21 L 14 19 L 16 19 L 16 17 L 18 17 L 18 19 L 20 19 L 20 21 L 18 21 L 18 23 L 16 23 Z M 16 21 "/>
</g>
</svg>
