<?xml version="1.0" encoding="UTF-8"?>
<svg xmlns="http://www.w3.org/2000/svg" xmlns:xlink="http://www.w3.org/1999/xlink" width="48pt" height="48pt" viewBox="0 0 48 48" version="1.1">
<g id="surface1">
<path style=" stroke:none;fill-rule:nonzero;fill:rgb(0%,0%,0%);fill-opacity:1;" d="M 34 31 C 34 29.898438 33.101562 29 32 29 C 30.898438 29 30 29.898438 30 31 C 30 32.101562 30.898438 33 32 33 C 33.101562 33 34 32.101562 34 31 M 32.488281 21.011719 L 30.601562 16.605469 C 30.441406 16.238281 30.082031 16 29.679688 16 L 23 16 L 23 21.011719 L 28 21.015625 L 28 21 Z M 21 16 L 11 16 L 11 21 L 21 21.007812 Z M 15 31 C 15 32.101562 15.898438 33 17 33 C 18.101562 33 19 32.101562 19 31 C 19 29.898438 18.101562 29 17 29 C 15.898438 29 15 29.898438 15 31 M 9 19 L 7 19 L 7 26 L 9 26 Z M 40 28 L 40 30 L 41 30 L 41 32 L 35.859375 32 C 35.410156 33.71875 33.859375 35 32 35 C 30.140625 35 28.589844 33.71875 28.140625 32 L 23 32 L 23 30 L 28.140625 30 C 28.589844 28.28125 30.140625 27 32 27 C 33.859375 27 35.410156 28.28125 35.859375 30 L 38 30 L 38 23.820312 L 36 23.421875 L 33.902344 23 L 11 23 L 11 30 L 13.140625 30 C 13.589844 28.28125 15.140625 27 17 27 C 19.207031 27 21 28.792969 21 31 C 21 33.207031 19.207031 35 17 35 C 15.140625 35 13.589844 33.71875 13.140625 32 L 8 32 L 8 30 L 9 30 L 9 28 L 5 28 L 5 17 L 9 17 L 9 14 L 29.679688 14 C 30.882812 14 31.964844 14.714844 32.4375 15.816406 L 34.710938 21.121094 L 36 21.378906 L 40 22.179688 L 40 26 L 41 26 L 41 28 Z M 23 13 L 9 13 L 9 11 L 23 11 Z M 23 13 "/>
</g>
</svg>
