<?xml version="1.0" encoding="UTF-8"?>
<svg xmlns="http://www.w3.org/2000/svg" xmlns:xlink="http://www.w3.org/1999/xlink" width="48pt" height="48pt" viewBox="0 0 48 48" version="1.1">
<g id="surface1">
<path style=" stroke:none;fill-rule:nonzero;fill:rgb(0%,0%,0%);fill-opacity:1;" d="M 23 13 L 21 13 L 21 11 L 23 11 Z M 33 33 C 31.898438 33 31 32.101562 31 31 C 31 29.898438 31.898438 29 33 29 C 34.101562 29 35 29.898438 35 31 C 35 32.101562 34.101562 33 33 33 M 27 21.011719 L 27 16 L 30.683594 16 C 31.082031 16 31.441406 16.238281 31.601562 16.605469 L 33.488281 21.011719 Z M 15 29 C 16.101562 29 17 29.898438 17 31 C 17 32.101562 16.101562 33 15 33 C 13.898438 33 13 32.101562 13 31 C 13 29.898438 13.898438 29 15 29 M 42 28 L 42 26 L 41 26 L 41 22.152344 L 35.78125 21.28125 L 33.4375 15.816406 C 32.964844 14.714844 31.882812 14 30.683594 14 L 27 14 L 27 13 L 25 13 L 25 21.011719 L 23 21.007812 L 23 14 L 21 14 L 21 21.007812 L 7 21 L 7 26 L 6 26 L 6 28 L 7 28 L 7 30 L 6 30 L 6 32 L 11.144531 32 C 11.589844 33.71875 13.140625 35 15 35 C 17.207031 35 19 33.207031 19 31 C 19 28.792969 17.207031 27 15 27 C 13.140625 27 11.589844 28.28125 11.144531 30 L 9 30 L 9 23 L 13 23 L 13 25 L 15 25 L 15 23 L 17 23 L 17 25 L 19 25 L 19 23 L 21 23 L 21 25 L 23 25 L 23 23 L 25 23 L 25 28 L 27 28 L 27 23 L 33.917969 23 L 39 23.847656 L 39 30 L 36.855469 30 C 36.410156 28.28125 34.859375 27 33 27 C 31.140625 27 29.589844 28.28125 29.144531 30 L 21 30 L 21 32 L 29.144531 32 C 29.589844 33.71875 31.140625 35 33 35 C 34.859375 35 36.410156 33.71875 36.855469 32 L 42 32 L 42 30 L 41 30 L 41 28 Z M 42 28 "/>
</g>
</svg>
