<?xml version="1.0" encoding="UTF-8"?>
<svg xmlns="http://www.w3.org/2000/svg" xmlns:xlink="http://www.w3.org/1999/xlink" width="48pt" height="48pt" viewBox="0 0 48 48" version="1.1">
<g id="surface1">
<path style=" stroke:none;fill-rule:nonzero;fill:rgb(0%,0%,0%);fill-opacity:1;" d="M 32 33 C 30.894531 33 30 32.101562 30 31 C 30 29.898438 30.894531 29 32 29 C 33.105469 29 34 29.898438 34 31 C 34 32.101562 33.105469 33 32 33 M 23 16 L 25 16 L 25 21.011719 L 23 21.007812 Z M 30.601562 16.605469 L 32.488281 21.011719 L 27 21.011719 L 27 16 L 29.683594 16 C 30.082031 16 30.441406 16.238281 30.601562 16.605469 M 15 29 C 16.105469 29 17 29.898438 17 31 C 17 32.101562 16.105469 33 15 33 C 13.894531 33 13 32.101562 13 31 C 13 29.898438 13.894531 29 15 29 M 41 28 L 41 26 L 40 26 L 40 22.152344 L 34.78125 21.28125 L 32.4375 15.816406 C 31.964844 14.714844 30.882812 14 29.683594 14 L 21 14 L 21 21.007812 L 8 21 L 8 26 L 7 26 L 7 28 L 8 28 L 8 30 L 7 30 L 7 32 L 11.140625 32 C 11.589844 33.71875 13.140625 35 15 35 C 17.203125 35 19 33.207031 19 31 C 19 28.792969 17.203125 27 15 27 C 13.140625 27 11.589844 28.28125 11.140625 30 L 10 30 L 10 23 L 21 23 L 21 28 L 23 28 L 23 23 L 32.917969 23 L 38 23.847656 L 38 30 L 35.859375 30 C 35.410156 28.28125 33.859375 27 32 27 C 30.140625 27 28.589844 28.28125 28.140625 30 L 21 30 L 21 32 L 28.140625 32 C 28.589844 33.71875 30.140625 35 32 35 C 33.859375 35 35.410156 33.71875 35.859375 32 L 41 32 L 41 30 L 40 30 L 40 28 Z M 41 28 "/>
</g>
</svg>
