<?xml version="1.0" encoding="UTF-8"?>
<svg xmlns="http://www.w3.org/2000/svg" xmlns:xlink="http://www.w3.org/1999/xlink" width="48pt" height="48pt" viewBox="0 0 48 48" version="1.1">
<g id="surface1">
<path style=" stroke:none;fill-rule:nonzero;fill:rgb(0%,0%,0%);fill-opacity:1;" d="M 31 21 L 31 16 L 35.25 16 C 35.746094 16 36.175781 16.371094 36.238281 16.867188 L 36.789062 21 Z M 29 21 L 26 21 L 26 16 L 29 16 Z M 32 33 C 30.894531 33 30 32.101562 30 31 C 30 29.898438 30.894531 29 32 29 C 33.105469 29 34 29.898438 34 31 C 34 32.101562 33.105469 33 32 33 M 16 29 C 17.105469 29 18 29.898438 18 31 C 18 32.101562 17.105469 33 16 33 C 14.894531 33 14 32.101562 14 31 C 14 29.898438 14.894531 29 16 29 M 41 26 L 39.46875 26 L 38.222656 16.605469 C 38.023438 15.121094 36.746094 14 35.25 14 L 24 14 L 24 21 L 8 21 L 8 26 L 7 26 L 7 28 L 8 28 L 8 30 L 7 30 L 7 32 L 12.140625 32 C 12.589844 33.71875 14.140625 35 16 35 C 18.203125 35 20 33.207031 20 31 C 20 28.792969 18.203125 27 16 27 C 14.140625 27 12.589844 28.28125 12.140625 30 L 10 30 L 10 23 L 24 23 L 24 27 L 26 27 L 26 23 L 37.058594 23 L 37.992188 30 L 35.859375 30 C 35.410156 28.28125 33.859375 27 32 27 C 30.140625 27 28.589844 28.28125 28.140625 30 L 22 30 L 22 32 L 28.140625 32 C 28.589844 33.71875 30.140625 35 32 35 C 33.859375 35 35.410156 33.71875 35.859375 32 L 41 32 L 41 30 L 40 30 L 39.734375 28 L 41 28 Z M 41 26 "/>
</g>
</svg>
