<?xml version="1.0" encoding="UTF-8"?>
<svg xmlns="http://www.w3.org/2000/svg" xmlns:xlink="http://www.w3.org/1999/xlink" width="48pt" height="48pt" viewBox="0 0 48 48" version="1.1">
<g id="surface1">
<path style=" stroke:none;fill-rule:nonzero;fill:rgb(0%,0%,0%);fill-opacity:1;" d="M 34 33 C 32.898438 33 32 32.101562 32 31 C 32 29.898438 32.898438 29 34 29 C 35.101562 29 36 29.898438 36 31 C 36 32.101562 35.101562 33 34 33 M 22 33 C 20.898438 33 20 32.101562 20 31 C 20 29.898438 20.898438 29 22 29 C 23.101562 29 24 29.898438 24 31 C 24 32.101562 23.101562 33 22 33 M 28 19 L 28 16 L 31.683594 16 C 32.082031 16 32.441406 16.238281 32.601562 16.605469 L 34.488281 21.011719 L 28 21 Z M 43 28 L 43 26 L 42 26 L 42 22.152344 L 36.78125 21.28125 L 34.4375 15.816406 C 33.964844 14.714844 32.882812 14 31.683594 14 L 26 14 L 26 17 L 25 17 L 25 19 L 26 19 L 26 21 L 18 21 L 18 26 L 20 26 L 20 23 L 26 23 L 26 28 L 28 28 L 28 23 L 34.917969 23 L 40 23.847656 L 40 30 L 37.855469 30 C 37.410156 28.28125 35.859375 27 34 27 C 32.140625 27 30.589844 28.28125 30.144531 30 L 25.855469 30 C 25.410156 28.28125 23.859375 27 22 27 C 20.140625 27 18.589844 28.28125 18.144531 30 L 14 30 L 14 29 L 12 29 L 12 30 L 7 30 L 7 29 L 5 29 L 5 32 L 18.144531 32 C 18.589844 33.71875 20.140625 35 22 35 C 23.859375 35 25.410156 33.71875 25.855469 32 L 30.144531 32 C 30.589844 33.71875 32.140625 35 34 35 C 35.859375 35 37.410156 33.71875 37.855469 32 L 43 32 L 43 30 L 42 30 L 42 28 Z M 43 28 "/>
</g>
</svg>
