<?xml version="1.0" encoding="UTF-8"?>
<svg xmlns="http://www.w3.org/2000/svg" xmlns:xlink="http://www.w3.org/1999/xlink" width="48pt" height="48pt" viewBox="0 0 48 48" version="1.1">
<g id="surface1">
<path style=" stroke:none;fill-rule:nonzero;fill:rgb(0%,0%,0%);fill-opacity:1;" d="M 39.855469 29 L 38.792969 21 L 32 21 L 32 27 L 34 27 C 35.472656 27 36.75 27.808594 37.445312 29 Z M 36 31 C 36 29.898438 35.101562 29 34 29 C 32.898438 29 32 29.898438 32 31 C 32 32.101562 32.898438 33 34 33 C 35.101562 33 36 32.101562 36 31 M 32 16 L 32 19 L 38.523438 19 L 38.242188 16.867188 C 38.171875 16.371094 37.75 16 37.25 16 Z M 10 31 C 10 32.101562 10.898438 33 12 33 C 13.101562 33 14 32.101562 14 31 C 14 29.898438 13.101562 29 12 29 C 10.898438 29 10 29.898438 10 31 M 43 27 L 41.625 27 L 41.878906 29 L 43 29 L 43 31 L 38 31 C 38 33.207031 36.207031 35 34 35 C 31.792969 35 30 33.207031 30 31 C 30 30.269531 30.210938 29.589844 30.554688 29 L 24 29 L 24 31 L 28 31 L 28 33 L 18 33 L 18 31 L 22 31 L 22 29 L 17 29 L 17 27 L 30 27 L 30 16 L 8.925781 16 L 8.082031 27 L 12 27 C 14.207031 27 16 28.792969 16 31 C 16 33.207031 14.207031 35 12 35 C 9.792969 35 8 33.207031 8 31 C 8 30.269531 8.210938 29.589844 8.554688 29 L 5 29 L 5 27 L 6.074219 27 L 7.074219 14 L 10 14 L 10 13 L 12 13 L 12 14 L 30 14 L 30 13 L 32 13 L 32 14 L 37.25 14 C 38.746094 14 40.027344 15.121094 40.222656 16.605469 L 41.339844 25 L 43 25 Z M 28 21 L 11 21 L 11 19 L 28 19 Z M 28 21 "/>
</g>
</svg>
