<?xml version="1.0" encoding="UTF-8"?>
<svg xmlns="http://www.w3.org/2000/svg" xmlns:xlink="http://www.w3.org/1999/xlink" width="48pt" height="48pt" viewBox="0 0 48 48" version="1.1">
<g id="surface1">
<path style=" stroke:none;fill-rule:nonzero;fill:rgb(0%,0%,0%);fill-opacity:1;" d="M 37.445312 29 C 36.75 27.808594 35.472656 27 34 27 L 32 27 L 32 21 L 38.792969 21 L 39.859375 29 Z M 34 33 C 32.898438 33 32 32.101562 32 31 C 32 29.898438 32.898438 29 34 29 C 35.101562 29 36 29.898438 36 31 C 36 32.101562 35.101562 33 34 33 M 37 16 L 37.25 16 C 37.746094 16 38.171875 16.371094 38.238281 16.867188 L 38.523438 19 L 32 19 L 32 16 Z M 30 27 L 26 27 L 26 16 L 30 16 Z M 24 23 L 10.5 23 C 8.570312 23 7 21.429688 7 19.5 C 7 17.570312 8.570312 16 10.5 16 L 24 16 Z M 16 31 C 16 32.101562 15.101562 33 14 33 C 12.898438 33 12 32.101562 12 31 C 12 29.898438 12.898438 29 14 29 C 15.101562 29 16 29.898438 16 31 M 43 25 L 41.34375 25 L 40.222656 16.605469 C 40.023438 15.121094 38.746094 14 37.25 14 L 10.5 14 C 7.46875 14 5 16.46875 5 19.5 C 5 22.53125 7.46875 25 10.5 25 L 13 25 L 13 27 L 5 27 L 5 29 L 10.558594 29 C 10.210938 29.589844 10 30.269531 10 31 C 10 33.207031 11.792969 35 14 35 C 16.207031 35 18 33.207031 18 31 C 18 29.140625 16.722656 27.589844 15 27.140625 L 15 25 L 24 25 L 24 27 L 19 27 L 19 29 L 30.558594 29 C 30.210938 29.589844 30 30.269531 30 31 C 30 33.207031 31.792969 35 34 35 C 36.207031 35 38 33.207031 38 31 L 43 31 L 43 29 L 41.878906 29 L 41.625 27 L 43 27 Z M 43 25 "/>
</g>
</svg>
