<?xml version="1.0" encoding="UTF-8"?>
<svg xmlns="http://www.w3.org/2000/svg" xmlns:xlink="http://www.w3.org/1999/xlink" width="48pt" height="48pt" viewBox="0 0 48 48" version="1.1">
<g id="surface1">
<path style=" stroke:none;fill-rule:nonzero;fill:rgb(0%,0%,0%);fill-opacity:1;" d="M 25 22 L 11 22 L 11 20 L 25 20 Z M 36.445312 29 C 35.75 27.808594 34.472656 27 33 27 L 29 27 L 29 22 L 37.925781 22 L 38.859375 29 Z M 33 33 C 31.898438 33 31 32.101562 31 31 C 31 29.898438 31.898438 29 33 29 C 34.101562 29 35 29.898438 35 31 C 35 32.101562 34.101562 33 33 33 M 36.382812 17 C 36.882812 17 37.308594 17.375 37.375 17.867188 L 37.65625 20 L 29 20 L 29 17 Z M 17 31 C 17 32.101562 16.101562 33 15 33 C 13.898438 33 13 32.101562 13 31 C 13 29.898438 13.898438 29 15 29 C 16.101562 29 17 29.898438 17 31 M 42 27 L 42 25 L 40.34375 25 L 39.355469 17.605469 C 39.15625 16.117188 37.878906 15 36.382812 15 L 29 15 L 29 14 L 7 14 L 7 27 L 6 27 L 6 29 L 11.558594 29 C 11.210938 29.589844 11 30.269531 11 31 C 11 33.207031 12.792969 35 15 35 C 17.207031 35 19 33.207031 19 31 C 19 28.792969 17.207031 27 15 27 L 9 27 L 9 16 L 27 16 L 27 27 L 20 27 L 20 29 L 29.558594 29 C 29.210938 29.589844 29 30.269531 29 31 C 29 33.207031 30.792969 35 33 35 C 35.207031 35 37 33.207031 37 31 L 42 31 L 42 29 L 40.875 29 L 40.609375 27 Z M 42 27 "/>
</g>
</svg>
