<?xml version="1.0" encoding="UTF-8"?>
<svg xmlns="http://www.w3.org/2000/svg" xmlns:xlink="http://www.w3.org/1999/xlink" width="48pt" height="48pt" viewBox="0 0 48 48" version="1.1">
<g id="surface1">
<path style=" stroke:none;fill-rule:nonzero;fill:rgb(0%,0%,0%);fill-opacity:1;" d="M 37.445312 29 C 36.75 27.808594 35.472656 27 34 27 C 32.527344 27 31.25 27.808594 30.554688 29 L 30 29 L 30 21 L 38.792969 21 L 39.859375 29 Z M 34 33 C 32.898438 33 32 32.101562 32 31 C 32 29.898438 32.898438 29 34 29 C 35.101562 29 36 29.898438 36 31 C 36 32.101562 35.101562 33 34 33 M 30 16 L 37.25 16 C 37.75 16 38.175781 16.371094 38.242188 16.867188 L 38.523438 19 L 30 19 Z M 28 29 L 25 29 L 25 16 L 28 16 Z M 23 19 L 8 19 L 8 16 L 23 16 Z M 14 29 C 15.101562 29 16 29.898438 16 31 C 16 32.101562 15.101562 33 14 33 C 12.898438 33 12 32.101562 12 31 C 12 29.898438 12.898438 29 14 29 M 43 25 L 41.339844 25 L 40.222656 16.605469 C 40.027344 15.121094 38.746094 14 37.25 14 L 6 14 L 6 29 L 5 29 L 5 31 L 10 31 C 10 33.207031 11.792969 35 14 35 C 16.207031 35 18 33.207031 18 31 C 18 28.792969 16.207031 27 14 27 C 12.527344 27 11.25 27.808594 10.554688 29 L 8 29 L 8 21 L 23 21 L 23 29 L 20 29 L 20 31 L 30 31 C 30 33.207031 31.792969 35 34 35 C 36.207031 35 38 33.207031 38 31 L 43 31 L 43 29 L 41.878906 29 L 41.625 27 L 43 27 Z M 43 25 "/>
</g>
</svg>
