<?xml version="1.0" encoding="UTF-8"?>
<svg xmlns="http://www.w3.org/2000/svg" xmlns:xlink="http://www.w3.org/1999/xlink" width="48pt" height="48pt" viewBox="0 0 48 48" version="1.1">
<g id="surface1">
<path style=" stroke:none;fill-rule:nonzero;fill:rgb(0%,0%,0%);fill-opacity:1;" d="M 41 34 L 36 34 L 36 29 L 38 29 L 38 32 L 41 32 Z M 30 29 L 30 21 L 38.789062 21 L 39.519531 26.46875 C 38.738281 26.160156 37.890625 26 37 26 C 35.621094 26 34.351562 26.390625 33.269531 27.078125 C 32.109375 27.289062 31.128906 28.011719 30.558594 29 Z M 30 16 L 37.25 16 C 37.75 16 38.171875 16.371094 38.238281 16.871094 L 38.519531 19 L 30 19 Z M 28 29 L 25 29 L 25 16 L 28 16 Z M 23 19 L 8 19 L 8 16 L 23 16 Z M 14 29 C 15.101562 29 16 29.898438 16 31 C 16 32.101562 15.101562 33 14 33 C 12.898438 33 12 32.101562 12 31 C 12 29.898438 12.898438 29 14 29 M 43 29.398438 L 43 29 L 42.738281 29 C 42.449219 28.578125 42.121094 28.191406 41.738281 27.859375 L 41.628906 27 L 43 27 L 43 25 L 41.339844 25 L 40.21875 16.601562 C 40.019531 15.121094 38.75 14 37.25 14 L 6 14 L 6 29 L 5 29 L 5 31 L 10 31 C 10 33.210938 11.789062 35 14 35 C 16.210938 35 18 33.210938 18 31 C 18 28.789062 16.210938 27 14 27 C 12.53125 27 11.25 27.808594 10.558594 29 L 8 29 L 8 21 L 23 21 L 23 29 L 20 29 L 20 31 L 30 31 C 30 31.300781 30.03125 31.589844 30.101562 31.871094 C 30.03125 32.230469 30 32.609375 30 33 C 30 36.871094 33.128906 40 37 40 C 40.871094 40 44 36.871094 44 33 C 44 31.679688 43.640625 30.449219 43 29.398438 "/>
</g>
</svg>
