<?xml version="1.0" encoding="UTF-8"?>
<svg xmlns="http://www.w3.org/2000/svg" xmlns:xlink="http://www.w3.org/1999/xlink" width="48pt" height="48pt" viewBox="0 0 48 48" version="1.1">
<g id="surface1">
<path style=" stroke:none;fill-rule:nonzero;fill:rgb(0%,0%,0%);fill-opacity:1;" d="M 38 25 L 10 25 L 10 23.414062 L 12.414062 21 L 35.585938 21 L 38 23.414062 Z M 38 28 C 38 30.824219 35.496094 30.992188 35 31 L 13 31 C 10.175781 31 10.007812 28.496094 10 28 L 10 27 L 14 27 L 14 29 L 16 29 L 16 27 L 20 27 L 20 29 L 22 29 L 22 27 L 26 27 L 26 29 L 28 29 L 28 27 L 32 27 L 32 29 L 34 29 L 34 27 L 38 27 Z M 25.234375 17 L 29.382812 17 L 30.382812 19 L 24.234375 19 Z M 36.414062 19 L 32.617188 19 L 31.617188 17 L 35 17 L 35 15 L 24 15 L 22 19 L 20 19 L 20 18 L 18 18 L 18 19 L 16 19 L 16 18 L 14 18 L 14 19 L 8 19 L 8 21 L 9.585938 21 L 8 22.585938 L 8 28 C 8 29.730469 9.046875 33 13 33 L 35 33 C 36.730469 33 40 31.953125 40 28 L 40 22.585938 Z M 36.414062 19 "/>
</g>
</svg>
