<?xml version="1.0" encoding="UTF-8"?>
<svg xmlns="http://www.w3.org/2000/svg" xmlns:xlink="http://www.w3.org/1999/xlink" width="48pt" height="48pt" viewBox="0 0 48 48" version="1.1">
<g id="surface1">
<path style=" stroke:none;fill-rule:nonzero;fill:rgb(0%,0%,0%);fill-opacity:1;" d="M 40 24 L 42 24 L 42 29 L 37 29 L 40 27 Z M 25.585938 19 L 27.585938 21 L 22 21 L 22 19 Z M 12 23 L 29 23 L 29 27 L 12 27 Z M 33 31 C 33 32.101562 32.101562 33 31 33 L 10 33 C 8.898438 33 8 32.101562 8 31 C 8 29.898438 8.898438 29 10 29 L 12 29 L 12 31 L 14 31 L 14 29 L 17 29 L 17 31 L 19 31 L 19 29 L 22 29 L 22 31 L 24 31 L 24 29 L 27 29 L 27 31 L 29 31 L 29 29 L 31 29 C 32.101562 29 33 29.898438 33 31 M 31.207031 9.839844 L 20 14.324219 L 20 21 L 10 21 L 10 27 C 7.792969 27 6 28.792969 6 31 C 6 33.207031 7.792969 35 10 35 L 31 35 C 33.207031 35 35 33.207031 35 31 C 35 28.792969 33.207031 27 31 27 L 31 21.585938 L 26.414062 17 L 22 17 L 22 15.675781 L 30.792969 12.160156 L 40 20.445312 L 40 22 L 42 22 L 42 19.554688 Z M 31.207031 9.839844 "/>
</g>
</svg>
