<?xml version="1.0" encoding="UTF-8"?>
<svg xmlns="http://www.w3.org/2000/svg" xmlns:xlink="http://www.w3.org/1999/xlink" width="48pt" height="48pt" viewBox="0 0 48 48" version="1.1">
<g id="surface1">
<path style=" stroke:none;fill-rule:nonzero;fill:rgb(0%,0%,0%);fill-opacity:1;" d="M 16.5 33 C 15.121094 33 14 31.878906 14 30.5 C 14 30.328125 14.019531 30.160156 14.050781 30 L 18.949219 30 C 18.980469 30.160156 19 30.328125 19 30.5 C 19 31.878906 17.878906 33 16.5 33 M 40.917969 25.734375 L 42.277344 24.265625 C 41.332031 23.386719 40.210938 22.75 39 22.378906 L 39 19.546875 L 30.65625 12.246094 L 29.34375 13.753906 L 34.617188 18.367188 L 26.59375 16.910156 L 22 22.648438 L 22 25 L 24 25 L 24 23.351562 L 27.40625 19.089844 L 37 20.835938 L 37 22.023438 C 36.835938 22.015625 36.667969 22 36.5 22 C 32.75 22 29.457031 24.480469 28.375 28 L 15.414062 28 L 10.414062 23 L 14.585938 23 L 16.585938 25 L 20 25 L 20 23 L 17.414062 23 L 15.414062 21 L 12 21 L 12 11 L 10 11 L 10 21 L 6 21 L 6 23 L 7.585938 23 L 12.585938 28 L 9 28 L 9 30 L 12.050781 30 C 12.03125 30.164062 12 30.328125 12 30.5 C 12 32.980469 14.019531 35 16.5 35 C 18.980469 35 21 32.980469 21 30.5 C 21 30.328125 20.96875 30.164062 20.949219 30 L 29.96875 30 L 30.132812 29.199219 C 30.742188 26.1875 33.421875 24 36.5 24 C 38.144531 24 39.714844 24.613281 40.917969 25.734375 M 36.5 33 C 35.121094 33 34 31.878906 34 30.5 C 34 29.121094 35.121094 28 36.5 28 C 37.878906 28 39 29.121094 39 30.5 C 39 31.878906 37.878906 33 36.5 33 M 36.5 26 C 34.019531 26 32 28.019531 32 30.5 C 32 32.980469 34.019531 35 36.5 35 C 38.980469 35 41 32.980469 41 30.5 C 41 28.019531 38.980469 26 36.5 26 "/>
</g>
</svg>
