<?xml version="1.0" encoding="UTF-8"?>
<svg xmlns="http://www.w3.org/2000/svg" xmlns:xlink="http://www.w3.org/1999/xlink" width="48pt" height="48pt" viewBox="0 0 48 48" version="1.1">
<g id="surface1">
<path style=" stroke:none;fill-rule:nonzero;fill:rgb(0%,0%,0%);fill-opacity:1;" d="M 33 32 C 31.898438 32 31 31.101562 31 30 C 31 28.898438 31.898438 28 33 28 C 34.101562 28 35 28.898438 35 30 C 35 31.101562 34.101562 32 33 32 M 18.414062 18 L 29.585938 18 L 32.597656 21.011719 L 15.410156 21 Z M 15 28 C 16.101562 28 17 28.898438 17 30 C 17 31.101562 16.101562 32 15 32 C 13.898438 32 13 31.101562 13 30 C 13 28.898438 13.898438 28 15 28 M 43 25 L 42 25 L 42 22.152344 L 35.480469 21.066406 L 30.414062 16 L 25 16 L 25 14 L 23 14 L 23 16 L 17.585938 16 L 12.460938 21.125 L 6 23.277344 L 6 25 L 5 25 L 5 27 L 6 27 L 6 31 L 11.144531 31 C 11.589844 32.71875 13.140625 34 15 34 C 17.207031 34 19 32.207031 19 30 C 19 27.792969 17.207031 26 15 26 C 13.140625 26 11.589844 27.28125 11.144531 29 L 8 29 L 8 24.722656 L 13.160156 23 L 23 23 L 23 27 L 25 27 L 25 23 L 34.917969 23 L 40 23.847656 L 40 29 L 36.855469 29 C 36.410156 27.28125 34.859375 26 33 26 C 31.140625 26 29.589844 27.28125 29.144531 29 L 21 29 L 21 31 L 29.144531 31 C 29.589844 32.71875 31.140625 34 33 34 C 34.859375 34 36.410156 32.71875 36.855469 31 L 42 31 L 42 27 L 43 27 Z M 43 25 "/>
</g>
</svg>
