<?xml version="1.0" encoding="UTF-8"?>
<svg xmlns="http://www.w3.org/2000/svg" xmlns:xlink="http://www.w3.org/1999/xlink" width="48pt" height="48pt" viewBox="0 0 48 48" version="1.1">
<g id="surface1">
<path style=" stroke:none;fill-rule:nonzero;fill:rgb(0%,0%,0%);fill-opacity:1;" d="M 34 32 C 32.898438 32 32 31.101562 32 30 C 32 28.898438 32.898438 28 34 28 C 35.101562 28 36 28.898438 36 30 C 36 31.101562 35.101562 32 34 32 M 17.414062 18 L 30.585938 18 L 33.597656 21.011719 L 14.414062 21 Z M 14 28 C 15.101562 28 16 28.898438 16 30 C 16 31.101562 15.101562 32 14 32 C 12.898438 32 12 31.101562 12 30 C 12 28.898438 12.898438 28 14 28 M 44 27 L 44 25 L 43 25 L 43 22.152344 L 36.480469 21.066406 L 31.414062 16 L 16.585938 16 L 11.460938 21.125 L 5 23.277344 L 5 25 L 4 25 L 4 27 L 5 27 L 5 29 L 4 29 L 4 31 L 10.140625 31 C 10.589844 32.71875 12.140625 34 14 34 C 16.207031 34 18 32.207031 18 30 C 18 27.792969 16.207031 26 14 26 C 12.140625 26 10.589844 27.28125 10.140625 29 L 7 29 L 7 24.722656 L 12.160156 23 L 23 23 L 23 27 L 25 27 L 25 23 L 35.917969 23 L 41 23.847656 L 41 29 L 37.859375 29 C 37.410156 27.28125 35.859375 26 34 26 C 32.140625 26 30.589844 27.28125 30.140625 29 L 20 29 L 20 31 L 30.140625 31 C 30.589844 32.71875 32.140625 34 34 34 C 35.859375 34 37.410156 32.71875 37.859375 31 L 44 31 L 44 29 L 43 29 L 43 27 Z M 44 27 "/>
</g>
</svg>
