<?xml version="1.0" encoding="UTF-8"?>
<svg xmlns="http://www.w3.org/2000/svg" xmlns:xlink="http://www.w3.org/1999/xlink" width="48pt" height="48pt" viewBox="0 0 48 48" version="1.1">
<g id="surface1">
<path style=" stroke:none;fill-rule:nonzero;fill:rgb(0%,0%,0%);fill-opacity:1;" d="M 30 33 C 28.898438 33 28 32.101562 28 31 C 28 29.898438 28.898438 29 30 29 C 31.101562 29 32 29.898438 32 31 C 32 32.101562 31.101562 33 30 33 M 12 16 L 15 16 L 15 21.003906 L 12 21 Z M 28.601562 16.605469 L 30.492188 21.019531 L 17 21.003906 L 17 16 L 27.679688 16 C 28.082031 16 28.441406 16.238281 28.601562 16.605469 M 17 29 C 18.101562 29 19 29.898438 19 31 C 19 32.101562 18.101562 33 17 33 C 15.898438 33 15 32.101562 15 31 C 15 29.898438 15.898438 29 17 29 M 39 26 L 38 26 L 38 22.179688 L 32.710938 21.121094 L 30.4375 15.816406 C 29.964844 14.714844 28.882812 14 27.679688 14 L 10 14 L 10 32 L 13.140625 32 C 13.589844 33.71875 15.140625 35 17 35 C 19.207031 35 21 33.207031 21 31 C 21 28.792969 19.207031 27 17 27 C 15.140625 27 13.589844 28.28125 13.140625 30 L 12 30 L 12 23 L 31.902344 23 L 36 23.820312 L 36 30 L 33.859375 30 C 33.410156 28.28125 31.859375 27 30 27 C 28.140625 27 26.589844 28.28125 26.140625 30 L 23 30 L 23 32 L 26.140625 32 C 26.589844 33.71875 28.140625 35 30 35 C 31.859375 35 33.410156 33.71875 33.859375 32 L 38 32 L 38 28 L 39 28 Z M 39 26 "/>
</g>
</svg>
