<?xml version="1.0" encoding="UTF-8"?>
<svg xmlns="http://www.w3.org/2000/svg" xmlns:xlink="http://www.w3.org/1999/xlink" width="48pt" height="48pt" viewBox="0 0 48 48" version="1.1">
<g id="surface1">
<path style=" stroke:none;fill-rule:nonzero;fill:rgb(0%,0%,0%);fill-opacity:1;" d="M 31 26 L 35 26 L 35 28 L 31 28 Z M 33 33 C 29.691406 33 27 30.308594 27 27 C 27 23.691406 29.691406 21 33 21 C 36.308594 21 39 23.691406 39 27 C 39 30.308594 36.308594 33 33 33 M 15 16 L 18.679688 16 C 19.082031 16 19.441406 16.238281 19.601562 16.605469 L 21.484375 21 L 15 21 Z M 13.5 28 C 14.878906 28 16 29.121094 16 30.5 C 16 31.878906 14.878906 33 13.5 33 C 12.121094 33 11 31.878906 11 30.5 C 11 29.121094 12.121094 28 13.5 28 M 42 26 L 40.929688 26 C 40.4375 22.058594 37.070312 19 33 19 C 28.929688 19 25.5625 22.058594 25.070312 26 L 24 26 L 24 21.796875 L 21.4375 15.816406 C 20.964844 14.714844 19.882812 14 18.679688 14 L 13 14 L 13 21 L 11 21 L 11 18 L 9 18 L 9 21 L 6 21 L 6 32 L 9.277344 32 C 9.898438 33.742188 11.546875 35 13.5 35 C 15.980469 35 18 32.980469 18 30.5 C 18 28.019531 15.980469 26 13.5 26 C 11.191406 26 9.304688 27.757812 9.050781 30 L 8 30 L 8 23 L 22 23 L 22 30 L 20 30 L 20 32 L 24 32 L 24 28 L 25.070312 28 C 25.5625 31.941406 28.929688 35 33 35 C 37.070312 35 40.4375 31.941406 40.929688 28 L 42 28 Z M 42 26 "/>
</g>
</svg>
