<?xml version="1.0" encoding="UTF-8"?>
<svg xmlns="http://www.w3.org/2000/svg" xmlns:xlink="http://www.w3.org/1999/xlink" width="48pt" height="48pt" viewBox="0 0 48 48" version="1.1">
<g id="surface1">
<path style=" stroke:none;fill-rule:nonzero;fill:rgb(0%,0%,0%);fill-opacity:1;" d="M 26 33 C 24.898438 33 24 32.101562 24 31 C 24 29.898438 24.898438 29 26 29 C 27.101562 29 28 29.898438 28 31 C 28 32.101562 27.101562 33 26 33 M 11 16 L 23.679688 16 C 24.082031 16 24.441406 16.238281 24.601562 16.605469 L 26.484375 21 L 16 21 L 16 19 L 14 19 L 14 21 L 11 21 Z M 13 29 C 14.101562 29 15 29.898438 15 31 C 15 32.101562 14.101562 33 13 33 C 11.898438 33 11 32.101562 11 31 C 11 29.898438 11.898438 29 13 29 M 34 30 C 33.449219 30 33 29.550781 33 29 L 33 14 L 31 14 L 31 29 C 31 29.351562 31.070312 29.6875 31.183594 30 L 29.859375 30 C 29.699219 29.390625 29.402344 28.84375 29 28.382812 L 29 21.796875 L 26.4375 15.816406 C 25.964844 14.714844 24.882812 14 23.679688 14 L 9 14 L 9 31 C 9 33.207031 10.792969 35 13 35 C 15.207031 35 17 33.207031 17 31 C 17 28.792969 15.207031 27 13 27 C 12.269531 27 11.589844 27.210938 11 27.558594 L 11 23 L 27 23 L 27 27.140625 C 26.679688 27.058594 26.347656 27 26 27 C 24.140625 27 22.589844 28.28125 22.140625 30 L 19 30 L 19 32 L 22.140625 32 C 22.589844 33.71875 24.140625 35 26 35 C 27.859375 35 29.410156 33.71875 29.859375 32 L 42 32 L 42 30 Z M 34 30 "/>
</g>
</svg>
