<?xml version="1.0" encoding="UTF-8"?>
<svg xmlns="http://www.w3.org/2000/svg" xmlns:xlink="http://www.w3.org/1999/xlink" width="48pt" height="48pt" viewBox="0 0 48 48" version="1.1">
<g id="surface1">
<path style=" stroke:none;fill-rule:nonzero;fill:rgb(0%,0%,0%);fill-opacity:1;" d="M 30 24 L 18 24 L 18 20 L 30 20 Z M 30 30 L 25 30 L 25 28 L 23 28 L 23 30 L 18 30 L 18 26 L 30 26 Z M 19 14 L 29 14 L 29 18 L 19 18 Z M 43.234375 31 L 32 25.382812 L 32 18 L 31 18 L 31 16 L 33 16 L 33 14 L 31 14 L 31 12 L 17 12 L 17 14 L 15 14 L 15 16 L 17 16 L 17 18 L 16 18 L 16 25.382812 L 4.765625 31 L 3 31 L 3 33 L 5.234375 33 L 16 27.617188 L 16 30 L 15 30 L 15 32 L 17 32 L 17 34 L 19 34 L 19 32 L 29 32 L 29 34 L 31 34 L 31 32 L 33 32 L 33 30 L 32 30 L 32 27.617188 L 42.765625 33 L 45 33 L 45 31 Z M 43.234375 31 "/>
</g>
</svg>
