<?xml version="1.0" encoding="UTF-8"?>
<svg xmlns="http://www.w3.org/2000/svg" xmlns:xlink="http://www.w3.org/1999/xlink" width="48pt" height="48pt" viewBox="0 0 48 48" version="1.1">
<g id="surface1">
<path style=" stroke:none;fill-rule:nonzero;fill:rgb(0%,0%,0%);fill-opacity:1;" d="M 9 32 L 41 32 L 41 34 L 9 34 Z M 23 18 L 23 15 L 27.695312 15 L 32.195312 18 Z M 19 15 L 21 15 L 21 18 L 19 18 Z M 15 15 L 17 15 L 17 18 L 15 18 Z M 11 15 L 13 15 L 13 18 L 11 18 Z M 41 24.09375 C 41 22.445312 40.183594 20.921875 38.8125 20.007812 L 28.304688 13 L 9 13 L 9 20 L 35.195312 20 L 37.703125 21.671875 C 38.515625 22.210938 39 23.117188 39 24.09375 C 39 25.695312 37.695312 27 36.09375 27 L 9 27 L 9 29 L 36.09375 29 C 38.800781 29 41 26.796875 41 24.09375 "/>
</g>
</svg>
