<?xml version="1.0" encoding="UTF-8"?>
<svg xmlns="http://www.w3.org/2000/svg" xmlns:xlink="http://www.w3.org/1999/xlink" width="48pt" height="48pt" viewBox="0 0 48 48" version="1.1">
<g id="surface1">
<path style=" stroke:none;fill-rule:nonzero;fill:rgb(0%,0%,0%);fill-opacity:1;" d="M 21 19 L 23 19 L 23 17 L 21 17 Z M 25 19 L 27 19 L 27 17 L 25 17 Z M 19 17 L 9 17 L 9 19 L 19 19 Z M 37.558594 23 L 35.0625 29.648438 L 36.9375 30.351562 L 40.441406 21 L 31 21 L 31 13 L 27 13 L 27 9 L 25 9 L 25 13 L 9 13 L 9 15 L 29 15 L 29 21 L 9 21 L 9 23 Z M 41 33 L 41 35 C 39.515625 35 38.019531 34.628906 36.554688 33.894531 C 34.160156 32.699219 31.839844 32.699219 29.445312 33.894531 C 26.515625 35.359375 23.484375 35.359375 20.554688 33.894531 C 18.160156 32.699219 15.839844 32.699219 13.445312 33.894531 C 11.980469 34.628906 10.484375 35 9 35 L 9 33 C 10.171875 33 11.367188 32.699219 12.554688 32.105469 C 15.503906 30.628906 18.496094 30.628906 21.445312 32.105469 C 23.820312 33.292969 26.179688 33.292969 28.554688 32.105469 C 31.503906 30.628906 34.496094 30.628906 37.445312 32.105469 C 38.632812 32.699219 39.828125 33 41 33 "/>
</g>
</svg>
