<?xml version="1.0" encoding="UTF-8"?>
<svg xmlns="http://www.w3.org/2000/svg" xmlns:xlink="http://www.w3.org/1999/xlink" width="48pt" height="48pt" viewBox="0 0 48 48" version="1.1">
<g id="surface1">
<path style=" stroke:none;fill-rule:nonzero;fill:rgb(0%,0%,0%);fill-opacity:1;" d="M 40 17 L 30 17 L 30 15 L 40 15 Z M 28 19 L 28 21 L 25 21 L 25 15 L 28 15 Z M 23 17 L 19 17 L 19 19 L 23 19 L 23 21 L 20 21 C 19.417969 21 18.867188 21.132812 18.371094 21.355469 C 17.648438 20.140625 16.304688 18.8125 14.152344 18.261719 L 17.414062 15 L 23 15 Z M 16 25 L 16 34 L 10.011719 34 C 10.109375 30.398438 10.742188 28.753906 11.410156 27.019531 L 11.660156 26.355469 C 12.425781 24.3125 12.847656 22.21875 12.957031 20.066406 C 15.3125 20.382812 16.367188 21.804688 16.785156 22.640625 C 16.296875 23.304688 16 24.113281 16 25 M 35 13 L 16.585938 13 L 15.585938 14 L 11 14 L 11 16 L 13.585938 16 L 11.292969 18.292969 L 11 18.679688 L 11 19.09375 C 11 21.289062 10.59375 23.5 9.789062 25.65625 L 9.542969 26.300781 C 8.785156 28.273438 8 30.316406 8 35 L 8 36 L 18 36 L 18 25 C 18 23.898438 18.898438 23 20 23 L 21 23 L 21 26 L 23 26 L 23 23 L 30 23 L 30 19 L 42 19 L 42 13 Z M 35 13 "/>
</g>
</svg>
