<?xml version="1.0" encoding="UTF-8"?>
<svg xmlns="http://www.w3.org/2000/svg" xmlns:xlink="http://www.w3.org/1999/xlink" width="48pt" height="48pt" viewBox="0 0 48 48" version="1.1">
<g id="surface1">
<path style=" stroke:none;fill-rule:nonzero;fill:rgb(0%,0%,0%);fill-opacity:1;" d="M 40 17 L 12.617188 17 L 13.617188 15 L 40 15 Z M 38.464844 20 L 20.769531 20 L 20.890625 19 L 39.132812 19 Z M 17.109375 34 L 16.125 34 L 17.890625 19 L 18.875 19 Z M 14.109375 34 L 10.125 34 L 11.890625 19 L 15.875 19 Z M 26 13 L 16 13 L 16 12 L 14 12 L 14 13 L 12.382812 13 L 11.382812 15 L 9 15 L 9 17 L 10.382812 17 L 10.027344 17.710938 L 9.933594 18.5 L 8 18.5 L 8 20.5 L 9.699219 20.5 L 7.875 36 L 18.890625 36 L 20.535156 22 L 23 22 L 23 25 L 25 25 L 25 22 L 39.535156 22 L 42 18.304688 L 42 13 Z M 26 13 "/>
</g>
</svg>
