<?xml version="1.0" encoding="UTF-8"?>
<svg xmlns="http://www.w3.org/2000/svg" xmlns:xlink="http://www.w3.org/1999/xlink" width="48pt" height="48pt" viewBox="0 0 48 48" version="1.1">
<g id="surface1">
<path style=" stroke:none;fill-rule:nonzero;fill:rgb(0%,0%,0%);fill-opacity:1;" d="M 40 17 L 11.414062 17 L 13.414062 15 L 40 15 Z M 38.464844 20 L 21.769531 20 L 21.890625 19 L 39.132812 19 Z M 18.109375 34 L 11 34 C 11.003906 33.164062 11.050781 32.535156 11.136719 32 L 17 32 L 17 30 L 11.730469 30 C 11.800781 29.828125 11.875 29.644531 11.953125 29.449219 C 12.175781 28.914062 12.429688 28.296875 12.726562 27.488281 C 13.792969 24.597656 13.222656 21.367188 11.3125 19 L 19.875 19 Z M 26 13 L 16 13 L 16 12 L 14 12 L 14 13 L 9 13 L 9 15 L 10.585938 15 L 9 16.585938 L 9 19.414062 L 9.292969 19.707031 C 11.144531 21.558594 11.757812 24.34375 10.84375 26.820312 C 10.5625 27.578125 10.316406 28.171875 10.105469 28.6875 C 9.394531 30.414062 9 31.363281 9 34.148438 L 9 36 L 19.890625 36 L 21.535156 22 L 24 22 L 24 25 L 26 25 L 26 22 L 39.535156 22 L 42 18.304688 L 42 13 Z M 26 13 "/>
</g>
</svg>
