<?xml version="1.0" encoding="UTF-8"?>
<svg xmlns="http://www.w3.org/2000/svg" xmlns:xlink="http://www.w3.org/1999/xlink" width="48pt" height="48pt" viewBox="0 0 48 48" version="1.1">
<g id="surface1">
<path style=" stroke:none;fill-rule:nonzero;fill:rgb(0%,0%,0%);fill-opacity:1;" d="M 31.777344 34.253906 L 31.070312 34.960938 L 30.363281 34.253906 L 31.070312 33.546875 Z M 29.242188 31.71875 L 29.65625 32.132812 L 28.949219 32.839844 L 28.535156 32.425781 L 28.535156 31.011719 Z M 27.949219 27.597656 L 21.171875 20.816406 L 18.34375 17.988281 L 19.757812 16.574219 L 24.707031 21.523438 L 27.949219 24.769531 Z M 26.828125 20.816406 L 25.414062 19.402344 L 26.121094 18.695312 L 27.535156 20.109375 Z M 28.242188 37.789062 L 29.65625 39.203125 L 34.605469 34.253906 L 29.949219 29.597656 L 29.949219 23.941406 L 28.242188 22.230469 L 28.949219 21.523438 L 30.363281 22.941406 L 31.777344 21.523438 L 24.707031 14.453125 L 23.292969 15.867188 L 24.707031 17.28125 L 24 17.988281 L 14.808594 8.796875 L 13.394531 10.210938 L 18.34375 15.160156 L 15.515625 17.988281 L 16.929688 19.402344 L 13.394531 22.941406 L 14.808594 24.355469 L 18.34375 20.816406 L 19.757812 22.230469 L 26.535156 29.011719 L 26.535156 33.253906 L 29.65625 36.375 Z M 28.242188 37.789062 "/>
</g>
</svg>
