<?xml version="1.0" encoding="UTF-8"?>
<svg xmlns="http://www.w3.org/2000/svg" xmlns:xlink="http://www.w3.org/1999/xlink" width="48pt" height="48pt" viewBox="0 0 48 48" version="1.1">
<g id="surface1">
<path style=" stroke:none;fill-rule:nonzero;fill:rgb(0%,0%,0%);fill-opacity:1;" d="M 19.050781 15.160156 L 21.171875 17.28125 L 19.757812 18.695312 L 17.636719 16.574219 Z M 22.585938 18.695312 L 27.535156 23.644531 L 31.777344 27.890625 L 30.363281 29.304688 L 23.292969 22.230469 L 21.171875 20.109375 Z M 16.222656 15.160156 L 11.980469 10.917969 L 10.566406 12.332031 L 23.292969 25.058594 L 22.585938 25.765625 C 22.574219 25.777344 21.296875 27.027344 19.441406 27.648438 L 20.074219 29.546875 C 22.394531 28.769531 23.9375 27.246094 24 27.183594 L 24.707031 26.476562 L 26.476562 28.242188 L 25.839844 32.695312 L 27.820312 32.980469 L 28.242188 30.011719 L 30.363281 32.132812 L 31.777344 30.71875 L 34.605469 33.546875 L 32.484375 35.667969 L 33.898438 37.082031 L 37.433594 33.546875 L 33.191406 29.304688 L 34.605469 27.890625 L 32.484375 25.765625 L 33.191406 25.058594 L 31.777344 23.644531 L 31.070312 24.351562 L 20.464844 13.746094 L 21.171875 13.039062 L 19.757812 11.625 Z M 16.222656 15.160156 "/>
</g>
</svg>
