<?xml version="1.0" encoding="UTF-8"?>
<svg xmlns="http://www.w3.org/2000/svg" xmlns:xlink="http://www.w3.org/1999/xlink" width="48pt" height="48pt" viewBox="0 0 48 48" version="1.1">
<g id="surface1">
<path style=" stroke:none;fill-rule:nonzero;fill:rgb(0%,0%,0%);fill-opacity:1;" d="M 18.34375 17.988281 L 19.757812 16.574219 L 24.707031 21.523438 L 35.3125 32.132812 L 32.484375 34.960938 L 31.875 34.351562 L 28.949219 28.59375 Z M 14.101562 13.746094 L 11.273438 10.917969 L 9.859375 12.332031 L 12.6875 15.160156 L 11.980469 15.867188 L 13.394531 17.28125 L 14.101562 16.574219 L 19.050781 21.523438 L 20.464844 22.941406 L 19.757812 23.648438 C 19.746094 23.65625 18.46875 24.90625 16.613281 25.527344 L 17.246094 27.421875 C 19.566406 26.652344 21.109375 25.125 21.171875 25.0625 L 21.878906 24.355469 L 23.648438 26.121094 L 23.011719 30.574219 L 24.988281 30.859375 L 25.414062 27.890625 L 27.4375 29.910156 L 30.265625 35.570312 L 32.484375 37.789062 L 38.144531 32.132812 L 29.65625 23.648438 L 30.363281 22.941406 L 28.949219 21.523438 L 28.242188 22.234375 L 26.121094 20.109375 L 18.34375 12.332031 L 19.050781 11.625 L 17.636719 10.210938 L 15.515625 12.332031 L 18.34375 15.160156 L 16.929688 16.574219 Z M 14.101562 13.746094 "/>
</g>
</svg>
