<?xml version="1.0" encoding="UTF-8"?>
<svg xmlns="http://www.w3.org/2000/svg" xmlns:xlink="http://www.w3.org/1999/xlink" width="48pt" height="48pt" viewBox="0 0 48 48" version="1.1">
<g id="surface1">
<path style=" stroke:none;fill-rule:nonzero;fill:rgb(0%,0%,0%);fill-opacity:1;" d="M 18.34375 16.574219 L 34.605469 32.839844 L 31.777344 35.667969 L 31.207031 35.097656 L 29.085938 30.144531 L 23 24.058594 L 21.585938 24.058594 L 16.222656 18.695312 Z M 15.515625 12.332031 L 12.6875 9.503906 L 11.273438 10.917969 L 16.222656 15.867188 L 14.808594 17.28125 L 11.980469 14.453125 L 10.566406 15.867188 L 20.464844 25.765625 C 20.453125 25.777344 19.175781 27.027344 17.320312 27.648438 L 17.953125 29.546875 C 20.273438 28.769531 21.816406 27.246094 21.878906 27.183594 L 22.585938 26.476562 L 23.707031 27.597656 L 23.707031 32.839844 L 25.707031 32.839844 L 25.707031 29.597656 L 27.398438 31.289062 L 29.519531 36.238281 L 31.777344 38.496094 L 37.433594 32.839844 L 29.65625 25.058594 L 30.363281 24.351562 L 28.949219 22.9375 L 28.242188 23.644531 L 18.34375 13.746094 L 17.636719 14.453125 L 16.929688 13.746094 L 17.636719 13.039062 L 16.222656 11.625 Z M 15.515625 12.332031 "/>
</g>
</svg>
