<?xml version="1.0" encoding="UTF-8"?>
<svg xmlns="http://www.w3.org/2000/svg" xmlns:xlink="http://www.w3.org/1999/xlink" width="48pt" height="48pt" viewBox="0 0 48 48" version="1.1">
<g id="surface1">
<path style=" stroke:none;fill-rule:nonzero;fill:rgb(0%,0%,0%);fill-opacity:1;" d="M 16.613281 15.199219 L 27.144531 25.730469 L 25.730469 27.144531 L 15.199219 16.613281 Z M 30.679688 29.265625 L 34.921875 33.507812 L 32.09375 36.335938 L 31.554688 35.796875 L 29.703125 30.242188 Z M 16.613281 12.371094 L 13.078125 8.835938 L 11.664062 10.25 L 15.199219 13.785156 L 13.785156 15.199219 L 11.664062 13.078125 L 10.25 14.492188 L 19.367188 23.609375 L 18.660156 24.316406 C 18.648438 24.328125 17.371094 25.578125 15.515625 26.195312 L 16.148438 28.09375 C 18.464844 27.320312 20.007812 25.796875 20.074219 25.730469 L 20.78125 25.023438 L 22.546875 26.792969 L 21.914062 31.246094 L 23.890625 31.527344 L 24.316406 28.558594 L 25.730469 29.972656 L 28.558594 27.144531 L 29.265625 27.851562 L 27.414062 29.703125 L 29.804688 36.878906 L 32.09375 39.164062 L 37.75 33.507812 L 26.4375 22.195312 L 27.144531 21.488281 L 25.730469 20.074219 L 25.023438 20.78125 L 20.855469 16.613281 L 21.5625 15.90625 L 20.148438 14.492188 L 19.441406 15.199219 Z M 16.613281 12.371094 "/>
</g>
</svg>
