<?xml version="1.0" encoding="UTF-8"?>
<svg xmlns="http://www.w3.org/2000/svg" xmlns:xlink="http://www.w3.org/1999/xlink" width="48pt" height="48pt" viewBox="0 0 48 48" version="1.1">
<g id="surface1">
<path style=" stroke:none;fill-rule:nonzero;fill:rgb(0%,0%,0%);fill-opacity:1;" d="M 20.109375 18.695312 L 21.523438 17.28125 L 30.425781 26.183594 L 30.425781 29.011719 L 34.960938 33.546875 L 32.839844 35.667969 L 32.261719 35.089844 L 28.722656 27.308594 Z M 17.28125 13.039062 L 20.109375 15.867188 L 18.695312 17.28125 L 15.867188 14.453125 Z M 10.210938 11.625 L 20.109375 21.523438 L 17.988281 23.648438 L 19.402344 25.0625 L 21.523438 22.941406 L 23.03125 24.445312 C 22.355469 25.238281 21.011719 26.546875 19.207031 26.910156 L 19.601562 28.871094 C 21.894531 28.410156 23.554688 26.886719 24.449219 25.863281 L 24.769531 26.183594 L 24.769531 32.839844 L 26.769531 32.839844 L 26.769531 28.183594 L 27.054688 28.46875 L 30.589844 36.246094 L 32.839844 38.496094 L 37.789062 33.546875 L 32.421875 28.183594 L 32.421875 25.355469 L 31.425781 24.355469 L 32.132812 23.648438 L 30.71875 22.234375 L 30.011719 22.941406 L 18.695312 11.625 L 19.402344 10.917969 L 17.988281 9.503906 L 14.453125 13.039062 L 11.625 10.210938 Z M 10.210938 11.625 "/>
</g>
</svg>
