<?xml version="1.0" encoding="UTF-8"?>
<svg xmlns="http://www.w3.org/2000/svg" xmlns:xlink="http://www.w3.org/1999/xlink" width="48pt" height="48pt" viewBox="0 0 48 48" version="1.1">
<g id="surface1">
<path style=" stroke:none;fill-rule:nonzero;fill:rgb(0%,0%,0%);fill-opacity:1;" d="M 15.867188 15.160156 L 19.402344 18.695312 L 17.988281 20.109375 L 14.453125 16.574219 Z M 20.816406 20.113281 L 33.242188 32.535156 L 30.414062 35.363281 L 30.53125 35.480469 L 27.703125 29.824219 L 19.402344 21.523438 Z M 12.332031 8.796875 L 10.917969 10.210938 L 14.453125 13.746094 L 11.625 16.574219 L 14.453125 19.402344 L 10.917969 22.9375 L 12.332031 24.351562 L 15.867188 20.816406 L 19.101562 24.050781 L 18.394531 24.757812 C 18.382812 24.769531 17.105469 26.019531 15.25 26.636719 L 15.882812 28.535156 C 18.199219 27.761719 19.742188 26.234375 19.808594 26.171875 L 20.515625 25.464844 L 21.84375 26.792969 L 21.84375 32.035156 L 23.84375 32.035156 L 23.84375 28.792969 L 26.058594 31.007812 L 28.886719 36.664062 L 30.414062 38.191406 L 36.070312 32.535156 L 27.585938 24.050781 L 28.292969 23.34375 L 26.878906 21.925781 L 26.171875 22.636719 L 18.695312 15.160156 L 19.40625 14.453125 L 17.992188 13.039062 L 17.28125 13.746094 Z M 12.332031 8.796875 "/>
</g>
</svg>
