<?xml version="1.0" encoding="UTF-8"?>
<svg xmlns="http://www.w3.org/2000/svg" xmlns:xlink="http://www.w3.org/1999/xlink" width="48pt" height="48pt" viewBox="0 0 48 48" version="1.1">
<g id="surface1">
<path style=" stroke:none;fill-rule:nonzero;fill:rgb(0%,0%,0%);fill-opacity:1;" d="M 17.988281 14.453125 L 24.355469 20.816406 L 35.667969 32.132812 L 32.839844 34.960938 L 32.925781 35.046875 L 28.59375 27.890625 L 20.109375 19.402344 L 16.574219 15.867188 Z M 15.160156 14.453125 L 10.917969 10.210938 L 9.503906 11.625 L 20.816406 22.9375 L 18.695312 25.058594 L 20.109375 26.476562 L 22.234375 24.351562 L 22.597656 24.71875 L 21.945312 30.605469 L 23.933594 30.828125 L 24.410156 26.53125 L 27.09375 29.214844 L 31.335938 36.285156 L 32.839844 37.789062 L 38.496094 32.132812 L 32.425781 26.058594 L 32.425781 21.816406 L 27.183594 16.574219 L 25.769531 17.988281 L 30.425781 22.644531 L 30.425781 24.058594 L 25.769531 19.402344 L 19.402344 13.039062 L 20.109375 12.332031 L 18.695312 10.917969 Z M 15.160156 14.453125 "/>
</g>
</svg>
