<?xml version="1.0" encoding="UTF-8"?>
<svg xmlns="http://www.w3.org/2000/svg" xmlns:xlink="http://www.w3.org/1999/xlink" width="48pt" height="48pt" viewBox="0 0 48 48" version="1.1">
<g id="surface1">
<path style=" stroke:none;fill-rule:nonzero;fill:rgb(0%,0%,0%);fill-opacity:1;" d="M 35.335938 28.265625 L 36.753906 29.679688 L 29.679688 36.75 L 28.265625 35.335938 Z M 18.367188 14.125 L 19.78125 15.539062 L 15.539062 19.78125 L 14.125 18.367188 C 12.953125 17.199219 12.953125 15.292969 14.125 14.125 C 15.292969 12.953125 17.199219 12.953125 18.367188 14.125 M 21.195312 16.953125 L 29.679688 25.4375 L 25.4375 29.679688 L 16.953125 21.195312 Z M 12.710938 19.78125 L 24.730469 31.800781 L 28.113281 34.074219 L 29.554688 32.636719 L 27.007812 30.941406 L 30.9375 27.007812 L 32.636719 29.554688 L 34.078125 28.113281 L 31.925781 24.882812 L 19.78125 12.710938 C 17.832031 10.761719 14.660156 10.761719 12.710938 12.710938 C 10.761719 14.660156 10.761719 17.832031 12.710938 19.78125 "/>
</g>
</svg>
