<?xml version="1.0" encoding="UTF-8"?>
<svg xmlns="http://www.w3.org/2000/svg" xmlns:xlink="http://www.w3.org/1999/xlink" width="48pt" height="48pt" viewBox="0 0 48 48" version="1.1">
<g id="surface1">
<path style=" stroke:none;fill-rule:nonzero;fill:rgb(0%,0%,0%);fill-opacity:1;" d="M 13.382812 13.382812 C 13.308594 13.457031 13.152344 13.65625 13.277344 13.941406 L 15.070312 17.898438 L 22.597656 25.425781 L 25.425781 22.597656 L 17.898438 15.070312 L 13.941406 13.28125 C 13.65625 13.152344 13.453125 13.308594 13.382812 13.382812 M 11.96875 11.96875 C 12.710938 11.222656 13.808594 11.023438 14.765625 11.457031 L 19.054688 13.398438 L 27.382812 21.726562 L 29.53125 22.460938 L 34.648438 27.574219 L 33.234375 28.992188 L 28.445312 24.203125 L 27.105469 23.746094 L 23.746094 27.105469 L 24.203125 28.445312 L 28.988281 33.234375 L 27.574219 34.648438 L 22.460938 29.535156 L 21.726562 27.382812 L 13.398438 19.054688 L 11.457031 14.765625 C 11.023438 13.808594 11.226562 12.710938 11.96875 11.96875 M 29.695312 36.769531 L 28.28125 35.355469 L 35.355469 28.285156 L 36.769531 29.699219 Z M 29.695312 36.769531 "/>
</g>
</svg>
