<?xml version="1.0" encoding="UTF-8"?>
<svg xmlns="http://www.w3.org/2000/svg" xmlns:xlink="http://www.w3.org/1999/xlink" width="48pt" height="48pt" viewBox="0 0 48 48" version="1.1">
<g id="surface1">
<path style=" stroke:none;fill-rule:nonzero;fill:rgb(0%,0%,0%);fill-opacity:1;" d="M 37 19 C 34.792969 19 33 17.207031 33 15 L 35 15 C 35 16.101562 35.898438 17 37 17 C 38.101562 17 39 16.101562 39 15 C 39 13.898438 38.101562 13 37 13 L 37 14 L 34 12 L 37 10 L 37 11 C 39.207031 11 41 12.792969 41 15 C 41 17.207031 39.207031 19 37 19 M 37 8 C 33.132812 8 30 11.132812 30 15 C 30 18.867188 33.132812 22 37 22 C 40.867188 22 44 18.867188 44 15 C 44 11.132812 40.867188 8 37 8 M 13.382812 13.382812 C 13.308594 13.453125 13.152344 13.65625 13.277344 13.941406 L 15.070312 17.898438 L 22.597656 25.425781 L 25.425781 22.597656 L 17.898438 15.070312 L 13.941406 13.277344 C 13.65625 13.152344 13.453125 13.308594 13.382812 13.382812 M 11.96875 11.96875 C 12.710938 11.226562 13.808594 11.023438 14.765625 11.457031 L 19.054688 13.398438 L 27.382812 21.726562 L 29.53125 22.460938 L 34.644531 27.574219 L 33.230469 28.988281 L 28.445312 24.203125 L 27.105469 23.746094 L 23.746094 27.105469 L 24.203125 28.445312 L 28.988281 33.234375 L 27.574219 34.648438 L 22.464844 29.535156 L 21.726562 27.382812 L 13.398438 19.054688 L 11.457031 14.765625 C 11.023438 13.808594 11.226562 12.710938 11.96875 11.96875 M 29.695312 36.769531 L 28.28125 35.355469 L 35.355469 28.28125 L 36.769531 29.695312 Z M 29.695312 36.769531 "/>
</g>
</svg>
