<?xml version="1.0" encoding="UTF-8"?>
<svg xmlns="http://www.w3.org/2000/svg" xmlns:xlink="http://www.w3.org/1999/xlink" width="48pt" height="48pt" viewBox="0 0 48 48" version="1.1">
<g id="surface1">
<path style=" stroke:none;fill-rule:nonzero;fill:rgb(0%,0%,0%);fill-opacity:1;" d="M 34.957031 22 L 25 22 L 25 20 L 32.9375 20 C 32.886719 19.507812 32.785156 19.03125 32.65625 18.566406 C 32.648438 18.535156 32.640625 18.503906 32.632812 18.46875 C 32.574219 18.277344 32.511719 18.09375 32.441406 17.910156 C 32.417969 17.839844 32.390625 17.769531 32.363281 17.699219 C 32.296875 17.527344 32.222656 17.359375 32.144531 17.191406 C 32.109375 17.117188 32.070312 17.042969 32.035156 16.96875 C 31.953125 16.808594 31.867188 16.648438 31.777344 16.492188 C 31.734375 16.421875 31.691406 16.347656 31.644531 16.277344 C 31.550781 16.121094 31.457031 15.972656 31.351562 15.824219 C 31.308594 15.761719 31.261719 15.703125 31.214844 15.640625 C 31.101562 15.488281 30.988281 15.339844 30.863281 15.191406 C 30.855469 15.179688 30.84375 15.171875 30.832031 15.15625 C 30.539062 14.816406 30.222656 14.496094 29.878906 14.199219 C 29.851562 14.179688 29.828125 14.152344 29.804688 14.132812 C 29.667969 14.019531 29.527344 13.914062 29.386719 13.808594 C 29.3125 13.753906 29.238281 13.695312 29.164062 13.640625 C 29.027344 13.546875 28.890625 13.457031 28.75 13.371094 C 28.664062 13.316406 28.574219 13.261719 28.484375 13.210938 C 28.347656 13.128906 28.203125 13.050781 28.058594 12.976562 C 27.964844 12.929688 27.867188 12.882812 27.769531 12.839844 C 27.625 12.769531 27.476562 12.703125 27.324219 12.644531 C 27.226562 12.605469 27.125 12.570312 27.027344 12.535156 C 26.867188 12.480469 26.714844 12.421875 26.554688 12.375 C 26.464844 12.347656 26.375 12.328125 26.28125 12.304688 C 25.863281 12.195312 25.4375 12.105469 25 12.058594 C 24.671875 12.023438 24.339844 12 24 12 C 23.660156 12 23.328125 12.023438 23 12.058594 C 22.5625 12.105469 22.136719 12.195312 21.71875 12.304688 C 21.628906 12.328125 21.535156 12.347656 21.445312 12.375 C 21.285156 12.421875 21.132812 12.480469 20.976562 12.535156 C 20.875 12.570312 20.773438 12.605469 20.675781 12.644531 C 20.523438 12.703125 20.378906 12.769531 20.230469 12.839844 C 20.132812 12.882812 20.035156 12.929688 19.941406 12.976562 C 19.796875 13.050781 19.652344 13.128906 19.515625 13.210938 C 19.425781 13.261719 19.335938 13.316406 19.25 13.371094 C 19.109375 13.457031 18.972656 13.546875 18.835938 13.640625 C 18.761719 13.695312 18.6875 13.753906 18.613281 13.808594 C 18.472656 13.914062 18.332031 14.019531 18.195312 14.132812 C 18.171875 14.152344 18.144531 14.179688 18.121094 14.199219 C 17.777344 14.496094 17.460938 14.816406 17.167969 15.15625 C 17.15625 15.171875 17.144531 15.179688 17.136719 15.191406 C 17.011719 15.339844 16.898438 15.488281 16.785156 15.640625 C 16.738281 15.703125 16.691406 15.761719 16.648438 15.824219 C 16.546875 15.972656 16.449219 16.121094 16.351562 16.277344 C 16.308594 16.347656 16.265625 16.421875 16.222656 16.492188 C 16.132812 16.648438 16.046875 16.808594 15.964844 16.96875 C 15.929688 17.042969 15.890625 17.117188 15.855469 17.195312 C 15.777344 17.359375 15.703125 17.527344 15.636719 17.699219 C 15.605469 17.769531 15.585938 17.839844 15.558594 17.910156 C 15.488281 18.09375 15.425781 18.28125 15.367188 18.46875 C 15.359375 18.503906 15.351562 18.535156 15.34375 18.566406 C 15.214844 19.03125 15.113281 19.507812 15.058594 20 L 23 20 L 23 22 L 13.046875 22 C 13.550781 27.597656 18.269531 32 24 32 C 29.726562 32 34.449219 27.597656 34.957031 22 M 27 33.636719 C 26.035156 33.863281 25.035156 34 24 34 C 22.964844 34 21.964844 33.863281 21 33.636719 L 21 35 L 27 35 Z M 37 20 L 37 21 C 37 26.394531 33.691406 31.03125 29 32.996094 L 29 37 L 19 37 L 19 32.996094 C 14.308594 31.03125 11 26.394531 11 21 L 11 20 L 13.046875 20 C 13.050781 19.988281 13.050781 19.980469 13.054688 19.96875 C 13.070312 19.785156 13.101562 19.605469 13.125 19.425781 C 13.148438 19.261719 13.171875 19.097656 13.199219 18.9375 C 13.234375 18.753906 13.277344 18.578125 13.324219 18.402344 C 13.359375 18.246094 13.398438 18.089844 13.441406 17.9375 C 13.492188 17.761719 13.550781 17.589844 13.609375 17.417969 C 13.660156 17.269531 13.714844 17.121094 13.769531 16.980469 C 13.839844 16.808594 13.910156 16.640625 13.984375 16.476562 C 14.050781 16.335938 14.113281 16.199219 14.183594 16.0625 C 14.265625 15.898438 14.351562 15.734375 14.441406 15.574219 C 14.515625 15.449219 14.59375 15.324219 14.671875 15.199219 C 14.769531 15.039062 14.867188 14.882812 14.976562 14.726562 C 15.054688 14.617188 15.140625 14.511719 15.222656 14.398438 C 15.339844 14.242188 15.457031 14.085938 15.582031 13.933594 C 15.640625 13.867188 15.699219 13.804688 15.757812 13.738281 C 16.082031 13.375 16.425781 13.03125 16.789062 12.714844 C 16.835938 12.671875 16.878906 12.628906 16.929688 12.585938 C 17.09375 12.445312 17.269531 12.316406 17.445312 12.1875 C 17.535156 12.121094 17.621094 12.050781 17.714844 11.984375 C 17.886719 11.863281 18.066406 11.753906 18.246094 11.644531 C 18.347656 11.578125 18.445312 11.515625 18.550781 11.457031 C 18.734375 11.351562 18.921875 11.257812 19.109375 11.160156 C 19.21875 11.109375 19.324219 11.054688 19.433594 11.003906 C 19.628906 10.914062 19.824219 10.832031 20.019531 10.757812 C 20.132812 10.714844 20.242188 10.671875 20.355469 10.632812 C 20.5625 10.5625 20.765625 10.492188 20.976562 10.433594 C 21.085938 10.402344 21.195312 10.375 21.304688 10.347656 C 21.527344 10.292969 21.746094 10.238281 21.972656 10.195312 C 22.066406 10.179688 22.160156 10.167969 22.253906 10.152344 C 22.824219 10.0625 23.402344 10 24 10 C 24.597656 10 25.175781 10.0625 25.746094 10.152344 C 25.839844 10.167969 25.933594 10.179688 26.027344 10.195312 C 26.253906 10.238281 26.472656 10.292969 26.695312 10.347656 C 26.804688 10.375 26.914062 10.402344 27.019531 10.433594 C 27.230469 10.492188 27.4375 10.5625 27.644531 10.632812 C 27.757812 10.671875 27.867188 10.714844 27.976562 10.757812 C 28.175781 10.832031 28.371094 10.914062 28.566406 11.003906 C 28.675781 11.054688 28.78125 11.109375 28.890625 11.160156 C 29.082031 11.257812 29.265625 11.351562 29.449219 11.457031 C 29.554688 11.515625 29.652344 11.578125 29.753906 11.644531 C 29.933594 11.753906 30.113281 11.863281 30.285156 11.984375 C 30.378906 12.050781 30.464844 12.121094 30.554688 12.1875 C 30.730469 12.316406 30.90625 12.445312 31.070312 12.585938 C 31.121094 12.628906 31.164062 12.671875 31.210938 12.714844 C 31.578125 13.03125 31.917969 13.375 32.238281 13.738281 C 32.300781 13.804688 32.359375 13.863281 32.417969 13.933594 C 32.546875 14.085938 32.660156 14.242188 32.777344 14.398438 C 32.859375 14.511719 32.945312 14.617188 33.023438 14.726562 C 33.132812 14.882812 33.230469 15.039062 33.328125 15.199219 C 33.40625 15.324219 33.484375 15.449219 33.558594 15.574219 C 33.648438 15.734375 33.734375 15.898438 33.816406 16.0625 C 33.886719 16.199219 33.949219 16.335938 34.015625 16.476562 C 34.089844 16.640625 34.160156 16.808594 34.226562 16.980469 C 34.285156 17.121094 34.339844 17.269531 34.390625 17.417969 C 34.449219 17.589844 34.507812 17.761719 34.558594 17.9375 C 34.601562 18.089844 34.640625 18.246094 34.675781 18.402344 C 34.722656 18.578125 34.765625 18.753906 34.800781 18.9375 C 34.832031 19.097656 34.851562 19.261719 34.875 19.425781 C 34.898438 19.605469 34.929688 19.785156 34.945312 19.96875 C 34.949219 19.980469 34.949219 19.988281 34.953125 20 Z M 24 30.339844 C 21.695312 30.339844 19.390625 29.460938 17.636719 27.707031 L 19.050781 26.292969 C 21.78125 29.019531 26.21875 29.019531 28.949219 26.292969 L 30.363281 27.707031 C 28.609375 29.460938 26.304688 30.339844 24 30.339844 "/>
</g>
</svg>
