<?xml version="1.0" encoding="UTF-8"?>
<svg xmlns="http://www.w3.org/2000/svg" xmlns:xlink="http://www.w3.org/1999/xlink" width="48pt" height="48pt" viewBox="0 0 48 48" version="1.1">
<g id="surface1">
<path style=" stroke:none;fill-rule:nonzero;fill:rgb(0%,0%,0%);fill-opacity:1;" d="M 27.90625 12.359375 C 28.773438 11.125 28.671875 10.207031 27.550781 9.195312 L 28.894531 7.710938 C 30.757812 9.398438 30.984375 11.457031 29.539062 13.511719 C 28.671875 14.746094 28.773438 15.664062 29.894531 16.679688 L 28.550781 18.160156 C 26.6875 16.472656 26.460938 14.414062 27.90625 12.359375 M 22.910156 12.421875 C 23.777344 11.1875 23.675781 10.269531 22.554688 9.253906 L 23.898438 7.769531 C 25.761719 9.460938 25.988281 11.519531 24.542969 13.574219 C 23.675781 14.808594 23.777344 15.726562 24.894531 16.742188 L 23.550781 18.222656 C 21.691406 16.535156 21.464844 14.476562 22.910156 12.421875 M 17.460938 12.488281 C 18.328125 11.253906 18.226562 10.335938 17.105469 9.320312 L 18.449219 7.839844 C 20.308594 9.527344 20.539062 11.585938 19.09375 13.640625 C 18.226562 14.875 18.328125 15.792969 19.449219 16.804688 L 18.101562 18.289062 C 16.242188 16.601562 16.011719 14.542969 17.460938 12.488281 M 19.050781 26.292969 C 21.78125 29.019531 26.21875 29.019531 28.949219 26.292969 L 30.363281 27.707031 C 28.609375 29.460938 26.304688 30.339844 24 30.339844 C 21.695312 30.339844 19.390625 29.460938 17.636719 27.707031 Z M 27 33.636719 L 27 35 L 21 35 L 21 33.636719 C 21.964844 33.867188 22.964844 34 24 34 C 25.035156 34 26.035156 33.867188 27 33.636719 M 19.007812 33 L 19 33 L 19 37 L 29 37 L 29 33 L 28.992188 33 C 33.6875 31.039062 37 26.402344 37 21 L 37 20 L 25 20 L 25 22 L 34.957031 22 C 34.449219 27.597656 29.726562 32 24 32 C 18.269531 32 13.550781 27.597656 13.046875 22 L 23 22 L 23 20 L 11 20 L 11 21 C 11 26.402344 14.308594 31.039062 19.007812 33 "/>
</g>
</svg>
