<?xml version="1.0" encoding="UTF-8"?>
<svg xmlns="http://www.w3.org/2000/svg" xmlns:xlink="http://www.w3.org/1999/xlink" width="48pt" height="48pt" viewBox="0 0 48 48" version="1.1">
<g id="surface1">
<path style=" stroke:none;fill-rule:nonzero;fill:rgb(0%,0%,0%);fill-opacity:1;" d="M 24 30.339844 C 21.695312 30.339844 19.390625 29.460938 17.636719 27.707031 L 19.050781 26.292969 C 21.78125 29.023438 26.21875 29.023438 28.949219 26.292969 L 30.363281 27.707031 C 28.609375 29.460938 26.304688 30.339844 24 30.339844 M 23 22 L 23 20 L 20 20 L 20 13 L 23 13 L 23 20 L 25 20 L 25 13 L 28 13 L 28 20 L 25 20 L 25 22 L 34.953125 22 C 34.449219 27.597656 29.730469 32 24 32 C 18.269531 32 13.550781 27.597656 13.046875 22 Z M 27 35 L 21 35 L 21 33.636719 C 21.964844 33.867188 22.964844 34 24 34 C 25.035156 34 26.035156 33.867188 27 33.636719 Z M 19.007812 33 L 19 33 L 19 37 L 29 37 L 29 33 L 28.992188 33 C 33.6875 31.039062 37 26.398438 37 21 L 37 20 L 30 20 L 30 13 L 40 13 L 40 11 L 30 11 L 30 10 L 28 10 L 28 11 L 25 11 L 25 10 L 23 10 L 23 11 L 20 11 L 20 10 L 18 10 L 18 11 L 15 11 L 15 13 L 18 13 L 18 20 L 11 20 L 11 21 C 11 26.398438 14.3125 31.039062 19.007812 33 "/>
</g>
</svg>
