<?xml version="1.0" encoding="UTF-8"?>
<svg xmlns="http://www.w3.org/2000/svg" xmlns:xlink="http://www.w3.org/1999/xlink" width="48pt" height="48pt" viewBox="0 0 48 48" version="1.1">
<g id="surface1">
<path style=" stroke:none;fill-rule:nonzero;fill:rgb(0%,0%,0%);fill-opacity:1;" d="M 33.539062 17 L 25 17 L 25 19 L 33.238281 19 L 32.1875 26 L 15.8125 26 L 14.761719 19 L 23 19 L 23 17 L 14.460938 17 L 14.160156 15 L 33.839844 15 Z M 32.859375 35 L 35.859375 15 L 37 15 L 37 13 L 11 13 L 11 15 L 12.140625 15 L 15.140625 35 Z M 16.859375 33 L 16.109375 28 L 19 28 L 19 31 L 21 31 L 21 28 L 23 28 L 23 31 L 25 31 L 25 28 L 27 28 L 27 31 L 29 31 L 29 28 L 31.890625 28 L 31.140625 33 Z M 16.859375 33 "/>
</g>
</svg>
