<?xml version="1.0" encoding="UTF-8"?>
<svg xmlns="http://www.w3.org/2000/svg" xmlns:xlink="http://www.w3.org/1999/xlink" width="48pt" height="48pt" viewBox="0 0 48 48" version="1.1">
<g id="surface1">
<path style=" stroke:none;fill-rule:nonzero;fill:rgb(0%,0%,0%);fill-opacity:1;" d="M 41 33.5 L 39.96875 33.5 L 39.28125 36 L 37.71875 36 L 36.96875 33.089844 L 36.269531 36 L 34.71875 36 L 34.03125 33.5 L 33 33.5 L 33 32.5 L 33.75 32.5 L 33.421875 31.289062 L 33.058594 30 L 34.78125 30 L 35.488281 33 L 36.179688 30 L 37.71875 30 L 38.488281 33 L 39.230469 30 L 40.941406 30 L 40.25 32.5 L 41 32.5 Z M 16.859375 33 L 16.109375 28 L 19 28 L 19 31 L 21 31 L 21 28 L 23 28 L 23 31 L 25 31 L 25 28 L 27 28 L 27 31 L 29 31 L 29 28 L 31.890625 28 L 31.851562 28.269531 C 30.691406 29.519531 30 31.171875 30 33 Z M 14.761719 19 L 23 19 L 23 17 L 14.460938 17 L 14.160156 15 L 33.839844 15 L 33.539062 17 L 25 17 L 25 19 L 33.238281 19 L 32.191406 26 L 15.808594 26 Z M 37 26 C 35.96875 26 35 26.21875 34.121094 26.621094 L 35.859375 15 L 37 15 L 37 13 L 11 13 L 11 15 L 12.140625 15 L 15.140625 35 L 30.289062 35 C 31.148438 37.890625 33.820312 40 37 40 C 40.871094 40 44 36.871094 44 33 C 44 29.128906 40.871094 26 37 26 "/>
</g>
</svg>
