<?xml version="1.0" encoding="UTF-8"?>
<svg xmlns="http://www.w3.org/2000/svg" xmlns:xlink="http://www.w3.org/1999/xlink" width="48pt" height="48pt" viewBox="0 0 48 48" version="1.1">
<g id="surface1">
<path style=" stroke:none;fill-rule:nonzero;fill:rgb(0%,0%,0%);fill-opacity:1;" d="M 29 35 L 19 35 C 18.449219 35 18 34.550781 18 34 L 18 33 L 30 33 L 30 34 C 30 34.550781 29.550781 35 29 35 M 30 31 L 18 31 L 18 17 L 30 17 Z M 30 15 L 18 15 L 18 13 L 30 13 Z M 26.414062 11 L 27.707031 9.707031 L 26.292969 8.292969 L 23.585938 11 L 16 11 L 16 34 C 16 35.652344 17.34375 37 19 37 L 29 37 C 30.652344 37 32 35.652344 32 34 L 32 11 Z M 26.414062 11 "/>
</g>
</svg>
