<?xml version="1.0" encoding="UTF-8"?>
<svg xmlns="http://www.w3.org/2000/svg" xmlns:xlink="http://www.w3.org/1999/xlink" width="48pt" height="48pt" viewBox="0 0 48 48" version="1.1">
<g id="surface1">
<path style=" stroke:none;fill-rule:nonzero;fill:rgb(0%,0%,0%);fill-opacity:1;" d="M 27 26 L 21 26 L 21 24 L 27 24 Z M 27 31 L 21 31 L 21 29 L 27 29 Z M 19 18 C 19 15.242188 21.242188 13 24 13 C 26.757812 13 29 15.242188 29 18 Z M 29 34 C 29 34.550781 28.550781 35 28 35 L 20 35 C 19.449219 35 19 34.550781 19 34 L 19 20 L 29 20 Z M 23 10 L 25 10 L 25 11.078125 C 24.671875 11.03125 24.339844 11 24 11 C 23.660156 11 23.328125 11.03125 23 11.078125 Z M 27 11.683594 L 27 8 L 21 8 L 21 11.683594 C 18.640625 12.8125 17 15.214844 17 18 L 17 34 C 17 35.652344 18.347656 37 20 37 L 28 37 C 29.652344 37 31 35.652344 31 34 L 31 18 C 31 15.214844 29.359375 12.8125 27 11.683594 "/>
</g>
</svg>
