<?xml version="1.0" encoding="UTF-8"?>
<svg xmlns="http://www.w3.org/2000/svg" xmlns:xlink="http://www.w3.org/1999/xlink" width="48pt" height="48pt" viewBox="0 0 48 48" version="1.1">
<g id="surface1">
<path style=" stroke:none;fill-rule:nonzero;fill:rgb(0%,0%,0%);fill-opacity:1;" d="M 29.410156 29 L 18.589844 29 L 18.058594 20 L 29.9375 20 Z M 18.941406 35 L 18.707031 31 L 29.292969 31 L 29.058594 35 Z M 16 16 L 32 16 L 32 18 L 16 18 Z M 18 13 C 18 12.449219 18.449219 12 19 12 L 29 12 C 29.550781 12 30 12.449219 30 13 L 30 14 L 18 14 Z M 34 14 L 32 14 L 32 13 C 32 11.347656 30.652344 10 29 10 L 19 10 C 17.347656 10 16 11.347656 16 13 L 16 14 L 14 14 L 14 20 L 16.058594 20 L 17.058594 37 L 30.941406 37 L 31.941406 20 L 34 20 Z M 34 14 "/>
</g>
</svg>
