<?xml version="1.0" encoding="UTF-8"?>
<svg xmlns="http://www.w3.org/2000/svg" xmlns:xlink="http://www.w3.org/1999/xlink" width="48pt" height="48pt" viewBox="0 0 48 48" version="1.1">
<g id="surface1">
<path style=" stroke:none;fill-rule:nonzero;fill:rgb(0%,0%,0%);fill-opacity:1;" d="M 19.339844 27.003906 C 18.765625 27.636719 17.914062 28 17 28 C 16.082031 28 15.230469 27.636719 14.65625 27.003906 C 14.171875 26.46875 13.941406 25.796875 14.011719 25.113281 L 14.882812 18 L 19.113281 18 L 19.988281 25.140625 C 20.054688 25.796875 19.824219 26.46875 19.339844 27.003906 M 16 35 L 13 35 L 13 37 L 21 37 L 21 35 L 18 35 L 18 29.898438 C 19.09375 29.691406 20.089844 29.152344 20.824219 28.34375 C 21.691406 27.386719 22.101562 26.167969 21.976562 24.917969 L 20.882812 16 L 13.113281 16 L 12.023438 24.894531 C 11.894531 26.167969 12.304688 27.386719 13.171875 28.34375 C 13.90625 29.152344 14.90625 29.691406 16 29.898438 Z M 28 19 C 28 17.898438 28.894531 17 30 17 L 34 17 C 35.101562 17 36 17.898438 36 19 L 36 21 L 28 21 Z M 28 23 L 36 23 L 36 35 L 28 35 Z M 31 11 L 33 11 L 33 15 L 31 15 Z M 26 19 L 26 37 L 38 37 L 38 19 C 38 17.140625 36.722656 15.570312 35 15.125 L 35 9 L 29 9 L 29 15.125 C 27.277344 15.570312 26 17.140625 26 19 "/>
</g>
</svg>
