<?xml version="1.0" encoding="UTF-8"?>
<svg xmlns="http://www.w3.org/2000/svg" xmlns:xlink="http://www.w3.org/1999/xlink" width="48pt" height="48pt" viewBox="0 0 48 48" version="1.1">
<g id="surface1">
<path style=" stroke:none;fill-rule:nonzero;fill:rgb(0%,0%,0%);fill-opacity:1;" d="M 17 28 C 16.078125 28 15.230469 27.640625 14.660156 27 C 14.171875 26.46875 13.941406 25.800781 14.011719 25.121094 L 14.878906 18 L 19.109375 18 L 19.988281 25.140625 C 20.050781 25.800781 19.828125 26.46875 19.339844 27 C 18.769531 27.640625 17.910156 28 17 28 M 20.820312 28.339844 C 21.691406 27.390625 22.101562 26.171875 21.980469 24.921875 L 20.878906 16 L 13.109375 16 L 12.019531 24.890625 C 11.898438 26.171875 12.308594 27.390625 13.171875 28.339844 C 13.910156 29.148438 14.898438 29.6875 16 29.898438 L 16 35 L 13 35 L 13 37 L 21 37 L 21 35 L 18 35 L 18 29.898438 C 19.089844 29.6875 20.089844 29.148438 20.820312 28.339844 "/>
<path style=" stroke:none;fill-rule:nonzero;fill:rgb(0%,0%,0%);fill-opacity:1;" d="M 40.710938 35.289062 L 39.289062 36.710938 L 38 35.410156 L 37 34.410156 L 34.710938 36.710938 L 33.289062 35.289062 L 33.578125 35 L 35.589844 33 L 33.289062 30.710938 L 34.710938 29.289062 L 36 30.589844 L 37 31.589844 L 38 30.589844 L 39.289062 29.289062 L 40.710938 30.710938 L 38.410156 33 Z M 28 35 L 28 23 L 36 23 L 36 26.078125 C 32.601562 26.5625 30 29.46875 30 33 C 30 33.699219 30.101562 34.371094 30.289062 35 Z M 28 19 C 28 17.898438 28.898438 17 30 17 L 34 17 C 35.101562 17 36 17.898438 36 19 L 36 21 L 28 21 Z M 31 11 L 33 11 L 33 15 L 31 15 Z M 38 26.078125 L 38 19 C 38 17.140625 36.71875 15.570312 35 15.128906 L 35 9 L 29 9 L 29 15.128906 C 27.28125 15.570312 26 17.140625 26 19 L 26 37 L 31.261719 37 C 32.519531 38.820312 34.621094 40 37 40 C 40.871094 40 44 36.871094 44 33 C 44 29.46875 41.398438 26.5625 38 26.078125 "/>
</g>
</svg>
