<?xml version="1.0" encoding="UTF-8"?>
<svg xmlns="http://www.w3.org/2000/svg" xmlns:xlink="http://www.w3.org/1999/xlink" width="48pt" height="48pt" viewBox="0 0 48 48" version="1.1">
<g id="surface1">
<path style=" stroke:none;fill-rule:nonzero;fill:rgb(0%,0%,0%);fill-opacity:1;" d="M 22.320312 12.261719 C 22.320312 11.949219 22.386719 11.640625 22.511719 11.363281 L 23.789062 9.105469 C 23.882812 8.945312 24.117188 8.945312 24.214844 9.105469 L 25.488281 11.363281 C 25.613281 11.640625 25.679688 11.949219 25.679688 12.261719 L 25.679688 12.320312 C 25.679688 12.78125 25.496094 13.210938 25.167969 13.53125 C 24.855469 13.832031 24.4375 14 24 14 L 23.949219 14 C 23.050781 13.976562 22.320312 13.195312 22.320312 12.261719 M 13 33 L 13 29.65625 C 15.101562 28.800781 17.507812 28.871094 19.550781 29.894531 C 20.945312 30.589844 22.472656 30.9375 24 30.9375 C 25.527344 30.9375 27.054688 30.589844 28.449219 29.894531 C 30.492188 28.871094 32.894531 28.800781 35 29.65625 L 35 33 Z M 14 25 L 34 25 C 34.550781 25 35 25.449219 35 26 L 35 27.535156 C 32.558594 26.765625 29.871094 26.949219 27.550781 28.105469 C 25.328125 29.21875 22.671875 29.21875 20.449219 28.105469 C 18.128906 26.949219 15.441406 26.765625 13 27.535156 L 13 26 C 13 25.449219 13.449219 25 14 25 M 17 19 C 17 18.449219 17.449219 18 18 18 L 30 18 C 30.550781 18 31 18.449219 31 19 L 31 23 L 17 23 Z M 37 33 L 37 26 C 37 24.34375 35.65625 23 34 23 L 33 23 L 33 19 C 33 17.34375 31.65625 16 30 16 L 18 16 C 16.34375 16 15 17.34375 15 19 L 15 23 L 14 23 C 12.34375 23 11 24.34375 11 26 L 11 33 L 9 33 L 9 35 L 39 35 L 39 33 Z M 37 33 "/>
</g>
</svg>
