<?xml version="1.0" encoding="UTF-8"?>
<svg xmlns="http://www.w3.org/2000/svg" xmlns:xlink="http://www.w3.org/1999/xlink" width="48pt" height="48pt" viewBox="0 0 48 48" version="1.1">
<g id="surface1">
<path style=" stroke:none;fill-rule:nonzero;fill:rgb(0%,0%,0%);fill-opacity:1;" d="M 39 34 L 25 34 L 25 22 L 37 22 L 37 20 L 30 20 L 30 12 L 39 12 Z M 9 12 L 18 12 L 18 20 L 11 20 L 11 22 L 23 22 L 23 34 L 9 34 Z M 20 12 L 28 12 L 28 20 L 20 20 Z M 39.070312 10 L 8.929688 10 C 7.863281 10 7 10.863281 7 11.925781 L 7 34.074219 C 7 35.136719 7.863281 36 8.929688 36 L 39.070312 36 C 40.136719 36 41 35.136719 41 34.074219 L 41 11.925781 C 41 10.863281 40.136719 10 39.070312 10 "/>
</g>
</svg>
