<?xml version="1.0" encoding="UTF-8"?>
<svg xmlns="http://www.w3.org/2000/svg" xmlns:xlink="http://www.w3.org/1999/xlink" width="48pt" height="48pt" viewBox="0 0 48 48" version="1.1">
<g id="surface1">
<path style=" stroke:none;fill-rule:nonzero;fill:rgb(0%,0%,0%);fill-opacity:1;" d="M 17 21 L 25 21 L 25 19 L 17 19 Z M 35 21 L 29 21 L 29 34 L 35 34 Z M 27 19.648438 L 31 14.648438 L 31 13 L 18 13 L 18 15.351562 L 14 20.351562 L 14 34 L 27 34 Z M 32 16.601562 L 30.078125 19 L 33.921875 19 Z M 37 19.648438 L 37 36 L 12 36 L 12 19.648438 L 16 14.648438 L 16 11 L 33 11 L 33 14.648438 Z M 22.769531 26.828125 C 22.921875 27.160156 23 27.527344 23 27.898438 L 23 27.96875 C 23 28.519531 22.78125 29.027344 22.390625 29.410156 C 22.019531 29.769531 21.519531 29.96875 21 29.96875 L 20.941406 29.96875 C 19.871094 29.9375 19 29.011719 19 27.898438 C 19 27.527344 19.078125 27.160156 19.230469 26.828125 L 20.746094 24.140625 C 20.863281 23.953125 21.136719 23.953125 21.253906 24.140625 Z M 22.769531 26.828125 "/>
</g>
</svg>
