<?xml version="1.0" encoding="UTF-8"?>
<svg xmlns="http://www.w3.org/2000/svg" xmlns:xlink="http://www.w3.org/1999/xlink" width="48pt" height="48pt" viewBox="0 0 48 48" version="1.1">
<g id="surface1">
<path style=" stroke:none;fill-rule:nonzero;fill:rgb(0%,0%,0%);fill-opacity:1;" d="M 24 17 C 22.347656 17 21 18.347656 21 20 C 21 21.652344 22.347656 23 24 23 C 25.652344 23 27 21.652344 27 20 C 27 18.347656 25.652344 17 24 17 M 24 25 C 21.242188 25 19 22.757812 19 20 C 19 17.242188 21.242188 15 24 15 C 26.757812 15 29 17.242188 29 20 C 29 22.757812 26.757812 25 24 25 M 27.207031 28.355469 L 28.730469 29.648438 C 27.441406 31.164062 25.761719 32 24 32 C 22.238281 32 20.558594 31.164062 19.269531 29.648438 L 20.792969 28.355469 C 21.695312 29.414062 22.835938 30 24 30 C 25.164062 30 26.304688 29.414062 27.207031 28.355469 M 24 12 C 28.964844 12 33 16.933594 33 23 C 33 29.066406 28.964844 34 24 34 C 19.035156 34 15 29.066406 15 23 C 15 16.933594 19.035156 12 24 12 M 24 36 C 30.066406 36 35 30.167969 35 23 C 35 15.832031 30.066406 10 24 10 C 17.933594 10 13 15.832031 13 23 C 13 30.167969 17.933594 36 24 36 "/>
</g>
</svg>
