<?xml version="1.0" encoding="UTF-8"?>
<svg xmlns="http://www.w3.org/2000/svg" xmlns:xlink="http://www.w3.org/1999/xlink" width="48pt" height="48pt" viewBox="0 0 48 48" version="1.1">
<g id="surface1">
<path style=" stroke:none;fill-rule:nonzero;fill:rgb(0%,0%,0%);fill-opacity:1;" d="M 19.816406 23.363281 C 17.847656 23.753906 16.75 24.851562 16.355469 26.820312 L 14.394531 26.425781 C 14.945312 23.6875 16.679688 21.949219 19.421875 21.402344 C 21.386719 21.007812 22.488281 19.910156 22.878906 17.941406 L 24.839844 18.335938 C 24.292969 21.074219 22.554688 22.8125 19.816406 23.363281 M 29 31 C 27.371094 31 25.765625 30.714844 24.335938 30.179688 C 24.355469 30.167969 24.371094 30.152344 24.390625 30.136719 C 24.570312 30 24.746094 29.851562 24.921875 29.707031 C 25.015625 29.628906 25.113281 29.554688 25.203125 29.472656 C 25.46875 29.242188 25.734375 29 25.992188 28.746094 C 27.125 27.601562 28.039062 26.347656 28.746094 25.007812 C 29.816406 25.65625 30.90625 25.996094 32 25.996094 C 33.195312 25.996094 34.390625 25.605469 35.554688 24.832031 L 34.445312 23.167969 C 32.78125 24.277344 31.226562 24.28125 29.558594 23.171875 C 29.585938 23.101562 29.609375 23.03125 29.628906 22.960938 C 29.667969 22.851562 29.699219 22.746094 29.730469 22.632812 C 29.800781 22.390625 29.871094 22.152344 29.925781 21.910156 C 29.957031 21.789062 29.984375 21.667969 30.007812 21.546875 C 30.054688 21.308594 30.09375 21.074219 30.128906 20.839844 C 30.140625 20.730469 30.160156 20.621094 30.171875 20.507812 C 30.207031 20.191406 30.230469 19.875 30.234375 19.5625 C 30.234375 19.527344 30.234375 19.488281 30.234375 19.453125 C 30.234375 19.148438 30.21875 18.847656 30.195312 18.550781 C 30.183594 18.4375 30.164062 18.328125 30.152344 18.214844 C 30.125 18.007812 30.089844 17.808594 30.050781 17.605469 C 30.027344 17.488281 30 17.371094 29.96875 17.253906 C 29.953125 17.179688 29.941406 17.101562 29.917969 17.03125 C 35.003906 17.355469 39 20.355469 39 24 C 39 27.859375 34.511719 31 29 31 M 12.546875 29.453125 C 9.820312 26.726562 10.773438 21.332031 14.667969 17.425781 C 17.0625 15.035156 20.027344 13.753906 22.585938 13.753906 C 24.195312 13.753906 25.640625 14.257812 26.695312 15.304688 C 27.042969 15.660156 27.335938 16.050781 27.558594 16.480469 C 27.675781 16.707031 27.78125 16.941406 27.871094 17.183594 C 27.925781 17.34375 27.96875 17.511719 28.011719 17.679688 C 28.035156 17.765625 28.070312 17.851562 28.085938 17.945312 C 28.425781 19.511719 28.195312 21.355469 27.402344 23.214844 C 26.765625 24.683594 25.789062 26.109375 24.578125 27.328125 C 23.925781 27.972656 23.242188 28.539062 22.523438 29.019531 C 22.285156 29.179688 22.042969 29.332031 21.796875 29.472656 L 21.792969 29.476562 C 18.308594 31.511719 14.59375 31.503906 12.546875 29.453125 M 29 15 L 28.984375 15 C 28.730469 14.609375 28.445312 14.230469 28.105469 13.890625 C 24.59375 10.390625 17.933594 11.34375 13.253906 16.011719 C 8.578125 20.699219 7.625 27.359375 11.132812 30.867188 C 12.542969 32.28125 14.5 32.992188 16.65625 32.992188 C 18.464844 32.992188 20.410156 32.464844 22.292969 31.460938 C 24.273438 32.464844 26.578125 33 29 33 C 35.617188 33 41 28.964844 41 24 C 41 19.039062 35.617188 15 29 15 "/>
</g>
</svg>
