<?xml version="1.0" encoding="UTF-8"?>
<svg xmlns="http://www.w3.org/2000/svg" xmlns:xlink="http://www.w3.org/1999/xlink" width="48pt" height="48pt" viewBox="0 0 48 48" version="1.1">
<g id="surface1">
<path style=" stroke:none;fill-rule:nonzero;fill:rgb(0%,0%,0%);fill-opacity:1;" d="M 37 30.535156 L 35 29.203125 L 33 30.535156 L 33 35 L 37 35 Z M 24.585938 18 L 15.414062 18 L 13 20.414062 L 13 35 L 27 35 L 27 20.414062 Z M 39 29.464844 L 39 37 L 31 37 L 31 29.464844 L 34 27.464844 L 34 17 C 34 13.691406 31.308594 11 28 11 L 27 11 C 24.03125 11 21.570312 13.167969 21.089844 16 L 25.414062 16 L 29 19.585938 L 29 37 L 11 37 L 11 19.585938 L 14.585938 16 L 19.070312 16 C 19.5625 12.058594 22.929688 9 27 9 L 28 9 C 32.410156 9 36 12.589844 36 17 L 36 27.464844 Z M 15 22 L 25 22 L 25 24 L 15 24 Z M 15 22 "/>
</g>
</svg>
