<?xml version="1.0" encoding="UTF-8"?>
<svg xmlns="http://www.w3.org/2000/svg" xmlns:xlink="http://www.w3.org/1999/xlink" width="48pt" height="48pt" viewBox="0 0 48 48" version="1.1">
<g id="surface1">
<path style=" stroke:none;fill-rule:nonzero;fill:rgb(0%,0%,0%);fill-opacity:1;" d="M 29.386719 35.585938 L 28.183594 31.96875 C 28.96875 31.558594 29.703125 31.023438 30.363281 30.363281 C 31.023438 29.703125 31.558594 28.96875 31.96875 28.183594 L 35.582031 29.386719 Z M 22.773438 30.886719 L 30.882812 22.773438 C 31.269531 24.949219 30.628906 27.273438 28.949219 28.949219 C 27.273438 30.628906 24.949219 31.269531 22.773438 30.886719 M 17.84375 27.328125 L 27.328125 17.84375 C 27.910156 18.160156 28.457031 18.558594 28.949219 19.050781 C 29.441406 19.542969 29.839844 20.089844 30.15625 20.671875 L 20.671875 30.15625 C 20.089844 29.839844 19.542969 29.441406 19.050781 28.949219 C 18.558594 28.457031 18.160156 27.910156 17.84375 27.328125 M 19.050781 19.050781 C 20.726562 17.371094 23.050781 16.730469 25.226562 17.113281 L 17.117188 25.226562 C 16.730469 23.050781 17.371094 20.726562 19.050781 19.050781 M 12.417969 18.613281 L 18.613281 12.414062 L 19.816406 16.03125 C 19.03125 16.441406 18.296875 16.976562 17.636719 17.636719 C 16.976562 18.296875 16.441406 19.03125 16.03125 19.816406 Z M 39.285156 28.511719 L 32.6875 26.3125 C 33.480469 23.3125 32.710938 19.984375 30.363281 17.636719 C 28.015625 15.289062 24.6875 14.519531 21.6875 15.3125 L 19.488281 8.714844 L 8.714844 19.488281 L 15.3125 21.6875 C 14.519531 24.6875 15.289062 28.015625 17.636719 30.363281 C 19.984375 32.710938 23.3125 33.480469 26.3125 32.6875 L 28.511719 39.285156 Z M 39.285156 28.511719 "/>
</g>
</svg>
