<?xml version="1.0" encoding="UTF-8"?>
<svg xmlns="http://www.w3.org/2000/svg" xmlns:xlink="http://www.w3.org/1999/xlink" width="48pt" height="48pt" viewBox="0 0 48 48" version="1.1">
<g id="surface1">
<path style=" stroke:none;fill-rule:nonzero;fill:rgb(0%,0%,0%);fill-opacity:1;" d="M 17.863281 16.878906 L 16.449219 15.464844 C 18.398438 13.515625 21.570312 13.515625 23.519531 15.464844 L 22.105469 16.878906 C 20.933594 15.707031 19.03125 15.707031 17.863281 16.878906 M 29.664062 29.101562 C 28.488281 30.070312 26.667969 29.929688 25.519531 28.777344 L 25.230469 28.488281 C 23.753906 27.015625 21.757812 26.144531 19.457031 25.976562 C 17.761719 25.851562 16.226562 25.144531 15.042969 23.957031 C 14.773438 23.691406 14.527344 23.402344 14.296875 23.089844 C 12.484375 20.609375 12.570312 17.058594 14.496094 14.648438 C 15.769531 13.058594 17.582031 12.121094 19.59375 12.011719 C 21.582031 11.902344 23.527344 12.644531 24.933594 14.050781 C 26.128906 15.242188 26.847656 16.828125 26.960938 18.515625 C 27.113281 20.742188 28.003906 22.777344 29.472656 24.246094 L 29.882812 24.65625 C 30.480469 25.253906 30.796875 26.078125 30.757812 26.921875 C 30.71875 27.777344 30.328125 28.550781 29.664062 29.101562 M 34.125 33.144531 C 34.515625 32.75 35.148438 32.75 35.539062 33.144531 L 36.953125 31.726562 C 36.035156 30.808594 34.664062 30.621094 33.550781 31.152344 L 31.914062 29.515625 C 32.402344 28.773438 32.714844 27.917969 32.757812 27.015625 C 32.824219 25.613281 32.292969 24.234375 31.296875 23.242188 L 30.886719 22.832031 C 29.757812 21.703125 29.074219 20.125 28.957031 18.378906 C 28.808594 16.210938 27.882812 14.171875 26.347656 12.636719 C 24.539062 10.828125 22.039062 9.871094 19.484375 10.015625 C 16.933594 10.152344 14.546875 11.390625 12.9375 13.398438 C 10.453125 16.5 10.347656 21.070312 12.683594 24.269531 C 14.257812 26.425781 16.675781 27.777344 19.3125 27.96875 C 21.125 28.101562 22.683594 28.773438 23.816406 29.902344 L 24.105469 30.191406 C 25.84375 31.933594 28.554688 32.203125 30.503906 30.933594 L 32.132812 32.566406 C 31.605469 33.679688 31.792969 35.050781 32.710938 35.972656 L 34.125 34.558594 C 33.734375 34.164062 33.734375 33.53125 34.125 33.144531 "/>
</g>
</svg>
