<?xml version="1.0" encoding="UTF-8"?>
<svg xmlns="http://www.w3.org/2000/svg" xmlns:xlink="http://www.w3.org/1999/xlink" width="48pt" height="48pt" viewBox="0 0 48 48" version="1.1">
<g id="surface1">
<path style=" stroke:none;fill-rule:nonzero;fill:rgb(0%,0%,0%);fill-opacity:1;" d="M 22.800781 20.382812 L 24.214844 18.96875 L 25.628906 20.382812 L 24.214844 21.796875 Z M 20.679688 18.261719 L 19.265625 19.675781 L 17.851562 18.261719 L 19.265625 16.847656 Z M 25.628906 26.039062 L 24.214844 27.453125 L 22.800781 26.039062 L 24.214844 24.625 Z M 32.464844 21.96875 L 34.316406 23.070312 C 33.050781 25.203125 31.558594 27.128906 29.84375 28.84375 C 28.132812 30.554688 26.207031 32.046875 24.074219 33.3125 L 22.972656 31.460938 C 26.925781 29.113281 30.117188 25.917969 32.464844 21.96875 M 36.796875 21.90625 C 36.90625 22.234375 36.851562 22.628906 36.648438 22.988281 C 33.792969 28.058594 29.0625 32.789062 23.992188 35.644531 C 23.632812 35.847656 23.238281 35.902344 22.910156 35.792969 C 22.738281 35.738281 22.503906 35.609375 22.367188 35.3125 C 21.503906 33.410156 20.261719 30.496094 18.824219 27.125 C 17.035156 22.933594 15.011719 18.179688 13.257812 14.320312 C 12.980469 13.710938 13.320312 13.058594 13.691406 12.6875 C 14.0625 12.316406 14.714844 11.976562 15.324219 12.253906 C 19.183594 14.007812 23.9375 16.03125 28.128906 17.820312 C 31.5 19.257812 34.414062 20.5 36.316406 21.363281 C 36.613281 21.496094 36.742188 21.734375 36.796875 21.90625 M 37.210938 19.402344 C 35.28125 18.527344 32.359375 17.277344 28.976562 15.835938 C 24.792969 14.054688 20.050781 12.03125 16.21875 10.289062 C 14.890625 9.6875 13.296875 10.027344 12.164062 11.160156 C 11.03125 12.292969 10.691406 13.886719 11.292969 15.214844 C 13.035156 19.046875 15.058594 23.789062 16.839844 27.972656 C 18.28125 31.355469 19.527344 34.277344 20.402344 36.203125 C 20.761719 36.992188 21.414062 37.574219 22.242188 37.84375 C 23.140625 38.140625 24.164062 38.023438 25.046875 37.523438 C 27.75 36.003906 30.359375 33.984375 32.671875 31.667969 C 34.988281 29.355469 37.007812 26.746094 38.527344 24.042969 C 39.027344 23.160156 39.144531 22.136719 38.847656 21.238281 C 38.578125 20.410156 37.996094 19.757812 37.210938 19.402344 "/>
</g>
</svg>
