<?xml version="1.0" encoding="UTF-8"?>
<svg xmlns="http://www.w3.org/2000/svg" xmlns:xlink="http://www.w3.org/1999/xlink" width="48pt" height="48pt" viewBox="0 0 48 48" version="1.1">
<g id="surface1">
<path style=" stroke:none;fill-rule:nonzero;fill:rgb(0%,0%,0%);fill-opacity:1;" d="M 13 19 L 35 19 L 35 22 L 13 22 Z M 18 13 L 18 14 L 20 14 L 20 13 L 23 13 L 23 14 L 25 14 L 25 13 L 28 13 L 28 14 L 30 14 L 30 13 C 32.414062 13 34.433594 14.722656 34.898438 17 L 13.101562 17 C 13.566406 14.722656 15.585938 13 18 13 M 37 22 L 37 18 C 37 14.140625 33.859375 11 30 11 L 18 11 C 14.140625 11 11 14.140625 11 18 L 11 22 L 9 22 L 9 24 L 39 24 L 39 22 Z M 34.898438 29 C 34.433594 31.277344 32.414062 33 30 33 L 18 33 C 15.585938 33 13.566406 31.277344 13.101562 29 Z M 11 28 C 11 31.859375 14.140625 35 18 35 L 30 35 C 33.859375 35 37 31.859375 37 28 L 37 27 L 11 27 Z M 11 28 "/>
</g>
</svg>
