<?xml version="1.0" encoding="UTF-8"?>
<svg xmlns="http://www.w3.org/2000/svg" xmlns:xlink="http://www.w3.org/1999/xlink" width="48pt" height="48pt" viewBox="0 0 48 48" version="1.1">
<g id="surface1">
<path style=" stroke:none;fill-rule:nonzero;fill:rgb(0%,0%,0%);fill-opacity:1;" d="M 29.742188 31.15625 L 31.15625 29.742188 L 36.8125 35.398438 L 35.398438 36.8125 Z M 31.15625 24.085938 C 31.546875 24.476562 31.546875 25.109375 31.15625 25.5 L 29.089844 27.5625 L 18.484375 16.957031 L 16.957031 18.484375 L 27.5625 29.09375 L 25.5 31.15625 C 25.109375 31.546875 24.476562 31.546875 24.085938 31.15625 L 13.476562 20.550781 C 13.089844 20.160156 13.089844 19.523438 13.476562 19.136719 L 19.136719 13.476562 C 19.523438 13.089844 20.160156 13.089844 20.550781 13.476562 Z M 17.722656 12.0625 L 12.0625 17.71875 C 10.894531 18.890625 10.894531 20.792969 12.0625 21.964844 L 22.671875 32.570312 C 23.839844 33.738281 25.742188 33.738281 26.914062 32.570312 L 32.570312 26.914062 C 33.738281 25.746094 33.738281 23.839844 32.570312 22.671875 L 21.964844 12.0625 C 20.792969 10.894531 18.890625 10.894531 17.722656 12.0625 "/>
</g>
</svg>
