<?xml version="1.0" encoding="UTF-8"?>
<svg xmlns="http://www.w3.org/2000/svg" xmlns:xlink="http://www.w3.org/1999/xlink" width="48pt" height="48pt" viewBox="0 0 48 48" version="1.1">
<g id="surface1">
<path style=" stroke:none;fill-rule:nonzero;fill:rgb(0%,0%,0%);fill-opacity:1;" d="M 14.804688 21.875 C 12.855469 19.925781 12.855469 16.753906 14.804688 14.804688 C 15.746094 13.859375 17 13.339844 18.339844 13.339844 C 19.675781 13.339844 20.933594 13.859375 21.875 14.804688 C 22.117188 15.046875 22.332031 15.308594 22.519531 15.585938 C 20.707031 15.605469 18.941406 16.320312 17.632812 17.632812 C 16.324219 18.941406 15.605469 20.710938 15.585938 22.515625 C 15.308594 22.332031 15.046875 22.117188 14.804688 21.875 M 17.632812 27.53125 L 19.046875 26.117188 C 18.410156 25.484375 17.980469 24.734375 17.761719 23.890625 L 17.753906 23.871094 C 17.292969 22.152344 17.789062 20.304688 19.046875 19.046875 C 20.304688 17.785156 22.15625 17.292969 23.867188 17.757812 L 23.886719 17.761719 C 24.734375 17.980469 25.484375 18.410156 26.117188 19.046875 L 27.53125 17.632812 C 26.789062 16.890625 25.890625 16.339844 24.917969 16 C 24.578125 15.027344 24.03125 14.132812 23.289062 13.390625 C 21.96875 12.066406 20.210938 11.339844 18.339844 11.339844 C 16.46875 11.339844 14.710938 12.066406 13.390625 13.390625 C 10.660156 16.117188 10.660156 20.558594 13.390625 23.289062 C 14.132812 24.03125 15.03125 24.578125 16 24.921875 C 16.339844 25.894531 16.890625 26.789062 17.632812 27.53125 M 22.085938 27.320312 L 27.324219 22.085938 L 34.652344 34.652344 Z M 36.378906 33.644531 L 28.78125 20.621094 L 30.359375 19.046875 L 28.945312 17.632812 L 17.632812 28.945312 L 19.046875 30.359375 L 20.621094 28.78125 L 33.644531 36.382812 C 33.964844 36.566406 34.316406 36.65625 34.660156 36.65625 C 35.171875 36.65625 35.675781 36.457031 36.066406 36.066406 C 36.71875 35.414062 36.84375 34.441406 36.378906 33.644531 "/>
</g>
</svg>
