<?xml version="1.0" encoding="UTF-8"?>
<svg xmlns="http://www.w3.org/2000/svg" xmlns:xlink="http://www.w3.org/1999/xlink" width="48pt" height="48pt" viewBox="0 0 48 48" version="1.1">
<g id="surface1">
<path style=" stroke:none;fill-rule:nonzero;fill:rgb(0%,0%,0%);fill-opacity:1;" d="M 28 11 L 30 11 L 30 38 L 28 38 Z M 34 11 L 34 38 L 32 38 L 32 11 Z M 20 17 C 20 18.101562 19.105469 19 18 19 C 16.898438 19 16 18.101562 16 17 L 16 15 C 16 13.898438 16.898438 13 18 13 C 19.105469 13 20 13.898438 20 15 Z M 18 11 C 15.796875 11 14 12.792969 14 15 L 14 17 C 14 18.859375 15.28125 20.410156 17 20.855469 L 17 38 L 19 38 L 19 20.855469 C 20.722656 20.410156 22 18.859375 22 17 L 22 15 C 22 12.792969 20.207031 11 18 11 "/>
</g>
</svg>
