<?xml version="1.0" encoding="UTF-8"?>
<svg xmlns="http://www.w3.org/2000/svg" xmlns:xlink="http://www.w3.org/1999/xlink" width="48pt" height="48pt" viewBox="0 0 48 48" version="1.1">
<g id="surface1">
<path style=" stroke:none;fill-rule:nonzero;fill:rgb(0%,0%,0%);fill-opacity:1;" d="M 31.5 33 C 30.671875 33 30 33.671875 30 34.5 C 30 35.328125 30.671875 36 31.5 36 C 32.328125 36 33 35.328125 33 34.5 C 33 33.671875 32.328125 33 31.5 33 M 19.5 33 C 18.671875 33 18 33.671875 18 34.5 C 18 35.328125 18.671875 36 19.5 36 C 20.328125 36 21 35.328125 21 34.5 C 21 33.671875 20.328125 33 19.5 33 M 15 30 L 37 30 L 37 32 L 15 32 C 13.347656 32 12 30.652344 12 29 C 12 27.761719 12.753906 26.695312 13.828125 26.238281 L 11.179688 13 L 9 13 L 9 11 L 12.820312 11 L 15.820312 26 L 34.164062 26 L 35.800781 17 L 16 17 L 16 15 L 38.199219 15 L 35.835938 28 L 15 28 C 14.449219 28 14 28.449219 14 29 C 14 29.550781 14.449219 30 15 30 "/>
</g>
</svg>
