<?xml version="1.0" encoding="UTF-8"?>
<svg xmlns="http://www.w3.org/2000/svg" xmlns:xlink="http://www.w3.org/1999/xlink" width="48pt" height="48pt" viewBox="0 0 48 48" version="1.1">
<g id="surface1">
<path style=" stroke:none;fill-rule:nonzero;fill:rgb(0%,0%,0%);fill-opacity:1;" d="M 17 30 L 19 30 L 19 23 L 17 23 Z M 27 12.464844 L 27 11 L 25 11 L 25 13.535156 L 31.695312 18 L 16.304688 18 L 23 13.535156 L 23 11 L 21 11 L 21 12.464844 L 12.695312 18 L 9 18 L 9 20 L 39 20 L 39 18 L 35.304688 18 Z M 34.3125 31.152344 C 34.226562 32.1875 34.320312 33 33.164062 33 L 15.902344 33 C 14.746094 33 13.773438 32.1875 13.6875 31.152344 L 13.007812 23 L 11 23 L 11.691406 31.320312 C 11.863281 33.382812 13.714844 35 15.902344 35 L 33.164062 35 C 35.355469 35 36.136719 33.382812 36.304688 31.320312 L 37 23 L 34.992188 23 Z M 23 30 L 25 30 L 25 23 L 23 23 Z M 31 30 L 29 30 L 29 23 L 31 23 Z M 31 30 "/>
</g>
</svg>
