<?xml version="1.0" encoding="UTF-8"?>
<svg xmlns="http://www.w3.org/2000/svg" xmlns:xlink="http://www.w3.org/1999/xlink" width="48pt" height="48pt" viewBox="0 0 48 48" version="1.1">
<g id="surface1">
<path style=" stroke:none;fill-rule:nonzero;fill:rgb(0%,0%,0%);fill-opacity:1;" d="M 20 28 L 28 28 L 28 30 L 30 30 L 30 26 L 18 26 L 18 30 L 20 30 Z M 34.800781 17 L 13.210938 17 L 15.011719 35 L 33 35 Z M 37.011719 15 L 34.808594 37 L 13.199219 37 L 11 15 Z M 21 13 L 19 13 C 19 10.242188 21.242188 8 24 8 C 26.757812 8 29 10.242188 29 13 L 27 13 C 27 11.347656 25.652344 10 24 10 C 22.347656 10 21 11.347656 21 13 "/>
</g>
</svg>
