<?xml version="1.0" encoding="UTF-8"?>
<svg xmlns="http://www.w3.org/2000/svg" xmlns:xlink="http://www.w3.org/1999/xlink" width="48pt" height="48pt" viewBox="0 0 48 48" version="1.1">
<g id="surface1">
<path style=" stroke:none;fill-rule:nonzero;fill:rgb(0%,0%,0%);fill-opacity:1;" d="M 24 26 C 22.894531 26 22 25.101562 22 24 C 22 22.898438 22.894531 22 24 22 C 25.105469 22 26 22.898438 26 24 C 26 25.101562 25.105469 26 24 26 M 24 20 C 21.796875 20 20 21.792969 20 24 C 20 26.207031 21.796875 28 24 28 C 26.203125 28 28 26.207031 28 24 C 28 21.792969 26.203125 20 24 20 M 13.28125 36 L 13.78125 34 L 34.238281 34 L 34.71875 36 Z M 13.972656 32 L 13.996094 16 L 34.027344 16 L 34.003906 32 Z M 34.71875 12 L 34.21875 14 L 13.761719 14 L 13.28125 12 Z M 36 15.121094 L 37.28125 10 L 10.71875 10 L 12 15.121094 L 12 32.878906 L 10.71875 38 L 37.28125 38 L 36 32.878906 Z M 36 15.121094 "/>
</g>
</svg>
