<?xml version="1.0" encoding="UTF-8"?>
<svg xmlns="http://www.w3.org/2000/svg" xmlns:xlink="http://www.w3.org/1999/xlink" width="48pt" height="48pt" viewBox="0 0 48 48" version="1.1">
<g id="surface1">
<path style=" stroke:none;fill-rule:nonzero;fill:rgb(0%,0%,0%);fill-opacity:1;" d="M 30.921875 11 L 17.078125 11 L 17.15625 13 L 30.84375 13 Z M 30.769531 15 L 17.230469 15 L 18 32 L 30 32 Z M 29.960938 34 L 18.039062 34 L 18.039062 37 L 29.960938 37 Z M 33 9 L 31.960938 33.011719 L 31.960938 39 L 16.039062 39 L 16.039062 33.011719 L 15 9 Z M 22.230469 22.859375 L 23.746094 20.171875 C 23.863281 19.984375 24.136719 19.984375 24.253906 20.171875 L 25.769531 22.859375 C 25.917969 23.1875 26 23.5625 26 23.929688 L 26 24 C 26 24.550781 25.78125 25.0625 25.390625 25.4375 C 25.019531 25.800781 24.519531 26 24 26 L 23.941406 26 C 22.871094 25.96875 22 25.039062 22 23.929688 C 22 23.5625 22.078125 23.1875 22.230469 22.859375 "/>
</g>
</svg>
