<?xml version="1.0" encoding="UTF-8"?>
<svg xmlns="http://www.w3.org/2000/svg" xmlns:xlink="http://www.w3.org/1999/xlink" width="48pt" height="48pt" viewBox="0 0 48 48" version="1.1">
<g id="surface1">
<path style=" stroke:none;fill-rule:nonzero;fill:rgb(0%,0%,0%);fill-opacity:1;" d="M 25.769531 26.828125 C 25.921875 27.160156 26 27.527344 26 27.898438 L 26 27.96875 C 26 28.519531 25.78125 29.027344 25.390625 29.410156 C 25.019531 29.769531 24.519531 29.96875 24 29.96875 L 23.941406 29.96875 C 22.871094 29.9375 22 29.007812 22 27.898438 C 22 27.527344 22.078125 27.160156 22.230469 26.828125 L 23.746094 24.140625 C 23.863281 23.953125 24.136719 23.953125 24.253906 24.140625 Z M 34 34 L 14 34 L 14 21 C 14 20.449219 14.449219 20 15 20 L 33 20 C 33.550781 20 34 20.449219 34 21 Z M 16 14 L 32 14 L 32 18 L 16 18 Z M 34 18.183594 L 34 12 L 14 12 L 14 18.183594 C 12.839844 18.597656 12 19.699219 12 21 L 12 36 L 36 36 L 36 21 C 36 19.699219 35.160156 18.597656 34 18.183594 "/>
</g>
</svg>
