<?xml version="1.0" encoding="UTF-8"?>
<svg xmlns="http://www.w3.org/2000/svg" xmlns:xlink="http://www.w3.org/1999/xlink" width="48pt" height="48pt" viewBox="0 0 48 48" version="1.1">
<g id="surface1">
<path style=" stroke:none;fill-rule:nonzero;fill:rgb(0%,0%,0%);fill-opacity:1;" d="M 20.464844 19.050781 L 19.050781 20.464844 L 15.515625 16.929688 L 16.929688 15.515625 Z M 23.410156 17.75 C 23.734375 18.078125 23.734375 18.609375 23.410156 18.933594 L 18.933594 23.410156 C 18.609375 23.734375 18.078125 23.734375 17.753906 23.410156 L 11.980469 17.636719 L 17.636719 11.980469 Z M 9.152344 17.636719 L 16.339844 24.824219 C 17.445312 25.929688 19.242188 25.929688 20.347656 24.824219 L 21.878906 23.292969 L 33.898438 35.3125 L 35.3125 33.898438 L 23.292969 21.878906 L 24.824219 20.347656 C 25.929688 19.242188 25.929688 17.445312 24.824219 16.335938 L 17.636719 9.152344 Z M 9.152344 17.636719 "/>
</g>
</svg>
