<?xml version="1.0" encoding="UTF-8"?>
<svg xmlns="http://www.w3.org/2000/svg" xmlns:xlink="http://www.w3.org/1999/xlink" width="48pt" height="48pt" viewBox="0 0 48 48" version="1.1">
<g id="surface1">
<path style=" stroke:none;fill-rule:nonzero;fill:rgb(0%,0%,0%);fill-opacity:1;" d="M 28 35 C 25.585938 35 23.5625 33.277344 23.101562 31 L 32.898438 31 C 32.4375 33.277344 30.414062 35 28 35 M 23 29 L 23 15 C 23 12.242188 20.757812 10 18 10 C 15.242188 10 13 12.242188 13 15 L 15 15 C 15 13.347656 16.347656 12 18 12 C 19.652344 12 21 13.347656 21 15 L 21 30 C 21 33.859375 24.140625 37 28 37 C 31.859375 37 35 33.859375 35 30 L 35 29 Z M 23 29 "/>
</g>
</svg>
