<?xml version="1.0" encoding="UTF-8"?>
<svg xmlns="http://www.w3.org/2000/svg" xmlns:xlink="http://www.w3.org/1999/xlink" width="48pt" height="48pt" viewBox="0 0 48 48" version="1.1">
<g id="surface1">
<path style=" stroke:none;fill-rule:nonzero;fill:rgb(0%,0%,0%);fill-opacity:1;" d="M 37.199219 32 L 23.800781 32 L 22.246094 25 L 38.753906 25 Z M 21 23 L 9.414062 23 L 7.707031 21.292969 L 6.292969 22.707031 L 8.585938 25 L 20.199219 25 L 22.199219 34 L 38.800781 34 L 41.246094 23 Z M 21 23 "/>
<path style=" stroke:none;fill-rule:nonzero;fill:rgb(0%,0%,0%);fill-opacity:1;" d="M 24.613281 15.757812 C 25.003906 16.074219 25.148438 16.632812 24.976562 17.152344 C 24.804688 17.667969 24.351562 18.027344 23.851562 18.050781 L 23.929688 20 C 25.238281 19.945312 26.402344 19.050781 26.828125 17.769531 C 27.257812 16.488281 26.863281 15.070312 25.847656 14.242188 C 25.460938 13.925781 25.316406 13.367188 25.488281 12.851562 C 25.660156 12.332031 26.113281 11.972656 26.613281 11.949219 L 26.535156 10 C 25.226562 10.054688 24.0625 10.949219 23.636719 12.230469 C 23.207031 13.515625 23.601562 14.929688 24.613281 15.757812 "/>
<path style=" stroke:none;fill-rule:nonzero;fill:rgb(0%,0%,0%);fill-opacity:1;" d="M 30.613281 15.757812 C 31.003906 16.074219 31.148438 16.632812 30.976562 17.152344 C 30.804688 17.667969 30.351562 18.027344 29.851562 18.050781 L 29.929688 20 C 31.238281 19.945312 32.402344 19.050781 32.828125 17.769531 C 33.257812 16.488281 32.863281 15.070312 31.847656 14.242188 C 31.460938 13.925781 31.316406 13.367188 31.488281 12.851562 C 31.660156 12.332031 32.113281 11.972656 32.613281 11.949219 L 32.535156 10 C 31.226562 10.054688 30.0625 10.949219 29.636719 12.230469 C 29.207031 13.515625 29.601562 14.929688 30.613281 15.757812 "/>
<path style=" stroke:none;fill-rule:nonzero;fill:rgb(0%,0%,0%);fill-opacity:1;" d="M 36.613281 15.757812 C 37.003906 16.074219 37.148438 16.632812 36.976562 17.152344 C 36.804688 17.667969 36.351562 18.027344 35.851562 18.050781 L 35.929688 20 C 37.238281 19.945312 38.402344 19.050781 38.828125 17.769531 C 39.257812 16.488281 38.863281 15.070312 37.847656 14.242188 C 37.460938 13.925781 37.316406 13.367188 37.488281 12.851562 C 37.660156 12.332031 38.113281 11.972656 38.613281 11.949219 L 38.535156 10 C 37.226562 10.054688 36.0625 10.949219 35.636719 12.230469 C 35.207031 13.515625 35.601562 14.929688 36.613281 15.757812 "/>
</g>
</svg>
