<?xml version="1.0" encoding="UTF-8"?>
<svg xmlns="http://www.w3.org/2000/svg" xmlns:xlink="http://www.w3.org/1999/xlink" width="48pt" height="48pt" viewBox="0 0 48 48" version="1.1">
<g id="surface1">
<path style=" stroke:none;fill-rule:nonzero;fill:rgb(0%,0%,0%);fill-opacity:1;" d="M 22.28125 28 L 38.71875 28 L 38.21875 30 L 22.78125 30 Z M 41.28125 26 L 9.414062 26 L 7.707031 24.292969 L 6.292969 25.707031 L 8.585938 28 L 20.21875 28 L 21.21875 32 L 39.78125 32 Z M 36.617188 18.757812 C 37.003906 19.074219 37.148438 19.632812 36.976562 20.148438 C 36.804688 20.667969 36.351562 21.027344 35.851562 21.050781 L 35.929688 23 C 37.238281 22.945312 38.402344 22.050781 38.828125 20.769531 C 39.257812 19.488281 38.863281 18.070312 37.847656 17.242188 C 37.460938 16.925781 37.316406 16.367188 37.488281 15.851562 C 37.660156 15.332031 38.113281 14.972656 38.613281 14.949219 L 38.535156 13 C 37.226562 13.054688 36.0625 13.949219 35.636719 15.230469 C 35.207031 16.515625 35.601562 17.929688 36.617188 18.757812 M 30.617188 18.757812 C 31.003906 19.074219 31.148438 19.632812 30.976562 20.148438 C 30.804688 20.667969 30.351562 21.027344 29.851562 21.050781 L 29.929688 23 C 31.238281 22.945312 32.402344 22.050781 32.828125 20.769531 C 33.257812 19.488281 32.863281 18.070312 31.847656 17.242188 C 31.460938 16.925781 31.316406 16.367188 31.488281 15.851562 C 31.660156 15.332031 32.113281 14.972656 32.613281 14.949219 L 32.535156 13 C 31.226562 13.054688 30.0625 13.949219 29.636719 15.230469 C 29.207031 16.515625 29.601562 17.929688 30.617188 18.757812 M 23.636719 15.230469 C 24.0625 13.949219 25.226562 13.054688 26.535156 13 L 26.613281 14.949219 C 26.113281 14.972656 25.660156 15.332031 25.488281 15.851562 C 25.316406 16.367188 25.460938 16.925781 25.847656 17.242188 C 26.863281 18.070312 27.257812 19.488281 26.828125 20.769531 C 26.402344 22.050781 25.238281 22.945312 23.929688 23 L 23.851562 21.050781 C 24.351562 21.027344 24.804688 20.667969 24.976562 20.148438 C 25.148438 19.632812 25.003906 19.074219 24.617188 18.757812 C 23.601562 17.929688 23.207031 16.515625 23.636719 15.230469 "/>
</g>
</svg>
