<?xml version="1.0" encoding="UTF-8"?>
<svg xmlns="http://www.w3.org/2000/svg" xmlns:xlink="http://www.w3.org/1999/xlink" width="48pt" height="48pt" viewBox="0 0 48 48" version="1.1">
<g id="surface1">
<path style=" stroke:none;fill-rule:nonzero;fill:rgb(0%,0%,0%);fill-opacity:1;" d="M 39 33 C 39 34.101562 38.101562 35 37 35 C 35.898438 35 35 34.101562 35 33 C 35 31.898438 35.898438 31 37 31 C 38.101562 31 39 31.898438 39 33 "/>
<path style=" stroke:none;fill-rule:nonzero;fill:rgb(0%,0%,0%);fill-opacity:1;" d="M 37 37 C 34.789062 37 33 35.210938 33 33 C 33 30.789062 34.789062 29 37 29 C 39.210938 29 41 30.789062 41 33 C 41 35.210938 39.210938 37 37 37 M 37 26 C 33.128906 26 30 29.128906 30 33 C 30 36.871094 33.128906 40 37 40 C 40.871094 40 44 36.871094 44 33 C 44 29.128906 40.871094 26 37 26 "/>
<path style=" stroke:none;fill-rule:nonzero;fill:rgb(100%,100%,100%);fill-opacity:1;" d="M 37 35 C 35.898438 35 35 34.101562 35 33 C 35 31.898438 35.898438 31 37 31 C 38.101562 31 39 31.898438 39 33 C 39 34.101562 38.101562 35 37 35 M 37 29 C 34.789062 29 33 30.789062 33 33 C 33 35.210938 34.789062 37 37 37 C 39.210938 37 41 35.210938 41 33 C 41 30.789062 39.210938 29 37 29 "/>
</g>
</svg>
