<?xml version="1.0" encoding="UTF-8"?>
<svg xmlns="http://www.w3.org/2000/svg" xmlns:xlink="http://www.w3.org/1999/xlink" width="48pt" height="48pt" viewBox="0 0 48 48" version="1.1">
<g id="surface1">
<path style=" stroke:none;fill-rule:nonzero;fill:rgb(0%,0%,0%);fill-opacity:1;" d="M 38.640625 34.25 L 35.359375 34.25 L 37 31.398438 Z M 38.640625 34.25 "/>
<path style=" stroke:none;fill-rule:nonzero;fill:rgb(0%,0%,0%);fill-opacity:1;" d="M 40.378906 36.25 L 33.621094 36.25 L 32.761719 34.75 L 36.128906 28.898438 L 37.871094 28.898438 L 41.238281 34.75 Z M 37 26 C 33.128906 26 30 29.128906 30 33 C 30 36.871094 33.128906 40 37 40 C 40.871094 40 44 36.871094 44 33 C 44 29.128906 40.871094 26 37 26 "/>
<path style=" stroke:none;fill-rule:nonzero;fill:rgb(100%,100%,100%);fill-opacity:1;" d="M 35.359375 34.25 L 37 31.398438 L 38.640625 34.25 Z M 37.871094 28.898438 L 36.128906 28.898438 L 32.761719 34.75 L 33.621094 36.25 L 40.378906 36.25 L 41.238281 34.75 Z M 37.871094 28.898438 "/>
</g>
</svg>
