<?xml version="1.0" encoding="UTF-8"?>
<svg xmlns="http://www.w3.org/2000/svg" xmlns:xlink="http://www.w3.org/1999/xlink" width="48pt" height="48pt" viewBox="0 0 48 48" version="1.1">
<g id="surface1">
<path style=" stroke:none;fill-rule:nonzero;fill:rgb(0%,0%,0%);fill-opacity:1;" d="M 36.710938 37.710938 L 35.289062 36.289062 L 37.589844 34 L 33 34 L 33 32 L 37.589844 32 L 35.289062 29.710938 L 36.710938 28.289062 L 41.410156 33 Z M 37 26 C 33.128906 26 30 29.128906 30 33 C 30 36.871094 33.128906 40 37 40 C 40.871094 40 44 36.871094 44 33 C 44 29.128906 40.871094 26 37 26 "/>
<path style=" stroke:none;fill-rule:nonzero;fill:rgb(100%,100%,100%);fill-opacity:1;" d="M 41.410156 33 L 36.710938 37.710938 L 35.289062 36.289062 L 37.589844 34 L 33 34 L 33 32 L 37.589844 32 L 35.289062 29.710938 L 36.710938 28.289062 Z M 41.410156 33 "/>
</g>
</svg>
