<?xml version="1.0" encoding="UTF-8"?>
<svg xmlns="http://www.w3.org/2000/svg" xmlns:xlink="http://www.w3.org/1999/xlink" width="48pt" height="48pt" viewBox="0 0 48 48" version="1.1">
<g id="surface1">
<path style=" stroke:none;fill-rule:nonzero;fill:rgb(0%,0%,0%);fill-opacity:1;" d="M 37 37.410156 L 32.289062 32.710938 L 33.710938 31.289062 L 36 33.589844 L 36 29 L 38 29 L 38 33.589844 L 40.289062 31.289062 L 41.710938 32.710938 Z M 37 26 C 33.128906 26 30 29.128906 30 33 C 30 36.871094 33.128906 40 37 40 C 40.871094 40 44 36.871094 44 33 C 44 29.128906 40.871094 26 37 26 "/>
<path style=" stroke:none;fill-rule:nonzero;fill:rgb(100%,100%,100%);fill-opacity:1;" d="M 41.710938 32.710938 L 37 37.410156 L 32.289062 32.710938 L 33.710938 31.289062 L 36 33.589844 L 36 29 L 38 29 L 38 33.589844 L 40.289062 31.289062 Z M 41.710938 32.710938 "/>
</g>
</svg>
