<?xml version="1.0" encoding="UTF-8"?>
<svg xmlns="http://www.w3.org/2000/svg" xmlns:xlink="http://www.w3.org/1999/xlink" width="48pt" height="48pt" viewBox="0 0 48 48" version="1.1">
<g id="surface1">
<path style=" stroke:none;fill-rule:nonzero;fill:rgb(0%,0%,0%);fill-opacity:1;" d="M 40.121094 36.539062 L 38.121094 36.539062 L 38.121094 33.289062 L 34.878906 36.539062 L 33.460938 35.121094 L 36.710938 31.878906 L 33.460938 31.878906 L 33.460938 29.878906 L 40.121094 29.878906 Z M 41.949219 28.050781 C 39.21875 25.320312 34.78125 25.320312 32.050781 28.050781 C 29.320312 30.78125 29.320312 35.21875 32.050781 37.949219 C 34.78125 40.679688 39.21875 40.679688 41.949219 37.949219 C 44.679688 35.21875 44.679688 30.78125 41.949219 28.050781 "/>
<path style=" stroke:none;fill-rule:nonzero;fill:rgb(100%,100%,100%);fill-opacity:1;" d="M 40.121094 29.878906 L 40.121094 36.539062 L 38.121094 36.539062 L 38.121094 33.289062 L 34.878906 36.539062 L 33.460938 35.121094 L 36.710938 31.878906 L 33.460938 31.878906 L 33.460938 29.878906 Z M 40.121094 29.878906 "/>
</g>
</svg>
