<?xml version="1.0" encoding="UTF-8"?>
<svg xmlns="http://www.w3.org/2000/svg" xmlns:xlink="http://www.w3.org/1999/xlink" width="48pt" height="48pt" viewBox="0 0 48 48" version="1.1">
<g id="surface1">
<path style=" stroke:none;fill-rule:nonzero;fill:rgb(0%,0%,0%);fill-opacity:1;" d="M 41 33.5 L 39.96875 33.5 L 39.28125 36 L 37.71875 36 L 36.96875 33.089844 L 36.269531 36 L 34.71875 36 L 34.03125 33.5 L 33 33.5 L 33 32.5 L 33.75 32.5 L 33.058594 30 L 34.78125 30 L 35.488281 33 L 36.179688 30 L 37.71875 30 L 38.488281 33 L 39.230469 30 L 40.941406 30 L 40.25 32.5 L 41 32.5 Z M 37 26 C 33.128906 26 30 29.128906 30 33 C 30 36.871094 33.128906 40 37 40 C 40.871094 40 44 36.871094 44 33 C 44 29.128906 40.871094 26 37 26 "/>
<path style=" stroke:none;fill-rule:nonzero;fill:rgb(100%,100%,100%);fill-opacity:1;" d="M 41 32.5 L 41 33.5 L 39.96875 33.5 L 39.28125 36 L 37.71875 36 L 36.96875 33.089844 L 36.269531 36 L 34.71875 36 L 34.03125 33.5 L 33 33.5 L 33 32.5 L 33.75 32.5 L 33.058594 30 L 34.78125 30 L 35.488281 33 L 36.179688 30 L 37.71875 30 L 38.488281 33 L 39.230469 30 L 40.941406 30 L 40.25 32.5 Z M 41 32.5 "/>
</g>
</svg>
