<?xml version="1.0" encoding="UTF-8"?>
<svg xmlns="http://www.w3.org/2000/svg" xmlns:xlink="http://www.w3.org/1999/xlink" width="48pt" height="48pt" viewBox="0 0 48 48" version="1.1">
<g id="surface1">
<path style=" stroke:none;fill-rule:nonzero;fill:rgb(0%,0%,0%);fill-opacity:1;" d="M 38.910156 35.710938 C 38.558594 36.019531 38.050781 36.210938 37.378906 36.28125 L 37.378906 37.140625 L 36.46875 37.140625 L 36.46875 36.28125 C 35.851562 36.21875 35.378906 36.050781 35.058594 35.769531 C 34.730469 35.5 34.570312 35.0625 34.570312 34.449219 L 34.570312 34.1875 L 36.339844 34.1875 L 36.339844 34.378906 C 36.339844 34.660156 36.398438 34.859375 36.511719 34.96875 C 36.621094 35.078125 36.769531 35.128906 36.949219 35.128906 C 37.140625 35.128906 37.289062 35.070312 37.390625 34.949219 C 37.488281 34.828125 37.539062 34.679688 37.539062 34.511719 C 37.539062 34.289062 37.46875 34.121094 37.332031 33.988281 C 37.191406 33.871094 37.019531 33.761719 36.800781 33.671875 C 36.589844 33.570312 36.359375 33.480469 36.109375 33.390625 C 35.859375 33.300781 35.628906 33.171875 35.421875 33.03125 C 35.199219 32.878906 35.019531 32.679688 34.878906 32.4375 C 34.738281 32.199219 34.671875 31.878906 34.671875 31.488281 C 34.671875 30.300781 35.269531 29.609375 36.46875 29.421875 L 36.46875 28.871094 L 37.378906 28.871094 L 37.378906 29.421875 C 38.03125 29.488281 38.511719 29.679688 38.800781 30 C 39.101562 30.320312 39.25 30.8125 39.25 31.46875 L 37.539062 31.46875 L 37.539062 31.320312 C 37.539062 31.128906 37.488281 30.960938 37.410156 30.820312 C 37.320312 30.679688 37.191406 30.609375 37.011719 30.609375 C 36.820312 30.609375 36.671875 30.671875 36.582031 30.789062 C 36.488281 30.921875 36.441406 31.050781 36.441406 31.199219 C 36.441406 31.421875 36.519531 31.601562 36.660156 31.71875 C 36.808594 31.851562 37 31.960938 37.21875 32.050781 C 37.441406 32.140625 37.679688 32.230469 37.941406 32.320312 C 38.191406 32.410156 38.429688 32.519531 38.660156 32.679688 C 38.878906 32.828125 39.058594 33.03125 39.210938 33.28125 C 39.359375 33.53125 39.429688 33.859375 39.429688 34.269531 C 39.429688 34.921875 39.261719 35.398438 38.910156 35.710938 M 37 26 C 33.128906 26 30 29.128906 30 33 C 30 36.871094 33.128906 40 37 40 C 40.871094 40 44 36.871094 44 33 C 44 29.128906 40.871094 26 37 26 "/>
<path style=" stroke:none;fill-rule:nonzero;fill:rgb(100%,100%,100%);fill-opacity:1;" d="M 39.429688 34.269531 C 39.429688 34.917969 39.261719 35.402344 38.910156 35.710938 C 38.558594 36.019531 38.050781 36.210938 37.378906 36.28125 L 37.378906 37.140625 L 36.46875 37.140625 L 36.46875 36.28125 C 35.851562 36.21875 35.378906 36.050781 35.058594 35.769531 C 34.730469 35.5 34.570312 35.058594 34.570312 34.449219 L 34.570312 34.191406 L 36.339844 34.191406 L 36.339844 34.378906 C 36.339844 34.660156 36.398438 34.859375 36.511719 34.96875 C 36.621094 35.082031 36.769531 35.128906 36.949219 35.128906 C 37.140625 35.128906 37.289062 35.070312 37.390625 34.949219 C 37.488281 34.832031 37.539062 34.679688 37.539062 34.507812 C 37.539062 34.289062 37.46875 34.121094 37.332031 33.992188 C 37.191406 33.871094 37.019531 33.757812 36.800781 33.667969 C 36.589844 33.570312 36.359375 33.480469 36.109375 33.390625 C 35.859375 33.300781 35.628906 33.167969 35.421875 33.03125 C 35.199219 32.878906 35.019531 32.679688 34.878906 32.441406 C 34.738281 32.199219 34.671875 31.878906 34.671875 31.492188 C 34.671875 30.300781 35.269531 29.609375 36.46875 29.417969 L 36.46875 28.871094 L 37.378906 28.871094 L 37.378906 29.417969 C 38.03125 29.492188 38.511719 29.679688 38.800781 30 C 39.101562 30.320312 39.25 30.808594 39.25 31.46875 L 37.539062 31.46875 L 37.539062 31.320312 C 37.539062 31.128906 37.488281 30.960938 37.410156 30.820312 C 37.320312 30.679688 37.191406 30.609375 37.011719 30.609375 C 36.820312 30.609375 36.671875 30.667969 36.582031 30.789062 C 36.488281 30.917969 36.441406 31.050781 36.441406 31.199219 C 36.441406 31.417969 36.519531 31.597656 36.660156 31.71875 C 36.808594 31.847656 37 31.960938 37.21875 32.050781 C 37.441406 32.140625 37.679688 32.230469 37.941406 32.320312 C 38.191406 32.410156 38.429688 32.519531 38.660156 32.679688 C 38.878906 32.832031 39.058594 33.03125 39.210938 33.28125 C 39.359375 33.53125 39.429688 33.859375 39.429688 34.269531 "/>
</g>
</svg>
