<?xml version="1.0" encoding="UTF-8"?>
<svg xmlns="http://www.w3.org/2000/svg" xmlns:xlink="http://www.w3.org/1999/xlink" width="48pt" height="48pt" viewBox="0 0 48 48" version="1.1">
<g id="surface1">
<path style=" stroke:none;fill-rule:nonzero;fill:rgb(0%,0%,0%);fill-opacity:1;" d="M 37 34 L 36 34 L 36 32 L 37 32 C 37.550781 32 38 31.550781 38 31 C 38 30.449219 37.550781 30 37 30 C 36.449219 30 36 30.449219 36 31 L 34 31 C 34 29.351562 35.351562 28 37 28 C 38.648438 28 40 29.351562 40 31 C 40 32.648438 38.648438 34 37 34 M 38 37 L 36 37 L 36 35 L 38 35 Z M 37 26 C 33.128906 26 30 29.128906 30 33 C 30 36.871094 33.128906 40 37 40 C 40.871094 40 44 36.871094 44 33 C 44 29.128906 40.871094 26 37 26 "/>
<path style=" stroke:none;fill-rule:nonzero;fill:rgb(100%,100%,100%);fill-opacity:1;" d="M 38 37 L 36 37 L 36 35 L 38 35 Z M 38 37 "/>
<path style=" stroke:none;fill-rule:nonzero;fill:rgb(100%,100%,100%);fill-opacity:1;" d="M 40 31 C 40 32.648438 38.648438 34 37 34 L 36 34 L 36 32 L 37 32 C 37.550781 32 38 31.550781 38 31 C 38 30.449219 37.550781 30 37 30 C 36.449219 30 36 30.449219 36 31 L 34 31 C 34 29.351562 35.351562 28 37 28 C 38.648438 28 40 29.351562 40 31 "/>
</g>
</svg>
