<?xml version="1.0" encoding="UTF-8"?>
<svg xmlns="http://www.w3.org/2000/svg" xmlns:xlink="http://www.w3.org/1999/xlink" width="48pt" height="48pt" viewBox="0 0 48 48" version="1.1">
<g id="surface1">
<path style=" stroke:none;fill-rule:nonzero;fill:rgb(0%,0%,0%);fill-opacity:1;" d="M 37 37 C 34.789062 37 33 35.210938 33 33 L 35 33 C 35 34.101562 35.898438 35 37 35 C 38.101562 35 39 34.101562 39 33 C 39 31.898438 38.101562 31 37 31 L 37 32 L 34 30 L 37 28 L 37 29 C 38.101562 29 39.101562 29.449219 39.828125 30.171875 C 40.550781 30.898438 41 31.898438 41 33 C 41 35.210938 39.210938 37 37 37 M 37 26 C 33.128906 26 30 29.128906 30 33 C 30 36.871094 33.128906 40 37 40 C 40.871094 40 44 36.871094 44 33 C 44 29.128906 40.871094 26 37 26 "/>
<path style=" stroke:none;fill-rule:nonzero;fill:rgb(100%,100%,100%);fill-opacity:1;" d="M 41 33 C 41 35.210938 39.210938 37 37 37 C 34.789062 37 33 35.210938 33 33 L 35 33 C 35 34.101562 35.898438 35 37 35 C 38.101562 35 39 34.101562 39 33 C 39 31.898438 38.101562 31 37 31 L 37 32 L 34 30 L 37 28 L 37 29 C 38.101562 29 39.101562 29.449219 39.828125 30.171875 C 40.550781 30.898438 41 31.898438 41 33 "/>
</g>
</svg>
