<?xml version="1.0" encoding="UTF-8"?>
<svg xmlns="http://www.w3.org/2000/svg" xmlns:xlink="http://www.w3.org/1999/xlink" width="48pt" height="48pt" viewBox="0 0 48 48" version="1.1">
<g id="surface1">
<path style=" stroke:none;fill-rule:nonzero;fill:rgb(0%,0%,0%);fill-opacity:1;" d="M 37 25 L 26 25 L 26 27 L 28 27 L 28 32 L 24 32 L 24 25 L 14.191406 25 L 10.117188 23.371094 L 10.847656 19 L 11.464844 19 L 13.464844 22 L 24 22 L 24 16 L 28 16 L 28 20 L 26 20 L 26 22 L 35.585938 22 L 37.9375 24.351562 C 37.792969 24.730469 37.429688 25 37 25 M 26 38 C 24.898438 38 24 37.101562 24 36 L 24 34 L 28 34 L 28 36 C 28 37.101562 27.101562 38 26 38 M 26 10 C 27.101562 10 28 10.898438 28 12 L 28 14 L 24 14 L 24 12 C 24 10.898438 24.898438 10 26 10 M 40 19 L 40 23.585938 L 36.414062 20 L 30 20 L 30 12 C 30 9.792969 28.207031 8 26 8 C 23.792969 8 22 9.792969 22 12 L 22 20 L 14.535156 20 L 12.535156 17 L 9.152344 17 L 7.882812 24.628906 L 13.808594 27 L 22 27 L 22 36 C 22 38.207031 23.792969 40 26 40 C 28.207031 40 30 38.207031 30 36 L 30 27 L 37 27 C 38.652344 27 40 25.652344 40 24 L 40 29 L 42 29 L 42 19 Z M 40 19 "/>
</g>
</svg>
