<?xml version="1.0" encoding="UTF-8"?>
<svg xmlns="http://www.w3.org/2000/svg" xmlns:xlink="http://www.w3.org/1999/xlink" width="48pt" height="48pt" viewBox="0 0 48 48" version="1.1">
<g id="surface1">
<path style=" stroke:none;fill-rule:nonzero;fill:rgb(0%,0%,0%);fill-opacity:1;" d="M 38 24 C 38 23.449219 37.550781 23 37 23 L 26 23 L 26 21 L 28 21 L 28 16 L 24 16 L 24 23 L 20.070312 23 L 14 23.867188 L 14 24.132812 L 20.070312 25 L 24 25 L 24 32 L 28 32 L 28 27 L 26 27 L 26 25 L 37 25 C 37.550781 25 38 24.550781 38 24 M 28 36 L 28 34 L 24 34 L 24 36 C 24 37.101562 24.898438 38 26 38 C 27.101562 38 28 37.101562 28 36 M 11.277344 27 L 12 24.839844 L 12 23.160156 L 11.277344 21 L 10.78125 21 L 10.03125 24 L 10.78125 27 Z M 24 12 L 24 14 L 28 14 L 28 12 C 28 10.898438 27.101562 10 26 10 C 24.898438 10 24 10.898438 24 12 M 40 24 C 40 25.652344 38.652344 27 37 27 L 30 27 L 30 36 C 30 38.207031 28.207031 40 26 40 C 23.792969 40 22 38.207031 22 36 L 22 26.996094 L 20 26.988281 L 13.683594 26.109375 L 12.722656 29 L 9.21875 29 L 8.21875 25 L 7 25 L 7 23 L 8.21875 23 L 9.21875 19 L 12.722656 19 L 13.6875 21.894531 L 20 21 L 22 21 L 22 12 C 22 9.792969 23.792969 8 26 8 C 28.207031 8 30 9.792969 30 12 L 30 21 L 37 21 C 38.652344 21 40 22.347656 40 24 M 42 19 L 42 29 L 40 29 L 40 19 Z M 42 19 "/>
</g>
</svg>
