<?xml version="1.0" encoding="UTF-8"?>
<svg xmlns="http://www.w3.org/2000/svg" xmlns:xlink="http://www.w3.org/1999/xlink" width="48pt" height="48pt" viewBox="0 0 48 48" version="1.1">
<g id="surface1">
<path style=" stroke:none;fill-rule:nonzero;fill:rgb(0%,0%,0%);fill-opacity:1;" d="M 42 19 L 42 29 L 40 29 L 40 19 Z M 27.894531 34 L 24.179688 34 L 23.179688 28 L 28.984375 28 Z M 27.164062 38 L 24.847656 38 L 24.515625 36 L 27.527344 36 Z M 23.695312 19 L 23.304688 19.261719 L 24.179688 14 L 27.894531 14 L 28.804688 19 Z M 24.847656 10 L 27.164062 10 L 27.527344 12 L 24.515625 12 Z M 9.632812 21 L 9.882812 19 L 11.382812 19 L 12.382812 21 Z M 36.5 21 L 32.414062 21 L 30.929688 19.511719 L 28.835938 8 L 23.152344 8 L 21.023438 20.78125 L 20.695312 21 L 14.617188 21 L 12.617188 17 L 8.117188 17 L 6.867188 27 L 13.765625 27 L 15.765625 28 L 19 28 L 19 26 L 16.234375 26 L 14.234375 25 L 9.132812 25 L 9.382812 23 L 21.304688 23 L 24.304688 21 L 29.585938 21 L 31.585938 23 L 36.5 23 C 37.328125 23 38 23.671875 38 24.5 C 38 25.328125 37.328125 26 36.5 26 L 20.847656 26 L 23.152344 40 L 28.835938 40 L 31.015625 28 L 36.5 28 C 38.429688 28 40 26.429688 40 24.5 C 40 22.570312 38.429688 21 36.5 21 "/>
</g>
</svg>
