<?xml version="1.0" encoding="UTF-8"?>
<svg xmlns="http://www.w3.org/2000/svg" xmlns:xlink="http://www.w3.org/1999/xlink" width="48pt" height="48pt" viewBox="0 0 48 48" version="1.1">
<g id="surface1">
<path style=" stroke:none;fill-rule:nonzero;fill:rgb(0%,0%,0%);fill-opacity:1;" d="M 38 24 C 38 23.449219 37.550781 23 37 23 L 27 23 L 27 21 L 29.164062 21 L 27.894531 14 L 24.179688 14 L 23 21.082031 L 23 23 L 20.070312 23 L 14 23.867188 L 14 24.132812 L 20.070312 25 L 23 25 L 23 26.917969 L 24.179688 34 L 27.894531 34 L 29.164062 27 L 27 27 L 27 25 L 37 25 C 37.550781 25 38 24.550781 38 24 M 27.164062 38 L 27.527344 36 L 24.515625 36 L 24.847656 38 Z M 11.277344 27 L 12 24.835938 L 12 23.164062 L 11.277344 21 L 10 21 L 10 27 Z M 24.847656 10 L 24.515625 12 L 27.527344 12 L 27.164062 10 Z M 40 24 C 40 25.652344 38.652344 27 37 27 L 31.199219 27 L 28.835938 40 L 23.152344 40 L 21 27 L 19.859375 26.988281 L 13.683594 26.109375 L 12.722656 29 L 8 29 L 8 19 L 12.722656 19 L 13.6875 21.894531 L 19.859375 21 L 21 21 L 21.015625 20.835938 L 23.152344 8 L 28.835938 8 L 31.199219 21 L 37 21 C 38.652344 21 40 22.347656 40 24 M 42 19 L 42 29 L 40 29 L 40 19 Z M 42 19 "/>
</g>
</svg>
