<?xml version="1.0" encoding="UTF-8"?>
<svg xmlns="http://www.w3.org/2000/svg" xmlns:xlink="http://www.w3.org/1999/xlink" width="48pt" height="48pt" viewBox="0 0 48 48" version="1.1">
<g id="surface1">
<path style=" stroke:none;fill-rule:nonzero;fill:rgb(0%,0%,0%);fill-opacity:1;" d="M 31 26 L 33 26 L 33 31 L 31 31 Z M 27 26 L 29 26 L 28.957031 29.285156 L 25.742188 40 L 21 40 L 21 26 L 23 26 L 23 38 L 24.257812 38 L 26.355469 31 L 25 31 L 25 29 L 26.957031 29 L 27 28.851562 Z M 23 10 L 24.257812 10 L 26.355469 17 L 25 17 L 25 19 L 26.957031 19 L 27 19.148438 L 27 21 L 23 21 Z M 10 19 L 11.382812 19 L 12.382812 21 L 10 21 Z M 38.449219 22.03125 L 37.414062 21 L 33 21 L 33 19 L 31 19 L 31 21 L 29 21 L 29 19 L 25.742188 8 L 21 8 L 21 21 L 14.617188 21 L 12.617188 17 L 8 17 L 8 24.675781 L 13.554688 26.894531 L 15.765625 28 L 19 28 L 19 26 L 16.234375 26 L 14.371094 25.070312 L 10 23.324219 L 10 23 L 36.585938 23 L 37.585938 24 L 38 24 C 38.550781 24 39 24.449219 39 25 C 39 25.550781 38.550781 26 38 26 L 34 26 L 34 28 L 38 28 C 39.652344 28 41 26.652344 41 25 C 41 23.496094 39.890625 22.25 38.449219 22.03125 "/>
</g>
</svg>
