<?xml version="1.0" encoding="UTF-8"?>
<svg xmlns="http://www.w3.org/2000/svg" xmlns:xlink="http://www.w3.org/1999/xlink" width="48pt" height="48pt" viewBox="0 0 48 48" version="1.1">
<g id="surface1">
<path style=" stroke:none;fill-rule:nonzero;fill:rgb(0%,0%,0%);fill-opacity:1;" d="M 38.765625 24 L 36.765625 23 L 35 23 L 35 25 L 36.765625 25 Z M 29 25 L 33 25 L 33 23 L 25 23 L 25 21 L 27 21 L 27 19.148438 L 26.957031 19 L 25 19 L 25 17 L 26.355469 17 L 24.253906 10 L 23 10 L 23 23 L 18.082031 23 L 12.082031 24 L 18.082031 25 L 23 25 L 23 38 L 24.253906 38 L 26.355469 31 L 25 31 L 25 29 L 26.957031 29 L 27 28.851562 L 27 27 L 25 27 L 25 25 Z M 11.28125 24 L 10.28125 21 L 10 21 L 10 27 L 10.28125 27 Z M 40.765625 24 C 40.765625 24.761719 40.339844 25.449219 39.660156 25.789062 L 37.234375 27 L 28.980469 27 L 28.957031 29.285156 L 25.742188 40 L 21 40 L 21 27 L 17.835938 26.984375 L 12.679688 26.128906 L 11.71875 29 L 8 29 L 8 19 L 11.71875 19 L 12.679688 21.871094 L 18 21 L 21 21 L 21 8 L 25.742188 8 L 29 19 L 29 21 L 37.234375 21 L 39.660156 22.210938 C 40.339844 22.550781 40.765625 23.238281 40.765625 24 M 33 16 L 31 16 L 31 20 L 33 20 Z M 31 28 L 33 28 L 33 32 L 31 32 Z M 31 28 "/>
</g>
</svg>
