<?xml version="1.0" encoding="UTF-8"?>
<svg xmlns="http://www.w3.org/2000/svg" xmlns:xlink="http://www.w3.org/1999/xlink" width="48pt" height="48pt" viewBox="0 0 48 48" version="1.1">
<g id="surface1">
<path style=" stroke:none;fill-rule:nonzero;fill:rgb(0%,0%,0%);fill-opacity:1;" d="M 27.003906 28.902344 L 26.996094 29 L 25 29 L 25 31 L 26.800781 31 L 26.117188 38 L 23.929688 37.453125 L 22.839844 26 L 20.828125 26 L 22.070312 39.050781 L 25.632812 39.941406 C 25.792969 39.980469 25.957031 40 26.117188 40 C 26.527344 40 26.929688 39.875 27.269531 39.632812 C 27.746094 39.296875 28.050781 38.773438 28.109375 38.195312 L 29 29 L 29 26 L 27 26 Z M 27.003906 28.902344 "/>
<path style=" stroke:none;fill-rule:nonzero;fill:rgb(0%,0%,0%);fill-opacity:1;" d="M 31 31 L 33 31 L 33 26 L 31 26 Z M 31 31 "/>
<path style=" stroke:none;fill-rule:nonzero;fill:rgb(0%,0%,0%);fill-opacity:1;" d="M 27 21 L 22.933594 21 L 23.929688 10.546875 L 26.117188 10 L 26.804688 17 L 25 17 L 25 19 L 27 19 Z M 10 21 L 10 17 L 11.324219 17 L 11.988281 18.667969 L 15.605469 21 Z M 38.449219 22.03125 L 37.414062 21 L 33 21 L 33 19 L 31 19 L 31 21 L 29 21 L 28.996094 18.902344 L 28.105469 9.808594 C 28.050781 9.226562 27.746094 8.703125 27.269531 8.367188 C 26.792969 8.03125 26.199219 7.917969 25.632812 8.058594 L 22.070312 8.949219 L 20.925781 21 L 19.292969 21 L 13.609375 17.332031 L 12.675781 15 L 8 15 L 8 24.675781 L 13.554688 26.894531 L 15.765625 28 L 19 28 L 19 26 L 16.234375 26 L 14.371094 25.070312 L 10 23.324219 L 10 23 L 36.585938 23 L 37.585938 24 L 38 24 C 38.550781 24 39 24.449219 39 25 C 39 25.550781 38.550781 26 38 26 L 34 26 L 34 28 L 38 28 C 39.652344 28 41 26.652344 41 25 C 41 23.496094 39.890625 22.25 38.449219 22.03125 "/>
</g>
</svg>
