<?xml version="1.0" encoding="UTF-8"?>
<svg xmlns="http://www.w3.org/2000/svg" xmlns:xlink="http://www.w3.org/1999/xlink" width="48pt" height="48pt" viewBox="0 0 48 48" version="1.1">
<g id="surface1">
<path style=" stroke:none;fill-rule:nonzero;fill:rgb(0%,0%,0%);fill-opacity:1;" d="M 36.667969 26 L 36 26 L 36 22 L 36.667969 22 L 39.332031 24 Z M 34 26 L 25 26 L 25 28 L 27.003906 28 L 27.003906 28.902344 L 26.996094 29 L 25 29 L 25 31 L 26.800781 31 L 26.117188 38 L 23.929688 37.453125 L 22.835938 26 L 18.191406 26 L 14 24.324219 L 14 23.675781 L 18.191406 22 L 22.835938 22 L 23.929688 10.546875 L 26.117188 10 L 26.804688 17 L 25 17 L 25 19 L 27 19 L 27 20 L 25 20 L 25 22 L 34 22 Z M 12 24.765625 L 10.382812 28 L 10 28 L 10 20 L 10.382812 20 L 12 23.234375 Z M 40.535156 22.398438 L 37.332031 20 L 33 20 L 33 16 L 31 16 L 31 20 L 28.996094 20 L 28.996094 18.902344 L 28.109375 9.808594 C 28.050781 9.226562 27.746094 8.703125 27.269531 8.367188 C 26.792969 8.03125 26.199219 7.917969 25.632812 8.058594 L 22.070312 8.949219 L 21.019531 20 L 17.808594 20 L 13.484375 21.730469 L 11.617188 18 L 8 18 L 8 30 L 11.617188 30 L 13.484375 26.269531 L 17.808594 28 L 21.019531 28 L 22.070312 39.050781 L 25.632812 39.941406 C 25.792969 39.980469 25.957031 40 26.117188 40 C 26.527344 40 26.929688 39.875 27.269531 39.632812 C 27.746094 39.296875 28.050781 38.773438 28.109375 38.195312 L 29 29 L 29 28 L 31 28 L 31 32 L 33 32 L 33 28 L 37.332031 28 L 40.53125 25.601562 C 41.042969 25.21875 41.332031 24.636719 41.332031 24 C 41.332031 23.363281 41.042969 22.78125 40.535156 22.398438 "/>
</g>
</svg>
