<?xml version="1.0" encoding="UTF-8"?>
<svg xmlns="http://www.w3.org/2000/svg" xmlns:xlink="http://www.w3.org/1999/xlink" width="48pt" height="48pt" viewBox="0 0 48 48" version="1.1">
<g id="surface1">
<path style=" stroke:none;fill-rule:nonzero;fill:rgb(0%,0%,0%);fill-opacity:1;" d="M 37 31 L 21.414062 31 L 17 26.585938 L 17 21 L 23 21 L 23 26 L 25 26 L 25 25 L 27.089844 25 C 27.035156 25.324219 27 25.660156 27 26 L 29 26 C 29 23.792969 30.792969 22 33 22 C 35.207031 22 37 23.792969 37 26 Z M 37 35 L 11 35 L 11 33 L 37 33 Z M 11 23.414062 L 18.585938 31 L 11 31 Z M 12 12 L 15 12 L 15 24.585938 L 12 21.585938 Z M 17 17 L 23 17 L 23 19 L 17 19 Z M 17 12 L 23 12 L 23 15 L 17 15 Z M 33 20 C 30.785156 20 28.851562 21.207031 27.8125 23 L 25 23 L 25 10 L 10 10 L 10 21.585938 L 9 22.585938 L 9 37 L 39 37 L 39 26 C 39 22.691406 36.308594 20 33 20 "/>
</g>
</svg>
