<?xml version="1.0" encoding="UTF-8"?>
<svg xmlns="http://www.w3.org/2000/svg" xmlns:xlink="http://www.w3.org/1999/xlink" width="48pt" height="48pt" viewBox="0 0 48 48" version="1.1">
<g id="surface1">
<path style=" stroke:none;fill-rule:nonzero;fill:rgb(0%,0%,0%);fill-opacity:1;" d="M 36 29 C 37.101562 29 38 28.101562 38 27 L 38 19 C 37.992188 18.535156 37.824219 17 36 17 L 34 17 L 34 27 C 34 28.101562 34.898438 29 36 29 M 23 20 C 21.347656 20 20 21.347656 20 23 L 20 33 C 20 34.652344 21.347656 36 23 36 C 24.652344 36 26 34.652344 26 33 L 26 23 C 26 21.347656 24.652344 20 23 20 M 18.355469 34.816406 C 18.132812 34.253906 18 33.644531 18 33 L 18 23 C 18 22.355469 18.132812 21.746094 18.355469 21.183594 C 17.789062 20.453125 16.9375 20 16 20 C 14.347656 20 13 21.347656 13 23 L 13 33 C 13 34.652344 14.347656 36 16 36 C 16.9375 36 17.789062 35.546875 18.355469 34.816406 M 36 31 C 33.792969 31 32 29.207031 32 27 L 32 17 L 26 17 L 26 15 L 32 15 C 31.996094 14.59375 31.851562 11 28 11 C 24.046875 11 24 14.835938 24 15 L 24 18.101562 C 26.277344 18.566406 28 20.585938 28 23 L 28 33 C 28 35.757812 25.757812 38 23 38 C 21.636719 38 20.402344 37.449219 19.5 36.5625 C 18.578125 37.46875 17.328125 38 16 38 C 13.242188 38 11 35.757812 11 33 L 11 23 C 11 20.761719 12.492188 18.882812 14.527344 18.246094 C 14.667969 15.882812 16.644531 15 18 15 L 20 15 L 20 17 L 18 17 C 17.613281 17.007812 16.769531 17.136719 16.554688 18.039062 C 17.671875 18.160156 18.707031 18.660156 19.5 19.4375 C 20.175781 18.773438 21.035156 18.296875 22 18.101562 L 22 15 C 22 12.925781 23.253906 9 28 9 C 32.746094 9 34 12.925781 34 15 L 36 15 C 38.933594 15 40 17.394531 40 19 L 40 27 C 40 29.207031 38.207031 31 36 31 M 15 34 L 17 34 L 17 26 L 15 26 Z M 15 24 L 17 24 L 17 22 L 15 22 Z M 22 24 L 24 24 L 24 22 L 22 22 Z M 22 26 L 24 26 L 24 34 L 22 34 Z M 22 26 "/>
</g>
</svg>
