<?xml version="1.0" encoding="UTF-8"?>
<svg xmlns="http://www.w3.org/2000/svg" xmlns:xlink="http://www.w3.org/1999/xlink" width="48pt" height="48pt" viewBox="0 0 48 48" version="1.1">
<g id="surface1">
<path style=" stroke:none;fill-rule:nonzero;fill:rgb(0%,0%,0%);fill-opacity:1;" d="M 19 28 L 29 28 L 29 31 L 19 31 Z M 17 33 L 31 33 L 31 26 L 17 26 Z M 37 33.996094 C 37 34.550781 36.550781 35 35.996094 35 L 35 35 L 35 28 L 35.996094 28 C 36.550781 28 37 28.449219 37 29.003906 Z M 33 35 L 15 35 L 15 18 L 17 18 L 17 22 L 19 22 L 19 18 L 29 18 L 29 22 L 31 22 L 31 18 L 33 18 Z M 13 35 L 12.003906 35 C 11.449219 35 11 34.550781 11 33.996094 L 11 29.003906 C 11 28.449219 11.449219 28 12.003906 28 L 13 28 Z M 14.5 13 L 17 13 L 17 16 L 14.5 16 C 13.671875 16 13 15.328125 13 14.5 C 13 13.671875 13.671875 13 14.5 13 M 29 16 L 19 16 L 19 13 L 29 13 Z M 35 14.5 C 35 15.328125 34.328125 16 33.5 16 L 31 16 L 31 13 L 33.5 13 C 34.328125 13 35 13.671875 35 14.5 M 35.996094 26 L 35 26 L 35 17.648438 C 36.179688 17.085938 37 15.890625 37 14.5 C 37 12.570312 35.429688 11 33.5 11 L 31 11 L 31 9 L 29 9 L 29 11 L 19 11 L 19 9 L 17 9 L 17 11 L 14.5 11 C 12.570312 11 11 12.570312 11 14.5 C 11 15.890625 11.820312 17.085938 13 17.648438 L 13 26 L 12.003906 26 C 10.347656 26 9 27.347656 9 29.003906 L 9 33.996094 C 9 35.652344 10.347656 37 12.003906 37 L 35.996094 37 C 37.652344 37 39 35.652344 39 33.996094 L 39 29.003906 C 39 27.347656 37.652344 26 35.996094 26 "/>
</g>
</svg>
