<?xml version="1.0" encoding="UTF-8"?>
<svg xmlns="http://www.w3.org/2000/svg" xmlns:xlink="http://www.w3.org/1999/xlink" width="48pt" height="48pt" viewBox="0 0 48 48" version="1.1">
<g id="surface1">
<path style=" stroke:none;fill-rule:nonzero;fill:rgb(0%,0%,0%);fill-opacity:1;" d="M 30 17 L 18 17 L 18 22 L 30 22 Z M 30 24 L 18 24 L 18 36 L 30 36 Z M 18 15 L 22 15 L 22 13 L 18 13 Z M 32 10 L 32 38 L 16 38 L 16 11 L 24 11 L 24 15 L 30 15 L 30 10 Z M 27 27 L 21 27 L 21 29 L 27 29 Z M 21 31 L 27 31 L 27 33 L 21 33 Z M 21 31 "/>
</g>
</svg>
