<?xml version="1.0" encoding="UTF-8"?>
<svg xmlns="http://www.w3.org/2000/svg" xmlns:xlink="http://www.w3.org/1999/xlink" width="48pt" height="48pt" viewBox="0 0 48 48" version="1.1">
<g id="surface1">
<path style=" stroke:none;fill-rule:nonzero;fill:rgb(0%,0%,0%);fill-opacity:1;" d="M 20 32 L 28 32 L 28 34 L 20 34 Z M 31.1875 23.871094 L 30.085938 36 L 17.914062 36 L 16.8125 23.871094 C 16.625 21.828125 17.285156 19.867188 18.667969 18.351562 C 20.054688 16.835938 21.945312 16 24 16 C 26.054688 16 27.945312 16.835938 29.332031 18.351562 C 30.714844 19.867188 31.375 21.828125 31.1875 23.871094 M 18.5 15 C 17.671875 15 17 14.328125 17 13.5 C 17 12.671875 17.671875 12 18.5 12 L 20.21875 12 L 20.859375 14.5625 C 20.515625 14.6875 20.183594 14.835938 19.855469 15 Z M 25.195312 14.089844 C 24.800781 14.035156 24.402344 14 24 14 C 23.597656 14 23.199219 14.035156 22.804688 14.089844 L 22.28125 12 L 25.71875 12 Z M 30.808594 17.003906 C 29.796875 15.894531 28.527344 15.066406 27.140625 14.5625 L 27.78125 12 L 31 12 L 31 10 L 18.5 10 C 16.570312 10 15 11.570312 15 13.5 C 15 15.039062 16.007812 16.339844 17.394531 16.804688 C 17.328125 16.871094 17.257812 16.933594 17.191406 17.003906 C 15.449219 18.910156 14.585938 21.480469 14.816406 24.054688 L 16.085938 38 L 31.914062 38 L 33.183594 24.054688 C 33.414062 21.480469 32.550781 18.910156 30.808594 17.003906 "/>
</g>
</svg>
