<?xml version="1.0" encoding="UTF-8"?>
<svg xmlns="http://www.w3.org/2000/svg" xmlns:xlink="http://www.w3.org/1999/xlink" width="48pt" height="48pt" viewBox="0 0 48 48" version="1.1">
<g id="surface1">
<path style=" stroke:none;fill-rule:nonzero;fill:rgb(0%,0%,0%);fill-opacity:1;" d="M 14.101562 18.34375 L 9.859375 18.34375 L 9.859375 16.34375 L 14.101562 16.34375 Z M 19.34375 13.101562 L 17.34375 13.101562 L 17.34375 8.859375 L 19.34375 8.859375 Z M 16.222656 13.808594 L 14.808594 15.222656 L 11.980469 12.394531 L 13.394531 10.980469 Z M 25.414062 25.828125 L 26.828125 24.414062 L 28.242188 25.828125 L 26.828125 27.242188 Z M 23.292969 15.222656 C 25.242188 17.171875 25.242188 20.34375 23.292969 22.292969 C 21.34375 24.242188 18.171875 24.242188 16.222656 22.292969 L 15.515625 21.585938 L 22.585938 14.515625 Z M 31.777344 27.949219 L 28.949219 30.777344 L 23.085938 24.914062 C 23.667969 24.597656 24.214844 24.199219 24.707031 23.707031 C 25.199219 23.214844 25.597656 22.667969 25.914062 22.085938 Z M 32.484375 34.3125 L 30.363281 32.191406 L 33.191406 29.363281 L 35.3125 31.484375 Z M 12.6875 21.585938 L 14.808594 23.707031 C 16.484375 25.386719 18.808594 26.027344 20.984375 25.640625 L 32.484375 37.140625 L 38.144531 31.484375 L 26.640625 19.984375 C 27.027344 17.808594 26.386719 15.484375 24.707031 13.808594 L 22.585938 11.6875 Z M 12.6875 21.585938 "/>
</g>
</svg>
