<?xml version="1.0" encoding="UTF-8"?>
<svg xmlns="http://www.w3.org/2000/svg" xmlns:xlink="http://www.w3.org/1999/xlink" width="48pt" height="48pt" viewBox="0 0 48 48" version="1.1">
<g id="surface1">
<path style=" stroke:none;fill-rule:nonzero;fill:rgb(0%,0%,0%);fill-opacity:1;" d="M 33.8125 29.445312 C 34.03125 29.664062 34.136719 29.980469 34.09375 30.292969 L 33.632812 33.507812 L 30.417969 33.96875 C 30.105469 34.011719 29.789062 33.90625 29.566406 33.6875 L 26.03125 30.152344 L 30.273438 25.90625 Z M 23.203125 30.152344 L 28.152344 35.101562 C 28.816406 35.765625 29.769531 36.082031 30.699219 35.949219 L 35.402344 35.277344 L 36.074219 30.574219 C 36.207031 29.644531 35.890625 28.695312 35.226562 28.03125 L 30.273438 23.078125 L 27.445312 25.90625 L 14.71875 13.179688 L 16.132812 11.765625 L 14.71875 10.351562 L 10.476562 14.59375 L 11.890625 16.007812 L 13.304688 14.59375 L 26.03125 27.324219 Z M 23.203125 30.152344 "/>
</g>
</svg>
