<?xml version="1.0" encoding="UTF-8"?>
<svg xmlns="http://www.w3.org/2000/svg" xmlns:xlink="http://www.w3.org/1999/xlink" width="48pt" height="48pt" viewBox="0 0 48 48" version="1.1">
<g id="surface1">
<path style=" stroke:none;fill-rule:nonzero;fill:rgb(0%,0%,0%);fill-opacity:1;" d="M 35 16.011719 C 34.730469 16.011719 34.488281 15.898438 34.300781 15.710938 C 34.101562 15.519531 34 15.269531 34 15 C 34.011719 14.730469 34.109375 14.480469 34.300781 14.289062 C 34.480469 14.109375 34.730469 14 35 14 C 35.269531 14 35.519531 14.101562 35.710938 14.289062 C 35.898438 14.480469 36.011719 14.730469 36.011719 15 C 36.011719 15.550781 35.550781 16.011719 35 16.011719 M 42.070312 13.589844 L 40.660156 12.167969 L 38.828125 14 L 37.820312 14 C 37.679688 13.589844 37.441406 13.199219 37.121094 12.878906 C 36.808594 12.558594 36.421875 12.328125 36 12.179688 L 36 11.179688 L 37.828125 9.339844 L 36.421875 7.929688 L 35 9.339844 L 33.589844 7.929688 L 32.171875 9.339844 L 34.011719 11.179688 L 34 12.191406 C 33.160156 12.488281 32.488281 13.160156 32.191406 14 L 31.179688 14 L 29.351562 12.167969 L 27.929688 13.589844 L 29.351562 15 L 27.929688 16.417969 L 29.351562 17.828125 L 31.179688 16 L 32.179688 16 C 32.328125 16.417969 32.558594 16.800781 32.878906 17.121094 C 33.199219 17.441406 33.589844 17.667969 34.011719 17.820312 L 34.011719 18.828125 L 32.171875 20.660156 L 33.589844 22.070312 L 35 20.660156 L 36.421875 22.070312 L 37.828125 20.660156 L 36 18.828125 L 36.011719 17.820312 C 36.421875 17.667969 36.808594 17.429688 37.121094 17.121094 C 37.441406 16.808594 37.671875 16.417969 37.820312 16.011719 L 38.828125 16 L 40.660156 17.828125 L 42.070312 16.417969 L 40.660156 15 Z M 33.8125 29.445312 C 34.03125 29.664062 34.136719 29.980469 34.09375 30.292969 L 33.632812 33.511719 L 30.417969 33.96875 C 30.105469 34.011719 29.789062 33.90625 29.566406 33.6875 L 26.03125 30.152344 L 30.273438 25.90625 Z M 23.203125 30.152344 L 28.152344 35.101562 C 28.816406 35.765625 29.769531 36.082031 30.699219 35.949219 L 35.402344 35.277344 L 36.074219 30.574219 C 36.207031 29.644531 35.890625 28.695312 35.226562 28.03125 L 30.273438 23.078125 L 27.445312 25.90625 L 14.71875 13.179688 L 16.132812 11.765625 L 14.71875 10.351562 L 10.476562 14.59375 L 11.890625 16.007812 L 13.304688 14.59375 L 26.03125 27.324219 Z M 23.203125 30.152344 "/>
</g>
</svg>
