<?xml version="1.0" encoding="UTF-8"?>
<svg xmlns="http://www.w3.org/2000/svg" xmlns:xlink="http://www.w3.org/1999/xlink" width="48pt" height="48pt" viewBox="0 0 48 48" version="1.1">
<g id="surface1">
<path style=" stroke:none;fill-rule:nonzero;fill:rgb(0%,0%,0%);fill-opacity:1;" d="M 30.824219 29.9375 L 32.238281 28.523438 L 34.363281 30.644531 L 32.949219 32.058594 Z M 33.65625 27.109375 L 35.070312 25.695312 L 37.191406 27.816406 L 35.777344 29.230469 Z M 27.996094 32.765625 L 29.410156 31.351562 L 31.53125 33.472656 L 30.117188 34.886719 Z M 24.148438 30.960938 C 23.796875 29.628906 24.125 28.152344 25.167969 27.109375 L 29.410156 22.867188 C 30.453125 21.824219 31.929688 21.496094 33.261719 21.847656 Z M 27.996094 21.453125 L 26.582031 22.867188 L 12.714844 9 L 11.300781 10.414062 L 25.167969 24.28125 L 23.753906 25.695312 C 21.414062 28.035156 21.414062 31.839844 23.753906 34.179688 L 27.289062 37.714844 L 28.703125 36.300781 L 25.167969 32.765625 L 35.070312 22.867188 L 38.605469 26.402344 L 40.019531 24.988281 L 36.484375 21.453125 C 34.144531 19.113281 30.335938 19.113281 27.996094 21.453125 "/>
</g>
</svg>
