<?xml version="1.0" encoding="UTF-8"?>
<svg xmlns="http://www.w3.org/2000/svg" xmlns:xlink="http://www.w3.org/1999/xlink" width="48pt" height="48pt" viewBox="0 0 48 48" version="1.1">
<g id="surface1">
<path style=" stroke:none;fill-rule:nonzero;fill:rgb(0%,0%,0%);fill-opacity:1;" d="M 31 33 C 28.792969 33 27 31.207031 27 29 C 27 26.792969 28.792969 25 31 25 C 33.207031 25 35 26.792969 35 29 C 35 31.207031 33.207031 33 31 33 M 17 33 C 14.792969 33 13 31.207031 13 29 C 13 26.792969 14.792969 25 17 25 C 19.207031 25 21 26.792969 21 29 C 21 31.207031 19.207031 33 17 33 M 35 13 L 35 15 C 36.101562 15 37 15.898438 37 17 L 37 27 L 36.648438 27 C 35.824219 24.671875 33.605469 23 31 23 C 28.394531 23 26.175781 24.671875 25.351562 27 L 22.648438 27 C 21.824219 24.671875 19.605469 23 17 23 C 14.394531 23 12.175781 24.671875 11.351562 27 L 11 27 L 11 17 C 11 15.898438 11.898438 15 13 15 L 13 13 C 10.792969 13 9 14.792969 9 17 L 9 29 L 11 29 C 11 32.308594 13.691406 35 17 35 C 20.308594 35 23 32.308594 23 29 L 25 29 C 25 32.308594 27.691406 35 31 35 C 34.308594 35 37 32.308594 37 29 L 39 29 L 39 17 C 39 14.792969 37.207031 13 35 13 "/>
</g>
</svg>
