<?xml version="1.0" encoding="UTF-8"?>
<svg xmlns="http://www.w3.org/2000/svg" xmlns:xlink="http://www.w3.org/1999/xlink" width="48pt" height="48pt" viewBox="0 0 48 48" version="1.1">
<g id="surface1">
<path style=" stroke:none;fill-rule:nonzero;fill:rgb(0%,0%,0%);fill-opacity:1;" d="M 36 29 C 36 31.207031 34.203125 33 32 33 C 29.242188 33 27 30.757812 27 28 C 27 26.347656 28.347656 25 30 25 L 33 25 C 34.652344 25 36 26.347656 36 28 Z M 16 33 C 13.796875 33 12 31.207031 12 29 L 12 28 C 12 26.347656 13.347656 25 15 25 L 18 25 C 19.652344 25 21 26.347656 21 28 C 21 30.757812 18.757812 33 16 33 M 21.976562 25 L 26.023438 25 C 25.582031 25.585938 25.253906 26.257812 25.101562 27 L 22.898438 27 C 22.746094 26.257812 22.417969 25.585938 21.976562 25 M 40 25 L 39 25 L 39 17 C 39 14.792969 37.203125 13 35 13 L 35 15 C 36.105469 15 37 15.898438 37 17 L 37 25 L 36.976562 25 C 36.0625 23.792969 34.628906 23 33 23 L 15 23 C 13.359375 23 11.910156 23.804688 11 25.03125 L 11 17 C 11 15.898438 11.894531 15 13 15 L 13 13 C 10.796875 13 9 14.792969 9 17 L 9 25 L 8 25 L 8 27 L 10.101562 27 C 10.035156 27.324219 10 27.65625 10 28 L 10 29 C 10 32.308594 12.691406 35 16 35 C 19.519531 35 22.433594 32.386719 22.921875 29 L 25.078125 29 C 25.566406 32.386719 28.480469 35 32 35 C 35.308594 35 38 32.308594 38 29 L 38 28 C 38 27.65625 37.964844 27.324219 37.898438 27 L 40 27 Z M 40 25 "/>
</g>
</svg>
