<?xml version="1.0" encoding="UTF-8"?>
<svg xmlns="http://www.w3.org/2000/svg" xmlns:xlink="http://www.w3.org/1999/xlink" width="48pt" height="48pt" viewBox="0 0 48 48" version="1.1">
<g id="surface1">
<path style=" stroke:none;fill-rule:nonzero;fill:rgb(0%,0%,0%);fill-opacity:1;" d="M 27.535156 30.035156 L 28.949219 31.449219 C 27.585938 32.816406 25.792969 33.496094 24 33.496094 C 22.207031 33.496094 20.414062 32.816406 19.050781 31.449219 L 20.464844 30.035156 C 22.414062 31.984375 25.585938 31.984375 27.535156 30.035156 M 24 36 C 18.761719 36 14.5 31.738281 14.5 26.5 C 14.5 22.90625 16.558594 19.589844 19.765625 18 L 28.230469 18 C 31.4375 19.589844 33.5 22.90625 33.5 26.5 C 33.5 31.738281 29.238281 36 24 36 M 20 14 L 28 14.003906 L 28 16 L 20 16 Z M 30 16.703125 L 30 14 C 30 12.898438 29.101562 12 28 12 L 25 12 L 25 9 L 23 9 L 23 12 L 20 12 C 18.894531 12 18 12.898438 18 14 L 18 16.703125 C 14.625 18.769531 12.5 22.488281 12.5 26.5 C 12.5 32.839844 17.65625 38 24 38 C 30.34375 38 35.5 32.839844 35.5 26.5 C 35.5 22.488281 33.375 18.769531 30 16.703125 "/>
</g>
</svg>
