<?xml version="1.0" encoding="UTF-8"?>
<svg xmlns="http://www.w3.org/2000/svg" xmlns:xlink="http://www.w3.org/1999/xlink" width="48pt" height="48pt" viewBox="0 0 48 48" version="1.1">
<g id="surface1">
<path style=" stroke:none;fill-rule:nonzero;fill:rgb(0%,0%,0%);fill-opacity:1;" d="M 38 29 L 36 29 L 36 34 L 38 34 Z M 38 35 L 36 35 L 36 37 L 38 37 Z M 30.050781 33.816406 C 30.019531 33.546875 30 33.277344 30 33 C 30 30.421875 31.398438 28.171875 33.476562 26.957031 C 33.484375 26.804688 33.5 26.65625 33.5 26.5 C 33.5 22.902344 31.4375 19.59375 28.230469 18 L 19.769531 18 C 16.5625 19.59375 14.5 22.902344 14.5 26.5 C 14.5 31.738281 18.761719 36 24 36 C 26.296875 36 28.40625 35.179688 30.050781 33.816406 M 20 16 L 28 16 L 28 14.003906 L 20 14 Z M 44 33 C 44 36.867188 40.867188 40 37 40 C 34.164062 40 31.726562 38.308594 30.625 35.882812 C 28.75 37.210938 26.46875 38 24 38 C 17.65625 38 12.5 32.839844 12.5 26.5 C 12.5 22.484375 14.625 18.769531 18 16.703125 L 18 14 C 18 12.898438 18.894531 12 20 12 L 23 12 L 23 9 L 25 9 L 25 12 L 28 12 C 29.105469 12 30 12.898438 30 14 L 30 16.703125 C 33.28125 18.714844 35.363281 22.285156 35.480469 26.171875 C 35.96875 26.0625 36.476562 26 37 26 C 40.867188 26 44 29.132812 44 33 M 27.535156 30.035156 L 28.949219 31.449219 C 27.585938 32.8125 25.792969 33.496094 24 33.496094 C 22.207031 33.496094 20.414062 32.8125 19.050781 31.449219 L 20.464844 30.035156 C 22.414062 31.984375 25.585938 31.984375 27.535156 30.035156 "/>
</g>
</svg>
