<?xml version="1.0" encoding="UTF-8"?>
<svg xmlns="http://www.w3.org/2000/svg" xmlns:xlink="http://www.w3.org/1999/xlink" width="48pt" height="48pt" viewBox="0 0 48 48" version="1.1">
<g id="surface1">
<path style=" stroke:none;fill-rule:nonzero;fill:rgb(0%,0%,0%);fill-opacity:1;" d="M 34 27 C 34 24.742188 33.167969 22.636719 31.691406 21 L 26 21 L 26 19 L 30 19 L 30 17 L 20 17 L 20 19 L 24 19 L 24 21 L 18.308594 21 C 16.832031 22.636719 16 24.742188 16 27 C 16 31.960938 20.035156 36 25 36 C 29.964844 36 34 31.960938 34 27 M 18 15 L 28 15 L 28 13 L 18.414062 13 L 16.414062 15 Z M 36 27 C 36 33.066406 31.066406 38 25 38 C 18.933594 38 14 33.066406 14 27 C 14 23.683594 15.449219 20.617188 18 18.515625 L 18 17 L 14.414062 17 L 13 18.414062 L 13 22 L 11 22 L 11 17.585938 L 17.585938 11 L 34 11 L 34 13 L 30 13 L 30 15 L 32 15 L 32 18.515625 C 34.550781 20.617188 36 23.683594 36 27 M 28.535156 30.535156 L 29.949219 31.949219 C 28.585938 33.3125 26.792969 33.996094 25 33.996094 C 23.207031 33.996094 21.414062 33.3125 20.050781 31.949219 L 21.464844 30.535156 C 23.414062 32.484375 26.585938 32.484375 28.535156 30.535156 "/>
</g>
</svg>
