<?xml version="1.0" encoding="UTF-8"?>
<svg xmlns="http://www.w3.org/2000/svg" xmlns:xlink="http://www.w3.org/1999/xlink" width="48pt" height="48pt" viewBox="0 0 48 48" version="1.1">
<g id="surface1">
<path style=" stroke:none;fill-rule:nonzero;fill:rgb(0%,0%,0%);fill-opacity:1;" d="M 27 28 L 29 28 C 29 30.757812 26.757812 33 24 33 C 21.242188 33 19 30.757812 19 28 L 21 28 C 21 29.652344 22.347656 31 24 31 C 25.652344 31 27 29.652344 27 28 M 24 35 C 20.140625 35 17 31.859375 17 28 C 17 24.140625 20.140625 21 24 21 C 27.859375 21 31 24.140625 31 28 C 31 31.859375 27.859375 35 24 35 M 26.617188 13 L 30.382812 13 L 27.101562 19.5625 C 26.132812 19.203125 25.089844 19 24 19 C 23.867188 19 23.738281 19.015625 23.609375 19.019531 Z M 28.890625 20.453125 L 33.617188 11 L 25.382812 11 L 21.144531 19.472656 C 21.0625 19.5 20.980469 19.53125 20.898438 19.5625 L 17.617188 13 L 22 13 L 23 11 L 14.382812 11 L 19.109375 20.453125 C 16.640625 22.0625 15 24.839844 15 28 C 15 32.960938 19.035156 37 24 37 C 28.964844 37 33 32.960938 33 28 C 33 24.839844 31.359375 22.0625 28.890625 20.453125 "/>
</g>
</svg>
