<?xml version="1.0" encoding="UTF-8"?>
<svg xmlns="http://www.w3.org/2000/svg" xmlns:xlink="http://www.w3.org/1999/xlink" width="48pt" height="48pt" viewBox="0 0 48 48" version="1.1">
<g id="surface1">
<path style=" stroke:none;fill-rule:nonzero;fill:rgb(0%,0%,0%);fill-opacity:1;" d="M 19 19 L 21 19 C 21 20.652344 22.347656 22 24 22 C 25.652344 22 27 20.652344 27 19 L 29 19 C 29 21.757812 26.757812 24 24 24 C 21.242188 24 19 21.757812 19 19 M 25 32.695312 L 25 31 L 23 31 L 23 32.695312 L 18 35.554688 L 18 26.980469 C 19.675781 28.242188 21.746094 29 24 29 C 26.253906 29 28.324219 28.242188 30 26.980469 L 30 35.554688 Z M 24 11 C 28.410156 11 32 14.589844 32 19 C 32 23.410156 28.410156 27 24 27 C 19.589844 27 16 23.410156 16 19 C 16 14.589844 19.589844 11 24 11 M 34 19 C 34 13.484375 29.515625 9 24 9 C 18.484375 9 14 13.484375 14 19 C 14 21.253906 14.757812 23.324219 16.019531 25 L 16 25 L 16 39 L 24 34.429688 L 32 39 L 32 25 L 31.980469 25 C 33.242188 23.324219 34 21.253906 34 19 "/>
</g>
</svg>
