<?xml version="1.0" encoding="UTF-8"?>
<svg xmlns="http://www.w3.org/2000/svg" xmlns:xlink="http://www.w3.org/1999/xlink" width="48pt" height="48pt" viewBox="0 0 48 48" version="1.1">
<g id="surface1">
<path style=" stroke:none;fill-rule:nonzero;fill:rgb(0%,0%,0%);fill-opacity:1;" d="M 25.585938 25 L 23 27.585938 L 23 25 Z M 39 15 L 31 15 L 31 17 L 37 17 L 37 28 L 25.414062 28 L 29 24.414062 L 29 13.84375 C 29 12.273438 27.726562 11 26.15625 11 L 16 11 L 16 10 L 14 10 L 14 38 L 16 38 L 16 13 L 26.15625 13 C 26.621094 13 27 13.378906 27 13.84375 L 27 23 L 18 23 L 18 25 L 21 25 L 21 30 L 39 30 Z M 39 15 "/>
</g>
</svg>
