<?xml version="1.0" encoding="UTF-8"?>
<svg xmlns="http://www.w3.org/2000/svg" xmlns:xlink="http://www.w3.org/1999/xlink" width="48pt" height="48pt" viewBox="0 0 48 48" version="1.1">
<g id="surface1">
<path style=" stroke:none;fill-rule:nonzero;fill:rgb(0%,0%,0%);fill-opacity:1;" d="M 36 22 L 19 22 L 19 19 L 36 19 Z M 14 19 L 17 19 L 17 35 L 14 35 Z M 12 14 L 36 14 L 36 17 L 13.414062 17 L 12 15.585938 Z M 36 11 L 36 12 L 10 12 L 10 16.414062 L 12 18.414062 L 12 37 L 19 37 L 19 24 L 22 24 L 22 29 L 24 29 L 24 24 L 36 24 L 36 28 L 38 28 L 38 11 Z M 36 11 "/>
</g>
</svg>
