<?xml version="1.0" encoding="UTF-8"?>
<svg xmlns="http://www.w3.org/2000/svg" xmlns:xlink="http://www.w3.org/1999/xlink" width="48pt" height="48pt" viewBox="0 0 48 48" version="1.1">
<g id="surface1">
<path style=" stroke:none;fill-rule:nonzero;fill:rgb(0%,0%,0%);fill-opacity:1;" d="M 35 27 L 14 27 C 13.449219 27 13 26.550781 13 26 L 13 24 L 35 24 Z M 36 35 C 35.449219 35 35 34.550781 35 34 C 35 33.449219 35.449219 33 36 33 C 36.550781 33 37 33.449219 37 34 C 37 34.550781 36.550781 35 36 35 M 14 35 C 13.449219 35 13 34.550781 13 34 C 13 33.449219 13.449219 33 14 33 C 14.550781 33 15 33.449219 15 34 C 15 34.550781 14.550781 35 14 35 M 40 24 L 40 22 L 13 22 L 13 11 L 8 11 L 8 13 L 11 13 L 11 26 C 11 27.300781 11.839844 28.402344 13 28.816406 L 13 31.183594 C 11.839844 31.597656 11 32.699219 11 34 C 11 35.652344 12.347656 37 14 37 C 15.652344 37 17 35.652344 17 34 C 17 32.699219 16.160156 31.597656 15 31.183594 L 15 29 L 35 29 L 35 31.183594 C 33.839844 31.597656 33 32.699219 33 34 C 33 35.652344 34.347656 37 36 37 C 37.652344 37 39 35.652344 39 34 C 39 32.699219 38.160156 31.597656 37 31.183594 L 37 29 L 40 29 L 40 27 L 37 27 L 37 24 Z M 40 24 "/>
</g>
</svg>
