<?xml version="1.0" encoding="UTF-8"?>
<svg xmlns="http://www.w3.org/2000/svg" xmlns:xlink="http://www.w3.org/1999/xlink" width="48pt" height="48pt" viewBox="0 0 48 48" version="1.1">
<g id="surface1">
<path style=" stroke:none;fill-rule:nonzero;fill:rgb(0%,0%,0%);fill-opacity:1;" d="M 24 27.054688 L 22.164062 24 L 24 20.945312 L 25.835938 24 Z M 24 17.054688 L 20.449219 22.972656 C 20.070312 23.605469 20.070312 24.394531 20.449219 25.03125 L 24 30.945312 L 27.550781 25.027344 C 27.929688 24.394531 27.929688 23.605469 27.550781 22.96875 Z M 25 36.949219 L 25 34 L 23 34 L 23 36.949219 C 16.628906 36.460938 11.539062 31.371094 11.050781 25 L 14 25 L 14 23 L 11.050781 23 C 11.539062 16.628906 16.628906 11.539062 23 11.050781 L 23 14 L 25 14 L 25 11.050781 C 31.371094 11.539062 36.460938 16.628906 36.949219 23 L 34 23 L 34 25 L 36.949219 25 C 36.460938 31.371094 31.371094 36.460938 25 36.949219 M 24 9 C 15.730469 9 9 15.730469 9 24 C 9 32.269531 15.730469 39 24 39 C 32.269531 39 39 32.269531 39 24 C 39 15.730469 32.269531 9 24 9 "/>
</g>
</svg>
