<?xml version="1.0" encoding="UTF-8"?>
<svg xmlns="http://www.w3.org/2000/svg" xmlns:xlink="http://www.w3.org/1999/xlink" width="48pt" height="48pt" viewBox="0 0 48 48" version="1.1">
<g id="surface1">
<path style=" stroke:none;fill-rule:nonzero;fill:rgb(0%,0%,0%);fill-opacity:1;" d="M 24 32 C 18.578125 32 14 29.253906 14 26 L 14 20.175781 C 14.945312 20.894531 16.191406 21.507812 17.71875 21.960938 L 19 22.339844 L 19 15.808594 C 19 14.757812 19.320312 13.757812 19.9375 12.910156 C 20.867188 11.59375 22.390625 10.808594 24 10.808594 C 25.609375 10.808594 27.132812 11.59375 28.070312 12.917969 C 28.679688 13.757812 29 14.757812 29 15.808594 L 29 22.339844 L 30.28125 21.960938 C 30.699219 21.835938 31.09375 21.699219 31.46875 21.554688 C 31.59375 21.503906 31.703125 21.453125 31.824219 21.402344 C 32.066406 21.300781 32.308594 21.191406 32.535156 21.082031 C 32.660156 21.019531 32.777344 20.953125 32.898438 20.886719 C 33.101562 20.777344 33.296875 20.664062 33.480469 20.546875 C 33.589844 20.476562 33.695312 20.402344 33.800781 20.332031 C 33.863281 20.285156 33.9375 20.242188 34 20.195312 L 34 26 C 34 29.253906 29.421875 32 24 32 M 34 32 C 34 33.886719 29.722656 36 24 36 C 18.277344 36 14 33.886719 14 32 L 14 30.476562 C 16.132812 32.617188 19.777344 34 24 34 C 28.222656 34 31.867188 32.617188 34 30.476562 Z M 17.253906 13.933594 C 17.207031 14.105469 17.179688 14.28125 17.144531 14.457031 C 17.125 14.566406 17.097656 14.671875 17.078125 14.78125 C 17.027344 15.121094 17 15.464844 17 15.808594 L 17 19.59375 C 15.140625 18.828125 14 17.792969 14 16.808594 C 14 15.78125 15.265625 14.703125 17.253906 13.933594 M 34 16.808594 C 34 17.792969 32.859375 18.828125 31 19.59375 L 31 15.808594 C 31 15.464844 30.972656 15.121094 30.921875 14.785156 C 30.902344 14.671875 30.875 14.5625 30.851562 14.449219 C 30.816406 14.277344 30.792969 14.101562 30.746094 13.933594 C 32.734375 14.703125 34 15.78125 34 16.808594 M 29.445312 11.4375 C 28.125 9.792969 26.125 8.808594 24 8.808594 C 21.871094 8.808594 19.871094 9.792969 18.554688 11.4375 C 14.445312 12.445312 12 14.4375 12 16.808594 L 12 32 C 12 35.421875 17.160156 38 24 38 C 30.839844 38 36 35.421875 36 32 L 36 16.808594 C 36 14.4375 33.554688 12.445312 29.445312 11.4375 "/>
</g>
</svg>
