<?xml version="1.0" encoding="UTF-8"?>
<svg xmlns="http://www.w3.org/2000/svg" xmlns:xlink="http://www.w3.org/1999/xlink" width="48pt" height="48pt" viewBox="0 0 48 48" version="1.1">
<g id="surface1">
<path style=" stroke:none;fill-rule:nonzero;fill:rgb(0%,0%,0%);fill-opacity:1;" d="M 39.707031 17.707031 L 38.292969 16.292969 L 27.292969 27.292969 L 28.707031 28.707031 L 30 27.414062 L 33.292969 30.707031 L 34.707031 29.292969 L 31.414062 26 L 32.414062 25 L 42 25 L 42 23 L 34.414062 23 Z M 31.351562 20.707031 L 29.9375 19.292969 L 21.9375 27.292969 L 23.351562 28.707031 Z M 16.644531 27.292969 L 18.0625 28.707031 L 26.0625 20.707031 L 24.644531 19.292969 Z M 20.707031 20.707031 L 9.707031 31.707031 L 8.292969 30.292969 L 13.585938 25 L 6 25 L 6 23 L 15.585938 23 L 16.585938 22 L 13.292969 18.707031 L 14.707031 17.292969 L 18 20.585938 L 19.292969 19.292969 Z M 20.707031 20.707031 "/>
</g>
</svg>
