<?xml version="1.0" encoding="UTF-8"?>
<svg xmlns="http://www.w3.org/2000/svg" xmlns:xlink="http://www.w3.org/1999/xlink" width="48pt" height="48pt" viewBox="0 0 48 48" version="1.1">
<g id="surface1">
<path style=" stroke:none;fill-rule:nonzero;fill:rgb(0%,0%,0%);fill-opacity:1;" d="M 24.648438 19.292969 L 16.648438 27.292969 L 18.058594 28.707031 L 26.058594 20.707031 Z M 24.648438 19.292969 "/>
<path style=" stroke:none;fill-rule:nonzero;fill:rgb(0%,0%,0%);fill-opacity:1;" d="M 19.292969 19.292969 L 18 20.585938 L 14.707031 17.292969 L 13.292969 18.707031 L 16.585938 22 L 15.585938 23 L 6 23 L 6 25 L 13.585938 25 L 8.292969 30.292969 L 9.707031 31.707031 L 20.707031 20.707031 Z M 19.292969 19.292969 "/>
<path style=" stroke:none;fill-rule:nonzero;fill:rgb(0%,0%,0%);fill-opacity:1;" d="M 29.941406 19.292969 L 21.941406 27.292969 L 23.351562 28.707031 L 31.351562 20.707031 Z M 29.941406 19.292969 "/>
<path style=" stroke:none;fill-rule:nonzero;fill:rgb(0%,0%,0%);fill-opacity:1;" d="M 38 34 L 36 34 L 36 29 L 38 29 Z M 38 37 L 36 37 L 36 35 L 38 35 Z M 37 26 C 35.429688 26 33.980469 26.523438 32.8125 27.398438 L 31.414062 26 L 32.414062 25 L 42 25 L 42 23 L 34.414062 23 L 39.707031 17.707031 L 38.292969 16.292969 L 27.292969 27.292969 L 28.707031 28.707031 L 30 27.414062 L 31.398438 28.8125 C 30.523438 29.980469 30 31.429688 30 33 C 30 36.867188 33.132812 40 37 40 C 40.867188 40 44 36.867188 44 33 C 44 29.132812 40.867188 26 37 26 "/>
</g>
</svg>
