<?xml version="1.0" encoding="UTF-8"?>
<svg xmlns="http://www.w3.org/2000/svg" xmlns:xlink="http://www.w3.org/1999/xlink" width="48pt" height="48pt" viewBox="0 0 48 48" version="1.1">
<g id="surface1">
<path style=" stroke:none;fill-rule:nonzero;fill:rgb(0%,0%,0%);fill-opacity:1;" d="M 40.292969 34.707031 L 38 32.414062 L 38 37 L 36 37 L 36 32.414062 L 33.707031 34.707031 L 32.292969 33.292969 L 37 28.585938 L 41.707031 33.292969 Z M 37 26 C 35.925781 26 34.910156 26.25 34 26.683594 L 34 26 L 38.121094 26 L 43 24.78125 L 43 22.21875 L 38.121094 21 L 34 21 L 34 18 L 24.535156 18 L 23.203125 16 L 26 16 L 26 14 L 21.867188 14 L 18.40625 8.808594 L 13.804688 10.34375 L 15 15.121094 L 15 19 L 14.414062 19 L 11.414062 16 L 8 16 L 8 26 L 6 26 L 6 28 L 13 28 L 13 26 L 10 26 L 10 18 L 10.585938 18 L 13.585938 21 L 20 21 L 20 19 L 17 19 L 17 15 L 16.195312 11.65625 L 17.59375 11.191406 L 23.464844 20 L 32 20 L 32 21 L 28 21 L 28 23 L 37.878906 23 L 39.878906 23.5 L 37.878906 24 L 28 24 L 28 26 L 32 26 L 32 27 L 23.464844 27 L 17.59375 35.808594 L 16.195312 35.34375 L 17 32 L 17 28 L 20 28 L 20 26 L 15 26 L 15 31.878906 L 13.804688 36.65625 L 18.40625 38.191406 L 21.867188 33 L 26 33 L 26 31 L 23.203125 31 L 24.535156 29 L 31.261719 29 C 30.46875 30.132812 30 31.511719 30 33 C 30 36.867188 33.132812 40 37 40 C 40.867188 40 44 36.867188 44 33 C 44 29.132812 40.867188 26 37 26 "/>
</g>
</svg>
