<?xml version="1.0" encoding="UTF-8"?>
<svg xmlns="http://www.w3.org/2000/svg" xmlns:xlink="http://www.w3.org/1999/xlink" width="48pt" height="48pt" viewBox="0 0 48 48" version="1.1">
<g id="surface1">
<path style=" stroke:none;fill-rule:nonzero;fill:rgb(0%,0%,0%);fill-opacity:1;" d="M 37.878906 24 L 28 24 L 28 26 L 32 26 L 32 27 L 23.464844 27 L 17.59375 35.808594 L 16.195312 35.34375 L 16.96875 32.242188 L 16.992188 28 L 20 28 L 20 26 L 12.585938 26 L 9.804688 28.78125 L 9 28.382812 L 9 24.5 L 15 24.5 L 15 22.5 L 9 22.5 L 9 18.617188 L 9.804688 18.21875 L 12.585938 21 L 20 21 L 20 19 L 17 19 L 17 15 L 16.195312 11.65625 L 17.59375 11.191406 L 23.464844 20 L 32 20 L 32 21 L 28 21 L 28 23 L 37.878906 23 L 39.878906 23.5 Z M 38.121094 21 L 34 21 L 34 18 L 24.535156 18 L 23.203125 16 L 26 16 L 26 14 L 21.867188 14 L 18.40625 8.808594 L 13.804688 10.34375 L 15 15.121094 L 15 19 L 13.414062 19 L 10.195312 15.78125 L 7 17.382812 L 7 29.617188 L 10.195312 31.21875 L 13.414062 28 L 15 28 L 15 31.878906 L 13.804688 36.65625 L 18.40625 38.191406 L 21.867188 33 L 26 33 L 26 31 L 23.203125 31 L 24.535156 29 L 34 29 L 34 26 L 38.121094 26 L 43 24.78125 L 43 22.21875 Z M 38.121094 21 "/>
</g>
</svg>
