<?xml version="1.0" encoding="UTF-8"?>
<svg xmlns="http://www.w3.org/2000/svg" xmlns:xlink="http://www.w3.org/1999/xlink" width="48pt" height="48pt" viewBox="0 0 48 48" version="1.1">
<g id="surface1">
<path style=" stroke:none;fill-rule:nonzero;fill:rgb(0%,0%,0%);fill-opacity:1;" d="M 36 24 L 28.585938 24 L 27.585938 25 L 21 25 L 21 27 L 24.179688 27 L 18.449219 36 L 17 36 L 17 25 L 12.5 25 L 9.5 29 L 8 29 L 8 24.5 L 11 24.5 L 11 22.5 L 8 22.5 L 8 18 L 9.5 18 L 12.5 22 L 17 22 L 17 11 L 18.449219 11 L 24.179688 20 L 21 20 L 21 22 L 27.585938 22 L 28.585938 23 L 36 23 C 36.855469 23 37.707031 23.171875 38.496094 23.5 C 37.707031 23.828125 36.855469 24 36 24 M 43 22.5 L 40.78125 22.5 C 39.378906 21.542969 37.699219 21 36 21 L 29.414062 21 L 28.414062 20 L 26.550781 20 L 20.820312 11 L 23 11 L 23 9 L 15 9 L 15 20 L 13.5 20 L 10.5 16 L 6 16 L 6 31 L 10.5 31 L 13.5 27 L 15 27 L 15 38 L 23 38 L 23 36 L 20.820312 36 L 26.550781 27 L 28.414062 27 L 29.414062 26 L 36 26 C 37.699219 26 39.378906 25.457031 40.78125 24.5 L 43 24.5 Z M 43 22.5 "/>
</g>
</svg>
