<?xml version="1.0" encoding="UTF-8"?>
<svg xmlns="http://www.w3.org/2000/svg" xmlns:xlink="http://www.w3.org/1999/xlink" width="48pt" height="48pt" viewBox="0 0 48 48" version="1.1">
<g id="surface1">
<path style=" stroke:none;fill-rule:nonzero;fill:rgb(0%,0%,0%);fill-opacity:1;" d="M 43.164062 23.5 L 42.101562 24.300781 C 40.640625 25.394531 38.828125 26 37 26 L 34.386719 26 L 35.386719 29 L 26.277344 29 L 20.550781 38 L 16.164062 38 L 13.804688 25 L 15.835938 25 L 17.835938 36 L 19.449219 36 L 23.90625 29 L 21 29 L 21 27 L 32.613281 27 L 32.277344 26 L 29 26 L 29 24 L 37 24 C 37.855469 24 38.707031 23.828125 39.496094 23.5 C 38.707031 23.171875 37.855469 23 37 23 L 29 23 L 29 21 L 32.277344 21 L 32.613281 20 L 21 20 L 21 18 L 23.90625 18 L 19.449219 11 L 17.835938 11 L 16.195312 20 L 17 20 L 17 22 L 13.5 22 L 10.5 18 L 9.117188 18 L 9.894531 25 L 12 25 L 12 27 L 6 27 L 6 25 L 7.882812 25 L 6.882812 16 L 11.5 16 L 14.230469 19.640625 L 16.164062 9 L 20.550781 9 L 26.277344 18 L 35.386719 18 L 34.386719 21 L 37 21 C 38.828125 21 40.640625 21.605469 42.101562 22.699219 Z M 43.164062 23.5 "/>
</g>
</svg>
