<?xml version="1.0" encoding="UTF-8"?>
<svg xmlns="http://www.w3.org/2000/svg" xmlns:xlink="http://www.w3.org/1999/xlink" width="48pt" height="48pt" viewBox="0 0 48 48" version="1.1">
<g id="surface1">
<path style=" stroke:none;fill-rule:nonzero;fill:rgb(0%,0%,0%);fill-opacity:1;" d="M 37 24 L 29 24 L 29 26 L 32.277344 26 L 32.613281 27 L 21 27 L 21 29 L 23.90625 29 L 19.449219 36 L 17.835938 36 L 16.199219 27 L 18 27 L 18 25 L 13.5 25 L 10.5 29 L 9 29 L 9 24.5 L 12 24.5 L 12 22.5 L 9 22.5 L 9 18 L 10.5 18 L 13.5 22 L 18 22 L 18 20 L 16.199219 20 L 17.835938 11 L 19.449219 11 L 23.90625 18 L 21 18 L 21 20 L 32.613281 20 L 32.277344 21 L 29 21 L 29 23 L 37 23 C 37.855469 23 38.707031 23.171875 39.496094 23.5 C 38.707031 23.828125 37.855469 24 37 24 M 42.101562 22.699219 C 40.636719 21.605469 38.828125 21 37 21 L 34.386719 21 L 35.386719 18 L 26.277344 18 L 20.550781 9 L 16.164062 9 L 14.230469 19.640625 L 11.5 16 L 7 16 L 7 31 L 11.5 31 L 14.230469 27.359375 L 16.164062 38 L 20.550781 38 L 26.277344 29 L 35.386719 29 L 34.386719 26 L 37 26 C 38.828125 26 40.636719 25.394531 42.101562 24.300781 L 43.167969 23.5 Z M 42.101562 22.699219 "/>
</g>
</svg>
