<?xml version="1.0" encoding="UTF-8"?>
<svg xmlns="http://www.w3.org/2000/svg" xmlns:xlink="http://www.w3.org/1999/xlink" width="48pt" height="48pt" viewBox="0 0 48 48" version="1.1">
<g id="surface1">
<path style=" stroke:none;fill-rule:nonzero;fill:rgb(0%,0%,0%);fill-opacity:1;" d="M 43.167969 23.5 L 42.101562 24.300781 C 40.636719 25.394531 38.828125 26 37 26 L 34.414062 26 L 31.414062 29 L 26.277344 29 L 25.003906 31 L 27 31 L 27 33 L 23.730469 33 L 20.550781 38 L 16.164062 38 L 13.800781 25 L 18 25 L 18 27 L 16.199219 27 L 17.835938 36 L 19.449219 36 L 23.90625 29 L 20 29 L 20 27 L 30.585938 27 L 31.585938 26 L 27 26 L 27 24 L 37 24 C 37.855469 24 38.707031 23.828125 39.496094 23.5 C 38.707031 23.171875 37.855469 23 37 23 L 27 23 L 27 21 L 31.585938 21 L 30.585938 20 L 20 20 L 20 18 L 23.90625 18 L 19.449219 11 L 17.835938 11 L 16.199219 20 L 18 20 L 18 22 L 13.464844 22 L 11.464844 19 L 9.882812 19 L 9.132812 25 L 12 25 L 12 27 L 6 27 L 6 25 L 7.117188 25 L 8.117188 17 L 12.535156 17 L 14.246094 19.5625 L 16.164062 9 L 20.550781 9 L 23.730469 14 L 27 14 L 27 16 L 25.003906 16 L 26.277344 18 L 31.414062 18 L 34.414062 21 L 37 21 C 38.828125 21 40.636719 21.605469 42.101562 22.699219 Z M 43.167969 23.5 "/>
</g>
</svg>
