<?xml version="1.0" encoding="UTF-8"?>
<svg xmlns="http://www.w3.org/2000/svg" xmlns:xlink="http://www.w3.org/1999/xlink" width="48pt" height="48pt" viewBox="0 0 48 48" version="1.1">
<g id="surface1">
<path style=" stroke:none;fill-rule:nonzero;fill:rgb(0%,0%,0%);fill-opacity:1;" d="M 37 24 L 27 24 L 27 26 L 31.585938 26 L 30.585938 27 L 20 27 L 20 29 L 23.90625 29 L 19.449219 36 L 17.835938 36 L 16.378906 28 L 18 28 L 18 26 L 13.5 26 L 10.5 30 L 9 30 L 9 26.617188 L 11 25.617188 L 11 24.5 L 16 24.5 L 16 22.5 L 11 22.5 L 11 21.382812 L 9 20.382812 L 9 17 L 10.5 17 L 13.5 21 L 18 21 L 18 19 L 16.378906 19 L 17.835938 11 L 19.449219 11 L 23.90625 18 L 20 18 L 20 20 L 30.585938 20 L 31.585938 21 L 27 21 L 27 23 L 37 23 C 37.855469 23 38.707031 23.171875 39.496094 23.5 C 38.707031 23.828125 37.855469 24 37 24 M 42.101562 22.699219 C 40.636719 21.605469 38.828125 21 37 21 L 34.414062 21 L 31.414062 18 L 26.277344 18 L 25.003906 16 L 27 16 L 27 14 L 23.730469 14 L 20.550781 9 L 16.164062 9 L 14.378906 18.835938 L 11.5 15 L 7 15 L 7 21.617188 L 9 22.617188 L 9 24.382812 L 7 25.382812 L 7 32 L 11.5 32 L 14.378906 28.164062 L 16.164062 38 L 20.550781 38 L 23.730469 33 L 27 33 L 27 31 L 25.003906 31 L 26.277344 29 L 31.414062 29 L 34.414062 26 L 37 26 C 38.828125 26 40.636719 25.394531 42.101562 24.300781 L 43.167969 23.5 Z M 42.101562 22.699219 "/>
</g>
</svg>
