<?xml version="1.0" encoding="UTF-8"?>
<svg xmlns="http://www.w3.org/2000/svg" xmlns:xlink="http://www.w3.org/1999/xlink" width="48pt" height="48pt" viewBox="0 0 48 48" version="1.1">
<g id="surface1">
<path style=" stroke:none;fill-rule:nonzero;fill:rgb(0%,0%,0%);fill-opacity:1;" d="M 43.167969 23.5 L 42.101562 24.300781 C 40.636719 25.394531 38.828125 26 37 26 L 32 26 L 32 29 L 27.488281 29 L 25.933594 31 L 28 31 L 28 33 L 24.378906 33 L 20.488281 38 L 15.894531 38 L 17.09375 26 L 20 26 L 20 28 L 18.90625 28 L 18.105469 36 L 19.511719 36 L 24.953125 29 L 22 29 L 22 27 L 30 27 L 30 26 L 27 26 L 27 24 L 37 24 C 37.855469 24 38.707031 23.828125 39.496094 23.5 C 38.707031 23.171875 37.855469 23 37 23 L 27 23 L 27 21 L 30 21 L 30 20 L 22 20 L 22 18 L 24.953125 18 L 19.511719 11 L 18.105469 11 L 18.90625 19 L 20 19 L 20 21 L 14.585938 21 L 11.585938 18 L 10 18 L 10 24.882812 L 12.234375 26 L 15 26 L 15 28 L 11.765625 28 L 7.765625 26 L 6 26 L 6 24 L 8 24 L 8 16 L 12.414062 16 L 15.414062 19 L 16.894531 19 L 15.894531 9 L 20.488281 9 L 24.378906 14 L 28 14 L 28 16 L 25.933594 16 L 27.488281 18 L 32 18 L 32 21 L 37 21 C 38.828125 21 40.636719 21.605469 42.101562 22.699219 Z M 43.167969 23.5 "/>
</g>
</svg>
