<?xml version="1.0" encoding="UTF-8"?>
<svg xmlns="http://www.w3.org/2000/svg" xmlns:xlink="http://www.w3.org/1999/xlink" width="48pt" height="48pt" viewBox="0 0 48 48" version="1.1">
<g id="surface1">
<path style=" stroke:none;fill-rule:nonzero;fill:rgb(0%,0%,0%);fill-opacity:1;" d="M 43 24.5 L 40.78125 24.5 C 39.378906 25.457031 37.703125 26 36 26 L 30.535156 26 L 28.535156 29 L 22.648438 29 L 19.539062 36 L 22 36 L 22 38 L 14 38 L 14 25 L 16 25 L 16 36 L 17.351562 36 L 20.460938 29 L 18 29 L 18 27 L 27.464844 27 L 28.132812 26 L 24 26 L 24 24 L 36 24 C 36.855469 24 37.707031 23.828125 38.496094 23.5 C 37.707031 23.171875 36.855469 23 36 23 L 24 23 L 24 21 L 28.132812 21 L 27.464844 20 L 18 20 L 18 18 L 20.460938 18 L 17.351562 11 L 16 11 L 16 22 L 11.277344 22 L 10.277344 19 L 8.882812 19 L 8.132812 25 L 12 25 L 12 27 L 5 27 L 5 25 L 6.117188 25 L 7.117188 17 L 11.722656 17 L 12.722656 20 L 14 20 L 14 9 L 22 9 L 22 11 L 19.539062 11 L 22.648438 18 L 28.535156 18 L 30.535156 21 L 36 21 C 37.703125 21 39.378906 21.542969 40.78125 22.5 L 43 22.5 Z M 43 24.5 "/>
</g>
</svg>
