<?xml version="1.0" encoding="UTF-8"?>
<svg xmlns="http://www.w3.org/2000/svg" xmlns:xlink="http://www.w3.org/1999/xlink" width="48pt" height="48pt" viewBox="0 0 48 48" version="1.1">
<g id="surface1">
<path style=" stroke:none;fill-rule:nonzero;fill:rgb(0%,0%,0%);fill-opacity:1;" d="M 36 24 L 24 24 L 24 26 L 28.132812 26 L 27.464844 27 L 18 27 L 18 29 L 20.460938 29 L 17.351562 36 L 16 36 L 16 26 L 11.382812 26 L 10.382812 28 L 9 28 L 9 24.5 L 16 24.5 L 16 22.5 L 9 22.5 L 9 19 L 10.382812 19 L 11.382812 21 L 16 21 L 16 11 L 17.351562 11 L 20.460938 18 L 18 18 L 18 20 L 27.464844 20 L 28.132812 21 L 24 21 L 24 23 L 36 23 C 36.855469 23 37.707031 23.171875 38.496094 23.5 C 37.707031 23.828125 36.855469 24 36 24 M 43 22.5 L 40.78125 22.5 C 39.378906 21.542969 37.699219 21 36 21 L 30.535156 21 L 28.535156 18 L 22.648438 18 L 19.539062 11 L 22 11 L 22 9 L 14 9 L 14 19 L 12.617188 19 L 11.617188 17 L 7 17 L 7 22.5 L 5 22.5 L 5 24.5 L 7 24.5 L 7 30 L 11.617188 30 L 12.617188 28 L 14 28 L 14 38 L 22 38 L 22 36 L 19.539062 36 L 22.648438 29 L 28.535156 29 L 30.535156 26 L 36 26 C 37.699219 26 39.378906 25.457031 40.78125 24.5 L 43 24.5 Z M 43 22.5 "/>
</g>
</svg>
